<svg xmlns="http://www.w3.org/2000/svg" viewBox="0 0 3200 3200">
  <defs>
    <linearGradient id="a" x1="2139.3" x2="2363.4" y1="1161.9" y2="1550.2" data-name="Unbenannter Verlauf 45" gradientUnits="userSpaceOnUse">
      <stop offset="0" stop-color="#fff" stop-opacity="0"/>
      <stop offset=".8"/>
    </linearGradient>
    <linearGradient id="b" x1="1418.4" x2="1418.4" y1="9201.4" y2="8701.1" data-name="Unbenannter Verlauf 8" gradientTransform="matrix(1 0 0 -1 0 9902)" gradientUnits="userSpaceOnUse">
      <stop offset="0" stop-color="#fff" stop-opacity="0"/>
      <stop offset=".4"/>
    </linearGradient>
    <linearGradient id="c" x1="985.4" x2="2757.9" y1="1452.4" y2="1452.4" data-name="Unbenannter Verlauf 12" gradientUnits="userSpaceOnUse">
      <stop offset="0" stop-color="#005f8e"/>
      <stop offset="1" stop-color="#072a54"/>
    </linearGradient>
    <linearGradient id="d" x1="1284.6" x2="1121.4" y1="1575.1" y2="1292.5" data-name="Unbenannter Verlauf 31" gradientUnits="userSpaceOnUse">
      <stop offset=".1" stop-color="#fff" stop-opacity="0"/>
      <stop offset=".8"/>
    </linearGradient>
    <linearGradient id="e" x1="2262" x2="2550.1" y1="3667.2" y2="3667.2" data-name="Unbenannter Verlauf 17" gradientTransform="translate(0 -2504)" gradientUnits="userSpaceOnUse">
      <stop offset="0" stop-color="#fff" stop-opacity="0"/>
      <stop offset=".6"/>
    </linearGradient>
    <linearGradient id="f" x1="483.8" x2="2548.8" y1="1921.8" y2="1921.8" data-name="Unbenannter Verlauf 7" gradientUnits="userSpaceOnUse">
      <stop offset="0" stop-color="#072a54"/>
      <stop offset=".4" stop-color="#06335d"/>
      <stop offset=".6" stop-color="#053964"/>
      <stop offset=".8" stop-color="#024f7c"/>
      <stop offset="1" stop-color="#005f8e"/>
    </linearGradient>
    <linearGradient id="g" x1="1622.2" x2="1947" y1="1063.7" y2="945.4" data-name="Unbenannter Verlauf 53" gradientUnits="userSpaceOnUse">
      <stop offset=".4" stop-color="#fff" stop-opacity="0"/>
      <stop offset="1"/>
    </linearGradient>
    <linearGradient id="h" x1="2404.3" x2="2321.8" y1="2284.1" y2="1816.2" data-name="Unbenannter Verlauf 33" gradientUnits="userSpaceOnUse">
      <stop offset="0" stop-color="#fff" stop-opacity="0"/>
      <stop offset=".7"/>
    </linearGradient>
  </defs>
  <g data-name="Ebene 1" style="isolation:isolate">
    <path d="M1675.2 605.6c41.5-77 108.2-85.5 149.3 12.7 0 .1.1.3.2.5 9.4 21.3 171.4 457.2 199 540.2 0 0 13.1 39.5 19.5 58.4 43.5 129.1 85.6 256.7 123.9 386.7 153.6-5.2 252.6-68.2 282.3-163.7-66-215.8-116.3-366.4-187-554.2-34.1-88.9-69.8-177.2-107.1-264.9-53.3-124.8-111.3-254.7-203.9-356.2-108.7-119.3-268.2-122.3-380.8-5.1-162.4 169.6-282.4 448.7-375.2 661.7 0 0-.4.8-.4.9 61.6-14.5 116.1-27.8 174.1-39.9s123.3-24.1 187.2-35.8c0 0 .4-.9.4-1 40.1-89.2 82.8-180 118.3-240.2Z" style="fill:#005f8e;stroke-width:0"/>
    <path d="M2352.5 1137.4c31.5 92.9 62 188.8 96.9 302.9-20.7 68.5-94.4 155.1-282.3 163.7-38.2-130-80.4-257.5-123.9-386.7l309.2-80Z" style="fill:url(#a);opacity:.4;isolation:isolate;mix-blend-mode:multiply;stroke-width:0"/>
    <path d="M1296.9 695.3c-37.4 78.9-71 156.4-101.8 227.2 1.2-.4 82.7-20.4 170.1-39 75-16 154.3-30.3 191.2-36.8.6-1.3 56.8-126.5 85.3-179.8-69 5.1-282.2 21.6-344.8 28.8v-.4Z" style="opacity:.4;fill:url(#b);isolation:isolate;mix-blend-mode:multiply;stroke-width:0"/>
    <path d="M2052.3 405.8c-12.6-21.8-26.1-43.4-40.1-63.9-18.6-27-38.7-52.7-60.7-77-13.7-15-28.1-28.2-43.2-39.5-17.1-12.8-34.8-23.2-53.1-31.3-32.6-14.4-66.9-21.2-101.1-20.5-26.4.6-52.9 5.6-78.5 15.3-20.4 7.7-40.4 18.2-59.4 31.6-15.8 11.1-31 24.2-45.4 39.2-42.7 44.8-82.9 96.9-120.2 154 256-271.2 396.6-235.2 611.1 8.5-3-5.6-5.9-10.6-9.3-16.6Z" style="fill:#fff;mix-blend-mode:overlay;opacity:.4;isolation:isolate;stroke-width:0"/>
    <path d="M2654.2 1101.4h-.4c-100.3-125.7-237.8-174.3-391.4-215.3 70.7 187.8 121 338.5 187 554.2-58.8 75.7-234 146.8-302.1 170.9-87.2 30.9-172.6 64.3-396 91.8-119.7 14.8-286.4 17.3-374.9 15.2-88.4-2.1-99.8-73.2-92.2-120.6 31-147.2 87.4-287.3 142.4-426.9-36.5-7.8-210.3 23.8-390.5 211-2.3 7.8-5.7 19-8.3 27.7-9.3 34.3-22 78.3-25.4 97.7-25.4 145.1-40.6 324.1 91 423.9 73.2 55.4 170.1 68.1 258.5 78.3 90.5 10.6 182.3 11 273.7 6.8 203.4-9.3 413.1-38 608.8-99.3 111-31 233.8-90.2 302.5-139.7 91-63.7 164.8-147.6 201.3-261.1 46.5-143.8 6.3-300.4-84.2-414.6Z" style="fill:url(#c);stroke-width:0"/>
    <path d="M1304.3 1515.2c32.2-117.5 77.7-231.1 122.3-344.4-2-.5-7.8-1.3-16.4-1-39.3 1.3-146.8 22.7-279.4 126.2-30.7 24-61.7 52.2-94.7 85.7-2.3 7.8-5.7 19-8.3 27.7-9.3 34.3-22 78.3-25.4 97.7-10.8 61.9-19.8 130.1-16.3 195.6s310.7-160.2 318.2-187.5Z" style="fill:url(#d);opacity:.4;isolation:isolate;mix-blend-mode:multiply;stroke-width:0"/>
    <path d="M2354.6 912.7c-36-11.8-74.9-22-92.2-26.7.4 1.3 14.8 39.3 35.1 94.8 8 22.4 17.3 48.2 27.1 75.7 14 38.9 27.9 81.2 42.3 124 4.7 14.4 9.7 28.8 14.4 43.6 4.7 14.8 4.2 12.7 5.9 18.6 24.5 75.7 47 147.7 62.2 197.6 97.3-110.4 162.9-333.4 11.4-486.5 0 0-18.9-9-42.3-18.1-20.9-8.4-45.2-17.1-63.9-22.9Z" style="fill:url(#e);opacity:.4;isolation:isolate;mix-blend-mode:multiply;stroke-width:0"/>
    <path d="M2534.9 1778.6c-2.8 1.9-20 13.4-30.5 20-11.4 7.2-29.2 17.3-32.2 19-3 1.7-6.8 3.8-14.8 8-11 5.9-25.4 13.5-31.3 16.1-3.8 2.1-30.9 14.8-38.1 17.8-8 3.4-40.2 17.8-76.2 30.9-32.6 11.8-77 26.2-77 26.2-.1 0-.3 0-.4.1 1.7 22 2.5 46 2.1 75.2-1.3 161.2-48.2 340.6-149.8 459-122.7 126.5-269.5 206.9-450.6 232.7-252.6 28.8-439.6-14.4-604.2-148.1-146.4-117.6-234-327-239.9-514.5-6.8-187.4 53.7-380.4 146.8-526.7 30.5-42.3 63-79.1 96.5-112.1 185.2-172.5 388.4-210.9 389.6-211.2.8-.2 2.1-.5 2.1-.5 140.5-34.1 262-30.7 317.8-29.4 84.2.8 195 6.8 278.8 17.8-14.4-43.1-65-181.5-111.7-307.5-116.7-9.2-235.9-14-355.4-5.5-34 2.4-68.1 5.9-102.1 10.7-7.5 1.1-15 2.2-22.6 3.4h-.2c-7.5 1.2-15 2.4-22.4 3.7h-.3c-7.5 1.3-14.9 2.7-22.4 4.1h-.3c-7.4 1.5-14.9 3-22.3 4.6h-.3c-7.4 1.6-14.9 3.2-22.3 5h-.2c-7.5 1.7-14.9 3.5-22.4 5.4h-.2c-7.5 1.9-15 3.9-22.4 5.9-33.8 9.2-67.4 20.1-100.9 32.7-75 28.3-149.1 65.6-221.8 114.2-345.2 254.7-514.5 605-487 1015.8 26.7 396.4 238.6 731.1 606.7 875.8 319.4 125.2 721.4 91.4 1012.9-91.4 366.7-230.1 486.5-650.5 428.6-1057.4Z" style="fill:url(#f);stroke-width:0"/>
    <path d="M1556.7 846c12-.8 32.7-2 54.1-2.9 27.5-1 55.8-1.5 67-1.5 34.3-.8 163.4 3.3 234.2 9.9 46.7 126 97.3 264.4 111.7 307.5-83.8-11-194.6-16.9-278.8-17.8 0 0-189.1-141-188.2-295.2Z" style="fill:url(#g);opacity:.4;isolation:isolate;mix-blend-mode:multiply;stroke-width:0"/>
    <path d="M2513.5 2264.9c39.1-155.3 44.8-321.9 21.4-486.2-2.8 1.9-20 13.4-30.5 20-11.4 7.2-29.2 17.3-32.2 19-3 1.7-6.8 3.8-14.8 8-11 5.9-25.4 13.5-31.3 16.1-3.8 2.1-30.9 14.8-38.1 17.8-8 3.4-40.2 17.8-76.2 30.9-32.6 11.8-77 26.2-77 26.2-.1 0-.3 0-.4.1 1.7 22 2.5 46 2.1 75.2-.8 95.7-17.6 197.8-52.4 289.8l329.4-16.9Z" style="fill:url(#h);opacity:.4;isolation:isolate;mix-blend-mode:multiply;stroke-width:0"/>
    <path d="M1478.5 2018.1c-341.3-43.6-486.5-169.5-475.8-512.4l-.2 1s-.4 2.2-.6 3.2c-.7 4.2-1.5 8.5-2.2 12.8-1 5.8-1.9 11.7-2.8 17.6s-.6 3.7-.8 5.6c-10.9 73-16.9 151.8-1.5 223.5 6.8 31.8 17.6 61.9 34.1 89.6 2.2 3.5 4.4 7.1 6.7 10.6 14.8 22.5 33.6 42.9 57.1 60.9 24.4 18.5 51.3 32.5 79.9 43 57.4 21.1 120.2 29.4 178.7 35.9 43 5.1 84.9 7.7 127.4 8.8Z" style="isolation:isolate;mix-blend-mode:multiply;stroke-width:0;fill:#000;opacity:.3"/>
  </g>
</svg>
