<svg xmlns="http://www.w3.org/2000/svg" id="Ebene_1" data-name="Ebene 1" viewBox="0 0 8125 3200">
  <defs>
    <style>
      .cls-1{fill:#072a54;stroke-width:0}
    </style>
  </defs>
  <path d="m3067.571 745.748-73.495-137.467h-5.445l13.611 137.467v623.353H2896.08V401.4h59.885l455.951 635.606 70.775 130.663h6.805l-14.971-130.663V416.369h106.161v967.702H3520.8l-453.229-638.323zM3820.215 416.369h518.56v100.716h-405.597v325.292h378.374v100.716h-378.374v426.008h-112.963V416.369zM5203.712 691.303c-17.694-58.973-44.701-109.563-80.982-151.755-36.302-42.192-82.345-75.072-138.148-98.681-55.799-23.584-121.812-35.38-198.03-35.38-19.057 0-39.704.233-61.926.673-22.247.473-44.917.922-68.052 1.362-23.14.474-45.386 1.363-66.694 2.725-21.329 1.362-40.618 3.406-57.843 6.122v954.094c9.059 1.811 24.029 3.173 44.913 4.087 20.864.889 43.555 2.035 68.052 3.398a2018.146 2018.146 0 0 0 71.454 2.725c23.14.449 41.959.681 56.485.681 82.557 0 152.885-13.823 210.964-41.511 58.055-27.671 105.244-64.422 141.546-110.244 36.281-45.814 62.823-98.448 79.624-157.886 16.776-59.413 25.179-121.343 25.179-185.781 0-70.777-8.848-135.639-26.542-194.628Zm-109.563 342.305c-10.891 47.633-29.262 89.825-55.122 126.576-25.86 36.742-60.355 66.009-103.441 87.782-43.105 21.781-96.421 32.672-159.921 32.672-4.552 0-13.167-.216-25.86-.681-12.718-.449-25.86-.897-39.471-1.362-13.611-.449-26.774-.897-39.472-1.363-12.718-.448-21.329-1.13-25.86-2.043V513.007c6.338-.897 15.186-1.811 26.542-2.725a3351.01 3351.01 0 0 1 37.428-2.716 630.783 630.783 0 0 1 41.511-1.362h38.79c62.611 0 114.543 11.563 155.842 34.707 41.278 23.135 74.175 52.867 98.673 89.144 24.502 36.302 41.727 76.899 51.72 121.816 9.977 44.917 14.974 89.618 14.974 134.061 0 50.823-5.445 100.035-16.332 147.677ZM5456.175 416.369h112.965v952.732h-112.965zM6619.3 980.91V401.103h-73.5l-451.864 630.165v44.917h419.2v292.62H6619.3v-292.62h160.603V980.91H6619.3Zm-106.163-296.707V980.91h-200.074l-95.275 10.891 65.332-66.698 191.908-259.956 47.637-92.55h4.083l-13.611 111.607ZM3605.626 2102.009c-16.128-60.019-40.782-111.557-73.921-154.563-33.16-43.006-74.825-76.152-124.996-99.462-50.19-23.285-108.865-34.94-176.068-34.94-128.144 0-226.7 42.333-295.687 127.008-69.008 84.675-103.49 205.428-103.49 362.217 0 73.485 8.064 140.241 24.192 200.261 16.128 60.044 40.533 111.557 73.25 154.563 32.697 43.006 74.131 76.168 124.323 99.462 50.171 23.285 109.308 34.94 177.412 34.94 127.222 0 225.566-42.333 295.016-127.008 69.427-84.675 104.161-205.403 104.161-362.217 0-73.46-8.064-140.217-24.193-200.261Zm-223.109 448.91c-35.847 51.072-86.479 76.609-151.875 76.609-35.848 0-66.761-8.066-92.737-24.199-25.999-16.124-47.272-38.512-63.843-67.197-16.59-28.668-28.896-62.943-36.961-102.818-8.064-39.858-12.095-83.545-12.095-131.045 0-111.997 17.912-194.213 53.76-246.631 35.827-52.418 86.459-78.627 151.876-78.627 37.633 0 69.429 8.299 95.426 24.872 25.979 16.589 47.042 39.642 63.17 69.215 16.128 29.565 27.993 64.073 35.617 103.491 7.603 39.434 11.425 81.983 11.425 127.681 0 114.705-17.935 197.569-53.762 248.65ZM4363.868 2412.481c-10.313-26.882-24.423-49.727-42.338-68.542-17.935-18.816-38.977-33.602-63.171-44.36-24.19-10.75-49.727-18.35-76.609-22.845v-8.066c30.45-7.161 56.451-18.143 77.955-32.93 21.503-14.778 38.977-31.792 52.418-51.072 13.441-19.256 23.057-40.531 28.896-63.841 5.815-23.285 8.735-46.578 8.735-69.888 0-46.578-9.869-85.115-29.569-115.586-19.717-30.454-45.926-54.204-78.623-71.234-32.722-17.013-69.892-28.901-111.557-35.621-41.665-6.72-84.463-10.077-128.354-10.077-25.997 0-52.207.465-78.627 1.346-26.438.897-52.206 2.243-77.281 4.029-25.096 1.803-48.615 4.029-70.561 6.721-21.966 2.691-41.455 5.375-58.466 8.066v927.378c23.289 5.375 49.058 9.412 77.281 12.095 28.226 2.692 55.986 4.71 83.329 6.048 27.322 1.346 52.858 2.019 76.613 2.019h58.466c46.578 0 91.831-5.375 135.747-16.124 43.891-10.758 83.096-27.322 117.6-49.735 34.483-22.379 62.038-51.28 82.661-86.685 20.598-35.388 30.911-77.281 30.911-125.671 0-36.726-5.167-68.542-15.455-95.424Zm-469.741-434.183c10.754-1.769 25.977-3.09 45.698-3.971 19.7-.881 41.204-1.346 64.513-1.346 20.602 0 40.323 1.786 59.139 5.333 18.816 3.547 35.617 9.744 50.4 18.608 14.787 8.864 26.649 20.834 35.617 35.912 8.947 15.078 13.441 34.126 13.441 57.187 0 34.583-12.328 62.511-36.963 83.786-24.651 21.3-53.992 37.258-88.031 47.882-10.754 1.761-24.427 3.107-40.996 3.988-16.589.889-31.144 1.329-43.679 1.329h-59.139v-248.708Zm279.561 578.752c-9.873 16.864-22.849 30.828-38.977 41.918-16.128 11.082-34.736 19.298-55.779 24.606-21.063 5.341-42.799 7.983-65.186 7.983-8.968 0-19.489-.208-31.584-.648-12.095-.44-23.75-.881-34.944-1.346-11.215-.44-21.736-1.113-31.588-1.994-9.869-.881-17.03-2.21-21.503-3.996v-256.791h98.116c23.289 0 46.578 1.346 69.888 3.987 23.289 2.667 44.352 8.656 63.172 17.977 18.816 9.329 34.039 22.413 45.694 39.251 11.634 16.847 17.474 39.899 17.474 69.174 0 23.061-4.935 43.031-14.783 59.878ZM4628.512 1831.86h184.132V2520c0 35.854-4.033 69.896-12.099 102.153-8.062 32.257-21.295 60.709-39.646 85.339-18.375 24.656-41.897 44.352-70.565 59.139-28.685 14.787-63.629 22.18-104.832 22.18-26.001 0-54.225-2.692-84.675-8.066-30.471-5.375-56.892-12.976-79.296-22.845l40.319-150.534c23.289 11.655 49.731 17.47 79.3 17.47 37.631 0 61.593-13.881 71.903-41.66 10.293-27.763 15.46-64.513 15.46-110.211V1831.86ZM4975.174 1831.86h557.772v163.967h-373.64v219.084h340.042v163.967h-340.042v229.834h380.36v163.967h-564.492V1831.86zM6289.999 2734.167c-28.689 20.452-65.186 35.114-109.538 43.995-44.352 8.88-89.842 13.333-136.42 13.333-56.451 0-109.999-8.731-160.611-26.209-50.632-17.47-95.217-45.698-133.733-84.675-38.537-38.969-69.215-89.584-92.064-151.872-22.849-62.27-34.275-137.766-34.275-226.47 0-92.276 12.768-169.557 38.304-231.845 25.536-62.27 58.678-112.437 99.462-150.534 40.759-38.072 86.224-65.394 136.416-81.983 50.171-16.573 100.342-24.863 150.534-24.863 53.76 0 99.225 3.589 136.42 10.749 37.17 7.186 67.874 15.692 92.064 25.536l-36.29 155.909c-20.623-9.852-45.025-17.013-73.248-21.507-28.224-4.469-62.499-6.72-102.818-6.72-74.386 0-134.194 26.508-179.431 79.466-45.253 52.983-67.874 135.141-67.874 246.465 0 48.489 5.379 92.716 16.128 132.657 10.754 39.966 27.094 74.092 49.058 102.361 21.948 28.286 49.266 50.292 81.988 66 32.697 15.709 70.561 23.567 113.571 23.567 40.319 0 74.362-4.037 102.145-12.095 27.763-8.066 51.957-18.359 72.58-30.919l37.631 149.654ZM7079.899 1995.827h-274.182v776.852h-184.134v-776.852h-275.528V1831.86h733.844v163.967zM7574.282 2520c0-28.66-10.542-51.953-31.584-69.888-21.063-17.91-47.5-34.275-79.296-49.054-31.816-14.787-66.32-30.014-103.491-45.698-37.191-15.667-71.695-34.948-103.491-57.793-31.816-22.853-58.258-51.288-79.3-85.348-21.063-34.043-31.584-77.489-31.584-130.373 0-45.698 7.601-85.348 22.849-118.942 15.227-33.602 36.963-61.598 65.186-84.002 28.224-22.388 61.593-38.977 100.13-49.735 38.516-10.749 81.522-16.124 129.027-16.124 54.645 0 106.178 4.702 154.563 14.114 48.385 9.404 88.243 23.077 119.619 40.988l-57.793 154.563c-19.721-12.536-49.286-23.958-88.708-34.267-39.438-10.293-81.983-15.46-127.681-15.46-43.01 0-75.94 8.523-98.785 25.536-22.849 17.03-34.275 39.883-34.275 68.542 0 26.882 10.521 49.295 31.584 67.205 21.042 17.935 47.484 34.508 79.3 49.727 31.796 15.252 66.299 30.919 103.491 47.043 37.17 16.133 71.674 35.621 103.491 58.466 31.796 22.845 58.233 51.072 79.296 84.675 21.042 33.602 31.584 75.495 31.584 125.662s-8.295 93.414-24.863 129.7c-16.589 36.294-39.879 66.532-69.888 90.723-30.03 24.199-66.32 42.134-108.87 53.764-42.566 11.638-89.377 17.47-140.449 17.47-67.201 0-126.339-6.28-177.412-18.816-51.072-12.536-88.708-25.071-112.898-37.631l59.135-157.255c9.852 5.383 22.62 11.215 38.308 17.478 15.663 6.28 33.37 12.095 53.087 17.47 19.7 5.375 40.531 9.869 62.499 13.441 21.943 3.589 44.564 5.375 67.874 5.375 54.645 0 96.538-9.179 125.667-27.555 29.108-18.351 43.679-46.362 43.679-84.002ZM2511.415 1110.346c-109.44-127.76-261.035-199.504-420.436-232.918-.049.037-.096.077-.145.114-34.967-91.312-71.558-182.017-109.874-272.024-54.818-127.967-114.328-261.668-209.239-365.918-111.808-122.581-275.481-125.665-390.981-5.299-168.277 175.401-274.351 426.339-370.001 645.612a253.242 253.242 0 0 0-9.508 25.462c-83.134 29.57-162.607 69.829-235.845 123.874-354.451 261.565-526.154 623.4-497.746 1045.005 27.453 406.88 245 750.793 622.906 899.089 327.91 128.575 740.784 93.955 1039.808-93.912 375.935-236.183 499.19-666.912 440.277-1084.274 100.735-67.911 184.217-157.672 222.964-277.5 47.781-147.688 10.949-290.029-82.181-407.311Zm-221.649 351.462c-.169.217-.364.434-.534.651a7984.379 7984.379 0 0 0-78.804-250.492c124.534 58.626 142.653 178.672 79.338 249.841Zm-290.177 173.646a718.84 718.84 0 0 1-6.742 2.457c-89.394 31.753-196.931 50.115-426.412 78.436-123.058 15.203-294.116 17.896-384.857 15.637-90.741-2.259-105.136-77.104-97.36-125.885 32.438-153.249 92.356-294.371 149.196-439.652 144.267-32.771 270.364-28.391 326.852-27.473 86.449 1.037 200.117 6.782 285.873 18.352 6.932 20.58 13.701 40.702 20.278 60.189 47.058 139.463 92.485 277.24 133.172 417.938ZM1488.334 589.707c45.609-76.493 101.774-94.737 153.421 13.031 6.472 13.509 60.041 150.588 47.4 120.181 15.627 37.586 31.345 77.891 46.941 119.603-118.335-9.406-243.844-14.58-369.222-6.843 40.458-90.092 85.633-185.888 121.459-245.973Zm576.677 1423.232c-1.347 165.323-49.388 349.499-153.726 471.211-125.969 129.965-276.784 212.496-462.48 238.907-259.496 29.624-451.403-14.725-620.245-152.031-150.117-120.649-240.072-335.58-246.291-528.07-6.776-192.602 54.995-390.317 150.558-540.829 30.501-46.376 63.942-86.826 99.349-122.189-7.404 30.447-30.323 107.566-35.195 134.948-26.063 148.817-41.483 332.732 93.565 435.418 75.147 57.12 174.576 69.761 265.577 80.446 93.13 10.99 187.433 11.424 280.998 7.124 209.33-9.6 424.347-38.734 625.41-101.921 1.815 22.422 2.671 47.094 2.48 76.988Z" class="cls-1"/>
</svg>
