<svg xmlns="http://www.w3.org/2000/svg" data-name="Ebene 1" viewBox="0 0 3200 3200">
  <path d="M2733.4 1112.5C2624 984.7 2472.4 913 2313 879.6l-.1.1c-35-91.3-71.6-182-109.9-272-54.8-128-114.3-261.7-209.2-365.9-111.8-122.6-275.5-125.7-391-5.3-168.3 175.4-274.4 426.3-370 645.6-3.6 8.4-6.8 16.9-9.5 25.5-83.1 29.6-162.6 69.8-235.8 123.9-354.5 261.6-526.2 623.4-497.7 1045 27.5 406.9 245 750.8 622.9 899.1 327.9 128.6 740.8 94 1039.8-93.9 375.9-236.2 499.2-666.9 440.3-1084.3 100.7-67.9 184.2-157.7 223-277.5 47.8-147.7 10.9-290-82.2-407.3Zm-221.6 351.4c-.2.2-.4.4-.5.7-24.9-83.9-51.2-167.4-78.8-250.5 124.5 58.6 142.7 178.7 79.3 249.8Zm-290.2 173.7c-2.3.9-4.6 1.7-6.7 2.5-89.4 31.8-196.9 50.1-426.4 78.4-123.1 15.2-294.1 17.9-384.9 15.6-90.7-2.3-105.1-77.1-97.4-125.9 32.4-153.2 92.4-294.4 149.2-439.7 144.3-32.8 270.4-28.4 326.9-27.5 86.4 1 200.1 6.8 285.9 18.4 6.9 20.6 13.7 40.7 20.3 60.2 47.1 139.5 92.5 277.2 133.2 417.9ZM1710.3 591.8c45.6-76.5 101.8-94.7 153.4 13 6.5 13.5 60 150.6 47.4 120.2 15.6 37.6 31.3 77.9 46.9 119.6-118.3-9.4-243.8-14.6-369.2-6.8 40.5-90.1 85.6-185.9 121.5-246ZM2287 2015.1c-1.3 165.3-49.4 349.5-153.7 471.2-126 130-276.8 212.5-462.5 238.9-259.5 29.6-451.4-14.7-620.2-152-150.1-120.6-240.1-335.6-246.3-528.1-6.8-192.6 55-390.3 150.6-540.8 30.5-46.4 63.9-86.8 99.3-122.2-7.4 30.4-30.3 107.6-35.2 134.9-26.1 148.8-41.5 332.7 93.6 435.4 75.1 57.1 174.6 69.8 265.6 80.4 93.1 11 187.4 11.4 281 7.1 209.3-9.6 424.3-38.7 625.4-101.9 1.8 22.4 2.7 47.1 2.5 77Z" style="fill:#072a54;stroke-width:0"/>
</svg>
