<svg xmlns="http://www.w3.org/2000/svg" id="Ebene_1" data-name="Ebene 1" viewBox="0 0 8860 3200">
  <defs>
    <style>
      .cls-1{fill:#072a54;stroke-width:0}.cls-2{isolation:isolate}
    </style>
  </defs>
  <g class="cls-2">
    <g class="cls-2">
      <path d="M2896.015 1263.711c11.969-2.198 25.756-3.934 41.351-5.197 15.597-1.254 29.848-1.892 42.771-1.892 14.487 0 28.273 1.581 41.351 4.727 13.07 3.154 24.575 8.351 34.499 15.595 9.924 7.252 17.877 16.702 23.866 28.354 5.981 11.661 8.978 25.838 8.978 42.536 0 25.838-7.089 46.785-21.266 62.854-14.179 16.069-32.136 26.782-53.876 32.134l22.684 17.487 82.23 130.909h-45.841l-91.208-142.72-46.315-7.093v149.813h-39.224v-327.506Zm85.065 26.941h-12.759c-4.415 0-8.668.159-12.759.47-4.098.319-7.961.638-11.579.948-3.626.315-6.541.789-8.743 1.418v121.928h36.863c21.74 0 39.696-5.356 53.876-16.069 14.177-10.708 21.266-27.411 21.266-50.094 0-17.013-5.832-31.03-17.487-42.062-11.658-11.023-27.883-16.539-48.677-16.539Z" class="cls-1"/>
    </g>
  </g>
  <g class="cls-2">
    <g class="cls-2">
      <path d="M3329.928 1572.313c-9.452 7.563-21.348 13.552-35.682 17.961-14.339 4.408-29.535 6.615-45.604 6.615-17.959 0-33.553-2.917-46.787-8.743-13.231-5.826-24.101-14.177-32.608-25.045-8.506-10.872-14.813-23.869-18.904-38.989-4.098-15.125-6.143-32.138-6.143-51.042 0-40.325 8.978-71.041 26.937-92.152 17.959-21.106 43.633-31.664 77.033-31.664 10.706 0 21.421 1.181 32.136 3.542 10.706 2.366 20.322 6.856 28.828 13.47 8.506 6.615 15.431 15.996 20.794 28.117 5.352 12.135 8.032 28.122 8.032 47.97 0 10.398-.944 21.899-2.835 34.499h-151.7c0 13.867 1.418 26.152 4.253 36.861 2.835 10.713 7.244 19.775 13.233 27.174 5.981 7.407 13.779 13.078 23.392 17.013 9.607 3.943 21.341 5.908 35.208 5.908 10.706 0 21.421-1.892 32.136-5.671 10.706-3.779 18.741-8.187 24.101-13.233l14.179 27.411Zm-81.287-189.979c-18.594 0-33.48 4.887-44.66 14.647-11.187 9.773-17.883 26.467-20.085 50.099h117.203c0-23.942-4.572-40.717-13.705-50.331-9.142-9.609-22.057-14.414-38.752-14.414Z" class="cls-1"/>
    </g>
  </g>
  <g class="cls-2">
    <g class="cls-2">
      <path d="M3495.71 1526.946c0-9.454-2.835-16.853-8.506-22.214-5.671-5.352-12.686-9.842-21.031-13.466-8.351-3.62-17.485-7.089-27.409-10.398-9.926-3.309-19.066-7.563-27.411-12.759-8.351-5.201-15.36-11.889-21.031-20.085-5.671-8.192-8.506-19.215-8.506-33.082 0-22.684 6.453-39.3 19.376-49.857 12.915-10.553 30.873-15.832 53.876-15.832 17.013 0 31.265 1.5 42.769 4.49 11.497 2.995 21.503 6.541 30.009 10.631l-8.978 31.19c-7.252-3.46-15.994-6.533-26.23-9.213-10.241-2.672-21.193-4.016-32.845-4.016-13.867 0-24.028 2.361-30.481 7.089-6.462 4.723-9.689 12.923-9.689 24.575 0 8.196 2.835 14.574 8.506 19.137 5.673 4.572 12.68 8.67 21.031 12.29 8.345 3.624 17.487 7.17 27.411 10.631 9.924 3.473 19.06 8.037 27.411 13.708 8.343 5.671 15.358 12.841 21.029 21.503 5.671 8.666 8.506 20.085 8.506 34.262 0 10.088-1.653 19.538-4.962 28.354-3.307 8.825-8.431 16.388-15.358 22.684-6.933 6.309-15.522 11.269-25.756 14.888-10.243 3.615-22.294 5.434-36.154 5.434-17.959 0-33.243-1.737-45.841-5.197-12.604-3.465-23.158-7.563-31.664-12.29l11.342-32.134c7.246 4.098 16.696 7.877 28.357 11.342 11.652 3.469 23.468 5.197 35.443 5.197 13.544 0 24.73-2.672 33.556-8.032 8.817-5.356 13.231-14.961 13.231-28.828Z" class="cls-1"/>
    </g>
  </g>
  <g class="cls-2">
    <g class="cls-2">
      <path d="M3759.275 1572.313c-9.452 7.563-21.348 13.552-35.682 17.961-14.339 4.408-29.535 6.615-45.604 6.615-17.959 0-33.553-2.917-46.787-8.743-13.231-5.826-24.101-14.177-32.608-25.045-8.506-10.872-14.813-23.869-18.904-38.989-4.098-15.125-6.143-32.138-6.143-51.042 0-40.325 8.978-71.041 26.937-92.152 17.959-21.106 43.633-31.664 77.033-31.664 10.706 0 21.421 1.181 32.136 3.542 10.706 2.366 20.322 6.856 28.828 13.47 8.506 6.615 15.431 15.996 20.794 28.117 5.352 12.135 8.032 28.122 8.032 47.97 0 10.398-.944 21.899-2.835 34.499h-151.7c0 13.867 1.418 26.152 4.253 36.861 2.835 10.713 7.244 19.775 13.233 27.174 5.981 7.407 13.779 13.078 23.392 17.013 9.607 3.943 21.341 5.908 35.208 5.908 10.706 0 21.421-1.892 32.136-5.671 10.706-3.779 18.741-8.187 24.101-13.233l14.179 27.411Zm-81.286-189.979c-18.594 0-33.48 4.887-44.66 14.647-11.187 9.773-17.883 26.467-20.085 50.099h117.203c0-23.942-4.572-40.717-13.705-50.331-9.142-9.609-22.057-14.414-38.752-14.414Z" class="cls-1"/>
    </g>
  </g>
  <g class="cls-2">
    <g class="cls-2">
      <path d="M3812.894 1372.41c11.969-7.244 25.911-12.6 41.823-16.069 15.905-3.465 32.528-5.201 49.859-5.201 16.377 0 29.535 2.211 39.461 6.619 9.924 4.417 17.485 10.161 22.684 17.25 5.199 7.089 8.661 14.884 10.396 23.39 1.728 8.511 2.601 17.017 2.601 25.523 0 18.9-.474 37.335-1.418 55.291-.946 17.961-1.418 34.973-1.418 51.042 0 11.656.472 22.684 1.418 33.077.944 10.398 2.672 20.012 5.199 28.828h-27.885l-9.924-33.082h-2.361c-2.835 4.417-6.382 8.743-10.635 12.996s-9.377 8.037-15.358 11.342c-5.99 3.309-12.923 6.072-20.794 8.274-7.879 2.198-16.858 3.305-26.939 3.305s-19.456-1.577-28.117-4.723c-8.67-3.146-16.151-7.636-22.449-13.47-6.306-5.826-11.269-12.833-14.886-21.029-3.626-8.192-5.436-17.487-5.436-27.885 0-13.858 2.835-25.437 8.506-34.736 5.673-9.286 13.626-16.694 23.866-22.21 10.234-5.507 22.522-9.454 36.863-11.816 14.332-2.361 30.164-3.542 47.494-3.542h12.996c4.253 0 8.582.315 12.996.944.946-9.45 1.418-17.961 1.418-25.519 0-17.323-3.471-29.458-10.396-36.391-6.933-6.925-19.54-10.398-37.809-10.398-5.361 0-11.105.409-17.247 1.219a211.3 211.3 0 0 0-18.904 3.404c-6.462 1.461-12.604 3.241-18.43 5.348-5.835 2.103-10.952 4.451-15.36 7.041l-11.814-28.824Zm67.107 189.505c8.817 0 16.696-1.181 23.629-3.542 6.927-2.361 12.915-5.352 17.959-8.98 5.035-3.615 9.215-7.636 12.522-12.048 3.309-4.408 5.746-8.661 7.326-12.764v-39.222c-4.415-.31-8.905-.547-13.468-.711-4.57-.155-9.06-.237-13.468-.237-9.769 0-19.303.556-28.591 1.655-9.297 1.107-17.487 3.154-24.575 6.145-7.089 2.999-12.759 7.089-17.013 12.285-4.253 5.201-6.38 11.743-6.38 19.615 0 11.032 3.934 20.085 11.814 27.174 7.871 7.089 17.959 10.631 30.246 10.631Z" class="cls-1"/>
    </g>
  </g>
  <g class="cls-2">
    <g class="cls-2">
      <path d="M4155.015 1391.31c-9.452-3.146-18.433-4.723-26.939-4.723-13.55 0-24.265 3.706-32.136 11.105-7.879 7.407-12.759 16.776-14.649 28.117v165.408h-37.809v-236.294h26.465l7.089 28.828h1.892c5.981-10.708 13.152-18.978 21.503-24.812 8.345-5.826 18.978-8.743 31.899-8.743 9.135 0 19.376 1.581 30.718 4.727l-8.032 36.387Z" class="cls-1"/>
    </g>
  </g>
  <g class="cls-2">
    <g class="cls-2">
      <path d="M4358.633 1575.623c-9.45 6.933-20.637 12.212-33.551 15.832-12.921 3.615-26.465 5.434-40.642 5.434-18.275 0-33.717-2.917-46.313-8.743-12.607-5.826-22.921-14.177-30.955-25.045-8.034-10.872-13.869-23.942-17.487-39.226-3.626-15.276-5.434-32.211-5.434-50.805 0-40.006 8.817-70.649 26.465-91.915 17.64-21.27 43.006-31.901 76.087-31.901 15.123 0 27.956 1.181 38.515 3.542 10.549 2.366 20.085 5.753 28.591 10.161l-10.872 32.608c-7.248-4.089-15.283-7.321-24.099-9.687-8.825-2.361-18.275-3.542-28.357-3.542-44.74 0-67.107 30.246-67.107 90.734 0 11.98 1.181 23.395 3.544 34.267 2.364 10.868 6.298 20.482 11.816 28.824 5.507 8.351 12.759 15.052 21.738 20.085 8.98 5.046 20.085 7.563 33.319 7.563 11.342 0 21.503-1.728 30.481-5.197 8.98-3.465 16.304-7.399 21.975-11.816l12.285 28.828Z" class="cls-1"/>
    </g>
  </g>
  <g class="cls-2">
    <g class="cls-2">
      <path d="M4555.252 1591.218V1456.53c0-12.285-.707-23.076-2.124-32.371-1.418-9.291-4.02-17.017-7.8-23.158-3.779-6.145-8.907-10.79-15.358-13.945-6.464-3.146-14.888-4.723-25.286-4.723-14.811 0-28.199 4.805-40.17 14.414-11.975 9.614-19.693 21.973-23.153 37.098v157.371h-37.809v-330.811h37.809v120.98h1.887c8.192-9.76 18.034-17.56 29.539-23.39 11.497-5.826 25.756-8.743 42.769-8.743 13.233 0 24.73 1.5 34.499 4.49 9.76 2.995 17.874 8.269 24.338 15.832 6.451 7.558 11.178 17.719 14.177 30.479 2.991 12.759 4.49 28.91 4.49 48.444v142.72h-37.809Z" class="cls-1"/>
    </g>
  </g>
  <g class="cls-2">
    <g class="cls-2">
      <path d="M4787.698 1260.406c5.981-.948 12.678-1.655 20.085-2.129 7.399-.47 15.121-.78 23.158-.944 8.032-.155 15.905-.31 23.627-.474 7.718-.155 14.888-.237 21.503-.237 26.467 0 49.388 4.098 68.766 12.29 19.374 8.196 35.361 19.611 47.965 34.262 12.596 14.651 21.973 32.215 28.117 52.693 6.145 20.486 9.217 43.006 9.217 67.581 0 22.373-2.917 43.876-8.743 64.508-5.835 20.641-15.048 38.916-27.648 54.821-12.604 15.914-28.992 28.673-49.151 38.278-20.167 9.614-44.583 14.414-73.247 14.414-5.042 0-11.583-.082-19.615-.237a704.291 704.291 0 0 1-24.812-.944c-8.506-.474-16.384-.87-23.627-1.181-7.252-.319-12.449-.793-15.595-1.418v-331.285Zm89.32 31.19h-13.47c-4.887 0-9.687.164-14.414.474-4.727.315-9.062.633-12.996.944-3.943.319-7.011.633-9.217.944v264.653c1.577.315 4.568.552 8.98.707 4.413.164 8.98.319 13.708.474 4.727.164 9.286.319 13.703.474 4.408.159 7.399.233 8.98.233 22.05 0 40.562-3.779 55.532-11.342 14.957-7.558 26.932-17.719 35.913-30.479 8.98-12.764 15.358-27.411 19.141-43.954 3.779-16.539 5.671-33.625 5.671-51.275 0-15.431-1.737-30.953-5.197-46.552-3.473-15.595-9.454-29.69-17.961-42.295-8.506-12.596-19.93-22.921-34.262-30.953-14.341-8.037-32.375-12.053-54.11-12.053Z" class="cls-1"/>
    </g>
  </g>
  <g class="cls-2">
    <g class="cls-2">
      <path d="M5080.196 1372.41c11.967-7.244 25.907-12.6 41.821-16.069 15.905-3.465 32.53-5.201 49.862-5.201 16.375 0 29.535 2.211 39.459 6.619 9.924 4.417 17.482 10.161 22.684 17.25 5.201 7.089 8.661 14.884 10.398 23.39 1.724 8.511 2.598 17.017 2.598 25.523 0 18.9-.474 37.335-1.418 55.291-.948 17.961-1.418 34.973-1.418 51.042 0 11.656.47 22.684 1.418 33.077.944 10.398 2.672 20.012 5.197 28.828h-27.88l-9.928-33.082h-2.361c-2.835 4.417-6.378 8.743-10.635 12.996-4.249 4.253-9.377 8.037-15.358 11.342-5.99 3.309-12.919 6.072-20.792 8.274-7.881 2.198-16.858 3.305-26.937 3.305s-19.46-1.577-28.122-4.723c-8.67-3.146-16.151-7.636-22.447-13.47-6.304-5.826-11.269-12.833-14.888-21.029-3.624-8.192-5.434-17.487-5.434-27.885 0-13.858 2.835-25.437 8.506-34.736 5.675-9.286 13.626-16.694 23.869-22.21 10.23-5.507 22.52-9.454 36.861-11.816 14.332-2.361 30.164-3.542 47.496-3.542h12.996c4.249 0 8.58.315 12.996.944.944-9.45 1.413-17.961 1.413-25.519 0-17.323-3.469-29.458-10.394-36.391-6.933-6.925-19.538-10.398-37.809-10.398-5.361 0-11.105.409-17.245 1.219a211.53 211.53 0 0 0-18.909 3.404c-6.459 1.461-12.6 3.241-18.426 5.348-5.835 2.103-10.954 4.451-15.362 7.041l-11.811-28.824Zm67.103 189.505c8.817 0 16.698-1.181 23.632-3.542 6.929-2.361 12.915-5.352 17.961-8.98 5.033-3.615 9.213-7.636 12.522-12.048 3.309-4.408 5.744-8.661 7.326-12.764v-39.222a395.13 395.13 0 0 0-13.47-.711 397.412 397.412 0 0 0-13.47-.237c-9.765 0-19.301.556-28.587 1.655-9.299 1.107-17.487 3.154-24.58 6.145-7.084 2.999-12.755 7.089-17.013 12.285-4.249 5.201-6.378 11.743-6.378 19.615 0 11.032 3.934 20.085 11.816 27.174 7.869 7.089 17.956 10.631 30.242 10.631Z" class="cls-1"/>
    </g>
  </g>
  <g class="cls-2">
    <g class="cls-2">
      <path d="M5285.326 1354.924h36.861v-46.789l37.809-10.868v57.657h64.271v33.082h-64.271v130.904c0 16.388 2.047 27.967 6.145 34.736 4.089 6.778 11.023 10.161 20.792 10.161 8.192 0 15.125-.862 20.796-2.598 5.671-1.728 11.971-4.016 18.904-6.852l8.506 28.828c-8.506 4.098-17.806 7.403-27.885 9.924-10.088 2.517-20.956 3.779-32.608 3.779-19.223 0-32.771-5.434-40.644-16.306-7.877-10.868-11.816-29.061-11.816-54.584v-137.993h-36.861v-33.082Z" class="cls-1"/>
    </g>
  </g>
  <g class="cls-2">
    <g class="cls-2">
      <path d="M5475.124 1372.41c11.967-7.244 25.907-12.6 41.821-16.069 15.905-3.465 32.53-5.201 49.862-5.201 16.375 0 29.535 2.211 39.459 6.619 9.924 4.417 17.482 10.161 22.684 17.25 5.201 7.089 8.661 14.884 10.398 23.39 1.724 8.511 2.598 17.017 2.598 25.523 0 18.9-.474 37.335-1.418 55.291-.948 17.961-1.418 34.973-1.418 51.042 0 11.656.47 22.684 1.418 33.077.944 10.398 2.672 20.012 5.197 28.828h-27.88l-9.928-33.082h-2.361c-2.835 4.417-6.378 8.743-10.635 12.996-4.249 4.253-9.377 8.037-15.358 11.342-5.99 3.309-12.919 6.072-20.792 8.274-7.881 2.198-16.858 3.305-26.937 3.305s-19.46-1.577-28.122-4.723c-8.67-3.146-16.151-7.636-22.447-13.47-6.304-5.826-11.269-12.833-14.888-21.029-3.624-8.192-5.434-17.487-5.434-27.885 0-13.858 2.835-25.437 8.506-34.736 5.675-9.286 13.626-16.694 23.869-22.21 10.23-5.507 22.52-9.454 36.861-11.816 14.332-2.361 30.164-3.542 47.496-3.542h12.996c4.249 0 8.58.315 12.996.944.944-9.45 1.413-17.961 1.413-25.519 0-17.323-3.469-29.458-10.394-36.391-6.933-6.925-19.538-10.398-37.809-10.398-5.361 0-11.105.409-17.245 1.219a211.53 211.53 0 0 0-18.909 3.404c-6.459 1.461-12.6 3.241-18.426 5.348-5.835 2.103-10.954 4.451-15.362 7.041l-11.811-28.824Zm67.103 189.505c8.817 0 16.698-1.181 23.632-3.542 6.929-2.361 12.915-5.352 17.961-8.98 5.033-3.615 9.213-7.636 12.522-12.048 3.309-4.408 5.744-8.661 7.326-12.764v-39.222a395.13 395.13 0 0 0-13.47-.711 397.412 397.412 0 0 0-13.47-.237c-9.765 0-19.301.556-28.587 1.655-9.299 1.107-17.487 3.154-24.58 6.145-7.084 2.999-12.755 7.089-17.013 12.285-4.249 5.201-6.378 11.743-6.378 19.615 0 11.032 3.934 20.085 11.816 27.174 7.869 7.089 17.956 10.631 30.242 10.631Z" class="cls-1"/>
    </g>
  </g>
  <g class="cls-2">
    <g class="cls-2">
      <path d="M5847.756 1260.406h39.226v330.811h-39.226v-330.811Z" class="cls-1"/>
    </g>
  </g>
  <g class="cls-2">
    <g class="cls-2">
      <path d="M6113.344 1591.218V1456.53c0-24.575-3.546-43.079-10.635-55.528-7.089-12.445-20.085-18.667-38.989-18.667-16.702 0-30.483 4.49-41.351 13.466-10.868 8.98-18.512 20.249-22.921 33.793v161.624h-37.809v-236.294h26.467l7.089 28.828h1.892c7.558-10.079 17.719-18.353 30.479-24.812 12.759-6.455 27.958-9.687 45.608-9.687 12.915 0 24.256 1.5 34.025 4.49 9.76 2.995 17.874 8.269 24.338 15.832 6.455 7.558 11.342 17.719 14.651 30.479 3.305 12.759 4.96 28.91 4.96 48.444v142.72h-37.804Z" class="cls-1"/>
    </g>
  </g>
  <g class="cls-2">
    <g class="cls-2">
      <path d="M6188.931 1354.924h36.861v-13.233c0-14.487 1.181-27.092 3.546-37.809 2.361-10.704 6.218-19.447 11.579-26.226 5.352-6.774 12.285-11.816 20.792-15.125 8.506-3.305 19.06-4.96 31.664-4.96 10.079 0 18.978.633 26.704 1.887 7.713 1.263 15.828 3.628 24.338 7.089l-8.511 31.664c-7.248-3.146-14.1-5.197-20.555-6.141-6.464-.948-12.522-1.418-18.193-1.418-8.2 0-14.578 1.263-19.141 3.779-4.572 2.525-7.881 6.227-9.924 11.105-2.055 4.891-3.309 10.872-3.783 17.961-.47 7.089-.707 15.358-.707 24.808v6.619h62.854v33.082h-62.854v203.212h-37.809v-203.212h-36.861v-33.082Z" class="cls-1"/>
    </g>
  </g>
  <g class="cls-2">
    <g class="cls-2">
      <path d="M6477.366 1391.31c-9.45-3.146-18.43-4.723-26.937-4.723-13.552 0-24.269 3.706-32.138 11.105-7.877 7.407-12.759 16.776-14.651 28.117v165.408h-37.809v-236.294h26.467l7.089 28.828h1.892c5.981-10.708 13.152-18.978 21.503-24.812 8.343-5.826 18.978-8.743 31.897-8.743 9.135 0 19.378 1.581 30.72 4.727l-8.032 36.387Z" class="cls-1"/>
    </g>
  </g>
  <g class="cls-2">
    <g class="cls-2">
      <path d="M6521.789 1372.41c11.971-7.244 25.911-12.6 41.825-16.069 15.905-3.465 32.526-5.201 49.857-5.201 16.379 0 29.535 2.211 39.463 6.619 9.924 4.417 17.482 10.161 22.684 17.25 5.197 7.089 8.661 14.884 10.394 23.39 1.728 8.511 2.603 17.017 2.603 25.523 0 18.9-.474 37.335-1.418 55.291-.948 17.961-1.418 34.973-1.418 51.042 0 11.656.47 22.684 1.418 33.077.944 10.398 2.672 20.012 5.197 28.828h-27.885l-9.924-33.082h-2.361c-2.835 4.417-6.382 8.743-10.635 12.996s-9.377 8.037-15.358 11.342c-5.99 3.309-12.923 6.072-20.792 8.274-7.881 2.198-16.858 3.305-26.941 3.305s-19.456-1.577-28.117-4.723c-8.67-3.146-16.151-7.636-22.447-13.47-6.309-5.826-11.269-12.833-14.888-21.029-3.624-8.192-5.434-17.487-5.434-27.885 0-13.858 2.835-25.437 8.506-34.736 5.671-9.286 13.626-16.694 23.864-22.21 10.234-5.507 22.524-9.454 36.865-11.816 14.332-2.361 30.164-3.542 47.491-3.542h12.996c4.253 0 8.584.315 12.996.944.948-9.45 1.418-17.961 1.418-25.519 0-17.323-3.469-29.458-10.394-36.391-6.933-6.925-19.542-10.398-37.809-10.398-5.361 0-11.105.409-17.25 1.219a211.428 211.428 0 0 0-18.904 3.404c-6.459 1.461-12.604 3.241-18.43 5.348-5.835 2.103-10.95 4.451-15.358 7.041l-11.816-28.824Zm67.107 189.505c8.817 0 16.698-1.181 23.632-3.542 6.925-2.361 12.915-5.352 17.956-8.98 5.037-3.615 9.217-7.636 12.522-12.048 3.309-4.408 5.748-8.661 7.326-12.764v-39.222c-4.413-.31-8.903-.547-13.466-.711a397.776 397.776 0 0 0-13.47-.237c-9.769 0-19.301.556-28.591 1.655-9.295 1.107-17.487 3.154-24.575 6.145-7.089 2.999-12.759 7.089-17.013 12.285-4.253 5.201-6.378 11.743-6.378 19.615 0 11.032 3.934 20.085 11.811 27.174 7.873 7.089 17.961 10.631 30.246 10.631Z" class="cls-1"/>
    </g>
  </g>
  <g class="cls-2">
    <g class="cls-2">
      <path d="M6858.112 1526.946c0-9.454-2.835-16.853-8.506-22.214-5.671-5.352-12.686-9.842-21.029-13.466-8.351-3.62-17.487-7.089-27.411-10.398-9.924-3.309-19.068-7.563-27.411-12.759-8.351-5.201-15.358-11.889-21.029-20.085-5.671-8.192-8.506-19.215-8.506-33.082 0-22.684 6.451-39.3 19.374-49.857 12.915-10.553 30.871-15.832 53.873-15.832 17.013 0 31.267 1.5 42.773 4.49 11.497 2.995 21.503 6.541 30.009 10.631l-8.98 31.19c-7.252-3.46-15.996-6.533-26.23-9.213-10.243-2.672-21.193-4.016-32.845-4.016-13.867 0-24.028 2.361-30.479 7.089-6.464 4.723-9.691 12.923-9.691 24.575 0 8.196 2.835 14.574 8.506 19.137 5.675 4.572 12.682 8.67 21.033 12.29 8.343 3.624 17.487 7.17 27.406 10.631 9.928 3.473 19.064 8.037 27.415 13.708 8.343 5.671 15.358 12.841 21.029 21.503 5.671 8.666 8.506 20.085 8.506 34.262 0 10.088-1.655 19.538-4.964 28.354-3.309 8.825-8.429 16.388-15.358 22.684-6.933 6.309-15.522 11.269-25.756 14.888-10.243 3.615-22.291 5.434-36.154 5.434-17.956 0-33.245-1.737-45.841-5.197-12.604-3.465-23.158-7.563-31.664-12.29l11.342-32.134c7.244 4.098 16.698 7.877 28.359 11.342 11.652 3.469 23.468 5.197 35.439 5.197 13.548 0 24.735-2.672 33.56-8.032 8.817-5.356 13.229-14.961 13.229-28.828Z" class="cls-1"/>
    </g>
  </g>
  <g class="cls-2">
    <g class="cls-2">
      <path d="M6924.607 1354.924h36.861v-46.789l37.809-10.868v57.657h64.271v33.082h-64.271v130.904c0 16.388 2.047 27.967 6.145 34.736 4.089 6.778 11.023 10.161 20.792 10.161 8.192 0 15.125-.862 20.796-2.598 5.671-1.728 11.971-4.016 18.904-6.852l8.506 28.828c-8.506 4.098-17.806 7.403-27.885 9.924-10.088 2.517-20.956 3.779-32.608 3.779-19.223 0-32.771-5.434-40.644-16.306-7.877-10.868-11.816-29.061-11.816-54.584v-137.993h-36.861v-33.082Z" class="cls-1"/>
    </g>
  </g>
  <g class="cls-2">
    <g class="cls-2">
      <path d="M7226.185 1391.31c-9.454-3.146-18.435-4.723-26.941-4.723-13.548 0-24.265 3.706-32.134 11.105-7.881 7.407-12.759 16.776-14.651 28.117v165.408h-37.809v-236.294h26.467l7.089 28.828h1.892c5.981-10.708 13.152-18.978 21.503-24.812 8.343-5.826 18.978-8.743 31.897-8.743 9.135 0 19.378 1.581 30.72 4.727l-8.032 36.387Z" class="cls-1"/>
    </g>
  </g>
  <g class="cls-2">
    <g class="cls-2">
      <path d="M7309.297 1354.924v134.688c0 12.285.711 23.084 2.129 32.371 1.418 9.299 3.852 17.013 7.326 23.158 3.46 6.145 8.187 10.794 14.177 13.94 5.981 3.154 13.539 4.727 22.684 4.727 8.506 0 16.069-1.336 22.684-4.016 6.615-2.672 12.522-6.382 17.724-11.105 5.197-4.727 9.76-10.161 13.703-16.306a99.216 99.216 0 0 0 9.687-19.611v-157.845h37.809v169.187c0 11.342.392 23.084 1.181 35.206.784 12.135 2.129 22.765 4.016 31.901h-25.993l-9.45-37.335h-2.361c-7.252 12.285-17.013 22.528-29.302 30.72-12.285 8.187-27.88 12.285-46.785 12.285-12.604 0-23.713-1.5-33.319-4.49-9.614-2.991-17.646-8.269-24.101-15.832-6.464-7.563-11.342-17.719-14.651-30.483-3.309-12.759-4.96-28.902-4.96-48.439v-142.72h37.804Z" class="cls-1"/>
    </g>
  </g>
  <g class="cls-2">
    <g class="cls-2">
      <path d="M7684.855 1575.623c-9.45 6.933-20.641 12.212-33.556 15.832-12.919 3.615-26.463 5.434-40.64 5.434-18.275 0-33.719-2.917-46.315-8.743-12.604-5.826-22.921-14.177-30.953-25.045-8.037-10.872-13.871-23.942-17.487-39.226-3.628-15.276-5.434-32.211-5.434-50.805 0-40.006 8.817-70.649 26.463-91.915 17.642-21.27 43.006-31.901 76.087-31.901 15.125 0 27.958 1.181 38.515 3.542 10.553 2.366 20.085 5.753 28.591 10.161l-10.868 32.608c-7.252-4.089-15.285-7.321-24.101-9.687-8.825-2.361-18.275-3.542-28.359-3.542-44.738 0-67.107 30.246-67.107 90.734 0 11.98 1.181 23.395 3.546 34.267 2.361 10.868 6.296 20.482 11.816 28.824 5.507 8.351 12.759 15.052 21.736 20.085 8.98 5.046 20.085 7.563 33.319 7.563 11.342 0 21.503-1.728 30.483-5.197 8.98-3.465 16.306-7.399 21.977-11.816l12.285 28.828Z" class="cls-1"/>
    </g>
  </g>
  <g class="cls-2">
    <g class="cls-2">
      <path d="M7711.817 1354.924h36.861v-46.789l37.809-10.868v57.657h64.271v33.082h-64.271v130.904c0 16.388 2.043 27.967 6.141 34.736 4.094 6.778 11.027 10.161 20.796 10.161 8.187 0 15.121-.862 20.792-2.598 5.671-1.728 11.971-4.016 18.904-6.852l8.506 28.828c-8.506 4.098-17.801 7.403-27.88 9.924-10.088 2.517-20.96 3.779-32.612 3.779-19.219 0-32.771-5.434-40.64-16.306-7.881-10.868-11.816-29.061-11.816-54.584v-137.993h-36.861v-33.082Z" class="cls-1"/>
    </g>
  </g>
  <g class="cls-2">
    <g class="cls-2">
      <path d="M7931.917 1354.924v134.688c0 12.285.707 23.084 2.124 32.371 1.418 9.299 3.857 17.013 7.326 23.158 3.465 6.145 8.187 10.794 14.177 13.94 5.981 3.154 13.544 4.727 22.684 4.727 8.506 0 16.069-1.336 22.688-4.016 6.615-2.672 12.522-6.382 17.719-11.105 5.201-4.727 9.765-10.161 13.708-16.306a99.216 99.216 0 0 0 9.687-19.611v-157.845h37.804v169.187c0 11.342.392 23.084 1.185 35.206.78 12.135 2.124 22.765 4.016 31.901h-25.993l-9.45-37.335h-2.366c-7.252 12.285-17.013 22.528-29.298 30.72-12.29 8.187-27.885 12.285-46.789 12.285-12.604 0-23.709-1.5-33.314-4.49-9.618-2.991-17.65-8.269-24.106-15.832-6.459-7.563-11.342-17.719-14.647-30.483-3.309-12.759-4.964-28.902-4.964-48.439v-142.72h37.809Z" class="cls-1"/>
    </g>
  </g>
  <g class="cls-2">
    <g class="cls-2">
      <path d="M8256.528 1391.31c-9.454-3.146-18.435-4.723-26.941-4.723-13.548 0-24.265 3.706-32.134 11.105-7.881 7.407-12.759 16.776-14.651 28.117v165.408h-37.809v-236.294h26.467l7.089 28.828h1.892c5.981-10.708 13.152-18.978 21.503-24.812 8.343-5.826 18.978-8.743 31.897-8.743 9.135 0 19.378 1.581 30.72 4.727l-8.032 36.387Z" class="cls-1"/>
    </g>
  </g>
  <g class="cls-2">
    <g class="cls-2">
      <path d="M8471.491 1572.313c-9.454 7.563-21.348 13.552-35.684 17.961-14.337 4.408-29.535 6.615-45.604 6.615-17.956 0-33.551-2.917-46.785-8.743-13.233-5.826-24.101-14.177-32.608-25.045-8.506-10.872-14.815-23.869-18.904-38.989-4.098-15.125-6.145-32.138-6.145-51.042 0-40.325 8.98-71.041 26.937-92.152 17.961-21.106 43.635-31.664 77.035-31.664 10.704 0 21.421 1.181 32.134 3.542 10.708 2.366 20.322 6.856 28.828 13.47 8.506 6.615 15.431 15.996 20.796 28.117 5.352 12.135 8.032 28.122 8.032 47.97 0 10.398-.944 21.899-2.835 34.499h-151.7c0 13.867 1.418 26.152 4.253 36.861 2.835 10.713 7.244 19.775 13.233 27.174 5.981 7.407 13.776 13.078 23.39 17.013 9.609 3.943 21.343 5.908 35.21 5.908 10.704 0 21.421-1.892 32.134-5.671 10.708-3.779 18.741-8.187 24.101-13.233l14.182 27.411Zm-81.288-189.979c-18.594 0-33.478 4.887-44.66 14.647-11.187 9.773-17.883 26.467-20.085 50.099h117.205c0-23.942-4.572-40.717-13.708-50.331-9.14-9.609-22.054-14.414-38.752-14.414Z" class="cls-1"/>
    </g>
  </g>
  <g class="cls-2">
    <g class="cls-2">
      <path d="M2866.24 1976.661h36.863v-13.233c0-14.487 1.181-27.092 3.544-37.809 2.364-10.704 6.218-19.447 11.579-26.226 5.354-6.774 12.288-11.816 20.794-15.125 8.506-3.305 19.06-4.96 31.664-4.96 10.079 0 18.978.633 26.702 1.887 7.716 1.263 15.83 3.628 24.338 7.089l-8.508 31.664c-7.25-3.146-14.102-5.197-20.557-6.141-6.462-.948-12.522-1.418-18.193-1.418-8.198 0-14.578 1.263-19.141 3.779-4.57 2.525-7.879 6.227-9.924 11.105-2.053 4.891-3.307 10.872-3.781 17.961-.472 7.089-.709 15.358-.709 24.808v6.619h62.856v33.082h-62.856v203.212h-37.807v-203.212h-36.863v-33.082Z" class="cls-1"/>
    </g>
  </g>
  <g class="cls-2">
    <g class="cls-2">
      <path d="M3037.416 2094.806c0-40.006 8.896-70.649 26.7-91.915 17.797-21.27 43.398-31.901 76.796-31.901 17.642 0 33 2.917 46.078 8.743 13.07 5.83 23.866 14.177 32.373 25.045 8.506 10.872 14.804 23.946 18.904 39.226 4.089 15.285 6.143 32.215 6.143 50.801 0 40.015-8.905 70.653-26.702 91.919-17.803 21.266-43.404 31.901-76.796 31.901-17.648 0-33.006-2.917-46.076-8.743-13.078-5.826-23.866-14.177-32.373-25.045-8.506-10.872-14.813-23.942-18.904-39.226-4.098-15.276-6.143-32.211-6.143-50.805Zm39.225 0c0 11.98 1.181 23.476 3.544 34.499 2.364 11.032 6.063 20.641 11.107 28.828 5.035 8.196 11.652 14.815 19.848 19.848 8.19 5.046 18.114 7.563 29.772 7.563 42.844.319 64.274-29.927 64.274-90.738 0-12.285-1.183-23.937-3.544-34.969-2.364-11.027-6.072-20.632-11.107-28.828-5.044-8.187-11.658-14.724-19.848-19.611-8.196-4.882-18.122-7.326-29.774-7.326-42.85-.31-64.271 29.936-64.271 90.734Z" class="cls-1"/>
    </g>
  </g>
  <g class="cls-2">
    <g class="cls-2">
      <path d="M3418.55 2013.048c-9.452-3.146-18.433-4.723-26.939-4.723-13.55 0-24.265 3.706-32.136 11.105-7.879 7.407-12.759 16.776-14.649 28.117v165.408h-37.809v-236.294h26.465l7.089 28.828h1.892c5.981-10.708 13.152-18.978 21.503-24.812 8.345-5.826 18.978-8.743 31.899-8.743 9.135 0 19.376 1.581 30.718 4.727l-8.032 36.387Z" class="cls-1"/>
    </g>
  </g>
  <g class="cls-2">
    <g class="cls-2">
      <path d="M3576.327 1976.661h36.861v-46.789l37.809-10.868v57.657h64.271v33.082h-64.271v130.904c0 16.388 2.045 27.967 6.143 34.736 4.092 6.778 11.025 10.161 20.794 10.161 8.19 0 15.123-.862 20.794-2.598 5.671-1.728 11.971-4.016 18.904-6.852l8.506 28.828c-8.506 4.098-17.803 7.403-27.883 9.924-10.088 2.517-20.958 3.779-32.61 3.779-19.221 0-32.771-5.434-40.642-16.306-7.879-10.868-11.816-29.061-11.816-54.584v-137.993h-36.861v-33.082Z" class="cls-1"/>
    </g>
  </g>
  <g class="cls-2">
    <g class="cls-2">
      <path d="M3926.898 2212.955v-134.688c0-12.285-.709-23.076-2.127-32.371-1.418-9.291-4.018-17.017-7.8-23.158-3.779-6.145-8.905-10.79-15.358-13.945-6.462-3.146-14.886-4.723-25.284-4.723-14.813 0-28.199 4.805-40.17 14.414-11.977 9.614-19.693 21.973-23.155 37.098v157.371h-37.809v-330.811h37.809v120.98h1.89c8.19-9.76 18.032-17.56 29.537-23.39 11.497-5.826 25.756-8.743 42.769-8.743 13.233 0 24.73 1.5 34.499 4.49 9.762 2.995 17.877 8.269 24.338 15.832 6.453 7.558 11.18 17.719 14.177 30.479 2.991 12.759 4.49 28.91 4.49 48.444v142.72h-37.807Z" class="cls-1"/>
    </g>
  </g>
  <g class="cls-2">
    <g class="cls-2">
      <path d="M4211.567 2194.05c-9.452 7.563-21.348 13.552-35.682 17.961-14.339 4.408-29.535 6.615-45.604 6.615-17.959 0-33.553-2.917-46.787-8.743-13.231-5.826-24.101-14.177-32.608-25.045-8.506-10.872-14.813-23.869-18.904-38.989-4.098-15.125-6.143-32.138-6.143-51.042 0-40.325 8.978-71.041 26.937-92.152 17.959-21.106 43.633-31.664 77.033-31.664 10.706 0 21.421 1.181 32.136 3.542 10.706 2.366 20.322 6.856 28.828 13.47 8.506 6.615 15.431 15.996 20.794 28.117 5.352 12.135 8.032 28.122 8.032 47.97 0 10.398-.944 21.899-2.835 34.499h-151.7c0 13.867 1.418 26.152 4.253 36.861 2.835 10.713 7.244 19.775 13.233 27.174 5.981 7.407 13.779 13.078 23.392 17.013 9.607 3.943 21.341 5.908 35.208 5.908 10.706 0 21.421-1.892 32.136-5.671 10.706-3.779 18.741-8.187 24.101-13.233l14.179 27.411Zm-81.287-189.978c-18.594 0-33.48 4.887-44.66 14.647-11.187 9.773-17.883 26.467-20.085 50.099h117.203c0-23.942-4.572-40.717-13.705-50.331-9.142-9.609-22.057-14.414-38.752-14.414Z" class="cls-1"/>
    </g>
  </g>
  <g class="cls-2">
    <g class="cls-2">
      <path d="m4676.585 1990.838 4.727-49.62h-2.361l-17.961 45.367-86.011 149.339h-11.811l-91.212-149.813-17.013-44.893h-2.361l6.615 49.146v222.591h-36.861v-330.811h29.298l103.498 169.187 15.595 36.861h.948l14.647-37.809 98.771-168.239h30.72v330.811h-39.226v-222.117Z" class="cls-1"/>
    </g>
  </g>
  <g class="cls-2">
    <g class="cls-2">
      <path d="M4791.61 1994.148c11.967-7.244 25.911-12.6 41.821-16.069 15.905-3.465 32.53-5.201 49.862-5.201 16.375 0 29.535 2.211 39.459 6.619 9.924 4.417 17.487 10.161 22.684 17.25 5.201 7.089 8.661 14.884 10.398 23.39 1.728 8.511 2.598 17.017 2.598 25.523 0 18.9-.474 37.335-1.418 55.291-.944 17.961-1.418 34.973-1.418 51.042 0 11.656.474 22.684 1.418 33.077.944 10.398 2.672 20.012 5.201 28.828h-27.885l-9.924-33.082h-2.361c-2.835 4.417-6.382 8.743-10.635 12.996s-9.377 8.037-15.358 11.342c-5.99 3.309-12.923 6.072-20.796 8.274-7.877 2.198-16.858 3.305-26.937 3.305s-19.456-1.577-28.117-4.723c-8.67-3.146-16.151-7.636-22.451-13.47-6.304-5.826-11.269-12.833-14.884-21.029-3.628-8.192-5.438-17.487-5.438-27.885 0-13.858 2.835-25.437 8.506-34.736 5.675-9.286 13.626-16.694 23.869-22.21 10.234-5.507 22.52-9.454 36.861-11.816 14.332-2.361 30.164-3.542 47.496-3.542h12.996c4.253 0 8.58.315 12.996.944.944-9.45 1.418-17.961 1.418-25.519 0-17.323-3.473-29.458-10.398-36.391-6.933-6.925-19.538-10.398-37.809-10.398-5.361 0-11.105.409-17.245 1.219a211.108 211.108 0 0 0-18.904 3.404c-6.464 1.461-12.604 3.241-18.43 5.348-5.835 2.103-10.954 4.451-15.362 7.041l-11.811-28.824Zm67.107 189.504c8.817 0 16.694-1.181 23.627-3.542 6.929-2.361 12.915-5.352 17.961-8.98 5.033-3.615 9.213-7.636 12.522-12.048 3.309-4.408 5.744-8.661 7.326-12.764v-39.222a395.13 395.13 0 0 0-13.47-.711 397.36 397.36 0 0 0-13.466-.237c-9.769 0-19.305.556-28.591 1.655-9.299 1.107-17.487 3.154-24.575 6.145-7.089 2.999-12.759 7.089-17.013 12.285-4.253 5.201-6.382 11.743-6.382 19.615 0 11.032 3.934 20.085 11.816 27.174 7.869 7.089 17.956 10.631 30.246 10.631Z" class="cls-1"/>
    </g>
  </g>
  <g class="cls-2">
    <g class="cls-2">
      <path d="M5005.57 1976.661h36.861v-46.789l37.809-10.868v57.657h64.271v33.082h-64.271v130.904c0 16.388 2.043 27.967 6.141 34.736 4.094 6.778 11.027 10.161 20.796 10.161 8.187 0 15.121-.862 20.792-2.598 5.671-1.728 11.971-4.016 18.904-6.852l8.506 28.828c-8.506 4.098-17.801 7.403-27.88 9.924-10.088 2.517-20.96 3.779-32.612 3.779-19.219 0-32.771-5.434-40.64-16.306-7.881-10.868-11.816-29.061-11.816-54.584v-137.993h-36.861v-33.082Z" class="cls-1"/>
    </g>
  </g>
  <g class="cls-2">
    <g class="cls-2">
      <path d="M5372.079 2194.05c-9.45 7.563-21.348 13.552-35.68 17.961-14.341 4.408-29.535 6.615-45.604 6.615-17.961 0-33.556-2.917-46.789-8.743-13.229-5.826-24.101-14.177-32.608-25.045-8.506-10.872-14.811-23.869-18.904-38.989-4.098-15.125-6.141-32.138-6.141-51.042 0-40.325 8.976-71.041 26.937-92.152 17.956-21.106 43.63-31.664 77.031-31.664 10.708 0 21.421 1.181 32.138 3.542 10.704 2.366 20.322 6.856 28.828 13.47 8.506 6.615 15.431 15.996 20.792 28.117 5.352 12.135 8.032 28.122 8.032 47.97 0 10.398-.944 21.899-2.835 34.499h-151.7c0 13.867 1.418 26.152 4.253 36.861 2.835 10.713 7.244 19.775 13.233 27.174 5.981 7.407 13.781 13.078 23.395 17.013 9.605 3.943 21.339 5.908 35.206 5.908 10.708 0 21.421-1.892 32.138-5.671 10.704-3.779 18.741-8.187 24.101-13.233l14.177 27.411Zm-81.285-189.978c-18.594 0-33.482 4.887-44.66 14.647-11.187 9.773-17.883 26.467-20.085 50.099h117.201c0-23.942-4.572-40.717-13.703-50.331-9.144-9.609-22.059-14.414-38.752-14.414Z" class="cls-1"/>
    </g>
  </g>
  <g class="cls-2">
    <g class="cls-2">
      <path d="M5553.366 2013.048c-9.45-3.146-18.43-4.723-26.937-4.723-13.552 0-24.265 3.706-32.138 11.105-7.877 7.407-12.759 16.776-14.647 28.117v165.408h-37.809v-236.294h26.463l7.089 28.828h1.892c5.981-10.708 13.152-18.978 21.503-24.812 8.347-5.826 18.978-8.743 31.901-8.743 9.135 0 19.374 1.581 30.716 4.727l-8.032 36.387Z" class="cls-1"/>
    </g>
  </g>
  <g class="cls-2">
    <g class="cls-2">
      <path d="M5605.985 1904.827c0-7.244 2.435-13.47 7.326-18.667 4.878-5.197 11.105-7.8 18.667-7.8s14.013 2.603 19.374 7.8c5.356 5.197 8.037 11.424 8.037 18.667s-2.68 13.233-8.037 17.956c-5.361 4.727-11.816 7.089-19.374 7.089s-13.789-2.361-18.667-7.089c-4.891-4.723-7.326-10.704-7.326-17.956Zm8.032 71.834h37.809v236.294h-37.809v-236.294Z" class="cls-1"/>
    </g>
  </g>
  <g class="cls-2">
    <g class="cls-2">
      <path d="M5725.759 1994.148c11.967-7.244 25.911-12.6 41.821-16.069 15.905-3.465 32.53-5.201 49.862-5.201 16.375 0 29.535 2.211 39.459 6.619 9.924 4.417 17.487 10.161 22.684 17.25 5.201 7.089 8.661 14.884 10.398 23.39 1.728 8.511 2.598 17.017 2.598 25.523 0 18.9-.474 37.335-1.418 55.291-.944 17.961-1.418 34.973-1.418 51.042 0 11.656.474 22.684 1.418 33.077.944 10.398 2.672 20.012 5.201 28.828h-27.885l-9.924-33.082h-2.361c-2.835 4.417-6.382 8.743-10.635 12.996s-9.377 8.037-15.358 11.342c-5.99 3.309-12.923 6.072-20.796 8.274-7.877 2.198-16.858 3.305-26.937 3.305s-19.456-1.577-28.117-4.723c-8.67-3.146-16.151-7.636-22.451-13.47-6.304-5.826-11.269-12.833-14.884-21.029-3.628-8.192-5.438-17.487-5.438-27.885 0-13.858 2.835-25.437 8.506-34.736 5.675-9.286 13.626-16.694 23.869-22.21 10.234-5.507 22.52-9.454 36.861-11.816 14.332-2.361 30.164-3.542 47.496-3.542h12.996c4.253 0 8.58.315 12.996.944.944-9.45 1.418-17.961 1.418-25.519 0-17.323-3.473-29.458-10.398-36.391-6.933-6.925-19.538-10.398-37.809-10.398-5.361 0-11.105.409-17.245 1.219a211.108 211.108 0 0 0-18.904 3.404c-6.464 1.461-12.604 3.241-18.43 5.348-5.835 2.103-10.954 4.451-15.362 7.041l-11.811-28.824Zm67.107 189.504c8.817 0 16.694-1.181 23.627-3.542 6.929-2.361 12.915-5.352 17.961-8.98 5.033-3.615 9.213-7.636 12.522-12.048 3.309-4.408 5.744-8.661 7.326-12.764v-39.222a395.13 395.13 0 0 0-13.47-.711 397.36 397.36 0 0 0-13.466-.237c-9.769 0-19.305.556-28.591 1.655-9.299 1.107-17.487 3.154-24.575 6.145-7.089 2.999-12.759 7.089-17.013 12.285-4.253 5.201-6.382 11.743-6.382 19.615 0 11.032 3.934 20.085 11.816 27.174 7.869 7.089 17.956 10.631 30.246 10.631Z" class="cls-1"/>
    </g>
  </g>
  <g class="cls-2">
    <g class="cls-2">
      <path d="M6004.584 2154.828c0 11.032 1.887 18.9 5.671 23.627 3.779 4.727 9.131 7.089 16.065 7.089 4.094 0 8.506-.31 13.233-.944 4.727-.629 10.079-2.047 16.069-4.253l4.253 29.772c-5.042 2.525-12.053 4.563-21.029 6.145-8.98 1.573-16.78 2.361-23.395 2.361-14.177 0-25.838-4.016-34.973-12.053-9.14-8.032-13.703-21.658-13.703-40.877v-283.553h37.809v272.685Z" class="cls-1"/>
    </g>
  </g>
  <g class="cls-2">
    <g class="cls-2">
      <path d="M6244.295 1885.449c11.971-2.198 25.756-3.934 41.351-5.197 15.599-1.254 29.85-1.892 42.773-1.892 14.487 0 28.273 1.581 41.351 4.727 13.07 3.154 24.575 8.351 34.499 15.595 9.924 7.252 17.874 16.702 23.864 28.354 5.981 11.661 8.98 25.838 8.98 42.536 0 25.838-7.089 46.785-21.266 62.854-14.182 16.069-32.138 26.782-53.878 32.134l22.684 17.487 82.232 130.909h-45.841l-91.208-142.72-46.315-7.093v149.813h-39.226V1885.45Zm85.068 26.941h-12.759c-4.417 0-8.67.159-12.759.47-4.098.319-7.963.638-11.579.948-3.628.315-6.541.789-8.743 1.418v121.928h36.861c21.74 0 39.696-5.356 53.878-16.069 14.177-10.708 21.266-27.411 21.266-50.094 0-17.013-5.835-31.03-17.487-42.062-11.661-11.023-27.885-16.539-48.677-16.539Z" class="cls-1"/>
    </g>
  </g>
  <g class="cls-2">
    <g class="cls-2">
      <path d="M6687.477 2194.05c-9.454 7.563-21.348 13.552-35.684 17.961-14.337 4.408-29.535 6.615-45.604 6.615-17.956 0-33.551-2.917-46.785-8.743-13.233-5.826-24.101-14.177-32.608-25.045-8.506-10.872-14.815-23.869-18.904-38.989-4.098-15.125-6.145-32.138-6.145-51.042 0-40.325 8.98-71.041 26.937-92.152 17.961-21.106 43.635-31.664 77.035-31.664 10.704 0 21.421 1.181 32.134 3.542 10.708 2.366 20.322 6.856 28.828 13.47 8.506 6.615 15.431 15.996 20.796 28.117 5.352 12.135 8.032 28.122 8.032 47.97 0 10.398-.944 21.899-2.835 34.499h-151.7c0 13.867 1.418 26.152 4.253 36.861 2.835 10.713 7.244 19.775 13.233 27.174 5.981 7.407 13.776 13.078 23.39 17.013 9.609 3.943 21.343 5.908 35.21 5.908 10.704 0 21.421-1.892 32.134-5.671 10.708-3.779 18.741-8.187 24.101-13.233l14.182 27.411Zm-81.288-189.978c-18.594 0-33.478 4.887-44.66 14.647-11.187 9.773-17.883 26.467-20.085 50.099h117.205c0-23.942-4.572-40.717-13.708-50.331-9.14-9.609-22.054-14.414-38.752-14.414Z" class="cls-1"/>
    </g>
  </g>
  <g class="cls-2">
    <g class="cls-2">
      <path d="M6895.701 2212.955v-133.744c0-12.596-.556-23.545-1.655-32.845-1.107-9.291-3.236-17.086-6.382-23.395-3.15-6.296-7.64-11.023-13.466-14.177-5.835-3.146-13.47-4.723-22.921-4.723-14.496 0-26.549 4.413-36.154 13.229-9.614 8.825-16.306 19.852-20.085 33.082v162.572h-37.809V1976.66h26.467l7.089 28.828h1.892c8.506-10.079 18.348-18.353 29.535-24.812 11.178-6.455 25.756-9.687 43.717-9.687 15.121 0 27.484 2.917 37.098 8.743 9.605 5.83 17.086 15.991 22.447 30.479 7.244-12.285 17.25-21.891 30.009-28.824 12.759-6.929 27.174-10.398 43.243-10.398 13.233 0 24.412 1.5 33.556 4.49 9.131 2.995 16.694 8.269 22.684 15.832 5.981 7.558 10.316 17.801 12.996 30.716 2.672 12.923 4.016 29.302 4.016 49.151v141.776h-37.809v-142.25c0-11.342-.552-21.184-1.655-29.535-1.107-8.347-3.305-15.28-6.615-20.796-3.309-5.507-7.877-9.605-13.703-12.285-5.835-2.672-13.47-4.016-22.921-4.016-15.759 0-28.048 4.413-36.865 13.229-8.825 8.825-15.121 21.43-18.904 37.809v157.845h-37.804Z" class="cls-1"/>
    </g>
  </g>
  <g class="cls-2">
    <g class="cls-2">
      <path d="M7139.997 1994.148c11.967-7.244 25.911-12.6 41.821-16.069 15.905-3.465 32.53-5.201 49.862-5.201 16.375 0 29.535 2.211 39.459 6.619 9.924 4.417 17.487 10.161 22.684 17.25 5.201 7.089 8.661 14.884 10.398 23.39 1.728 8.511 2.598 17.017 2.598 25.523 0 18.9-.474 37.335-1.418 55.291-.944 17.961-1.418 34.973-1.418 51.042 0 11.656.474 22.684 1.418 33.077.944 10.398 2.672 20.012 5.201 28.828h-27.885l-9.924-33.082h-2.361c-2.835 4.417-6.382 8.743-10.635 12.996s-9.377 8.037-15.358 11.342c-5.99 3.309-12.923 6.072-20.796 8.274-7.877 2.198-16.858 3.305-26.937 3.305s-19.456-1.577-28.117-4.723c-8.67-3.146-16.151-7.636-22.451-13.47-6.304-5.826-11.269-12.833-14.884-21.029-3.628-8.192-5.438-17.487-5.438-27.885 0-13.858 2.835-25.437 8.506-34.736 5.675-9.286 13.626-16.694 23.869-22.21 10.234-5.507 22.52-9.454 36.861-11.816 14.332-2.361 30.164-3.542 47.496-3.542h12.996c4.253 0 8.58.315 12.996.944.944-9.45 1.418-17.961 1.418-25.519 0-17.323-3.473-29.458-10.398-36.391-6.933-6.925-19.538-10.398-37.809-10.398-5.361 0-11.105.409-17.245 1.219a211.108 211.108 0 0 0-18.904 3.404c-6.464 1.461-12.604 3.241-18.43 5.348-5.835 2.103-10.954 4.451-15.362 7.041l-11.811-28.824Zm67.107 189.504c8.817 0 16.694-1.181 23.627-3.542 6.929-2.361 12.915-5.352 17.961-8.98 5.033-3.615 9.213-7.636 12.522-12.048 3.309-4.408 5.744-8.661 7.326-12.764v-39.222a395.13 395.13 0 0 0-13.47-.711 397.36 397.36 0 0 0-13.466-.237c-9.769 0-19.305.556-28.591 1.655-9.299 1.107-17.487 3.154-24.575 6.145-7.089 2.999-12.759 7.089-17.013 12.285-4.253 5.201-6.382 11.743-6.382 19.615 0 11.032 3.934 20.085 11.816 27.174 7.869 7.089 17.956 10.631 30.246 10.631Z" class="cls-1"/>
    </g>
  </g>
  <g class="cls-2">
    <g class="cls-2">
      <path d="M7375.438 1904.827c0-7.244 2.435-13.47 7.326-18.667 4.878-5.197 11.105-7.8 18.667-7.8s14.013 2.603 19.374 7.8c5.356 5.197 8.037 11.424 8.037 18.667s-2.68 13.233-8.037 17.956c-5.361 4.727-11.816 7.089-19.374 7.089s-13.789-2.361-18.667-7.089c-4.891-4.723-7.326-10.704-7.326-17.956Zm8.032 71.834h37.809v236.294h-37.809v-236.294Z" class="cls-1"/>
    </g>
  </g>
  <g class="cls-2">
    <g class="cls-2">
      <path d="M7651.575 2212.955v-134.688c0-24.575-3.546-43.079-10.635-55.528-7.089-12.445-20.085-18.667-38.985-18.667-16.702 0-30.483 4.49-41.351 13.466-10.872 8.98-18.512 20.249-22.925 33.793v161.624h-37.809v-236.294h26.467l7.089 28.828h1.892c7.558-10.079 17.719-18.353 30.483-24.812 12.755-6.455 27.958-9.687 45.604-9.687 12.915 0 24.256 1.5 34.025 4.49 9.76 2.995 17.879 8.269 24.338 15.832 6.455 7.558 11.342 17.719 14.651 30.479 3.305 12.759 4.96 28.91 4.96 48.444v142.72h-37.804Z" class="cls-1"/>
    </g>
  </g>
  <g class="cls-2">
    <g class="cls-2">
      <path d="M7864.625 2148.683c0-9.454-2.835-16.853-8.506-22.214-5.671-5.352-12.686-9.842-21.029-13.466-8.351-3.62-17.487-7.089-27.411-10.398-9.924-3.309-19.064-7.563-27.411-12.759-8.351-5.201-15.358-11.889-21.029-20.085-5.671-8.192-8.506-19.215-8.506-33.082 0-22.684 6.451-39.3 19.374-49.857 12.915-10.553 30.875-15.832 53.878-15.832 17.013 0 31.263 1.5 42.769 4.49 11.497 2.995 21.503 6.541 30.009 10.631l-8.98 31.19c-7.252-3.46-15.991-6.533-26.23-9.213-10.239-2.672-21.193-4.016-32.845-4.016-13.867 0-24.028 2.361-30.479 7.089-6.464 4.723-9.691 12.923-9.691 24.575 0 8.196 2.835 14.574 8.506 19.137 5.675 4.572 12.682 8.67 21.033 12.29 8.343 3.624 17.487 7.17 27.411 10.631 9.924 3.473 19.06 8.037 27.411 13.708 8.343 5.671 15.358 12.841 21.029 21.503 5.671 8.666 8.506 20.085 8.506 34.262 0 10.088-1.655 19.538-4.964 28.354-3.305 8.825-8.429 16.388-15.358 22.684-6.933 6.309-15.522 11.269-25.756 14.888-10.243 3.615-22.291 5.434-36.154 5.434-17.956 0-33.241-1.737-45.841-5.197-12.604-3.465-23.158-7.563-31.664-12.29l11.342-32.134c7.248 4.098 16.698 7.877 28.359 11.342 11.652 3.469 23.468 5.197 35.443 5.197 13.544 0 24.73-2.672 33.556-8.032 8.817-5.356 13.229-14.961 13.229-28.828Z" class="cls-1"/>
    </g>
  </g>
  <g class="cls-2">
    <g class="cls-2">
      <path d="M8086.315 2094.806c0-40.006 8.894-70.649 26.7-91.915 17.797-21.27 43.398-31.901 76.794-31.901 17.642 0 33 2.917 46.078 8.743 13.07 5.83 23.869 14.177 32.375 25.045 8.506 10.872 14.802 23.946 18.904 39.226 4.089 15.285 6.141 32.215 6.141 50.801 0 40.015-8.903 70.653-26.7 91.919-17.806 21.266-43.406 31.901-76.798 31.901-17.646 0-33.004-2.917-46.074-8.743-13.078-5.826-23.869-14.177-32.375-25.045-8.506-10.872-14.811-23.942-18.904-39.226-4.098-15.276-6.141-32.211-6.141-50.805Zm39.222 0c0 11.98 1.181 23.476 3.546 34.499 2.361 11.032 6.063 20.641 11.105 28.828 5.037 8.196 11.652 14.815 19.848 19.848 8.192 5.046 18.116 7.563 29.772 7.563 42.846.319 64.276-29.927 64.276-90.738 0-12.285-1.185-23.937-3.546-34.969-2.361-11.027-6.072-20.632-11.105-28.828-5.046-8.187-11.661-14.724-19.848-19.611-8.196-4.882-18.124-7.326-29.776-7.326-42.85-.31-64.271 29.936-64.271 90.734Z" class="cls-1"/>
    </g>
  </g>
  <g class="cls-2">
    <g class="cls-2">
      <path d="M8329.922 1976.661h36.865v-13.233c0-14.487 1.181-27.092 3.546-37.809 2.361-10.704 6.214-19.447 11.574-26.226 5.356-6.774 12.29-11.816 20.796-15.125 8.506-3.305 19.06-4.96 31.664-4.96 10.079 0 18.978.633 26.7 1.887 7.718 1.263 15.832 3.628 24.338 7.089l-8.506 31.664c-7.248-3.146-14.1-5.197-20.555-6.141-6.464-.948-12.522-1.418-18.193-1.418-8.2 0-14.582 1.263-19.141 3.779-4.572 2.525-7.881 6.227-9.928 11.105-2.051 4.891-3.305 10.872-3.779 17.961-.47 7.089-.711 15.358-.711 24.808v6.619h62.858v33.082h-62.858v203.212h-37.804v-203.212h-36.865v-33.082Z" class="cls-1"/>
    </g>
  </g>
  <g class="cls-2">
    <g class="cls-2">
      <g class="cls-2">
        <path d="M3094.03 2682.987h-158.791v151.7h-39.224v-330.811h39.224v144.138h158.791v-144.138h39.224v330.811h-39.224v-151.7Z" class="cls-1"/>
      </g>
    </g>
    <g class="cls-2">
      <g class="cls-2">
        <path d="M3240.881 2598.394v134.688c0 12.285.709 23.084 2.127 32.371 1.418 9.299 3.855 17.013 7.326 23.158 3.462 6.145 8.187 10.794 14.177 13.94 5.981 3.154 13.542 4.727 22.684 4.727 8.506 0 16.069-1.336 22.686-4.016 6.615-2.672 12.522-6.382 17.722-11.105 5.199-4.727 9.762-10.161 13.705-16.306a99.216 99.216 0 0 0 9.687-19.611v-157.845h37.807v169.187c0 11.342.392 23.084 1.183 35.206.782 12.135 2.127 22.765 4.016 31.901h-25.993l-9.45-37.335h-2.364c-7.252 12.285-17.013 22.528-29.3 30.72-12.288 8.187-27.883 12.285-46.787 12.285-12.604 0-23.711-1.5-33.316-4.49-9.616-2.991-17.648-8.269-24.103-15.832-6.462-7.563-11.342-17.719-14.649-30.483-3.309-12.759-4.962-28.902-4.962-48.439v-142.72h37.807Z" class="cls-1"/>
      </g>
    </g>
    <g class="cls-2">
      <g class="cls-2">
        <path d="M3594.634 2834.688v-133.744c0-12.596-.554-23.545-1.655-32.845-1.107-9.291-3.234-17.086-6.38-23.395-3.152-6.296-7.642-11.023-13.468-14.177-5.832-3.146-13.468-4.723-22.921-4.723-14.496 0-26.547 4.413-36.154 13.229-9.614 8.825-16.304 19.852-20.083 33.082v162.572h-37.809v-236.294h26.465l7.089 28.828h1.892c8.506-10.079 18.348-18.353 29.537-24.812 11.178-6.455 25.756-9.687 43.714-9.687 15.123 0 27.484 2.917 37.098 8.743 9.607 5.83 17.086 15.991 22.449 30.479 7.244-12.285 17.247-21.891 30.009-28.824 12.759-6.929 27.174-10.398 43.24-10.398 13.233 0 24.414 1.5 33.556 4.49 9.133 2.995 16.694 8.269 22.684 15.832 5.981 7.558 10.316 17.801 12.996 30.716 2.672 12.923 4.016 29.302 4.016 49.151v141.776h-37.807v-142.25c0-11.342-.554-21.184-1.655-29.535-1.107-8.347-3.307-15.28-6.617-20.796-3.307-5.507-7.877-9.605-13.703-12.285-5.835-2.672-13.47-4.016-22.921-4.016-15.759 0-28.046 4.413-36.863 13.229s-15.123 21.43-18.904 37.809v157.845h-37.807Z" class="cls-1"/>
      </g>
    </g>
    <g class="cls-2">
      <g class="cls-2">
        <path d="M3832.311 2615.88c11.969-7.244 25.911-12.6 41.823-16.069 15.905-3.465 32.528-5.201 49.859-5.201 16.377 0 29.535 2.211 39.461 6.619 9.924 4.417 17.485 10.161 22.684 17.25s8.661 14.884 10.396 23.39c1.728 8.511 2.601 17.017 2.601 25.523 0 18.9-.474 37.335-1.418 55.291-.946 17.961-1.418 34.973-1.418 51.042 0 11.656.472 22.684 1.418 33.077.944 10.398 2.672 20.012 5.199 28.828h-27.885l-9.924-33.082h-2.361c-2.835 4.417-6.382 8.743-10.635 12.996s-9.377 8.037-15.358 11.342c-5.99 3.309-12.923 6.072-20.794 8.274-7.879 2.198-16.858 3.305-26.939 3.305s-19.456-1.577-28.117-4.723c-8.67-3.146-16.151-7.636-22.449-13.47-6.306-5.826-11.269-12.833-14.886-21.029-3.626-8.192-5.436-17.487-5.436-27.885 0-13.858 2.835-25.437 8.506-34.736 5.673-9.286 13.626-16.694 23.866-22.21 10.234-5.507 22.522-9.454 36.863-11.816 14.332-2.361 30.164-3.542 47.494-3.542h12.996c4.253 0 8.582.315 12.996.944.946-9.45 1.418-17.961 1.418-25.519 0-17.323-3.471-29.458-10.396-36.391-6.933-6.925-19.54-10.398-37.809-10.398-5.361 0-11.105.409-17.247 1.219a211.3 211.3 0 0 0-18.904 3.404c-6.462 1.461-12.604 3.241-18.43 5.348-5.835 2.103-10.952 4.451-15.36 7.041l-11.814-28.824Zm67.107 189.505c8.817 0 16.696-1.181 23.629-3.542 6.927-2.361 12.915-5.352 17.959-8.98 5.035-3.615 9.215-7.636 12.522-12.048 3.309-4.408 5.746-8.661 7.326-12.764v-39.222c-4.415-.31-8.905-.547-13.468-.711-4.57-.155-9.06-.237-13.468-.237-9.769 0-19.303.556-28.591 1.655-9.297 1.107-17.487 3.154-24.575 6.145-7.089 2.999-12.759 7.089-17.013 12.285-4.253 5.201-6.38 11.743-6.38 19.615 0 11.032 3.934 20.085 11.814 27.174 7.871 7.089 17.959 10.631 30.246 10.631Z" class="cls-1"/>
      </g>
    </g>
    <g class="cls-2">
      <g class="cls-2">
        <path d="M4216.807 2834.688V2700c0-24.575-3.544-43.079-10.635-55.528-7.089-12.445-20.085-18.667-38.987-18.667-16.702 0-30.483 4.49-41.351 13.466-10.87 8.98-18.512 20.249-22.921 33.793v161.624h-37.809v-236.294h26.465l7.089 28.828h1.892c7.56-10.079 17.722-18.353 30.481-24.812 12.759-6.455 27.958-9.687 45.606-9.687 12.915 0 24.256 1.5 34.025 4.49 9.762 2.995 17.877 8.269 24.338 15.832 6.455 7.558 11.342 17.719 14.651 30.479 3.307 12.759 4.962 28.91 4.962 48.444v142.72h-37.807Z" class="cls-1"/>
      </g>
    </g>
    <g class="cls-2">
      <g class="cls-2">
        <path d="M4651.678 2682.987h-158.789v151.7h-39.226v-330.811h39.226v144.138h158.789v-144.138h39.226v330.811h-39.226v-151.7Z" class="cls-1"/>
      </g>
    </g>
    <g class="cls-2">
      <g class="cls-2">
        <path d="M4759.205 2526.56c0-7.244 2.439-13.47 7.326-18.667 4.882-5.197 11.109-7.8 18.667-7.8s14.018 2.603 19.378 7.8c5.352 5.197 8.032 11.424 8.032 18.667s-2.68 13.233-8.032 17.956c-5.361 4.727-11.816 7.089-19.378 7.089s-13.785-2.361-18.667-7.089c-4.887-4.723-7.326-10.704-7.326-17.956Zm8.037 71.834h37.804v236.294h-37.804v-236.294Z" class="cls-1"/>
      </g>
    </g>
    <g class="cls-2">
      <g class="cls-2">
        <path d="M4980.111 2770.416c0-9.454-2.835-16.853-8.506-22.214-5.671-5.352-12.686-9.842-21.033-13.466-8.351-3.62-17.482-7.089-27.406-10.398-9.928-3.309-19.068-7.563-27.411-12.759-8.351-5.201-15.362-11.889-21.033-20.085-5.671-8.192-8.506-19.215-8.506-33.082 0-22.684 6.455-39.3 19.378-49.857 12.915-10.553 30.871-15.832 53.873-15.832 17.013 0 31.267 1.5 42.769 4.49 11.497 2.995 21.503 6.541 30.009 10.631l-8.976 31.19c-7.252-3.46-15.996-6.533-26.23-9.213-10.243-2.672-21.193-4.016-32.845-4.016-13.867 0-24.028 2.361-30.483 7.089-6.459 4.723-9.687 12.923-9.687 24.575 0 8.196 2.835 14.574 8.506 19.137 5.671 4.572 12.678 8.67 21.029 12.29 8.347 3.624 17.487 7.17 27.411 10.631 9.924 3.473 19.06 8.037 27.411 13.708 8.343 5.671 15.358 12.841 21.029 21.503 5.671 8.666 8.506 20.085 8.506 34.262 0 10.088-1.65 19.538-4.96 28.354-3.309 8.825-8.433 16.388-15.358 22.684-6.933 6.309-15.522 11.269-25.756 14.888-10.243 3.615-22.296 5.434-36.154 5.434-17.961 0-33.245-1.737-45.841-5.197-12.604-3.465-23.158-7.563-31.664-12.29l11.342-32.134c7.244 4.098 16.694 7.877 28.354 11.342 11.652 3.469 23.468 5.197 35.443 5.197 13.544 0 24.73-2.672 33.556-8.032 8.817-5.356 13.233-14.961 13.233-28.828Z" class="cls-1"/>
      </g>
    </g>
    <g class="cls-2">
      <g class="cls-2">
        <path d="M5048.812 2598.394h36.861v-46.789l37.809-10.868v57.657h64.271v33.082h-64.271v130.904c0 16.388 2.043 27.967 6.141 34.736 4.094 6.778 11.027 10.161 20.796 10.161 8.187 0 15.121-.862 20.792-2.598 5.671-1.728 11.971-4.016 18.904-6.852l8.506 28.828c-8.506 4.098-17.801 7.403-27.88 9.924-10.088 2.517-20.96 3.779-32.612 3.779-19.219 0-32.771-5.434-40.64-16.306-7.881-10.868-11.816-29.061-11.816-54.584v-137.993h-36.861v-33.082Z" class="cls-1"/>
      </g>
    </g>
    <g class="cls-2">
      <g class="cls-2">
        <path d="M5223.416 2716.539c0-40.006 8.898-70.649 26.7-91.915 17.797-21.27 43.398-31.901 76.798-31.901 17.642 0 33 2.917 46.078 8.743 13.07 5.83 23.864 14.177 32.371 25.045 8.506 10.872 14.806 23.946 18.904 39.226 4.089 15.285 6.145 32.215 6.145 50.801 0 40.015-8.907 70.653-26.704 91.919-17.801 21.266-43.402 31.901-76.794 31.901-17.65 0-33.008-2.917-46.078-8.743-13.078-5.826-23.864-14.177-32.371-25.045-8.506-10.872-14.815-23.942-18.904-39.226-4.098-15.276-6.145-32.211-6.145-50.805Zm39.227 0c0 11.98 1.181 23.476 3.542 34.499 2.366 11.032 6.063 20.641 11.109 28.828 5.033 8.196 11.652 14.815 19.848 19.848 8.187 5.046 18.111 7.563 29.772 7.563 42.842.319 64.271-29.927 64.271-90.738 0-12.285-1.181-23.937-3.542-34.969-2.366-11.027-6.072-20.632-11.109-28.828-5.042-8.187-11.656-14.724-19.848-19.611-8.196-4.882-18.12-7.326-29.772-7.326-42.85-.31-64.271 29.936-64.271 90.734Z" class="cls-1"/>
      </g>
    </g>
    <g class="cls-2">
      <g class="cls-2">
        <path d="M5597.936 2634.781c-9.454-3.146-18.435-4.723-26.941-4.723-13.548 0-24.265 3.706-32.134 11.105-7.881 7.407-12.759 16.776-14.651 28.117v165.408h-37.809v-236.294h26.467l7.089 28.828h1.892c5.981-10.708 13.152-18.978 21.503-24.812 8.343-5.826 18.978-8.743 31.897-8.743 9.135 0 19.378 1.581 30.72 4.727l-8.032 36.387Z" class="cls-1"/>
      </g>
    </g>
    <g class="cls-2">
      <g class="cls-2">
        <path d="m5732.585 2751.512 13.285 45.367h2.37l10.433-45.841 46.009-152.644h37.809l-69.942 212.193c-5.361 15.44-10.635 30.401-15.832 44.893s-10.95 27.411-17.25 38.752c-6.304 11.346-13.393 20.395-21.266 27.178-7.881 6.77-17.013 10.157-27.411 10.157-11.342 0-20.641-1.577-27.885-4.723l6.619-32.612c4.089 1.573 8.032 2.366 11.816 2.366 8.817 0 17.323-4.654 25.519-13.94 8.187-9.299 14.957-25.286 20.322-47.97l-94.992-236.294h43.475l56.92 153.118Z" class="cls-1"/>
      </g>
    </g>
  </g>
  <g class="cls-2">
    <g class="cls-2">
      <path d="m3004.973 555.54-46.703-87.356h-3.46l8.651 87.356v396.108h-67.46V336.724h38.054l289.73 403.895 44.975 83.029h4.324l-9.515-83.029V346.238h67.46v614.924h-38.054l-288.002-405.623Z" class="cls-1"/>
    </g>
  </g>
  <g class="cls-2">
    <g class="cls-2">
      <path d="M3473.847 346.238h329.514v64h-257.73v206.707h240.433v64h-240.433v270.703h-71.784v-605.41ZM3913.982 346.238c10.945-1.728 23.203-3.025 36.757-3.891 13.539-.866 27.676-1.431 42.379-1.728 14.701-.284 29.106-.569 43.243-.866 14.121-.284 27.243-.431 39.351-.431 48.433 0 90.379 7.498 125.839 22.485 35.46 15 64.715 35.891 87.784 62.703 23.054 26.812 40.215 58.958 51.458 96.431 11.243 37.49 16.866 78.703 16.866 123.678 0 40.946-5.339 80.297-16 118.054-10.678 37.77-27.54 71.218-50.594 100.326-23.069 29.121-53.055 52.473-89.948 70.054-36.906 17.594-81.594 26.376-134.054 26.376-9.23 0-21.19-.147-35.893-.431a1294.21 1294.21 0 0 1-45.404-1.728c-15.569-.866-29.988-1.594-43.245-2.163-13.27-.582-22.783-1.448-28.54-2.594V346.238Zm163.461 57.084h-24.649c-8.946 0-17.73.297-26.379.862a2055.2 2055.2 0 0 0-23.785 1.732c-7.216.582-12.837 1.159-16.864 1.728V891.97c2.876.582 8.351 1.017 16.431 1.297 8.069.297 16.433.582 25.082.866 8.649.297 17 .582 25.082.866 8.067.297 13.542.431 16.433.431 40.351 0 74.23-6.916 101.621-20.757 27.378-13.837 49.297-32.431 65.73-55.782 16.433-23.351 28.109-50.163 35.027-80.435 6.918-30.268 10.379-61.539 10.379-93.837 0-28.242-3.176-56.648-9.513-85.188-6.352-28.54-17.299-54.339-32.866-77.406-15.567-23.054-36.473-41.946-62.703-56.648-26.243-14.703-59.243-22.054-99.027-22.054Z" class="cls-1"/>
    </g>
  </g>
  <g class="cls-2">
    <g class="cls-2">
      <path d="M4466.438 346.238h71.782v605.41h-71.782v-605.41Z" class="cls-1"/>
    </g>
  </g>
  <g class="cls-2">
    <g class="cls-2">
      <path d="M5125.091 765.703h-102.054v185.945h-67.46V765.703h-266.381v-28.544l287.138-400.435h46.703v368.435h102.054v60.544Zm-169.514-249.084 8.649-70.92h-2.594l-30.272 58.812-121.946 165.188-41.515 42.381 60.54-6.921h127.138v-188.54Z" class="cls-1"/>
    </g>
  </g>
  <path d="M5252.219 648.945c0-100.895 22.188-178.598 66.594-233.084 44.389-54.485 107.811-81.732 190.272-81.732 43.243 0 81 7.502 113.297 22.49 32.284 15 59.096 36.322 80.431 64 21.326 27.674 37.193 60.837 47.569 99.46 10.377 38.636 15.569 81.594 15.569 128.866 0 100.904-22.352 178.594-67.029 233.079-44.691 54.49-107.975 81.732-189.837 81.732-43.824 0-81.879-7.502-114.163-22.485-32.297-14.987-58.963-36.326-80-64.004-21.055-27.674-36.757-60.824-47.138-99.46-10.377-38.619-15.565-81.581-15.565-128.862Zm124.54 0c0 30.565 2.594 58.674 7.782 84.322 5.188 25.665 13.109 47.716 23.787 66.163 10.661 18.461 24.351 32.866 41.079 43.243 16.715 10.381 36.606 15.569 59.678 15.569 42.079 0 74.661-16.431 97.728-49.297 23.054-32.866 34.594-86.192 34.594-160 0-29.406-2.456-56.786-7.351-82.163-4.904-25.368-12.54-47.569-22.916-66.594-10.381-19.029-23.933-33.866-40.649-44.544-16.733-10.661-37.193-16-61.406-16-42.096 0-74.678 16.866-97.732 50.594-23.067 33.732-34.594 86.636-34.594 158.707ZM6248.059 487.213c0 15-1.879 29.988-5.623 44.975-3.753 15-9.946 28.686-18.594 41.079-8.649 12.406-19.891 23.351-33.728 32.866-13.837 9.51-30.569 16.582-50.163 21.188v5.188c17.297 2.891 33.732 7.787 49.297 14.703 15.569 6.921 29.109 16.435 40.649 28.54 11.527 12.109 20.611 26.812 27.243 44.109 6.623 17.297 9.95 37.77 9.95 61.406 0 31.138-6.636 58.096-19.895 80.866-13.268 22.783-31 41.381-53.188 55.787-22.201 14.419-47.431 25.079-75.678 32-28.255 6.916-57.377 10.377-87.351 10.377h-37.619c-15.285 0-31.716-.431-49.297-1.297a1177.157 1177.157 0 0 1-53.623-3.891c-18.163-1.732-34.745-4.326-49.732-7.787V350.565c10.95-1.732 23.489-3.46 37.623-5.193 14.121-1.728 29.259-3.159 45.406-4.322 16.134-1.151 32.715-2.012 49.732-2.594 17-.569 33.862-.866 50.594-.866 28.242 0 55.782 2.163 82.594 6.485 26.812 4.326 50.732 11.975 71.782 22.921 21.042 10.958 37.908 26.243 50.598 45.837 12.673 19.611 19.025 44.406 19.025 74.381ZM5992.921 600.51c8.071 0 17.435-.284 28.109-.849 10.665-.569 19.46-1.435 26.381-2.568 21.904-6.839 40.782-17.107 56.648-30.811 15.849-13.69 23.782-31.664 23.782-53.921 0-14.837-2.891-27.096-8.649-36.796-5.77-9.704-13.406-17.405-22.916-23.11-9.515-5.701-20.326-9.687-32.435-11.971-12.109-2.284-24.795-3.434-38.054-3.434-15 0-28.837.297-41.515.866-12.686.569-22.485 1.418-29.406 2.555V600.51h38.054Zm38.921 260.326c14.406 0 28.393-1.702 41.946-5.137 13.539-3.417 25.515-8.7 35.891-15.836 10.381-7.136 18.732-16.121 25.084-26.971 6.339-10.842 9.515-23.692 9.515-38.528 0-18.84-3.758-33.676-11.247-44.514-7.498-10.838-17.297-19.258-29.402-25.256-12.109-6.003-25.665-9.851-40.653-11.57a398.498 398.498 0 0 0-44.971-2.568h-63.138V855.7c2.879 1.151 7.489 2.004 13.841 2.568 6.334.569 13.109 1 20.322 1.284 7.205.297 14.703.582 22.49.866 7.782.284 14.552.418 20.322.418Z" class="cls-1"/>
  <g class="cls-2">
    <g class="cls-2">
      <path d="M6454.07 346.238h118.49v442.816c0 23.067-2.594 44.971-7.782 65.728-5.193 20.757-13.703 39.067-25.515 54.921-11.824 15.866-26.963 28.54-45.406 38.054-18.461 9.515-40.946 14.268-67.46 14.268-16.728 0-34.891-1.728-54.485-5.188-19.611-3.46-36.611-8.351-51.029-14.703l25.946-96.866c14.987 7.502 32 11.247 51.029 11.247 24.213 0 39.636-8.933 46.268-26.812 6.623-17.866 9.946-41.515 9.946-70.92V346.239Z" class="cls-1"/>
    </g>
  </g>
  <g class="cls-2">
    <g class="cls-2">
      <path d="M6696.017 346.238h358.925v105.515h-240.435v140.975h218.812v105.515h-218.812v147.891h244.757v105.515h-363.247V346.238Z" class="cls-1"/>
    </g>
  </g>
  <g class="cls-2">
    <g class="cls-2">
      <path d="M7567.76 926.866c-18.461 13.16-41.946 22.593-70.49 28.307-28.535 5.718-57.808 8.584-87.782 8.584-36.322 0-70.787-5.623-103.351-16.866-32.582-11.243-61.272-29.406-86.054-54.485-24.799-25.084-44.544-57.648-59.247-97.732-14.703-40.067-22.05-88.648-22.05-145.728 0-59.381 8.218-109.108 24.649-149.192 16.431-40.067 37.757-72.351 64-96.866 26.23-24.498 55.489-42.079 87.782-52.757 32.284-10.661 64.569-16 96.866-16 34.598 0 63.853 2.314 87.782 6.921 23.925 4.619 43.678 10.096 59.247 16.431l-23.351 100.326c-13.272-6.339-28.975-10.945-47.134-13.837-18.168-2.879-40.218-4.326-66.163-4.326-47.866 0-86.356 17.056-115.46 51.137-29.121 34.094-43.678 86.959-43.678 158.595 0 31.203 3.46 59.661 10.377 85.365 6.921 25.717 17.435 47.677 31.569 65.866 14.125 18.202 31.707 32.366 52.757 42.471 21.042 10.109 45.406 15.164 73.079 15.164 25.95 0 47.858-2.594 65.732-7.782 17.866-5.193 33.431-11.811 46.703-19.895l24.218 96.302Z" class="cls-1"/>
    </g>
  </g>
  <g class="cls-2">
    <g class="cls-2">
      <path d="M8093.275 451.753H7916.84v499.895h-118.485V451.753h-177.297V346.238h472.217v105.515Z" class="cls-1"/>
    </g>
  </g>
  <g class="cls-2">
    <g class="cls-2">
      <path d="M8422.044 789.054c0-18.448-6.787-33.435-20.326-44.975-13.552-11.527-30.569-22.054-51.025-31.569-20.473-9.51-42.674-19.309-66.598-29.406-23.933-10.079-46.134-22.485-66.594-37.188-20.469-14.703-37.486-33-51.025-54.921-13.552-21.904-20.326-49.862-20.326-83.891 0-29.406 4.895-54.921 14.703-76.54 9.799-21.623 23.787-39.636 41.946-54.054 18.163-14.406 39.636-25.084 64.435-32 24.782-6.921 52.46-10.381 83.025-10.381 35.163 0 68.326 3.029 99.465 9.084 31.13 6.054 56.782 14.849 76.971 26.376l-37.188 99.46c-12.691-8.067-31.716-15.418-57.079-22.054-25.381-6.619-52.762-9.946-82.167-9.946-27.674 0-48.866 5.486-63.569 16.431-14.703 10.963-22.054 25.665-22.054 44.109 0 17.297 6.774 31.72 20.331 43.247 13.539 11.54 30.552 22.201 51.025 32 20.456 9.808 42.661 19.891 66.594 30.268 23.92 10.381 46.121 22.921 66.594 37.623 20.46 14.703 37.477 32.866 51.029 54.485 13.539 21.623 20.326 48.582 20.326 80.866s-5.343 60.109-16.004 83.46c-10.674 23.351-25.661 42.812-44.971 58.381-19.327 15.565-42.678 27.105-70.059 34.594-27.389 7.485-57.51 11.243-90.376 11.243-43.243 0-81.297-4.042-114.163-12.109-32.862-8.067-57.079-16.134-72.648-24.218l38.054-101.188c6.339 3.46 14.556 7.218 24.649 11.243 10.083 4.042 21.473 7.782 34.163 11.243 12.678 3.46 26.079 6.352 40.213 8.649 14.125 2.314 28.678 3.46 43.678 3.46 35.163 0 62.121-5.904 80.866-17.728 18.728-11.811 28.109-29.841 28.109-54.054Z" class="cls-1"/>
    </g>
  </g>
  <path d="M2501.954 1072.627c-109.44-127.76-261.035-199.504-420.436-232.918-.049.037-.096.077-.145.114-34.967-91.312-71.558-182.017-109.874-272.024-54.818-127.967-114.328-261.668-209.239-365.918-111.808-122.581-275.481-125.665-390.981-5.299-168.277 175.401-274.351 426.339-370.001 645.612a253.242 253.242 0 0 0-9.508 25.462c-83.134 29.57-162.607 69.829-235.845 123.874-354.451 261.565-526.154 623.4-497.746 1045.005 27.453 406.88 245 750.793 622.906 899.089 327.91 128.575 740.784 93.955 1039.808-93.912 375.935-236.183 499.19-666.912 440.277-1084.274 100.735-67.911 184.217-157.672 222.964-277.5 47.781-147.688 10.949-290.029-82.181-407.311Zm-221.65 351.461c-.169.217-.364.434-.534.651a7984.379 7984.379 0 0 0-78.804-250.492c124.534 58.626 142.653 178.672 79.338 249.841Zm-290.176 173.646a718.84 718.84 0 0 1-6.742 2.457c-89.394 31.753-196.931 50.115-426.412 78.436-123.058 15.203-294.116 17.896-384.857 15.637-90.741-2.259-105.136-77.104-97.36-125.885 32.438-153.249 92.356-294.371 149.196-439.652 144.267-32.771 270.364-28.391 326.852-27.473 86.449 1.037 200.117 6.782 285.873 18.352 6.932 20.58 13.701 40.702 20.278 60.189 47.058 139.463 92.485 277.24 133.172 417.938ZM1478.873 551.987c45.609-76.493 101.774-94.737 153.421 13.031 6.472 13.509 60.041 150.588 47.4 120.181 15.627 37.586 31.345 77.891 46.941 119.603-118.335-9.406-243.844-14.58-369.222-6.843 40.458-90.092 85.633-185.888 121.459-245.973Zm576.677 1423.232c-1.347 165.323-49.388 349.499-153.726 471.211-125.969 129.965-276.784 212.496-462.48 238.907-259.496 29.624-451.403-14.725-620.245-152.031-150.117-120.649-240.072-335.58-246.291-528.07-6.776-192.602 54.995-390.317 150.558-540.829 30.501-46.376 63.942-86.826 99.349-122.189-7.404 30.447-30.323 107.566-35.195 134.948-26.063 148.817-41.483 332.732 93.565 435.418 75.147 57.12 174.576 69.761 265.577 80.446 93.13 10.99 187.433 11.424 280.998 7.124 209.33-9.6 424.347-38.734 625.41-101.921 1.815 22.422 2.671 47.094 2.48 76.988Z" class="cls-1"/>
</svg>
