<svg xmlns="http://www.w3.org/2000/svg" viewBox="0 0 8125 3200">
  <defs>
    <linearGradient id="Unbenannter_Verlauf_45" x1="1953.656" x2="2177.809" y1="1137.846" y2="1526.091" data-name="Unbenannter Verlauf 45" gradientUnits="userSpaceOnUse">
      <stop offset="0" stop-color="#fff" stop-opacity="0"/>
      <stop offset=".798"/>
    </linearGradient>
    <linearGradient id="Unbenannter_Verlauf_2" x1="1232.825" x2="1232.825" y1="9241.441" y2="8741.174" data-name="Unbenannter Verlauf 2" gradientTransform="matrix(1 0 0 -1 0 9918)" gradientUnits="userSpaceOnUse">
      <stop offset="0" stop-color="#fff" stop-opacity="0"/>
      <stop offset=".4"/>
    </linearGradient>
    <linearGradient id="Unbenannter_Verlauf_31" x1="1098.996" x2="935.819" y1="1551.033" y2="1268.401" data-name="Unbenannter Verlauf 31" gradientUnits="userSpaceOnUse">
      <stop offset=".149" stop-color="#fff" stop-opacity="0"/>
      <stop offset=".836"/>
    </linearGradient>
    <linearGradient id="Unbenannter_Verlauf_17" x1="2076.379" x2="2364.539" y1="3643.123" y2="3643.123" data-name="Unbenannter Verlauf 17" gradientTransform="translate(0 -2504)" gradientUnits="userSpaceOnUse">
      <stop offset="0" stop-color="#fff" stop-opacity="0"/>
      <stop offset=".572"/>
    </linearGradient>
    <linearGradient id="Unbenannter_Verlauf_53" x1="1436.554" x2="1761.381" y1="1039.584" y2="921.357" data-name="Unbenannter Verlauf 53" gradientUnits="userSpaceOnUse">
      <stop offset=".398" stop-color="#fff" stop-opacity="0"/>
      <stop offset=".964"/>
    </linearGradient>
    <linearGradient id="Unbenannter_Verlauf_33" x1="2218.705" x2="2136.198" y1="2260.042" y2="1792.122" data-name="Unbenannter Verlauf 33" gradientUnits="userSpaceOnUse">
      <stop offset=".065" stop-color="#fff" stop-opacity="0"/>
      <stop offset=".697"/>
    </linearGradient>
    <style>
      .cls-1{fill:#000;opacity:.3;mix-blend-mode:multiply;isolation:isolate;stroke-width:0}.cls-9{stroke-width:0;fill:#fff}
    </style>
  </defs>
  <g style="isolation:isolate">
    <g id="Ebene_1" data-name="Ebene 1">
      <path d="m3067.571 745.748-73.495-137.467h-5.445l13.611 137.467v623.353H2896.08V401.4h59.885l455.951 635.606 70.775 130.663h6.805l-14.971-130.663V416.369h106.161v967.702H3520.8l-453.229-638.323zM3820.215 416.369h518.56v100.716h-405.597v325.292h378.374v100.716h-378.374v426.008h-112.963V416.369zM5203.712 691.303c-17.694-58.973-44.701-109.563-80.982-151.755-36.302-42.192-82.345-75.072-138.148-98.681-55.799-23.584-121.812-35.38-198.03-35.38-19.057 0-39.704.233-61.926.673-22.247.473-44.917.922-68.052 1.362-23.14.474-45.386 1.363-66.694 2.725-21.329 1.362-40.618 3.406-57.843 6.122v954.094c9.059 1.811 24.029 3.173 44.913 4.087 20.864.889 43.555 2.035 68.052 3.398a2018.146 2018.146 0 0 0 71.454 2.725c23.14.449 41.959.681 56.485.681 82.557 0 152.885-13.823 210.964-41.511 58.055-27.671 105.244-64.422 141.546-110.244 36.281-45.814 62.823-98.448 79.624-157.886 16.776-59.413 25.179-121.343 25.179-185.781 0-70.777-8.848-135.639-26.542-194.628Zm-109.563 342.305c-10.891 47.633-29.262 89.825-55.122 126.576-25.86 36.742-60.355 66.009-103.441 87.782-43.105 21.781-96.421 32.672-159.921 32.672-4.552 0-13.167-.216-25.86-.681-12.718-.449-25.86-.897-39.471-1.362-13.611-.449-26.774-.897-39.472-1.363-12.718-.448-21.329-1.13-25.86-2.043V513.007c6.338-.897 15.186-1.811 26.542-2.725a3351.01 3351.01 0 0 1 37.428-2.716 630.783 630.783 0 0 1 41.511-1.362h38.79c62.611 0 114.543 11.563 155.842 34.707 41.278 23.135 74.175 52.867 98.673 89.144 24.502 36.302 41.727 76.899 51.72 121.816 9.977 44.917 14.974 89.618 14.974 134.061 0 50.823-5.445 100.035-16.332 147.677ZM5456.175 416.369h112.965v952.732h-112.965zM6619.3 980.91V401.103h-73.5l-451.864 630.165v44.917h419.2v292.62H6619.3v-292.62h160.603V980.91H6619.3Zm-106.163-296.707V980.91h-200.074l-95.275 10.891 65.332-66.698 191.908-259.956 47.637-92.55h4.083l-13.611 111.607ZM3605.626 2102.009c-16.128-60.019-40.782-111.557-73.921-154.563-33.16-43.006-74.825-76.152-124.996-99.462-50.19-23.285-108.865-34.94-176.068-34.94-128.144 0-226.7 42.333-295.687 127.008-69.008 84.675-103.49 205.428-103.49 362.217 0 73.485 8.064 140.241 24.192 200.261 16.128 60.044 40.533 111.557 73.25 154.563 32.697 43.006 74.131 76.168 124.323 99.462 50.171 23.285 109.308 34.94 177.412 34.94 127.222 0 225.566-42.333 295.016-127.008 69.427-84.675 104.161-205.403 104.161-362.217 0-73.46-8.064-140.217-24.193-200.261Zm-223.109 448.91c-35.847 51.072-86.479 76.609-151.875 76.609-35.848 0-66.761-8.066-92.737-24.199-25.999-16.124-47.272-38.512-63.843-67.197-16.59-28.668-28.896-62.943-36.961-102.818-8.064-39.858-12.095-83.545-12.095-131.045 0-111.997 17.912-194.213 53.76-246.631 35.827-52.418 86.459-78.627 151.876-78.627 37.633 0 69.429 8.299 95.426 24.872 25.979 16.589 47.042 39.642 63.17 69.215 16.128 29.565 27.993 64.073 35.617 103.491 7.603 39.434 11.425 81.983 11.425 127.681 0 114.705-17.935 197.569-53.762 248.65ZM4363.868 2412.481c-10.313-26.882-24.423-49.727-42.338-68.542-17.935-18.816-38.977-33.602-63.171-44.36-24.19-10.75-49.727-18.35-76.609-22.845v-8.066c30.45-7.161 56.451-18.143 77.955-32.93 21.503-14.778 38.977-31.792 52.418-51.072 13.441-19.256 23.057-40.531 28.896-63.841 5.815-23.285 8.735-46.578 8.735-69.888 0-46.578-9.869-85.115-29.569-115.586-19.717-30.454-45.926-54.204-78.623-71.234-32.722-17.013-69.892-28.901-111.557-35.621-41.665-6.72-84.463-10.077-128.354-10.077-25.997 0-52.207.465-78.627 1.346-26.438.897-52.206 2.243-77.281 4.029-25.096 1.803-48.615 4.029-70.561 6.721-21.966 2.691-41.455 5.375-58.466 8.066v927.378c23.289 5.375 49.058 9.412 77.281 12.095 28.226 2.692 55.986 4.71 83.329 6.048 27.322 1.346 52.858 2.019 76.613 2.019h58.466c46.578 0 91.831-5.375 135.747-16.124 43.891-10.758 83.096-27.322 117.6-49.735 34.483-22.379 62.038-51.28 82.661-86.685 20.598-35.388 30.911-77.281 30.911-125.671 0-36.726-5.167-68.542-15.455-95.424Zm-469.741-434.183c10.754-1.769 25.977-3.09 45.698-3.971 19.7-.881 41.204-1.346 64.513-1.346 20.602 0 40.323 1.786 59.139 5.333 18.816 3.547 35.617 9.744 50.4 18.608 14.787 8.864 26.649 20.834 35.617 35.912 8.947 15.078 13.441 34.126 13.441 57.187 0 34.583-12.328 62.511-36.963 83.786-24.651 21.3-53.992 37.258-88.031 47.882-10.754 1.761-24.427 3.107-40.996 3.988-16.589.889-31.144 1.329-43.679 1.329h-59.139v-248.708Zm279.561 578.752c-9.873 16.864-22.849 30.828-38.977 41.918-16.128 11.082-34.736 19.298-55.779 24.606-21.063 5.341-42.799 7.983-65.186 7.983-8.968 0-19.489-.208-31.584-.648-12.095-.44-23.75-.881-34.944-1.346-11.215-.44-21.736-1.113-31.588-1.994-9.869-.881-17.03-2.21-21.503-3.996v-256.791h98.116c23.289 0 46.578 1.346 69.888 3.987 23.289 2.667 44.352 8.656 63.172 17.977 18.816 9.329 34.039 22.413 45.694 39.251 11.634 16.847 17.474 39.899 17.474 69.174 0 23.061-4.935 43.031-14.783 59.878ZM4628.512 1831.86h184.132V2520c0 35.854-4.033 69.896-12.099 102.153-8.062 32.257-21.295 60.709-39.646 85.339-18.375 24.656-41.897 44.352-70.565 59.139-28.685 14.787-63.629 22.18-104.832 22.18-26.001 0-54.225-2.692-84.675-8.066-30.471-5.375-56.892-12.976-79.296-22.845l40.319-150.534c23.289 11.655 49.731 17.47 79.3 17.47 37.631 0 61.593-13.881 71.903-41.66 10.293-27.763 15.46-64.513 15.46-110.211V1831.86ZM4975.174 1831.86h557.772v163.967h-373.64v219.084h340.042v163.967h-340.042v229.834h380.36v163.967h-564.492V1831.86zM6289.999 2734.167c-28.689 20.452-65.186 35.114-109.538 43.995-44.352 8.88-89.842 13.333-136.42 13.333-56.451 0-109.999-8.731-160.611-26.209-50.632-17.47-95.217-45.698-133.733-84.675-38.537-38.969-69.215-89.584-92.064-151.872-22.849-62.27-34.275-137.766-34.275-226.47 0-92.276 12.768-169.557 38.304-231.845 25.536-62.27 58.678-112.437 99.462-150.534 40.759-38.072 86.224-65.394 136.416-81.983 50.171-16.573 100.342-24.863 150.534-24.863 53.76 0 99.225 3.589 136.42 10.749 37.17 7.186 67.874 15.692 92.064 25.536l-36.29 155.909c-20.623-9.852-45.025-17.013-73.248-21.507-28.224-4.469-62.499-6.72-102.818-6.72-74.386 0-134.194 26.508-179.431 79.466-45.253 52.983-67.874 135.141-67.874 246.465 0 48.489 5.379 92.716 16.128 132.657 10.754 39.966 27.094 74.092 49.058 102.361 21.948 28.286 49.266 50.292 81.988 66 32.697 15.709 70.561 23.567 113.571 23.567 40.319 0 74.362-4.037 102.145-12.095 27.763-8.066 51.957-18.359 72.58-30.919l37.631 149.654ZM7079.899 1995.827h-274.182v776.852h-184.134v-776.852h-275.528V1831.86h733.844v163.967zM7574.282 2520c0-28.66-10.542-51.953-31.584-69.888-21.063-17.91-47.5-34.275-79.296-49.054-31.816-14.787-66.32-30.014-103.491-45.698-37.191-15.667-71.695-34.948-103.491-57.793-31.816-22.853-58.258-51.288-79.3-85.348-21.063-34.043-31.584-77.489-31.584-130.373 0-45.698 7.601-85.348 22.849-118.942 15.227-33.602 36.963-61.598 65.186-84.002 28.224-22.388 61.593-38.977 100.13-49.735 38.516-10.749 81.522-16.124 129.027-16.124 54.645 0 106.178 4.702 154.563 14.114 48.385 9.404 88.243 23.077 119.619 40.988l-57.793 154.563c-19.721-12.536-49.286-23.958-88.708-34.267-39.438-10.293-81.983-15.46-127.681-15.46-43.01 0-75.94 8.523-98.785 25.536-22.849 17.03-34.275 39.883-34.275 68.542 0 26.882 10.521 49.295 31.584 67.205 21.042 17.935 47.484 34.508 79.3 49.727 31.796 15.252 66.299 30.919 103.491 47.043 37.17 16.133 71.674 35.621 103.491 58.466 31.796 22.845 58.233 51.072 79.296 84.675 21.042 33.602 31.584 75.495 31.584 125.662s-8.295 93.414-24.863 129.7c-16.589 36.294-39.879 66.532-69.888 90.723-30.03 24.199-66.32 42.134-108.87 53.764-42.566 11.638-89.377 17.47-140.449 17.47-67.201 0-126.339-6.28-177.412-18.816-51.072-12.536-88.708-25.071-112.898-37.631l59.135-157.255c9.852 5.383 22.62 11.215 38.308 17.478 15.663 6.28 33.37 12.095 53.087 17.47 19.7 5.375 40.531 9.869 62.499 13.441 21.943 3.589 44.564 5.375 67.874 5.375 54.645 0 96.538-9.179 125.667-27.555 29.108-18.351 43.679-46.362 43.679-84.002ZM1489.564 581.5c41.462-77.001 108.169-85.466 149.348 12.692.063.129.141.301.234.513 9.355 21.326 171.39 457.243 199.038 540.187-.065-.009 13.084 39.467 19.462 58.385 43.496 129.139 85.635 256.675 123.874 386.658 153.571-5.174 252.57-68.173 282.285-163.691-66.001-215.772-116.348-366.39-187.003-554.238l.076.021a7784.673 7784.673 0 0 0-107.116-264.873c-53.308-124.809-111.271-254.696-203.926-356.236-108.732-119.309-268.234-122.271-380.774-5.077-162.44 169.576-282.399 448.659-375.174 661.692l-.379.858c61.629-14.479 116.106-27.813 174.122-39.922 62.576-13.06 123.259-24.116 187.175-35.842l.44-.957c40.144-89.188 82.848-179.956 118.317-240.17Z" class="cls-9"/>
      <path d="M2166.86 1113.299c31.484 92.852 62.023 188.779 96.945 302.946-20.716 68.518-94.403 155.142-282.285 163.691-38.239-129.984-80.378-257.519-123.874-386.658l309.215-79.978Z" style="fill:url(#Unbenannter_Verlauf_45);opacity:.4;stroke-width:0;isolation:isolate;mix-blend-mode:multiply"/>
      <path d="M1111.328 671.194c-37.352 78.855-70.996 156.376-101.819 227.197 1.18-.4 82.668-20.38 170.059-38.978 74.98-15.956 154.278-30.337 191.238-36.786.606-1.324 56.834-126.493 85.334-179.78-68.962 5.077-282.196 21.577-344.812 28.77v-.423Z" style="opacity:.4;fill:url(#Unbenannter_Verlauf_2);stroke-width:0;isolation:isolate;mix-blend-mode:multiply"/>
      <path d="M1866.673 381.745c-12.641-21.801-26.081-43.427-40.094-63.859-18.568-27.013-38.672-52.739-60.742-76.967-13.673-14.95-28.075-28.212-43.185-39.469-17.147-12.775-34.812-23.184-53.116-31.255-32.619-14.385-66.882-21.211-101.082-20.471-26.411.571-52.855 5.63-78.537 15.303-20.386 7.679-40.356 18.198-59.441 31.615-15.793 11.103-30.962 24.205-45.414 39.201-42.731 44.847-82.924 96.886-120.155 154.002 255.965-271.196 396.577-235.224 611.08 8.471-3.017-5.646-5.93-10.647-9.315-16.57Z" class="cls-1"/>
      <path d="M2468.577 1077.356h-.423c-100.271-125.656-237.772-174.31-391.351-215.349 70.655 187.849 121.002 338.466 187.003 554.238-58.809 75.732-233.965 146.81-302.081 170.925-87.155 30.885-172.618 64.309-396.005 91.809-119.732 14.808-286.427 17.346-374.851 15.231-88.424-2.115-99.847-73.193-92.232-120.579 31.03-147.183 87.411-287.301 142.371-426.945h-.001c-36.512-7.807-210.332 23.791-390.481 210.982-2.272 7.815-5.738 18.99-8.276 27.692-9.308 34.27-22 78.27-25.385 97.732-25.385 145.117-40.616 324.081 90.963 423.929 73.193 55.424 170.079 68.116 258.503 78.27 90.54 10.577 182.349 11 273.734 6.769 203.36-9.301 413.056-38.039 608.825-99.297l.019-.007c111.019-31.026 233.786-90.17 302.537-139.693 91.003-63.736 164.752-147.583 201.326-261.087 46.539-143.848 6.346-300.389-84.194-414.621Z" class="cls-9"/>
      <path d="M1118.699 1491.134c32.165-117.477 77.704-231.118 122.307-344.447h-.001c-2.023-.476-7.757-1.288-16.411-1.006-39.296 1.281-146.781 22.694-279.359 126.241-30.699 23.977-61.714 52.167-94.712 85.747-2.272 7.815-5.738 18.99-8.276 27.692-9.308 34.27-22 78.27-25.385 97.732-10.837 61.95-19.823 130.068-16.327 195.566 4.693 87.931 310.695-160.246 318.164-187.524Z" style="fill:url(#Unbenannter_Verlauf_31);opacity:.4;stroke-width:0;isolation:isolate;mix-blend-mode:multiply"/>
      <path d="M2169.034 888.658c-35.962-11.846-74.886-22-92.232-26.654.423 1.269 14.808 39.347 35.116 94.77 8.039 22.423 17.346 48.231 27.077 75.732 13.962 38.924 27.923 81.232 42.308 123.963 4.654 14.385 9.731 28.77 14.385 43.577 4.654 14.808 4.231 12.692 5.923 18.616 24.539 75.732 46.962 147.656 62.193 197.58 97.309-110.425 162.887-333.389 11.423-486.545 0 0-18.915-8.975-42.335-18.091-20.856-8.365-45.227-17.142-63.859-22.948Z" style="fill:url(#Unbenannter_Verlauf_17);opacity:.4;stroke-width:0;isolation:isolate;mix-blend-mode:multiply"/>
      <path d="M2349.304 1754.546c-2.753 1.852-20.008 13.443-30.498 20.047-11.423 7.193-29.193 17.346-32.154 19.039-2.962 1.692-6.769 3.808-14.808 8.039-11 5.923-25.385 13.539-31.308 16.077-3.808 2.115-30.885 14.808-38.077 17.77-8.039 3.385-40.193 17.769-76.155 30.885-32.578 11.846-77.001 26.231-77.001 26.231l-.414.127c1.686 21.966 2.528 46.045 2.106 75.182-1.269 161.194-48.231 340.582-149.771 459.045-122.694 126.502-269.504 206.888-450.583 232.695-252.58 28.77-439.583-14.385-604.162-148.079-146.387-117.617-233.965-327.043-239.888-514.469-6.769-187.426 53.731-380.351 146.81-526.738 30.462-42.308 63.039-79.116 96.463-112.117 185.182-172.485 388.434-210.904 389.609-211.239.804-.186 2.089-.488 2.127-.497 140.545-34.061 262.034-30.687 317.774-29.42 84.193.846 195.041 6.769 278.812 17.77-14.367-43.1-65.019-181.506-111.681-307.527-116.707-9.245-235.941-13.966-355.361-5.463-34.037 2.424-68.089 5.922-102.101 10.697l-.073.01a1371.37 1371.37 0 0 0-22.551 3.357l-.187.03a1336.063 1336.063 0 0 0-22.436 3.73l-.258.045a1297.985 1297.985 0 0 0-22.369 4.123l-.272.053a1263.012 1263.012 0 0 0-22.331 4.532l-.286.061a1240.966 1240.966 0 0 0-22.556 5.016 1204.764 1204.764 0 0 0-22.358 5.417l-.178.045a1186.123 1186.123 0 0 0-22.419 5.896l-.055.015c-33.76 9.236-67.397 20.062-100.856 32.68-75.02 28.292-149.145 65.585-221.762 114.165-345.235 254.696-514.469 605.008-486.968 1015.822 26.654 396.428 238.619 731.087 606.7 875.781 319.427 125.232 721.356 91.386 1012.86-91.386 366.734-230.108 486.493-650.522 428.619-1057.446Z" class="cls-9"/>
      <path d="M1371.142 821.902c11.954-.816 32.714-2.013 54.127-2.944 27.501-1.011 55.819-1.47 66.999-1.482 34.316-.81 163.393 3.29 234.235 9.89 46.662 126.021 97.314 264.427 111.681 307.527-83.77-11-194.618-16.923-278.812-17.77 0 0-189.095-140.989-188.23-295.22Z" style="fill:url(#Unbenannter_Verlauf_53);opacity:.4;stroke-width:0;isolation:isolate;mix-blend-mode:multiply"/>
      <path d="M2327.928 2240.783c39.149-155.328 44.751-321.883 21.376-486.238-2.753 1.852-20.008 13.443-30.498 20.047-11.423 7.193-29.193 17.346-32.154 19.039-2.962 1.692-6.769 3.808-14.808 8.039-11 5.923-25.385 13.539-31.308 16.077-3.808 2.115-30.885 14.808-38.077 17.77-8.039 3.385-40.193 17.769-76.155 30.885-32.578 11.846-77.001 26.231-77.001 26.231l-.414.127c1.686 21.966 2.528 46.045 2.106 75.182-.753 95.695-17.611 197.803-52.431 289.768l329.365-16.926Z" style="fill:url(#Unbenannter_Verlauf_33);opacity:.4;stroke-width:0;isolation:isolate;mix-blend-mode:multiply"/>
      <path d="M1292.903 1993.97c-341.344-43.642-486.472-169.464-475.774-512.364l-.186 1.023-.553 3.159c-.726 4.225-1.472 8.471-2.179 12.753a1630.99 1630.99 0 0 0-2.812 17.614c-.288 1.873-.557 3.75-.839 5.631-10.939 73.03-16.895 151.818-1.483 223.511 6.835 31.798 17.551 61.852 34.082 89.603 2.199 3.481 4.421 7.062 6.714 10.555 14.765 22.493 33.615 42.861 57.083 60.883 24.446 18.511 51.328 32.485 79.86 42.988 57.376 21.12 120.221 29.447 178.724 35.852 42.989 5.055 84.888 7.708 127.363 8.793Z" class="cls-1"/>
    </g>
  </g>
</svg>
