<svg xmlns="http://www.w3.org/2000/svg" id="workflow_pipelines" data-name="workflow pipelines" viewBox="0 0 400 400">
  <defs>
    <style>
      .cls-2{fill:#13294b}
    </style>
  </defs>
  <path d="M202.765 255.953c48.59 0 87.979-39.39 87.979-87.979s-39.389-87.98-87.979-87.98-87.979 39.39-87.979 87.98 39.389 87.979 87.979 87.979" style="fill:#fff"/>
  <path d="m148.013 283.851-2.699 10.666-.421 2.694h-.023l-.397-2.648-3.312-10.712h-.914l-3.289 10.666-.388 2.694h-.023l-.365-2.648-2.878-10.712h-2.01l4.568 16.238h1.051l3.243-10.689.411-2.444h.115l.411 2.422 3.243 10.711h1.05l4.454-16.238h-1.827zM164.286 285.849a5.501 5.501 0 0 0-2.044-1.679c-.822-.396-1.796-.594-2.923-.594-2.086 0-3.692.712-4.819 2.136-1.127 1.424-1.69 3.468-1.69 6.132 0 1.249.129 2.38.389 3.392.258 1.014.658 1.881 1.199 2.604a5.522 5.522 0 0 0 2.033 1.679c.814.396 1.778.594 2.889.594 2.102 0 3.719-.712 4.854-2.136s1.702-3.468 1.702-6.133c0-1.248-.13-2.379-.389-3.392-.259-1.012-.659-1.88-1.199-2.604Zm-1.634 10.963c-.807 1.073-1.918 1.61-3.334 1.61-.776 0-1.45-.179-2.021-.537-.571-.357-1.04-.837-1.405-1.438s-.636-1.298-.811-2.09a11.62 11.62 0 0 1-.262-2.513c0-2.238.399-3.894 1.199-4.967.799-1.074 1.899-1.61 3.3-1.61.792 0 1.473.179 2.044.536a4.428 4.428 0 0 1 1.416 1.439c.373.602.647 1.302.822 2.101.175.8.262 1.634.262 2.501 0 2.238-.403 3.895-1.21 4.968ZM176.744 292.666c1.05-.259 1.918-.776 2.604-1.553s1.028-1.789 1.028-3.038c0-.807-.145-1.491-.434-2.055s-.674-1.021-1.153-1.371a4.632 4.632 0 0 0-1.667-.753 8.521 8.521 0 0 0-1.999-.229c-.625 0-1.313.03-2.067.091-.754.062-1.42.146-1.999.252v15.827h1.896v-7.24l2.238.343 4.408 6.897h2.215l-3.974-6.326-1.096-.846Zm-2.01-1.324h-1.782v-5.893c.106-.03.248-.054.423-.068.175-.016.361-.03.56-.046.197-.015.403-.022.616-.022h.617c1.005 0 1.789.267 2.353.799.563.533.845 1.211.845 2.033 0 1.096-.343 1.903-1.028 2.421s-1.553.776-2.604.776ZM190.79 291.479l.959-.754 5.345-6.874h-2.193l-5.367 7.126-1.028.319v-7.445h-1.896v15.987h1.896v-7.4h1.073l5.824 7.4h2.399l-5.848-7.445-1.164-.914zM202.506 299.838h1.895v-7.148h6.35v-1.691h-6.35v-5.459h6.807v-1.689h-8.702v15.987zM216.278 283.851v15.987h9.455v-1.69h-7.559v-14.297h-1.896zM239.22 297.977c1.135-1.424 1.702-3.468 1.702-6.133 0-1.248-.13-2.379-.389-3.392-.259-1.012-.659-1.88-1.199-2.604a5.493 5.493 0 0 0-2.044-1.679c-.822-.396-1.797-.594-2.924-.594-2.086 0-3.692.712-4.818 2.136-1.127 1.424-1.69 3.468-1.69 6.132 0 1.249.129 2.38.389 3.392.258 1.014.658 1.881 1.198 2.604a5.53 5.53 0 0 0 2.033 1.679c.814.396 1.777.594 2.889.594 2.102 0 3.72-.712 4.854-2.136Zm-4.854.445c-.776 0-1.45-.179-2.021-.537-.571-.357-1.04-.837-1.405-1.438s-.636-1.298-.811-2.09-.263-1.629-.263-2.513c0-2.238.399-3.894 1.199-4.967.799-1.074 1.899-1.61 3.3-1.61.792 0 1.474.179 2.045.536.57.358 1.042.838 1.416 1.439.372.602.646 1.302.822 2.101.175.8.262 1.634.262 2.501 0 2.238-.403 3.895-1.21 4.968-.808 1.073-1.919 1.61-3.335 1.61ZM257.91 294.517l-.421 2.694h-.023l-.398-2.648-3.311-10.712h-.913l-3.289 10.666-.389 2.694h-.023l-.365-2.648-2.878-10.712h-2.009l4.567 16.238h1.051l3.243-10.689.411-2.444h.114l.411 2.422 3.244 10.711h1.05l4.453-16.238h-1.827l-2.698 10.666zM273.639 292.062c-.571-.403-1.191-.758-1.861-1.062s-1.291-.612-1.861-.925a5.862 5.862 0 0 1-1.428-1.062c-.381-.396-.571-.891-.571-1.484 0-.608.252-1.138.754-1.587.503-.449 1.256-.674 2.261-.674.853 0 1.618.079 2.296.235.677.157 1.191.322 1.542.495l.57-1.689c-.426-.214-1.021-.389-1.781-.525a14.271 14.271 0 0 0-2.535-.206c-1.599 0-2.832.365-3.7 1.097-.867.73-1.302 1.721-1.302 2.969 0 .884.19 1.61.571 2.182.38.57.856 1.05 1.428 1.438.57.389 1.19.72 1.861.993.67.274 1.29.567 1.861.88a5.71 5.71 0 0 1 1.427 1.073c.381.403.571.925.571 1.564 0 .457-.095.853-.285 1.188s-.445.613-.766.834a3.2 3.2 0 0 1-1.142.479c-.441.1-.914.148-1.416.148-.853 0-1.622-.093-2.307-.278-.686-.185-1.203-.374-1.554-.566l-.639 1.689c.411.214.989.408 1.735.583s1.69.263 2.832.263c.853 0 1.614-.107 2.284-.32s1.24-.518 1.713-.913a3.898 3.898 0 0 0 1.073-1.416c.243-.549.365-1.165.365-1.851 0-.837-.19-1.537-.57-2.101a5.605 5.605 0 0 0-1.428-1.45ZM154.671 313.811a5.817 5.817 0 0 0-1.976-.754 11.452 11.452 0 0 0-2.135-.205c-.655 0-1.317.022-1.987.068s-1.294.137-1.873.274v15.827h1.896v-6.075c.076.016.206.03.388.046a14.042 14.042 0 0 0 1.108.045h.377c.792 0 1.561-.091 2.307-.273.746-.183 1.408-.483 1.987-.902s1.043-.963 1.394-1.633c.35-.67.525-1.492.525-2.467 0-.989-.187-1.805-.559-2.443a4.245 4.245 0 0 0-1.451-1.508Zm-.377 5.756c-.251.472-.583.837-.994 1.096s-.872.438-1.382.537a8.073 8.073 0 0 1-1.542.148h-.366c-.167 0-.342-.004-.525-.012l-.525-.022a1.172 1.172 0 0 1-.366-.058v-6.623a3.85 3.85 0 0 1 .868-.114c.365-.015.746-.022 1.142-.022.487 0 .975.053 1.462.159.487.107.925.286 1.313.537.388.251.7.586.936 1.005.236.419.354.94.354 1.564 0 .73-.125 1.333-.376 1.805ZM161.865 313.034h1.896v15.987h-1.896zM178.012 313.811a5.817 5.817 0 0 0-1.976-.754 11.452 11.452 0 0 0-2.135-.205c-.655 0-1.317.022-1.987.068s-1.294.137-1.873.274v15.827h1.896v-6.075c.076.016.206.03.388.046a14.042 14.042 0 0 0 1.108.045h.377c.792 0 1.561-.091 2.307-.273.746-.183 1.408-.483 1.987-.902s1.043-.963 1.394-1.633c.35-.67.525-1.492.525-2.467 0-.989-.187-1.805-.559-2.443a4.245 4.245 0 0 0-1.451-1.508Zm-.376 5.756c-.251.472-.583.837-.994 1.096s-.872.438-1.382.537a8.073 8.073 0 0 1-1.542.148h-.366c-.167 0-.342-.004-.525-.012l-.525-.022a1.172 1.172 0 0 1-.366-.058v-6.623a3.85 3.85 0 0 1 .868-.114c.365-.015.746-.022 1.142-.022.487 0 .975.053 1.462.159.487.107.925.286 1.313.537.388.251.7.586.936 1.005.236.419.354.94.354 1.564 0 .73-.125 1.333-.376 1.805ZM186.668 321.645h6.235v-1.691h-6.235v-5.23h6.806v-1.69h-8.702v15.988h8.816v-1.691h-6.92v-5.686zM200.874 313.034h-1.896v15.988h9.456v-1.691h-7.56v-14.297zM213.161 313.034h1.896v15.987h-1.896zM231.044 323.448l.252 2.194h-.114l-1.188-2.194-7.651-10.665h-1.005v16.239h1.781v-10.46l-.228-2.308h.091l1.234 2.308 7.605 10.711h1.005v-16.239h-1.782v10.414zM240.567 321.645h6.236v-1.691h-6.236v-5.23h6.807v-1.69h-8.702v15.988h8.816v-1.691h-6.921v-5.686zM259.992 321.245c-.57-.403-1.191-.758-1.861-1.062s-1.29-.612-1.861-.925a5.856 5.856 0 0 1-1.427-1.062c-.381-.396-.571-.891-.571-1.484 0-.608.251-1.138.754-1.587.502-.449 1.256-.674 2.261-.674.853 0 1.617.079 2.295.235.678.157 1.191.322 1.542.495l.571-1.689c-.427-.214-1.021-.389-1.781-.525a14.28 14.28 0 0 0-2.535-.206c-1.6 0-2.833.365-3.7 1.097-.868.73-1.302 1.721-1.302 2.969 0 .884.189 1.61.57 2.182.381.57.856 1.05 1.428 1.438s1.191.72 1.861.993c.67.274 1.291.567 1.861.88.571.312 1.047.67 1.428 1.073.38.403.571.925.571 1.564 0 .457-.096.853-.286 1.188s-.445.613-.765.834c-.32.221-.701.381-1.143.479-.441.1-.913.148-1.416.148-.853 0-1.621-.093-2.307-.278-.685-.185-1.203-.374-1.553-.566l-.64 1.689c.411.214.989.408 1.736.583.745.175 1.689.263 2.832.263.853 0 1.613-.107 2.283-.32s1.241-.518 1.713-.913a3.9 3.9 0 0 0 1.074-1.416c.243-.549.365-1.165.365-1.851 0-.837-.19-1.537-.571-2.101s-.856-1.047-1.428-1.45ZM293.129 152.353v-7.126a.778.778 0 0 0 .045-.543c-.009-.031-.031-.054-.044-.083l.007-37.384-28.453-18.651a.792.792 0 0 0-.832-.018l-27.237 8.046a.788.788 0 0 0-.613.762l-.006 17.3h-65.261l-.006-17.289a.789.789 0 0 0-.61-.761l-27.273-8.06a.79.79 0 0 0-.798.032l-28.454 18.651.008 37.39c-.012.029-.034.051-.043.081a.786.786 0 0 0 .043.54l.002 7.128c-.003.01-.011.017-.014.027a.777.777 0 0 0 .014.451l.002 8.224 28.127 8.232c.014.006.03.008.044.013l.409.12 28.563-18.808-.013-34.371h31.528v14.415c-.27.01-.536.023-.801.037-.761.039-1.321.543-1.502 1.35-.25.981-.581 2.603-.747 3.662-1.142.301-3.109 1.132-4.56 1.931l-.01.005a.188.188 0 0 1-.063-.032l-.085-.057c-.625-.358-1.829-1.186-2.719-1.867a1.364 1.364 0 0 0-.952-.443c-.469-.028-.959.187-1.306.557-.476.471-1.656 1.55-2.629 2.404l-.113.122c-.453.606-.485 1.515-.072 2.117q.643.933 1.458 2.078c.273.382.455.721.541.918-.791 1.483-1.609 3.312-1.909 4.277l-.046.149a.77.77 0 0 1-.247.075c-.627.126-2.002.409-3.107.639-.434.014-.85.188-1.155.486a1.635 1.635 0 0 0-.496 1.192c0 .688.024 2.178.055 3.359-.084.794.522 1.573 1.429 1.824.739.29 2.19.62 3.409.778.302 1.252 1.176 3.319 2.054 4.841a.582.582 0 0 1-.018.083 84.286 84.286 0 0 0-1.922 2.717 1.29 1.29 0 0 0-.385.854c-.026.428.149.863.477 1.187.648.654 1.981 1.984 3.012 3.003.501.442 1.284.449 1.745.073.693-.433 2.03-1.393 2.979-2.139l.051-.04a.21.21 0 0 1 .102.03l.09.045c1.684.724 3.742 1.573 4.24 1.72l.109.032a.362.362 0 0 1 .035.118c.091.66.251 1.736.366 2.452-.027.816.214 1.555.67 2.037a1.62 1.62 0 0 0 1.181.532c.269 0 .553.002.845.004v6.304a.778.778 0 0 0-.402.087l-27.269 8.059a.789.789 0 0 0-.61.761l-.02 53.259 28.563 18.808.394-.115c.021-.007.042-.009.062-.018l28.123-8.232.002-8.232a.777.777 0 0 0 .014-.451c-.003-.01-.01-.016-.014-.026l.002-7.122a.786.786 0 0 0 .043-.542c-.009-.031-.031-.053-.043-.082l.008-37.389-27.254-17.86v-7.191c.38.004.753.007 1.1.007h.062l.062-.01c.923-.146 1.492-1.297 1.613-2.216.162-.636.433-1.89.632-2.929a.943.943 0 0 1 .303-.149c.373-.149 3.653-1.461 3.98-1.657l.07-.042c.034.021.075.05.119.089l.097.073c1.298.833 2.533 1.696 2.934 2.023.202.214.475.342.777.362.38.029.76-.125 1.076-.437.596-.642 1.858-1.928 2.841-2.895a1.22 1.22 0 0 0 .479-.761 1.47 1.47 0 0 0-.269-1.148 97.252 97.252 0 0 0-2.005-2.882c-.024-.043-.027-.164-.009-.195.615-.955 1.421-2.932 1.871-4.578.112-.09.337-.211.552-.241 1.011-.175 2.602-.472 3.104-.614.569-.105 1.03-.663 1.098-1.406.015-1.5.048-3.234.076-3.954a1.268 1.268 0 0 0-.19-.941 1.534 1.534 0 0 0-1.037-.651c-.807-.231-2.319-.525-3.572-.698a.113.113 0 0 1-.015-.029c-.261-1.085-1.129-3.046-1.977-4.464l-.04-.067c.026-.045.063-.101.114-.168a64.388 64.388 0 0 1 1.866-2.632c.245-.192.404-.466.445-.779.058-.444-.127-.911-.51-1.287-.534-.651-1.657-1.887-2.549-2.805-.494-.614-1.449-.678-2.144-.178-.688.381-1.936 1.244-2.839 1.964l-.092.081a.603.603 0 0 1-.321-.035c-.881-.547-2.723-1.318-4.191-1.753l-.081-.024a.521.521 0 0 1-.035-.144c-.108-.939-.437-2.624-.726-3.731-.099-.517-.499-1.147-1.843-1.216a25.1 25.1 0 0 0-.83-.029v-14.395h32.132l-.012 34.359 28.562 18.808.385-.113c.025-.008.05-.011.074-.022l28.121-8.23.002-8.228a.777.777 0 0 0 .014-.451c-.003-.01-.011-.017-.014-.026Zm-123.982-10.396-26.293 17.347v-5.763l26.291-17.349.002 5.765Zm-.003-7.682-26.29 17.348v-5.937l26.288-17.343.002 5.932Zm-.003-7.848-26.288 17.343v-7.479l26.285-17.272.003 7.408Zm-.003-9.322-26.284 17.271v-7.767l15.696-10.353h10.588v.849Zm-12.539-1.479-6.052 3.992v-8.115c0-.079-.024-.15-.045-.222l6.08-3.992v8.252c0 .03.014.056.017.086Zm7-4.617-5.418 3.573v-8.344l5.386-3.536v8.148c0 .056.021.105.032.158Zm5.538 3.648h-8.162l8.161-5.383.002 5.383Zm-.002-7.3-3.968 2.617v-8.218c0-.033-.015-.06-.019-.092l3.984-2.616.003 8.309Zm-47.167 54.493-6.761-1.979v-6.164l6.761 2.001v6.141Zm9.755 2.856-8.156-2.387v-6.136l8.156 2.414v6.11Zm9.531 2.789-7.931-2.322v-6.105l7.931 2.347v6.08Zm0-7.748-26.049-7.708v-6.019l26.049 7.685v6.042Zm0-7.71-26.051-7.685v-6.206l26.051 7.742v6.149Zm0-7.819-26.052-7.742-.002-7.784 26.054 7.743v7.783Zm0-9.453-26.054-7.743-.002-7.926 26.056 7.718v7.951Zm0-18.134v8.515l-26.056-7.718-.002-8.599 26.091 7.637c-.012.055-.033.107-.033.165Zm.685-1.642-25.76-7.54 26.409-17.311 25.653 7.581-26.301 17.27Zm7.009-2.688v8.295c0 .024.012.044.014.067l-6.107 4.029v-8.062c0-.103-.023-.2-.058-.29l6.152-4.039Zm-6.094 54.779v-5.86l26.294-17.347.002 5.891-26.296 17.315Zm32.729 23.589 3.983 2.616c-.004.032-.019.06-.019.093v8.214l-3.967-2.618.003-8.305Zm26.278 68.035-26.296-17.313.002-5.897 26.294 17.344v5.866Zm0-7.783-26.293-17.344.002-5.765 26.291 17.346v5.763Zm0-7.68-26.29-17.345.002-5.932 26.288 17.344v5.933Zm0-7.85-26.288-17.344.003-7.41 26.285 17.271v7.482Zm0-9.398-26.284-17.271.003-7.831 26.282 17.339v7.763Zm-20.911-23.476a.785.785 0 0 0 .197-.51v-7.684l5.386 3.538v8.34l-5.583-3.684Zm7.166 4.728c.003-.029.017-.054.017-.084v-8.25l6.079 3.992c-.021.071-.044.142-.044.22v8.113l-6.051-3.992Zm13.745 9.068-6.107-4.029c.002-.023.013-.042.013-.066v-8.293l6.094 4.003v8.385Zm9.53 40.485-7.931 2.321v-6.083l7.931-2.348v6.109Zm9.756-2.855-8.156 2.387v-6.115l8.156-2.414v6.142Zm8.361-2.448-6.761 1.979v-6.147l6.762-2.002v6.17Zm.001-7.839-26.049 7.711v-6.041l26.05-7.686v6.015Zm.002-7.684-26.05 7.686v-6.15l26.052-7.742v6.206Zm.002-7.874-26.052 7.742v-7.788l26.054-7.739-.002 7.785Zm.002-9.454-26.054 7.739v-7.953l26.056-7.717-.002 7.931Zm.002-9.599-26.056 7.718v-8.682l26.058-7.627-.002 8.591Zm-.977-9.971-25.731 7.53c-.024-.005-.047-.012-.072-.014l-26.26-17.246 25.648-7.58.139.091v11.605a.8.8 0 0 0 1.6 0v-10.557l24.675 16.171Zm-23.928-66.796c.195.01.316.035.386.054.276 1.07.577 2.616.676 3.48.104.879.672 1.509 1.361 1.55 1.295.395 2.963 1.092 3.766 1.586.814.394 1.75.286 2.239-.241.814-.643 1.973-1.445 2.634-1.817a.432.432 0 0 1 .137-.067c.884.909 1.998 2.136 2.496 2.747l.019.023a64.351 64.351 0 0 0-1.915 2.701c-.41.532-.564 1.11-.424 1.587.067.228.2.422.379.563.723 1.248 1.483 2.97 1.7 3.872.117.434.46.956.959 1.145l.181.045c1.227.158 2.841.468 3.599.691l.026.007c-.027.737-.061 2.425-.08 3.876-.333.084-1.461.312-2.845.553-.662.092-1.375.51-1.696.993l-.107.24c-.389 1.489-1.176 3.458-1.73 4.321-.381.635-.32 1.523.102 2.016.621.862 1.428 2.022 1.892 2.719-.908.895-2.039 2.045-2.663 2.708-.578-.445-1.754-1.254-2.887-1.982-.455-.381-.979-.553-1.451-.475a1.198 1.198 0 0 0-.667.344c-.415.185-1.724.73-3.566 1.471-.44.12-1.025.48-1.268.986l-.064.198a65.492 65.492 0 0 1-.663 3.102c-.062.46-.241.801-.354.933-.497-.001-1.038-.007-1.578-.014-.484-.005-.97-.011-1.412-.011h-.347c-.091-.042-.305-.395-.271-.973l.005-.087-.014-.086c-.113-.704-.28-1.822-.373-2.491-.105-.811-.674-1.425-1.357-1.498-.462-.158-2.09-.816-3.941-1.612-.661-.361-1.471-.279-1.948.193a44.196 44.196 0 0 1-2.744 1.978 425.845 425.845 0 0 1-2.771-2.77 93.163 93.163 0 0 1 1.964-2.783c.317-.52.457-1.293.057-1.822-.817-1.428-1.679-3.483-1.915-4.603-.202-.621-.704-1.013-1.247-.977-1.21-.153-2.571-.48-3.109-.7l-.109-.036c-.178-.044-.273-.152-.284-.104l.014-.08-.002-.081a163.946 163.946 0 0 1-.056-3.381l.11-.074v-.004l.095.003.094-.02c1.114-.232 2.535-.525 3.133-.646.883-.128 1.528-.726 1.582-1.43.314-.946 1.161-2.801 1.896-4.146l.082-.223c.12-.583-.406-1.478-.868-2.125q-.806-1.133-1.439-2.05c-.02-.04-.019-.142.009-.214.976-.858 2.13-1.916 2.63-2.412.014-.015.027-.026.039-.037l.031.024c.941.725 2.214 1.601 2.926 2.015.573.407 1.311.442 1.813.094 1.347-.736 3.274-1.547 4.269-1.79.603-.176 1.036-.709 1.055-1.272.16-1.021.479-2.584.719-3.522l.007-.028c.012-.057.025-.092.03-.108.988-.052 1.9-.088 3.059-.027Zm32.991-33.241 3.983 2.615c-.004.031-.018.058-.018.089v8.218l-3.968-2.617.003-8.305Zm-.004 10.221 8.185 5.398h-8.186l.002-5.398Zm5.537 1.735c.011-.053.032-.102.032-.158v-8.145l5.386 3.536v8.34l-5.418-3.573Zm20.746 56.076-26.297-17.316.002-5.892 26.295 17.344v5.864Zm0-7.781-26.294-17.343.002-5.765 26.292 17.346v5.763Zm0-7.679-26.291-17.345.002-5.936 26.289 17.348v5.933Zm0-7.851-26.289-17.347.003-7.407 26.286 17.272v7.483Zm0-9.397-26.285-17.271v-.833h10.612l15.673 10.338v7.767Zm-13.746-18.751c.003-.029.017-.055.017-.085v-8.248l6.079 3.991c-.021.071-.044.142-.044.219v8.114l-6.051-3.991Zm13.746 9.067-6.108-4.029c.002-.023.013-.043.013-.066v-8.293l6.095 4.002v8.386Zm.949-9.71c-.025-.005-.048-.012-.074-.015l-26.262-17.244 25.656-7.579 26.405 17.309-25.725 7.529Zm8.581 50.195-7.931 2.321v-6.08l7.931-2.348v6.106Zm9.756-2.856-8.156 2.387v-6.112l8.156-2.415v6.139Zm8.36-2.447-6.761 1.979v-6.144l6.762-2.002v6.167Zm.002-7.836-26.049 7.712v-6.046l26.05-7.685v6.019Zm.001-7.687-26.05 7.685v-6.149l26.051-7.742v6.206Zm.002-7.876-26.052 7.742v-7.783l26.053-7.743-.002 7.784Zm.002-9.453-26.054 7.743v-7.951l26.055-7.717-.002 7.926Zm.002-9.595-26.056 7.717v-8.686l26.057-7.627-.002 8.595Z" class="cls-2"/>
  <path d="M186.578 105.827c2.334 0 4.227-1.892 4.227-4.225a4.227 4.227 0 0 0-8.453 0 4.226 4.226 0 0 0 4.226 4.225ZM219.713 105.827c2.334 0 4.227-1.892 4.227-4.225s-1.893-4.225-4.227-4.225-4.228 1.892-4.228 4.225 1.893 4.225 4.228 4.225ZM203.145 105.827c2.334 0 4.227-1.892 4.227-4.225a4.227 4.227 0 0 0-8.453 0 4.226 4.226 0 0 0 4.226 4.225ZM138.233 203.067a4.226 4.226 0 1 0-.001-8.451 4.226 4.226 0 0 0 .001 8.451ZM138.233 185.528a4.226 4.226 0 1 0-.001-8.451 4.226 4.226 0 0 0 .001 8.451ZM138.233 238.145c2.333 0 4.225-1.893 4.225-4.228a4.226 4.226 0 1 0-8.45 0 4.227 4.227 0 0 0 4.225 4.228ZM138.233 220.607c2.333 0 4.225-1.893 4.225-4.226s-1.892-4.229-4.225-4.229-4.225 1.893-4.225 4.229 1.892 4.226 4.225 4.226ZM159.024 233.921c0-2.333-1.893-4.225-4.228-4.225a4.226 4.226 0 1 0 0 8.45 4.227 4.227 0 0 0 4.228-4.225ZM268.502 203.067a4.226 4.226 0 1 0-.001-8.451 4.226 4.226 0 0 0 .001 8.451ZM268.502 185.528a4.226 4.226 0 1 0-.001-8.451 4.226 4.226 0 0 0 .001 8.451ZM268.502 238.145c2.333 0 4.225-1.893 4.225-4.228a4.226 4.226 0 1 0-8.45 0 4.227 4.227 0 0 0 4.225 4.228ZM268.502 220.607c2.333 0 4.225-1.893 4.225-4.226s-1.892-4.229-4.225-4.229-4.225 1.893-4.225 4.229 1.892 4.226 4.225 4.226ZM251.938 238.146c2.334 0 4.227-1.892 4.227-4.225s-1.893-4.225-4.227-4.225-4.228 1.892-4.228 4.225 1.893 4.225 4.228 4.225ZM191.909 152.079c0 6.155 5.005 11.162 11.156 11.162s11.156-5.007 11.156-11.162-5.005-11.162-11.156-11.162-11.156 5.007-11.156 11.162Zm20.824 0c0 5.334-4.337 9.674-9.668 9.674s-9.668-4.339-9.668-9.674 4.337-9.674 9.668-9.674 9.668 4.339 9.668 9.674Z" class="cls-2"/>
</svg>
