<svg xmlns="http://www.w3.org/2000/svg" id="support_consulting" data-name="support consulting" viewBox="0 0 400 400">
  <defs>
    <style>
      .cls-2{fill:#13294b}
    </style>
  </defs>
  <path d="M205.342 255.959c48.59 0 87.979-39.39 87.979-87.979S253.932 80 205.342 80s-87.979 39.39-87.979 87.98 39.389 87.979 87.979 87.979" style="fill:#fff"/>
  <path d="M153.514 99.517a4.225 4.225 0 1 0 2.258-8.142 4.226 4.226 0 1 0-2.258 8.142ZM136.558 95.038a4.226 4.226 0 0 0 2.259-8.145 4.226 4.226 0 0 0-2.259 8.145ZM187.315 108.89a4.225 4.225 0 1 0 2.258-8.142 4.225 4.225 0 1 0-2.258 8.142ZM170.413 104.204a4.225 4.225 0 1 0 2.258-8.142 4.226 4.226 0 1 0-2.258 8.142ZM205.189 96.324a4.227 4.227 0 0 0 0-8.453 4.226 4.226 0 0 0 0 8.453ZM205.189 78.786c2.333 0 4.225-1.893 4.225-4.229a4.224 4.224 0 1 0-8.45 0 4.229 4.229 0 0 0 4.225 4.229ZM257.184 99.517a4.226 4.226 0 1 0-2.258-8.142 4.225 4.225 0 1 0 2.258 8.142ZM274.14 95.038a4.226 4.226 0 0 0-2.259-8.145 4.226 4.226 0 0 0 2.259 8.145ZM223.383 108.89a4.225 4.225 0 1 0-2.258-8.142 4.225 4.225 0 1 0 2.258 8.142ZM209.426 108.378c-.014-.05-.04-.093-.055-.141-.029-.09-.068-.175-.103-.263a4.329 4.329 0 0 0-.225-.505c-.036-.065-.081-.124-.12-.187a4.147 4.147 0 0 0-.339-.484c-.05-.06-.109-.111-.162-.167a4.23 4.23 0 0 0-.409-.395c-.074-.06-.157-.109-.235-.164a4.367 4.367 0 0 0-.442-.284c-.09-.048-.188-.084-.283-.126a4.178 4.178 0 0 0-.488-.19c-.031-.009-.058-.026-.09-.035-.08-.022-.16-.024-.239-.041a4.293 4.293 0 0 0-.482-.083c-.136-.013-.27-.012-.405-.012s-.269 0-.405.012a4.113 4.113 0 0 0-.482.083c-.08.017-.16.019-.239.041-.032.009-.058.025-.09.035a4.248 4.248 0 0 0-.488.19c-.095.042-.193.078-.283.126a4.367 4.367 0 0 0-.442.284c-.078.055-.161.104-.235.164a4.119 4.119 0 0 0-.409.395c-.053.057-.112.108-.162.167-.126.15-.234.315-.339.484-.039.063-.084.122-.12.187-.088.16-.157.331-.225.505-.035.088-.074.173-.103.263-.016.049-.041.092-.055.141-.035.127-.042.253-.065.38-.018.097-.039.192-.05.291a4.063 4.063 0 0 0-.017.572c.002.083 0 .164.008.247.018.213.058.419.107.624.012.048.012.097.025.145.005.019.016.035.021.054.059.202.139.394.227.584.031.068.057.14.092.205.089.168.196.323.307.477.05.07.094.146.149.212.113.139.243.263.375.388.067.063.128.133.198.191.128.106.269.196.411.287.091.059.178.123.273.175.124.067.258.119.391.174.13.055.258.111.393.153.035.011.066.03.102.04.092.025.183.028.275.047.147.031.294.062.445.076.139.014.274.013.412.012.137 0 .273.001.412-.012.151-.015.297-.046.445-.076.092-.019.184-.022.275-.047.036-.01.067-.029.102-.04.135-.042.263-.098.393-.153.133-.055.266-.107.39-.174.096-.052.182-.117.274-.176.141-.091.282-.18.41-.287.071-.059.132-.128.198-.191.131-.125.261-.248.375-.388.054-.067.098-.142.148-.212.111-.155.218-.31.307-.478.035-.066.06-.137.091-.205.088-.19.168-.383.227-.585.006-.019.016-.035.021-.054.013-.048.013-.097.025-.145.05-.205.089-.411.107-.624.007-.083.005-.165.008-.247a4.22 4.22 0 0 0-.017-.572c-.011-.099-.032-.194-.05-.291-.023-.127-.03-.253-.065-.38ZM240.286 104.204a4.226 4.226 0 1 0-2.258-8.142 4.225 4.225 0 1 0 2.258 8.142ZM162.644 292.039c-.571-.403-1.191-.758-1.861-1.062s-1.291-.612-1.861-.925-1.047-.666-1.427-1.062c-.381-.396-.571-.891-.571-1.484 0-.608.251-1.138.754-1.587s1.256-.674 2.261-.674c.853 0 1.618.079 2.295.235.677.157 1.191.322 1.542.495l.571-1.689c-.426-.214-1.021-.389-1.781-.525a14.28 14.28 0 0 0-2.535-.206c-1.599 0-2.833.365-3.7 1.097-.868.73-1.302 1.721-1.302 2.969 0 .884.19 1.61.571 2.182.38.57.856 1.05 1.428 1.438.571.389 1.191.72 1.861.993.67.274 1.291.567 1.861.88s1.047.67 1.427 1.073.571.925.571 1.564c0 .457-.095.853-.286 1.188s-.445.613-.765.834-.701.381-1.142.479c-.441.1-.914.148-1.416.148-.853 0-1.622-.093-2.307-.278-.685-.185-1.203-.374-1.553-.566l-.639 1.689c.411.214.989.408 1.736.583.746.175 1.69.263 2.832.263.853 0 1.614-.107 2.284-.32s1.241-.518 1.713-.913a3.9 3.9 0 0 0 1.074-1.416c.243-.549.365-1.165.365-1.851 0-.837-.19-1.537-.571-2.101a5.605 5.605 0 0 0-1.428-1.45ZM178.803 293.969c0 1.553-.267 2.668-.799 3.346-.533.678-1.416 1.017-2.649 1.017-.639 0-1.199-.076-1.679-.229-.479-.152-.879-.399-1.199-.742s-.56-.792-.72-1.348c-.16-.556-.24-1.237-.24-2.044v-10.141h-1.896v11.031c0 1.735.479 3.03 1.439 3.883.959.853 2.383 1.278 4.271 1.278.792 0 1.515-.106 2.169-.319s1.214-.544 1.679-.993.822-1.024 1.074-1.725c.251-.7.376-1.53.376-2.489v-10.666h-1.827v10.141ZM194.447 284.604a5.817 5.817 0 0 0-1.976-.754 11.452 11.452 0 0 0-2.135-.205c-.655 0-1.317.022-1.987.068s-1.294.137-1.873.274v15.827h1.896v-6.075c.076.016.206.03.388.046a14.042 14.042 0 0 0 1.108.045h.377c.792 0 1.561-.091 2.307-.273.746-.183 1.408-.483 1.987-.902s1.043-.963 1.394-1.633c.35-.67.525-1.492.525-2.467 0-.989-.187-1.805-.559-2.443a4.245 4.245 0 0 0-1.451-1.508Zm-.376 5.756c-.251.472-.583.837-.994 1.096s-.872.438-1.382.537a8.073 8.073 0 0 1-1.542.148h-.366c-.167 0-.342-.004-.525-.012l-.525-.022a1.172 1.172 0 0 1-.366-.058v-6.623a3.85 3.85 0 0 1 .868-.114c.365-.015.746-.022 1.142-.022.487 0 .975.053 1.462.159.487.107.925.286 1.313.537.388.251.7.586.936 1.005.236.419.354.94.354 1.564 0 .73-.125 1.333-.376 1.805ZM209.179 284.604a5.825 5.825 0 0 0-1.976-.754 11.47 11.47 0 0 0-2.136-.205c-.654 0-1.317.022-1.987.068s-1.294.137-1.872.274v15.827h1.896v-6.075c.076.016.205.03.388.046a14.157 14.157 0 0 0 1.109.045h.377c.791 0 1.561-.091 2.307-.273a5.637 5.637 0 0 0 1.986-.902c.579-.419 1.043-.963 1.394-1.633s.525-1.492.525-2.467c0-.989-.187-1.805-.56-2.443a4.234 4.234 0 0 0-1.45-1.508Zm-.377 5.756c-.251.472-.582.837-.993 1.096s-.872.438-1.382.537a8.08 8.08 0 0 1-1.542.148h-.365c-.168 0-.343-.004-.525-.012l-.525-.022a1.164 1.164 0 0 1-.365-.058v-6.623a3.85 3.85 0 0 1 .868-.114c.365-.015.745-.022 1.142-.022.487 0 .975.053 1.462.159.487.107.925.286 1.313.537.388.251.699.586.936 1.005s.354.94.354 1.564c0 .73-.126 1.333-.377 1.805ZM216.579 285.689c-1.127 1.424-1.69 3.468-1.69 6.132 0 1.249.129 2.38.389 3.392.258 1.014.658 1.881 1.198 2.604a5.53 5.53 0 0 0 2.033 1.679c.814.396 1.777.594 2.889.594 2.102 0 3.72-.712 4.854-2.136 1.135-1.424 1.702-3.468 1.702-6.133 0-1.248-.13-2.379-.389-3.392-.259-1.012-.659-1.88-1.199-2.604a5.493 5.493 0 0 0-2.044-1.679c-.822-.396-1.797-.594-2.924-.594-2.086 0-3.692.712-4.818 2.136Zm4.819-.445c.792 0 1.474.179 2.045.536.57.358 1.042.838 1.416 1.439.372.602.646 1.302.822 2.101.175.8.262 1.634.262 2.501 0 2.238-.403 3.895-1.21 4.968-.808 1.073-1.919 1.61-3.335 1.61-.776 0-1.45-.179-2.021-.537-.571-.357-1.04-.837-1.405-1.438s-.636-1.298-.811-2.09-.263-1.629-.263-2.513c0-2.238.399-3.894 1.199-4.967.799-1.074 1.899-1.61 3.3-1.61ZM238.824 292.643c1.05-.259 1.918-.776 2.604-1.553.685-.776 1.027-1.789 1.027-3.038 0-.807-.145-1.491-.434-2.055s-.674-1.021-1.153-1.371a4.632 4.632 0 0 0-1.667-.753 8.534 8.534 0 0 0-1.999-.229c-.624 0-1.313.03-2.066.091-.754.062-1.42.146-1.999.252v15.827h1.896v-7.24l2.238.343 4.408 6.897h2.216l-3.975-6.326-1.096-.846Zm-2.009-1.324h-1.782v-5.893c.106-.03.248-.054.423-.068.175-.016.361-.03.56-.046.197-.015.403-.022.616-.022h.617c1.005 0 1.789.267 2.353.799.562.533.845 1.211.845 2.033 0 1.096-.343 1.903-1.027 2.421-.686.518-1.554.776-2.604.776ZM252.642 299.815v-14.298h4.978v-1.689h-11.853v1.689h4.979v14.298h1.896zM142.866 327.377c-.51.138-1.108.206-1.793.206a5.362 5.362 0 0 1-2.113-.411c-.647-.274-1.21-.686-1.69-1.233s-.856-1.233-1.13-2.056c-.274-.822-.411-1.781-.411-2.878 0-1.218.145-2.245.434-3.083.289-.837.674-1.515 1.153-2.032a4.23 4.23 0 0 1 1.633-1.119 5.22 5.22 0 0 1 1.85-.343c1.355 0 2.398.183 3.129.548l.457-1.69a7.205 7.205 0 0 0-1.484-.399c-.579-.099-1.325-.148-2.238-.148-.853 0-1.69.152-2.512.457s-1.564.788-2.227 1.45c-.662.662-1.195 1.516-1.599 2.558-.404 1.044-.605 2.312-.605 3.803 0 1.432.183 2.669.548 3.712s.86 1.899 1.484 2.569 1.355 1.169 2.193 1.496a7.343 7.343 0 0 0 2.695.491c.792 0 1.538-.069 2.238-.206.7-.137 1.279-.38 1.736-.73l-.457-1.484a4.939 4.939 0 0 1-1.291.524ZM159.585 315.01a5.501 5.501 0 0 0-2.044-1.679c-.822-.396-1.796-.594-2.923-.594-2.086 0-3.692.712-4.819 2.136-1.127 1.424-1.69 3.468-1.69 6.132 0 1.249.129 2.38.389 3.392.258 1.014.658 1.881 1.199 2.604a5.522 5.522 0 0 0 2.033 1.679c.814.396 1.778.594 2.889.594 2.102 0 3.719-.712 4.854-2.136s1.702-3.468 1.702-6.133c0-1.248-.13-2.379-.389-3.392-.259-1.012-.659-1.88-1.199-2.604Zm-1.634 10.962c-.807 1.073-1.918 1.61-3.334 1.61-.776 0-1.45-.179-2.021-.537-.571-.357-1.04-.837-1.405-1.438s-.636-1.298-.811-2.09a11.62 11.62 0 0 1-.262-2.513c0-2.238.399-3.894 1.199-4.967.799-1.074 1.899-1.61 3.3-1.61.792 0 1.473.179 2.044.536a4.428 4.428 0 0 1 1.416 1.439c.373.602.647 1.302.822 2.101.175.8.262 1.634.262 2.501 0 2.238-.403 3.895-1.21 4.968ZM176.063 323.426l.251 2.193h-.114l-1.188-2.193-7.651-10.665h-1.005v16.238h1.781v-10.46l-.228-2.308h.092l1.233 2.308 7.605 10.711h1.005v-16.238h-1.781v10.414zM190.805 321.222c-.571-.403-1.191-.758-1.861-1.062s-1.291-.612-1.861-.925-1.047-.666-1.427-1.062c-.381-.396-.571-.891-.571-1.484 0-.608.251-1.138.754-1.587s1.256-.674 2.261-.674c.853 0 1.618.079 2.295.235.677.157 1.191.322 1.542.495l.571-1.689c-.426-.214-1.021-.389-1.781-.525a14.28 14.28 0 0 0-2.535-.206c-1.599 0-2.833.365-3.7 1.097-.868.73-1.302 1.721-1.302 2.969 0 .884.19 1.61.571 2.182.38.57.856 1.05 1.428 1.438.571.389 1.191.72 1.861.993.67.274 1.291.567 1.861.88s1.047.67 1.427 1.073.571.925.571 1.564c0 .457-.095.853-.286 1.188s-.445.613-.765.834-.701.381-1.142.479c-.441.1-.914.148-1.416.148-.853 0-1.622-.093-2.307-.278-.685-.185-1.203-.374-1.553-.566l-.639 1.689c.411.214.989.408 1.736.583.746.175 1.69.263 2.832.263.853 0 1.614-.107 2.284-.32s1.241-.518 1.713-.913a3.9 3.9 0 0 0 1.074-1.416c.243-.549.365-1.165.365-1.851 0-.837-.19-1.537-.571-2.101a5.605 5.605 0 0 0-1.428-1.45ZM206.964 323.152c0 1.553-.267 2.668-.799 3.346-.533.678-1.416 1.017-2.649 1.017-.64 0-1.199-.076-1.679-.229s-.879-.399-1.199-.742c-.319-.343-.56-.792-.72-1.348-.159-.556-.239-1.237-.239-2.044v-10.141h-1.896v11.031c0 1.735.479 3.03 1.439 3.883.959.853 2.383 1.278 4.271 1.278a6.98 6.98 0 0 0 2.169-.319 4.278 4.278 0 0 0 1.679-.993c.465-.449.822-1.024 1.074-1.725.251-.7.376-1.53.376-2.489v-10.666h-1.827v10.141ZM216.533 313.012h-1.895v15.987h9.456v-1.691h-7.561v-14.296zM224.094 314.701h4.978v14.298h1.896v-14.298h4.979v-1.689h-11.853v1.689zM240.697 313.012h1.896v15.987h-1.896zM258.58 323.426l.251 2.193h-.114l-1.188-2.193-7.651-10.665h-1.005v16.238h1.781v-10.46l-.227-2.308h.091l1.233 2.308 7.606 10.711h1.004v-16.238h-1.781v10.414zM271.599 322.101l3.723.457v4.453c-.684.381-1.511.571-2.482.571a5.624 5.624 0 0 1-2.141-.399 4.33 4.33 0 0 1-1.674-1.211c-.463-.54-.823-1.222-1.081-2.044-.259-.822-.388-1.797-.388-2.924 0-1.233.16-2.269.479-3.105.32-.838.731-1.516 1.233-2.033.503-.518 1.069-.887 1.701-1.107s1.268-.331 1.907-.331c1.355 0 2.398.183 3.129.548l.48-1.69c-.411-.167-.914-.3-1.508-.399-.594-.099-1.348-.148-2.261-.148-.854 0-1.706.152-2.559.457s-1.621.788-2.307 1.45-1.241 1.519-1.667 2.569c-.427 1.051-.64 2.314-.64 3.791 0 1.416.175 2.646.525 3.688.35 1.044.837 1.904 1.462 2.581.624.678 1.362 1.181 2.215 1.508s1.789.491 2.81.491c.396 0 .803-.027 1.222-.08a8.948 8.948 0 0 0 1.211-.24c.388-.106.753-.235 1.096-.388s.636-.32.88-.503v-7.034h-5.367v1.073ZM180.929 164.658c.084.009.187.014.304.014.903 0 2.686-.304 3.94-1.375.797-.68 1.245-1.574 1.294-2.586.019-.379.076-1.534-.769-2.078-.889-.572-1.994-.007-2.801.408-.184.094-.339.182-.449.215-.975.278-1.462.268-2.17-.048-.072-.032-.214-.142-.328-.23-.395-.304-1.215-.939-2.074-.347-.473.327-.897 1.197-.926 1.901-.109 2.697 2.319 3.945 3.978 4.125Zm-2.202-4.597c.082.056.177.129.245.182.191.148.408.315.655.426 1.204.535 2.14.444 3.26.125.219-.062.45-.181.742-.332.275-.141 1.004-.516 1.168-.516h.001s.098.149.071.684c-.029.577-.269 1.051-.735 1.448-.962.821-2.562 1.038-3.033.987-.734-.08-2.625-.68-2.552-2.47.007-.166.095-.386.178-.536ZM176.921 148.788c.245-.304.274-1.215.009-1.481-.256-.257-1.392-.285-1.672.029-.995 1.115.812 2.509 1.663 1.452ZM187.073 147.127c-1.153-.098-1.669.854-1.017 1.662 1.187 1.471 3.086-1.486 1.017-1.662ZM209.45 255.662a4.102 4.102 0 1 0-8.205.003 4.102 4.102 0 0 0 8.205-.003ZM188.173 259.764a4.102 4.102 0 1 0 0-8.204 4.102 4.102 0 0 0 0 8.204ZM226.707 255.662a4.102 4.102 0 1 0-8.205.003 4.102 4.102 0 0 0 8.205-.003ZM220.411 172.485c-.903-.827-2.36.264-1.662 1.449.804 1.363 2.885-.329 1.662-1.449ZM230.55 174.101c.89-.825-.401-2.563-1.529-1.598-1.231 1.052.523 2.53 1.529 1.598ZM231.573 181.392a.793.793 0 0 0-.899.687c-.177 1.32-.472 3.529-5.317 4.125-4.491.32-5.363-2.389-5.832-3.844l-.071-.219a.8.8 0 1 0-1.518.508l.066.202c.448 1.392 1.604 4.975 6.676 4.975.267 0 .544-.01.833-.03 6.113-.75 6.559-4.082 6.749-5.504a.8.8 0 0 0-.687-.899Z" class="cls-2"/>
  <path d="m287.741 150.535-14.843 3.876v8.446h-9.709c-1.638-27.386-22.583-50.333-50.013-54.09a.8.8 0 1 0-.216 1.585c27.789 3.806 48.745 27.863 48.746 55.958 0 11.022-3.137 21.413-8.69 30.216-4.507-5.205-12.21-7.115-15.168-7.843.727-1.765 1.195-4.088 1.446-6.623 9.322-8.984 15.566-23.748 7.391-35.219-5.739-8.051-15.467-12.081-25.396-10.514-5.989.944-11.27 3.82-15.171 8.02l.031-28.08a.8.8 0 1 0-1.599-.002l-.033 29.971a25.635 25.635 0 0 0-4.065 7.83c-1.541 4.873-1.108 10.109 1.107 15.306-2.206-1.288-5.013-2.774-7.669-3.944.955-1.93 1.641-4.261 1.902-6.625.167-1.509.781-4.664 1.167-5.413.045-.088.08-.115.403-.252.354-.149.837-.354 1.361-.852.87-.78 1.207-2.656 1.091-4.105-.122-1.526-.712-2.73-1.667-3.412-.021-.685 0-2.365.014-3.538.017-1.329.026-2.158.011-2.468-.193-4.063-1.515-7.229-3.927-9.411-4.105-3.712-10.425-3.832-14.821-3.601-6.979.368-12.747 6.125-13.415 13.394-.344 3.75-.216 4.936.023 5.404-1.616 2.17-2.086 5.914-.222 7.692.606.576 1.407.595 1.951.577.058.673.106 1.337.155 1.993.287 3.923.561 7.666 2.721 11.143-3.369 1.475-15.12 6.895-20.534 12.753a57.176 57.176 0 0 1-1.363-12.394c0-28.163 21.014-52.228 48.881-55.978a.8.8 0 0 0-.213-1.586c-27.529 3.705-48.543 26.691-50.155 54.168h-9.461v-8.446l-14.843-3.876-10.43 6.246.029 15.971 15.014 3.873 10.23-6.25v-5.918h9.391c-.018.598-.042 1.195-.042 1.796 0 25.474 16.269 47.694 40.512 55.376l16.9 23.352v4.392a.8.8 0 0 0 1.6 0v-4.299l16.646-23.446c24.242-7.683 40.511-29.902 40.511-55.375 0-.621-.023-1.237-.043-1.854h9.637v5.918l10.229 6.25 15.014-3.873.029-15.971-10.43-6.246ZM123.19 152.31l11.635 3.038-7.609 5.253-12.003-3.514 7.976-4.777Zm-9.073 6.123 12.457 3.648v12.695l-12.433-3.207-.024-13.136Zm14.057 15.998v-12.546l8.014-5.534v13.183l-8.014 4.896Zm107.858 14.365a6.564 6.564 0 0 1-.214.38c-2.022 3.311-6.049 5.129-10.754 4.847-4.941-.289-9.245-2.887-10.963-6.617-.582-1.266-.993-3.096-1.247-5.18a.793.793 0 0 0-.031-.265c-.607-5.319-.216-12.181.945-15.6 1.261-3.714 5.022-6.448 9.36-6.801 3.956-.322 10.921-.029 13.142 5.544 2.113 5.303 2.299 18.812-.238 23.692Zm-66.523-34.104c-.064-.876-.129-1.768-.216-2.673l-.021-.212-.124-.174c-.328-.463-.869-.441-1.306-.421-.319.015-.759.034-.931-.131-1.253-1.196-.732-4.286.586-5.808a.788.788 0 0 0 .163-.298c.171-.046.255-.108.308-.147.073-.042.312-.083.441-.105.36-.062.809-.138 1.03-.576l.323-1.678c1.127-6.194 2.334-8.229 5.872-9.895.746-.351 2.37.268 3.802.814 1.189.454 2.418.922 3.466.99 1.154.07 2.196-.369 3.108-.759 1.271-.543 2.026-.823 2.813-.249 2.799 2.039 5.307 7.604 6.604 11.75.009.029.02.057.032.084a.8.8 0 0 0 .624.543l.923.162a.884.884 0 0 0 .141.115c.812.521 1.019 1.655 1.069 2.284.112 1.396-.308 2.556-.581 2.802-.33.312-.606.43-.899.554-.394.167-.884.375-1.203.995-.566 1.102-1.191 4.683-1.333 5.969-.273 2.467-1.032 4.875-2.071 6.727a.835.835 0 0 0-.083.146c-.471.814-.997 1.515-1.56 2.058-2.394 2.311-5.499 3.514-8.716 3.397-3.218-.12-6.194-1.537-8.382-3.989a14.064 14.064 0 0 1-.822-1.011.806.806 0 0 0-.163-.226c-2.33-3.308-2.594-6.923-2.895-11.036Zm-18.964 25.88c.029-.026.065-.039.09-.07 4.629-5.658 17.011-11.568 20.932-13.221.197.251.406.5.627.749 2.48 2.78 5.86 4.386 9.517 4.523 3.668.14 7.177-1.229 9.887-3.845a10.285 10.285 0 0 0 1.503-1.879c3.559 1.557 7.511 3.762 9.727 5.192 1.973 3.614 4.812 7.177 8.465 10.549.276 2.191.723 4.129 1.355 5.504.119.259.248.513.387.761l-.669.273c-8.453 3.447-22.515 9.198-25.136 30.747-18.442-6.181-31.989-21.067-36.685-39.284Zm71.514 39.668-.258.08-16.424 23.135-16.615-22.957c2.37-20.991 16.024-26.569 24.207-29.907l.958-.393c2.384 3.133 6.411 5.151 11.043 5.423 5.245.305 9.768-1.736 12.129-5.475l.361.09c2.888.71 10.538 2.597 14.65 7.685-6.984 10.376-17.411 18.376-30.051 22.319Zm73.412-63.211-12.003 3.515-7.609-5.254 11.635-3.038 7.977 4.777Zm-20.973-.735 8.014 5.534v12.546l-8.014-4.896v-13.183Zm9.613 18.424v-12.695l12.457-3.649-.024 13.136-12.433 3.207Z" class="cls-2"/>
</svg>
