<svg xmlns="http://www.w3.org/2000/svg" id="tool_application" data-name="tool application" viewBox="0 0 400 400">
  <defs>
    <style>
      .cls-2{fill:#13294b}
    </style>
  </defs>
  <path d="M200.484 255.913c48.59 0 87.979-39.39 87.979-87.979s-39.389-87.98-87.979-87.98-87.979 39.39-87.979 87.98 39.389 87.979 87.979 87.979" style="fill:#fff"/>
  <path d="M171.591 285.525h4.979v14.298h1.895v-14.298h4.979v-1.69h-11.853v1.69zM197.479 285.833a5.504 5.504 0 0 0-2.045-1.679c-.821-.396-1.796-.594-2.923-.594-2.086 0-3.692.712-4.819 2.136-1.127 1.424-1.69 3.468-1.69 6.132 0 1.249.129 2.38.389 3.392.258 1.014.658 1.881 1.199 2.604a5.522 5.522 0 0 0 2.033 1.679c.814.396 1.778.594 2.889.594 2.102 0 3.72-.712 4.854-2.136s1.702-3.468 1.702-6.133c0-1.248-.131-2.379-.389-3.392-.26-1.012-.659-1.88-1.199-2.604Zm-1.633 10.963c-.808 1.073-1.919 1.61-3.335 1.61-.776 0-1.45-.179-2.021-.537-.571-.357-1.04-.837-1.405-1.438s-.636-1.298-.811-2.09a11.62 11.62 0 0 1-.262-2.513c0-2.238.399-3.894 1.199-4.967.799-1.074 1.899-1.61 3.3-1.61.792 0 1.473.179 2.044.536.571.358 1.043.838 1.416 1.439s.647 1.302.822 2.101c.176.8.263 1.634.263 2.501 0 2.238-.403 3.895-1.21 4.968ZM203.977 295.22c.258 1.014.658 1.881 1.198 2.604a5.519 5.519 0 0 0 2.032 1.679c.814.396 1.778.594 2.89.594 2.102 0 3.72-.712 4.854-2.136s1.702-3.468 1.702-6.133c0-1.248-.131-2.379-.389-3.392-.26-1.012-.659-1.88-1.199-2.604a5.504 5.504 0 0 0-2.045-1.679c-.821-.396-1.796-.594-2.923-.594-2.086 0-3.692.712-4.819 2.136s-1.689 3.468-1.689 6.132c0 1.249.129 2.38.389 3.392Zm2.82-8.358c.799-1.074 1.898-1.61 3.3-1.61.792 0 1.474.179 2.044.536.571.358 1.043.838 1.416 1.439s.647 1.302.822 2.101c.176.8.263 1.634.263 2.501 0 2.238-.403 3.895-1.21 4.968-.808 1.073-1.919 1.61-3.335 1.61-.776 0-1.45-.179-2.021-.537-.572-.357-1.04-.837-1.405-1.438s-.636-1.298-.812-2.09a11.682 11.682 0 0 1-.262-2.513c0-2.238.399-3.894 1.199-4.967ZM221.837 283.835v15.988h9.456v-1.691h-7.56v-14.297h-1.896zM124.384 312.768l-6.053 16.238h1.896l1.59-4.431h5.863l1.636 4.431h2.01l-6.075-16.238h-.868Zm2.729 10.163h-4.681l1.75-4.819.568-2.467h.023l.568 2.421 1.772 4.865ZM143.386 313.795a5.817 5.817 0 0 0-1.976-.754 11.452 11.452 0 0 0-2.135-.205c-.655 0-1.317.022-1.987.068s-1.294.137-1.873.274v15.827h1.896v-6.075c.076.016.206.03.388.046a14.042 14.042 0 0 0 1.108.045h.377c.792 0 1.561-.091 2.307-.273.746-.183 1.408-.483 1.987-.902s1.043-.963 1.394-1.633c.35-.67.525-1.492.525-2.467 0-.989-.187-1.805-.559-2.443a4.245 4.245 0 0 0-1.451-1.508Zm-.376 5.756c-.251.472-.583.837-.994 1.096s-.872.438-1.382.537a8.073 8.073 0 0 1-1.542.148h-.366c-.167 0-.342-.004-.525-.012l-.525-.022a1.172 1.172 0 0 1-.366-.058v-6.623a3.85 3.85 0 0 1 .868-.114c.365-.015.746-.022 1.142-.022.487 0 .975.053 1.462.159.487.107.925.286 1.313.537.388.251.7.586.936 1.005.236.419.354.94.354 1.564 0 .73-.125 1.333-.376 1.805ZM158.117 313.795a5.817 5.817 0 0 0-1.976-.754 11.452 11.452 0 0 0-2.135-.205c-.655 0-1.317.022-1.987.068s-1.294.137-1.873.274v15.827h1.896v-6.075c.076.016.206.03.388.046a14.042 14.042 0 0 0 1.108.045h.377c.792 0 1.561-.091 2.307-.273.746-.183 1.408-.483 1.987-.902s1.043-.963 1.394-1.633c.35-.67.525-1.492.525-2.467 0-.989-.187-1.805-.559-2.443a4.245 4.245 0 0 0-1.451-1.508Zm-.376 5.756c-.251.472-.583.837-.994 1.096s-.872.438-1.382.537a8.073 8.073 0 0 1-1.542.148h-.366c-.167 0-.342-.004-.525-.012l-.525-.022a1.172 1.172 0 0 1-.366-.058v-6.623a3.85 3.85 0 0 1 .868-.114c.365-.015.746-.022 1.142-.022.487 0 .975.053 1.462.159.487.107.925.286 1.313.537.388.251.7.586.936 1.005.236.419.354.94.354 1.564 0 .73-.125 1.333-.376 1.805ZM166.773 313.019h-1.895v15.987h9.455v-1.69h-7.56v-14.297zM179.061 313.019h1.896v15.987h-1.896zM195.721 327.384c-.51.138-1.107.206-1.792.206a5.362 5.362 0 0 1-2.113-.411c-.647-.274-1.21-.686-1.69-1.233s-.856-1.233-1.13-2.056c-.274-.822-.411-1.781-.411-2.878 0-1.218.145-2.245.434-3.083.289-.837.674-1.515 1.153-2.032a4.23 4.23 0 0 1 1.633-1.119 5.22 5.22 0 0 1 1.85-.343c1.355 0 2.398.183 3.129.548l.457-1.69a7.222 7.222 0 0 0-1.484-.399c-.58-.099-1.325-.148-2.239-.148-.853 0-1.69.152-2.512.457s-1.564.788-2.227 1.45c-.662.662-1.195 1.516-1.599 2.558-.404 1.044-.605 2.312-.605 3.803 0 1.432.183 2.669.548 3.712s.86 1.899 1.484 2.569 1.355 1.169 2.193 1.496a7.343 7.343 0 0 0 2.695.491c.792 0 1.537-.069 2.238-.206.7-.137 1.279-.38 1.736-.73l-.457-1.484a4.939 4.939 0 0 1-1.291.524ZM205.874 312.768l-6.053 16.238h1.896l1.59-4.431h5.863l1.637 4.431h2.01l-6.075-16.238h-.868Zm2.728 10.163h-4.681l1.749-4.819.568-2.467h.023l.568 2.421 1.771 4.865ZM213.844 314.708h4.979v14.298h1.896v-14.298h4.979v-1.689h-11.854v1.689zM230.426 313.019h1.895v15.987h-1.895zM249.417 315.017a5.504 5.504 0 0 0-2.045-1.679c-.822-.396-1.797-.594-2.924-.594-2.086 0-3.691.712-4.818 2.136s-1.69 3.468-1.69 6.132c0 1.249.13 2.38.389 3.392.259 1.014.658 1.881 1.198 2.604a5.53 5.53 0 0 0 2.033 1.679c.814.396 1.777.594 2.889.594 2.102 0 3.72-.712 4.854-2.136 1.135-1.424 1.702-3.468 1.702-6.133 0-1.248-.13-2.379-.389-3.392-.259-1.012-.659-1.88-1.198-2.604Zm-1.634 10.963c-.808 1.073-1.919 1.61-3.335 1.61-.775 0-1.449-.179-2.021-.537-.571-.357-1.04-.837-1.405-1.438s-.635-1.298-.811-2.09a11.62 11.62 0 0 1-.262-2.513c0-2.238.398-3.894 1.198-4.967.8-1.074 1.899-1.61 3.3-1.61.792 0 1.474.179 2.045.536.57.358 1.043.838 1.416 1.439s.646 1.302.822 2.101c.175.8.262 1.634.262 2.501 0 2.238-.402 3.895-1.21 4.968ZM265.894 323.433l.251 2.193h-.113l-1.188-2.193-7.652-10.665h-1.004v16.238h1.781v-10.46l-.228-2.307h.092l1.232 2.307 7.606 10.711h1.005v-16.238h-1.782v10.414zM282.065 322.68a5.621 5.621 0 0 0-1.428-1.45c-.571-.403-1.191-.758-1.861-1.062s-1.291-.612-1.861-.925a5.862 5.862 0 0 1-1.428-1.062c-.381-.396-.571-.891-.571-1.484 0-.608.251-1.138.754-1.587s1.256-.674 2.261-.674c.853 0 1.617.079 2.295.235.678.157 1.191.322 1.543.495l.57-1.689c-.426-.214-1.021-.389-1.781-.525a14.28 14.28 0 0 0-2.535-.206c-1.6 0-2.832.365-3.7 1.097-.868.73-1.302 1.721-1.302 2.969 0 .884.189 1.61.57 2.182.381.57.857 1.05 1.428 1.438.571.389 1.191.72 1.861.993.67.274 1.291.567 1.861.88.571.312 1.047.67 1.428 1.073s.571.925.571 1.564c0 .457-.095.853-.286 1.188-.189.335-.445.613-.765.834s-.7.381-1.142.479c-.441.1-.914.148-1.416.148-.854 0-1.622-.093-2.307-.278-.686-.185-1.203-.374-1.554-.566l-.64 1.689c.412.214.99.408 1.736.583s1.689.263 2.832.263c.853 0 1.613-.107 2.283-.32s1.241-.518 1.713-.913a3.89 3.89 0 0 0 1.074-1.416c.243-.549.365-1.165.365-1.851 0-.837-.19-1.537-.57-2.101ZM200.537 230.301a4.227 4.227 0 0 0 0-8.453 4.226 4.226 0 0 0 0 8.453ZM200.43 245.385a4.227 4.227 0 0 0 0-8.453 4.226 4.226 0 0 0 0 8.453ZM200.43 260.471a4.227 4.227 0 0 0 0-8.453 4.226 4.226 0 0 0 0 8.453ZM200.43 206.762c-2.333 0-4.225 1.893-4.225 4.226s1.892 4.229 4.225 4.229 4.225-1.893 4.225-4.229-1.892-4.226-4.225-4.226ZM200.434 185.046a4.226 4.226 0 1 0 0-8.451 4.226 4.226 0 0 0 0 8.451Z" class="cls-2"/>
  <path d="M200.426 166.017c8.184 0 14.842 6.654 14.842 14.832a14.835 14.835 0 0 1-8.911 13.601.8.8 0 1 0 .638 1.467 16.432 16.432 0 0 0 9.872-15.067c0-9.061-7.375-16.432-16.441-16.432s-16.432 7.371-16.432 16.432a16.45 16.45 0 0 0 9.781 15.027.8.8 0 1 0 .649-1.463 14.849 14.849 0 0 1-8.83-13.564c0-8.178 6.654-14.832 14.833-14.832ZM142.639 125.511c-2.04 0-3.7 1.659-3.7 3.698s1.66 3.698 3.7 3.698 3.7-1.659 3.7-3.698-1.66-3.698-3.7-3.698Zm0 5.796c-1.158 0-2.1-.941-2.1-2.098a2.101 2.101 0 0 1 4.2 0 2.101 2.101 0 0 1-2.1 2.098Z" class="cls-2"/>
  <path d="M200.437 200.133c2.333 0 4.225-1.893 4.225-4.229a4.224 4.224 0 1 0-8.45 0 4.229 4.229 0 0 0 4.225 4.229ZM152.719 125.511c-2.04 0-3.7 1.659-3.7 3.698s1.66 3.698 3.7 3.698 3.7-1.659 3.7-3.698-1.66-3.698-3.7-3.698Zm0 5.796c-1.158 0-2.1-.941-2.1-2.098a2.101 2.101 0 0 1 4.2 0 2.101 2.101 0 0 1-2.1 2.098ZM162.798 125.511c-2.04 0-3.7 1.659-3.7 3.698s1.66 3.698 3.7 3.698 3.7-1.659 3.7-3.698-1.66-3.698-3.7-3.698Zm0 5.796c-1.158 0-2.1-.941-2.1-2.098a2.101 2.101 0 0 1 4.2 0 2.101 2.101 0 0 1-2.1 2.098ZM234.51 110.326c.134 0 .264-.015.386-.047 1.891-.499 2.71-3.162 3.368-5.302.201-.654.391-1.272.558-1.62 1.898-3.948 3.975-7.901 5.982-11.724 1.775-3.381 3.611-6.877 5.322-10.366l.076-.253c.065-.524-.323-.925-.451-1.058-.642-.663-3.309-2.408-4.022-2.322l-.438.041-14.859 29.163c-.191.377-.105.796.257 1.245.484.6 2.421 2.244 3.822 2.244Zm11.668-30.868c.713.377 1.852 1.078 2.317 1.5-1.646 3.338-3.405 6.688-5.108 9.93-2.014 3.835-4.097 7.801-6.007 11.775-.22.456-.417 1.099-.646 1.843-.455 1.479-1.216 3.954-2.229 4.222-.443.036-1.936-.944-2.469-1.519l14.141-27.75ZM201.081 104.028c.448.708 1.276 1.103 2.53 1.208.345.029.668.043.969.043 1.492 0 2.461-.354 3.014-1.092.911-1.214.258-2.917-.318-4.419-.267-.696-.543-1.416-.564-1.865-.027-.586.245-1.343.534-2.145.303-.841.616-1.709.667-2.595.262-4.6-.03-9.248-.312-13.742-.27-4.298-.548-8.743-.335-13.097v-.015c.023-.719-.475-1.538-1.938-1.681-1.433-.134-3.687.458-3.972 2.186l-.012.068v.069c.044 4.682.018 9.445-.008 14.051-.024 4.409-.05 8.968-.014 13.453.005.68.191 1.293.372 1.886.17.558.33 1.085.32 1.618-.01.55-.302 1.329-.584 2.083-.524 1.402-1.067 2.853-.35 3.985Zm2.143-8.152c-.153-.506-.299-.984-.303-1.432-.035-4.475-.011-9.028.014-13.432.025-4.583.052-9.321.01-13.985.075-.245.414-.49.902-.65.79-.259 1.578-.174 1.815-.036-.209 4.412.07 8.869.341 13.18.278 4.447.566 9.046.311 13.55-.037.652-.311 1.41-.575 2.144-.329.914-.67 1.859-.626 2.763.033.707.342 1.511.668 2.363.407 1.06.913 2.379.533 2.886-.134.178-.649.575-2.57.415-.69-.057-1.156-.224-1.312-.469-.292-.46.146-1.629.497-2.568.329-.88.67-1.79.685-2.615.015-.785-.2-1.491-.39-2.113ZM182.285 105.093c.118.446.104 1.026.09 1.641-.033 1.433-.078 3.396 1.961 4.247.342.143.731.208 1.145.207 1.534 0 3.409-.885 4.493-1.962 1.077-1.071 1.41-2.291.939-3.436-.474-1.152-1.375-1.455-2.033-1.677-.457-.154-.724-.252-.905-.496-.529-.709-1.237-2.935-1.921-5.087-1.596-5.019-2.663-8.101-4.416-8.214-.993-.073-3.267 1.178-3.854 1.853-1.66 1.91.496 5.611 2.581 9.19.878 1.508 1.708 2.932 1.919 3.733Zm-3.293-11.873c.344-.395 2.041-1.265 2.535-1.305.853.339 2.25 4.733 3.002 7.101.791 2.487 1.474 4.635 2.164 5.56.49.655 1.147.876 1.676 1.055.602.203.876.312 1.064.77.214.521.017 1.091-.588 1.692-1.139 1.133-3.126 1.735-3.893 1.413-.933-.39-1.014-1.132-.978-2.734.016-.699.032-1.421-.143-2.085-.266-1.011-1.108-2.457-2.084-4.131-1.37-2.352-3.664-6.29-2.756-7.334ZM220.777 82.818c.366.086.724.128 1.068.128 1.475 0 2.699-.771 3.261-2.124.228-.546.216-1.121.206-1.628-.008-.391-.016-.76.083-1.047.119-.349.367-.987.68-1.793 2.938-7.57 3.55-10.024 2.731-10.941-.622-.698-2.662-1.331-4.044-1.251-1.066.06-1.593.502-1.848.862-1.128 1.599-5.05 12.517-5.181 14.423-.118 1.715 1.441 2.994 3.043 3.371Zm3.445-16.87c.046-.065.215-.151.543-.182.085-.008.174-.012.264-.012.97 0 2.165.428 2.522.676.169 1.262-2.183 7.324-2.967 9.346a64.493 64.493 0 0 0-.702 1.854c-.19.555-.179 1.109-.169 1.598.008.383.015.746-.083.981-.575 1.383-2.048 1.154-2.485 1.052-.935-.22-1.868-.918-1.814-1.705.114-1.659 3.908-12.216 4.892-13.609ZM149.022 99.223c-1.066 2.002 4.948 9.314 5.794 10 .344.279.756.393 1.194.393 1.356 0 2.958-1.088 3.546-1.725 1.368-1.482-2.9-7.764-3.083-8.03-2.239-3.274-3.293-3.391-3.964-3.127-.463.183-3.122 1.803-3.488 2.49Zm3.963-.95c1.254.569 5.214 7.064 5.278 8.65-.737.697-2.166 1.281-2.439 1.056-1.193-.967-5.245-6.686-5.354-8.013.444-.402 1.977-1.419 2.515-1.693ZM220.529 111.539c2.876-.434 3.552-7.202 1.349-7.66-5.815-1.211-6.551 2.558-5.718 5.314.279.925 3.053 2.545 4.369 2.346ZM172.613 109.738c1.952-1.309 2.055-5.183-.944-5.508-5.965-.648-3.184 8.277.944 5.508ZM236.163 82.745c3.845-.606 2.813-6.572-1.165-5.892-3.431.586-2.687 6.499 1.165 5.892ZM170.93 84.848c.305.241.748.542 1.23.542.07 0 .141-.006.212-.021 1.081-.209 2.589-1.458 3.292-2.726.452-.814.556-1.595.301-2.258-.31-.807-4.965-6.135-6.503-5.957-.838.101-3.367 2.504-3.319 3.631.051 1.219 3.224 5.552 4.787 6.787Zm-1.298-8.77c1.099.593 4.532 4.122 4.84 4.882.077.201.002.532-.207.908-.508.917-1.546 1.724-2.093 1.904-.991-.478-4.13-4.706-4.417-5.725.209-.456 1.333-1.596 1.877-1.969ZM166.998 96.078c1.982-1.136 2.36-4.421-.061-5.722-6.098-3.277-5.723 9.037.061 5.722ZM193.059 82.697c2.919-2.451-.288-8.107-4.889-7.137-7.78 1.641-3.372 14.075 4.889 7.137ZM151.656 84.556c-1.461-6.463-7.479-5.458-9.114-.749-2.127 6.123 10.936 8.814 9.114.749ZM246.533 104.357c-3.937 1.298.369 8.811 3.561 4.809 2.558-3.208-.534-5.807-3.561-4.809ZM223.148 95.042c1.62-1.638 1.009-4.099-1.885-3.941-4.469.244-1.049 6.908 1.885 3.941ZM254.036 99.111c4.89 2.679 6.634-7.527 1.043-7.052-1.834.156-4.486 5.167-1.043 7.052Z" class="cls-2"/>
  <path d="M272.877 153.824a.8.8 0 0 0 0-.582v-23.308c0-5.788-4.708-10.497-10.496-10.497h-123.78c-5.788 0-10.496 4.709-10.496 10.497v78.026c0 5.787 4.708 10.495 10.496 10.495h10.9c.066.017.132.039.201.039s.134-.022.201-.039h112.478c5.788 0 10.496-4.708 10.496-10.495v-54.135Zm-143.172-14.391h7.866l-7.866 7.866v-7.866Zm8.371 77.395c-4.661-.274-8.371-4.141-8.371-8.869v-2.5l.007-.005 8.364-8.365v19.738Zm0-22.001-8.371 8.372v-31.651l8.284 8.284c.026.026.059.036.087.058v14.938Zm0-17.172-7.888-7.887 7.888-7.888v15.775Zm0-18.037-8.371 8.371v-11.505h8.371v3.134Zm0-4.734h-8.371v-5.322l8.371-8.371v13.693Zm98.527 61.971v-4.707l4.707 4.707h-4.707Zm11.193 0h-4.452v-24.66l5.432 5.432.017 18.185c0 .014.007.026.008.04l-1.004 1.004Zm1.756-44.602a.8.8 0 0 0-.799.8l.02 22.309-5.116-5.116a.78.78 0 0 0-.313-.185v-28.62a.8.8 0 1 0-1.6 0v53.585l-5.027-5.027c-.033-.033-.076-.049-.113-.075v-18.963a.8.8 0 0 0-1.6 0v25.894h-83.335l7.09-7.107v-6.581l.3.183 8.767-2.258.017-9.349-6.106-3.65-8.669 2.261v9.342l4.093 2.496v6.895l-7.752 7.77h-8.906l7.796-7.09v-37.923a.8.8 0 1 0-1.6 0v14.362l-7.023 7.024v-36.744h18.377v-17.051h89.416l-7.944 7.944a.8.8 0 0 0 1.13 1.131l8.901-8.901c.052-.052.081-.114.116-.175h2.794l-.191 25.552 9.309 9.185v28.897l-2.553 2.554-2.279-2.279.074-11.545a.8.8 0 0 0-.795-.805h-.005a.8.8 0 0 0-.8.795l-.064 9.965-4.788-4.788-.022-23.911a.799.799 0 0 0-.8-.799Zm-90.207 21.037-3.449-2.021 5.596-1.46 3.482 2.082-5.628 1.399Zm6.895-.066-.012 6.627-6.211 1.599v-6.679l6.223-1.546Zm-7.823 1.376v6.484l-3.751-2.287v-6.393l3.751 2.197Zm-18.741 20.845v-19.954l7.023-7.024v20.592l-7.023 6.387Zm0-62.73v-13.283h13.283l-13.283 13.283Zm15.179-12.915a.769.769 0 0 0 .195-.367h1.403v15.451h-16.682l15.084-15.084Zm103.938 13.909-.076 9.423 9.309 9.185v24.307l-4.843 4.843V173.5l-9.303-9.18.115-15.409 4.798 4.798Zm-4.781-6.98.054-7.297h4.842l-.097 12.032-4.609-4.609c-.056-.056-.124-.091-.191-.127Zm3.888 60.022-7.51 7.51-.014-15.033 7.523 7.523Zm13.377 1.208c0 4.905-3.991 8.896-8.896 8.896h-12.323l19.277-19.278a.775.775 0 0 0 .095-.095l1.848-1.848v12.325Zm0-14.586-1.651 1.651v-23.376l-9.303-9.18.058-7.172 10.896 10.896v27.18Zm0-29.443-10.878-10.878.081-10.042 10.798 10.798v10.122Zm0-12.385-10.654-10.655c-.037-.037-.084-.055-.126-.083l.011-1.375h10.769v12.113Zm0-13.712H129.705v-7.899c0-4.906 3.991-8.897 8.896-8.897h123.78c4.905 0 8.896 3.992 8.896 8.897v7.899Z" class="cls-2"/>
  <path d="M224.669 173.712a.83.83 0 0 1-.189-.313c-.379-1.578-1.645-4.435-2.882-6.503l-.148-.248-.026-.009c.038-.107.113-.263.258-.45.581-.756 1.229-1.655 1.867-2.539.49-.68.975-1.35 1.414-1.937l.374-.499-.392-.484c-1.443-1.787-4.606-4.787-5.565-5.626l-.425-.373-.493.277c-1.267.711-3.36 2.137-4.667 3.177l-.135.138c-.081.071-.508.15-.919-.043-1.276-.793-3.961-1.916-6.113-2.555l-.154-.045-.079.008c-.064-.066-.178-.246-.211-.536-.196-1.686-.743-4.278-1.183-5.968l-.156-.599h-.618c-2.715 0-4.849.033-7.367.113l-.634.021-.125.622c-.358 1.781-.845 4.499-1.08 6.143a.262.262 0 0 1-.112.095c-1.631.398-4.629 1.656-6.825 2.864l-.174.132c-.054.029-.282.042-.562-.141-.415-.227-.911-.507-1.443-.808-1.438-.813-3.067-1.735-4.153-2.207l-.517-.224-.386.411c-1.476 1.572-2.831 2.896-4.143 4.048l-.464.407.276.552c.702 1.403.721 1.441 3.027 5.729-1.06 2.099-2.215 4.784-2.644 6.162l-.038.123.002.128c.004.27-.41.807-1.052 1.006l-.327.104c-1.722.55-3.209 1.025-5.605 2.057l-.49.211.006.533c.007.616 0 1.232-.005 1.849-.012 1.234-.024 2.511.069 3.782l.037.499.464.186c1.406.562 4.179 1.572 6.183 2.251l.198.066c.381 1.791 1.719 4.989 3.063 7.314l.048.081c.005.098-.031.307-.157.513-.908 1.494-1.924 3.479-2.861 5.589l-.224.503 2.002 2.001c.928.928 1.856 1.856 2.789 2.78l.426.422.524-.29a256.814 256.814 0 0 0 4.905-2.83l.095-.065c.468-.379 1.072-.421 1.248-.318 1.246.732 4.63 2.059 5.945 2.525l.885 3.439a.8.8 0 1 0 1.548-.398l-1.105-4.301-.437-.127c-.603-.177-4.745-1.765-6.024-2.517-.81-.479-2.096-.301-3.016.412-1.412.834-3.18 1.856-4.297 2.487a745.96 745.96 0 0 1-2.355-2.352l-1.224-1.223c.845-1.86 1.739-3.587 2.541-4.906.417-.684.57-1.665.094-2.283-1.25-2.179-2.528-5.227-2.881-6.912-.234-.715-.793-1.176-1.378-1.181a163.03 163.03 0 0 1-5.473-1.983c-.054-1.046-.044-2.113-.034-3.149.004-.449.009-.897.008-1.346 2.038-.857 3.346-1.275 4.972-1.795l.32-.103c1.197-.37 2.102-1.387 2.168-2.409.458-1.421 1.65-4.153 2.697-6.178l.194-.375-.2-.372c-2.131-3.962-2.441-4.537-2.93-5.508a62.195 62.195 0 0 0 3.395-3.325c1.004.487 2.368 1.259 3.498 1.898.54.305 1.043.59 1.404.784.796.53 1.808.522 2.42-.005 2.051-1.118 4.878-2.306 6.383-2.674.743-.218 1.276-.871 1.285-1.549.213-1.374.607-3.599.938-5.295 2.042-.06 3.874-.088 6.058-.092.392 1.603.825 3.724.99 5.15.129 1.109.855 1.927 1.697 1.958 1.983.601 4.476 1.642 5.679 2.385 1.072.52 2.285.388 2.886-.293a43.015 43.015 0 0 1 3.896-2.694c1.062.975 3.242 3.067 4.552 4.573-.338.459-.693.952-1.052 1.449-.628.871-1.268 1.756-1.839 2.5-.531.689-.736 1.42-.563 2.005.083.282.254.519.484.682 1.114 1.904 2.261 4.497 2.596 5.895.144.531.577 1.208 1.188 1.437l.18.044c1.626.209 4.066.983 5.695 1.788-.008.441-.011 1.035-.015 1.673-.007 1.215-.016 2.695-.057 3.404-.455.301-2.051.947-4.586 1.486-.878.123-1.82.67-2.241 1.301l-.108.241c-.583 2.23-1.647 4.937-2.352 5.952-.415.689-.551 1.881-.314 2.772l.075.185c.84 1.506 1.935 3.582 2.61 4.941a114.04 114.04 0 0 0-3.078 3.169c-1.649-.636-4.641-1.98-5.755-2.55-1.684-.865-7.13 1.836-7.616 2.081-1.074.481-1.735 3.248-2.039 4.896a.8.8 0 1 0 1.575.289c.387-2.1.941-3.448 1.174-3.751 3.243-1.643 5.723-2.212 6.179-2.092 1.304.667 4.911 2.279 6.449 2.819l.511.179.355-.406c.642-.733 2.337-2.482 3.778-3.899l.409-.401-.249-.516c-.623-1.296-1.891-3.713-2.852-5.442-.104-.504-.009-1.172.131-1.404.772-1.112 1.864-3.834 2.515-6.256.205-.213.678-.47 1.121-.534 3.812-.808 5.792-1.713 5.885-2.688.062-.644.072-2.303.08-3.768.006-.915.01-1.738.026-2.125l.022-.497-.436-.239c-1.727-.95-4.55-1.888-6.521-2.173ZM169.422 228.883l-12.774 3.329v13.727l8.81 5.373 12.92-3.329.011-5.675h15.065a.8.8 0 1 0 0-1.6h-15.062l.012-6.456-8.982-5.369Zm-4.589 20.173-6.586-4.016v-10.756l6.586 3.856v10.916Zm-5.382-15.921 9.726-2.535 6.36 3.802-9.774 2.43-6.312-3.697Zm17.329 13.608-10.348 2.665v-11.095l10.369-2.577-.021 11.007ZM244.428 232.212l-12.774-3.329-8.982 5.369.012 6.456h-15.277a.8.8 0 0 0 0 1.6h15.28l.011 5.675 12.921 3.329 8.81-5.373v-13.727Zm-9.786 17.196-10.348-2.665-.021-11.007 10.369 2.577v11.095Zm.67-12.576-9.773-2.43 6.36-3.802 9.725 2.535-6.312 3.697Zm7.516 8.208-6.586 4.016V238.14l6.586-3.856v10.756Z" class="cls-2"/>
</svg>
