<svg xmlns="http://www.w3.org/2000/svg" id="web_applications" data-name="web applications" viewBox="0 0 400 400">
  <defs>
    <style>
      .cls-2{fill:#13294b}
    </style>
  </defs>
  <path d="M201.811 255.804c48.59 0 87.979-39.39 87.979-87.979s-39.389-87.98-87.979-87.98-87.979 39.39-87.979 87.98 39.389 87.979 87.979 87.979" style="fill:#fff"/>
  <path d="M142.416 115.421c2.943 0 5.338-2.394 5.338-5.336s-2.395-5.335-5.338-5.335-5.338 2.394-5.338 5.335 2.395 5.336 5.338 5.336Zm0-9.072c2.061 0 3.738 1.676 3.738 3.736s-1.677 3.736-3.738 3.736-3.738-1.676-3.738-3.736 1.677-3.736 3.738-3.736ZM158.068 115.421c2.943 0 5.338-2.394 5.338-5.336s-2.395-5.335-5.338-5.335-5.338 2.394-5.338 5.335 2.395 5.336 5.338 5.336Zm0-9.072c2.061 0 3.738 1.676 3.738 3.736s-1.677 3.736-3.738 3.736-3.738-1.676-3.738-3.736 1.677-3.736 3.738-3.736ZM173.719 115.421c2.943 0 5.338-2.394 5.338-5.336s-2.395-5.335-5.338-5.335-5.338 2.394-5.338 5.335 2.395 5.336 5.338 5.336Zm0-9.072c2.061 0 3.738 1.676 3.738 3.736s-1.677 3.736-3.738 3.736-3.738-1.676-3.738-3.736 1.677-3.736 3.738-3.736Z" class="cls-2"/>
  <path d="M278.597 231.559V112.767c0-8.395-6.83-15.224-15.226-15.224H139.178c-8.396 0-15.226 6.83-15.226 15.224v24.612a.795.795 0 0 0 0 .641v30.029a.805.805 0 0 0 0 .61v61.353a.788.788 0 0 0 0 .374v1.172c0 8.396 6.83 15.227 15.226 15.227h124.193c8.396 0 15.226-6.83 15.226-15.227Zm-36.903 13.627 31.247-31.247.011-.011 4.045-4.045v13.17c-.022.018-.048.025-.068.045l-22.087 22.087h-13.148Zm-7.076-14.907a.8.8 0 0 0-.8.8v14.106h-7.255v-18.924a.8.8 0 0 0-1.6 0v18.924h-7.233v-10.534a.8.8 0 0 0-1.6 0v10.534h-6.521v-18.924a.8.8 0 0 0-1.6 0v18.924h-7.116v-14.106a.8.8 0 0 0-1.6 0v14.106h-5.697v-18.924a.8.8 0 0 0-1.6 0v18.924h-5.231v-14.106a.8.8 0 0 0-1.6 0v14.106h-3.791l-.012-33.229h57.716a.775.775 0 0 0 .422-.138l2.012 2.062v28.957c0 .079.024.151.045.223l-2.071 2.071c-.016.016-.021.037-.036.054h-4.033v-14.106a.8.8 0 0 0-.8-.8Zm-88.025-4.207-6.194 6.466.013-16.89 6.165-6.159.016 16.584Zm1.601.643-.061-62.335a.8.8 0 0 0-1.599.002l.041 42.846-6.161 6.156.05-65.16h24.95l-9.54 9.437a.794.794 0 0 0-.157.902.773.773 0 0 0 .179.288l17.383 17.507.003.004.004.003 6.466 6.513.004 10.087-4.969 4.927v-12.905l-23.037-22.594a.8.8 0 1 0-1.12 1.142l22.557 22.124v13.785c0 .01.005.019.006.029l-16.079 15.945v-17.285l1.505.919 9.414-2.426.019-10.033-6.554-3.918-9.309 2.427v10.027l3.325 2.028.002 30.796-17.475 17.108c-.02.019-.028.045-.045.066a13.514 13.514 0 0 1-5.693-1.822l15.891-16.589Zm42.802-103.439.083 34.244-17.226 17.145-16.299-16.416 24.452-24.187v19.232l-4.279 4.183a.8.8 0 1 0 1.118 1.144l4.761-4.654v-30.691h7.39Zm48.716 0-12.436 12.436-6.572-6.534.002-5.903h19.006Zm7.558 0-.293 39.542-.003.337 14.53 14.361v4.687l-18.417-18.187c-.007-.042-.012-.085-.025-.125l.226-31.981v-.064l.061-8.571h3.92Zm15.834 98.238v-44.665l-14.524-14.356.196-26.512 8.404 8.322-.127 15.955 14.53 14.362v38.416l-8.479 8.478Zm-7.16 7.16-12.832 12.832V215.52l12.832 13.154Zm1.131-1.131-3.914-4.012v-17.226a.8.8 0 0 0-1.6 0v15.586l-8.449-8.661v-46.94l18.393 18.164v38.66l-4.43 4.43Zm-88.747-20.992 11.429-11.334.006 15.682-11.435 11.156v-15.504Zm30.095-12.74a.8.8 0 0 0-1.131-.014l-15.931 15.542-.006-15.708 20.536-20.365 30.819 31.592-5.226 5.226a.799.799 0 0 0-.177.271h-44.699l15.8-15.415a.8.8 0 0 0 .014-1.131Zm-17.071-11.594-6.371-6.417 14.909-14.839 10.886 11.159-19.42 19.258-.003-9.161Zm60.16 13.841-7.67 7.67-.958-.982c.002-.024.014-.045.014-.07v-20.124l6.008-1.549.019-10.033-6.028-3.604c.005-.035.021-.066.021-.102l.018-24.782 8.741-8.668-.216 30.502-.003.338.056.055v31.348Zm-9.387-27.288 3.946 2.358-6.286 1.592-3.893-2.325 6.234-1.624Zm-7.464 2.753 4.192 2.504v7.139l-4.192-2.557v-7.085Zm5.792 2.678 6.869-1.74-.014 7.302-5.132 1.323c-.027-.003-.05-.016-.078-.016a.775.775 0 0 0-.439.149l-1.207.311v-7.329Zm11.239-42.656-9.315 9.238-3.966-3.942 13.338-13.338-.057 8.043Zm-10.362 35.779-8.268 2.155v10.029l6.431 3.922 1.807-.466v18.156l-28.271-28.981 28.306-28.07-.017 23.194c0 .021.01.039.012.061Zm2.498 38.679 4.246 4.353h-8.599l4.353-4.353Zm1.131-1.131 6.553-6.553v13.27l-6.553-6.718Zm23.699-45.278.109-13.72 3.049 3.02-.079 9.301 14.768 14.608a.789.789 0 0 0 .492.217v34.653c-.053.033-.11.058-.156.104l-3.659 3.659v-37.485l-14.524-14.357Zm4.896-27.052 1.114 1.114a.786.786 0 0 0 .282.282l12.041 12.041.005.003v15.695l-13.576-13.444.133-15.691Zm13.443 31.387v7.111l-13.654-13.506.06-7.067 13.595 13.463Zm-9.663-29.869h9.663v9.663l-9.663-9.663Zm9.663-1.6h-11.263l-2.161-2.161.059-7.022h13.365v9.184Zm-15.162 14.202-3.051-3.021.162-20.365h3.086l-.198 23.386Zm-4.638-4.593-8.405-8.324.078-10.469h8.478l-.15 18.793Zm-25.956-.16-29.33 29.085-10.888-11.161 1.657-1.65-.085-34.907h26.511l-.002 6.568 12.136 12.065Zm-49.235-10.097-14.395 14.239v-22.774h14.395v8.535Zm-15.995 14.812h-25.546v-.475c.066-.036.132-.069.187-.124l22.749-22.749h2.61v23.348Zm-27.172 34.747-12.777-12.777 12.796-12.796-.02 25.573Zm.021-27.839-13.309 13.309v-18.617h13.313l-.004 5.308Zm-13.308-6.908v-8.664l13.331-13.331-.017 21.995h-13.314Zm14.915-2.678.016-20.67h20.654l-20.67 20.67Zm-14.915-8.25v-12.42h12.42l-12.42 12.42Zm13.145 47.795c.042.042.093.063.141.093l-.024 31.398-13.261 13.25v-57.886l13.145 13.145Zm20.883 6.331 6.869-1.741-.014 7.302-6.855 1.766v-7.327Zm-.668-1.482-3.894-2.325 6.235-1.626 3.945 2.359-6.285 1.592Zm-5.124-1.196 4.192 2.503v7.138l-4.192-2.557v-7.084Zm3.327 41.479v-10.952l9.613-9.534v37.049h-26.53l16.917-16.562Zm11.213-4.334 11.435-11.156.012 32.053h-11.447V224.29Zm-29.15-125.147h124.193c7.514 0 13.626 6.112 13.626 13.625v8.911h-34.375c-.021-.002-.039-.013-.061-.013-.028 0-.049.011-.075.013h-22.512c-.023-.002-.044-.014-.068-.014s-.044.012-.068.014h-36.966c-.023-.002-.044-.014-.068-.014s-.044.012-.068.014H125.55v-8.911c0-7.513 6.113-13.625 13.626-13.625Zm-13.626 132.417v-1.063l13.26-13.248-.013 16.962-7.844 8.189c-3.275-2.491-5.403-6.417-5.403-10.84Zm137.819 13.627h-6.268l19.894-19.894v6.267c0 7.514-6.112 13.627-13.626 13.627Z" class="cls-2"/>
  <path d="M240.786 117.235h11.353c.078.026.158.049.244.049s.166-.024.244-.049h11.307v-4.653h2.829v-7.329h-7.328v7.329h2.899v3.054h-9.152v-3.054h2.841v-7.329h-7.328v7.329h2.888v3.054h-9.198v-3.054h2.9v-7.329h-7.329v7.329h2.829v4.653Zm20.25-10.382h4.129v4.129h-1.713a.796.796 0 0 0-.634 0h-1.783v-4.129Zm-10.74 0h4.129v4.129h-4.129v-4.129Zm-10.739 0h4.13v4.129h-4.13v-4.129ZM151.525 158.286a4.193 4.193 0 1 0-8.384 0c0 2.317 1.877 4.195 4.192 4.195s4.192-1.879 4.192-4.195ZM202.042 193.803a4.194 4.194 0 0 0 0-8.389c-2.315 0-4.192 1.877-4.192 4.194s1.877 4.195 4.192 4.195ZM192.716 215.83c-2.315 0-4.192 1.877-4.192 4.194s1.877 4.195 4.192 4.195a4.194 4.194 0 0 0 0-8.389ZM208.874 215.83c-2.315 0-4.192 1.877-4.192 4.194s1.877 4.195 4.192 4.195a4.194 4.194 0 0 0 0-8.389ZM225.715 215.83c-2.315 0-4.192 1.877-4.192 4.194s1.877 4.195 4.192 4.195a4.194 4.194 0 0 0 0-8.389ZM252.36 195.621c-2.315 0-4.192 1.877-4.192 4.194s1.877 4.195 4.192 4.195a4.194 4.194 0 0 0 0-8.389ZM105.407 294.421l-.421 2.694h-.023l-.398-2.648-3.311-10.712h-.914l-3.289 10.666-.388 2.694h-.023l-.365-2.648-2.878-10.712h-2.01l4.568 16.238h1.051l3.243-10.688.411-2.445h.114l.411 2.422 3.244 10.711h1.05l4.453-16.238h-1.827l-2.698 10.666zM115.916 292.365h6.236v-1.69h-6.236v-5.231h6.807v-1.689h-8.702v15.987h8.816v-1.69h-6.921v-5.687zM137.271 292.411a3.575 3.575 0 0 0-1.108-.754 5.581 5.581 0 0 0-1.313-.389v-.091a4.387 4.387 0 0 0 1.347-.594 3.686 3.686 0 0 0 1.485-2.009c.122-.396.183-.784.183-1.165 0-.792-.164-1.439-.491-1.941a3.537 3.537 0 0 0-1.245-1.177 5.022 5.022 0 0 0-1.679-.57c-.617-.1-1.222-.148-1.816-.148-.883 0-1.698.03-2.443.091-.747.062-1.401.138-1.964.229v15.736c.289.076.624.133 1.005.171.38.038.761.069 1.142.092.38.022.746.034 1.096.034h.914c.746 0 1.477-.091 2.192-.274a5.942 5.942 0 0 0 1.907-.845 4.386 4.386 0 0 0 1.348-1.473c.342-.602.514-1.313.514-2.136 0-.624-.099-1.165-.297-1.622a3.723 3.723 0 0 0-.776-1.164Zm-7.149-7.058c.213-.046.529-.08.948-.103.419-.023.879-.034 1.382-.034.426 0 .845.042 1.256.125.411.084.776.225 1.096.423s.575.461.765.788.286.742.286 1.244c0 .366-.073.705-.217 1.017a2.625 2.625 0 0 1-.594.822 4.212 4.212 0 0 1-.856.617c-.32.175-.662.323-1.028.445-.244.03-.548.053-.914.068-.365.015-.678.022-.937.022h-1.188v-5.436Zm5.904 11.283a2.83 2.83 0 0 1-.833.925c-.35.252-.753.435-1.21.549a5.828 5.828 0 0 1-1.416.171 19.55 19.55 0 0 1-1.348-.046c-.228-.015-.441-.03-.639-.045a2.446 2.446 0 0 1-.457-.069v-5.732h1.987c.502 0 1.005.038 1.507.114s.955.221 1.359.435c.403.213.731.51.982.891s.377.883.377 1.507c0 .503-.103.937-.309 1.302ZM153.282 283.504l-6.053 16.238h1.896l1.59-4.431h5.863l1.636 4.431h2.01l-6.075-16.238h-.868Zm2.728 10.163h-4.681l1.75-4.819.568-2.467h.023l.568 2.421 1.772 4.865ZM172.283 284.531a5.817 5.817 0 0 0-1.976-.754 11.452 11.452 0 0 0-2.135-.205c-.655 0-1.317.022-1.987.068s-1.294.137-1.873.274v15.827h1.896v-6.075c.076.016.206.03.388.046a14.042 14.042 0 0 0 1.108.045h.377c.792 0 1.561-.091 2.307-.273.746-.183 1.408-.483 1.987-.902s1.043-.963 1.394-1.633c.35-.67.525-1.492.525-2.467 0-.989-.187-1.805-.559-2.443a4.245 4.245 0 0 0-1.451-1.508Zm-.376 5.756c-.251.472-.583.837-.994 1.096s-.872.438-1.382.537a8.073 8.073 0 0 1-1.542.148h-.366c-.167 0-.342-.004-.525-.012l-.525-.022a1.172 1.172 0 0 1-.366-.058v-6.623a3.85 3.85 0 0 1 .868-.114c.365-.015.746-.022 1.142-.022.487 0 .975.053 1.462.159.487.107.925.286 1.313.537.388.251.7.586.936 1.005.236.419.354.94.354 1.564 0 .73-.125 1.333-.376 1.805ZM187.014 284.531a5.817 5.817 0 0 0-1.976-.754 11.452 11.452 0 0 0-2.135-.205c-.655 0-1.317.022-1.987.068s-1.294.137-1.873.274v15.827h1.896v-6.075c.076.016.206.03.388.046a14.042 14.042 0 0 0 1.108.045h.377c.792 0 1.561-.091 2.307-.273.746-.183 1.408-.483 1.987-.902s1.043-.963 1.394-1.633c.35-.67.525-1.492.525-2.467 0-.989-.187-1.805-.559-2.443a4.245 4.245 0 0 0-1.451-1.508Zm-.376 5.756c-.251.472-.583.837-.994 1.096s-.872.438-1.382.537a8.073 8.073 0 0 1-1.542.148h-.366c-.167 0-.342-.004-.525-.012l-.525-.022a1.172 1.172 0 0 1-.366-.058v-6.623a3.85 3.85 0 0 1 .868-.114c.365-.015.746-.022 1.142-.022.487 0 .975.053 1.462.159.487.107.925.286 1.313.537.388.251.7.586.936 1.005.236.419.354.94.354 1.564 0 .73-.125 1.333-.376 1.805ZM195.67 283.755h-1.895v15.987h9.456v-1.69h-7.561v-14.297zM207.981 283.755h1.896v15.987h-1.896zM224.642 298.12c-.511.138-1.108.206-1.793.206-.762 0-1.466-.137-2.113-.411s-1.21-.686-1.689-1.233-.856-1.233-1.131-2.056-.411-1.781-.411-2.878c0-1.218.145-2.245.434-3.083.289-.837.674-1.515 1.153-2.032a4.226 4.226 0 0 1 1.634-1.119 5.216 5.216 0 0 1 1.85-.343c1.355 0 2.398.183 3.129.548l.457-1.69a7.205 7.205 0 0 0-1.484-.399c-.579-.099-1.325-.148-2.238-.148-.854 0-1.69.152-2.513.457s-1.564.788-2.227 1.45-1.195 1.516-1.599 2.558c-.404 1.044-.605 2.312-.605 3.803 0 1.432.183 2.669.548 3.712s.86 1.899 1.484 2.569a5.899 5.899 0 0 0 2.193 1.496 7.338 7.338 0 0 0 2.694.491c.792 0 1.538-.069 2.238-.206s1.279-.38 1.736-.73l-.457-1.484c-.351.213-.78.388-1.29.524ZM234.817 283.504l-6.053 16.238h1.896l1.59-4.431h5.863l1.637 4.431h2.01l-6.075-16.238h-.868Zm2.728 10.163h-4.681l1.749-4.819.568-2.467h.023l.567 2.421 1.772 4.865ZM242.787 285.444h4.979v14.298h1.895v-14.298h4.98v-1.689h-11.854v1.689zM259.392 283.755h1.896v15.987h-1.896zM278.382 285.753a5.504 5.504 0 0 0-2.045-1.679c-.821-.396-1.796-.594-2.923-.594-2.086 0-3.692.712-4.819 2.136s-1.69 3.468-1.69 6.132c0 1.249.13 2.38.389 3.392.259 1.014.658 1.881 1.199 2.604a5.519 5.519 0 0 0 2.032 1.679c.814.396 1.778.594 2.89.594 2.102 0 3.719-.712 4.854-2.136 1.134-1.424 1.701-3.468 1.701-6.133 0-1.248-.13-2.379-.389-3.392-.259-1.012-.658-1.88-1.198-2.604Zm-1.634 10.963c-.807 1.073-1.918 1.61-3.334 1.61-.776 0-1.45-.179-2.021-.537-.571-.357-1.039-.837-1.404-1.438s-.636-1.298-.812-2.09a11.62 11.62 0 0 1-.262-2.513c0-2.238.399-3.894 1.198-4.967.8-1.074 1.899-1.61 3.301-1.61.791 0 1.473.179 2.044.536.571.358 1.043.838 1.416 1.439s.647 1.302.822 2.101c.175.8.263 1.634.263 2.501 0 2.238-.403 3.895-1.211 4.968ZM294.86 294.169l.252 2.193h-.115l-1.187-2.193-7.651-10.665h-1.005v16.238h1.781v-10.46l-.229-2.307h.092l1.234 2.307 7.605 10.711h1.005v-16.238h-1.782v10.414zM311.031 293.416c-.381-.563-.856-1.047-1.428-1.45s-1.191-.758-1.861-1.062-1.29-.612-1.861-.925-1.047-.666-1.428-1.062-.57-.891-.57-1.484c0-.608.251-1.138.753-1.587.503-.449 1.257-.674 2.262-.674.853 0 1.617.079 2.295.235.678.157 1.191.322 1.542.495l.57-1.689c-.426-.214-1.02-.389-1.781-.525a14.271 14.271 0 0 0-2.535-.206c-1.599 0-2.832.365-3.7 1.097-.867.73-1.302 1.721-1.302 2.969 0 .884.19 1.61.571 2.182a5.24 5.24 0 0 0 1.428 1.438c.57.389 1.191.72 1.861.993.67.274 1.29.567 1.861.88s1.047.67 1.428 1.073c.38.403.57.925.57 1.564 0 .457-.095.853-.285 1.188s-.445.613-.765.834c-.32.221-.701.381-1.143.479-.441.1-.913.148-1.416.148-.853 0-1.621-.093-2.307-.278-.686-.185-1.203-.374-1.553-.566l-.64 1.689c.411.214.989.408 1.735.583s1.69.263 2.832.263c.853 0 1.614-.107 2.284-.32s1.241-.518 1.713-.913c.472-.396.83-.868 1.073-1.416.244-.549.366-1.165.366-1.851 0-.837-.191-1.537-.571-2.101ZM201.96 127.25c-2.315 0-4.192 1.877-4.192 4.194s1.877 4.195 4.192 4.195a4.194 4.194 0 0 0 0-8.389ZM201.96 114.188a4.193 4.193 0 0 0 0-8.387c-2.315 0-4.192 1.877-4.192 4.194s1.877 4.193 4.192 4.193ZM201.96 148.699c-2.315 0-4.192 1.877-4.192 4.194s1.877 4.195 4.192 4.195a4.194 4.194 0 0 0 0-8.389ZM201.96 76.957a4.194 4.194 0 0 0 0-8.389c-2.315 0-4.192 1.877-4.192 4.194s1.877 4.195 4.192 4.195ZM201.96 95.572a4.194 4.194 0 0 0 0-8.389c-2.315 0-4.192 1.877-4.192 4.194s1.877 4.195 4.192 4.195Z" class="cls-2"/>
</svg>
