<svg xmlns="http://www.w3.org/2000/svg" id="storage" viewBox="0 0 400 400">
  <defs>
    <style>
      .cls-2{fill:#13294b}
    </style>
  </defs>
  <path d="M200.613 255.991c48.59 0 87.979-39.39 87.979-87.979s-39.389-87.98-87.979-87.98-87.979 39.39-87.979 87.98 39.389 87.979 87.979 87.979" style="fill:#fff"/>
  <path d="m265.599 187.448-.032-90.152c0-.072-.023-.137-.041-.203V81.636c0-.027-.013-.05-.015-.076a.778.778 0 0 0-.116-.42c-.003-.005-.009-.008-.013-.013a.787.787 0 0 0-.516-.505l-64.12-18.703c-.011-.003-.021 0-.032-.003-.052-.013-.105-.011-.159-.014-.051-.002-.101-.01-.15-.002-.046.007-.089.028-.134.043-.053.018-.107.033-.155.062-.01.006-.022.006-.032.013l-45.176 29.656a.797.797 0 0 0-.348.767c.005.118.03.231.083.334v14.677c0 .025.012.047.014.071a.8.8 0 0 0-.133.252c-.013.046-.007.091-.012.138l-19.65 12.888.01 47.701a.807.807 0 0 0 0 .273l.016 75.871 64.692 18.949c.108.06.226.101.357.105l.159.047.152-.1a.787.787 0 0 0 .286-.188l64.718-42.634.359-.237-.012-33.07.031-.021-.031-.048Zm-1.592 22.38-63.248 41.466v-9.585l63.245-41.638.004 9.757Zm-63.355-146.27 8.997 2.624-43.244 28.616-9.238-2.696 43.484-28.545Zm21.414 6.246-43.312 28.598-10.337-3.017 43.244-28.616 10.405 3.035Zm12.411 3.621-43.314 28.599-10.396-3.034 43.084-28.448c.069-.045.119-.107.169-.168l10.457 3.05Zm28.529 8.321-8.493 5.56-26.461-7.721 8.275-5.464c.05-.033.082-.08.122-.121l26.558 7.747Zm-62.247 103.417v-8.978l29.813-19.546v8.889l-29.813 19.635Zm-30.428-5.952v41.07l-10.497-3.061v-40.961l10.497 2.953Zm-13.706-71.656c-.01-.018-.011-.039-.023-.057a.773.773 0 0 0-.361-.283V93.5l9.732 2.84v13.946l-9.349-2.73Zm69.676-26.815 26.451 7.718-10.112 6.619-26.39-7.7 10.052-6.637Zm-27.142 126.925-27.229-7.951v-8.99l27.229 7.962v8.98Zm-27.229-6.286 27.226 7.951h.003v9.696l-27.229-7.962v-9.685Zm0-55.915 27.041 7.897a.82.82 0 0 0 .188.027v9.877l-27.229-7.951v-9.85Zm92.038-46.203.004 10.389-8.359 5.504v-10.423l8.355-5.47Zm-9.955 16.946-10.126 6.667-.002-10.466 10.128-6.63v10.429Zm-53.254 24.436 29.813-19.519v10.517l-29.813 19.631v-10.629Zm31.413-20.566 10.114-6.621.002 10.472-10.116 6.661v-10.511Zm-31.413 33.112 29.813-19.631v9.587l-29.813 19.628v-9.585Zm31.413-20.685 10.116-6.661.002 9.587-10.118 6.661v-9.588Zm11.716-7.714 10.125-6.667v9.589l-10.124 6.665-.002-9.587Zm-.003-14.294-.003-14.319 10.131-6.631v14.32l-10.128 6.631Zm-1.6 1.048-10.113 6.621v-14.323l10.111-6.618.003 14.32Zm-11.712 7.668-10.121 6.626v-14.324l10.121-6.625v14.323Zm-11.721-7.441v13.957l-25.386-7.414 14.621-9.552c.043-.028.069-.069.104-.103l10.661 3.111Zm-26.558 5.397v-13.147l13.911 4.06-13.911 9.088Zm26.019 10.07-18.447 12.078-26.643-7.777 18.479-12.072 26.611 7.772Zm-46.383 29.743 27.041 7.896a.82.82 0 0 0 .188.027v9.707l-27.229-7.981v-9.65Zm28.829 7.707 29.813-19.628v9.667l-29.813 19.546v-9.585Zm31.413-20.681 10.118-6.662.002 9.698-10.12 6.635v-9.671Zm11.72 1.987-.002-9.702 10.123-6.665v9.709c0 .007.004.013.004.02l-10.125 6.638Zm11.721-17.42 8.364-5.506.003 9.757-8.367 5.486v-9.736Zm8.363-7.42-8.363 5.506v-9.59l8.36-5.504.003 9.588Zm-.05-23.779-8.313 5.443v-14.32l8.313-5.442v14.319Zm-49.428-8.842 26.379 7.697-9.749 6.381-26.363-7.652 9.732-6.426Zm-11.484 7.583 26.352 7.649-9.94 6.506-26.249-7.66 9.837-6.495Zm-12.32 21.389-10.892-3.181c.003-.029.017-.054.017-.084v-13.86l10.875 3.174v13.951Zm-12.475-3.643-10.682-3.12c.014-.058.036-.114.036-.177V96.806l10.646 3.107v13.948Zm-.929 1.395-18.396 12.099-10.312-3.01 18.427-12.091 10.281 3.003Zm2.016.589 10.374 3.03-18.48 12.073-10.29-3.004 18.396-12.099Zm19.853 24.931v10.972l-27.229-7.952v-10.968l27.229 7.948Zm-27.229 27.521 27.229 7.981v9.379l-27.229-7.659v-9.701Zm27.048 18.972a.876.876 0 0 0 .182.025v9.724l-27.229-7.962v-9.395l27.047 7.608Zm-39.144 43.128 39.326 11.533v9.707l-39.326-11.57v-9.67Zm0-1.667v-9.846l39.326 11.469v9.91l-39.326-11.533Zm12.096-7.984v-8.016l27.229 7.962v7.995l-27.229-7.941Zm60.242-65.156 31.808-20.854.018 51.027-31.827-9.164v-21.009Zm-76.372-46.61 9.19 2.684-18.427 12.092-9.197-2.684 18.434-12.091Zm14.531 23.381v11.89a.79.79 0 0 0 0 .291v.025l-33.859 22.336-.009-44.428 33.868 9.886Zm0 14.123v31.064l-33.013-9.286 33.013-21.778Zm-12.097 29.323v74.008l-10.497-3.075v-73.886l10.497 2.953Zm1.6 65.928 39.326 11.57v8.499l-39.326-11.519v-8.549Zm40.925-54.657 15.569-10.253.01 41.087c0 .038.017.071.022.108l-15.601 10.273v-41.215Zm17.179 29.904-.01-41.067c0-.045-.018-.084-.026-.127l12.671-8.345v41.219l-12.635 8.32Zm14.234-38.718 31.007 8.928-31.007 20.417v-29.345Zm-95.7-8.578 9.665 2.719v73.868l-9.65-2.827-.015-73.76Zm64.287 91.705v-8.185l63.249-41.467.003 7.984-63.252 41.667Zm63.244-63.235-63.244 41.638v-9.585L264 188.569l.003 9.588ZM158.383 292.299c-.571-.403-1.191-.758-1.861-1.062s-1.291-.612-1.861-.925-1.047-.666-1.427-1.062c-.381-.396-.571-.891-.571-1.484 0-.608.251-1.138.754-1.587s1.256-.674 2.261-.674c.853 0 1.618.079 2.295.235.677.157 1.191.322 1.542.495l.571-1.689c-.426-.214-1.021-.389-1.781-.525a14.28 14.28 0 0 0-2.535-.206c-1.599 0-2.833.365-3.7 1.097-.868.73-1.302 1.721-1.302 2.969 0 .884.19 1.61.571 2.182.38.57.856 1.05 1.428 1.438.571.389 1.191.72 1.861.993.67.274 1.291.567 1.861.88s1.047.67 1.427 1.073.571.925.571 1.564c0 .457-.095.853-.286 1.188s-.445.613-.765.834-.701.381-1.142.479c-.441.1-.914.148-1.416.148-.853 0-1.622-.093-2.307-.278-.685-.185-1.203-.374-1.553-.566l-.639 1.689c.411.214.989.408 1.736.583.746.175 1.69.263 2.832.263.853 0 1.614-.107 2.284-.32s1.241-.518 1.713-.913a3.9 3.9 0 0 0 1.074-1.416c.243-.549.365-1.165.365-1.851 0-.837-.19-1.537-.571-2.101a5.605 5.605 0 0 0-1.428-1.45ZM163.83 285.777h4.979v14.298h1.895v-14.298h4.979v-1.689H163.83v1.689zM189.718 286.086a5.501 5.501 0 0 0-2.044-1.679c-.822-.396-1.796-.594-2.923-.594-2.086 0-3.692.712-4.819 2.136-1.127 1.424-1.69 3.468-1.69 6.132 0 1.249.129 2.38.389 3.392.258 1.014.658 1.881 1.199 2.604a5.522 5.522 0 0 0 2.033 1.679c.814.396 1.778.594 2.889.594 2.102 0 3.719-.712 4.854-2.136s1.702-3.468 1.702-6.133c0-1.248-.13-2.379-.389-3.392-.259-1.012-.659-1.88-1.199-2.604Zm-1.633 10.963c-.807 1.073-1.918 1.61-3.334 1.61-.776 0-1.45-.179-2.021-.537-.571-.357-1.04-.837-1.405-1.438s-.636-1.298-.811-2.09a11.62 11.62 0 0 1-.262-2.513c0-2.238.399-3.894 1.199-4.967.799-1.074 1.899-1.61 3.3-1.61.792 0 1.473.179 2.044.536a4.428 4.428 0 0 1 1.416 1.439c.373.602.647 1.302.822 2.101.175.8.262 1.634.262 2.501 0 2.238-.403 3.895-1.21 4.968ZM202.176 292.903c1.051-.259 1.919-.776 2.604-1.553.686-.776 1.028-1.789 1.028-3.038 0-.807-.146-1.491-.435-2.055s-.674-1.021-1.153-1.371c-.479-.35-1.035-.601-1.667-.753s-1.298-.229-1.998-.229c-.625 0-1.313.03-2.067.091-.754.062-1.42.146-1.998.252v15.827h1.896v-7.24l2.238.343 4.408 6.897h2.215l-3.974-6.326-1.097-.846Zm-2.009-1.324h-1.781v-5.893c.106-.03.247-.054.423-.068.175-.016.361-.03.56-.046a8.12 8.12 0 0 1 .616-.022h.616c1.005 0 1.789.267 2.353.799.563.533.846 1.211.846 2.033 0 1.096-.343 1.903-1.028 2.421-.685.518-1.553.776-2.604.776ZM215.743 283.837l-6.053 16.238h1.896l1.59-4.431h5.863l1.637 4.431h2.01l-6.075-16.238h-.868ZM218.471 294h-4.681l1.749-4.819.568-2.467h.023l.567 2.421 1.772 4.865ZM231.593 293.178l3.723.457v4.453c-.684.381-1.511.571-2.482.571a5.624 5.624 0 0 1-2.141-.399 4.33 4.33 0 0 1-1.674-1.211c-.463-.54-.823-1.222-1.081-2.044-.259-.822-.388-1.797-.388-2.924 0-1.233.16-2.269.479-3.105.32-.838.731-1.516 1.233-2.033.503-.518 1.069-.887 1.701-1.107s1.268-.331 1.907-.331c1.355 0 2.398.183 3.129.548l.48-1.69c-.411-.167-.914-.3-1.508-.399-.594-.099-1.348-.148-2.261-.148-.854 0-1.706.152-2.559.457s-1.621.788-2.307 1.45-1.241 1.519-1.667 2.569c-.427 1.051-.64 2.314-.64 3.791 0 1.416.175 2.646.525 3.688.35 1.044.837 1.904 1.462 2.581.624.678 1.362 1.181 2.215 1.508s1.789.491 2.81.491c.396 0 .803-.027 1.222-.08a8.948 8.948 0 0 0 1.211-.24c.388-.106.753-.235 1.096-.388s.636-.32.88-.503v-7.034h-5.367v1.073ZM244.017 292.698h6.236v-1.69h-6.236v-5.231h6.807v-1.689h-8.702v15.987h8.816v-1.69h-6.921v-5.687zM289.919 195.409a4.226 4.226 0 1 0 .001 8.451 4.226 4.226 0 0 0-.001-8.451ZM289.919 230.485c-2.333 0-4.225 1.893-4.225 4.228a4.226 4.226 0 1 0 8.45 0 4.227 4.227 0 0 0-4.225-4.228ZM289.919 212.949a4.226 4.226 0 1 0 .001 8.451 4.226 4.226 0 0 0-.001-8.451ZM289.919 168.786a4.227 4.227 0 0 0 0-8.455c-2.333 0-4.225 1.893-4.225 4.228s1.892 4.227 4.225 4.227ZM289.919 177.87c-2.333 0-4.225 1.893-4.225 4.226s1.892 4.229 4.225 4.229 4.225-1.893 4.225-4.229-1.892-4.226-4.225-4.226Z" class="cls-2"/>
  <path d="M240.221 160.331a4.226 4.226 0 1 0 0 8.451 4.226 4.226 0 0 0 0-8.451ZM273.356 160.331c-2.335 0-4.228 1.892-4.228 4.225s1.893 4.225 4.228 4.225a4.226 4.226 0 1 0 0-8.45ZM256.788 160.331a4.226 4.226 0 1 0 0 8.451 4.226 4.226 0 0 0 0-8.451ZM111.396 102.128a4.227 4.227 0 0 0 0 8.453 4.226 4.226 0 0 0 0-8.453ZM111.396 67.05a4.227 4.227 0 0 0 0 8.455c2.333 0 4.225-1.893 4.225-4.228s-1.892-4.227-4.225-4.227ZM111.396 84.589a4.227 4.227 0 0 0 0 8.453 4.226 4.226 0 0 0 0-8.453ZM111.396 137.204a4.227 4.227 0 0 0 0 8.455c2.333 0 4.225-1.893 4.225-4.228s-1.892-4.227-4.225-4.227ZM111.396 119.665c-2.333 0-4.225 1.893-4.225 4.229a4.224 4.224 0 1 0 8.45 0 4.229 4.229 0 0 0-4.225-4.229ZM161.095 145.66a4.226 4.226 0 1 0 0-8.451 4.226 4.226 0 0 0 0 8.451ZM127.96 137.21c-2.334 0-4.227 1.892-4.227 4.225s1.893 4.225 4.227 4.225 4.228-1.892 4.228-4.225-1.893-4.225-4.228-4.225ZM144.529 145.66a4.226 4.226 0 1 0 0-8.451 4.226 4.226 0 0 0 0 8.451Z" class="cls-2"/>
</svg>
