<svg xmlns="http://www.w3.org/2000/svg" id="libraries" viewBox="0 0 400 400">
  <defs>
    <style>
      .cls-2{fill:#13294b}
    </style>
  </defs>
  <path d="M205.771 256.008c48.59 0 87.979-39.39 87.979-87.979s-39.389-87.98-87.979-87.98-87.979 39.39-87.979 87.98 39.389 87.979 87.979 87.979" style="fill:#fff"/>
  <path d="m247.198 197.818-.787-.012a108.166 108.166 0 0 0-2.955-.005v-5.503l-.785-.015a84.977 84.977 0 0 0-1.662-.016c-26.104 0-33.197 11.532-34.752 15.044-1.582-3.589-8.925-15.549-36.417-15.029l-.785.015v5.508c-.966-.011-1.94-.017-2.955 0l-.788.012v5.837h-3.742v53.853h44.277v.099l.128-.099h.559l.128.099v-.099h44.526v-53.853h-3.991v-5.837Zm-1.6 1.578v49.207c-2.021-.168-7.28-.506-13.594-.128-3.624.217-7.968.703-12.366 1.706 11.316-3.907 22.877-4.26 23.038-4.264l.779-.02v-46.493c.705-.008 1.411-.014 2.143-.008Zm-38.151 9.254c.219-.622 1.599-4.116 6.043-7.514 4.462-3.411 12.953-7.429 28.366-7.264v50.475c-4.03.193-22.205 1.524-34.409 10.054V208.65Zm-36.793-14.778c.271-.003.539-.004.807-.004 27.642 0 33.146 13.505 33.603 14.782v45.75c-12.204-8.528-30.379-9.86-34.409-10.054v-50.475Zm-3.742 5.524c.732-.006 1.439 0 2.143.008v46.493l.779.02c.161.004 11.722.357 23.037 4.264-4.398-1.002-8.742-1.488-12.365-1.705-6.313-.378-11.572-.04-13.594.128v-49.207Zm-3.742 5.858h2.143v45.119l.888-.099c.238-.026 23.243-2.447 37.728 5.633h-40.758v-50.653Zm86.42 0v50.653h-41.008c14.484-8.08 37.49-5.659 37.728-5.633l.888.099v-45.119h2.392Z" class="cls-2"/>
  <path d="M172.663 234.83c-.431.005-.81.335-.823.775a.8.8 0 0 0 .775.824c.189.006 19.015.686 29.965 10.629.153.14.346.208.538.208a.8.8 0 0 0 .538-1.392c-11.395-10.347-30.199-11.021-30.994-11.045ZM172.663 223.955c-.431.009-.81.334-.823.775a.8.8 0 0 0 .775.824c.189.006 19.015.686 29.965 10.629.153.14.346.208.538.208a.8.8 0 0 0 .538-1.392c-11.395-10.347-30.199-11.021-30.994-11.045ZM172.663 212.858c-.431.004-.81.335-.823.775a.8.8 0 0 0 .775.824c.189.006 19.015.686 29.965 10.629.153.14.346.208.538.208a.8.8 0 0 0 .538-1.392c-11.395-10.347-30.199-11.021-30.994-11.045ZM172.663 201.76c-.431-.002-.81.335-.823.775a.8.8 0 0 0 .775.824c.189.006 19.015.686 29.965 10.629.153.14.346.208.538.208a.8.8 0 0 0 .538-1.392c-11.395-10.347-30.199-11.021-30.994-11.045ZM240.138 234.729c-.795.023-19.6.698-30.994 11.045a.8.8 0 1 0 1.076 1.184c10.951-9.943 29.776-10.623 29.966-10.629a.8.8 0 0 0 .775-.824c-.014-.44-.385-.754-.823-.775ZM240.138 223.854c-.795.023-19.6.698-30.994 11.045a.8.8 0 1 0 1.076 1.184c10.951-9.943 29.776-10.623 29.966-10.629a.8.8 0 0 0 .775-.824c-.014-.44-.385-.755-.823-.775ZM240.138 212.756c-.795.023-19.6.698-30.994 11.045a.8.8 0 1 0 1.076 1.184c10.951-9.943 29.776-10.623 29.966-10.629a.8.8 0 0 0 .775-.824c-.014-.44-.385-.754-.823-.775ZM240.138 201.659c-.795.023-19.6.698-30.994 11.045a.8.8 0 1 0 1.076 1.184c10.951-9.943 29.776-10.623 29.966-10.629a.8.8 0 0 0 .775-.824c-.014-.44-.385-.752-.823-.775ZM282.427 132.336c-.003-.01-.01-.016-.014-.026l.002-6.803a.793.793 0 0 0 .041-.53c-.008-.029-.029-.049-.04-.076l.008-35.791-27.197-17.835a.787.787 0 0 0-.713-.068l-26.152 7.68a.785.785 0 0 0-.504.47c-.024.048-.035.1-.049.153-.005.025-.013.049-.015.074-.006.041-.024.078-.024.121l-.006 16.794h-43.683l-.006-16.763c0-.042-.018-.078-.024-.118-.002-.029-.011-.054-.017-.082-.013-.051-.024-.1-.046-.146a.786.786 0 0 0-.504-.471l-26.147-7.678a.786.786 0 0 0-.717.066l-27.198 17.835.008 35.791c-.011.027-.032.047-.04.076a.785.785 0 0 0 .04.529v6.806c-.002.009-.009.015-.011.024a.779.779 0 0 0 .013.444l.002 7.826 26.883 7.876c.027.012.057.016.086.025l.375.11 27.316-17.996-.012-32.552h21.183v64.526a.8.8 0 1 0 1.6 0V98.101h20.899l-.011 32.521 27.316 17.997.386-.113c.024-.008.049-.011.072-.021l26.885-7.877.002-7.823a.78.78 0 0 0 .014-.447Zm-99.936-9.956-25.046 16.49v-5.429l25.044-16.492.002 5.431ZM157.17 72.859l24.474 7.187-25.114 16.446-24.494-7.15 25.135-16.483Zm14.934 23.252v-7.906l5.049-3.306v7.67c0 .068.023.129.039.192l-5.088 3.35Zm6.633-12.249 3.739-2.448.003 7.867-3.726 2.453V83.94c0-.028-.013-.051-.016-.078Zm-22.892 14.096v8.248l-24.82-7.305-.002-8.188 24.822 7.245Zm0 26.494-24.816-7.33-.002-7.376 24.818 7.33v7.376Zm-24.816-5.661 24.816 7.329v5.811l-24.815-7.275v-5.865Zm26.416 12.734v-5.597l25.042-16.49.002 5.595-25.044 16.492Zm-26.418-23.447-.002-7.508 24.82 7.305v7.534l-24.818-7.33Zm.004 18.245 24.814 7.275v5.71l-24.813-7.301v-5.685Zm15.709 11.975v5.743l-7.72-2.262v-5.753l7.72 2.271Zm1.6.47 7.505 2.208v5.731l-7.505-2.199v-5.741Zm34.146-31.245-25.041 16.49v-7.074l25.039-16.42.002 7.004Zm-25.041-9.718 5.794-3.794v7.881c0 .018.009.032.01.05l-5.804 3.822v-7.958Zm7.34-4.807 5.719-3.745v7.803c0 .034.015.063.019.096l-5.685 3.743v-7.632a.806.806 0 0 0-.053-.265Zm17.695-1.802.002 5.305h-8.059l8.057-5.305Zm-51.448 42.48 6.388 1.88v5.755l-6.387-1.871v-5.763Zm26.413 12.616v-5.508l25.047-16.49.002 5.497-25.049 16.501Zm25.037-47.685-25.038 16.42v-7.348l14.583-9.601c.038.006.073.023.113.023h10.342v.507Zm72.194-25.779 25.135 16.483-24.495 7.15-25.114-16.446 24.474-7.187Zm1.326 35.015 24.82-7.305-.002 7.509-24.818 7.33v-7.534Zm0 9.202 24.818-7.33-.002 7.376-24.816 7.329v-7.376Zm-1.6 14.449-25.045-16.492.002-5.594 25.043 16.491v5.596Zm1.6-5.405 24.815-7.329v5.865l-24.815 7.275v-5.811Zm24.82-27.219-24.82 7.305v-8.248l24.822-7.245-.002 8.188Zm-51.453-17.488 3.739 2.448c-.003.027-.016.05-.016.078v7.794l-3.726-2.453.003-7.868Zm5.323 11.156v-7.67l5.05 3.307v7.906l-5.089-3.35c.016-.063.039-.124.039-.193Zm6.65 4.486v-7.802l5.719 3.745a.78.78 0 0 0-.053.264v7.633l-5.686-3.743c.004-.033.02-.063.02-.097Zm7.265 4.837V93.98l5.795 3.795v7.958l-5.805-3.822c.001-.017.01-.032.01-.05Zm5.795 22.121-25.042-16.49.002-7.004 25.04 16.421v7.074Zm-25.045-7.065 25.045 16.493v5.429l-25.047-16.491.002-5.431Zm26.645 24.027 7.505-2.208v5.742l-7.505 2.199v-5.732Zm9.104-2.678 7.721-2.271v5.753l-7.721 2.262v-5.744Zm-9.104 1.011v-5.71l24.814-7.275v5.685l-24.814 7.3Zm-26.636-48.113 8.106 5.336h-8.107l.002-5.336Zm10.481 6.936c.015 0 .027-.008.041-.008l14.514 9.555v7.348l-25.039-16.42V98.1h10.484Zm-10.493 26.162 25.048 16.491v5.508l-25.05-16.502.002-5.497Zm45.073 17.017v-5.755l6.387-1.879v5.763l-6.387 1.871ZM227.921 170.922c0-2.333-1.893-4.225-4.229-4.225a4.224 4.224 0 1 0 0 8.45 4.229 4.229 0 0 0 4.229-4.225ZM206.156 192.902a4.227 4.227 0 0 0 0-8.455c-2.333 0-4.225 1.893-4.225 4.228s1.892 4.227 4.225 4.227ZM206.156 175.362a4.227 4.227 0 0 0 0-8.453 4.226 4.226 0 0 0 0 8.453ZM157.589 170.922a4.226 4.226 0 1 0-8.451.001 4.226 4.226 0 0 0 8.451-.001ZM135.823 166.697c-2.334 0-4.227 1.892-4.227 4.225a4.227 4.227 0 0 0 8.453 0 4.226 4.226 0 0 0-4.226-4.225ZM135.823 149.479c-2.334 0-4.227 1.892-4.227 4.225a4.227 4.227 0 0 0 8.453 0 4.226 4.226 0 0 0-4.226-4.225ZM175.126 170.922c0-2.333-1.893-4.225-4.226-4.225s-4.229 1.892-4.229 4.225 1.893 4.225 4.229 4.225 4.226-1.892 4.226-4.225ZM192.665 170.922c0-2.333-1.893-4.225-4.226-4.225s-4.229 1.892-4.229 4.225 1.893 4.225 4.229 4.225 4.226-1.892 4.226-4.225ZM262.997 170.922a4.227 4.227 0 0 0-8.453 0 4.226 4.226 0 0 0 8.453 0ZM276.307 166.697a4.226 4.226 0 1 0 0 8.451 4.226 4.226 0 0 0 0-8.451ZM276.307 149.479a4.226 4.226 0 1 0 0 8.451 4.226 4.226 0 0 0 0-8.451ZM245.46 170.922c0-2.333-1.893-4.225-4.229-4.225a4.224 4.224 0 1 0 0 8.45 4.229 4.229 0 0 0 4.229-4.225ZM150.55 283.963h-1.896v15.988h9.456v-1.691h-7.56v-14.297zM162.86 283.963h1.896v15.987h-1.896zM180.081 292.619a3.575 3.575 0 0 0-1.108-.754 5.581 5.581 0 0 0-1.313-.389v-.091a4.387 4.387 0 0 0 1.347-.594 3.686 3.686 0 0 0 1.485-2.009c.122-.396.183-.784.183-1.165 0-.792-.164-1.439-.491-1.941a3.537 3.537 0 0 0-1.245-1.177 5.022 5.022 0 0 0-1.679-.57c-.617-.1-1.222-.148-1.816-.148-.883 0-1.698.03-2.443.091-.747.062-1.401.138-1.964.229v15.736c.289.076.624.133 1.005.171.38.038.761.069 1.142.092.38.022.746.034 1.096.034h.914c.746 0 1.477-.091 2.192-.274a5.942 5.942 0 0 0 1.907-.845 4.386 4.386 0 0 0 1.348-1.473c.342-.602.514-1.313.514-2.136 0-.624-.099-1.165-.297-1.622a3.723 3.723 0 0 0-.776-1.164Zm-7.149-7.057c.213-.046.529-.08.948-.103.419-.023.879-.034 1.382-.034.426 0 .845.042 1.256.125.411.084.776.225 1.096.423s.575.461.765.788.286.742.286 1.244c0 .366-.073.705-.217 1.017a2.625 2.625 0 0 1-.594.822 4.212 4.212 0 0 1-.856.617c-.32.175-.662.323-1.028.445-.244.03-.548.053-.914.068-.365.015-.678.022-.937.022h-1.188v-5.436Zm5.904 11.282a2.83 2.83 0 0 1-.833.925c-.35.252-.753.435-1.21.549a5.828 5.828 0 0 1-1.416.171 19.55 19.55 0 0 1-1.348-.046c-.228-.015-.441-.03-.639-.045a2.446 2.446 0 0 1-.457-.069v-5.732h1.987c.502 0 1.005.038 1.507.114s.955.221 1.359.435c.403.213.731.51.982.891s.377.883.377 1.507c0 .503-.103.937-.309 1.302ZM192.026 292.779c1.05-.259 1.918-.776 2.604-1.553s1.028-1.789 1.028-3.038c0-.807-.145-1.491-.434-2.055s-.674-1.021-1.153-1.371a4.632 4.632 0 0 0-1.667-.753 8.521 8.521 0 0 0-1.999-.229c-.625 0-1.313.03-2.067.091-.754.062-1.42.146-1.999.252v15.827h1.896v-7.24l2.238.343 4.408 6.897h2.215l-3.974-6.326-1.096-.846Zm-2.01-1.325h-1.782v-5.893c.106-.03.248-.054.423-.068.175-.016.361-.03.56-.046.197-.015.403-.022.616-.022h.617c1.005 0 1.789.267 2.353.799.563.533.845 1.211.845 2.033 0 1.096-.343 1.903-1.028 2.421s-1.553.776-2.604.776ZM205.592 283.712l-6.053 16.238h1.896l1.59-4.431h5.863l1.637 4.431h2.01l-6.075-16.238h-.868Zm2.729 10.163h-4.681l1.749-4.819.568-2.467h.023l.567 2.421 1.772 4.865ZM222.31 292.779c1.051-.259 1.919-.776 2.604-1.553.686-.776 1.028-1.789 1.028-3.038 0-.807-.146-1.491-.435-2.055s-.674-1.021-1.153-1.371c-.479-.35-1.035-.601-1.667-.753s-1.298-.229-1.998-.229c-.625 0-1.313.03-2.067.091-.754.062-1.42.146-1.998.252v15.827h1.896v-7.24l2.238.343 4.408 6.897h2.215l-3.974-6.326-1.097-.846Zm-2.01-1.325h-1.781v-5.893c.106-.03.247-.054.423-.068.175-.016.361-.03.56-.046a8.12 8.12 0 0 1 .616-.022h.616c1.005 0 1.789.267 2.353.799.563.533.846 1.211.846 2.033 0 1.096-.343 1.903-1.028 2.421-.685.518-1.553.776-2.604.776ZM232.611 283.963h1.896v15.987h-1.896zM242.682 292.574h6.235v-1.691h-6.235v-5.23h6.807v-1.69h-8.702v15.988h8.816v-1.691h-6.921v-5.686zM262.107 292.174c-.571-.403-1.191-.758-1.861-1.062s-1.291-.612-1.861-.925a5.862 5.862 0 0 1-1.428-1.062c-.381-.396-.571-.891-.571-1.484 0-.608.252-1.138.754-1.587.503-.449 1.256-.674 2.261-.674.853 0 1.618.079 2.296.235.677.157 1.191.322 1.542.495l.57-1.689c-.426-.214-1.021-.389-1.781-.525a14.271 14.271 0 0 0-2.535-.206c-1.599 0-2.832.365-3.7 1.097-.867.73-1.302 1.721-1.302 2.969 0 .884.19 1.61.571 2.182.38.57.856 1.05 1.428 1.438.57.389 1.19.72 1.861.993.67.274 1.29.567 1.861.88a5.71 5.71 0 0 1 1.427 1.073c.381.403.571.925.571 1.564 0 .457-.095.853-.285 1.188s-.445.613-.766.834a3.2 3.2 0 0 1-1.142.479c-.441.1-.914.148-1.416.148-.853 0-1.622-.093-2.307-.278-.686-.185-1.203-.374-1.554-.566l-.639 1.689c.411.214.989.408 1.735.583s1.69.263 2.832.263c.853 0 1.614-.107 2.284-.32s1.24-.518 1.713-.913a3.898 3.898 0 0 0 1.073-1.416c.243-.549.365-1.165.365-1.851 0-.837-.19-1.537-.57-2.101a5.605 5.605 0 0 0-1.428-1.45Z" class="cls-2"/>
</svg>
