<svg xmlns="http://www.w3.org/2000/svg" id="databases" viewBox="0 0 400 400">
  <defs>
    <style>
      .cls-2{fill:#13294b}
    </style>
  </defs>
  <path d="M200.957 256.241c48.59 0 87.979-39.39 87.979-87.979s-39.389-87.98-87.979-87.98-87.979 39.39-87.979 87.98 39.389 87.979 87.979 87.979" style="fill:#fff"/>
  <path d="M148.546 286.226c-.609-.708-1.382-1.26-2.318-1.655-.937-.396-2.044-.594-3.323-.594-.32 0-.667.004-1.039.011l-1.142.023c-.388.007-.762.022-1.119.046-.358.022-.682.057-.971.103v16.01c.152.03.403.054.753.069.35.015.731.034 1.142.057s.811.038 1.199.046c.388.007.704.011.948.011 1.385 0 2.565-.231 3.54-.696.974-.464 1.766-1.081 2.375-1.85.609-.769 1.054-1.652 1.336-2.649s.422-2.036.422-3.118c0-1.188-.148-2.275-.445-3.266-.297-.989-.75-1.839-1.359-2.547Zm-.479 8.291a5.947 5.947 0 0 1-.925 2.124c-.434.616-1.013 1.107-1.736 1.474-.724.365-1.618.548-2.684.548-.077 0-.221-.004-.434-.012a95.836 95.836 0 0 0-.663-.022l-.662-.023a3.2 3.2 0 0 1-.434-.034v-12.79c.106-.015.255-.03.445-.045.19-.016.4-.031.628-.046.228-.016.46-.023.696-.023h.651c1.051 0 1.922.194 2.615.583a4.767 4.767 0 0 1 1.656 1.496c.411.608.7 1.29.868 2.044.167.754.251 1.504.251 2.249 0 .854-.091 1.679-.274 2.479ZM159.144 283.909l-6.053 16.238h1.896l1.59-4.431h5.863l1.636 4.431h2.01l-6.075-16.238h-.868Zm2.728 10.163h-4.681l1.75-4.819.568-2.467h.023l.568 2.421 1.772 4.865ZM167 285.849h4.979v14.298h1.895v-14.298h4.979v-1.689H167v1.689zM185.82 283.909l-6.053 16.238h1.896l1.59-4.431h5.863l1.636 4.431h2.01l-6.075-16.238h-.868Zm2.728 10.163h-4.681l1.75-4.819.568-2.467h.023l.568 2.421 1.772 4.865ZM205.782 292.816c-.32-.32-.689-.571-1.108-.754s-.856-.312-1.312-.389v-.091c.517-.138.966-.335 1.347-.594s.693-.56.937-.902a3.975 3.975 0 0 0 .732-2.272c0-.792-.164-1.439-.491-1.941a3.537 3.537 0 0 0-1.245-1.177 5.022 5.022 0 0 0-1.679-.57c-.616-.1-1.222-.148-1.815-.148-.883 0-1.698.03-2.443.091-.747.062-1.401.138-1.965.229v15.736c.289.076.624.133 1.005.171s.762.069 1.143.092a19 19 0 0 0 1.096.034h.914c.745 0 1.477-.091 2.192-.274a5.942 5.942 0 0 0 1.907-.845 4.386 4.386 0 0 0 1.348-1.473c.342-.602.514-1.313.514-2.136 0-.624-.1-1.165-.297-1.622a3.723 3.723 0 0 0-.776-1.164Zm-7.15-7.058c.214-.046.529-.08.948-.103.419-.023.879-.034 1.382-.034.426 0 .845.042 1.256.125.411.084.776.225 1.097.423.319.198.574.461.765.788s.286.742.286 1.244c0 .366-.073.705-.218 1.017a2.625 2.625 0 0 1-.594.822 4.185 4.185 0 0 1-.856.617 6.251 6.251 0 0 1-1.027.445c-.244.03-.548.053-.914.068-.365.015-.678.022-.937.022h-1.188v-5.436Zm5.904 11.282a2.823 2.823 0 0 1-.834.925c-.35.252-.753.435-1.21.549s-.929.171-1.416.171a19.55 19.55 0 0 1-1.348-.046c-.229-.015-.441-.03-.64-.045a2.446 2.446 0 0 1-.457-.069v-5.732h1.987c.503 0 1.005.038 1.508.114a4.22 4.22 0 0 1 1.358.435c.403.213.731.51.982.891s.377.883.377 1.507c0 .503-.104.937-.309 1.302ZM216.196 283.909l-6.053 16.238h1.896l1.59-4.431h5.863l1.637 4.431h2.01l-6.075-16.238h-.868Zm2.728 10.163h-4.681l1.749-4.819.568-2.467h.023l.567 2.421 1.772 4.865ZM234.227 292.37c-.57-.403-1.191-.758-1.861-1.062s-1.29-.612-1.861-.925a5.856 5.856 0 0 1-1.427-1.062c-.381-.396-.571-.891-.571-1.484 0-.608.251-1.138.754-1.587.502-.449 1.256-.674 2.261-.674.853 0 1.617.079 2.295.235.678.157 1.191.322 1.542.495l.571-1.689c-.427-.214-1.021-.389-1.781-.525a14.28 14.28 0 0 0-2.535-.206c-1.6 0-2.833.365-3.7 1.097-.868.73-1.302 1.721-1.302 2.969 0 .884.189 1.61.57 2.182.381.57.856 1.05 1.428 1.438s1.191.72 1.861.993c.67.274 1.291.567 1.861.88.571.312 1.047.67 1.428 1.073.38.403.571.925.571 1.564 0 .457-.096.853-.286 1.188s-.445.613-.765.834c-.32.221-.701.381-1.143.479-.441.1-.913.148-1.416.148-.853 0-1.621-.093-2.307-.278-.685-.185-1.203-.374-1.553-.566l-.64 1.689c.411.214.989.408 1.736.583.745.175 1.689.263 2.832.263.853 0 1.613-.107 2.283-.32s1.241-.518 1.713-.913a3.9 3.9 0 0 0 1.074-1.416c.243-.549.365-1.165.365-1.851 0-.837-.19-1.537-.571-2.101s-.856-1.047-1.428-1.45ZM242.986 292.77h6.235v-1.691h-6.235v-5.23h6.806v-1.689h-8.702v15.987h8.817v-1.691h-6.921v-5.686zM262.274 292.37c-.571-.403-1.191-.758-1.861-1.062s-1.291-.612-1.861-.925a5.862 5.862 0 0 1-1.428-1.062c-.381-.396-.571-.891-.571-1.484 0-.608.252-1.138.754-1.587.503-.449 1.256-.674 2.261-.674.853 0 1.618.079 2.296.235.677.157 1.191.322 1.542.495l.57-1.689c-.426-.214-1.021-.389-1.781-.525a14.271 14.271 0 0 0-2.535-.206c-1.599 0-2.832.365-3.7 1.097-.867.73-1.302 1.721-1.302 2.969 0 .884.19 1.61.571 2.182.38.57.856 1.05 1.428 1.438.57.389 1.19.72 1.861.993.67.274 1.29.567 1.861.88a5.71 5.71 0 0 1 1.427 1.073c.381.403.571.925.571 1.564 0 .457-.095.853-.285 1.188s-.445.613-.766.834a3.2 3.2 0 0 1-1.142.479c-.441.1-.914.148-1.416.148-.853 0-1.622-.093-2.307-.278-.686-.185-1.203-.374-1.554-.566l-.639 1.689c.411.214.989.408 1.735.583s1.69.263 2.832.263c.853 0 1.614-.107 2.284-.32s1.24-.518 1.713-.913a3.898 3.898 0 0 0 1.073-1.416c.243-.549.365-1.165.365-1.851 0-.837-.19-1.537-.57-2.101a5.605 5.605 0 0 0-1.428-1.45ZM130.034 144.809a4.102 4.102 0 1 0-8.205.003 4.102 4.102 0 0 0 8.205-.003Z" class="cls-2"/>
  <path d="M253.285 121.78c0-.061-.009-.121-.01-.182h16.847a6.164 6.164 0 0 0 5.312 5.312v11.798a.8.8 0 1 0 1.6 0V126.91a6.166 6.166 0 0 0-.8-12.282 6.165 6.165 0 0 0-6.112 5.371h-17.037c-2.04-9.207-20.401-16.679-44.285-18.093-.406-.004-.819.31-.846.751a.8.8 0 0 0 .752.846c24.139 1.429 42.979 9.287 42.979 18.277 0 10.206-22.545 18.509-50.257 18.509s-50.257-8.303-50.257-18.509c0-8.957 18.128-16.811 42.167-18.268a.8.8 0 1 0-.097-1.597c-23.802 1.443-41.46 8.92-43.474 18.105h-17.734a6.166 6.166 0 0 0-12.272.864 6.166 6.166 0 0 0 5.37 6.112v11.708a.8.8 0 1 0 1.6 0v-11.708a6.164 6.164 0 0 0 5.322-5.377h17.527c-.001.053-.009.106-.009.159 0 .136.019.27.026.405-.007.043-.026.082-.026.127v72.417c0 .016.008.029.009.045.078 4.477 3.748 8.561 9.978 11.854l37.408 44.921a5.44 5.44 0 0 0-1.395 3.639 5.47 5.47 0 0 0 10.938 0 5.442 5.442 0 0 0-1.356-3.597l38.322-45.023c6.15-3.276 9.777-7.328 9.87-11.768.002-.025.015-.047.015-.073v-72.417a.782.782 0 0 0-.087-.347c.001-.062.012-.123.012-.185Zm-22.497 16.672v12.625c0 .061.022.115.035.172-8.268 2.196-18.406 3.495-29.358 3.495-11.185 0-21.525-1.352-29.887-3.633 0-.012.007-.022.007-.034v-12.758c8.389 2.255 18.645 3.569 29.844 3.569 10.982 0 21.062-1.261 29.359-3.437Zm-60.803-.578v12.78c-11.461-3.395-18.813-8.596-18.813-14.42v-9.383c2.91 4.497 9.633 8.345 18.813 11.022Zm31.48 18.47c24.569 0 44.642-6.297 50.296-15.045v1.153c0 .007-.004.013-.004.019 0 10.206-22.561 18.509-50.292 18.509s-50.293-8.303-50.293-18.509v-1.166c5.66 8.744 25.73 15.038 50.293 15.038Zm50.296 18.032c0 .007-.004.013-.004.019 0 5.917-7.592 11.19-19.369 14.581V177.43c9.469-2.685 16.407-6.597 19.373-11.186v8.131Zm-50.296 6.913c10.964 0 21.031-1.255 29.323-3.421v11.447c0 .035.016.065.02.099-8.265 2.194-18.397 3.491-29.343 3.491-11.182 0-21.52-1.351-29.88-3.632v-11.557c8.397 2.258 18.667 3.574 29.88 3.574Zm50.296-25.938c0 .007-.004.013-.004.019 0 5.917-7.592 11.19-19.369 14.581v-11.23c9.469-2.685 16.407-6.597 19.373-11.186v7.815Zm-50.296 7.229c10.964 0 21.031-1.255 29.323-3.421v11.234c-8.262 2.19-18.386 3.486-29.323 3.486-11.182 0-21.52-1.351-29.88-3.632v-11.241c8.397 2.258 18.667 3.574 29.88 3.574Zm-31.48-4.018v11.228c-11.461-3.395-18.813-8.596-18.813-14.42v-7.828c2.91 4.496 9.633 8.342 18.813 11.02Zm31.48 16.916c24.569 0 44.642-6.297 50.296-15.045v.728c0 .007-.004.013-.004.019 0 10.206-22.561 18.509-50.292 18.509s-50.293-8.303-50.293-18.509v-.74c5.66 8.744 25.73 15.038 50.293 15.038Zm-31.48 1.793v11.545c-11.461-3.396-18.813-8.597-18.813-14.42v-8.144c2.91 4.496 9.633 8.342 18.813 11.02Zm31.48 17.233c24.569 0 44.642-6.297 50.296-15.045v2.288c0 .007-.004.013-.004.019 0 10.206-22.561 18.51-50.292 18.51s-50.293-8.304-50.293-18.51v-2.301c5.66 8.745 25.73 15.039 50.293 15.039Zm0 18.635c-11.182 0-21.52-1.351-29.88-3.632v-11.206c8.397 2.258 18.667 3.574 29.88 3.574 10.964 0 21.031-1.255 29.323-3.421v11.199c-8.262 2.19-18.386 3.486-29.323 3.486Zm-50.293-18.51v-7.793c2.91 4.496 9.633 8.342 18.813 11.02v11.193c-3.585-1.062-6.763-2.301-9.443-3.681a.793.793 0 0 0-.216-.112c-5.759-3.01-9.155-6.675-9.155-10.628Zm49.069 20.098v35.058a5.423 5.423 0 0 0-2.045.74l-35.198-42.266c9.173 3.897 22.341 6.341 37.243 6.469Zm3.694 35.828a5.437 5.437 0 0 0-2.094-.77v-35.05c15.256-.04 28.753-2.508 38.1-6.481l-36.006 42.301Zm28.453-41.344v-11.194c9.469-2.685 16.407-6.597 19.373-11.186v7.78c0 .007-.004.013-.004.019 0 5.917-7.592 11.19-19.369 14.581Zm19.373-72.995c0 .007-.004.013-.004.019 0 5.917-7.592 11.19-19.369 14.581v-12.802c9.516-2.708 16.459-6.66 19.373-11.291v9.493Z" class="cls-2"/>
  <path d="M178.8 147.309c7.072 1.315 14.685 1.982 22.629 1.982s15.486-.661 22.537-1.964a.8.8 0 1 0-.291-1.573c-6.955 1.286-14.439 1.938-22.246 1.938-7.846 0-15.361-.658-22.336-1.956a.8.8 0 1 0-.293 1.573ZM178.8 167.885c7.072 1.315 14.685 1.982 22.629 1.982s15.486-.661 22.537-1.964a.8.8 0 1 0-.291-1.573c-6.955 1.286-14.439 1.938-22.246 1.938-7.846 0-15.361-.658-22.336-1.956a.8.8 0 1 0-.293 1.573ZM178.8 186.593c7.069 1.316 14.683 1.983 22.629 1.983 7.904 0 15.486-.661 22.537-1.964a.801.801 0 0 0-.291-1.575c-6.955 1.286-14.439 1.938-22.246 1.938-7.848 0-15.363-.658-22.336-1.956a.796.796 0 0 0-.933.64.8.8 0 0 0 .64.933ZM223.675 205.449c-6.955 1.286-14.439 1.938-22.246 1.938-7.848 0-15.363-.658-22.336-1.956a.8.8 0 1 0-.293 1.573c7.069 1.316 14.683 1.983 22.629 1.983 7.904 0 15.486-.661 22.537-1.964a.801.801 0 0 0-.291-1.575ZM140.311 194.763v-9.607l-8.918-2.324-4.661 2.786v-34.636a.8.8 0 1 0-1.6 0v12.639l-7.318-1.907-6.28 3.753.018 9.615 9.019 2.322 4.562-2.782v11.952l-.02.012.018 9.614 9.019 2.323 6.162-3.76Zm-22.251-31.332 5.845 1.523-3.622 2.121-5.878-1.461 3.655-2.184Zm-4.923 3.517 6.474 1.609v6.947l-6.461-1.664-.013-6.892Zm8.074 8.192v-6.753l3.922-2.297v6.658l-3.922 2.392Zm13.578 21.118v-6.752l3.922-2.298v6.657l-3.922 2.393Zm-3.151-11.71 5.845 1.524-3.622 2.122-5.878-1.461 3.655-2.185Zm-4.923 3.519 6.474 1.61v6.946l-6.461-1.663-.013-6.893ZM133.718 202.299a2.357 2.357 0 1 0 0 4.713 2.357 2.357 0 0 0 0-4.713ZM272.133 144.842a4.102 4.102 0 1 0 8.204 0 4.102 4.102 0 0 0-8.204 0ZM290.633 165.444l-6.28-3.754-7.318 1.908v-12.619a.8.8 0 1 0-1.6 0v34.616l-4.66-2.786-8.918 2.324v9.607l5.728 3.495a.791.791 0 0 0 .383.234l.051.031.045-.012c.039.006.074.023.115.023a.785.785 0 0 0 .48-.177l8.379-2.158.019-9.614-.021-.012v-11.952l4.127 2.517a.78.78 0 0 0 .387.236l.048.029.043-.011c.04.006.076.024.117.024a.781.781 0 0 0 .482-.178l8.376-2.157.019-9.615Zm-16.449 21.266-5.878 1.461-3.622-2.122 5.844-1.524 3.656 2.185Zm-10.728.475 3.922 2.298v6.752l-3.922-2.393v-6.657Zm5.522 9.415v-6.946l6.474-1.61-.014 6.893-6.461 1.663Zm18.784-31.008-5.878 1.461-3.623-2.122 5.845-1.523 3.656 2.184Zm-10.728.475 3.922 2.297v6.753l-3.922-2.393v-6.657Zm5.522 9.415v-6.947l6.474-1.609-.014 6.892-6.461 1.664ZM268.449 202.276a2.357 2.357 0 1 0 0 4.713 2.357 2.357 0 0 0 0-4.713ZM201.033 87.979a4.194 4.194 0 0 0 0-8.389c-2.315 0-4.192 1.877-4.192 4.194s1.877 4.195 4.192 4.195ZM201.033 69.362a4.193 4.193 0 0 0 0-8.387c-2.315 0-4.192 1.877-4.192 4.194s1.877 4.193 4.192 4.193ZM201.033 98.205c-2.315 0-4.192 1.877-4.192 4.194s1.877 4.195 4.192 4.195a4.194 4.194 0 0 0 0-8.389ZM196.765 121.015c0 2.316 1.877 4.195 4.192 4.195a4.194 4.194 0 0 0 0-8.389 4.193 4.193 0 0 0-4.192 4.194Z" class="cls-2"/>
  <path d="M166.488 121.778c0 7.658 15.348 13.656 34.941 13.656s34.94-5.999 34.94-13.656-15.348-13.657-34.94-13.657-34.941 5.999-34.941 13.657Zm68.282 0c0 6.535-15.269 12.057-33.341 12.057s-33.341-5.521-33.341-12.057 15.269-12.057 33.341-12.057 33.341 5.521 33.341 12.057Z" class="cls-2"/>
</svg>
