<?xml version="1.0" encoding="UTF-8" standalone="no"?><!DOCTYPE svg PUBLIC "-//W3C//DTD SVG 1.1//EN" "http://www.w3.org/Graphics/SVG/1.1/DTD/svg11.dtd"><svg width="100%" height="100%" viewBox="0 0 133 183" version="1.1" xmlns="http://www.w3.org/2000/svg" xmlns:xlink="http://www.w3.org/1999/xlink" xml:space="preserve" xmlns:serif="http://www.serif.com/" style="fill-rule:evenodd;clip-rule:evenodd;stroke-linejoin:round;stroke-miterlimit:2;"><path d="M66.29,149.794c36.442,0 65.984,-29.543 65.984,-65.984c0,-36.442 -29.542,-65.985 -65.984,-65.985c-36.442,0 -65.984,29.543 -65.984,65.985c0,36.443 29.542,65.984 65.984,65.984" style="fill:#fff;fill-rule:nonzero;"/><path d="M27.692,83.258l-0.586,0.013l0,0.587c0,1.013 -0.016,11.638 -0.02,14.267c-1.234,0.026 -3.523,0.079 -5.859,0.133c-3.293,0.077 -6.683,0.154 -7.355,0.165l-0.59,0.01l0,0.59c0,2.564 0.067,10.268 0.113,15.366c0.022,2.422 0.038,4.306 0.041,4.887l0.002,0.597l8.998,0l0,10.544l7.804,0c0.329,0 0.6,-0.271 0.6,-0.6c0,-0.329 -0.271,-0.6 -0.6,-0.6l-6.604,0l0,-9.345l38.097,-0.003l-0.006,-0.606c-0.002,-0.151 -0.139,-13.847 -0.162,-17.056c6.085,0.028 54.868,0.287 55.388,0.29l0.595,0.004l0.061,-4.442l-4.375,0l0,-3.623c7.637,-0.005 13.582,-0.112 13.642,-0.113l0.589,-0.011l0,-7.511l-14.944,0.023l0,-3.173l12.79,-0.047c1.157,0 1.905,-1.312 2.021,-2.547c0.145,-1.543 -0.609,-2.701 -1.921,-2.95c-1.29,-0.244 -5.51,-0.235 -9.98,-0.227c-3.752,0.007 -8.405,0.016 -9.169,-0.191l-0.012,-0.007c-0.405,-0.263 -0.9,-0.703 -0.959,-1.302c-0.062,-0.622 0.351,-1.386 1.195,-2.212c1.417,-1.388 6.548,-1.151 11.977,-0.899c2.129,0.098 4.328,0.2 6.481,0.215l0.474,0.004l0.113,-0.461c0.047,-0.189 1.119,-4.66 -0.512,-6.749c-0.557,-0.714 -1.341,-1.078 -2.329,-1.082c-1.983,-0.008 -3.844,-0.022 -5.548,-0.034c-4.715,-0.036 -8.047,-0.061 -9.667,0.065c-0.23,-2.365 -0.355,-6.511 -0.236,-8.317c0.314,-4.79 -0.023,-7.136 -0.414,-9.851c-0.275,-1.913 -0.587,-4.08 -0.695,-7.479c-0.016,-0.472 0.008,-1.103 0.032,-1.772c0.09,-2.461 0.107,-3.996 -0.642,-4.525c-0.791,-0.557 -2.507,-0.275 -3.232,0.18c-1.036,0.649 -0.807,2.018 -0.641,3.019c0.058,0.343 0.112,0.669 0.113,0.907c0.012,4.751 -0.272,7.431 -0.547,10.024c-0.339,3.201 -0.632,5.966 -0.28,11.812c0.05,0.835 -0.047,4.653 -0.178,5.906c-4.59,0.124 -12.808,0.007 -13.691,-0.591c-0.078,-0.054 -0.097,-0.169 -0.117,-0.49c-0.006,-0.099 -0.014,-0.198 -0.025,-0.297c-0.746,-6.207 -0.837,-12.995 -0.925,-19.561c-0.077,-5.711 -0.154,-11.615 -0.661,-17.174c0.478,-1.88 -1.195,-10.017 -1.812,-11.057c-0.206,-0.346 -0.459,-0.404 -0.65,-0.409c-2.337,0.053 -2.924,4.645 -3.174,8.64l-0.01,0.141c-0.399,6.338 -0.157,13.082 0.077,19.604c0.255,7.114 0.517,14.469 -0.057,21.257c-0.018,0.212 -0.053,0.475 -0.094,0.776c-0.236,1.782 -0.633,4.766 0.97,6.65c0.857,1.007 2.159,1.542 3.887,1.591c3.697,0 7.97,0.047 10.798,0.078c1.295,0.014 2.341,0.025 2.983,0.029c0.007,0.987 0,2.768 -0.005,3.692l-21.361,0.129c0.182,-10.985 -0.219,-18.092 -0.607,-24.97c-0.422,-7.478 -0.822,-14.54 -0.547,-26.213c0.01,-0.401 0.093,-0.874 0.181,-1.374c0.217,-1.228 0.442,-2.498 -0.301,-3.35c-0.463,-0.531 -1.196,-0.772 -2.232,-0.73c-1.835,0.069 -3.889,0.947 -4.064,2.752c-0.578,21.845 0.835,41.001 1.427,46.539c0.395,3.692 -1.631,6.678 -2.233,7.473l-6.453,0.002l1.908,-53.407l0.002,-0.038l-0.004,-0.037c-0.111,-1.223 -1.315,-1.907 -3.226,-1.816c-0.032,0.001 -3.107,0.156 -3.107,1.454l-1.513,53.632l-9.18,0.05c0.271,-4.162 1.701,-27.412 0.793,-41.05c-0.039,-0.583 -0.424,-3.076 -0.832,-5.715c-0.393,-2.546 -0.883,-5.713 -0.883,-6.081c0.012,-0.23 0.355,-0.854 0.631,-1.355c1.014,-1.844 2.71,-4.93 -0.318,-6.974c-1.942,-1.309 -6.553,1.468 -7.899,2.945c-0.701,0.767 -1.003,1.469 -0.926,2.147c0.114,1.003 1,1.615 1.857,2.206c0.69,0.476 1.403,0.969 1.476,1.472c0.239,24.194 0.305,70.245 0.312,76.062l-6.375,-0.045l0,-18.477l-0.599,0c-0.229,-0.002 -5.617,-0.008 -6.483,0.011Zm14.658,19.719l0,-0.605c-0.001,-0.506 -0.059,-50.948 -0.319,-76.751c-0.149,-1.103 -1.127,-1.778 -1.988,-2.373c-0.636,-0.439 -1.294,-0.892 -1.346,-1.355c-0.044,-0.384 0.313,-0.865 0.62,-1.202c1.346,-1.477 5.25,-3.493 6.341,-2.758c1.964,1.326 1.174,3.152 -0.062,5.401c-0.42,0.764 -0.751,1.367 -0.777,1.872c-0.018,0.361 0.259,2.205 0.895,6.325c0.386,2.498 0.785,5.08 0.821,5.611c0.99,14.863 -0.817,41.267 -0.836,41.532l-0.045,0.645l11.632,-0.063l1.542,-54.638c0.467,-0.303 2.306,-0.676 3.386,-0.284c0.475,0.173 0.538,0.405 0.553,0.53l-1.951,54.609l8.261,-0.002l0.179,-0.207c0.131,-0.151 3.201,-3.761 2.684,-8.594c-0.591,-5.516 -1.998,-24.6 -1.424,-46.337c0.097,-0.989 1.574,-1.577 2.913,-1.627c0.638,-0.024 1.076,0.082 1.282,0.319c0.366,0.421 0.185,1.448 0.024,2.353c-0.092,0.522 -0.188,1.063 -0.2,1.554c-0.276,11.721 0.143,19.138 0.548,26.309c0.394,6.984 0.802,14.204 0.595,25.496l-0.012,0.614l23.776,-0.143l0.004,-0.593c0.001,-0.168 0.027,-4.128 0,-4.914l-0.02,-0.591l-0.592,0.012c-0.335,0.005 -1.682,-0.008 -3.547,-0.029c-3.588,-0.045 -7.176,-0.071 -10.765,-0.078l-0.029,-0c-1.377,-0.04 -2.356,-0.422 -2.991,-1.169c-1.257,-1.478 -0.904,-4.13 -0.694,-5.715c0.043,-0.324 0.08,-0.607 0.1,-0.833c0.581,-6.86 0.317,-14.252 0.061,-21.401c-0.233,-6.493 -0.473,-13.207 -0.077,-19.484l0.009,-0.142c0.354,-5.645 1.22,-7.073 1.724,-7.414c0.639,1.693 1.934,8.888 1.586,9.802l-0.095,0.165l0.017,0.189c0.513,5.547 0.592,11.471 0.668,17.2c0.089,6.596 0.179,13.417 0.934,19.688c0.009,0.075 0.013,0.152 0.017,0.23c0.025,0.4 0.063,1.005 0.63,1.4c1.659,1.154 14.757,0.795 14.888,0.791l0.23,-0.007l0.166,-0.158c0.566,-0.541 0.473,-6.934 0.47,-6.997c-0.347,-5.747 -0.059,-8.466 0.275,-11.614c0.266,-2.502 0.565,-5.338 0.553,-10.154c0,-0.337 -0.063,-0.709 -0.129,-1.102c-0.117,-0.704 -0.264,-1.579 0.095,-1.805c0.481,-0.302 1.643,-0.399 1.871,-0.242c0.28,0.365 0.205,2.422 0.166,3.527c-0.026,0.689 -0.049,1.341 -0.033,1.853c0.109,3.466 0.427,5.668 0.707,7.612c0.381,2.649 0.709,4.936 0.404,9.602c-0.133,2.02 0.031,6.883 0.306,9.13l0.077,0.62l0.615,-0.1c1.151,-0.187 4.901,-0.16 10.094,-0.119c1.705,0.013 3.569,0.027 5.552,0.034c0.61,0.002 1.064,0.206 1.388,0.62c0.938,1.199 0.661,3.88 0.392,5.263c-1.975,-0.026 -3.992,-0.119 -5.948,-0.209c-5.947,-0.275 -11.081,-0.512 -12.871,1.24c-1.129,1.105 -1.65,2.177 -1.549,3.188c0.083,0.825 0.575,1.563 1.423,2.138c0.367,0.37 1.438,0.46 9.913,0.443c4.021,-0.007 8.577,-0.016 9.755,0.206c1.007,0.191 0.981,1.317 0.949,1.658c-0.077,0.821 -0.508,1.459 -0.828,1.459l-13.987,0.051l0,5.57l14.944,-0.023l0,5.13c-1.736,0.028 -7.12,0.104 -13.632,0.104l-0.6,0l0,6.022l4.358,0l-0.028,2.036c-5.956,-0.031 -54.341,-0.289 -55.403,-0.289l-0.6,0l0,0.6c0,1.038 0.13,14.077 0.159,17.064l-45.89,0.004c-0.012,-1.432 -0.024,-2.863 -0.037,-4.294c-0.042,-4.751 -0.104,-11.766 -0.112,-14.768c1.27,-0.026 4.054,-0.091 6.772,-0.153c2.783,-0.064 5.497,-0.126 6.443,-0.145l0.587,-0.012l0,-0.587c0,0 0.017,-11.356 0.02,-14.263c1.294,-0.009 4.05,-0.007 5.269,-0.006l0,18.469l8.776,0.062l-0.001,-0.002Z" style="fill:#13294b;fill-rule:nonzero;"/><path d="M48.845,116.227l5.99,0l0.069,-12.28l-6.071,0.056l0.011,12.224Zm4.852,-11.069l-0.055,9.869l-3.599,0l-0.009,-9.835l3.662,-0.035l0.001,0Zm54.43,-22.82l-62.222,0l-0.094,5.558l62.316,0.015l0,-5.572Zm-1.199,4.372l-59.897,-0.014l0.053,-3.157l59.843,0l0,3.172Zm-99.494,85.535c-0.457,-0.531 -1.037,-0.945 -1.738,-1.241c-0.703,-0.297 -1.533,-0.445 -2.492,-0.445c-0.24,0 -0.5,0.003 -0.779,0.008l-0.856,0.017c-0.291,0.005 -0.572,0.017 -0.839,0.034c-0.268,0.017 -0.511,0.043 -0.728,0.077l0,12.007c0.114,0.022 0.302,0.041 0.565,0.052c0.263,0.011 0.548,0.026 0.856,0.043c0.308,0.017 0.608,0.029 0.899,0.034c0.291,0.005 0.528,0.008 0.711,0.008c1.039,0 1.924,-0.173 2.655,-0.522c0.731,-0.348 1.325,-0.811 1.781,-1.388c0.457,-0.577 0.791,-1.239 1.002,-1.987c0.212,-0.748 0.316,-1.527 0.316,-2.339c0,-0.891 -0.111,-1.706 -0.334,-2.45c-0.223,-0.742 -0.562,-1.379 -1.019,-1.91l0.001,-0.001Zm-0.359,6.218c-0.125,0.571 -0.36,1.113 -0.694,1.593c-0.325,0.462 -0.76,0.83 -1.302,1.105c-0.543,0.274 -1.214,0.411 -2.013,0.411c-0.058,0 -0.166,-0.003 -0.326,-0.009c-0.166,-0.006 -0.331,-0.012 -0.497,-0.017l-0.496,-0.017c-0.109,-0.001 -0.218,-0.01 -0.326,-0.025l0,-9.593c0.079,-0.011 0.191,-0.022 0.334,-0.034c0.142,-0.012 0.3,-0.023 0.471,-0.034c0.171,-0.012 0.345,-0.017 0.522,-0.017l0.488,0c0.788,0 1.441,0.146 1.961,0.437c0.497,0.27 0.923,0.655 1.242,1.122c0.308,0.456 0.525,0.968 0.651,1.533c0.125,0.566 0.188,1.128 0.188,1.687c0,0.641 -0.068,1.259 -0.206,1.859l0.001,-0.001Zm8.393,-7.957l-4.54,12.178l1.422,0l1.192,-3.323l4.397,0l1.227,3.323l1.507,0l-4.556,-12.178l-0.651,0l0.001,0Zm2.047,7.622l-3.511,0l1.312,-3.614l0.426,-1.85l0.017,0l0.426,1.816l1.329,3.649Zm3.931,-6.167l3.734,0l0,10.723l1.422,0l0,-10.723l3.734,0l0,-1.267l-8.89,0l0,1.267Zm14.2,-1.456l-4.54,12.178l1.422,0l1.193,-3.323l4.397,0l1.227,3.323l1.507,0l-4.556,-12.178l-0.651,0l0.001,0Zm2.047,7.622l-3.511,0l1.312,-3.614l0.426,-1.85l0.017,0l0.426,1.816l1.329,3.649Zm16.547,3.34c-0.382,0.103 -0.831,0.154 -1.345,0.154c-0.544,0.005 -1.083,-0.099 -1.585,-0.308c-0.485,-0.205 -0.907,-0.514 -1.267,-0.925c-0.36,-0.41 -0.642,-0.925 -0.847,-1.542c-0.206,-0.616 -0.308,-1.336 -0.308,-2.159c0,-0.913 0.109,-1.684 0.326,-2.312c0.217,-0.628 0.506,-1.136 0.865,-1.524c0.336,-0.373 0.756,-0.66 1.225,-0.839c0.443,-0.169 0.913,-0.256 1.388,-0.257c1.016,0 1.798,0.137 2.347,0.411l0.343,-1.268c-0.359,-0.139 -0.732,-0.239 -1.113,-0.299c-0.434,-0.074 -0.994,-0.111 -1.679,-0.111c-0.64,0 -1.267,0.114 -1.884,0.343c-0.617,0.229 -1.173,0.591 -1.67,1.087c-0.496,0.496 -0.896,1.137 -1.199,1.918c-0.303,0.783 -0.454,1.734 -0.454,2.852c0,1.074 0.137,2.002 0.411,2.784c0.274,0.782 0.645,1.424 1.113,1.927c0.468,0.503 1.016,0.877 1.645,1.122c0.645,0.248 1.33,0.373 2.021,0.368c0.594,0 1.154,-0.052 1.678,-0.155c0.525,-0.103 0.959,-0.285 1.302,-0.548l-0.343,-1.113c-0.303,0.176 -0.629,0.308 -0.968,0.393l0,-0.001Zm11.776,-3.168c0,1.165 -0.2,2.001 -0.599,2.51c-0.4,0.509 -1.062,0.763 -1.987,0.763c-0.48,0 -0.899,-0.057 -1.259,-0.172c-0.36,-0.115 -0.659,-0.299 -0.899,-0.557c-0.239,-0.257 -0.42,-0.594 -0.54,-1.011c-0.12,-0.417 -0.18,-0.928 -0.18,-1.533l0,-7.606l-1.422,0l0,8.273c0,1.301 0.359,2.272 1.079,2.912c0.719,0.64 1.787,0.959 3.203,0.959c0.551,0.006 1.1,-0.074 1.627,-0.239c0.471,-0.148 0.902,-0.403 1.259,-0.745c0.349,-0.337 0.617,-0.768 0.806,-1.294c0.188,-0.525 0.282,-1.147 0.282,-1.867l0,-8l-1.37,0l0,7.606l0.001,0Zm10.021,-0.994c0.788,-0.194 1.439,-0.582 1.953,-1.165c0.514,-0.582 0.771,-1.342 0.771,-2.279c0,-0.605 -0.109,-1.118 -0.326,-1.541c-0.217,-0.423 -0.506,-0.766 -0.865,-1.028c-0.359,-0.263 -0.776,-0.451 -1.25,-0.565c-0.474,-0.114 -0.974,-0.172 -1.498,-0.172c-0.469,0 -0.985,0.022 -1.55,0.068c-0.566,0.047 -1.065,0.11 -1.499,0.189l0,11.87l1.422,0l0,-5.43l1.679,0.257l3.306,5.173l1.661,0l-2.981,-4.745l-0.823,-0.635l0,0.001Zm-1.507,-0.994l-1.337,-0l0,-4.42c0.079,-0.022 0.185,-0.041 0.317,-0.051c0.131,-0.012 0.271,-0.022 0.42,-0.035c0.154,-0.011 0.308,-0.017 0.462,-0.016l0.462,0c0.754,0 1.342,0.2 1.765,0.599c0.422,0.4 0.635,0.908 0.635,1.525c0,0.822 -0.257,1.427 -0.771,1.816c-0.514,0.389 -1.165,0.582 -1.953,0.582Zm11.681,-5.807l-4.54,12.178l1.422,0l1.193,-3.323l4.397,0l1.227,3.323l1.507,0l-4.556,-12.178l-0.651,0Zm2.047,7.622l-3.511,0l1.312,-3.614l0.426,-1.85l0.016,0l0.426,1.816l1.329,3.649l0.001,0Zm3.931,-6.167l3.734,0l0,10.723l1.422,0l0,-10.723l3.734,0l0,-1.267l-8.89,0l0,1.267Zm12.452,-1.267l1.422,0l0,11.99l-1.422,0l0,-11.99Zm14.244,1.498c-0.401,-0.538 -0.928,-0.97 -1.534,-1.259c-0.616,-0.297 -1.347,-0.446 -2.192,-0.446c-1.565,0 -2.769,0.534 -3.614,1.602c-0.845,1.068 -1.268,2.601 -1.268,4.599c0,0.937 0.098,1.785 0.292,2.544c0.194,0.76 0.493,1.411 0.899,1.953c0.399,0.537 0.922,0.969 1.524,1.259c0.611,0.297 1.334,0.446 2.168,0.446c1.577,0 2.789,-0.534 3.641,-1.602c0.851,-1.068 1.276,-2.601 1.276,-4.6c0,-0.936 -0.097,-1.784 -0.292,-2.544c-0.194,-0.759 -0.494,-1.41 -0.898,-1.953l-0.001,0.001Zm-1.226,8.222c-0.605,0.805 -1.439,1.207 -2.501,1.207c-0.582,0 -1.087,-0.134 -1.516,-0.403c-0.428,-0.268 -0.779,-0.628 -1.053,-1.078c-0.274,-0.451 -0.477,-0.974 -0.609,-1.567c-0.134,-0.619 -0.2,-1.251 -0.197,-1.885c0,-1.679 0.299,-2.921 0.899,-3.725c0.6,-0.806 1.424,-1.208 2.476,-1.208c0.593,0 1.105,0.134 1.533,0.402c0.428,0.269 0.782,0.629 1.062,1.079c0.28,0.451 0.485,0.976 0.616,1.576c0.131,0.6 0.197,1.226 0.197,1.876c0,1.678 -0.302,2.921 -0.908,3.726Zm13.583,-9.721l0,7.81l0.189,1.646l-0.085,0l-0.891,-1.646l-5.738,-7.999l-0.754,0l0,12.178l1.336,0l0,-7.844l-0.171,-1.731l0.069,0l0.925,1.731l5.704,8.032l0.753,0l0,-12.178l-1.336,0Zm-16.715,-148.061c-2.788,0.024 -5.114,-0.043 -7.361,-0.107c-3.484,-0.1 -6.775,-0.194 -11.164,0.085c-0.643,0.041 -1.427,0 -2.185,-0.039c-1.094,-0.057 -2.23,-0.116 -3.117,0.054c-1.036,0.199 -1.645,1.101 -1.514,2.245c0.175,1.535 1.613,3.085 3.68,2.993c0.688,-0.026 1.257,-0.114 1.916,-0.215c0.221,-0.034 0.452,-0.069 0.7,-0.104c4.376,-0.619 7.609,-0.455 11.351,-0.266c2.428,0.123 4.94,0.25 8.042,0.178c1.741,-0.041 3.115,0.057 3.677,0.145c0.352,3.03 0.209,6.695 0.071,10.244c-0.13,3.356 -0.265,6.824 0.016,9.781l0.019,0.2l0.137,0.148c0.613,0.671 1.558,1.066 2.441,1.066c0.248,0 0.491,-0.032 0.721,-0.096c0.793,-0.225 1.337,-0.832 1.496,-1.664l0.01,-0.076c0.204,-3.45 1.147,-20.764 -0.375,-22.844c-1.696,-2.318 -3.825,-2.309 -8.558,-1.725l-0.002,-0.002Zm7.59,2.434c0.872,1.191 0.728,12.227 0.148,22.022c-0.08,0.371 -0.29,0.6 -0.638,0.7c-0.556,0.157 -1.319,-0.055 -1.813,-0.493c-0.247,-2.832 -0.117,-6.172 0.008,-9.406c0.146,-3.74 0.296,-7.609 -0.125,-10.807c-0.052,-0.396 -0.13,-0.938 -4.85,-0.828c-3.058,0.07 -5.547,-0.055 -7.953,-0.176c-3.647,-0.184 -7.089,-0.358 -11.58,0.277c-0.254,0.035 -0.488,0.072 -0.713,0.106c-0.623,0.095 -1.16,0.178 -1.78,0.202c-0.037,0.001 -0.074,0.002 -0.111,0.002c-1.453,-0 -2.237,-1.117 -2.33,-1.934c-0.043,-0.368 0.018,-0.829 0.547,-0.93c0.745,-0.142 1.806,-0.087 2.829,-0.034c0.792,0.041 1.611,0.085 2.324,0.038c4.334,-0.276 7.598,-0.182 11.053,-0.083c2.257,0.065 4.591,0.133 7.473,0.103c4.773,-0.584 6.244,-0.495 7.513,1.239l-0.001,0Zm-26.599,7.689l-0.025,-0.165c-0.122,-0.407 -0.526,-0.581 -0.82,-0.677c-0.618,-0.202 -2.921,-0.52 -3.409,-0.151l-0.237,0.18l0,29.648c0,0.564 0.618,0.809 0.851,0.9c0.304,0.12 1.163,0.373 1.977,0.373c0.548,0 1.078,-0.115 1.401,-0.462c1.052,-1.126 0.697,-3.559 0.412,-5.514c-0.09,-0.62 -0.176,-1.207 -0.183,-1.573c-0.076,-3.984 -0.034,-8.043 0.006,-11.969c0.036,-3.47 0.073,-7.06 0.028,-10.589l-0.001,-0.001Zm-1.131,28.818c-0.287,0.216 -1.645,0.019 -2.161,-0.231l0,-28.554c0.627,0.011 1.671,0.123 2.096,0.269c0.039,3.424 0.003,6.906 -0.031,10.275c-0.041,3.934 -0.083,8.002 -0.006,12.004c0.009,0.442 0.095,1.036 0.196,1.723c0.222,1.52 0.557,3.817 -0.093,4.514l0,0.001Zm-3.656,-42.641c0.12,0 0.237,-0.03 0.35,-0.098l25.66,-15.708l-0.244,-0.492c-0.802,-1.618 -1.578,-2.446 -2.444,-2.607c-0.99,-0.181 -1.77,0.534 -2.46,1.168c-0.292,0.268 -0.595,0.546 -0.887,0.733c-5.141,3.304 -9.731,6.114 -14.033,8.594c-0.852,0.49 -1.773,0.9 -2.749,1.333c-1.696,0.753 -3.449,1.532 -4.864,2.79c-0.844,0.752 -0.827,1.904 0.047,3.082c0.168,0.227 0.934,1.206 1.624,1.206Zm-0.873,-3.391c1.274,-1.134 2.941,-1.874 4.552,-2.59c0.962,-0.427 1.955,-0.868 2.861,-1.39c4.32,-2.489 8.926,-5.31 14.083,-8.624c0.379,-0.243 0.719,-0.556 1.048,-0.859c0.491,-0.451 0.958,-0.88 1.341,-0.88c0.03,0 0.059,0.002 0.088,0.008c0.226,0.042 0.68,0.297 1.334,1.474l-24.47,14.981c-0.331,-0.248 -0.94,-0.91 -1.042,-1.516c-0.043,-0.259 0.017,-0.44 0.203,-0.605l0.002,0.001Zm-61.834,21.227l-0.005,0.037l0,0.038c0.029,4.249 0.011,8.571 -0.005,12.75c-0.016,4.001 -0.033,8.138 -0.009,12.208c0.003,0.576 0.123,1.112 0.238,1.631c0.117,0.528 0.228,1.027 0.221,1.555c-0.007,0.547 -0.206,1.277 -0.4,1.982c-0.363,1.327 -0.738,2.699 -0.104,3.635c0.325,0.481 0.866,0.767 1.606,0.852c0.234,0.027 0.454,0.04 0.662,0.04c0.866,0 1.49,-0.235 1.897,-0.712c0.838,-0.984 0.379,-2.62 -0.024,-4.064c-0.19,-0.681 -0.371,-1.324 -0.387,-1.778c-0.02,-0.588 0.166,-1.299 0.364,-2.052c0.196,-0.745 0.398,-1.516 0.431,-2.279c0.172,-4.158 -0.02,-8.367 -0.206,-12.438c-0.178,-3.907 -0.363,-7.948 -0.222,-11.913l0,-0.008c0.018,-0.776 -0.571,-1.34 -1.465,-1.403c-1.13,-0.079 -2.438,0.629 -2.594,1.916l0.001,0.001Zm2.859,-0.542c-0.143,4.012 0.043,8.075 0.222,12.004c0.185,4.045 0.377,8.228 0.206,12.333c-0.026,0.633 -0.212,1.34 -0.391,2.023c-0.212,0.804 -0.43,1.635 -0.404,2.398c0.02,0.596 0.219,1.307 0.43,2.06c0.307,1.098 0.69,2.465 0.266,2.962c-0.276,0.324 -0.973,0.321 -1.509,0.259c-0.567,-0.065 -0.703,-0.266 -0.749,-0.332c-0.324,-0.479 -0.01,-1.631 0.269,-2.646c0.213,-0.778 0.433,-1.582 0.442,-2.283c0.009,-0.667 -0.123,-1.258 -0.25,-1.83c-0.106,-0.479 -0.206,-0.931 -0.209,-1.378c-0.024,-4.064 -0.007,-8.198 0.01,-12.196c0.016,-4.169 0.034,-8.48 0.006,-12.72c0.096,-0.588 0.835,-0.859 1.312,-0.829c0.106,0.008 0.351,0.04 0.35,0.176l-0,-0.001Zm-15.385,0.805c0.138,1.405 0.269,2.731 0.181,3.41c-0.049,0.385 -0.216,0.817 -0.391,1.273c-0.413,1.072 -0.927,2.405 0.062,3.64c0.499,0.623 1.406,0.898 2.318,0.898c0.476,0.002 0.949,-0.074 1.401,-0.224c1.168,-0.399 1.847,-1.247 1.865,-2.328c0.015,-0.949 -0.447,-1.45 -0.785,-1.816c-0.246,-0.266 -0.387,-0.43 -0.44,-0.697c-0.141,-0.716 0.02,-2.598 0.176,-4.418c0.392,-4.577 0.469,-6.8 -0.514,-7.406c-0.63,-0.388 -2.426,-0.202 -3.005,0.13c-1.414,0.809 -1.252,3.633 -0.868,7.536l-0.001,0.001Zm0.91,5.115c0.194,-0.503 0.395,-1.024 0.463,-1.553c0.104,-0.812 -0.026,-2.141 -0.178,-3.68c-0.217,-2.203 -0.58,-5.891 0.27,-6.377c0.197,-0.113 0.839,-0.192 1.315,-0.192c0.194,0 0.359,0.014 0.456,0.044c0.443,0.594 0.127,4.285 -0.043,6.28c-0.178,2.078 -0.332,3.871 -0.158,4.752c0.121,0.612 0.461,0.982 0.735,1.279c0.296,0.321 0.474,0.515 0.467,0.983c-0.012,0.708 -0.579,1.049 -1.054,1.211c-0.957,0.327 -2.072,0.113 -2.394,-0.289c-0.531,-0.663 -0.3,-1.366 0.121,-2.458l0.001,-0.001Zm-13.137,1.904c0.232,0 0.472,-0.023 0.72,-0.068c1.451,-0.265 2.739,-1.613 2.999,-3.137c0.224,-1.318 -0.337,-2.467 -1.538,-3.15c-1.57,-0.894 -3.059,-0.843 -4.088,0.138c-1.136,1.085 -1.453,3.163 -0.704,4.631c0.525,1.03 1.456,1.586 2.612,1.586l0.001,0Zm-1.078,-5.35c0.301,-0.292 0.706,-0.453 1.125,-0.445c0.541,0 1.094,0.229 1.541,0.483c0.959,0.546 1.046,1.338 0.949,1.906c-0.176,1.035 -1.068,1.983 -2.031,2.158c-0.956,0.175 -1.664,-0.13 -2.048,-0.883c-0.507,-0.994 -0.29,-2.498 0.464,-3.219l-0.001,0.001Zm59.209,-20.559c3.677,-0.579 2.691,-6.272 -1.114,-5.623c-3.282,0.559 -2.57,6.203 1.114,5.623Zm52.858,28.473c0,-1.094 -2.609,-1.509 -3.408,-1.61l-0.675,-0.085l0,8.988l4.083,0l0,-7.293Zm-1.2,6.093l-1.684,0l0,-6.392c0.625,0.133 1.381,0.337 1.684,0.502l0,5.89Zm-100.617,-28.434c0.15,0.042 0.321,0.062 0.505,0.062c0.703,0 1.597,-0.293 2.212,-0.76c0.549,-0.416 0.839,-0.929 0.838,-1.482c-0.001,-0.731 -0.859,-2.872 -0.957,-3.113c-1.033,-2.549 -1.443,-2.699 -1.663,-2.779c-0.605,-0.22 -2.07,0.495 -2.084,0.503c-0.578,0.284 -0.881,0.556 -0.984,0.879c-0.266,0.832 0.689,4.659 1.379,5.941c0.157,0.293 0.385,0.643 0.754,0.748l0,0.001Zm0.503,-6.899c0.556,0.766 1.846,4.127 1.853,4.721c0,0.215 -0.227,0.421 -0.363,0.523c-0.498,0.377 -1.241,0.554 -1.587,0.514c-0.505,-0.629 -1.451,-4.337 -1.4,-5.132c0.248,-0.208 1.09,-0.543 1.498,-0.626l-0.001,-0.001Zm13.764,1.883c0.165,0 0.341,-0.01 0.527,-0.03c1.109,-0.121 2.111,-0.89 2.556,-1.96c0.429,-1.032 0.269,-2.13 -0.437,-3.013c-1.463,-1.827 -2.896,-1.349 -3.446,-1.06c-1.403,0.741 -2.252,2.809 -1.784,4.338c0.167,0.543 0.741,1.724 2.583,1.724l0,0.001Zm-0.239,-5.001c0.179,-0.095 0.36,-0.142 0.544,-0.142c0.46,0 0.93,0.298 1.405,0.891c0.581,0.726 0.415,1.441 0.266,1.802c-0.279,0.672 -0.899,1.153 -1.577,1.227c-1.008,0.109 -1.625,-0.176 -1.833,-0.853c-0.299,-0.977 0.305,-2.454 1.197,-2.926l-0.001,-0Zm-9.593,35.488c-1.013,0.327 -1.716,1.1 -1.927,2.119c-0.236,1.135 0.184,2.407 1.043,3.164c0.52,0.465 1.196,0.72 1.894,0.716c0.374,0 0.762,-0.068 1.157,-0.204c1.394,-0.481 1.783,-2.442 1.272,-3.972c-0.536,-1.608 -1.885,-2.322 -3.439,-1.822Zm1.775,4.659c-0.729,0.252 -1.375,0.155 -1.867,-0.278c-0.538,-0.474 -0.81,-1.304 -0.662,-2.019c0.087,-0.42 0.353,-0.973 1.121,-1.221c0.216,-0.07 0.409,-0.1 0.582,-0.1c0.823,0 1.194,0.691 1.351,1.16c0.344,1.03 0.084,2.249 -0.525,2.458l-0.001,0Zm103.819,3.289c-2.647,-1.302 -4.334,2.6 -2.761,4.181c2.236,2.246 5.725,-2.722 2.761,-4.181Z" style="fill:#13294b;fill-rule:nonzero;"/><path d="M110.309,40.765l0.017,0.132c0.129,0.524 0.54,0.867 1.127,0.941c0.074,0.01 0.154,0.014 0.237,0.014c0.862,0 2.148,-0.476 2.388,-0.922c0.298,-0.565 0.204,-8.385 -0.109,-9.109c-0.232,-0.531 -0.739,-0.897 -1.432,-1.03c-0.853,-0.163 -1.78,0.055 -2.259,0.53c-0.416,0.412 -0.483,1.477 -0.092,7.331c0.062,0.933 0.115,1.739 0.123,2.111Zm0.878,-8.64c0.204,-0.131 0.67,-0.241 1.124,-0.154c0.137,0.026 0.462,0.11 0.549,0.307c0.211,0.694 0.255,6.781 0.141,8.026c-0.408,0.215 -1.274,0.447 -1.495,0.315c-0.015,-0.426 -0.063,-1.151 -0.122,-2.045c-0.125,-1.86 -0.379,-5.666 -0.197,-6.449l0,0.001Zm2.798,29.55c1.384,-0.476 1.776,-3.419 -0.745,-3.646c-4.217,-0.379 -2.939,4.914 0.745,3.646Zm-86.319,-31.08c2.09,1.852 5.176,-2.383 2.35,-3.794c-2.212,-1.104 -3.694,2.603 -2.35,3.793Zm1.756,44.944c-1.715,0.29 -1.748,3.355 -1.222,4.017c0.15,0.189 1.814,0.515 2.244,0.489c1.875,-0.113 3.391,-5.253 -1.022,-4.506Zm15.807,-68.524c-0.799,0.485 -0.99,2.54 -0.755,3.429c5.796,2.535 3.863,-5.318 0.755,-3.429Zm-25.567,76.604c1.478,-0.463 1.797,-4.543 -1.058,-3.982c-3.505,0.69 -1.369,4.741 1.058,3.982Zm54.749,-72.659c-1.942,-3.328 -5.144,2.085 -3.653,3.918c1.889,2.324 5.903,-0.061 3.653,-3.918Zm-55.091,63.11c0.587,-0.198 1.019,-0.8 1.154,-1.611c0.165,-0.992 -0.151,-1.957 -0.806,-2.46c-0.455,-0.35 -1.27,-0.644 -2.565,-0.056c-1.476,0.67 -1.771,1.897 -1.408,2.816c0.328,0.832 1.237,1.513 2.449,1.513c0.367,0 0.761,-0.062 1.175,-0.202Zm-2.509,-1.751c-0.194,-0.492 0.1,-0.971 0.788,-1.283c0.259,-0.118 0.578,-0.227 0.867,-0.227c0.175,0 0.338,0.04 0.471,0.142c0.298,0.229 0.443,0.768 0.353,1.311c-0.063,0.38 -0.23,0.629 -0.353,0.671c-1.081,0.361 -1.901,-0.045 -2.126,-0.613l-0.001,-0.001Zm1.931,-61.722c2.095,0.12 2.135,-2.716 1.334,-3.22c-2.39,-1.504 -4.889,3.017 -1.334,3.22Zm94.957,4.592c0.484,1.807 1.763,2.874 3.512,2.926c0.047,0.002 0.095,0.002 0.142,0.002c1.493,0 2.611,-0.708 3.08,-1.958c0.643,-1.712 -0.057,-4.112 -1.561,-5.35c-1.203,-0.99 -2.706,-1.058 -4.122,-0.185c-1.058,0.653 -1.54,2.743 -1.051,4.565l-0,0.001Zm1.682,-3.544c0.507,-0.313 0.961,-0.431 1.361,-0.431c0.577,0 1.037,0.248 1.369,0.521c1.1,0.905 1.661,2.776 1.2,4.002c-0.305,0.813 -0.984,1.213 -2.064,1.178c-1.536,-0.046 -2.146,-1.133 -2.388,-2.036c-0.388,-1.45 0.043,-2.939 0.522,-3.234l0.001,0Zm-99.207,49.56c-0.153,0.185 -0.122,1.883 -0.007,2.299c0.505,1.814 5.851,2.248 4.192,-1.923c-0.644,-1.621 -3.65,-1.026 -4.186,-0.376Zm-5.666,25.407c-0.074,-6.16 -0.034,-12.431 0.006,-18.496c0.034,-5.363 0.071,-10.909 0.027,-16.362l-0.01,-0.108c-0.1,-0.528 -0.601,-0.901 -1.528,-1.14c-0.023,-0.006 -2.221,-0.551 -2.728,0.061l-0.138,0.166l-0.169,38.688c0,0.975 1.639,1.451 1.827,1.502c0.331,0.09 0.643,0.134 0.929,0.134c0.672,0 1.195,-0.245 1.47,-0.711c0.736,-1.249 0.775,-1.592 0.539,-2.295c-0.089,-0.266 -0.212,-0.63 -0.221,-1.439l-0.001,-0.001Zm-1.352,3.125c-0.04,0.067 -0.182,0.113 -0.373,0.12c-0.655,0.014 -1.412,-0.346 -1.618,-0.544l0.166,-37.841c0.631,0.02 1.716,0.213 2.01,0.441c0.042,5.395 0.006,10.885 -0.029,16.195c-0.039,6.07 -0.08,12.347 -0.005,18.518c0.012,0.998 0.175,1.484 0.284,1.807c0.1,0.298 0.121,0.36 -0.435,1.304Z" style="fill:#13294b;fill-rule:nonzero;"/><path d="M84.92,94.254c0.007,-1.894 1.551,-3.425 3.445,-3.418c1.894,0.007 3.425,1.551 3.418,3.445c-0.007,1.894 -1.551,3.425 -3.445,3.418c-1.894,-0.007 -3.425,-1.551 -3.418,-3.445Z" style="fill:#13294b;"/><path d="M100.772,90.833c1.895,-0.007 3.439,1.525 3.446,3.42c0.007,1.895 -1.525,3.439 -3.42,3.446c-1.895,0.007 -3.439,-1.525 -3.446,-3.42c-0.007,-1.895 1.525,-3.439 3.42,-3.446Z" style="fill:#13294b;"/><path d="M63.471,90.834c1.895,-0.007 3.439,1.525 3.446,3.42c0.007,1.895 -1.525,3.439 -3.42,3.446c-1.895,0.007 -3.439,-1.525 -3.446,-3.42c-0.007,-1.895 1.525,-3.439 3.42,-3.446Z" style="fill:#13294b;"/><path d="M72.486,94.254c0.007,-1.894 1.551,-3.425 3.445,-3.418c1.894,0.007 3.425,1.551 3.418,3.445c-0.007,1.894 -1.551,3.425 -3.445,3.418c-1.894,-0.007 -3.425,-1.551 -3.418,-3.445Z" style="fill:#13294b;"/><path d="M86.732,153.004l0,-7.153l-25.826,-0.003l0,-6.877l1.58,0c0.329,-0 0.6,-0.271 0.6,-0.6c0,-0.329 -0.271,-0.6 -0.6,-0.6l-2.78,0l0,9.276l25.826,0.003l0,4.753l-33.087,-0.006l0,-3.951l-13.005,0l0,-3.685l13.15,0l0,-6.411l-9.951,0l0,-7.334l5.438,0c0.329,0 0.6,-0.271 0.6,-0.6c0,-0.329 -0.271,-0.6 -0.6,-0.6l-6.027,0c-0.004,0 -0.007,-0.002 -0.011,-0.002c-0.005,0 -0.007,0.002 -0.011,0.002l-2.752,0c-0.329,0 -0.6,0.271 -0.6,0.6c0,0.329 0.271,0.6 0.6,0.6l2.164,-0l0,8.534l9.951,0l0,4.012l-13.15,0l0,6.085l13.005,0l0,3.951l35.486,0.006l0.001,0Zm-15.023,-15.23c-0.329,0 -0.6,0.271 -0.6,0.6c0,0.329 0.271,0.6 0.6,0.6l3.189,0c0.329,-0 0.6,-0.271 0.6,-0.6c0,-0.329 -0.271,-0.6 -0.6,-0.6l-3.189,0Zm16.012,0.599c0,-0.329 -0.271,-0.6 -0.6,-0.6l-2.87,0c-0.329,0 -0.6,0.271 -0.6,0.6c0,0.329 0.271,0.6 0.6,0.6l2.87,0c0.329,0 0.6,-0.271 0.6,-0.6Zm3.549,-28.187l15.46,0l0,2.939l-15.535,0.156l0,20.638c0,0.329 0.271,0.6 0.6,0.6c0.329,0 0.6,-0.271 0.6,-0.6l-0,-19.45l15.535,-0.156l0,-5.326l-15.46,0l0,-2.704l30.066,-0.029l0,2.734l-11.374,0l0.026,5.257l6.696,-0.04l0,5.195l-13.516,0l0.084,11.779l-6.831,0l0,6.928l-1.356,-0.033l-0.015,0c-0.324,0.007 -0.588,0.275 -0.588,0.6c0,0.319 0.254,0.585 0.573,0.599l2.584,0.062l0,-6.957l6.84,0l-0.084,-11.779l13.508,0l0,-7.602l-6.702,0.04l-0.015,-2.85l11.369,0l0,-5.135l-32.465,0.032l0,5.103Zm-30.364,19.111l-3.986,0c-0.329,0 -0.6,0.271 -0.6,0.6c0,0.329 0.271,0.6 0.6,0.6l5.186,-0l0,-3.426l10.41,0l0,3.435l5.59,3.413l8.192,-2.112l0.016,-8.728l-5.698,-3.409l-8.1,2.113l0,4.087l-11.609,0l0,3.426Zm24.194,1.579l-6.268,1.616l0,-6.541l6.281,-1.729l-0.012,6.653l-0.001,0Zm-4.669,-9.918l3.787,2.266l-5.875,1.617l-3.669,-2.381l5.756,-1.502l0.001,0.001Zm-6.716,2.309l3.917,2.541l0,6.415l-3.917,-2.391l0,-6.565Zm-55.414,-18.748l0,8.722l5.591,3.413l8.192,-2.112l0.016,-8.728l-5.699,-3.409l-8.099,2.114l-0.001,0Zm5.116,10.439l-3.917,-2.391l0,-6.564l3.917,2.54l0,6.415Zm7.468,-1.346l-6.269,1.615l0,-6.541l6.28,-1.728l-0.012,6.653Zm-6.755,-6.035l-3.669,-2.381l5.755,-1.503l3.788,2.266l-5.874,1.617l-0,0.001Zm56.24,0.166l-5.698,-3.409l-8.1,2.113l0,8.722l5.59,3.413l8.192,-2.112l0.016,-8.728l0.001,0Zm-8.682,9.144l-3.917,-2.391l0,-6.565l3.917,2.541l0,6.415Zm-2.957,-9.764l5.756,-1.502l3.788,2.266l-5.875,1.617l-3.669,-2.381l0.001,0.001Zm10.424,8.416l-6.268,1.615l0,-6.541l6.28,-1.729l-0.012,6.653l-0.001,0.001Z" style="fill:#13294b;fill-rule:nonzero;"/><circle cx="51.05" cy="94.267" r="3.433" style="fill:#13294b;"/><path d="M91.784,141.544c1.75,0 3.169,-1.42 3.169,-3.171c0,-0.023 0.001,-0.046 0.001,-0.069c0,-1.739 -1.431,-3.17 -3.169,-3.17c-1.739,0 -3.169,1.431 -3.169,3.17c0,0.023 0,0.046 0.001,0.069c-0,1.739 1.43,3.17 3.169,3.171Zm-15.537,-3.171c0,1.751 1.419,3.171 3.169,3.171c1.75,0 3.169,-1.42 3.169,-3.171c0,-0.023 0.001,-0.046 0.001,-0.069c0,-1.739 -1.431,-3.17 -3.169,-3.17c-1.739,0 -3.169,1.431 -3.169,3.17c0,0.023 0,0.046 0.001,0.069Zm-12.368,0c0,1.751 1.419,3.171 3.169,3.171c1.75,0 3.169,-1.42 3.169,-3.171c0,-0.023 0.001,-0.046 0.001,-0.069c0,-1.739 -1.431,-3.17 -3.169,-3.17c-1.739,0 -3.169,1.431 -3.169,3.17c0,0.023 0,0.046 0.001,0.069Zm-24.025,-24.826c1.75,0 3.169,-1.42 3.169,-3.171c0,-0.023 0.001,-0.046 0.001,-0.069c0,-1.739 -1.431,-3.169 -3.169,-3.169c-1.739,0 -3.169,1.431 -3.169,3.169c0,0.023 0,0.046 0.001,0.069c-0,1.739 1.43,3.17 3.169,3.171Zm79.788,-14.387c0,1.751 1.419,3.171 3.169,3.171c1.75,0 3.169,-1.42 3.169,-3.171c0,-0.023 0.001,-0.046 0.001,-0.069c0,-1.739 -1.431,-3.169 -3.169,-3.169c-1.739,0 -3.169,1.431 -3.169,3.169c0,0.023 0,0.046 0.001,0.069Zm-103.568,-7.71c0,1.751 1.419,3.171 3.169,3.171c1.75,0 3.169,-1.42 3.169,-3.171c0,-0.023 0.001,-0.046 0.001,-0.069c0,-1.739 -1.431,-3.169 -3.169,-3.169c-1.739,0 -3.169,1.431 -3.169,3.169c0,0.023 0,0.046 0.001,0.069Zm39.638,38.366c0,-1.751 -1.419,-3.17 -3.169,-3.17c-1.75,0 -3.169,1.42 -3.169,3.17c0,1.75 1.419,3.171 3.169,3.171c1.75,0 3.169,-1.42 3.169,-3.171Zm-20.927,3.171c1.75,0 3.169,-1.42 3.169,-3.171c0,-0.023 0.001,-0.046 0.001,-0.069c0,-1.739 -1.431,-3.17 -3.169,-3.17c-1.739,0 -3.169,1.431 -3.169,3.17c0,0.023 0,0.046 0.001,0.069c-0,1.739 1.43,3.17 3.169,3.171Z" style="fill:#13294b;fill-rule:nonzero;"/></svg>