<svg xmlns="http://www.w3.org/2000/svg" id="training" viewBox="0 0 400 400">
  <defs>
    <style>
      .cls-2{fill:#13294b}
    </style>
  </defs>
  <path d="M205.325 255.936c48.59 0 87.979-39.39 87.979-87.979s-39.389-87.98-87.979-87.98-87.979 39.39-87.979 87.98 39.389 87.979 87.979 87.979" style="fill:#fff"/>
  <path d="M135.685 161.215c-2.333 0-4.225 1.893-4.225 4.226s1.892 4.229 4.225 4.229 4.225-1.893 4.225-4.229-1.892-4.226-4.225-4.226ZM135.473 152.129a4.226 4.226 0 1 0 0-8.451 4.226 4.226 0 0 0 0 8.451ZM135.685 196.291a4.226 4.226 0 1 0 .001 8.451 4.226 4.226 0 0 0-.001-8.451ZM135.685 178.752c-2.333 0-4.225 1.893-4.225 4.226s1.892 4.229 4.225 4.229 4.225-1.893 4.225-4.229-1.892-4.226-4.225-4.226ZM274.525 161.215c-2.333 0-4.225 1.893-4.225 4.226s1.892 4.229 4.225 4.229 4.225-1.893 4.225-4.229-1.892-4.226-4.225-4.226ZM274.313 152.129a4.226 4.226 0 1 0 0-8.451 4.226 4.226 0 0 0 0 8.451ZM274.525 196.291a4.226 4.226 0 1 0 .001 8.451 4.226 4.226 0 0 0-.001-8.451ZM274.525 178.752c-2.333 0-4.225 1.893-4.225 4.226s1.892 4.229 4.225 4.229 4.225-1.893 4.225-4.229-1.892-4.226-4.225-4.226ZM171.549 144.242a4.226 4.226 0 1 0-4.6 7.09 4.226 4.226 0 0 0 4.6-7.09ZM148.254 285.558h4.979v14.298h1.896v-14.298h4.979v-1.689h-11.854v1.689zM169.975 292.684c1.05-.259 1.918-.776 2.604-1.553s1.028-1.789 1.028-3.038c0-.807-.145-1.491-.434-2.055s-.674-1.021-1.153-1.371a4.632 4.632 0 0 0-1.667-.753 8.521 8.521 0 0 0-1.999-.229c-.625 0-1.313.03-2.067.091-.754.062-1.42.146-1.999.252v15.827h1.896v-7.24l2.238.343 4.408 6.897h2.215l-3.974-6.326-1.096-.846Zm-2.01-1.324h-1.782v-5.893c.106-.03.248-.054.423-.068.175-.016.361-.03.56-.046.197-.015.403-.022.616-.022h.617c1.005 0 1.789.267 2.353.799.563.533.845 1.211.845 2.033 0 1.096-.343 1.903-1.028 2.421s-1.553.776-2.604.776ZM183.404 283.618l-6.053 16.238h1.896l1.59-4.431h5.863l1.636 4.431h2.01l-6.075-16.238h-.868Zm2.728 10.163h-4.681l1.75-4.819.568-2.467h.023l.568 2.421 1.772 4.865ZM194.732 283.869h1.895v15.987h-1.895zM212.477 294.283l.251 2.193h-.114l-1.187-2.193-7.652-10.665h-1.005v16.238h1.782v-10.46l-.228-2.308h.091l1.233 2.308 7.606 10.711h1.005v-16.238h-1.782v10.414zM220.402 283.869h1.896v15.987h-1.896zM238.147 294.283l.252 2.193h-.114l-1.187-2.193-7.652-10.665h-1.005v16.238h1.782v-10.46l-.229-2.308h.092l1.233 2.308 7.606 10.711h1.005v-16.238h-1.783v10.414zM251.029 292.959l3.723.457v4.453c-.684.381-1.511.571-2.482.571a5.624 5.624 0 0 1-2.141-.399 4.33 4.33 0 0 1-1.674-1.211c-.463-.54-.823-1.222-1.081-2.044-.259-.822-.388-1.797-.388-2.924 0-1.233.16-2.269.479-3.105.32-.838.731-1.516 1.233-2.033.503-.518 1.069-.887 1.701-1.107s1.268-.331 1.907-.331c1.355 0 2.398.183 3.129.548l.48-1.69c-.411-.167-.914-.3-1.508-.399-.594-.099-1.348-.148-2.261-.148-.854 0-1.706.152-2.559.457s-1.621.788-2.307 1.45-1.241 1.519-1.667 2.569c-.427 1.051-.64 2.314-.64 3.791 0 1.416.175 2.646.525 3.688.35 1.044.837 1.904 1.462 2.581.624.678 1.362 1.181 2.215 1.508s1.789.491 2.81.491c.396 0 .803-.027 1.222-.08a8.948 8.948 0 0 0 1.211-.24c.388-.106.753-.235 1.096-.388s.636-.32.88-.503v-7.034h-5.367v1.073ZM163.438 112.836a.8.8 0 0 0-1.004-.521c-2.772.879-5.756 1.325-8.87 1.325s-6.122-.45-8.906-1.336a.8.8 0 0 0-.485 1.525c2.942.937 6.102 1.412 9.392 1.412s6.424-.471 9.353-1.399a.8.8 0 0 0 .521-1.004ZM163.438 123.135a.798.798 0 0 0-1.004-.521c-2.772.879-5.756 1.325-8.87 1.325s-6.125-.45-8.906-1.336a.799.799 0 1 0-.486 1.524c2.939.937 6.099 1.412 9.392 1.412s6.424-.471 9.353-1.399a.8.8 0 0 0 .521-1.004ZM162.434 131.979c-2.772.879-5.756 1.325-8.87 1.325-3.129 0-6.126-.45-8.906-1.336a.8.8 0 1 0-.486 1.524c2.938.937 6.097 1.412 9.392 1.412 3.277 0 6.424-.471 9.353-1.399a.8.8 0 0 0-.483-1.525Z" class="cls-2"/>
  <path d="M153.578 137.869c11.618 0 20.794-4.319 21.511-9.953a.785.785 0 0 0 .072-.325v-26.645a.773.773 0 0 0-.113-.386c-.839-5.317-9.962-9.377-21.484-9.377s-20.702 4.087-21.489 9.43a.79.79 0 0 0-.077.333v26.645a.78.78 0 0 0 .07.321c.713 5.636 9.891 9.956 21.511 9.956Zm0-1.6c-4.323 0-8.366-.669-11.678-1.775v-4.68c3.307.917 7.273 1.441 11.678 1.441 4.294 0 8.168-.499 11.425-1.373l.026 4.69c-3.27 1.061-7.228 1.698-11.451 1.698Zm0-17.501c9.125 0 16.754-2.664 19.957-6.536-.253 4.607-8.737 8.058-19.957 8.058s-19.705-3.451-19.958-8.058c3.203 3.872 10.832 6.536 19.958 6.536Zm-11.745-3.397a.796.796 0 0 0 .067-.317v-5.101c3.345.999 7.33 1.58 11.664 1.58 4.237 0 8.138-.558 11.438-1.516l.029 5.454c-3.27 1.061-7.228 1.698-11.452 1.698-4.352 0-8.42-.678-11.745-1.798Zm.067 5.078c3.307.917 7.273 1.441 11.678 1.441 4.294 0 8.168-.499 11.425-1.373l.025 4.533c-3.269 1.061-7.227 1.698-11.45 1.698-4.323 0-8.366-.669-11.678-1.775v-4.523Zm11.678 7.898c9.095 0 16.706-2.645 19.928-6.497-.546 4.479-8.916 7.805-19.928 7.805s-19.383-3.326-19.929-7.805c3.222 3.851 10.834 6.497 19.929 6.497Zm19.983-1.137h-.002c0 2.671-2.72 5.111-6.933 6.786l-.026-4.59c3.094-1.02 5.504-2.413 6.961-4.085v1.89Zm0-9.522h-.002c0 2.671-2.721 5.111-6.934 6.786l-.025-4.433c3.094-1.02 5.504-2.414 6.961-4.086v1.732Zm0-9.578h-.002c0 2.671-2.72 5.11-6.933 6.786l-.029-5.391c3.081-1.09 5.503-2.558 6.963-4.28v2.886Zm-19.997-15.327c10.823 0 19.967 3.927 19.967 8.575s-9.144 8.575-19.967 8.575-19.967-3.927-19.967-8.575 9.144-8.575 19.967-8.575Zm-19.967 12.481c1.427 1.663 3.754 3.087 6.704 4.16v5.377c-4.08-1.672-6.704-4.069-6.704-6.691v-2.846Zm0 10.694c1.417 1.625 3.735 2.985 6.704 3.997v4.423c-4.08-1.672-6.704-4.069-6.704-6.691v-1.729Zm0 9.365c1.417 1.625 3.736 2.986 6.706 3.998l-.002.011v4.569c-4.08-1.672-6.704-4.069-6.704-6.691v-1.887ZM235.903 150.912a.798.798 0 0 0-1.106-.235l-21.82 14.17a.799.799 0 0 0 .437 1.471c.149 0 .3-.042.435-.129l21.82-14.17a.799.799 0 0 0 .235-1.106ZM238.416 144.242a4.226 4.226 0 0 0-1.242 5.846 4.229 4.229 0 0 0 5.846 1.244 4.227 4.227 0 0 0-4.604-7.09ZM174.061 150.912a.8.8 0 0 0 .235 1.106l21.82 14.17a.799.799 0 0 0 1.107-.236.8.8 0 0 0-.235-1.106l-21.82-14.17a.8.8 0 0 0-1.106.235ZM199.394 169.781c.169 1.12.637 2.095 1.284 2.978.145.198.306.381.42.605.422.831.602 1.732.691 2.664.043.457.043.921.152 1.37.099.404.262.559.643.609.876.116 1.757.077 2.636.078.632 0 1.265.008 1.897-.003.281-.005.563-.039.842-.075.379-.048.565-.229.655-.627.088-.384.095-.78.128-1.171.06-.698.177-1.379.374-2.05.202-.686.633-1.207 1.009-1.772.923-1.387 1.284-2.93 1.029-4.619-.249-1.646-.984-2.999-2.201-4.029-1.445-1.223-3.082-1.636-4.874-1.25-1.625.349-2.891 1.309-3.796 2.802-.83 1.367-1.133 2.872-.889 4.49ZM204.391 159.795a.8.8 0 1 0 1.599-.003c-.003-2.07-.025-2.894-.047-3.71-.021-.816-.042-1.626-.045-3.694a.8.8 0 1 0-1.599.002c.002 2.09.023 2.909.046 3.734.021.809.042 1.623.046 3.671ZM211.791 162.749c.205 0 .41-.078.566-.235 1.458-1.462 2.025-2.061 2.586-2.652a119.89 119.89 0 0 1 2.585-2.648.8.8 0 1 0-1.132-1.13c-1.48 1.484-2.043 2.077-2.613 2.677-.555.585-1.115 1.176-2.558 2.624a.799.799 0 0 0 .566 1.364ZM195.805 168.071h-.001a123.05 123.05 0 0 0-3.708.047c-.817.021-1.626.043-3.697.045a.8.8 0 0 0 .001 1.6c2.093-.002 2.911-.024 3.737-.046.808-.021 1.622-.042 3.668-.046a.798.798 0 1 0-.002-1.599ZM222.144 168.071c-2.09.002-2.909.024-3.733.045-.809.021-1.623.043-3.672.046a.8.8 0 1 0 .001 1.599c2.071-.003 2.895-.025 3.712-.046.815-.021 1.626-.043 3.693-.045a.8.8 0 0 0-.001-1.6ZM195.601 159.861c.562.592 1.128 1.189 2.588 2.654a.797.797 0 0 0 1.13.002.8.8 0 0 0 .002-1.131c-1.443-1.448-2.004-2.04-2.56-2.625-.569-.6-1.132-1.193-2.611-2.676a.8.8 0 0 0-1.132 1.13 121.267 121.267 0 0 1 2.583 2.647ZM208.699 180.389a.8.8 0 0 0-.8-.783h-.017c-.35.007-.699.018-1.049.029a88.57 88.57 0 0 1-1.152.031c-.831.017-1.683-.014-2.508-.043l-.501-.017c-.401.007-.812.331-.826.774a.8.8 0 0 0 .773.826l.498.017a59.29 59.29 0 0 0 2.085.048c.169 0 .339 0 .508-.004.391-.007.782-.019 1.173-.031.344-.011.688-.021 1.032-.029a.8.8 0 0 0 .783-.816ZM207.175 182.379c-.998.02-2.816-.041-3.792-.074-.457-.012-.812.332-.826.773s.332.812.773.826c.865.028 2.383.077 3.445.077.152 0 .296 0 .427-.003a.8.8 0 0 0 .786-.813.81.81 0 0 0-.813-.786ZM256.352 229.435a.962.962 0 0 0 .502-.603c.135-.48-.108-.739-.694-1.363-1.006-1.071-3.36-3.578-4.125-6.396-.636-2.348-.407-4.255-.187-6.099.132-1.1.269-2.237.22-3.438-.053-1.271-.615-12.53-4.287-16.459-4.292-4.594-15.499-5.124-20.674-2.201-.141.065-3.482 1.627-5.174 4.951-1.725 3.394-2.395 10.301-2.505 13.433-.17 1.793-.057 3.732.052 5.608.109 1.873.212 3.642.057 5.256-.082.849-.689 3.154-1.04 4.414-1.508-1.145-4.006-2.929-6.984-4.293.766-1.574 1.307-3.455 1.523-5.404.138-1.235.65-3.838.954-4.427.017-.031.022-.043.269-.146.304-.128.719-.303 1.168-.729.799-.711 1.188-2.646.851-4.222-.203-.952-.648-1.697-1.283-2.173-.015-.611.003-1.992.014-2.88.012-.938.021-1.769.009-2.021-.162-3.389-1.271-6.035-3.293-7.864-3.448-3.118-8.749-3.223-12.438-3.03-5.869.308-10.718 5.124-11.28 11.204-.226 2.442-.18 3.746.001 4.459-.653.898-1.094 2.108-1.17 3.321-.083 1.322.288 2.446 1.046 3.164.496.471 1.129.515 1.591.519.043.511.081 1.016.117 1.516.235 3.207.46 6.269 2.187 9.127-2.127.879-5.952 2.589-8.619 4.485.212-.926.324-1.827.334-2.626.004-.301.046-.818.09-1.363.062-.76.125-1.546.112-2.001l-.005-.146c-.006-.181-.023-.661-.002-.925.151-.098.369-.228.601-.368.49-.298.997-.605 1.28-.822.978-.752 1.542-2.256 1.403-3.744-.088-.942-.533-2.634-2.468-3.8-.005-.332-.008-.673-.01-1.019-.025-3.638-.057-8.164-3.81-10.104-4.254-2.198-13.716-2.173-17.7.019-3.038 1.342-4.331 5.085-4.489 5.941-.211 1.153-.11 3.951-.001 5.361a10.98 10.98 0 0 0-.448.315c-.851.646-1.359 1.606-1.43 2.703-.08 1.237.403 2.469 1.326 3.378.719.709 1.224.895 1.785.979.018.315.034.631.05.946.175 3.417.356 6.942 2.229 10.072-.679.327-1.712.801-2.364 1.1-.711.325-1.295.594-1.438.671-2.802 1.514-7.868 4.869-10.323 10.337a.8.8 0 0 0 1.46.655c2.261-5.037 7-8.166 9.624-9.583.133-.072.679-.32 1.343-.625 1.306-.598 2.117-.97 2.628-1.224 1.648 2.005 4.053 3.386 6.873 3.925 3.363.647 6.798-.01 9.419-1.794.997-.679 1.791-1.553 2.41-2.521 8.224 1.924 11.454 9.432 12.472 12.625a.8.8 0 1 0 1.524-.486c-1.071-3.361-4.426-11.127-12.894-13.495 1.954-1.872 6.317-4.035 9.979-5.525.148.185.304.368.467.551 2.086 2.326 4.929 3.671 8.004 3.785 3.102.127 6.039-1.026 8.32-3.217a8.624 8.624 0 0 0 1.212-1.478c2.918 1.318 5.395 3.094 6.905 4.243l-.127.088c-.212.144-.408.28-.554.402-3.115 2.609-5.212 5.35-6.411 8.379a.801.801 0 0 0 1.488.588c1.098-2.774 3.044-5.306 5.95-7.74l.041-.033c.064 1.252.507 2.392 1.497 2.929 1.885 1.024 4.802-.552 8.896-4.818 2.358 2.114 5.242 2.908 7.729 2.852 3.55-.088 6.726-1.791 8.712-4.469.739.095 3.038.959 4.748 1.602 1.186.445 2.159.806 2.966 1.087 2.176 1.666 6.533 5.088 7.622 12.305a.8.8 0 0 0 1.582-.238c-.846-5.603-3.48-9.084-5.771-11.272a1.2 1.2 0 0 0 .359-.11Zm-74.106-10.145c-.187.419-.182 1.051-.157 1.772l.004.136c.011.368-.052 1.143-.107 1.826a27.447 27.447 0 0 0-.095 1.473c-.019 1.551-.428 3.376-1.273 4.943a.794.794 0 0 0-.168.299c-.544.925-1.249 1.744-2.125 2.341-2.272 1.547-5.268 2.108-8.219 1.545-2.667-.511-4.896-1.872-6.3-3.845a7.134 7.134 0 0 1-.115-.166c-1.962-2.898-2.135-6.264-2.318-9.827-.028-.541-.056-1.083-.09-1.623l-.04-.629-.621-.108c-.161-.028-.307-.044-.445-.06-.418-.045-.61-.066-1.114-.562-.583-.575-.902-1.374-.853-2.136.041-.627.325-1.172.799-1.531.153-.116.43-.303.737-.504l.042-.028.372-.24c.417-.268.815-.516.983-.612 1.016-.587 2.018-1.206 3.02-1.825.419-.259.838-.518 1.258-.774l-.017.086c-.14.713-.298 1.52.256 2.094.544.565 1.387.432 1.663.387l7.479-3.883c.053.283.103.615.142.877.228 1.513.407 2.465.985 2.919.663.521 1.228.344 1.654.21.809-.257 1.803-.891 2.764-1.505.504-.322.984-.628 1.387-.848-.016.148-.037.295-.052.397-.08.553-.163 1.124.123 1.588.214.347 1.327.946 1.518 1.048a.33.33 0 0 0 .042.021c1.603.817 1.949 2.073 2.012 2.751.099 1.057-.32 1.97-.784 2.326-.213.164-.725.475-1.136.725-.918.558-1.083.658-1.21.943Zm27.505 2.869a.835.835 0 0 0-.085.148c-.383.656-.81 1.221-1.265 1.658-1.965 1.887-4.495 2.878-7.153 2.772-2.638-.099-5.078-1.255-6.872-3.255a11.61 11.61 0 0 1-.668-.816.8.8 0 0 0-.147-.204c-1.91-2.705-2.128-5.673-2.375-9.049a91.347 91.347 0 0 0-.18-2.213l-.021-.213-.125-.175c-.317-.443-.832-.425-1.201-.404-.215.008-.575.023-.677-.073-.55-.521-.581-1.415-.55-1.902.064-1.012.483-2.065 1.035-2.701a.845.845 0 0 0 .118-.128 2.11 2.11 0 0 1 .247-.215c.056-.027.233-.058.328-.073.312-.053.738-.126.954-.547l.283-1.428c.939-5.129 1.882-6.716 4.804-8.084.57-.27 1.95.256 3.058.677.998.379 2.03.771 2.921.827 1.003.049 1.873-.311 2.646-.639 1.04-.443 1.61-.654 2.209-.221 2.301 1.669 4.368 6.24 5.438 9.648l.137.433 1.066.254c.526.178.876.653 1.038 1.414.262 1.224-.12 2.488-.368 2.71-.256.241-.465.329-.707.432-.329.139-.779.328-1.068.886-.479.929-1.005 3.916-1.123 4.986-.225 2.017-.846 3.982-1.695 5.494Zm35.296-.086c-1.14 3.998-4.737 6.754-8.952 6.858-3.48.092-7.859-1.811-9.765-7.422-1.895-4.859-1.793-13.752 2.677-17.193.449-.345.949-.676 1.493-1.037 1.345-.893 2.985-1.982 4.813-3.863 1.398 1.384 3.249 2.412 4.907 3.334 1.258.699 2.445 1.359 3.157 2.029 3.234 3.046 3.337 12.754 1.668 17.294Z" class="cls-2"/>
  <path d="M241.088 219.529c-.902-.597-2.23.104-3.402.725-.286.151-.531.286-.715.353-1.217.479-1.823.358-2.814-.002-.2-.077-.433-.197-.683-.324-.562-.284-1.199-.606-1.846-.73a1.45 1.45 0 0 0-1.19.246c-.37.272-.621.728-.654 1.189-.027.387.057.98.613 1.616 1.198 1.369 3.901 2.187 5.069 2.259.096.007.195.011.299.011 2.114 0 5.708-1.46 5.913-3.854.074-.858-.28-1.282-.59-1.488Zm-5.514 3.734c-1.028-.063-3.197-.829-3.974-1.716-.096-.109-.205-.262-.211-.413.415.094.916.348 1.36.573.304.153.586.295.844.395 1.36.494 2.347.629 3.941 0 .238-.086.529-.24.898-.436.383-.202 1.195-.633 1.646-.741-.174 1.292-3.018 2.448-4.505 2.337ZM231.154 211.911c.909-.204.703-1.905-.427-1.759-1.186.153-1.192 2.123.427 1.759ZM239.402 211.911c1.735.505 1.703-2.041.247-1.762-.866.166-.968 1.552-.247 1.762ZM196.402 207.322c-.855.952.697 2.141 1.427 1.24.211-.26.235-1.037.008-1.264-.22-.219-1.195-.243-1.435.024ZM206.245 207.143c-.99-.084-1.432.728-.873 1.417 1.018 1.255 2.646-1.268.873-1.417ZM204.461 216.373c-.714-.467-1.561-.043-2.12.238-.103.052-.191.1-.246.119-.584.161-.854.156-1.252-.017-.055-.028-.109-.074-.167-.118-.283-.213-.949-.717-1.671-.231l-.006.003c-.381.26-.709.909-.731 1.448-.079 1.931 1.671 2.821 2.866 2.949.061.006.134.01.217.01.647 0 1.922-.215 2.806-.971.569-.486.89-1.125.926-1.847.038-.757-.171-1.29-.621-1.584Zm-.977 1.504c-.015.283-.131.509-.367.711-.568.485-1.578.622-1.813.585-.015 0-1.389-.177-1.437-1.186.099.069.208.138.332.191.859.373 1.524.315 2.323.094.127-.035.318-.122.536-.231a5.81 5.81 0 0 1 .427-.2v.036ZM165.862 224.516l.273.812c.131.39 1.398 3.792 5.785 3.792h.057c3.855-.264 5.492-2.309 5.738-4.134l.1-.738-6.079-1.264-5.873 1.531Zm10.047.971c-.38.791-1.378 1.855-3.993 2.036-2.247.038-3.346-1.112-3.873-1.923l3.732-.973 4.133.859ZM176.419 216.19c.757-.753-.512-2.123-1.305-1.235-.843.944.524 2.011 1.305 1.235ZM167.725 216.19c.757-.754-.495-2.061-1.307-1.238-.827.837.448 2.094 1.307 1.238ZM255.74 139.852c15.15 0 27.477-12.327 27.477-27.479s-12.326-27.475-27.477-27.475-27.477 12.325-27.477 27.475 12.326 27.479 27.477 27.479Zm0-1.599a25.727 25.727 0 0 1-14.898-4.739c.78-3.927 2.988-4.697 6.929-6.054.638-.219 1.309-.45 2.011-.709 1.545 1.587 3.838 2.571 6.415 2.677 2.849.112 5.351-.88 6.897-2.708 5.744 1.655 7.825 4.134 8.525 6.064a25.737 25.737 0 0 1-15.879 5.468Zm-6.26-26.483c.68-2.122 2.801-3.712 5.278-3.958 2.278-.227 6.312-.138 7.627 2.995.865 2.064 1.27 6.269 1.02 9.704a.728.728 0 0 0-.007.093c-.141 1.832-.468 3.435-1.014 4.363-1.119 1.905-3.402 2.974-6.122 2.863-2.854-.118-5.357-1.56-6.377-3.675-.354-.732-.611-1.821-.778-3.07 0-.005 0-.01-.002-.015-.42-3.146-.267-7.297.375-9.3Zm6.26-25.273c14.269 0 25.877 11.608 25.877 25.875 0 7.687-3.372 14.598-8.711 19.342-.972-2.15-3.339-4.693-8.905-6.394.511-1.104.82-2.644.967-4.342 5.561-5.587 9.153-14.632 4.029-21.552-3.604-4.869-9.61-7.231-15.681-6.166-6.038 1.062-10.857 5.309-12.575 11.083-1.664 5.594.822 11.867 6.825 17.246.193 1.298.484 2.443.877 3.259.095.196.198.387.31.572-.52.187-1.021.359-1.503.525-3.845 1.324-6.698 2.313-7.808 6.509-5.84-4.749-9.58-11.987-9.58-20.084 0-14.268 11.608-25.875 25.877-25.875Z" class="cls-2"/>
  <path d="M251.942 121.692c.258.771 1.013 3.022 4.049 3.022.195 0 .399-.009.614-.029 3.703-.531 3.944-2.631 4.048-3.528a.8.8 0 1 0-1.59-.182c-.086.748-.203 1.771-2.644 2.122-2.241.208-2.695-1.121-2.961-1.914l-.043-.127a.8.8 0 1 0-1.512.524l.038.112ZM253.696 114.112c-.646-.571-1.659.215-1.153 1.04.583.949 2.028-.267 1.153-1.04ZM259.912 115.235c.616-.593-.313-1.803-1.095-1.109-.854.758.399 1.779 1.095 1.109Z" class="cls-2"/>
</svg>
