<?xml version="1.0" encoding="UTF-8"?>
<!DOCTYPE svg PUBLIC "-//W3C//DTD SVG 1.1//EN" "http://www.w3.org/Graphics/SVG/1.1/DTD/svg11.dtd">
<svg version="1.2" width="204.01mm" height="154.01mm" viewBox="4650 2800 20401 15401" preserveAspectRatio="xMidYMid" fill-rule="evenodd" stroke-width="28.222" stroke-linejoin="round" xmlns="http://www.w3.org/2000/svg" xmlns:ooo="http://xml.openoffice.org/svg/export" xmlns:xlink="http://www.w3.org/1999/xlink" xmlns:presentation="http://sun.com/xmlns/staroffice/presentation" xmlns:smil="http://www.w3.org/2001/SMIL20/" xmlns:anim="urn:oasis:names:tc:opendocument:xmlns:animation:1.0" xmlns:svg="urn:oasis:names:tc:opendocument:xmlns:svg-compatible:1.0" xml:space="preserve">
 <defs class="EmbeddedBulletChars">
  <g id="bullet-char-template-57356" transform="scale(0.00048828125,-0.00048828125)">
   <path d="M 580,1141 L 1163,571 580,0 -4,571 580,1141 Z"/>
  </g>
  <g id="bullet-char-template-57354" transform="scale(0.00048828125,-0.00048828125)">
   <path d="M 8,1128 L 1137,1128 1137,0 8,0 8,1128 Z"/>
  </g>
  <g id="bullet-char-template-10146" transform="scale(0.00048828125,-0.00048828125)">
   <path d="M 174,0 L 602,739 174,1481 1456,739 174,0 Z M 1358,739 L 309,1346 659,739 1358,739 Z"/>
  </g>
  <g id="bullet-char-template-10132" transform="scale(0.00048828125,-0.00048828125)">
   <path d="M 2015,739 L 1276,0 717,0 1260,543 174,543 174,936 1260,936 717,1481 1274,1481 2015,739 Z"/>
  </g>
  <g id="bullet-char-template-10007" transform="scale(0.00048828125,-0.00048828125)">
   <path d="M 0,-2 C -7,14 -16,27 -25,37 L 356,567 C 262,823 215,952 215,954 215,979 228,992 255,992 264,992 276,990 289,987 310,991 331,999 354,1012 L 381,999 492,748 772,1049 836,1024 860,1049 C 881,1039 901,1025 922,1006 886,937 835,863 770,784 769,783 710,716 594,584 L 774,223 C 774,196 753,168 711,139 L 727,119 C 717,90 699,76 672,76 641,76 570,178 457,381 L 164,-76 C 142,-110 111,-127 72,-127 30,-127 9,-110 8,-76 1,-67 -2,-52 -2,-32 -2,-23 -1,-13 0,-2 Z"/>
  </g>
  <g id="bullet-char-template-10004" transform="scale(0.00048828125,-0.00048828125)">
   <path d="M 285,-33 C 182,-33 111,30 74,156 52,228 41,333 41,471 41,549 55,616 82,672 116,743 169,778 240,778 293,778 328,747 346,684 L 369,508 C 377,444 397,411 428,410 L 1163,1116 C 1174,1127 1196,1133 1229,1133 1271,1133 1292,1118 1292,1087 L 1292,965 C 1292,929 1282,901 1262,881 L 442,47 C 390,-6 338,-33 285,-33 Z"/>
  </g>
  <g id="bullet-char-template-9679" transform="scale(0.00048828125,-0.00048828125)">
   <path d="M 813,0 C 632,0 489,54 383,161 276,268 223,411 223,592 223,773 276,916 383,1023 489,1130 632,1184 813,1184 992,1184 1136,1130 1245,1023 1353,916 1407,772 1407,592 1407,412 1353,268 1245,161 1136,54 992,0 813,0 Z"/>
  </g>
  <g id="bullet-char-template-8226" transform="scale(0.00048828125,-0.00048828125)">
   <path d="M 346,457 C 273,457 209,483 155,535 101,586 74,649 74,723 74,796 101,859 155,911 209,963 273,989 346,989 419,989 480,963 531,910 582,859 608,796 608,723 608,648 583,586 532,535 482,483 420,457 346,457 Z"/>
  </g>
  <g id="bullet-char-template-8211" transform="scale(0.00048828125,-0.00048828125)">
   <path d="M -4,459 L 1135,459 1135,606 -4,606 -4,459 Z"/>
  </g>
  <g id="bullet-char-template-61548" transform="scale(0.00048828125,-0.00048828125)">
   <path d="M 173,740 C 173,903 231,1043 346,1159 462,1274 601,1332 765,1332 928,1332 1067,1274 1183,1159 1299,1043 1357,903 1357,740 1357,577 1299,437 1183,322 1067,206 928,148 765,148 601,148 462,206 346,322 231,437 173,577 173,740 Z"/>
  </g>
 </defs>
 <g class="Page">
  <g class="com.sun.star.drawing.CustomShape">
   <g id="id3">
    <rect class="BoundingBox" stroke="none" fill="none" x="4650" y="2800" width="20401" height="15401"/>
    <path fill="rgb(232,234,235)" stroke="none" d="M 14850,18000 L 4850,18000 4850,3000 24850,3000 24850,18000 14850,18000 Z"/>
    <path fill="none" stroke="rgb(106,109,113)" stroke-width="400" stroke-linejoin="round" d="M 14850,18000 L 4850,18000 4850,3000 24850,3000 24850,18000 14850,18000 Z"/>
   </g>
  </g>
  <g class="Group">
   <g class="com.sun.star.drawing.ClosedBezierShape">
    <g id="id4">
     <rect class="BoundingBox" stroke="none" fill="none" x="12054" y="4895" width="8794" height="7091"/>
     <path fill="rgb(106,109,113)" stroke="none" d="M 12454,4896 L 12055,5296 12055,6518 C 12185,6505 12320,6496 12454,6496 12589,6496 12720,6505 12854,6518 L 12854,5696 20047,5696 20047,9701 18683,9701 17648,10735 17648,9701 16028,9701 C 16041,9831 16050,9965 16050,10101 16050,10237 16041,10370 16028,10501 L 16849,10501 16849,11702 17531,11985 19012,10501 20447,10501 20846,10101 20846,5296 20447,4896 12454,4896 Z"/>
    </g>
   </g>
   <g class="com.sun.star.drawing.ClosedBezierShape">
    <g id="id5">
     <rect class="BoundingBox" stroke="none" fill="none" x="8855" y="7299" width="7196" height="8809"/>
     <path fill="rgb(106,109,113)" stroke="none" d="M 13984,12445 C 14748,11944 15251,11081 15251,10101 15251,8552 13999,7300 12454,7300 10909,7300 9655,8552 9655,10101 9655,11081 10158,11944 10921,12445 10546,12622 10204,12864 9910,13158 9576,13493 9310,13890 9130,14326 9000,14639 8916,14968 8878,15306 8864,15437 8856,15573 8856,15706 L 8856,16106 9655,16106 9655,15706 C 9655,15687 9655,15671 9655,15654 9663,15303 9734,14957 9867,14633 10008,14293 10215,13983 10476,13724 10734,13463 11044,13256 11383,13117 11709,12981 12060,12907 12416,12902 12430,12902 12442,12902 12454,12902 12466,12902 12479,12902 12489,12902 12845,12907 13196,12981 13525,13117 13865,13256 14172,13463 14433,13724 14691,13983 14897,14293 15039,14633 15172,14957 15245,15303 15251,15654 15251,15671 15251,15687 15251,15706 L 15251,16106 16050,16106 16050,15706 C 16050,15573 16041,15437 16028,15306 15990,14968 15905,14639 15775,14326 15596,13890 15329,13493 14995,13158 14702,12864 14359,12622 13984,12445 Z M 12454,12102 C 11348,12102 10454,11206 10454,10101 10454,8996 11349,8100 12454,8100 13559,8100 14452,8996 14452,10101 14452,11206 13557,12102 12454,12102 Z"/>
    </g>
   </g>
  </g>
 </g>
</svg>