<?xml version="1.0" encoding="UTF-8"?>
<svg id="Isolationsmodus" xmlns="http://www.w3.org/2000/svg" width="120mm" height="30mm" viewBox="0 0 340.16 85.04">
  <defs>
    <style>
      .cls-1 {
        fill: #999;
      }

      .cls-2 {
        fill: #9c0;
      }

      .cls-3 {
        fill: #004d8f;
      }
    </style>
  </defs>
  <g>
    <path class="cls-2" d="m93.05,18.02c0-3.57,0-4.23-.05-4.98-.05-.8-.24-1.18-1.01-1.34-.19-.05-.59-.07-.92-.07-.26,0-.4-.05-.4-.21s.16-.21.52-.21c1.25,0,2.73.07,3.2.07,1.15,0,2.07-.07,2.87-.07,4.26,0,5.01,2.28,5.01,3.53,0,1.93-1.1,3.08-2.4,4.11,1.93.66,4.28,2.33,4.28,5.08,0,2.52-1.95,5.12-6.28,5.12-.28,0-.96-.05-1.65-.07-.71-.05-1.41-.07-1.76-.07-.26,0-.78,0-1.34.02-.54,0-1.15.05-1.62.05-.31,0-.47-.07-.47-.24,0-.12.09-.19.38-.19.35,0,.63-.05.85-.09.47-.09.59-.61.68-1.29.12-.99.12-2.84.12-5.01v-4.14Zm2.82.4c0,.19.07.24.16.26.21.05.56.07,1.1.07.78,0,1.29-.09,1.69-.45.61-.49.96-1.34.96-2.49,0-1.57-.92-3.64-2.94-3.64-.33,0-.54,0-.78.05-.16.05-.21.14-.21.4v5.81Zm3.1,1.88c-.49-.35-1.03-.52-1.95-.56-.42-.02-.66-.02-1.01-.02-.09,0-.14.05-.14.16v5.57c0,1.55.07,1.95.82,2.26.63.26,1.18.28,1.72.28,1.06,0,2.84-.56,2.84-3.01,0-1.46-.49-3.43-2.28-4.68Z"/>
    <path class="cls-2" d="m108.32,18.02c0-3.57,0-4.23-.05-4.98-.05-.8-.24-1.18-1.01-1.34-.19-.05-.59-.07-.92-.07-.26,0-.4-.05-.4-.21s.16-.21.52-.21c.63,0,1.32.02,1.9.02.61.02,1.15.05,1.48.05.75,0,5.43,0,5.88-.02.45-.05.82-.09,1.01-.14.12-.02.26-.09.38-.09s.14.09.14.21c0,.16-.12.45-.19,1.53-.02.24-.07,1.27-.12,1.55-.02.12-.07.26-.24.26s-.21-.12-.21-.33c0-.16-.02-.56-.14-.85-.16-.42-.4-.71-1.57-.85-.4-.05-2.87-.09-3.34-.09-.12,0-.16.07-.16.24v5.95c0,.16.02.26.16.26.52,0,3.22,0,3.76-.05.56-.05.92-.12,1.13-.35.16-.19.26-.31.38-.31.09,0,.16.05.16.19s-.09.52-.19,1.72c-.02.47-.09,1.41-.09,1.57,0,.19,0,.45-.21.45-.16,0-.21-.09-.21-.21-.02-.24-.02-.54-.09-.85-.12-.47-.45-.82-1.32-.92-.45-.05-2.77-.07-3.34-.07-.12,0-.14.09-.14.24v1.86c0,.8-.02,2.96,0,3.64.05,1.62.42,1.97,2.82,1.97.61,0,1.6,0,2.21-.28.61-.28.89-.78,1.06-1.74.05-.26.09-.35.26-.35.19,0,.19.19.19.42,0,.54-.19,2.14-.31,2.61-.16.61-.38.61-1.27.61-1.76,0-3.06-.05-4.07-.07-1.01-.05-1.74-.07-2.44-.07-.26,0-.78,0-1.34.02-.54,0-1.15.05-1.62.05-.31,0-.47-.07-.47-.24,0-.12.09-.19.38-.19.35,0,.63-.05.85-.09.47-.09.59-.61.68-1.29.12-.99.12-2.84.12-5.01v-4.14Z"/>
    <path class="cls-2" d="m122.5,18.02c0-3.57,0-4.23-.05-4.98-.05-.8-.24-1.18-1.01-1.34-.19-.05-.59-.07-.92-.07-.26,0-.4-.05-.4-.21s.16-.21.52-.21c1.25,0,2.73.07,3.22.07.8,0,2.59-.07,3.31-.07,1.48,0,3.06.14,4.33,1.01.66.45,1.6,1.65,1.6,3.22,0,1.74-.73,3.34-3.1,5.27,2.09,2.63,3.71,4.73,5.1,6.18,1.32,1.36,2.28,1.53,2.63,1.6.26.05.47.07.66.07s.28.07.28.19c0,.19-.16.24-.45.24h-2.23c-1.32,0-1.9-.12-2.52-.45-1.01-.54-1.9-1.65-3.22-3.46-.94-1.29-2.02-2.89-2.33-3.24-.12-.14-.26-.16-.42-.16l-2.05-.05c-.12,0-.19.05-.19.19v.33c0,2.19,0,4.04.12,5.03.07.68.21,1.2.92,1.29.35.05.87.09,1.15.09.19,0,.28.07.28.19,0,.16-.16.24-.47.24-1.36,0-3.1-.07-3.46-.07-.45,0-1.93.07-2.87.07-.31,0-.47-.07-.47-.24,0-.12.09-.19.38-.19.35,0,.63-.05.85-.09.47-.09.59-.61.68-1.29.12-.99.12-2.84.12-5.01v-4.14Zm2.77,1.86c0,.26.05.35.21.42.49.16,1.2.24,1.79.24.94,0,1.25-.09,1.67-.4.71-.52,1.39-1.6,1.39-3.53,0-3.34-2.21-4.3-3.6-4.3-.59,0-1.01.02-1.25.09-.16.05-.21.14-.21.33v7.15Z"/>
    <path class="cls-2" d="m143.42,22.15c0,3.01,0,4.63.49,5.05.4.35,1.01.52,2.84.52,1.25,0,2.16-.02,2.75-.66.28-.31.56-.96.61-1.41.02-.21.07-.35.26-.35.16,0,.19.12.19.4,0,.26-.16,2.02-.35,2.7-.14.52-.26.63-1.48.63-1.69,0-2.91-.05-3.97-.07-1.06-.05-1.9-.07-2.87-.07-.26,0-.78,0-1.34.02-.54,0-1.15.05-1.62.05-.31,0-.47-.07-.47-.24,0-.12.09-.19.38-.19.35,0,.63-.05.85-.09.47-.09.59-.61.68-1.29.12-.99.12-2.84.12-5.01v-4.14c0-3.57,0-4.23-.05-4.98-.05-.8-.24-1.18-1.01-1.34-.19-.05-.47-.07-.78-.07-.26,0-.4-.05-.4-.21s.16-.21.52-.21c1.1,0,2.59.07,3.22.07.56,0,2.28-.07,3.2-.07.33,0,.49.05.49.21s-.14.21-.42.21c-.26,0-.63.02-.92.07-.63.12-.82.52-.87,1.34-.05.75-.05,1.41-.05,4.98v4.14Z"/>
    <path class="cls-2" d="m154.61,18.02c0-3.57,0-4.23-.05-4.98-.05-.8-.28-1.2-.8-1.32-.26-.07-.56-.09-.85-.09-.24,0-.38-.05-.38-.24,0-.14.19-.19.56-.19.89,0,2.37.07,3.06.07.59,0,1.97-.07,2.87-.07.31,0,.49.05.49.19,0,.19-.14.24-.38.24s-.42.02-.71.07c-.63.12-.82.52-.87,1.34-.05.75-.05,1.41-.05,4.98v4.14c0,2.28,0,4.14.09,5.15.07.63.24,1.06.94,1.15.33.05.85.09,1.2.09.26,0,.38.07.38.19,0,.16-.19.24-.45.24-1.55,0-3.03-.07-3.67-.07-.54,0-2.02.07-2.96.07-.31,0-.47-.07-.47-.24,0-.12.09-.19.38-.19.35,0,.63-.05.85-.09.47-.09.61-.49.68-1.18.12-.99.12-2.84.12-5.12v-4.14Z"/>
    <path class="cls-2" d="m166.48,25.77c.05,1.83.35,2.44.82,2.61.4.14.85.16,1.22.16.26,0,.4.05.4.19,0,.19-.21.24-.54.24-1.53,0-2.47-.07-2.91-.07-.21,0-1.32.07-2.54.07-.31,0-.52-.02-.52-.24,0-.14.14-.19.38-.19.31,0,.73-.02,1.06-.12.61-.19.71-.87.73-2.92l.21-13.92c0-.47.07-.8.31-.8.26,0,.47.31.87.73.28.31,3.85,4.14,7.29,7.55,1.6,1.6,4.77,4.98,5.17,5.36h.12l-.24-10.56c-.02-1.43-.24-1.88-.8-2.12-.35-.14-.92-.14-1.25-.14-.28,0-.38-.07-.38-.21,0-.19.26-.21.61-.21,1.22,0,2.35.07,2.84.07.26,0,1.15-.07,2.3-.07.31,0,.54.02.54.21,0,.14-.14.21-.42.21-.24,0-.42,0-.71.07-.66.19-.85.68-.87,2l-.26,14.83c0,.52-.09.73-.31.73-.26,0-.54-.26-.8-.52-1.48-1.41-4.49-4.49-6.94-6.91-2.56-2.54-5.17-5.48-5.59-5.92h-.07l.26,9.87Z"/>
    <path class="cls-3" d="m208.31,27.39c0,.63-.02.68-.31.85-1.53.8-3.83,1.06-5.66,1.06-5.76,0-10.86-2.73-10.86-9.21,0-3.76,1.95-6.39,4.09-7.69,2.26-1.36,4.35-1.53,6.32-1.53,1.62,0,3.69.28,4.16.38.49.09,1.32.24,1.86.26.28.02.33.12.33.28,0,.26-.16.92-.16,3.86,0,.38-.07.49-.26.49-.16,0-.21-.12-.24-.31-.07-.54-.19-1.29-.8-1.95-.71-.75-2.59-1.83-5.24-1.83-1.29,0-3.01.09-4.65,1.46-1.32,1.1-2.16,2.87-2.16,5.76,0,5.05,3.22,8.84,8.18,8.84.61,0,1.43,0,2-.26.35-.16.45-.47.45-.87v-2.21c0-1.18,0-2.07-.02-2.77-.02-.8-.24-1.18-1.01-1.34-.19-.05-.59-.07-.92-.07-.21,0-.35-.05-.35-.19,0-.19.16-.24.49-.24,1.22,0,2.7.07,3.41.07s1.97-.07,2.75-.07c.31,0,.47.05.47.24,0,.14-.14.19-.31.19-.19,0-.35.02-.63.07-.63.12-.87.52-.89,1.34-.02.71-.02,1.65-.02,2.82v2.59Z"/>
    <path class="cls-3" d="m212.68,18.02c0-3.57,0-4.23-.05-4.98-.05-.8-.24-1.18-1.01-1.34-.19-.05-.59-.07-.92-.07-.26,0-.4-.05-.4-.21s.16-.21.52-.21c1.25,0,2.73.07,3.22.07.8,0,2.59-.07,3.31-.07,1.48,0,3.06.14,4.33,1.01.66.45,1.6,1.65,1.6,3.22,0,1.74-.73,3.34-3.1,5.27,2.09,2.63,3.71,4.73,5.1,6.18,1.32,1.36,2.28,1.53,2.63,1.6.26.05.47.07.66.07s.28.07.28.19c0,.19-.16.24-.45.24h-2.23c-1.32,0-1.9-.12-2.52-.45-1.01-.54-1.9-1.65-3.22-3.46-.94-1.29-2.02-2.89-2.33-3.24-.12-.14-.26-.16-.42-.16l-2.05-.05c-.12,0-.19.05-.19.19v.33c0,2.19,0,4.04.12,5.03.07.68.21,1.2.92,1.29.35.05.87.09,1.15.09.19,0,.28.07.28.19,0,.16-.16.24-.47.24-1.36,0-3.1-.07-3.46-.07-.45,0-1.93.07-2.87.07-.31,0-.47-.07-.47-.24,0-.12.09-.19.38-.19.35,0,.63-.05.85-.09.47-.09.59-.61.68-1.29.12-.99.12-2.84.12-5.01v-4.14Zm2.77,1.86c0,.26.05.35.21.42.49.16,1.2.24,1.79.24.94,0,1.25-.09,1.67-.4.71-.52,1.39-1.6,1.39-3.53,0-3.34-2.21-4.3-3.6-4.3-.59,0-1.01.02-1.25.09-.16.05-.21.14-.21.33v7.15Z"/>
    <path class="cls-3" d="m233.34,22.83c-.12,0-.16.05-.21.19l-1.27,3.36c-.24.59-.35,1.15-.35,1.43,0,.42.21.73.94.73h.35c.28,0,.35.05.35.19,0,.19-.14.24-.4.24-.75,0-1.76-.07-2.49-.07-.26,0-1.55.07-2.77.07-.31,0-.45-.05-.45-.24,0-.14.09-.19.28-.19.21,0,.54-.02.73-.05,1.08-.14,1.53-.94,2-2.12l5.9-14.76c.28-.68.42-.94.66-.94.21,0,.35.21.59.75.56,1.29,4.33,10.88,5.83,14.46.89,2.12,1.57,2.44,2.07,2.56.35.07.71.09.99.09.19,0,.31.02.31.19,0,.19-.21.24-1.08.24s-2.56,0-4.44-.05c-.42-.02-.71-.02-.71-.19,0-.14.09-.19.33-.21.16-.05.33-.26.21-.54l-1.88-4.98c-.05-.12-.12-.16-.24-.16h-5.24Zm4.8-1.18c.12,0,.14-.07.12-.14l-2.12-5.81c-.02-.09-.05-.21-.12-.21s-.12.12-.14.21l-2.16,5.78c-.02.09,0,.16.09.16h4.33Z"/>
    <path class="cls-3" d="m248.62,18.02c0-3.57,0-4.23-.05-4.98-.05-.8-.24-1.18-1.01-1.34-.19-.05-.59-.07-.92-.07-.26,0-.4-.05-.4-.21s.16-.21.52-.21c1.25,0,2.73.07,3.38.07.73,0,2.21-.07,3.62-.07,2.94,0,6.86,0,9.43,2.68,1.18,1.22,2.28,3.17,2.28,5.97,0,2.96-1.25,5.22-2.56,6.56-1.08,1.1-3.53,2.77-7.88,2.77-.85,0-1.81-.07-2.7-.14-.89-.07-1.72-.14-2.3-.14-.26,0-.78,0-1.34.02-.54,0-1.15.05-1.62.05-.31,0-.47-.07-.47-.24,0-.12.09-.19.38-.19.35,0,.63-.05.85-.09.47-.09.59-.61.68-1.29.12-.99.12-2.84.12-5.01v-4.14Zm2.94,2.59c0,2.49.02,4.3.05,4.75.02.59.07,1.53.26,1.79.31.45,1.22.94,3.08.94,2.4,0,4-.47,5.41-1.69,1.5-1.29,1.97-3.43,1.97-5.85,0-2.99-1.25-4.91-2.26-5.88-2.16-2.07-4.84-2.35-6.68-2.35-.47,0-1.34.07-1.53.16-.21.09-.28.21-.28.47-.02.8-.02,2.84-.02,4.7v2.96Z"/>
    <path class="cls-3" d="m267.63,18.02c0-3.57,0-4.23-.05-4.98-.05-.8-.24-1.18-1.01-1.34-.19-.05-.59-.07-.92-.07-.26,0-.4-.05-.4-.21s.16-.21.52-.21c1.25,0,2.73.07,3.43.07.56,0,2.05-.07,2.89-.07.35,0,.52.05.52.21s-.14.21-.38.21c-.26,0-.4.02-.68.07-.63.12-.82.52-.87,1.34-.05.75-.05,1.41-.05,4.98v3.29c0,3.41.68,4.84,1.83,5.78,1.06.87,2.14.96,2.94.96,1.03,0,2.3-.33,3.24-1.27,1.29-1.29,1.36-3.41,1.36-5.83v-2.94c0-3.57,0-4.23-.05-4.98-.05-.8-.24-1.18-1.01-1.34-.19-.05-.59-.07-.85-.07s-.4-.05-.4-.21.16-.21.49-.21c1.2,0,2.68.07,2.7.07.28,0,1.76-.07,2.68-.07.33,0,.49.05.49.21s-.14.21-.42.21c-.26,0-.4.02-.68.07-.63.12-.82.52-.87,1.34-.05.75-.05,1.41-.05,4.98v2.52c0,2.61-.26,5.38-2.23,7.08-1.67,1.43-3.36,1.69-4.89,1.69-1.25,0-3.5-.07-5.22-1.62-1.2-1.08-2.09-2.82-2.09-6.23v-3.43Z"/>
    <path class="cls-3" d="m287.57,22.83c-.12,0-.16.05-.21.19l-1.27,3.36c-.24.59-.35,1.15-.35,1.43,0,.42.21.73.94.73h.35c.28,0,.35.05.35.19,0,.19-.14.24-.4.24-.75,0-1.76-.07-2.49-.07-.26,0-1.55.07-2.77.07-.31,0-.45-.05-.45-.24,0-.14.09-.19.28-.19.21,0,.54-.02.73-.05,1.08-.14,1.53-.94,2-2.12l5.9-14.76c.28-.68.42-.94.66-.94.21,0,.35.21.59.75.56,1.29,4.33,10.88,5.83,14.46.89,2.12,1.57,2.44,2.07,2.56.35.07.71.09.99.09.19,0,.31.02.31.19,0,.19-.21.24-1.08.24s-2.56,0-4.44-.05c-.42-.02-.71-.02-.71-.19,0-.14.09-.19.33-.21.16-.05.33-.26.21-.54l-1.88-4.98c-.05-.12-.12-.16-.24-.16h-5.24Zm4.8-1.18c.12,0,.14-.07.12-.14l-2.12-5.81c-.02-.09-.05-.21-.12-.21s-.12.12-.14.21l-2.16,5.78c-.02.09,0,.16.09.16h4.33Z"/>
    <path class="cls-3" d="m304.36,12.51l-3.5.09c-1.36.05-1.93.16-2.28.68-.24.35-.35.63-.4.82-.05.19-.12.28-.26.28-.16,0-.21-.12-.21-.38,0-.38.45-2.52.49-2.7.07-.31.14-.45.28-.45.19,0,.42.24,1.01.28.68.07,1.57.12,2.35.12h9.31c.75,0,1.27-.07,1.62-.12.35-.07.54-.12.63-.12.16,0,.19.14.19.49,0,.49-.07,2.12-.07,2.73-.02.24-.07.38-.21.38-.19,0-.24-.12-.26-.47l-.02-.26c-.05-.61-.68-1.27-2.77-1.32l-2.96-.07v9.64c0,2.16,0,4.02.12,5.03.07.66.21,1.18.92,1.27.33.05.85.09,1.2.09.26,0,.38.07.38.19,0,.16-.19.24-.45.24-1.55,0-3.03-.07-3.69-.07-.54,0-2.02.07-2.96.07-.31,0-.47-.07-.47-.24,0-.12.09-.19.38-.19.35,0,.63-.05.85-.09.47-.09.61-.61.68-1.29.12-.99.12-2.84.12-5.01v-9.64Z"/>
    <path class="cls-3" d="m316.91,18.02c0-3.57,0-4.23-.05-4.98-.05-.8-.24-1.18-1.01-1.34-.19-.05-.59-.07-.92-.07-.26,0-.4-.05-.4-.21s.16-.21.52-.21c.63,0,1.32.02,1.9.02.61.02,1.15.05,1.48.05.75,0,5.43,0,5.88-.02.45-.05.82-.09,1.01-.14.12-.02.26-.09.38-.09s.14.09.14.21c0,.16-.12.45-.19,1.53-.02.24-.07,1.27-.12,1.55-.02.12-.07.26-.24.26s-.21-.12-.21-.33c0-.16-.02-.56-.14-.85-.16-.42-.4-.71-1.57-.85-.4-.05-2.87-.09-3.34-.09-.12,0-.16.07-.16.24v5.95c0,.16.02.26.16.26.52,0,3.22,0,3.76-.05.56-.05.92-.12,1.13-.35.16-.19.26-.31.38-.31.09,0,.16.05.16.19s-.09.52-.19,1.72c-.02.47-.09,1.41-.09,1.57,0,.19,0,.45-.21.45-.16,0-.21-.09-.21-.21-.02-.24-.02-.54-.09-.85-.12-.47-.45-.82-1.32-.92-.45-.05-2.77-.07-3.34-.07-.12,0-.14.09-.14.24v1.86c0,.8-.02,2.96,0,3.64.05,1.62.42,1.97,2.82,1.97.61,0,1.6,0,2.21-.28.61-.28.89-.78,1.06-1.74.05-.26.09-.35.26-.35.19,0,.19.19.19.42,0,.54-.19,2.14-.31,2.61-.16.61-.38.61-1.27.61-1.76,0-3.06-.05-4.07-.07-1.01-.05-1.74-.07-2.45-.07-.26,0-.78,0-1.34.02-.54,0-1.15.05-1.62.05-.31,0-.47-.07-.47-.24,0-.12.09-.19.38-.19.35,0,.63-.05.85-.09.47-.09.59-.61.68-1.29.12-.99.12-2.84.12-5.01v-4.14Z"/>
    <path class="cls-3" d="m93.57,51.38c-.38-.16-.45-.28-.45-.8,0-1.29.09-2.7.12-3.08.02-.35.09-.61.28-.61.21,0,.24.21.24.4,0,.31.09.8.21,1.2.52,1.74,1.9,2.37,3.36,2.37,2.12,0,3.15-1.43,3.15-2.68,0-1.15-.35-2.23-2.3-3.76l-1.08-.85c-2.59-2.02-3.48-3.67-3.48-5.57,0-2.59,2.16-4.44,5.43-4.44,1.53,0,2.52.24,3.13.4.21.05.33.12.33.28,0,.31-.09.99-.09,2.82,0,.52-.07.71-.26.71-.16,0-.24-.14-.24-.42,0-.21-.12-.94-.61-1.55-.35-.45-1.03-1.15-2.56-1.15-1.74,0-2.8,1.01-2.8,2.42,0,1.08.54,1.9,2.49,3.38l.66.49c2.84,2.14,3.85,3.76,3.85,5.99,0,1.36-.52,2.99-2.21,4.09-1.18.75-2.49.96-3.74.96-1.36,0-2.42-.16-3.43-.61Z"/>
    <path class="cls-3" d="m107.09,49.43c-2.3-2.02-2.92-4.65-2.92-6.93,0-1.6.49-4.37,2.75-6.44,1.69-1.55,3.93-2.49,7.43-2.49,1.46,0,2.33.09,3.41.24.89.12,1.65.33,2.35.4.26.02.35.14.35.28,0,.19-.07.47-.12,1.29-.05.78-.02,2.07-.07,2.54-.02.35-.07.54-.28.54-.19,0-.24-.19-.24-.52-.02-.73-.33-1.55-.92-2.16-.78-.82-2.61-1.46-4.77-1.46-2.05,0-3.38.52-4.42,1.46-1.72,1.58-2.16,3.81-2.16,6.09,0,5.59,4.25,8.37,7.4,8.37,2.09,0,3.36-.24,4.3-1.32.4-.45.71-1.13.8-1.55.07-.38.12-.47.31-.47.16,0,.21.16.21.35,0,.28-.28,2.33-.52,3.13-.12.4-.21.52-.61.68-.94.38-2.73.54-4.23.54-3.22,0-5.92-.71-8.06-2.56Z"/>
    <path class="cls-3" d="m136.21,41.36c.07,0,.14-.05.14-.16v-.49c0-3.57,0-4.23-.05-4.98-.05-.8-.24-1.18-1.01-1.34-.19-.05-.59-.07-.92-.07-.26,0-.4-.05-.4-.21s.16-.21.49-.21c1.27,0,2.75.07,3.38.07.56,0,2.05-.07,2.96-.07.33,0,.49.05.49.21s-.14.21-.42.21c-.19,0-.4.02-.68.07-.63.12-.82.52-.87,1.34-.05.75-.05,1.41-.05,4.98v4.14c0,2.16,0,4.02.12,5.03.07.66.21,1.18.92,1.27.33.05.85.09,1.2.09.26,0,.38.07.38.19,0,.16-.19.24-.47.24-1.53,0-3.01-.07-3.67-.07-.54,0-2.02.07-2.94.07-.33,0-.49-.07-.49-.24,0-.12.09-.19.38-.19.35,0,.63-.05.85-.09.47-.09.59-.61.68-1.29.12-.99.12-2.84.12-5.01v-2.07c0-.09-.07-.14-.14-.14h-8.98c-.07,0-.14.02-.14.14v2.07c0,2.16,0,4.02.12,5.03.07.66.21,1.18.92,1.27.33.05.85.09,1.2.09.26,0,.38.07.38.19,0,.16-.19.24-.47.24-1.53,0-3.01-.07-3.67-.07-.54,0-2.02.07-2.96.07-.31,0-.47-.07-.47-.24,0-.12.09-.19.38-.19.35,0,.63-.05.85-.09.47-.09.59-.61.68-1.29.12-.99.12-2.84.12-5.01v-4.14c0-3.57,0-4.23-.05-4.98-.05-.8-.24-1.18-1.01-1.34-.19-.05-.59-.07-.92-.07-.26,0-.4-.05-.4-.21s.16-.21.49-.21c1.27,0,2.75.07,3.38.07.56,0,2.05-.07,2.96-.07.33,0,.49.05.49.21s-.14.21-.42.21c-.19,0-.4.02-.68.07-.63.12-.82.52-.87,1.34-.05.75-.05,1.41-.05,4.98v.49c0,.12.07.16.14.16h8.98Z"/>
    <path class="cls-3" d="m142.25,42.78c0-4.02,2.66-9.22,9.71-9.22,5.85,0,9.5,3.41,9.5,8.79s-3.76,9.64-9.73,9.64c-6.75,0-9.47-5.05-9.47-9.21Zm15.91.45c0-5.27-3.03-8.53-6.89-8.53-2.7,0-5.78,1.5-5.78,7.36,0,4.89,2.7,8.77,7.22,8.77,1.65,0,5.45-.8,5.45-7.59Z"/>
    <path class="cls-3" d="m162.72,42.78c0-4.02,2.66-9.22,9.71-9.22,5.85,0,9.5,3.41,9.5,8.79s-3.76,9.64-9.73,9.64c-6.75,0-9.47-5.05-9.47-9.21Zm15.91.45c0-5.27-3.03-8.53-6.89-8.53-2.7,0-5.78,1.5-5.78,7.36,0,4.89,2.7,8.77,7.22,8.77,1.65,0,5.45-.8,5.45-7.59Z"/>
    <path class="cls-3" d="m187.82,44.84c0,3.01,0,4.63.49,5.05.4.35,1.01.52,2.84.52,1.25,0,2.16-.02,2.75-.66.28-.31.56-.96.61-1.41.02-.21.07-.35.26-.35.16,0,.19.12.19.4,0,.26-.16,2.02-.35,2.7-.14.52-.26.63-1.48.63-1.69,0-2.91-.05-3.97-.07-1.06-.05-1.9-.07-2.87-.07-.26,0-.78,0-1.34.02-.54,0-1.15.05-1.62.05-.31,0-.47-.07-.47-.24,0-.12.09-.19.38-.19.35,0,.63-.05.85-.09.47-.09.59-.61.68-1.29.12-.99.12-2.84.12-5.01v-4.14c0-3.57,0-4.23-.05-4.98-.05-.8-.24-1.18-1.01-1.34-.19-.05-.47-.07-.78-.07-.26,0-.4-.05-.4-.21s.16-.21.52-.21c1.1,0,2.59.07,3.22.07.56,0,2.28-.07,3.2-.07.33,0,.49.05.49.21s-.14.21-.42.21c-.26,0-.63.02-.92.07-.63.12-.82.52-.87,1.34-.05.75-.05,1.41-.05,4.98v4.14Z"/>
    <path class="cls-3" d="m201.23,42.78c0-4.02,2.66-9.22,9.71-9.22,5.85,0,9.5,3.41,9.5,8.79s-3.76,9.64-9.73,9.64c-6.75,0-9.47-5.05-9.47-9.21Zm15.91.45c0-5.27-3.03-8.53-6.89-8.53-2.7,0-5.78,1.5-5.78,7.36,0,4.89,2.7,8.77,7.22,8.77,1.65,0,5.45-.8,5.45-7.59Z"/>
    <path class="cls-3" d="m226.33,44.84c0,2.26,0,4.02.12,5.01.07.68.21,1.2.92,1.29.33.05.85.09,1.18.09.31,0,.4.07.4.19,0,.16-.16.24-.52.24-1.48,0-2.96-.07-3.57-.07s-2.09.07-2.99.07c-.33,0-.49-.05-.49-.24,0-.12.09-.19.35-.19.35,0,.63-.05.85-.09.47-.09.59-.61.68-1.29.12-.99.12-2.75.12-5.01v-4.14c0-3.57,0-4.23-.05-4.98-.05-.8-.24-1.18-1.01-1.34-.19-.05-.59-.07-.92-.07-.24,0-.4-.05-.4-.19,0-.19.19-.24.54-.24.61,0,1.29.02,1.9.02.61.02,1.15.05,1.48.05.89,0,5.66,0,6.21-.02.45-.02.73-.02.96-.09.14-.05.26-.14.38-.14.09,0,.16.09.16.21,0,.16-.12.45-.19,1.06-.02.24-.07,1.62-.12,1.9-.02.19-.07.33-.24.33s-.21-.12-.24-.38c0-.19,0-.56-.14-.89-.16-.33-.66-.68-1.55-.71l-3.62-.07c-.14,0-.21.07-.21.33v5.88c0,.14.02.21.16.21l3.01-.02c.4,0,.73,0,1.06-.02.45-.02.78-.12,1.01-.42.12-.14.16-.24.31-.24.09,0,.14.07.14.21s-.12.73-.19,1.46c-.05.47-.09,1.55-.09,1.72,0,.21,0,.45-.24.45-.14,0-.19-.16-.19-.33s-.05-.45-.14-.73c-.12-.33-.47-.75-1.2-.85-.59-.07-3.08-.07-3.48-.07-.12,0-.16.05-.16.21v1.9Z"/>
    <path class="cls-3" d="m95.43,68.22c-.12,0-.16.05-.21.19l-1.27,3.36c-.24.59-.35,1.15-.35,1.43,0,.42.21.73.94.73h.35c.28,0,.35.05.35.19,0,.19-.14.24-.4.24-.75,0-1.76-.07-2.49-.07-.26,0-1.55.07-2.77.07-.31,0-.45-.05-.45-.24,0-.14.09-.19.28-.19.21,0,.54-.02.73-.05,1.08-.14,1.53-.94,2-2.12l5.9-14.76c.28-.68.42-.94.66-.94.21,0,.35.21.59.75.56,1.29,4.33,10.88,5.83,14.46.89,2.12,1.57,2.44,2.07,2.56.35.07.71.09.99.09.19,0,.31.02.31.19,0,.19-.21.24-1.08.24s-2.56,0-4.44-.05c-.42-.02-.71-.02-.71-.19,0-.14.09-.19.33-.21.16-.05.33-.26.21-.54l-1.88-4.98c-.05-.12-.12-.16-.24-.16h-5.24Zm4.8-1.18c.12,0,.14-.07.12-.14l-2.12-5.81c-.02-.09-.05-.21-.12-.21s-.12.12-.14.21l-2.16,5.78c-.02.09,0,.16.09.16h4.33Z"/>
    <path class="cls-3" d="m113.58,71.16c.05,1.83.35,2.44.82,2.61.4.14.85.16,1.22.16.26,0,.4.05.4.19,0,.19-.21.24-.54.24-1.53,0-2.47-.07-2.91-.07-.21,0-1.32.07-2.54.07-.31,0-.52-.02-.52-.24,0-.14.14-.19.38-.19.31,0,.73-.02,1.06-.12.61-.19.71-.87.73-2.92l.21-13.92c0-.47.07-.8.31-.8.26,0,.47.31.87.73.28.31,3.86,4.14,7.29,7.55,1.6,1.6,4.77,4.98,5.17,5.36h.12l-.24-10.56c-.02-1.43-.24-1.88-.8-2.12-.35-.14-.92-.14-1.25-.14-.28,0-.38-.07-.38-.21,0-.19.26-.21.61-.21,1.22,0,2.35.07,2.85.07.26,0,1.15-.07,2.3-.07.31,0,.54.02.54.21,0,.14-.14.21-.42.21-.24,0-.42,0-.71.07-.66.19-.85.68-.87,2l-.26,14.83c0,.52-.09.73-.31.73-.26,0-.54-.26-.8-.52-1.48-1.41-4.49-4.49-6.93-6.91-2.56-2.54-5.17-5.48-5.6-5.92h-.07l.26,9.87Z"/>
    <path class="cls-3" d="m133.98,72.12c-2.3-2.02-2.92-4.65-2.92-6.93,0-1.6.49-4.37,2.75-6.44,1.69-1.55,3.93-2.49,7.43-2.49,1.46,0,2.33.09,3.41.24.89.12,1.65.33,2.35.4.26.02.35.14.35.28,0,.19-.07.47-.12,1.29-.05.78-.02,2.07-.07,2.54-.02.35-.07.54-.28.54-.19,0-.24-.19-.24-.52-.02-.73-.33-1.55-.92-2.16-.78-.82-2.61-1.46-4.77-1.46-2.05,0-3.38.52-4.42,1.46-1.72,1.58-2.16,3.81-2.16,6.09,0,5.59,4.25,8.37,7.4,8.37,2.09,0,3.36-.24,4.3-1.32.4-.45.71-1.13.8-1.55.07-.38.12-.47.31-.47.16,0,.21.16.21.35,0,.28-.28,2.33-.52,3.13-.12.4-.21.52-.61.68-.94.38-2.73.54-4.23.54-3.22,0-5.92-.71-8.06-2.56Z"/>
    <path class="cls-3" d="m152.06,63.4c0-3.57,0-4.23-.05-4.98-.05-.8-.28-1.2-.8-1.32-.26-.07-.56-.09-.85-.09-.24,0-.38-.05-.38-.24,0-.14.19-.19.56-.19.89,0,2.37.07,3.06.07.59,0,1.97-.07,2.87-.07.31,0,.49.05.49.19,0,.19-.14.24-.38.24s-.42.02-.71.07c-.63.12-.82.52-.87,1.34-.05.75-.05,1.41-.05,4.98v4.14c0,2.28,0,4.14.09,5.15.07.63.24,1.06.94,1.15.33.05.85.09,1.2.09.26,0,.38.07.38.19,0,.16-.19.24-.45.24-1.55,0-3.03-.07-3.67-.07-.54,0-2.02.07-2.96.07-.31,0-.47-.07-.47-.24,0-.12.09-.19.38-.19.35,0,.63-.05.85-.09.47-.09.61-.49.68-1.18.12-.99.12-2.84.12-5.12v-4.14Z"/>
    <path class="cls-3" d="m162.24,63.4c0-3.57,0-4.23-.05-4.98-.05-.8-.24-1.18-1.01-1.34-.19-.05-.59-.07-.92-.07-.26,0-.4-.05-.4-.21s.16-.21.52-.21c.63,0,1.32.02,1.9.02.61.02,1.15.05,1.48.05.75,0,5.43,0,5.88-.02.45-.05.82-.09,1.01-.14.12-.02.26-.09.38-.09s.14.09.14.21c0,.16-.12.45-.19,1.53-.02.24-.07,1.27-.12,1.55-.02.12-.07.26-.24.26s-.21-.12-.21-.33c0-.16-.02-.56-.14-.85-.16-.42-.4-.71-1.57-.85-.4-.05-2.87-.09-3.34-.09-.12,0-.16.07-.16.24v5.95c0,.16.02.26.16.26.52,0,3.22,0,3.76-.05.56-.05.92-.12,1.13-.35.16-.19.26-.31.38-.31.09,0,.16.05.16.19s-.09.52-.19,1.72c-.02.47-.09,1.41-.09,1.57,0,.19,0,.45-.21.45-.16,0-.21-.09-.21-.21-.02-.24-.02-.54-.09-.85-.12-.47-.45-.82-1.32-.92-.45-.05-2.77-.07-3.34-.07-.12,0-.14.09-.14.24v1.86c0,.8-.02,2.96,0,3.64.05,1.62.42,1.97,2.82,1.97.61,0,1.6,0,2.21-.28.61-.28.89-.78,1.06-1.74.05-.26.09-.35.26-.35.19,0,.19.19.19.42,0,.54-.19,2.14-.31,2.61-.16.61-.38.61-1.27.61-1.76,0-3.06-.05-4.07-.07-1.01-.05-1.74-.07-2.44-.07-.26,0-.78,0-1.34.02-.54,0-1.15.05-1.62.05-.31,0-.47-.07-.47-.24,0-.12.09-.19.38-.19.35,0,.63-.05.85-.09.47-.09.59-.61.68-1.29.12-.99.12-2.84.12-5.01v-4.14Z"/>
    <path class="cls-3" d="m178.08,71.16c.05,1.83.35,2.44.82,2.61.4.14.85.16,1.22.16.26,0,.4.05.4.19,0,.19-.21.24-.54.24-1.53,0-2.47-.07-2.91-.07-.21,0-1.32.07-2.54.07-.31,0-.52-.02-.52-.24,0-.14.14-.19.38-.19.31,0,.73-.02,1.06-.12.61-.19.71-.87.73-2.92l.21-13.92c0-.47.07-.8.31-.8.26,0,.47.31.87.73.28.31,3.85,4.14,7.29,7.55,1.6,1.6,4.77,4.98,5.17,5.36h.12l-.24-10.56c-.02-1.43-.24-1.88-.8-2.12-.35-.14-.92-.14-1.25-.14-.28,0-.38-.07-.38-.21,0-.19.26-.21.61-.21,1.22,0,2.35.07,2.84.07.26,0,1.15-.07,2.3-.07.31,0,.54.02.54.21,0,.14-.14.21-.42.21-.24,0-.42,0-.71.07-.66.19-.85.68-.87,2l-.26,14.83c0,.52-.09.73-.31.73-.26,0-.54-.26-.8-.52-1.48-1.41-4.49-4.49-6.94-6.91-2.56-2.54-5.17-5.48-5.59-5.92h-.07l.26,9.87Z"/>
    <path class="cls-3" d="m202.26,57.9l-3.5.09c-1.36.05-1.93.16-2.28.68-.24.35-.35.63-.4.82-.05.19-.12.28-.26.28-.16,0-.21-.12-.21-.38,0-.38.45-2.52.49-2.7.07-.31.14-.45.28-.45.19,0,.42.24,1.01.28.68.07,1.57.12,2.35.12h9.31c.75,0,1.27-.07,1.62-.12.35-.07.54-.12.63-.12.16,0,.19.14.19.49,0,.49-.07,2.12-.07,2.73-.02.24-.07.38-.21.38-.19,0-.24-.12-.26-.47l-.02-.26c-.05-.61-.68-1.27-2.77-1.32l-2.96-.07v9.64c0,2.16,0,4.02.12,5.03.07.66.21,1.18.92,1.27.33.05.85.09,1.2.09.26,0,.38.07.38.19,0,.16-.19.24-.45.24-1.55,0-3.03-.07-3.69-.07-.54,0-2.02.07-2.96.07-.31,0-.47-.07-.47-.24,0-.12.09-.19.38-.19.35,0,.63-.05.85-.09.47-.09.61-.61.68-1.29.12-.99.12-2.84.12-5.01v-9.64Z"/>
    <path class="cls-3" d="m220.64,74.07c-.38-.16-.45-.28-.45-.8,0-1.29.09-2.7.12-3.08.02-.35.09-.61.28-.61.21,0,.24.21.24.4,0,.31.09.8.21,1.2.52,1.74,1.9,2.37,3.36,2.37,2.12,0,3.15-1.43,3.15-2.68,0-1.15-.35-2.23-2.3-3.76l-1.08-.85c-2.59-2.02-3.48-3.67-3.48-5.57,0-2.59,2.16-4.44,5.43-4.44,1.53,0,2.52.24,3.13.4.21.05.33.12.33.28,0,.31-.09.99-.09,2.82,0,.52-.07.71-.26.71-.16,0-.24-.14-.24-.42,0-.21-.12-.94-.61-1.55-.35-.45-1.03-1.15-2.56-1.15-1.74,0-2.8,1.01-2.8,2.42,0,1.08.54,1.9,2.49,3.38l.66.49c2.84,2.14,3.85,3.76,3.85,5.99,0,1.36-.52,2.99-2.21,4.09-1.18.75-2.49.96-3.74.96-1.36,0-2.42-.16-3.43-.61Z"/>
    <path class="cls-3" d="m238.55,57.9l-3.5.09c-1.36.05-1.93.16-2.28.68-.24.35-.35.63-.4.82-.05.19-.12.28-.26.28-.16,0-.21-.12-.21-.38,0-.38.45-2.52.49-2.7.07-.31.14-.45.28-.45.19,0,.42.24,1.01.28.68.07,1.57.12,2.35.12h9.31c.75,0,1.27-.07,1.62-.12.35-.07.54-.12.63-.12.16,0,.19.14.19.49,0,.49-.07,2.12-.07,2.73-.02.24-.07.38-.21.38-.19,0-.24-.12-.26-.47l-.02-.26c-.05-.61-.68-1.27-2.77-1.32l-2.96-.07v9.64c0,2.16,0,4.02.12,5.03.07.66.21,1.18.92,1.27.33.05.85.09,1.2.09.26,0,.38.07.38.19,0,.16-.19.24-.45.24-1.55,0-3.03-.07-3.69-.07-.54,0-2.02.07-2.96.07-.31,0-.47-.07-.47-.24,0-.12.09-.19.38-.19.35,0,.63-.05.85-.09.47-.09.61-.61.68-1.29.12-.99.12-2.84.12-5.01v-9.64Z"/>
    <path class="cls-3" d="m251.78,63.4c0-3.57,0-4.23-.05-4.98-.05-.8-.24-1.18-1.01-1.34-.19-.05-.59-.07-.92-.07-.26,0-.4-.05-.4-.21s.16-.21.52-.21c1.25,0,2.73.07,3.43.07.56,0,2.05-.07,2.89-.07.35,0,.52.05.52.21s-.14.21-.38.21c-.26,0-.4.02-.68.07-.63.12-.82.52-.87,1.34-.05.75-.05,1.41-.05,4.98v3.29c0,3.41.68,4.84,1.83,5.78,1.06.87,2.14.96,2.94.96,1.03,0,2.3-.33,3.24-1.27,1.29-1.29,1.36-3.41,1.36-5.83v-2.94c0-3.57,0-4.23-.05-4.98-.05-.8-.24-1.18-1.01-1.34-.19-.05-.59-.07-.85-.07s-.4-.05-.4-.21.16-.21.49-.21c1.2,0,2.68.07,2.7.07.28,0,1.76-.07,2.68-.07.33,0,.49.05.49.21s-.14.21-.42.21c-.26,0-.4.02-.68.07-.63.12-.82.52-.87,1.34-.05.75-.05,1.41-.05,4.98v2.52c0,2.61-.26,5.38-2.23,7.08-1.67,1.43-3.36,1.69-4.89,1.69-1.25,0-3.5-.07-5.22-1.62-1.2-1.08-2.09-2.82-2.09-6.23v-3.43Z"/>
    <path class="cls-3" d="m272.85,63.4c0-3.57,0-4.23-.05-4.98-.05-.8-.24-1.18-1.01-1.34-.19-.05-.59-.07-.92-.07-.26,0-.4-.05-.4-.21s.16-.21.52-.21c1.25,0,2.73.07,3.38.07.73,0,2.21-.07,3.62-.07,2.94,0,6.86,0,9.43,2.68,1.18,1.22,2.28,3.17,2.28,5.97,0,2.96-1.25,5.22-2.56,6.56-1.08,1.1-3.53,2.77-7.88,2.77-.85,0-1.81-.07-2.7-.14-.89-.07-1.72-.14-2.3-.14-.26,0-.78,0-1.34.02-.54,0-1.15.05-1.62.05-.31,0-.47-.07-.47-.24,0-.12.09-.19.38-.19.35,0,.63-.05.85-.09.47-.09.59-.61.68-1.29.12-.99.12-2.84.12-5.01v-4.14Zm2.94,2.59c0,2.49.02,4.3.05,4.75.02.59.07,1.53.26,1.79.31.45,1.22.94,3.08.94,2.4,0,4-.47,5.41-1.69,1.5-1.29,1.97-3.43,1.97-5.85,0-2.99-1.25-4.91-2.26-5.88-2.16-2.07-4.84-2.35-6.68-2.35-.47,0-1.34.07-1.53.16-.21.09-.28.21-.28.47-.02.8-.02,2.84-.02,4.7v2.96Z"/>
    <path class="cls-3" d="m293.75,63.4c0-3.57,0-4.23-.05-4.98-.05-.8-.28-1.2-.8-1.32-.26-.07-.56-.09-.85-.09-.24,0-.38-.05-.38-.24,0-.14.19-.19.56-.19.89,0,2.37.07,3.06.07.59,0,1.97-.07,2.87-.07.31,0,.49.05.49.19,0,.19-.14.24-.38.24s-.42.02-.71.07c-.63.12-.82.52-.87,1.34-.05.75-.05,1.41-.05,4.98v4.14c0,2.28,0,4.14.09,5.15.07.63.24,1.06.94,1.15.33.05.85.09,1.2.09.26,0,.38.07.38.19,0,.16-.19.24-.45.24-1.55,0-3.03-.07-3.67-.07-.54,0-2.02.07-2.96.07-.31,0-.47-.07-.47-.24,0-.12.09-.19.38-.19.35,0,.63-.05.85-.09.47-.09.61-.49.68-1.18.12-.99.12-2.84.12-5.12v-4.14Z"/>
    <path class="cls-3" d="m303.93,63.4c0-3.57,0-4.23-.05-4.98-.05-.8-.24-1.18-1.01-1.34-.19-.05-.59-.07-.92-.07-.26,0-.4-.05-.4-.21s.16-.21.52-.21c.63,0,1.32.02,1.9.02.61.02,1.15.05,1.48.05.75,0,5.43,0,5.88-.02.45-.05.82-.09,1.01-.14.12-.02.26-.09.38-.09s.14.09.14.21c0,.16-.12.45-.19,1.53-.02.24-.07,1.27-.12,1.55-.02.12-.07.26-.24.26s-.21-.12-.21-.33c0-.16-.02-.56-.14-.85-.16-.42-.4-.71-1.57-.85-.4-.05-2.87-.09-3.34-.09-.12,0-.16.07-.16.24v5.95c0,.16.02.26.16.26.52,0,3.22,0,3.76-.05.56-.05.92-.12,1.13-.35.16-.19.26-.31.38-.31.09,0,.16.05.16.19s-.09.52-.19,1.72c-.02.47-.09,1.41-.09,1.57,0,.19,0,.45-.21.45-.16,0-.21-.09-.21-.21-.02-.24-.02-.54-.09-.85-.12-.47-.45-.82-1.32-.92-.45-.05-2.77-.07-3.34-.07-.12,0-.14.09-.14.24v1.86c0,.8-.02,2.96,0,3.64.05,1.62.42,1.97,2.82,1.97.61,0,1.6,0,2.21-.28.61-.28.89-.78,1.06-1.74.05-.26.09-.35.26-.35.19,0,.19.19.19.42,0,.54-.19,2.14-.31,2.61-.16.61-.38.61-1.27.61-1.76,0-3.06-.05-4.07-.07-1.01-.05-1.74-.07-2.44-.07-.26,0-.78,0-1.34.02-.54,0-1.15.05-1.62.05-.31,0-.47-.07-.47-.24,0-.12.09-.19.38-.19.35,0,.63-.05.85-.09.47-.09.59-.61.68-1.29.12-.99.12-2.84.12-5.01v-4.14Z"/>
    <path class="cls-3" d="m316.79,74.07c-.38-.16-.45-.28-.45-.8,0-1.29.09-2.7.12-3.08.02-.35.09-.61.28-.61.21,0,.24.21.24.4,0,.31.09.8.21,1.2.52,1.74,1.9,2.37,3.36,2.37,2.12,0,3.15-1.43,3.15-2.68,0-1.15-.35-2.23-2.3-3.76l-1.08-.85c-2.59-2.02-3.48-3.67-3.48-5.57,0-2.59,2.16-4.44,5.43-4.44,1.53,0,2.52.24,3.13.4.21.05.33.12.33.28,0,.31-.09.99-.09,2.82,0,.52-.07.71-.26.71-.16,0-.24-.14-.24-.42,0-.21-.12-.94-.61-1.55-.35-.45-1.03-1.15-2.56-1.15-1.74,0-2.8,1.01-2.8,2.42,0,1.08.54,1.9,2.49,3.38l.66.49c2.84,2.14,3.85,3.76,3.85,5.99,0,1.36-.52,2.99-2.21,4.09-1.18.75-2.49.96-3.74.96-1.36,0-2.42-.16-3.43-.61Z"/>
  </g>
  <g>
    <path class="cls-1" d="m75.86,41.94l-.48-.43-8.47,9.58-6.82-12.02,15.39-.18v-.64s-15.75.18-15.75.18l-3.45-6.07,19.47-16.57.09-.08-.42-.49-19.47,16.57-6.93-12.21,26.42-8.61.12-.04-.2-.61-26.67,8.69-4.83-8.5-.06-.11-.56.32,4.82,8.49-23.07,7.51-3.71-16.13-.03-.12-.63.14,3.75,16.31-12.84,4.18-.12.04.2.61,12.91-4.2,2.59,11.26-15.61.18v.64s15.76-.18,15.76-.18l3.22,14.01-2.09,1.78-16.73-8.22-.28.58,16.48,8.1-16.44,13.99-.09.08.42.49,16.75-14.25,2.9,1.43,3.92,17.02.03.12.63-.14-3.83-16.63,20.11,9.88-5.74,6.49-.08.09.48.43,5.94-6.72,13.75,6.75.28-.58-13.59-6.68,13.5-15.27,8.27,14.57.06.11.56-.32-8.44-14.87,8.53-9.65.08-.09Zm-26.87-3.38l6.78-5.77,3.21,5.66-9.99.12Zm-1.01.01l-20.21.23-2.63-11.45,23.25-7.57,7.06,12.43-7.46,6.35Zm-.77.65l-16.18,13.77-3.12-13.54,19.29-.22Zm-16,17.39l-2.18-1.07,1.62-1.38.56,2.45Zm-.01-2.92l17.02-14.49,11.12-.13,7.11,12.52-13.76,15.56-20.73-10.18-.76-3.28Z"/>
    <circle class="cls-2" cx="30.2" cy="55.15" r="7.09"/>
    <circle class="cls-3" cx="48.69" cy="19.46" r="6.38"/>
    <circle class="cls-2" cx="66.93" cy="51.71" r="5.67"/>
    <circle class="cls-3" cx="24.73" cy="27.12" r="3.54"/>
    <circle class="cls-3" cx="52.79" cy="67.57" r="4.25"/>
    <circle class="cls-2" cx="48.07" cy="38.95" r="3.54"/>
  </g>
</svg>