<?xml version="1.0" encoding="UTF-8" standalone="no"?>
<svg
   xmlns:dc="http://purl.org/dc/elements/1.1/"
   xmlns:cc="http://creativecommons.org/ns#"
   xmlns:rdf="http://www.w3.org/1999/02/22-rdf-syntax-ns#"
   xmlns:svg="http://www.w3.org/2000/svg"
   xmlns="http://www.w3.org/2000/svg"
   viewBox="0 0 218.88 56.733334"
   height="56.733334"
   width="218.88"
   xml:space="preserve"
   id="svg2"
   version="1.1"><metadata
     id="metadata8"><rdf:RDF><cc:Work
         rdf:about=""><dc:format>image/svg+xml</dc:format><dc:type
           rdf:resource="http://purl.org/dc/dcmitype/StillImage" /></cc:Work></rdf:RDF></metadata><defs
     id="defs6" /><g
     transform="matrix(1.3333333,0,0,-1.3333333,0,56.733333)"
     id="g10"><g
       transform="scale(0.1)"
       id="g12"><path
         id="path14"
         style="fill:#231f20;fill-opacity:1;fill-rule:nonzero;stroke:none"
         d="m 1319.52,25.957 v 71.7071 h -7.49 l -25.99,-63.7188 -26.49,63.7188 h -7.4 V 25.957 h 5.17 v 63.6133 l 26.18,-62.5976 h 4.67 l 26.19,63.1054 V 25.957 h 5.16 z m -89.92,26.3008 v 45.4063 h -5.26 V 52.1484 c 0,-12.4296 -6.16,-22.4531 -20.22,-22.4531 -14.06,0 -20.12,10.0235 -20.12,22.4531 v 45.5157 h -5.26 V 52.2578 c 0,-15.7851 8.19,-27.6172 25.38,-27.6172 17.19,0 25.48,11.8321 25.48,27.6172 z M 1161.65,25.957 v 5.0586 h -40.56 V 61.25 h 35.69 v 5.0586 h -35.69 v 26.2969 h 40.56 v 5.0586 h -45.92 V 25.957 h 45.92 z m -64.22,19.4258 c 0,10.1055 -7.59,18.0938 -18.71,19.5078 l -13.56,1.7188 c -6.57,0.8125 -12.64,4.0547 -12.64,12.539 0,4.6602 2.12,8 4.86,10.4219 3.53,3.0352 8.49,4.3438 13.65,4.3438 6.57,0 12.43,-2.3203 15.58,-6.1602 2.31,-2.7344 3.43,-5.457 3.93,-9.1016 h 5.36 c -0.4,5.1563 -2.42,8.8985 -5.46,12.4336 -4.04,4.7539 -11.72,7.8868 -19.41,7.8868 -6.67,0 -13.24,-2.2266 -17.7,-6.2696 -3.65,-3.3398 -6.26,-7.5859 -6.26,-13.5547 0,-11.0117 7.48,-16.7851 17.58,-18.0937 L 1078,59.3359 c 8.61,-1.1132 13.97,-7.0781 13.97,-13.9531 0,-4.5625 -1.72,-7.8945 -4.25,-10.3242 -3.95,-3.7422 -10.12,-5.3633 -16.29,-5.3633 -5.97,0 -11.93,1.9258 -15.77,5.8711 -2.74,2.832 -4.76,6.7774 -5.26,11.0274 h -5.46 c 0.5,-5.461 2.93,-10.5196 6.46,-14.2579 4.77,-5.0625 11.85,-7.6953 20.03,-7.6953 8.29,0 15.48,2.2227 20.33,6.9805 3.33,3.3398 5.67,7.4805 5.67,13.7617 z m -69.17,6.875 v 45.4063 h -5.27 V 52.1484 c 0,-12.4296 -6.17,-22.4531 -20.22,-22.4531 -14.063,0 -20.129,10.0235 -20.129,22.4531 v 45.5157 h -5.262 V 52.2578 c 0,-15.7851 8.191,-27.6172 25.391,-27.6172 17.19,0 25.49,11.8321 25.49,27.6172 z M 954.828,25.957 v 71.7071 h -7.48 L 921.352,33.9453 894.859,97.6641 h -7.382 V 25.957 h 5.156 v 63.6133 l 26.191,-62.5976 h 4.656 l 26.192,63.1054 V 25.957 h 5.156 z m -85.664,19.4258 c 0,10.1055 -7.578,18.0938 -18.699,19.5078 l -13.555,1.7188 c -6.578,0.8125 -12.64,4.0547 -12.64,12.539 0,4.6602 2.121,8 4.851,10.4219 3.539,3.0352 8.492,4.3438 13.656,4.3438 6.575,0 12.434,-2.3203 15.567,-6.1602 2.324,-2.7344 3.437,-5.457 3.945,-9.1016 h 5.363 c -0.402,5.1563 -2.433,8.8985 -5.461,12.4336 -4.043,4.7539 -11.726,7.8868 -19.414,7.8868 -6.679,0 -13.25,-2.2266 -17.703,-6.2696 -3.636,-3.3398 -6.269,-7.5859 -6.269,-13.5547 0,-11.0117 7.484,-16.7851 17.597,-18.0937 l 13.348,-1.7188 c 8.594,-1.1132 13.957,-7.0781 13.957,-13.9531 0,-4.5625 -1.719,-7.8945 -4.25,-10.3242 -3.945,-3.7422 -10.105,-5.3633 -16.277,-5.3633 -5.969,0 -11.934,1.9258 -15.778,5.8711 -2.73,2.832 -4.757,6.7774 -5.257,11.0274 h -5.465 c 0.508,-5.461 2.933,-10.5196 6.472,-14.2579 4.754,-5.0625 11.832,-7.6953 20.028,-7.6953 8.289,0 15.468,2.2227 20.32,6.9805 3.34,3.3398 5.664,7.4805 5.664,13.7617 z M 804.656,25.957 v 5.0586 H 764.105 V 61.25 h 35.7 v 5.0586 h -35.7 v 26.2969 h 40.551 v 5.0586 h -45.91 V 25.957 h 45.91 z m -70.082,35.9063 c 0,-8.6016 -0.508,-18.9141 -7.179,-25.3906 -3.641,-3.4375 -8.899,-5.3594 -14.258,-5.3594 H 694.629 V 92.5 h 18.508 c 5.359,0 10.617,-1.9141 14.258,-5.3516 6.671,-6.3789 7.179,-16.6875 7.179,-25.2851 z m 5.364,0 c 0,10.0117 -0.813,21.1328 -8.704,28.7226 -4.246,4.1407 -10.515,7.0782 -18.097,7.0782 H 689.371 V 25.957 h 23.766 c 7.582,0 13.851,2.9297 18.097,7.0782 7.891,7.5898 8.704,18.8125 8.704,28.8281 z M 665.504,25.957 v 71.7071 h -5.16 v -63.418 l -41.668,63.418 h -5.965 V 25.957 h 5.258 V 89.4727 L 659.535,25.957 h 5.969 z m -81.109,23.8672 h -30.844 l 15.265,40.5586 15.579,-40.5586 z M 598.961,25.957 571.449,97.6641 h -5.16 L 539.086,25.957 h 5.461 l 7.078,18.9141 h 34.688 l 7.285,-18.9141 h 5.363 z m -64.527,0 v 4.961 h -37.215 v 66.7461 h -5.262 V 25.957 h 42.477 v 0" /><path
         id="path16"
         style="fill:#231f20;fill-opacity:1;fill-rule:nonzero;stroke:none"
         d="m 1641.61,149.668 c 0,10.117 -7.59,18.105 -18.71,19.52 l -13.56,1.718 c -6.57,0.813 -12.64,4.043 -12.64,12.539 0,4.66 2.12,7.989 4.86,10.422 3.53,3.028 8.49,4.348 13.65,4.348 6.57,0 12.43,-2.324 15.58,-6.176 2.32,-2.723 3.43,-5.457 3.93,-9.101 h 5.36 c -0.4,5.167 -2.42,8.91 -5.46,12.445 -4.04,4.754 -11.72,7.887 -19.41,7.887 -6.67,0 -13.24,-2.223 -17.7,-6.266 -3.65,-3.344 -6.26,-7.59 -6.26,-13.559 0,-11.023 7.48,-16.785 17.58,-18.101 l 13.35,-1.723 c 8.61,-1.109 13.97,-7.078 13.97,-13.953 0,-4.551 -1.72,-7.891 -4.25,-10.313 -3.95,-3.742 -10.12,-5.363 -16.28,-5.363 -5.98,0 -11.94,1.926 -15.78,5.871 -2.74,2.832 -4.76,6.778 -5.26,11.016 h -5.46 c 0.5,-5.457 2.93,-10.52 6.46,-14.258 4.77,-5.058 11.85,-7.687 20.04,-7.687 8.28,0 15.47,2.226 20.32,6.984 3.33,3.34 5.67,7.48 5.67,13.75 z m -64.52,-19.414 v 5.059 h -40.54 v 30.234 h 35.69 v 5.058 h -35.69 v 26.29 h 40.54 v 5.058 h -45.9 v -71.699 h 45.9 z m -69.77,0 v 71.699 h -5.26 v -31.348 h -40.05 v 31.348 h -5.27 v -71.699 h 5.27 v 35.195 h 40.05 v -35.195 h 5.26 z m -67.86,21.941 H 1434 c -0.92,-10.613 -8.7,-18.101 -20.03,-18.101 -5.97,0 -11.03,2.129 -14.96,6.172 -6.49,6.675 -6.89,17.293 -6.89,25.886 0,8.606 0.31,19.121 6.78,25.789 3.85,3.95 8.69,6.172 15.07,6.172 11.33,0 19.11,-7.488 20.03,-18.101 h 5.46 c -1.12,13.25 -11.23,23.258 -25.49,23.258 -6.88,0 -13.96,-2.832 -18.92,-7.793 -7.67,-7.782 -8.38,-19.11 -8.38,-29.325 0,-10.214 0.71,-21.64 8.38,-29.425 4.96,-4.961 12.04,-7.793 18.92,-7.793 14.26,0 24.37,10.019 25.49,23.261 z m -66.05,-2.527 c 0,10.117 -7.58,18.105 -18.71,19.52 l -13.54,1.718 c -6.58,0.813 -12.65,4.043 -12.65,12.539 0,4.66 2.13,7.989 4.85,10.422 3.55,3.028 8.51,4.348 13.66,4.348 6.58,0 12.44,-2.324 15.57,-6.176 2.33,-2.723 3.45,-5.457 3.95,-9.101 h 5.36 c -0.4,5.167 -2.42,8.91 -5.47,12.445 -4.03,4.754 -11.73,7.887 -19.41,7.887 -6.67,0 -13.25,-2.223 -17.7,-6.266 -3.64,-3.344 -6.27,-7.59 -6.27,-13.559 0,-11.023 7.48,-16.785 17.6,-18.101 l 13.35,-1.723 c 8.59,-1.109 13.95,-7.078 13.95,-13.953 0,-4.551 -1.71,-7.891 -4.24,-10.313 -3.95,-3.742 -10.11,-5.363 -16.28,-5.363 -5.97,0 -11.95,1.926 -15.78,5.871 -2.74,2.832 -4.75,6.778 -5.27,11.016 h -5.46 c 0.51,-5.457 2.93,-10.52 6.48,-14.258 4.75,-5.058 11.83,-7.687 20.03,-7.687 8.29,0 15.47,2.226 20.33,6.984 3.33,3.34 5.65,7.48 5.65,13.75 z m -70.49,-19.414 v 71.699 h -5.36 v -71.699 h 5.36 z m -26.6,0 v 37.117 h -26.48 v -5.164 h 21.12 c 0,-7.883 -0.5,-16.379 -6.27,-22.449 -3.22,-3.442 -8.58,-5.664 -14.35,-5.664 -5.86,0 -10.82,1.922 -14.66,5.562 -6.79,6.367 -7.89,17.696 -7.89,26.399 0,8.797 1.1,19.621 7.78,26.191 3.74,3.645 8.69,5.867 14.86,5.867 6.18,0 11.95,-1.414 15.69,-5.457 2.63,-2.937 4.34,-6.074 4.74,-10.722 h 5.37 c -1.01,12.332 -11.13,21.336 -25.89,21.336 -7.69,0 -14.37,-3.336 -18.92,-7.793 -7.78,-7.684 -9.09,-19.11 -9.09,-29.422 0,-10.215 1.41,-21.946 9.09,-29.532 4.45,-4.453 11.23,-7.589 18.92,-7.589 8.59,0 17.18,4.66 20.93,12.343 l 1.12,-11.023 h 3.93 z m -73.21,0 v 71.699 h -5.36 v -71.699 h 5.36 z m -23.77,0 v 5.059 h -40.56 v 30.234 h 35.71 v 5.058 h -35.71 v 26.29 h 40.56 v 5.058 h -45.92 v -71.699 h 45.92 z m -62.8,71.699 h -4.95 l -13.26,-64.109 -19.01,62.996 h -4.75 l -18.91,-62.996 -13.46,64.109 h -4.96 l 15.08,-71.699 h 5.56 l 18.91,62.805 18.92,-62.805 h 5.76 l 15.07,71.699 z m -96.17,-71.699 v 71.699 h -5.27 v -31.348 h -40.045 v 31.348 h -5.266 v -71.699 h 5.266 v 35.195 h 40.045 v -35.195 h 5.27 z m -67.866,21.941 h -5.469 c -0.906,-10.613 -8.691,-18.101 -20.019,-18.101 -5.965,0 -11.024,2.129 -14.969,6.172 -6.477,6.675 -6.875,17.293 -6.875,25.886 0,8.606 0.301,19.121 6.777,25.789 3.836,3.95 8.699,6.172 15.067,6.172 11.328,0 19.113,-7.488 20.019,-18.101 h 5.469 c -1.113,13.25 -11.231,23.258 -25.488,23.258 -6.875,0 -13.953,-2.832 -18.914,-7.793 -7.688,-7.782 -8.391,-19.11 -8.391,-29.325 0,-10.214 0.703,-21.64 8.391,-29.425 4.961,-4.961 12.039,-7.793 18.914,-7.793 14.257,0 24.375,10.019 25.488,23.261 z m -66.043,-2.527 c 0,10.117 -7.59,18.105 -18.711,19.52 l -13.547,1.718 c -6.582,0.813 -12.644,4.043 -12.644,12.539 0,4.66 2.129,7.989 4.851,10.422 3.547,3.028 8.496,4.348 13.653,4.348 6.574,0 12.441,-2.324 15.578,-6.176 2.324,-2.723 3.437,-5.457 3.945,-9.101 h 5.359 c -0.41,5.167 -2.429,8.91 -5.457,12.445 -4.054,4.754 -11.738,7.887 -19.425,7.887 -6.668,0 -13.243,-2.223 -17.696,-6.266 -3.64,-3.344 -6.269,-7.59 -6.269,-13.559 0,-11.023 7.48,-16.785 17.597,-18.101 l 13.352,-1.723 c 8.594,-1.109 13.953,-7.078 13.953,-13.953 0,-4.551 -1.719,-7.891 -4.246,-10.313 -3.945,-3.742 -10.117,-5.363 -16.281,-5.363 -5.965,0 -11.934,1.926 -15.782,5.871 -2.722,2.832 -4.753,6.778 -5.253,11.016 h -5.469 c 0.508,-5.457 2.941,-10.52 6.476,-14.258 4.754,-5.058 11.836,-7.687 20.028,-7.687 8.293,0 15.468,2.226 20.324,6.984 3.34,3.34 5.664,7.48 5.664,13.75 z m -70.488,-19.414 v 71.699 h -5.157 v -63.406 l -41.671,63.406 h -5.965 v -71.699 h 5.258 v 63.508 l 41.566,-63.508 h 5.969 z m -75.344,26.289 v 45.41 h -5.258 v -45.508 c 0,-12.441 -6.172,-22.453 -20.23,-22.453 -14.055,0 -20.121,10.012 -20.121,22.453 v 45.508 h -5.258 v -45.41 c 0,-15.773 8.187,-27.609 25.379,-27.609 17.195,0 25.488,11.836 25.488,27.609 z m -76.344,-2.422 h -30.844 l 15.274,40.559 15.57,-40.559 z m 14.567,-23.867 -27.508,71.699 h -5.156 L 618.98,130.254 h 5.461 l 7.079,18.906 h 34.691 l 7.281,-18.906 h 5.36 z m -73.223,51.074 c 0,-10.215 -6.875,-15.683 -18.703,-15.683 h -20.942 v 31.359 h 20.942 c 11.828,0 18.703,-5.461 18.703,-15.676 z m 5.465,0 c 0,12.434 -8.496,20.625 -24.168,20.625 h -26.199 v -71.699 h 5.257 v 30.535 h 24.985 l 14.054,-30.535 h 5.77 l -14.566,31.855 c 9.003,2.43 14.867,9.817 14.867,19.219 z m -74.535,-30.851 c 0,-12.442 -9.407,-15.274 -19.215,-15.274 h -20.125 v 29.942 h 20.125 c 10.414,0 19.215,-2.938 19.215,-14.668 z m -1.618,33.476 c 0,-11.426 -7.683,-13.758 -17.597,-13.758 h -20.125 v 26.809 h 20.125 c 8.695,0 17.597,-3.039 17.597,-13.051 z m 6.977,-33.875 c 0,8.184 -4.145,15.371 -13.047,17.488 8.195,2.231 11.434,9.004 11.434,16.789 0,5.364 -2.832,10.723 -7.391,13.758 -4.551,3.028 -10.211,3.84 -15.57,3.84 h -25.387 v -71.699 h 25.387 c 6.371,0 12.844,0.809 18.004,4.949 4.55,3.645 6.57,9.211 6.57,14.875 v 0" /><path
         id="path18"
         style="fill:#ffffff;fill-opacity:1;fill-rule:nonzero;stroke:none"
         d="m 364.574,63.8398 c -0.011,-0.0234 -0.023,-0.0312 -0.039,-0.039 0.016,0.0078 0.031,0.0156 0.039,0.039 v 0 z m 60.02,130.3792 c 0,0 0,-0.008 -0.004,-0.008 h 0.004 v 0.008 z M 353.129,79.7461 c 1.387,-2.2969 5.269,-8.6719 11.445,-15.9063 33.574,34.2344 55.641,79.7622 60.016,130.3712 -4.746,1.266 -11.094,1.758 -21.051,1.062 -32.953,-2.277 -58.094,-0.136 -70.934,6.543 -33.097,17.211 -32.41,33.125 -32.41,33.125 0,0 4.817,-11.781 17.028,-19.003 15.8,-9.344 36.64,0.503 47.812,8.929 0.528,0.399 0.399,0.832 -0.672,0.988 -28.363,3.946 -23.015,15.825 -48.289,22.434 17.172,5.242 30.742,-12.199 45.196,-11.004 2,0.164 4.351,0.93 3.359,1.422 -21.902,10.863 -14.941,36.25 -48.129,45.32 9.559,5.129 26.133,-2.742 26.133,-2.742 2.035,-1.14 2.965,0.254 2.086,0.606 -13.153,5.261 -13.063,26.859 -34.016,27.918 12.527,-1.059 12.652,2.171 22.324,-0.922 1.309,-0.524 0.813,0.816 0.586,1.215 -21.125,37.906 -70.043,38.39 -38.144,42.57 1.011,0.023 -0.524,1.152 -0.821,1.375 -13.222,9.922 -26.519,11.461 -37.324,9.551 -6.57,2.757 -5.66,18.976 -5.679,19.976 -0.625,0.125 -1.247,0.258 -1.872,0.387 -4.683,-4.031 -5.835,-7.488 -6.507,-15.129 -4.543,0.211 -7.438,1.813 -8.774,4.621 -0.465,0.981 -0.914,4.145 -1.019,4.422 -2.922,-0.121 -5.082,-3.031 -5.403,-8.66 -11.816,2.074 -61.261,-34.07 -61.91,-34.625 -2.297,-1.973 -17.687,-9.399 -18.703,-10.024 -9.352,-6.656 0.988,-22.461 2.367,-24.39 5,-7.699 16.336,-3.707 19.117,-10.156 15.321,-1.684 26.52,9.273 27.297,9.539 3.918,1.343 9.149,-0.219 13.727,0.48 3.359,0.512 9.09,5.027 13.89,2.965 4.805,-2.066 5.868,-15.734 3.848,-21.211 -2.742,-7.434 -25.805,-34.332 -26.348,-35.813 -1.074,-2.917 -1.941,-7.5 -3.429,-12.281 -1.496,-4.777 -18.031,-18.871 -17.004,-28.594 -6.668,1.274 -48.067,20.461 -51.899,21.426 -2.324,0.586 -7.308,2.625 -9.968,2.246 -7.477,-1.066 -54.2112,-50.574 -54.4378,-51.148 -1.0742,-2.777 -0.0899,-24.289 3.6875,-28.566 0.0391,-1.856 15.7109,-14.942 17.707,-16.614 5.125,-0.351 4.7617,4.192 6.0469,7.27 3.1719,7.527 5.7695,20.144 -2.0781,25.73 -1.0391,0.742 -6.8594,2.676 -7.5,2.91 -1.8164,6.614 -0.3321,11.844 5.8945,13.313 2.832,1.519 7.1367,3.164 8.0391,4.422 1.0156,0.847 15.9919,17.043 18.8559,18.816 6.871,4.254 14.628,3.113 22.328,-1.812 5.004,-3.207 25.414,-23.743 29.668,-27.121 0.746,-0.594 11.293,-6.59 11.297,-6.68 -13.958,0.969 -24.461,3.586 -34.719,8.039 -3.41,1.473 -16.211,6.199 -20.41,4.59 -8.469,-2.992 -13.27,-10.578 -14.61,-13.274 -2.176,-4.367 0.43,-68.457 1.117,-69.2575 0.493,-0.5781 9.75,-24.1914 11.692,-25.5078 0.09,-1.6992 23.644,-13.0273 25.398,-14.082 4.633,0.207 0.922,25.332 -0.586,28.3594 -0.847,1.707 -2.414,2.8593 -3.496,4.3086 -1.187,0.1836 -8.894,-1.0196 -12.031,-1.2227 0.078,1.2695 -5.027,11.223 -4.434,18.555 0.707,0.769 0.829,2.136 2.871,3.015 1.071,5.735 -6.32,35.422 -5.285,38.008 0.934,2.336 1.02,4.453 2.352,6.399 2.215,3.234 11.676,3.945 16.707,1.425 9.863,-4.922 84.426,-59.5036 87.215,-49.738 0.855,3.559 0.98,8.059 3.879,7.121 63.047,-38.7772 99.629,-28.203 109.101,-28.6717 3.528,-0.168 6.614,-2.3516 9.805,-7.6172 v 0" /><path
         id="path20"
         style="fill:#1878c7;fill-opacity:1;fill-rule:nonzero;stroke:none"
         d="m 424.684,194.211 c 0.527,6.121 0.851,12.293 0.851,18.555 0,117.515 -95.258,212.769 -212.777,212.769 C 95.25,425.535 0,330.281 0,212.766 0,95.2539 95.25,0 212.758,0 c 59.515,0 113.293,24.4531 151.906,63.8398 -6.18,7.2344 -10.059,13.6094 -11.445,15.9063 -3.196,5.2656 -6.281,7.4492 -9.805,7.6172 -9.473,0.4687 -46.055,-10.1055 -109.101,28.6717 -2.903,0.938 -3.024,-3.562 -3.883,-7.121 -2.789,-9.7656 -77.348,44.816 -87.211,49.738 -5.035,2.52 -14.492,1.809 -16.711,-1.425 -1.332,-1.946 -1.414,-4.063 -2.348,-6.399 -1.035,-2.586 6.352,-32.273 5.281,-38.008 -2.039,-0.879 -2.16,-2.246 -2.871,-3.015 -0.593,-7.332 4.516,-17.2855 4.438,-18.555 3.133,0.2031 10.844,1.4063 12.027,1.2227 1.086,-1.4493 2.649,-2.6016 3.496,-4.3086 1.512,-3.0274 5.215,-28.1524 0.586,-28.3594 -1.75,1.0547 -25.304,12.3828 -25.398,14.082 -1.938,1.3164 -11.196,24.9297 -11.692,25.5078 -0.687,0.8005 -3.289,64.8905 -1.117,69.2575 1.344,2.696 6.145,10.282 14.61,13.274 4.199,1.609 17.003,-3.117 20.41,-4.59 10.258,-4.453 20.761,-7.07 34.722,-8.039 -0.004,0.09 -10.55,6.086 -11.297,6.68 -4.253,3.378 -24.664,23.914 -29.667,27.121 -7.708,4.925 -15.461,6.066 -22.333,1.812 -2.859,-1.773 -17.8355,-17.969 -18.8511,-18.816 -0.9023,-1.258 -5.2109,-2.903 -8.043,-4.422 -6.2187,-1.469 -7.707,-6.699 -5.8906,-13.313 0.6367,-0.234 6.457,-2.168 7.5,-2.91 7.8438,-5.586 5.2461,-18.203 2.0781,-25.73 -1.289,-3.078 -0.9218,-7.621 -6.0507,-7.27 -1.9961,1.672 -17.6641,14.758 -17.7032,16.614 -3.7812,4.277 -4.7617,25.789 -3.6875,28.566 0.2227,0.574 46.957,50.082 54.434,51.148 2.66,0.379 7.64,-1.66 9.964,-2.246 3.84,-0.965 45.235,-20.152 51.907,-21.426 -1.032,9.723 15.508,23.817 17,28.594 1.492,4.781 2.359,9.364 3.429,12.281 0.547,1.481 23.61,28.379 26.352,35.813 2.016,5.477 0.957,19.145 -3.848,21.211 -4.804,2.062 -10.531,-2.453 -13.89,-2.965 -4.582,-0.699 -9.813,0.863 -13.727,-0.48 -0.781,-0.266 -11.976,-11.223 -27.301,-9.539 -2.777,6.449 -14.117,2.457 -19.117,10.156 -1.375,1.929 -11.719,17.734 -2.359,24.39 1.008,0.625 16.398,8.051 18.699,10.024 0.645,0.555 50.094,36.699 61.91,34.625 0.317,5.629 2.481,8.539 5.399,8.66 0.109,-0.277 0.558,-3.441 1.019,-4.422 1.34,-2.808 4.231,-4.41 8.777,-4.621 0.668,7.641 1.821,11.098 6.508,15.129 0.625,-0.129 1.246,-0.262 1.871,-0.387 0.02,-1 -0.894,-17.219 5.676,-19.976 10.809,1.91 24.106,0.371 37.324,-9.551 0.301,-0.223 1.832,-1.352 0.825,-1.375 -31.903,-4.18 17.019,-4.664 38.14,-42.57 0.227,-0.399 0.727,-1.739 -0.586,-1.215 -9.672,3.093 -9.793,-0.137 -22.324,0.922 20.953,-1.059 20.867,-22.657 34.016,-27.918 0.879,-0.352 -0.047,-1.746 -2.086,-0.606 0,0 -16.571,7.871 -26.133,2.742 33.187,-9.07 26.227,-34.457 48.133,-45.32 0.988,-0.492 -1.36,-1.258 -3.364,-1.422 -14.453,-1.195 -28.019,16.246 -45.195,11.004 25.278,-6.609 19.93,-18.488 48.293,-22.434 1.07,-0.156 1.195,-0.589 0.668,-0.988 -11.172,-8.426 -32.012,-18.273 -47.812,-8.929 -12.211,7.222 -17.028,19.003 -17.028,19.003 0,0 -0.687,-15.914 32.414,-33.125 12.836,-6.679 37.981,-8.82 70.934,-6.543 9.957,0.696 16.305,0.204 21.055,-1.062 v 0" /></g></g></svg>