<?xml version="1.0" encoding="utf-8"?>
<!-- Generator: Adobe Illustrator 27.9.0, SVG Export Plug-In . SVG Version: 6.00 Build 0)  -->
<svg version="1.1" id="Ebene_1" xmlns="http://www.w3.org/2000/svg" xmlns:xlink="http://www.w3.org/1999/xlink" x="0px" y="0px"
	 width="224.82px" height="69.45px" viewBox="0 0 224.82 69.45" style="enable-background:new 0 0 224.82 69.45;"
	 xml:space="preserve">
<style type="text/css">
	.st0{clip-path:url(#SVGID_00000133518146929980533080000009504015054902217367_);fill:#0080C9;}
</style>
<metadata><?xpacket begin="﻿" id="W5M0MpCehiHzreSzNTczkc9d"?>
<x:xmpmeta xmlns:x="adobe:ns:meta/" x:xmptk="Adobe XMP Core 9.1-c001 79.675d0f7, 2023/06/11-19:21:16        ">
   <rdf:RDF xmlns:rdf="http://www.w3.org/1999/02/22-rdf-syntax-ns#">
      <rdf:Description rdf:about=""
            xmlns:xmp="http://ns.adobe.com/xap/1.0/"
            xmlns:xmpGImg="http://ns.adobe.com/xap/1.0/g/img/"
            xmlns:xmpTPg="http://ns.adobe.com/xap/1.0/t/pg/"
            xmlns:stDim="http://ns.adobe.com/xap/1.0/sType/Dimensions#"
            xmlns:stFnt="http://ns.adobe.com/xap/1.0/sType/Font#"
            xmlns:xmpG="http://ns.adobe.com/xap/1.0/g/"
            xmlns:dc="http://purl.org/dc/elements/1.1/">
         <xmp:CreatorTool>Adobe Illustrator 27.9 (Windows)</xmp:CreatorTool>
         <xmp:CreateDate>2023-11-18T13:36:40+01:00</xmp:CreateDate>
         <xmp:Thumbnails>
            <rdf:Alt>
               <rdf:li rdf:parseType="Resource">
                  <xmpGImg:width>256</xmpGImg:width>
                  <xmpGImg:height>80</xmpGImg:height>
                  <xmpGImg:format>JPEG</xmpGImg:format>
                  <xmpGImg:image>/9j/4AAQSkZJRgABAgEASABIAAD/7QAsUGhvdG9zaG9wIDMuMAA4QklNA+0AAAAAABAASAAAAAEA&#xA;AQBIAAAAAQAB/+4ADkFkb2JlAGTAAAAAAf/bAIQABgQEBAUEBgUFBgkGBQYJCwgGBggLDAoKCwoK&#xA;DBAMDAwMDAwQDA4PEA8ODBMTFBQTExwbGxscHx8fHx8fHx8fHwEHBwcNDA0YEBAYGhURFRofHx8f&#xA;Hx8fHx8fHx8fHx8fHx8fHx8fHx8fHx8fHx8fHx8fHx8fHx8fHx8fHx8fHx8f/8AAEQgAUAEAAwER&#xA;AAIRAQMRAf/EAaIAAAAHAQEBAQEAAAAAAAAAAAQFAwIGAQAHCAkKCwEAAgIDAQEBAQEAAAAAAAAA&#xA;AQACAwQFBgcICQoLEAACAQMDAgQCBgcDBAIGAnMBAgMRBAAFIRIxQVEGE2EicYEUMpGhBxWxQiPB&#xA;UtHhMxZi8CRygvElQzRTkqKyY3PCNUQnk6OzNhdUZHTD0uIIJoMJChgZhJRFRqS0VtNVKBry4/PE&#xA;1OT0ZXWFlaW1xdXl9WZ2hpamtsbW5vY3R1dnd4eXp7fH1+f3OEhYaHiImKi4yNjo+Ck5SVlpeYmZ&#xA;qbnJ2en5KjpKWmp6ipqqusra6voRAAICAQIDBQUEBQYECAMDbQEAAhEDBCESMUEFURNhIgZxgZEy&#xA;obHwFMHR4SNCFVJicvEzJDRDghaSUyWiY7LCB3PSNeJEgxdUkwgJChgZJjZFGidkdFU38qOzwygp&#xA;0+PzhJSktMTU5PRldYWVpbXF1eX1RlZmdoaWprbG1ub2R1dnd4eXp7fH1+f3OEhYaHiImKi4yNjo&#xA;+DlJWWl5iZmpucnZ6fkqOkpaanqKmqq6ytrq+v/aAAwDAQACEQMRAD8A9U4qgtX1vSNHtGvNUu47&#xA;S3X9uVqVNK0UdWPsBXLMWGeQ1EWWrNnhijxTNB5H5t/P4nna+WLanUfpC5G/hWOL8QX/AOBzfabs&#xA;TrkPwH6/x73m9Z7QdMI+J/QP1/J5Lqeuaxql99e1C8lubutRNIxJXeoCdlA7Bc3mPDCEeGIoPO5c&#xA;88kuKRJkyjy9+cPnfRuMbXf6Rtl/3Te1lNPaSok+XxU9sws/ZeHJ04T5finYabtnUYtr4h/S3+3m&#xA;9P8AL358+Vr/AIx6tFJpU52Lms0Nf9dBzH0pT3zTZ+xcsd4HiHyLvtN2/hntMGB+Y/HweiWGpadq&#xA;NuLmwuYru3bpLC6yL8qqTmqnjlA1IUXdY8sZi4kEeSIyDN2KuxV2KuxV2KuxV2KuxV2KuxV2KuxV&#xA;2KuxV2KuxV2KuxV2KuxV2KuxV2KuxV4t5u/P41ktfLFvTqv6RuR8xWOL8QX+lc6HS9i9cp+A/X+r&#xA;5vLaz2g6YR/nH9A/X8nkmrazqur3bXmp3Ul3ct/uyVi1BWtFHRR7DbN7jxRgKiKDzuXNPJLimbKC&#xA;yxqdirsVdiqL03VtU0y4Fzp13LZzj/dkLshI8DxIqPbIZMcZipAENmLNPGbiTE+T0Xy9+fnmSy4x&#xA;axbx6pCOsopBN96goaf6n05qc/YuOW8Dw/aHd6b2gyx2mBMfI/q+x6f5d/NvyTrfGNL36jdNsLe9&#xA;pEa+z1MZr2o1c02fszNj6cQ8vxbvtN2vgy7Xwnult+z7WZAggEGoO4IzXuzdirsVdirsVdirsVdi&#xA;rsVdirsVdirsVdirsVdirsVdirsVdirsVdirsVfF2ehPl7sVdirsVdirsVdirsVdiqe+X/PPmvy+&#xA;VGl6jLFCp/3mc+pCfH92/JRXxG+Y2fR4sv1R/W5en1+bD9EiB3dPk9W8n/nyb++tdN1vTxHPcyJC&#xA;l3ak8OUjBV5ROSQKnchj8s0mq7G4YmUDy6H9b0Oj7f45CGSO5NWP1ftevZoXpHE03PTFUAmv6FJa&#xA;2t3HqVq9rfSiCyuFmjMc0pJAjicNR3JUjiu+2Ktza9ocGox6ZNqNtFqU1DDYvNGs716cYieZ6dhi&#xA;q7VNa0bSYlm1S/t7CFzxSS6lSFWbrQGQqCcVX3Gp6bbrbvcXcMK3kiQ2jSSIolkkFUSMkjmzU2A3&#xA;OKut9T025W4a3u4ZltJGhuzHIriKWMVdJKE8GWu4O4xVZpms6PqsTy6XfW9/FG3CSS2lSZVbwJQs&#xA;AcVWw69oc+oyaZDqNtLqUNTNYpNG06U68ogeY69xirT6/oUdrdXcmpWqWtjKYL24aaMRwyggGOVy&#xA;1EcFgOLb74qr/pHT/rxsPrUX14RfWDac19X0eXH1PTry4ctuVKVxVQTX9CktbW7j1K1e1vpRBZXC&#xA;zRmOaUkgRxOGo7kqRxXfbFVe/wBR0/TrR7zULmKztI6epcXDrFGvIhRydyFFSQBiqF0vzL5c1aV4&#xA;tK1Wz1CWNeckdrcRTMq1pUiNmIFcVRV/qOn6daPeahcxWdpHT1Li4dYo15EKOTuQoqSAMVQzeZfL&#xA;imyVtVsw2pBTpwNxFW4DkBTB8X7yvIU41xVVl1nR4tSi0uW+t49TnX1ILFpUE7oOR5JETzYfA24H&#xA;Y4qh9T81eV9KuBbanrFlYXJUOIbm5ihcqSQG4uymhod8VXy+ZPLsUdnJLqtnHHqO2nu1xEFuDsP3&#xA;JLfvPtD7NeuKqkut6NE14kt/bRtpyq+oK0yA26uOSNMCf3YZdwWpXFVDTPNXlfVbk2ul6xY39yEM&#xA;hgtrmGaQIpALcUZjQFhvir5Cz0J8vdirsVdirsVdirsVdirsVdiqaeVv+Un0j/mNtv8Ak6uU6j+7&#xA;l/VP3ORpP76H9Yfe+vc4N9IU7n/eeX/Ub9WKvlryj5nlu/KP5U6EdG1G3jsvMVtIurzQhbGcme4+&#xA;CGXkSzfvP5f2TgVMPNGkaXceS/zW8yT2sUnmDTfMsiafqrKDcwLDNaiNY5ftKFBIABwq9A17RtJ8&#xA;w/nnpmn67Zw6nYR+V5bmO1ukWWJZmvVQyBGBUMV2riqVfmPpVl5J8qfl5Y6b9c1iz0jzLatbRLwn&#xA;u5VAuJBDHxEasRXgg9hiqC8o6XqXnX8vfzQsbBZdJv8AWNfvTFDegwyRsywOYZwpbiWp6bdevfFU&#xA;+/LC38tWvmvVI4tHm8o+a4dLji1Hy6ohFlLFHISt9btEv774zw519qd8VS78m/y98r6t5C8neZ7h&#xA;PqnmGC8l1CTVYeCXN1KLidTFPKys8iOD8S1rtirBPN3meW08o/mtoQ0bUbiO98xXMjavDCGsYCJ7&#xA;f4JpeQKt+7/l/aGBXrFv/wCT6u//AADov+o5sKsD8v8A/kqvyb/8Ce3/AOT93ir0L/nI0qPyi1cs&#xA;pdRNY1QCpYfXYdqd64qjfyzfyzNdX0uk+RLryhNGiLJPd6fDYmdXJPBGiLFuJSpHyxVCf85FKrfl&#xA;LqqsAVM9iCDuCDew4q8kPlTzPpXnDysNatngstC8yWOiaBNItBPaG5vLr1U9uBhTb+X2xVb5z89e&#xA;V4/zM1fzLNqCpruha/p1rp1pwcsdPs1eC+VZApQLI8zsat+zgV6Z+fHl3y9eL5Uv7jTrWe8ufMWl&#xA;2U108SNJJau7loWcipjau69MKpJ+f3lqK4vvJOh6PClp6UOsnTIIEVFjltrETW4jVQAtJI1pTpiq&#xA;P/LDUdM81+d/O+oXcMU+n6vpWgzXNvMqvEVlsnMiOrVUgVINcVRX5L+XdEu9f8wefNM02303S72Q&#xA;6Z5dgtYUgQ2Vs9JLiiBQTcSrWvX4aYq8Kz0J8vdirsVdirsVdirsVdirsVdiqaeVv+Un0j/mNtv+&#xA;Tq5TqP7uX9U/c5Gk/vof1h9769zg30hqRA8bIdgwIr88Veeaf+UEVn5V8n6ANUZx5S1OPVEufQA+&#xA;senJK/plOZ4V9anKp6dMVQus/kkNR1LU0j8w3Vr5X129XUdb8vJDCyzzgoz8bhv3iK7RKSoxVOPO&#xA;X5dXus67aeYdC16by7rlravp7XUUEVyklq7iT0zHLQAhxUMDiqgv5RaXb+X/ACnoljeyQ2/lbU4d&#xA;VWSRRK9zJGZGkDmqcTI8xNR08MVak/KLTLny/wCbNEvr2SWDzTqc2qtLGoie2kkMbxhN35em8INT&#xA;Svhiqt5Q/Li/0rzBceYvMGvzeZNaktBp1vcSwRWqRWvP1WQRxVBLPuWOKpRon5IjTdS0tJPMN1d+&#xA;WNBvG1HRPL7xRKsE5Z2TlcD97IqNKxAOKovUPygivPKvnDQDqjIPNupyao9z6AP1f1JIn9MJzHOn&#xA;o05VHXpiqM83flte6trdtr2ha/P5e1mOzOm3NzFBFcrPaF/UCMktAGD7hhiqC1b8nYZPJvlvy3oe&#xA;ry6S3li7ivrHUGhS5kM0ayfEyMUSrPMX8O1MVVNV/LPzFrnkTUvK+v8AmuTUrm+nhmh1VrKGJoVh&#xA;kjlEYhiZVerRHcnviqb+UPLPnPSbyeXXvNsnmG3kj4Q272VvaCN+QPPlDu221Diqv+YPk5POPlS6&#xA;8vvdGyFy8En1kJ6vEwTJN9jkla+nTrirvOPk5PMk2gStdG1Oharb6soCc/VNuHHpH4l48uf2t6eG&#xA;Ksdu/wAnbe48meaPLR1Mr/iXU59TN56ALQevNHMYgvP46elTlUdemKt/mB+WHmPzZfWTwebJNL07&#xA;Tpbe7s7BbKCcJd2pJSf1GZXJ+L7J2xVM5PIV9d6r5Q1XVNZa+v8Ayv8AWzNMbdIzeNdw+jyZUYLF&#xA;xG+wNcVY75e/I39Baf5us7LXpUHmeFba3kWAK1lAhl4otJP3lEm41+Hpiqb+Qfy/82eVXtLa583P&#xA;qmh2Vv8AVoNJOn21sihQAh9WMl6rTv174q+as9CfL3YqjdJ0bVdXu1s9MtZLu5b/AHXEpagrSrHo&#xA;o9ztleTLGAuRoNuLDPJLhgLLJvNf5Xav5X8t2+r6pcRCe4uFt/qUdXKB43erSV41Hp0oAR75h6bt&#xA;GGbIYRGwF25+r7LngxCcyLJqvh3/AI97DM2Dq3Yq7FXYq7FXYqmnlb/lJ9I/5jbb/k6uU6j+7l/V&#xA;P3ORpP76H9Yfe+vc4N9IWyuUidx1VSRX2GKsZ0/zVf3OneTLl4og/mNYzeABqJz06W8PpVbb44gP&#xA;irt9+KpL5M/MjU9d0XQbi7tYbfUr7UmsNTgUPwRHspr6CSKrE/vIRC25P2mGKpvpV75yk8532mXt&#xA;9p0umWMFvdFIbGeKd1u2uERPVa8lRTGbcFm9M8q0ovXFVmn+b9QurXQIykJ1DUNRutO1AKrCNP0d&#xA;9ZW6dF5kgepacFqx+0OuKrtDvfOurXM94uoabBpcGo3dr9TNhPJcGGzu3gP+kfXUQO6xV5ejQE/Z&#xA;OKoS780eaLfVNTug9k+iabq9lpRsfq8ounW8Fopl+tfWPTBR73lx9DcLSorUKox9a803etaomlfU&#xA;ntNFu4bS502RHa7nEkENw0i3HrRxwUS4+FWiflx+0OXwqu1W985R+c7HTLK+06LTL6C4ugk1jPLO&#xA;i2jW6OnqreRIxkNwSremONKUbriq3zNe+drXXdLttL1DTYbLVrhraNLrT555YjHaS3DM0iXtur8j&#xA;BQDgtK9TTdVvzL5v1DQLyaGeGKcT6d6ujqoaMz6ikwgNsSWYD1nuYBEvX7e5psqyeJp47RGuir3C&#xA;RgztECqFwvxFFYsQK9ATirEfL/mbzLM3l+71VrKWx8zpys4LSGWKS1ZrVrxFkmkmkE49ONlLCKPf&#xA;fjvQKojyze+c9WdtQmv9Oj0pb29t/qKWE/1j0rW6ltl/0k3hTkfSDE+jT2xVleKuxV2KuxV2KuxV&#xA;8d6To2q6vdrZ6ZayXdy3+64lLUFaVY9FHuds77JljAXI0HzTFhnklwwFl635S/IEnhdeZ7mnQ/o+&#xA;2O/jSSX8CE/4LNHqe2+mMfE/q/Huei0fs/1zH4D9J/V83rmkaJpGj2i2el2kdpbr+xEtKmlKserH&#xA;3Jrmhy5p5DcjZekw4IYo8MBQeff85B/8oZZf9tGL/kxPm17D/vj/AFf0h03tD/cD+uPuL58zqXjX&#xA;Yq2qs7BEBZmNFUbkk9ABgSBareWV5ZXDW15BJbXKU5wzKUdeQDCqsARUEHBGYkLBsJnCUTUhR81H&#xA;JMXYqmnlb/lJ9I/5jbb/AJOrlOo/u5f1T9zkaT++h/WH3vr3ODfSFsqF4nQdWUgV9xirz3yuLu6h&#xA;8laW1jeW135aiU6u1zbTwwo8enSWZjjnkRIp6yTbGFmFBXwxVKNG8s65Y6j+Xd5HZzLbyW0EOuxF&#xA;GBt57LT7lbeSRaVTkLqSN2buI18MVZLovmC1uPP+qMtnqccV7Z2Ntb3E+l6hBCZbaS7eUGWWBI1A&#xA;Eq0ZmANdicVUdA0bVIvzN1h5raSPR7NJbnTrgqRFJJqq2xmCkijPFLZSk8egl364qgfLMOiWWt3K&#xA;30PmCLV31i+eNY0179HFZ72VoXIiH6O9NkdWLH4e7d8VavfLmtv5ivr6Sa9fRZPMllLdaMkURhmi&#xA;S1tFhukcRfWKQ3qRvIRLw4RtUU5Yqj/NVy0+oTLbaTeW/my1dU0PUbeC5eCeMhXHr3cUf1dYCzOs&#xA;kU77U5AV4HFVbWvMFrb+f9LZrPU5IrKzvra4uINL1CeES3Mlo8QEsUDxsCImqysQKbkYqnHmG1uZ&#xA;td8ryxRPJHbX80lw6qSsaHTrqMM5H2QXdV37nFVLzbpf17UvKzm1+spZ6uLiRuHMRBLK6CyE0+EC&#xA;Qpv40xVkMqF4nQdWUgV9xirz3yx9au4vJWlrY3tvceWo1/S7XdrPbRo0WnS2fCOaRBDOTLLsYXda&#xA;CtaUqqmXkfylBaxvqdx+kIb86hqcot5L2+W24y31xwb6k031bi0bBl/d9+XXfFWZYq7FXYq7FXYq&#xA;7FUHpej6VpVv9W020hs4CamOFFQE+JoNz7nLMmWUzciSWvFhhjFQAiPJGZW2OxV5j/zkH/yhll/2&#xA;0Yv+TE+bnsP++P8AV/SHQ+0P9wP64+4vn1VZ2CICzMaKo3JJ6ADOoeOAt6H5S/JLzPrHC41Ifoix&#xA;besy1nYf5MW3H/ZkfI5qtT2vjx7R9Uvs+butJ2Hlybz9Eft+X63tHlX8u/KvllVbT7UPeAUa+npJ&#xA;OfGjUonyQDOf1Ouy5vqO3cOT0+k7Ow4PpG/eef49zwf85f8AyZOsf9G3/ULFnS9lf4vH4/eXke2v&#xA;8an8P9yGF5sXVuxVNPK3/KT6R/zG23/J1cp1H93L+qfucjSf30P6w+99e5wb6Q7FUs03zNomp6pq&#xA;Ol2VwZb7SigvovTkQJ6pdV4u6qkg5ROpKE0KkHfFULp3nby7qGpHTraWcXBlmt43mtLqCCWa2Z1m&#xA;jhuJokhlZPSfaNzspPQHFXWvnby7c6odNiluBOJ5LQTSWd3HatPCzK8SXbxLbu4ZGFFkNSNsVTW0&#xA;1Czu5buK3k5yWM31e6WhHCX00l47gV+CVTt44qlM3nbQoddTQpFvv0lKaRounX7RMAyKzidYDD6a&#xA;tKoaTnxWu5GKum876DFqs+lhb6a7tpUt7g2+m6hcQpK6JIFa4hgeEfBKrH49q74q1P568twapNpk&#xA;stys9tMlvcz/AFK8NpFLIqOiSXgh+rKSsqdZO4xVP8VSbSPOPl/V7oW1hPJI7xma3kkt7iGG4iFK&#xA;yW00saRXCfEp5RMwoQehGKrdH85+XtYuRb2E8rtIpkt5ZLa5ghuEXq9tPNHHFcLQg8omYU36b4qs&#xA;h87aFNrr6FGt9+kojSRG06/WJQWdVcztAIfTZomCyc+LU2JxVqLzzoE2omwgW/mmW4azaaLTNQkt&#xA;hMkhicG6W3NuAjghm58RTc4qiIPN3l2e3vLiG8V4tPvhpV4wR/3d6ZEiEJHGtecyCo23rWmKqd55&#xA;z8vWmqNpk88v1iJkjuJUtrmS2heUBkSe6SNreFmV1PGSRTRlPRhVVTv/ADzoFlqFxp7rfz3VoVW5&#xA;FnpmoXiIzosqq0ltbzR8uDq1OVd8VVtU836Bpl79TvJpVlVQ80kdvcTQwK32WuZ4o3igBpWsrLtv&#xA;0xVOcVdirsVdirsVdirGPzB8l/4v0i2003f1NIbpLl5AnqEqqOhUDktCfU65maHV+BMyq9qcDtDR&#xA;fmYCF8NSv7/1rvKv5d+VfLKq2n2oe8Ao19PSSc+NGpRPkgGOp12XN9R27hyTpOzsOD6Rv3nn+Pcy&#xA;XMNznYq+Yvzl/wDJk6x/0bf9QsWdj2V/i8fj95eD7a/xqfw/3IYXmxdWyDyv5E8z+ZZANLs2NvWj&#xA;3kvwQL41c9aeC1PtmLqNZjwj1Hfu6ubpdBlzn0Dbv6PavJX5K6JoU8GoalKdS1OFhJFtwgjcbgqn&#xA;Vip6Fj9AzntX2tPIDGPpj9r1Gh7Ex4SJSPFMfIPR81Du2nYIjMeigk/RiryfyBqOoLqHlS9uNGvN&#xA;PXXLS9+t3UzWbQXF1ft+lg8foXE0wVStxx5xrs+9DtiqP8rRavqculQppc0Fjo+v6vezapO9t6Mq&#xA;mbUIAkCRyyT8/UuRX1I0FA2/Sqreirq+qQyaTDpVxHaW/mS7vJdZeS2FsUtdWluCkaLM1yXZk9P4&#xA;oQOu9OqrJvKf/HW82f8AbXX/ALptnirrv/yYulf9sjUf+oqxxVK9AuPM6eaPM0djp9lPpbaxH9Yu&#xA;p72WGdK6fZh+EC2syPxXdayrU7bdcVQGt1/wv+Z1PtevPwp15fom040969MVeiStGsTtKQsQUl2Y&#xA;0AUDckntirDdL9TRf0Rol40Gpac9s0Hl3WF4/WKQ25b05gAVLNAhPrREBqGqLtVVG+Szp48n+UBe&#xA;+l9eOn2osfW4+r6v1MGT0uXxcvT58uO/GvbFVS0/8mLqv/bI07/qKvsVSryRc+aQ17FFp9i+jfpn&#xA;VeV497MtyFOoT8iLYWjR1DbAevuN9umKsIukGkXMlwo42nmfzE1tMewv7HzF6sJp/NLa+qGPhEox&#xA;V6JpB08Seczq3pfo0anW4+tcfQ9L9HWfLn6nw8eta7YqgtMufNMfm7zSml6fY3VkdRtvXnur2a2l&#xA;Vv0dacgkSWlyrALQgmRanbbriqvr8aaa2v6xZra6rpzR/wDO0aJLxZz6NsvMo1WUSNaFKwyrxccf&#xA;iQEllWYqwZQwNQRUHFXYq7FXYq7FXYq7FXYq7FXYq8E8/wD5f+a/Mf5l6odOsX+qyfV6X0wMdvQW&#xA;8akiQj4qEUISpzp9FrcWLTx4jvvt15l5DtDs/Nm1UuGO2255ch+NmYeUvyM8u6XwudZb9LXgofTY&#xA;cbZT/qdX/wBlsf5cwNT2xkntD0j7XZ6TsLFj3n65fZ8uvx+T0mKKKGNYokWOJAFREAVVA6AAbDNQ&#xA;SSbLuwABQXYEuxVplDKVbdWFCPY4qgYdA0mGHS4IrfjFowA0xeTn0gsDW46n4v3TsvxV+/FVew0+&#xA;z0+3NvaR+lCZJZilS37yeVppGqxJ+KSRjirrHT7OwieK0j9KOSaW4dak1luJGllb4iftO5OKpW3k&#xA;vQzrEurq17DeTzJczrBqN/DBJLGqIrPbRzpbt8ESqwKUYDeuKqc3kXQJtaXWpG1D9IoxKSLqeorG&#xA;oZldo1hW4EQjZo1LRheBoKjFV03kjQZdVn1QNfQ3dzKlxcC31LULeF5URIwzW8M6Qn4IlU/BvTfF&#xA;Wp/IvlufVJtTliuWnuZkuLmD67eC0lljVER5LMTfVmIWJOsfYYqn5AIIIqDsQcVSXSPJvl/SLpbm&#xA;xhmV40MdvHLc3M8MCGg4W0M0kkUC0AFIlUU26Yq1o/kzy9o9yLiwglRo1MdvFJc3M8NujdUtoJpJ&#xA;IrdaADjEqim3TbFVKHyLoEOtNrUbah+kXYF5G1PUWjYKzOsbQtcGIxq0jFYyvAVNBircXkbQIdRN&#xA;/A1/DM1w140MWp6hHbGZ5DK5NqtwLch3JLLw4mu4xVE3HlTy/cWa2U1mr2yXo1NELPVbwXH1r1Qw&#xA;bkD6x5UrTtTjtiqleeTPL13qjanPBL9YlZJLiJLm5jtpniAVHntUkW3mZVRRykjY0VR0UUVU7/yN&#xA;oF7qFxqDtfwXV2Va5NnqeoWaOyIsSs0dtcQx8uCKteNdsVX6v5K8u6tdPc30ErNKqpdRRXNzBBcK&#xA;uwW5ghkjhuF4/CRKjVX4TttiqeYq7FXYq//Z</xmpGImg:image>
               </rdf:li>
            </rdf:Alt>
         </xmp:Thumbnails>
         <xmpTPg:MaxPageSize rdf:parseType="Resource">
            <stDim:w>224.815979</stDim:w>
            <stDim:h>69.448822</stDim:h>
            <stDim:unit>Points</stDim:unit>
         </xmpTPg:MaxPageSize>
         <xmpTPg:NPages>1</xmpTPg:NPages>
         <xmpTPg:HasVisibleTransparency>False</xmpTPg:HasVisibleTransparency>
         <xmpTPg:HasVisibleOverprint>True</xmpTPg:HasVisibleOverprint>
         <xmpTPg:Fonts>
            <rdf:Bag>
               <rdf:li rdf:parseType="Resource">
                  <stFnt:fontName>SimpleStd-Bold</stFnt:fontName>
                  <stFnt:fontFamily>Simple Std</stFnt:fontFamily>
                  <stFnt:fontFace>Bold</stFnt:fontFace>
                  <stFnt:fontType>Open Type</stFnt:fontType>
                  <stFnt:versionString>Version 1.000</stFnt:versionString>
                  <stFnt:composite>False</stFnt:composite>
                  <stFnt:fontFileName>SimStdBd.otf</stFnt:fontFileName>
               </rdf:li>
               <rdf:li rdf:parseType="Resource">
                  <stFnt:fontName>SimpleStd-Light</stFnt:fontName>
                  <stFnt:fontFamily>Simple Std</stFnt:fontFamily>
                  <stFnt:fontFace>Light</stFnt:fontFace>
                  <stFnt:fontType>Open Type</stFnt:fontType>
                  <stFnt:versionString>Version 1.000</stFnt:versionString>
                  <stFnt:composite>False</stFnt:composite>
                  <stFnt:fontFileName>SimStdLt.otf</stFnt:fontFileName>
               </rdf:li>
            </rdf:Bag>
         </xmpTPg:Fonts>
         <xmpTPg:PlateNames>
            <rdf:Seq>
               <rdf:li>Cyan</rdf:li>
               <rdf:li>Magenta</rdf:li>
               <rdf:li>Black</rdf:li>
            </rdf:Seq>
         </xmpTPg:PlateNames>
         <xmpTPg:SwatchGroups>
            <rdf:Seq>
               <rdf:li rdf:parseType="Resource">
                  <xmpG:groupName>Standard-Farbfeldgruppe</xmpG:groupName>
                  <xmpG:groupType>0</xmpG:groupType>
               </rdf:li>
            </rdf:Seq>
         </xmpTPg:SwatchGroups>
         <dc:format>image/svg+xml</dc:format>
      </rdf:Description>
   </rdf:RDF>
</x:xmpmeta>
                                                                                                    
                                                                                                    
                                                                                                    
                                                                                                    
                                                                                                    
                                                                                                    
                                                                                                    
                                                                                                    
                                                                                                    
                                                                                                    
                                                                                                    
                                                                                                    
                                                                                                    
                                                                                                    
                                                                                                    
                                                                                                    
                                                                                                    
                                                                                                    
                                                                                                    
                                                                                                    
                           
<?xpacket end="w"?>
	</metadata>
<g>
	<defs>
		<rect id="SVGID_1_" width="224.82" height="69.45"/>
	</defs>
	<clipPath id="SVGID_00000062881181113247561450000017038725556252377518_">
		<use xlink:href="#SVGID_1_"  style="overflow:visible;"/>
	</clipPath>
	<path style="clip-path:url(#SVGID_00000062881181113247561450000017038725556252377518_);fill:#0080C9;" d="M0,13.85
		c0,0,0-1.38,1.23-1.99L24.28,0.32c0,0,1.23-0.62,2.52-0.13l48.44,18.18c0,0,1.29,0.48,1.29,1.86v35.55c0,0,0,1.38-1.23,1.99
		L52.26,69.31c0,0-1.23,0.62-1.23-0.76V48.96c0,0,0-1.38-1.23-0.76L26.74,59.73c0,0-1.23,0.62-1.23-0.76V39.38c0,0,0-1.38-1.23-0.76
		L1.23,50.16c0,0-1.23,0.62-1.23-0.76V13.85L0,13.85z"/>
</g>
<g>
	<path d="M96,31.25c-0.27,0-0.48-0.21-0.48-0.48v-4.4h-2.59v4.4c0,0.27-0.21,0.48-0.48,0.48h-0.67c-0.27,0-0.48-0.21-0.48-0.48
		V20.33c0-0.27,0.21-0.48,0.48-0.48h0.67c0.27,0,0.48,0.21,0.48,0.48v4.4h2.59v-4.4c0-0.27,0.21-0.48,0.48-0.48h0.67
		c0.27,0,0.48,0.21,0.48,0.48v10.44c0,0.27-0.21,0.48-0.48,0.48H96z"/>
	<path d="M99.65,22.44c0-1.54,1.25-2.77,2.77-2.77h0.48c1.52,0,2.77,1.23,2.77,2.77v6.21c0,1.52-1.25,2.77-2.77,2.77h-0.48
		c-1.52,0-2.77-1.25-2.77-2.77V22.44z M101.28,28.65c0,0.62,0.5,1.14,1.14,1.14h0.48c0.64,0,1.14-0.51,1.14-1.14v-6.21
		c0-0.62-0.5-1.14-1.14-1.14h-0.48c-0.64,0-1.14,0.51-1.14,1.14V28.65z"/>
	<path d="M110.92,31.42c-1.52,0-2.77-1.23-2.77-2.77v-6.21c0-1.52,1.25-2.77,2.77-2.77h0.5c1.54,0,2.79,1.25,2.79,2.77v0.34
		c0,0.27-0.21,0.48-0.48,0.48h-0.67c-0.27,0-0.48-0.21-0.48-0.48v-0.34c0-0.62-0.51-1.14-1.15-1.14h-0.5
		c-0.62,0-1.14,0.51-1.14,1.14v6.21c0,0.62,0.51,1.14,1.14,1.14h0.5c0.64,0,1.15-0.51,1.15-1.14v-0.51c0-0.27,0.21-0.48,0.48-0.48
		h0.67c0.27,0,0.48,0.21,0.48,0.48v0.51c0,1.54-1.25,2.77-2.79,2.77H110.92z"/>
	<path d="M121.3,31.25c-0.27,0-0.48-0.21-0.48-0.48v-4.4h-2.59v4.4c0,0.27-0.21,0.48-0.48,0.48h-0.67c-0.27,0-0.48-0.21-0.48-0.48
		V20.33c0-0.27,0.21-0.48,0.48-0.48h0.67c0.27,0,0.48,0.21,0.48,0.48v4.4h2.59v-4.4c0-0.27,0.21-0.48,0.48-0.48h0.67
		c0.27,0,0.48,0.21,0.48,0.48v10.44c0,0.27-0.21,0.48-0.48,0.48H121.3z"/>
	<path d="M127.63,31.42c-1.54,0-2.77-1.25-2.77-2.77V28.3c0-0.27,0.21-0.48,0.48-0.48h0.67c0.27,0,0.48,0.21,0.48,0.48v0.35
		c0,0.62,0.5,1.14,1.14,1.14h0.64c0.64,0,1.14-0.51,1.14-1.14v-0.51c0-2.22-4.4-1.84-4.4-5.2v-0.5c0-1.52,1.25-2.77,2.77-2.77h0.35
		c1.52,0,2.77,1.25,2.77,2.77v0.34c0,0.27-0.21,0.48-0.48,0.48h-0.67c-0.27,0-0.48-0.21-0.48-0.48v-0.34c0-0.62-0.51-1.14-1.14-1.14
		h-0.35c-0.62,0-1.14,0.51-1.14,1.14v0.5c0,2.05,4.4,1.74,4.4,5.2v0.51c0,1.52-1.23,2.77-2.77,2.77H127.63z"/>
	<path d="M136.21,31.42c-1.52,0-2.77-1.23-2.77-2.77v-6.21c0-1.52,1.25-2.77,2.77-2.77h0.5c1.54,0,2.79,1.25,2.79,2.77v0.34
		c0,0.27-0.21,0.48-0.48,0.48h-0.67c-0.27,0-0.48-0.21-0.48-0.48v-0.34c0-0.62-0.51-1.14-1.15-1.14h-0.5
		c-0.62,0-1.14,0.51-1.14,1.14v6.21c0,0.62,0.51,1.14,1.14,1.14h0.5c0.64,0,1.15-0.51,1.15-1.14v-0.51c0-0.27,0.21-0.48,0.48-0.48
		h0.67c0.27,0,0.48,0.21,0.48,0.48v0.51c0,1.54-1.25,2.77-2.79,2.77H136.21z"/>
	<path d="M146.6,31.25c-0.27,0-0.48-0.21-0.48-0.48v-4.4h-2.59v4.4c0,0.27-0.21,0.48-0.48,0.48h-0.67c-0.27,0-0.48-0.21-0.48-0.48
		V20.33c0-0.27,0.21-0.48,0.48-0.48h0.67c0.27,0,0.48,0.21,0.48,0.48v4.4h2.59v-4.4c0-0.27,0.21-0.48,0.48-0.48h0.67
		c0.27,0,0.48,0.21,0.48,0.48v10.44c0,0.27-0.21,0.48-0.48,0.48H146.6z"/>
</g>
<g>
	<path d="M152.96,31.42c-1.52,0-2.75-1.25-2.75-2.77v-8.32c0-0.27,0.21-0.48,0.48-0.48h0.66c0.27,0,0.48,0.21,0.48,0.48v8.32
		c0,0.62,0.51,1.14,1.14,1.14h0.35c0.62,0,1.14-0.51,1.14-1.14v-8.32c0-0.27,0.21-0.48,0.48-0.48h0.66c0.27,0,0.48,0.21,0.48,0.48
		v8.32c0,1.52-1.23,2.77-2.75,2.77H152.96z"/>
	<path d="M159.41,31.25c-0.27,0-0.48-0.21-0.48-0.48V20.33c0-0.27,0.21-0.48,0.48-0.48h0.67c0.27,0,0.48,0.21,0.48,0.48v9.28h3.42
		c0.27,0,0.48,0.21,0.48,0.48v0.67c0,0.27-0.21,0.48-0.48,0.48H159.41z"/>
</g>
<g>
	<path d="M167.34,31.25c-0.27,0-0.48-0.21-0.48-0.48V20.32c0-0.26,0.21-0.46,0.48-0.46h4.9c0.27,0,0.5,0.21,0.5,0.48V21
		c0,0.26-0.22,0.48-0.5,0.48h-3.75v3.25h3.41c0.27,0,0.5,0.21,0.5,0.48v0.67c0,0.27-0.22,0.48-0.5,0.48h-3.41v3.25h3.76
		c0.27,0,0.48,0.21,0.48,0.48v0.67c0,0.27-0.21,0.48-0.48,0.48H167.34z"/>
</g>
<g>
	<path d="M187.31,31.25c-0.27,0-0.48-0.21-0.48-0.48v-7.19c0-0.4,0.11-1.73,0.13-1.89h-0.37c-0.02,0.16-0.18,1.49-0.29,1.89
		l-0.82,2.79c-0.06,0.22-0.26,0.32-0.46,0.32h-0.83c-0.21,0-0.4-0.1-0.46-0.32l-0.82-2.79c-0.11-0.4-0.27-1.73-0.29-1.89h-0.37
		c0.02,0.16,0.13,1.49,0.13,1.89v7.19c0,0.27-0.21,0.48-0.48,0.48h-0.67c-0.29,0-0.48-0.21-0.48-0.48V20.33
		c0-0.27,0.21-0.48,0.48-0.48h1.84c0.21,0,0.4,0.11,0.45,0.3l0.91,3.76c0.08,0.3,0.16,1.07,0.18,1.25c0.02-0.18,0.1-0.94,0.18-1.25
		l0.91-3.76c0.05-0.19,0.24-0.3,0.45-0.3h1.84c0.27,0,0.48,0.21,0.48,0.48v10.44c0,0.27-0.21,0.48-0.48,0.48H187.31z"/>
	<path d="M196.84,30.77c0,0.27-0.21,0.48-0.48,0.48h-0.67c-0.27,0-0.48-0.21-0.48-0.48v-3.09h-3.27v3.09c0,0.27-0.19,0.48-0.46,0.48
		h-0.69c-0.27,0-0.48-0.21-0.48-0.48V26.8c0-0.02,0-0.05,0.02-0.1l1.71-6.5c0.06-0.24,0.26-0.35,0.48-0.35h2.11
		c0.22,0,0.42,0.11,0.48,0.35l1.71,6.5c0.02,0.05,0.02,0.08,0.02,0.1V30.77z M193.77,21.48h-0.38l-1.18,4.56h2.75L193.77,21.48z"/>
</g>
<g>
	<path d="M199.55,31.25c-0.27,0-0.48-0.21-0.48-0.48V30.1c0-0.27,0.21-0.48,0.48-0.48h1.81v-8.13h-1.63c-0.27,0-0.48-0.21-0.48-0.48
		v-0.67c0-0.27,0.21-0.48,0.48-0.48h4.9c0.27,0,0.48,0.21,0.48,0.48V21c0,0.27-0.21,0.48-0.48,0.48h-1.63v8.13h1.81
		c0.27,0,0.48,0.21,0.48,0.48v0.67c0,0.27-0.21,0.48-0.48,0.48H199.55z"/>
	<path d="M212.21,31.25c-0.19,0-0.4-0.1-0.46-0.32l-2.16-7.35c-0.13-0.4-0.35-1.74-0.37-1.9h-0.38c0.02,0.16,0.14,1.5,0.14,1.9v7.19
		c0,0.27-0.21,0.48-0.48,0.48h-0.67c-0.27,0-0.48-0.21-0.48-0.48V20.33c0-0.27,0.22-0.48,0.5-0.48h1.84c0.19,0,0.4,0.08,0.46,0.3
		l2.16,7.35c0.13,0.42,0.35,1.76,0.37,1.92h0.38c-0.02-0.16-0.14-1.5-0.14-1.92v-7.17c0-0.27,0.21-0.48,0.48-0.48h0.67
		c0.27,0,0.48,0.21,0.48,0.48v10.44c0,0.27-0.21,0.48-0.48,0.48H212.21z"/>
</g>
<g>
	<path d="M217.17,31.25c-0.27,0-0.48-0.21-0.48-0.48v-0.58c0-0.27,0.03-0.34,0.13-0.54l3.79-8.16h-3.26c-0.27,0-0.5-0.21-0.5-0.48
		v-0.67c0-0.27,0.21-0.48,0.48-0.48h4.74c0.27,0,0.48,0.21,0.48,0.48v0.66c0,0.03-0.02,0.26-0.13,0.5l-3.79,8.13h3.78
		c0.27,0,0.48,0.21,0.48,0.48v0.67c0,0.27-0.21,0.48-0.48,0.48H217.17z"/>
</g>
<g>
	<path d="M96.21,46.2c0,1.22-0.99,2.22-2.2,2.22h-0.35c-1.22,0-2.2-1-2.2-2.22V38c0-0.04,0.03-0.07,0.07-0.07h0.35
		c0.04,0,0.07,0.03,0.07,0.07v8.21c0,0.94,0.77,1.72,1.71,1.72H94c0.94,0,1.71-0.78,1.71-1.72V38c0-0.04,0.03-0.07,0.07-0.07h0.35
		c0.04,0,0.07,0.03,0.07,0.07V46.2z"/>
	<path d="M103.51,48.16c0,0.04-0.04,0.09-0.09,0.09h-0.61c-0.06,0-0.07-0.03-0.09-0.06l-3.51-9.54v9.52c0,0.04-0.03,0.07-0.07,0.07
		H98.8c-0.04,0-0.07-0.03-0.07-0.07V38c0-0.04,0.04-0.07,0.09-0.07h0.62c0.04,0,0.07,0.03,0.09,0.07l3.49,9.51V38
		c0-0.04,0.04-0.07,0.07-0.07h0.35c0.04,0,0.07,0.03,0.07,0.07V48.16z"/>
	<path d="M105.86,47.83c0-0.04,0.03-0.07,0.07-0.07h2.23v-9.33h-2.06c-0.04,0-0.07-0.03-0.07-0.07V38c0-0.04,0.03-0.07,0.07-0.07
		h4.61c0.04,0,0.07,0.03,0.07,0.07v0.35c0,0.04-0.03,0.07-0.07,0.07h-2.06v9.33h2.23c0.04,0,0.07,0.03,0.07,0.07v0.35
		c0,0.04-0.03,0.07-0.07,0.07h-4.96c-0.04,0-0.07-0.03-0.07-0.07V47.83z"/>
	<path d="M116.09,48.18c-0.01,0.04-0.04,0.07-0.09,0.07h-0.59c-0.04,0-0.07-0.03-0.09-0.07l-2.2-10.16
		c-0.01-0.06,0.01-0.09,0.07-0.09h0.33c0.04,0,0.07,0.01,0.09,0.06l2.1,9.61l2.1-9.61c0.01-0.04,0.04-0.06,0.09-0.06h0.33
		c0.06,0,0.09,0.03,0.07,0.09L116.09,48.18z"/>
	<path d="M125.55,48.18c0,0.04-0.03,0.07-0.07,0.07h-4.62c-0.04,0-0.07-0.03-0.07-0.07V38c0-0.04,0.03-0.07,0.07-0.07h4.62
		c0.04,0,0.07,0.03,0.07,0.07v0.35c0,0.04-0.03,0.07-0.07,0.07h-4.2v4.41h3.87c0.04,0,0.07,0.03,0.07,0.07v0.35
		c0,0.04-0.03,0.07-0.07,0.07h-3.87v4.44h4.2c0.04,0,0.07,0.03,0.07,0.07V48.18z"/>
	<path d="M132.8,42.44c0,0.99-0.65,1.81-1.55,2.12l1.52,3.58c0.03,0.06-0.01,0.12-0.09,0.12h-0.35c-0.06,0-0.07-0.03-0.09-0.06
		l-1.49-3.55h-2.22v3.54c0,0.04-0.03,0.07-0.07,0.07h-0.35c-0.04,0-0.07-0.03-0.07-0.07V38c0-0.04,0.03-0.07,0.07-0.07h2.46
		c1.23,0,2.22,0.99,2.22,2.2V42.44z M132.31,40.13c0-0.96-0.77-1.71-1.72-1.71h-2.04v5.73h2.04c0.96,0,1.72-0.77,1.72-1.71V40.13z"
		/>
	<path d="M140.14,46.2c0,1.22-1,2.22-2.22,2.22h-0.67c-1.22,0-2.22-1-2.22-2.22v-0.17c0-0.04,0.03-0.07,0.07-0.07h0.36
		c0.04,0,0.07,0.03,0.07,0.07v0.17c0,0.94,0.77,1.72,1.71,1.72h0.67c0.94,0,1.71-0.78,1.71-1.72V45.7c0-2.75-4.42-2.25-4.42-5.25
		v-0.48c0-1.23,0.99-2.22,2.2-2.22h0.35c1.22,0,2.2,0.99,2.2,2.22v0.17c0,0.04-0.03,0.07-0.07,0.07h-0.33
		c-0.04,0-0.07-0.03-0.07-0.07v-0.17c0-0.96-0.78-1.72-1.72-1.72h-0.35c-0.94,0-1.73,0.77-1.73,1.72v0.48
		c0,1.45,1.48,2.03,2.52,2.61c1.07,0.58,1.93,1.26,1.93,2.64V46.2z"/>
	<path d="M142.33,47.83c0-0.04,0.03-0.07,0.07-0.07h2.23v-9.33h-2.06c-0.04,0-0.07-0.03-0.07-0.07V38c0-0.04,0.03-0.07,0.07-0.07
		h4.61c0.04,0,0.07,0.03,0.07,0.07v0.35c0,0.04-0.03,0.07-0.07,0.07h-2.06v9.33h2.23c0.04,0,0.07,0.03,0.07,0.07v0.35
		c0,0.04-0.03,0.07-0.07,0.07h-4.96c-0.04,0-0.07-0.03-0.07-0.07V47.83z"/>
	<path d="M154.87,38.35c0,0.04-0.03,0.07-0.07,0.07h-2.38v9.76c0,0.04-0.03,0.07-0.07,0.07H152c-0.04,0-0.07-0.03-0.07-0.07v-9.76
		h-2.38c-0.04,0-0.07-0.03-0.07-0.07V38c0-0.04,0.03-0.07,0.07-0.07h5.25c0.04,0,0.07,0.03,0.07,0.07V38.35z"/>
	<path d="M159.72,43.71v4.46c0,0.04-0.03,0.07-0.07,0.07h-0.35c-0.04,0-0.07-0.03-0.07-0.07v-4.46l-2.23-5.68
		c-0.03-0.07,0.01-0.1,0.09-0.1h0.35c0.04,0,0.07,0.01,0.09,0.04l1.96,5l1.96-5c0.01-0.03,0.04-0.04,0.09-0.04h0.35
		c0.07,0,0.12,0.03,0.09,0.1L159.72,43.71z"/>
</g>
<g>
	<path d="M173.62,46.2c0,1.23-0.99,2.22-2.22,2.22h-0.49c-1.23,0-2.22-0.99-2.22-2.22v-6.23c0-1.23,0.99-2.22,2.22-2.22h0.49
		c1.23,0,2.22,0.99,2.22,2.22V46.2z M173.12,39.97c0-0.96-0.77-1.72-1.72-1.72h-0.49c-0.96,0-1.72,0.77-1.72,1.72v6.23
		c0,0.96,0.77,1.72,1.72,1.72h0.49c0.96,0,1.72-0.77,1.72-1.72V39.97z"/>
	<path d="M181.14,38.35c0,0.04-0.03,0.07-0.07,0.07h-4.17v4.41h3.86c0.04,0,0.07,0.03,0.07,0.07v0.35c0,0.04-0.03,0.07-0.07,0.07
		h-3.86v4.86c0,0.04-0.03,0.07-0.07,0.07h-0.35c-0.04,0-0.07-0.03-0.07-0.07V38c0-0.04,0.03-0.07,0.07-0.07h4.59
		c0.04,0,0.07,0.03,0.07,0.07V38.35z"/>
</g>
<g>
	<path d="M96.21,65.18c0,0.04-0.03,0.07-0.07,0.07h-0.35c-0.04,0-0.07-0.03-0.07-0.07v-3.54h-3.77v3.54c0,0.04-0.03,0.07-0.07,0.07
		h-0.35c-0.04,0-0.07-0.03-0.07-0.07v-3.83l1.68-6.36c0.01-0.04,0.04-0.06,0.09-0.06h1.22c0.04,0,0.07,0.01,0.09,0.06l1.68,6.36
		V65.18z M94.13,55.43h-0.61l-1.51,5.73h3.62L94.13,55.43z"/>
	<path d="M103.92,59.44c0,1.2-0.99,2.2-2.22,2.2h-2.04v3.54c0,0.04-0.03,0.07-0.07,0.07h-0.35c-0.04,0-0.07-0.03-0.07-0.07V55.01
		c0-0.04,0.03-0.07,0.07-0.07h2.46c1.23,0,2.22,0.99,2.22,2.2V59.44z M103.43,57.14c0-0.96-0.77-1.71-1.73-1.71h-2.04v5.73h2.04
		c0.96,0,1.73-0.77,1.73-1.71V57.14z"/>
</g>
<g>
	<path d="M111.21,59.44c0,1.2-0.99,2.2-2.22,2.2h-2.04v3.54c0,0.04-0.03,0.07-0.07,0.07h-0.35c-0.04,0-0.07-0.03-0.07-0.07V55.01
		c0-0.04,0.03-0.07,0.07-0.07h2.46c1.23,0,2.22,0.99,2.22,2.2V59.44z M110.72,57.14c0-0.96-0.77-1.71-1.73-1.71h-2.04v5.73h2.04
		c0.96,0,1.73-0.77,1.73-1.71V57.14z"/>
</g>
<g>
	<path d="M118.4,65.18c0,0.04-0.03,0.07-0.07,0.07h-4.26c-0.04,0-0.09-0.04-0.09-0.09V55.01c0-0.04,0.03-0.07,0.07-0.07h0.35
		c0.04,0,0.07,0.03,0.07,0.07v9.76h3.86c0.04,0,0.07,0.03,0.07,0.07V65.18z"/>
	<path d="M120.45,64.84c0-0.04,0.03-0.07,0.07-0.07h2.23v-9.33h-2.06c-0.04,0-0.07-0.03-0.07-0.07v-0.35c0-0.04,0.03-0.07,0.07-0.07
		h4.61c0.04,0,0.07,0.03,0.07,0.07v0.35c0,0.04-0.03,0.07-0.07,0.07h-2.06v9.33h2.23c0.04,0,0.07,0.03,0.07,0.07v0.35
		c0,0.04-0.03,0.07-0.07,0.07h-4.96c-0.04,0-0.07-0.03-0.07-0.07V64.84z"/>
	<path d="M132.84,65.18c0,0.04-0.03,0.07-0.07,0.07h-4.62c-0.04,0-0.07-0.03-0.07-0.07V55.01c0-0.04,0.03-0.07,0.07-0.07h4.62
		c0.04,0,0.07,0.03,0.07,0.07v0.35c0,0.04-0.03,0.07-0.07,0.07h-4.2v4.41h3.87c0.04,0,0.07,0.03,0.07,0.07v0.35
		c0,0.04-0.03,0.07-0.07,0.07h-3.87v4.44h4.2c0.04,0,0.07,0.03,0.07,0.07V65.18z"/>
	<path d="M140.09,63.04c0,1.23-0.99,2.22-2.22,2.22h-2.46c-0.04,0-0.07-0.04-0.07-0.09V55.01c0-0.04,0.03-0.07,0.07-0.07h2.46
		c1.23,0,2.22,0.99,2.22,2.2V63.04z M139.6,57.14c0-0.94-0.77-1.71-1.72-1.71h-2.04v9.33h2.04c0.96,0,1.72-0.77,1.72-1.72V57.14z"/>
</g>
<g>
	<path d="M152.4,63.21c0,1.22-1,2.22-2.22,2.22h-0.67c-1.22,0-2.22-1-2.22-2.22v-0.17c0-0.04,0.03-0.07,0.07-0.07h0.36
		c0.04,0,0.07,0.03,0.07,0.07v0.17c0,0.94,0.77,1.72,1.71,1.72h0.67c0.94,0,1.71-0.78,1.71-1.72v-0.51c0-2.75-4.42-2.25-4.42-5.25
		v-0.48c0-1.23,0.99-2.22,2.2-2.22h0.35c1.22,0,2.2,0.99,2.2,2.22v0.17c0,0.04-0.03,0.07-0.07,0.07h-0.33
		c-0.04,0-0.07-0.03-0.07-0.07v-0.17c0-0.96-0.78-1.72-1.72-1.72h-0.35c-0.94,0-1.73,0.77-1.73,1.72v0.48
		c0,1.45,1.48,2.03,2.52,2.61c1.07,0.58,1.93,1.26,1.93,2.64V63.21z"/>
	<path d="M159.69,63.21c0,1.22-1,2.22-2.22,2.22h-0.51c-1.22,0-2.2-1-2.2-2.22v-6.23c0-1.23,0.99-2.22,2.2-2.22h0.51
		c1.22,0,2.22,0.99,2.22,2.22v0.16c0,0.04-0.04,0.09-0.09,0.09h-0.33c-0.04,0-0.09-0.04-0.09-0.09v-0.16c0-0.96-0.77-1.72-1.71-1.72
		h-0.51c-0.94,0-1.71,0.77-1.71,1.72v6.23c0,0.94,0.77,1.72,1.71,1.72h0.51c0.94,0,1.71-0.78,1.71-1.72v-0.33
		c0-0.04,0.04-0.09,0.09-0.09h0.33c0.04,0,0.09,0.04,0.09,0.09V63.21z"/>
</g>
<g>
	<path d="M162.18,64.84c0-0.04,0.03-0.07,0.07-0.07h2.23v-9.33h-2.06c-0.04,0-0.07-0.03-0.07-0.07v-0.35c0-0.04,0.03-0.07,0.07-0.07
		h4.61c0.04,0,0.07,0.03,0.07,0.07v0.35c0,0.04-0.03,0.07-0.07,0.07h-2.06v9.33h2.23c0.04,0,0.07,0.03,0.07,0.07v0.35
		c0,0.04-0.03,0.07-0.07,0.07h-4.96c-0.04,0-0.07-0.03-0.07-0.07V64.84z"/>
	<path d="M174.58,65.18c0,0.04-0.03,0.07-0.07,0.07h-4.62c-0.04,0-0.07-0.03-0.07-0.07V55.01c0-0.04,0.03-0.07,0.07-0.07h4.62
		c0.04,0,0.07,0.03,0.07,0.07v0.35c0,0.04-0.03,0.07-0.07,0.07h-4.2v4.41h3.87c0.04,0,0.07,0.03,0.07,0.07v0.35
		c0,0.04-0.03,0.07-0.07,0.07h-3.87v4.44h4.2c0.04,0,0.07,0.03,0.07,0.07V65.18z"/>
	<path d="M181.71,65.17c0,0.04-0.04,0.09-0.09,0.09h-0.61c-0.06,0-0.07-0.03-0.09-0.06l-3.51-9.54v9.52c0,0.04-0.03,0.07-0.07,0.07
		H177c-0.04,0-0.07-0.03-0.07-0.07V55.01c0-0.04,0.04-0.07,0.09-0.07h0.62c0.04,0,0.07,0.03,0.09,0.07l3.49,9.51v-9.51
		c0-0.04,0.04-0.07,0.07-0.07h0.35c0.04,0,0.07,0.03,0.07,0.07V65.17z"/>
	<path d="M189.17,63.21c0,1.22-1,2.22-2.22,2.22h-0.51c-1.22,0-2.2-1-2.2-2.22v-6.23c0-1.23,0.99-2.22,2.2-2.22h0.51
		c1.22,0,2.22,0.99,2.22,2.22v0.16c0,0.04-0.04,0.09-0.09,0.09h-0.33c-0.04,0-0.09-0.04-0.09-0.09v-0.16c0-0.96-0.77-1.72-1.71-1.72
		h-0.51c-0.94,0-1.71,0.77-1.71,1.72v6.23c0,0.94,0.77,1.72,1.71,1.72h0.51c0.94,0,1.71-0.78,1.71-1.72v-0.33
		c0-0.04,0.04-0.09,0.09-0.09h0.33c0.04,0,0.09,0.04,0.09,0.09V63.21z"/>
	<path d="M196.46,65.18c0,0.04-0.03,0.07-0.07,0.07h-4.62c-0.04,0-0.07-0.03-0.07-0.07V55.01c0-0.04,0.03-0.07,0.07-0.07h4.62
		c0.04,0,0.07,0.03,0.07,0.07v0.35c0,0.04-0.03,0.07-0.07,0.07h-4.2v4.41h3.87c0.04,0,0.07,0.03,0.07,0.07v0.35
		c0,0.04-0.03,0.07-0.07,0.07h-3.87v4.44h4.2c0.04,0,0.07,0.03,0.07,0.07V65.18z"/>
	<path d="M203.75,63.21c0,1.22-1,2.22-2.22,2.22h-0.67c-1.22,0-2.22-1-2.22-2.22v-0.17c0-0.04,0.03-0.07,0.07-0.07h0.36
		c0.04,0,0.07,0.03,0.07,0.07v0.17c0,0.94,0.77,1.72,1.71,1.72h0.67c0.94,0,1.71-0.78,1.71-1.72v-0.51c0-2.75-4.42-2.25-4.42-5.25
		v-0.48c0-1.23,0.99-2.22,2.2-2.22h0.35c1.22,0,2.2,0.99,2.2,2.22v0.17c0,0.04-0.03,0.07-0.07,0.07h-0.33
		c-0.04,0-0.07-0.03-0.07-0.07v-0.17c0-0.96-0.78-1.72-1.72-1.72h-0.35c-0.94,0-1.73,0.77-1.73,1.72v0.48
		c0,1.45,1.48,2.03,2.52,2.61c1.07,0.58,1.93,1.26,1.93,2.64V63.21z"/>
</g>
</svg>
