<svg xmlns="http://www.w3.org/2000/svg" id="Community-Cluster" viewBox="0 0 2357.888 2412.795">
  <defs>
    <style>
      .cls-1{stroke-linejoin:round}.cls-1,.cls-3,.cls-4{fill:#13294b}.cls-1,.cls-4,.cls-6,.cls-7{stroke:#13294b}.cls-1,.cls-4{stroke-width:3px}.cls-7,.cls-9{fill:#102a51}.cls-6{fill:none}.cls-4,.cls-6,.cls-7{stroke-miterlimit:10}.cls-6{stroke-linecap:round;stroke-width:19px}
    </style>
  </defs>
  <circle cx="1182.65" cy="1188.035" r="1156.551" style="fill:#fff"/>
  <rect width="465.642" height="618.857" x="1385.533" y="1403.711" class="cls-6" rx="3.87" ry="3.87"/>
  <path d="M1440.549 1463.886h357.118v489.317h-357.118zM1485.613 1550.089h268.033M1485.613 1612.921h212.941M1485.613 1675.754h249.896M1485.613 1738.586h268.033M1485.613 1801.419h212.941M1485.613 1864.251h249.896" class="cls-6"/>
  <rect width="558.242" height="407.422" x="452.801" y="1456.194" class="cls-6" rx="35" ry="35"/>
  <path d="M524.369 1568.229h357.773M524.369 1639.912H908.11M524.369 1711.595h304.865M524.369 1783.278h357.774" class="cls-6"/>
  <rect width="703.845" height="513.687" x="380" y="1403.062" class="cls-6" rx="54" ry="54"/>
  <path d="M785.486 685.681s143.284-61.606 297.538 4.971l2.05-122.686c-2.645-1.277-157.33-78.618-297.538-4.971l-2.05 122.686ZM1056.517 1006.7c104.644 31.807 175.542 93.858 174.369 164.033" class="cls-6"/>
  <circle cx="867.762" cy="826.996" r="11.54" class="cls-7"/>
  <circle cx="991.321" cy="829.06" r="11.54" class="cls-7"/>
  <path d="M933.866 979.075c-13.489-.225-27.079-2.753-38.248-7.497-4.57-1.939-6.703-7.217-4.76-11.785 1.938-4.578 7.229-6.693 11.789-4.765 16.947 7.194 41.715 8.152 58.902 2.249 4.7-1.634 9.807.892 11.424 5.591 1.612 4.698-.893 9.811-5.587 11.418-9.949 3.408-21.694 4.986-33.519 4.788Z" class="cls-7"/>
  <circle cx="865.989" cy="829.213" r="49.418" class="cls-6"/>
  <circle cx="993.42" cy="831.342" r="49.418" class="cls-6"/>
  <path d="m1041.222 814.01 32.182-23.609M820.069 807.394 785.7 781.777" class="cls-6"/>
  <path d="M1074.26 687.084c-130.142-52.278-250.558-15.453-281.209-4.318-32.407 52.795-47.853 134.29-49.089 169.372-1.743 49.47 42.609 83.21 42.609 83.21l-2.025-153.114s81.491-31.986 121.313-58.103 52.659-40.081 52.659-40.081 60.188 75.051 124.263 106.054l-4.69 143.698s47.119-22.129 43.136-112.944c-2.271-51.772-22.589-99.14-46.966-133.774Z" class="cls-1"/>
  <path d="M813.978 676.026c-40.24 49.349-37.191 257.269-14.641 304.316 24.265 49.761 76.491 78.239 130.001 79.97 54.346 1.744 108.205-17.433 133.31-68.043 22.947-44.755 33.619-234.374-1.26-310.083-104.696-37.621-201.274-19.441-247.41-6.16ZM806.92 1007.598c-116.418 40.939-197.002 126.429-198.675 226.544" class="cls-6"/>
  <path d="M187.382 899.425c-5.703 0-10.326-4.623-10.326-10.326 0-98.931 76.662-189.743 200.068-236.997 5.326-2.041 11.298.625 13.336 5.95 2.039 5.326-.625 11.296-5.951 13.335-115.223 44.122-186.802 127.545-186.802 217.712 0 5.704-4.624 10.326-10.326 10.326ZM775.16 881.842c-5.703 0-10.326-4.623-10.326-10.326 0-93.207-27.432-160.35-143.979-203.536-5.348-1.981-8.076-7.922-6.095-13.271 1.981-5.349 7.925-8.075 13.271-6.095 124.86 46.266 157.456 120.831 157.456 222.901 0 5.704-4.624 10.326-10.326 10.326Z" class="cls-3"/>
  <circle cx="435.387" cy="456.139" r="11.589" class="cls-3"/>
  <circle cx="548.475" cy="456.139" r="11.589" class="cls-3"/>
  <path d="M504.312 593.968c-13.548 0-27.236-2.31-38.53-6.886a9.024 9.024 0 0 1-4.978-11.754c1.869-4.629 7.146-6.842 11.757-4.982 17.136 6.939 42.022 7.486 59.18 1.27 4.691-1.72 9.862.731 11.564 5.423 1.697 4.69-.732 9.866-5.418 11.559-9.932 3.589-21.699 5.37-33.576 5.37Z" class="cls-3"/>
  <path d="M501.727 725.064c-1.191 0-2.376-.008-3.577-.028-61.439-.96-115.701-33.213-141.613-84.169-21.146-42.294-23.014-78.529-25.176-120.486-.234-4.551-.474-9.199-.742-13.959-17.834-4.027-30.43-19.248-33.764-41.716-4.525-30.475 8.836-68.734 38.102-82.135 3.378-35.663 8.05-79.122 34.586-104.774 31.727-30.766 89.301-30.766 123.701-30.766 39.29 0 95.365 3.52 128.567 33.956 25.507 23.255 36.972 57.53 34.941 104.626 22.092 13.288 38.848 39.948 42.606 68.683 6.37 39.796-21.452 59.064-37.301 67.511 4.447 50.348 4.255 75.039-21.07 126.537-23.219 48.839-73.88 76.719-139.26 76.721Zm-8.484-457.382c-31.27 0-83.605 0-109.335 24.951-21.702 20.979-25.546 61.723-28.636 94.462l-1.016 10.697-6.623 2.011c-22.294 6.768-33.888 38.038-30.35 61.87 1.395 9.396 6.254 25.16 23.128 25.16h9.691l.614 9.672c.502 7.901.893 15.48 1.271 22.813 2.127 41.277 3.808 73.88 22.992 112.25 22.401 44.053 69.733 71.98 123.493 72.821 58.654.849 103.844-22.804 123.924-65.036 23.89-48.579 23.449-68.143 18.464-122.677l-.652-7.127 6.446-3.112c26.157-12.626 35.814-27.28 32.293-48.998l-.048-.332c-3.191-24.73-18.128-47.286-37.17-56.127l-6.437-2.989.483-7.08c2.991-43.868-6.134-74.839-27.898-94.681-27.916-25.588-78.791-28.546-114.632-28.546Z" class="cls-3"/>
  <path d="m345.859 389.426 95.908-57.143-9.14 54.838 118.467-63.399 12.29 65.917 80.862-46.81c.703-58.353-45.524-86.475-140.436-88.585-94.912-2.109-179.041 31.834-157.95 135.182Z" class="cls-3"/>
  <path d="M563.383 399.964a10.33 10.33 0 0 1-10.152-8.433l-9.704-52.049-106.029 56.742a10.328 10.328 0 0 1-15.059-10.802l5.479-32.87-76.776 45.744a10.325 10.325 0 0 1-15.403-6.806c-8.278-40.563-1.831-73.875 19.162-99.008 35.159-42.097 100.484-49.659 149.136-48.562 50.027 1.111 86.439 9.214 111.318 24.768 26.415 16.515 39.609 41.501 39.214 74.263a10.323 10.323 0 0 1-5.152 8.812l-80.862 46.81a10.314 10.314 0 0 1-5.173 1.39Zm-12.289-86.568a10.325 10.325 0 0 1 10.151 8.433l9.611 51.552 62.975-36.456c-1.416-31.438-19.504-69.896-130.253-72.358-62.337-1.369-109.504 13.23-132.826 41.154-14.298 17.12-20.018 39.619-17.074 67.025l82.803-49.334a10.325 10.325 0 0 1 15.471 10.569l-5.689 34.13 99.958-53.493a10.322 10.322 0 0 1 4.873-1.222Z" class="cls-3"/>
  <text style="font-family:PTSans-Regular,&quot;PT Sans&quot;;font-size:359.354px;letter-spacing:-.01em;fill:#13294b" transform="translate(1112.796 389.639)"><tspan x="0" y="0">?</tspan></text>
  <path d="M1859.23 710.74c-1.12 0-2.246-.009-3.375-.026-58.035-.907-109.29-31.373-133.767-79.51-11.603-23.205-19.38-84.52-18.942-149.165.239-35.164 3.601-120.4 29.599-152.327 39.122-48.044 80.062-54.667 118.476-54.667 52.621 0 90.395 11.133 115.468 34.033 33.744 28.862 41.165 115.142 42.583 164.05 2.022 69.787-5.757 139.236-18.496 165.135-21.934 46.139-69.784 72.477-131.548 72.477Zm-8.008-416.092c-32.708 0-67.626 3.663-103.275 47.442-33.926 41.663-30.304 236.388-8.355 280.287 21.143 41.582 65.821 67.942 116.567 68.735 55.314.902 98.02-21.52 116.971-61.384 11.18-22.735 18.425-91.222 16.547-156.033-2.221-76.655-15.61-132.652-35.816-149.793l-.283-.25c-21.291-19.517-54.771-29.004-102.356-29.004Z" class="cls-3"/>
  <path d="M1561.491 876.679c-5.414 0-9.802-4.389-9.802-9.802 0-93.912 72.772-180.115 189.916-224.97 5.048-1.935 10.723.592 12.658 5.649 1.937 5.056-.592 10.724-5.648 12.659-109.376 41.881-177.322 121.069-177.322 206.662 0 5.413-4.388 9.802-9.802 9.802ZM2162.125 876.679c-5.414 0-9.802-4.389-9.802-9.802 0-88.475-68.727-168.903-179.359-209.897-5.075-1.881-7.665-7.521-5.785-12.597a9.799 9.799 0 0 1 12.597-5.785c118.524 43.918 192.152 131.389 192.152 228.279 0 5.413-4.388 9.802-9.802 9.802Z" class="cls-3"/>
  <circle cx="1793.602" cy="463.838" r="11" class="cls-9"/>
  <circle cx="1900.95" cy="463.838" r="11" class="cls-9"/>
  <path d="M1859.029 594.671c-12.86 0-25.854-2.193-36.575-6.537a8.566 8.566 0 0 1-4.725-11.157c1.774-4.394 6.784-6.495 11.16-4.729 16.267 6.587 39.89 7.106 56.177 1.206 4.453-1.633 9.362.694 10.977 5.147a8.567 8.567 0 0 1-5.143 10.972c-9.428 3.407-20.597 5.098-31.872 5.098Z" class="cls-9"/>
  <path d="M2058.393 406.809c0-17.415-14.118-31.533-31.533-31.533-.132 0-.259.018-.391.02-.06-.216-.106-.437-.169-.652 8.22-5.33 13.671-14.569 13.671-25.096 0-11.934-7.006-22.205-17.115-27.003 2.088-4.084 3.456-8.111 3.456-11.662 0-20.892-16.937-37.829-37.829-37.829a37.65 37.65 0 0 0-17.653 4.383c-3.31-13.232-11.904-38.069-39.114-38.722-11.764-.282-22.144 5.933-28.318 14.965-2.968-11.125-13.071-19.332-25.132-19.332-.794 0-1.578.044-2.355.114-6.735-11.231-18.991-18.772-33.04-18.772-13.626 0-25.573 7.09-32.427 17.763a25.992 25.992 0 0 0-5.965-.709c-14.396 0-26.065 11.67-26.065 26.066 0 .187.024.368.028.553a31.933 31.933 0 0 0-4.076 1.722c-5.19-6.966-13.465-11.498-22.82-11.498-15.724 0-28.473 12.747-28.473 28.472 0 1.484.148 2.93.368 4.352a37.005 37.005 0 0 0-11.685 10.406 28.383 28.383 0 0 0-9.134-1.524c-15.724 0-28.473 12.747-28.473 28.472 0 7.111 2.638 13.583 6.953 18.567-20.676.996-37.146 18.024-37.146 38.946 0 20.057 15.131 36.561 34.597 38.771a37.352 37.352 0 0 0 5.869 6.497c-13.156 2.512-23.106 14.062-23.106 27.951 0 15.725 12.747 28.472 28.472 28.472s28.472-12.747 28.472-28.472c0-7.295-2.767-13.928-7.279-18.966 19.278-1.216 34.548-17.191 34.548-36.775 0-8.107-2.646-15.579-7.079-21.667a32.413 32.413 0 0 0 2.382-7.212c6.259 4.049 13.704 6.425 21.714 6.425 17.401 0 32.169-11.115 37.701-26.616 7.081 6.368 16.429 10.259 26.709 10.259 18.852 0 34.619-13.037 38.887-30.575 6.031 5.435 13.99 8.772 22.748 8.772 11.663 0 35.677-20.207 38.414-23.95 2.762 4.841 2.991 20.898 2.991 28.019 0 11.295 9.156 20.452 20.451 20.452 9.345 0 11.659-.793 15.219-1.172-7.046 3.939-11.61 12.335-11.61 27.638 0 17.782 12.583 32.62 29.329 36.111-4.284 5.091-6.873 11.654-6.873 18.828 0 16.168 13.106 29.274 29.274 29.274s29.274-13.106 29.274-29.274c0-.948-.059-1.881-.147-2.805 13.506-3.565 23.477-15.83 23.477-30.456Z" class="cls-3"/>
  <path d="M1689.788 488.77c-21.105 0-38.274-17.17-38.274-38.275 0-11.045 4.742-21.173 12.448-28.231-17.67-7.453-29.808-24.916-29.808-44.987 0-21.008 13.254-38.988 32.035-45.837a38.01 38.01 0 0 1-1.842-11.676c0-21.104 17.169-38.274 38.274-38.274 1.859 0 3.714.138 5.556.413a46.332 46.332 0 0 1 5.1-4.513c.358-20.798 17.387-37.606 38.268-37.606 6.997 0 13.815 1.961 19.709 5.514 5.347-13.101 18.226-22.356 33.225-22.356.513 0 1.028.011 1.543.035 9.132-10.801 22.495-17.089 36.849-17.089 15.182 0 29.086 6.922 38.201 18.768 9.718.764 18.53 5.46 24.603 12.68 7.579-5.621 16.79-8.651 26.274-8.422 15.21.365 34.634 7.146 45.196 35.713a47.553 47.553 0 0 1 11.335-1.377c26.264 0 47.632 21.367 47.632 47.632 0 2.481-.381 5.061-1.156 7.779 9.207 7.449 14.816 18.803 14.816 30.886a39.59 39.59 0 0 1-5.316 19.861c14.018 6.621 23.739 20.897 23.739 37.4 0 16.116-9.373 30.524-23.534 37.278-2.018 19.667-18.681 35.058-38.873 35.058-21.547 0-39.076-17.53-39.076-39.076 0-4.685.848-9.305 2.468-13.64-14.967-7.935-24.924-23.732-24.924-41.299 0-6.374.714-12.024 2.133-16.935-14.768-1.99-26.194-14.678-26.194-29.983 0-3.471-.059-6.45-.155-9.001-9.702 7.297-22.156 14.734-31.449 14.734a43.59 43.59 0 0 1-18.026-3.898c-8.594 15.597-25.085 25.701-43.607 25.701a49.626 49.626 0 0 1-23.079-5.683c-9.122 13.532-24.543 22.039-41.331 22.039a49.67 49.67 0 0 1-9.212-.86 46.43 46.43 0 0 1 1.997 13.511c0 19.492-12.099 36.396-29.352 43.314a38.07 38.07 0 0 1 2.083 12.426c0 21.105-17.169 38.275-38.274 38.275Zm12.832-187.675c-10.294 0-18.67 8.375-18.67 18.67 0 5.688 2.481 9.747 4.562 12.152a9.804 9.804 0 0 1-6.94 16.206c-15.597.751-27.815 13.557-27.815 29.155 0 14.874 11.134 27.356 25.901 29.031a9.8 9.8 0 0 1 6.884 4.06 27.562 27.562 0 0 0 4.325 4.792 9.804 9.804 0 0 1-4.608 17.013c-8.774 1.675-15.141 9.381-15.141 18.322 0 10.295 8.376 18.671 18.67 18.671s18.67-8.376 18.67-18.671c0-4.573-1.696-8.985-4.778-12.426a9.802 9.802 0 0 1 6.685-16.323c14.222-.897 25.363-12.753 25.363-26.992 0-5.727-1.798-11.224-5.2-15.898a9.8 9.8 0 0 1-.946-9.941 22.642 22.642 0 0 0 1.654-5.032 9.802 9.802 0 0 1 14.921-6.237 30.12 30.12 0 0 0 16.39 4.852c12.735 0 24.178-8.081 28.47-20.108a9.803 9.803 0 0 1 15.787-3.993 30.093 30.093 0 0 0 20.153 7.745 30.151 30.151 0 0 0 29.362-23.09 9.804 9.804 0 0 1 16.088-4.964c4.472 4.032 10.221 6.252 16.185 6.252 6.243 0 26.502-15.25 30.601-20.064a9.85 9.85 0 0 1 8.37-3.87 9.805 9.805 0 0 1 7.96 4.931c1.991 3.492 4.277 10.385 4.277 32.875 0 5.873 4.778 10.65 10.65 10.65 6.32 0 8.829-.37 11.257-.729.984-.145 1.913-.28 2.927-.388a9.794 9.794 0 0 1 10.376 6.778 9.8 9.8 0 0 1-4.558 11.525c-4.375 2.445-6.591 8.865-6.591 19.082 0 12.764 9.053 23.915 21.528 26.516a9.8 9.8 0 0 1 5.5 15.905c-2.99 3.555-4.572 7.884-4.572 12.518 0 10.737 8.736 19.472 19.472 19.472s19.474-8.735 19.474-19.472c0-.541-.033-1.136-.103-1.874a9.801 9.801 0 0 1 7.256-10.408c9.524-2.515 16.177-11.141 16.177-20.979 0-11.911-9.632-21.614-21.515-21.73a9.804 9.804 0 0 1-10.063-7.19l-.14-.546c-1.225-4.161.452-8.563 4.091-10.924 5.763-3.736 9.203-10.043 9.203-16.871 0-7.704-4.52-14.827-11.517-18.148a9.806 9.806 0 0 1-4.524-13.318c2.15-4.202 2.382-6.434 2.382-7.199 0-15.454-12.572-28.028-28.028-28.028a27.67 27.67 0 0 0-13.068 3.246 9.805 9.805 0 0 1-14.093-6.286c-6.9-27.581-20.335-31.073-29.841-31.301-7.788-.161-15.287 3.812-19.991 10.698a9.804 9.804 0 0 1-17.563-3.006c-1.893-7.098-8.334-12.055-15.66-12.055-.498 0-.99.031-1.474.075a9.784 9.784 0 0 1-9.287-4.722c-5.261-8.773-14.469-14.011-24.633-14.011-9.81 0-18.848 4.957-24.18 13.258a9.79 9.79 0 0 1-10.489 4.245 16.334 16.334 0 0 0-3.724-.449c-8.9 0-16.152 7.186-16.261 16.061.011.193.019.373.023.554a9.8 9.8 0 0 1-6.616 9.473c-.969.332-1.922.735-2.835 1.197a9.8 9.8 0 0 1-12.285-2.89c-3.576-4.8-9.029-7.553-14.96-7.553-10.294 0-18.67 8.376-18.67 18.671 0 .834.08 1.74.253 2.853a9.802 9.802 0 0 1-4.872 10.037c-3.375 1.902-6.264 4.478-8.59 7.656a9.8 9.8 0 0 1-11.056 3.495 18.637 18.637 0 0 0-5.988-1.005ZM1428.331 1209.485c-1.225 0-2.441-.01-3.677-.029-63.203-1.031-119.023-35.648-145.68-90.344-12.636-26.367-21.105-96.037-20.628-169.491.26-39.955 3.922-136.806 32.236-173.083 42.605-54.59 87.192-62.115 129.028-62.115 57.31 0 98.447 12.649 125.756 38.671 36.747 32.795 44.829 130.83 46.372 186.403 2.202 79.296-6.267 158.208-20.141 187.637-23.885 52.422-76.007 82.349-143.265 82.352Zm-8.721-472.788c-35.623 0-73.65 4.162-112.472 53.905-36.948 47.339-33.005 268.598-9.1 318.479 23.026 47.248 71.683 77.2 126.948 78.1 60.31.973 106.752-24.454 127.391-69.747 12.176-25.834 20.064-103.653 18.018-177.295-2.419-87.1-16.999-150.728-39.003-170.205l-.309-.283c-23.187-22.175-59.651-32.955-111.474-32.955Z" class="cls-3"/>
  <circle cx="1352.143" cy="950.939" r="12.499" class="cls-9"/>
  <circle cx="1474.119" cy="950.939" r="12.499" class="cls-9"/>
  <path d="M1426.485 1101.81c-14.612 0-29.377-2.492-41.558-7.427-4.984-2.017-7.389-7.694-5.369-12.677 2.016-4.993 7.708-7.38 12.681-5.374 18.483 7.485 45.325 8.074 63.832 1.37 5.06-1.855 10.637.789 12.473 5.849 1.831 5.059-.79 10.641-5.844 12.467-10.713 3.871-23.404 5.792-36.215 5.792Z" class="cls-9"/>
  <circle cx="1423.985" cy="648.647" r="65.776" class="cls-4"/>
  <path d="M1423.453 718.324s-156.363-7.667-178.084 121.212c0 0 1.591 55.21 17.086 98.198 0 0 148.276-123.539 161.529-156.121 0 0 75.037 109.923 160.353 117.59 0 0 30.956-192.038-160.885-180.879Z" class="cls-4"/>
  <path d="M1117.751 1265.622c81.156-102.3 156.043-103.177 182.902-113.462M1554.549 1148.568c70.689 26.193 128.336 68.055 164.084 119.209M1562.061 2134.652h389.93" class="cls-6"/>
  <path d="m824.745 2299.846-44.15-391.542c0-89.658 82.175-163.015 182.611-163.015h437.366c100.436 0 182.611 73.357 182.611 163.015l-44.15 391.542" style="stroke-linecap:round;stroke-width:19px;stroke-miterlimit:10;fill:#fff;stroke:#13294b"/>
  <text style="font-size:380.771px;letter-spacing:-.01em;font-family:PTSans-Regular,&quot;PT Sans&quot;;fill:#13294b" transform="translate(1116.022 2154.435)"><tspan x="0" y="0">!</tspan></text>
  <path d="M1381.364 1745.289c-.069-120.09-17.625-239.05-57.783-273.119-39.212-35.945-98.774-43.141-148.878-43.141-46.837 0-99.499 5.925-151.465 69.744-28.149 34.568-39.212 140.095-38.244 246.517h396.37Z" class="cls-1"/>
  <path d="M391.146 2134.652h403.483" class="cls-6"/>
</svg>
