<svg xmlns="http://www.w3.org/2000/svg" id="Dienste" viewBox="0 0 2357.888 2485.539">
  <defs>
    <style>
      .cls-2{fill:none}.cls-3{fill:#182949}.cls-2{stroke:#13294b;stroke-linecap:round;stroke-miterlimit:10;stroke-width:19px}
    </style>
  </defs>
  <circle cx="1182.65" cy="1244.294" r="1156.551" style="fill:#fff"/>
  <path d="M329.975 793.658c0 22.582 18.311 40.881 40.907 40.881s40.907-18.298 40.907-40.881-18.324-40.88-40.907-40.88-40.907 18.298-40.907 40.88ZM472.138 793.658c0 22.582 18.311 40.881 40.907 40.881s40.907-18.298 40.907-40.881-18.324-40.88-40.907-40.88-40.907 18.298-40.907 40.88ZM614.303 793.658c0 22.582 18.311 40.881 40.907 40.881s40.907-18.298 40.907-40.881-18.324-40.88-40.907-40.88-40.907 18.298-40.907 40.88Z" class="cls-2"/>
  <path d="M756.679 667.128H313.93c-75.531 0-136.76 61.216-136.76 136.76v1100.494c0 75.544 61.229 136.76 136.76 136.76h1745.856c75.531 0 136.76-61.216 136.76-136.76V803.888c0-75.544-61.229-136.76-136.76-136.76h-433.111M183.646 926.558h707.428" class="cls-2"/>
  <path d="M1195.44 1605.393c5.799.091 17.423-1.92 25.939-4.493 55.182-4.088 111.984-63.567 126.847-132.868 12.721-34.415-2.769-94.116-34.572-133.364-18.429-22.713-30.902-36.466-56.984-48.756-68.256-32.169-143.238-1.241-148.724 1.241-15.895 4.989-43.649 28.303-62.013 52.087-14.537 15.177-29.06 51.734-32.443 81.656-1.829 10.762-.627 32.6 2.69 48.782 4.663 58.604 63.071 117.652 130.452 131.875 15.83 3.344 31.868 4.558 48.038 3.84m28.511-473.299c-1.437-7.066-8.45-12.695-15.66-12.551l-53.484.993c-7.21.131-13.897 6.034-14.915 13.165 1.162 25.547-1.972 47.359-7.014 48.73-22.047 6.126-54.464 17.645-72.396 25.704-1.711.927-5.159 2.913-7.706 4.441-2.913 5.146-11.089 4.193-18.259-2.142-5.59-4.95-17.88-13.818-27.454-19.813-5.433-2.259-15.32-8.764-22.099-14.524-2.586-3.278-7.719-2.965-11.454.718-10.044 10.814-31.189 32.339-47.228 48.09-4.271 2.534-4.65 8.685-.836 13.74 6.674 10.161 20.819 30.536 31.607 45.517 3.918 4.61 4.388 12.839 1.045 18.39-9.548 14.85-22.726 47.698-29.439 73.35-3.174 4.78-11.441 9.43-18.442 10.396-8.424 1.384-25.469 4.976-38.059 8.019-2.482-.34-7.654.483-11.585 1.842-3.709.274-7.131 4.846-7.641 10.2-.196 7.184-.457 21.877-.601 32.796.104 7.184-.209 21.864-.679 32.796-1.541 5.381 2.86 10.475 9.796 11.389 12.93 3.801 39.901 8.999 60.224 11.598 3.056 1.162 6.465 5.551 7.614 9.809 3.892 16.261 17.554 46.993 30.497 68.635 5.224 1.855 4.558 9.704-1.476 17.541-6.609 10.135-20.923 30.288-31.986 45.021-5.198 2.756-4.506 9.534 1.528 15.151 9.861 9.495 29.661 29.309 44.211 44.237 1.985 5.681 9.103 6.361 15.921 1.502 10.37-5.747 30.144-19.435 44.159-30.575 3.657-4.898 13.322-5.616 21.59-1.62 13.191 8.202 42.16 20.27 64.69 26.958 5.159-.549 10.122 5.564 11.049 13.649 2.129 18.298 9.182 40.227 11.507 49.161 1.28 4.924 8.15 9.325 15.347 9.822 20.257 1.398 52.975.823 59.283-.614 3.487-.784 7.092-5.159 8.059-9.756 3.239-11.663 7.954-34.781 10.553-51.629-.274-3.709 3.2-7.797 7.745-9.13 16.927-4.127 49.37-17.763 72.462-30.471 3.54-2.9 10.37-2.246 15.242 1.463 10.762 6.152 31.594 20.479 46.549 31.986 2.364 5.956 9.143 5.603 15.124-.771 9.273-10.632 29.818-30.706 45.896-44.838 4.362-2.86 5.002-9.378 1.45-14.563-10.357-15.033-21.224-29.726-31.176-45.047l-2.717-3.409c-1.489-1.881-2.155-6.034-1.489-9.286 2.56-3.761 8.659-15.399 13.622-25.978 5.433-9.365 13.766-29.596 18.612-45.191-.444-5.668 6.073-11.245 14.55-12.473 11.859-2.429 36.113-7.445 54.176-11.206 5.551 1.437 9.965-3.997 9.874-12.12 1.11-13.374.81-40.685-.679-61.007 3.579-4.48-.888-9.939-9.952-12.186-12.134-4.441-37.733-9.939-57.18-12.251-2.847.771-6.347-2.26-7.81-6.766-3.827-18.442-18.416-53.288-32.613-77.843-2.691-2.926-2.116-9.822 1.28-15.399 7.223-9.6 21.381-29.635 31.633-44.759 4.506-3.513 4.114-10.396-.862-15.36-10.475-10.566-32.012-32.038-48.103-47.985-3.357-2.939-9.103-2.9-12.839.078-10.84 6.765-31.908 21.903-47.071 33.814-3.566 4.075-11.193 4.584-17.057 1.136-10.187-5.394-31.686-14.994-48.012-21.433-6.256-2.481-24.28-6.948-27.467-7.876-1.776-.522-4.362-6.661-5.812-13.727-10.253-50.336-7.641-37.537-7.641-37.537ZM1429.027 601.078c34.298 26.605 100.229 79.384 116.751 190.257m-476.134-210.997c-129.642 140.339-146.203 60.015-135.258 15.007m363.079-346.309c-27.676-26.396-92.118-47.319-125.384-87.913-40.28 45.008-74.643 61.308-99.027 80.324-69.745 54.385-72.2 190.949-42.761 267.434 55.26 165.011 256.032 144.714 294.692 7.262 23.588-64.899 25.456-216.562-27.519-267.107ZM821.88 733.946c18.599-47.607 51.747-86.45 90.041-118.958 6.256-5.316 20.061-12.552 22.465-19.644 1.659-4.859 17.619-61.778 19.408-80.559 4.715-49.67-6.335-109.437-1.567-160.387 1.829-51.878 12.342-148.345 35.277-194.019 23.065-45.974 69.823-67.694 69.823-67.694 71.822-41.115 229.283-33.619 287.77 29.792 42.278 45.857 56.828 173.775 59.322 235.383 1.855 46.079-15.595 85.405-.091 143.356 15.503 57.951 71.038 105.336 70.228 108.248-4.493 16.156-164.906-61.216-169.412-48.103" class="cls-2"/>
  <path d="M1115.944 487.202c12.068 2.273 25.743 11.376 34.99 15.007 17.306 6.374 28.969 8.189 49.474 0 12.473-4.545 55.169-35.147 52.701-5.903-2.442 28.786-53.497 47.763-78.039 45.948-21.524-1.372-73.663-20.78-72.004-44.59.379-5.394 5.237-12.277 12.878-10.462Z" class="cls-2"/>
  <path d="M1115.517 336.941c16.457-2.155 19.461 22.948 6.217 25.965-23.575 5.381-23.483-23.705-6.217-25.965M1235.154 336.894c21.211-4.114 21.668 33.462-3.592 26.017-10.501-3.095-9.025-23.575 3.592-26.017" class="cls-3"/>
  <path d="M938.367 593.953c1.646-4.859 17.606-61.752 19.382-80.533 4.728-49.644-6.321-109.398-1.554-160.322 1.829-51.852 12.329-148.28 35.251-193.94 23.065-45.961 69.784-67.668 69.784-67.668 71.782-41.103 229.153-33.606 287.6 29.779 42.265 45.843 56.789 173.709 59.283 235.291 1.868 46.066-15.582 85.366-.078 143.291 15.49 57.925 70.986 105.309 70.176 108.222-4.493 16.143-165.141-41.311-169.308-48.09-4.153-6.765 14.602-26.592 19.839-45.204 23.562-64.86 25.429-216.47-27.519-267.003-27.65-26.383-92.066-47.293-125.306-87.874-40.254 44.995-74.591 61.281-98.975 80.285-69.693 54.372-72.161 190.884-42.735 267.329 10.109 30.171 39.339 71.443 39.339 71.443-129.564 140.274-146.125 59.988-135.18 14.994" class="cls-3"/>
  <path d="M1190.189 1037.626c240.803 0 436.023-195.207 436.023-436.023s-195.22-436.01-436.023-436.01S754.166 360.8 754.166 601.603s195.22 436.023 436.023 436.023ZM1483.437 926.558h706.671" class="cls-2"/>
  <path d="M165.885 56.677H2207.83v2389.964H165.885z" style="fill:none"/>
  <path d="M314.771 1234.331H683.57M314.771 1370.551H683.57M314.771 1506.772H683.57M314.771 1642.991H683.57M1694.452 1234.331h368.799M1694.452 1370.551h368.799M1694.452 1506.772h368.799M1694.452 1642.991h368.799" class="cls-2"/>
  <path d="M1183.788 1498.251c-30.471 0-55.182-24.724-55.182-55.234s24.711-55.195 55.182-55.195 55.182 24.724 55.182 55.195-24.711 55.234-55.182 55.234M1126.469 871.391c0 30.471 24.724 55.182 55.208 55.182s55.195-24.711 55.195-55.182-24.711-55.182-55.195-55.182-55.208 24.711-55.208 55.182M1183.01 1972.293c-30.471 0-55.182-24.724-55.182-55.208s24.711-55.195 55.182-55.195 55.182 24.711 55.182 55.195-24.711 55.208-55.182 55.208M1181.603 2223.358c-30.471 0-55.182-24.724-55.182-55.208s24.711-55.195 55.182-55.195 55.182 24.711 55.182 55.195-24.711 55.208-55.182 55.208M1181.603 2446.642c-30.471 0-55.182-24.724-55.182-55.208s24.711-55.195 55.182-55.195 55.182 24.711 55.182 55.195-24.711 55.208-55.182 55.208" class="cls-3"/>
</svg>
