<svg xmlns="http://www.w3.org/2000/svg" id="Helpdesk" viewBox="0 0 2545.922 2580.726">
  <defs>
    <style>
      .cls-5{fill:none;stroke:#13294b;stroke-linecap:round;stroke-miterlimit:10;stroke-width:19px}.cls-6{fill:#13294b}
    </style>
  </defs>
  <circle cx="1270.658" cy="1278.43" r="1156.551" style="fill:#fff"/>
  <path d="M1624.324 1119.169c-29.067-92.893-89.618-235.376-164.405-289.865-48.441-35.301-95.046 23.996-151.212 20.404-54.133-3.46-140.185-61.198-182.617-41.217-93.342 43.964-123.255 99.523-150.605 249.745l-5.956 34.799c-2.034 4.028-20.47 2.932-29.173 9.35-2.879 2.113-16.151 1.083-16.151 1.083s-12.031 5.718-.541-119.345c15.716-170.942 150.209-294.039 301.857-302.041 176.014-9.284 413.661 13.404 426.96 292.11.845 17.855-2.258 138.521 0 151.648l-27.443-4.807m-82.078 497.374c112.346 47.252 299.889 159.176 339.376 190.012m-956.533-692.406c-36.74 42.419-52.152 127.15-12.718 164.762 16.389 15.636 46.288 3.83 50.95 10.393 13.048 136.236 5.349 258.421 102.402 367.228 114.327 128.167 308.552 137.332 435.148 15.121 43.951-42.432 83.49-127.269 94.227-224.534 3.817-34.508 18.661-114.023 29.807-135.682 8.584-16.693 24.802-11.397 46.288-31.801 23.547-21.117 35.195-119.266-14.461-151.146m-991.755 700.529c130.161-159.096 348.25-189.088 378.216-201.013" class="cls-5"/>
  <path d="M1198.53 1462.689c13.074-9.02 26.518 10.05 38.642 15.465 22.622 10.103 39.46 9.284 64.751 2.087 17.155-4.886 74.774-50.382 71.525 15.399-3.183 64.777-89.037 78.459-110.933 76.068-28.182-3.064-80.004-25.052-77.838-78.63.502-12.15 8.611-26.769 13.853-30.388Z" class="cls-5"/>
  <path d="M1165.114 1177.019c6.313 6.339 5.639 28.05-.211 35.314-20.298 25.198-63.377-8.029-39.645-34.64 6.669-7.475 33.755-6.801 39.857-.674M1382.706 1212.334c-15.531-19.255-3.249-41.956 24.26-39.619 49.312 4.173 4.041 74.695-24.26 39.619" class="cls-6"/>
  <path d="M754.613 568.538c-200.881 153.88-330.435 396.216-330.435 668.807-.026 377.582 248.516 697.069 590.93 803.881l253.363 507.637 248.675-507.637c342.413-106.813 590.929-426.326 590.903-803.855.026-243.577-103.405-462.974-268.735-616.708" class="cls-5"/>
  <path d="M1629.839 1115.038c-29.067-92.906-89.618-235.376-164.405-289.865-48.441-35.301-95.046 23.996-151.212 20.404-54.133-3.46-140.185-61.211-182.617-41.217-93.342 43.964-123.254 99.523-150.605 249.744l-5.956 34.799c-2.034 4.015-20.47 2.919-29.173 9.337-2.879 2.126-16.151 1.083-16.151 1.083s-12.031 5.732-.541-119.332c15.715-170.956 150.209-294.039 301.843-302.042 176.014-9.284 413.661 13.404 426.96 292.097.858 17.868-2.245 138.521 0 151.648l-27.43-4.794" style="fill:#182949"/>
  <path d="M1054.377 70.987c-80.334 0-145.454 65.134-145.454 145.454v160.1c0 80.334 65.12 145.454 145.454 145.454l-49.669 125.394 223.213-125.394h275.893c80.334 0 145.468-65.12 145.468-145.454v-160.1c0-80.321-65.134-145.454-145.468-145.454h-449.437Z" class="cls-5"/>
  <text style="fill:#182949;font-family:PTSans-Regular,&quot;PT Sans&quot;;font-size:301.623px" transform="translate(1127.012 381.337)"><tspan x="0" y="0" style="letter-spacing:.071em">..</tspan><tspan x="171.919" y="0" style="letter-spacing:.005em">.</tspan><tspan x="237.971" y="0">!</tspan></text>
  <path d="M1596.763 1160.56c-1.202-4.622-33.663-20.351-40.953-38.589-9.376-23.481.608-44.915-5.111-64.024-3.79-12.718-43.33-31.141-49.299-73.52-2.219-15.808 7.554-49.18 5.718-51.676-1.822-2.483-31.972-8.307-44.796-24.445-13.246-16.68-15.214-39.513-13.193-59.666-3.447-4.081-55.585 29.331-70.958 30.467-18.489 1.36-35.934-13.246-42.498-10.512-21.698 9.033-30.335 42.168-73.533 50.131-36.608 6.735-63.773-11.978-75.765-9.944-10.856 1.822-27.945 29.503-47.609 36.502-23.019 8.214-46.671 4.913-70.363 4.701 18.027 49.378-6.458 108.094-61.885 119.874 17.102 32.989-4.318 51.227-8.294 78.749 0 0 3.42 58.676-33.478 21.87-87.835 26.531-147.818-67.564-84.362-131.799-84.137-46.196-84.93-156.917 10.142-187.411-12.308-26.941-1.189-66.23 21.328-85.234 23.837-20.126 71.908-15.055 80.44-23.481 13.602-13.457 5.613-57.976 49.458-74.101 33.848-12.454 66.203 5.916 80.36 2.285 7.131-1.836 17.353-23.124 33.359-31.906 16.508-9.073 61.423-28.75 80.651-36.489 70.152-28.196 77.019 4.609 124.166 31.471 8.848 5.032 21.302 4.596 30.771 9.06 9.324 4.398 19.677 18.727 24.696 19.215 16.204 1.571 37.73-29.49 93.646-9.627 44.849 15.927 46.526 59.362 61.594 68.554 4.966 3.024 26.043-2.747 40.094-.502 16.772 2.668 45.258 14.474 57.012 26.082 32.105 31.682 19.928 58.2 28.658 89.156 3.751 13.299 26.254 27.377 29.622 54.331 2.483 19.823-14.567 54.476-12.374 57.553 3.103 4.371 31.537 16.138 41.468 33.874 15.874 28.341 13.418 58.081-5.349 84.071-11.635 16.112-27.39 19.479-35.472 29.516-14.421 17.934-12.414 46.869-42.3 61.502-13.814 6.762-37.149 4.517-41.838 16.759 0 0-28.46 7.462-33.755-12.797" style="fill:#14294a"/>
</svg>
