<svg xmlns="http://www.w3.org/2000/svg" id="Koordinationsbüro" viewBox="0 0 2545.922 2580.726">
  <defs>
    <style>
      .cls-1{fill:#182949}.cls-3{fill:none;stroke:#13294b;stroke-linecap:round;stroke-miterlimit:10;stroke-width:19px}
    </style>
  </defs>
  <circle cx="1270.658" cy="1278.43" r="1156.551" style="fill:#fff"/>
  <path d="M703.164 808.116c54.517 23.107 215.004 28.127 252.476 191.994M416.515 537.5s-7.524-2.312-1.943-63.492c7.62-83.616 72.89-143.824 146.478-147.737 85.408-4.556 200.722 6.553 207.179 142.88.41 8.742-1.094 67.76 0 74.176m-4.542-1.066c31.985 10.26 26.39 65.995 13.968 77.213-10.425 9.987-18.291 7.388-22.464 15.555-5.404 10.589-12.614 49.483-14.46 66.365-5.212 47.581-24.393 89.088-45.721 109.842-61.44 59.771-155.685 55.297-211.16-7.401-47.089-53.218-43.354-112.988-49.688-179.626-2.271-3.215-16.772 2.558-24.721-5.089-21.506-20.671-9.399-70.441 13.229-87.255 4.227-3.147 13.174-2.613 14.159-4.569l2.887-17.032c13.27-73.478 27.785-100.662 73.082-122.168 20.589-9.768 62.343 18.469 88.609 20.165 27.265 1.765 49.879-27.252 73.383-9.973 36.281 26.65 65.667 96.339 79.772 141.786l9.125 2.189ZM212.14 1000.11c31.561-155.877 258.153-180.557 272.695-186.384" class="cls-3"/>
  <path d="M540.301 568.079c3.16 3.201 2.818 14.146-.109 17.812-10.165 12.709-31.753-4.049-19.864-17.47 3.352-3.776 16.909-3.434 19.974-.342M645.154 585.885c-7.771-9.713-1.628-21.164 12.135-19.987 24.68 2.12 2.025 37.676-12.135 19.987" class="cls-1"/>
  <path d="M562.749 705.293c5.034-3.434 10.192 3.817 14.857 5.883 8.701 3.844 15.172 3.53 24.899.794 6.594-1.861 28.743-19.153 27.498 5.855-1.231 24.625-34.229 29.824-42.656 28.921-10.835-1.177-30.754-9.535-29.919-29.892.192-4.624 3.297-10.178 5.322-11.56Z" class="cls-3"/>
  <path d="M757.803 535.461c-14.406-44.831-44.394-113.576-81.441-139.87-24.009-17.032-47.089 11.574-74.915 9.836-26.814-1.669-69.443-29.523-90.47-19.878-46.24 21.205-61.057 48.019-74.6 120.513l-2.955 16.786c-1.012 1.943-10.137 1.409-14.447 4.515-1.436 1.012-8.003.52-8.003.52s-5.965 2.763-.274-57.595c7.784-82.48 74.409-141.881 149.543-145.739 87.186-4.487 204.922 6.471 211.502 140.951.424 8.619-1.108 66.843 0 73.177l-13.585-2.312" class="cls-1"/>
  <path d="M2089.167 1806.453c20.767-16.17 28.114-69.744-19.782-94.287-3.625-1.861-17.005-10.042-17.73-11.259-4.487-7.388 6.047-29.482-2.462-38.743-2.353-1.655-9.043 2.914-11.41 4.132-17.292 8.947-43.751 29.564-60.55 34.954-5.472 1.751-8.427 2.763-13.27-1.108-10.342-8.263-9.672-61.015-17.839-62.657l-115.601 61.563c-32.232 5.199-4.87-31.534-15.199-46.131-26.171 15.678-51.836 32.656-78.157 48.046-2.531 1.477-8.455 5.212-14.666 9.248-6.868 4.46-14.077 9.289-17.402 11.847-21.93 16.868-21.219 50.632-.369 71.44 12.668 12.668 18.291 10.507 28.675 12.34 3.79 60.208 2.079 121.662 36.801 173.648 48.293 72.302 158.175 87.282 227.782 39.263 36.855-25.419 56.104-76.516 56.651-120.677.123-10.466 3.215-38.1 2.914-48.84-.164-5.718-.862-18.182 1.204-22.86.739-1.669 23.175-14.283 30.412-19.919Zm-372.455-92.44c-1.806-17.114-3.79-65.434-.725-82.398 1.71-9.412 18.551-60.715 58.225-78.458 55.735-31.055 189.695-30.07 246.032-.588 54.982 28.784 47.622 103.781 49.141 159.598m-62.726 304.926c100.128-3.967 163.237 20.357 205.209 83.274m-688.476 141.758c8.414-223.049 262.695-225.525 280.042-225.032" class="cls-3"/>
  <path d="M1826.102 1906.357c5.199 15.678 25.542 47.923 72.726 47.622 53.997-3.748 69.908-32.3 72.316-50.454l-74.71-15.733-70.332 18.565Z" class="cls-3"/>
  <path d="M1963.889 1776.156c-11.3 11.382-31.069-4.268-18.879-18.099 11.478-13.024 29.837 7.059 18.879 18.099M1838.133 1776.148c-12.422 12.545-30.877-5.869-18.907-18.14 11.752-12.066 29.851 7.087 18.907 18.14M2069.779 1705.262c-3.626-1.861-16.991-10.042-17.717-11.259-4.487-7.374 6.047-29.454-2.462-38.716-2.353-1.655-9.043 2.9-11.41 4.132-17.265 8.947-43.71 29.55-60.496 34.94-5.472 1.751-8.427 2.763-13.27-1.108-10.342-8.263-9.659-60.988-17.826-62.63l-115.533 61.535c-32.218 5.185-4.857-31.52-15.199-46.117-26.144 15.678-51.795 32.642-78.089 48.033-2.531 1.477-8.468 5.212-14.666 9.248-6.868 4.46-5.787 3.79-5.787 3.79-1.806-17.101-3.79-65.393-.711-82.357 1.696-9.412 18.523-60.687 58.184-78.417 55.694-31.041 189.572-30.07 245.868-.602 54.955 28.784 47.595 103.754 49.114 159.53" class="cls-1"/>
  <path d="M2191.452 813.929c32.054 24.871 93.698 74.204 109.144 177.862m-445.112-197.247c-121.183 131.183-136.669 56.104-126.436 14.023m339.416-323.738c-25.87-24.68-86.12-44.243-117.215-82.193-37.649 42.081-69.771 57.308-92.577 75.093-65.188 50.837-67.5 178.504-39.975 250.013 51.672 154.249 239.356 135.274 275.5 6.786 22.039-60.66 23.791-202.446-25.733-249.698Zm-444.592 453.306c17.388-44.503 48.375-80.825 84.177-111.21 5.855-4.966 18.756-11.738 21-18.359 1.546-4.542 16.471-57.76 18.141-75.312 4.405-46.432-5.924-102.304-1.464-149.926 1.71-48.498 11.533-138.68 32.97-181.377 21.574-42.984 65.284-63.287 65.284-63.287 67.144-38.442 214.334-31.424 269.002 27.854 39.537 42.861 53.136 162.443 55.461 220.039 1.751 43.08-14.57 79.84-.068 134.001 14.488 54.175 66.392 98.487 65.64 101.209-4.2 15.103-154.167-57.226-158.367-44.968" class="cls-3"/>
  <path d="M1898.772 707.471c11.286 2.121 24.064 10.63 32.71 14.036 16.17 5.951 27.074 7.648 46.254 0 11.656-4.255 51.576-32.861 49.264-5.527-2.285 26.91-50.016 44.653-72.959 42.957-20.11-1.286-68.854-19.426-67.308-41.685.356-5.048 4.898-11.478 12.039-9.782Z" class="cls-3"/>
  <path d="M1898.373 567.003c15.391-2.011 18.195 21.451 5.814 24.269-22.053 5.035-21.957-22.163-5.814-24.269M2010.213 566.957c19.837-3.844 20.261 31.288-3.365 24.324-9.809-2.9-8.427-22.039 3.365-24.324" class="cls-1"/>
  <path d="M1732.768 807.265c1.546-4.542 16.458-57.732 18.127-75.284 4.405-46.405-5.924-102.262-1.464-149.871 1.71-48.484 11.533-138.625 32.957-181.309 21.561-42.957 65.243-63.259 65.243-63.259 67.103-38.415 214.211-31.411 268.851 27.84 39.51 42.861 53.095 162.389 55.42 219.957 1.751 43.067-14.556 79.813-.068 133.961 14.474 54.148 66.351 98.432 65.598 101.168-4.2 15.09-154.386-38.62-158.271-44.955-3.885-6.334 13.639-24.858 18.537-42.259 22.04-60.646 23.777-202.363-25.719-249.603-25.856-24.666-86.065-44.216-117.147-82.152-37.622 42.054-69.73 57.281-92.508 75.052-65.161 50.823-67.459 178.436-39.961 249.917 9.453 28.196 36.774 66.775 36.774 66.775-121.128 131.129-136.601 56.077-126.368 14.023" class="cls-1"/>
  <path d="M368.259 2206.777c26.77-61.46 92.74-107.03 200.259-128.882m228.34-9.458c24.258 7.138 201.674 53.342 229.657 155.185m-385.31-551.96c-52.735 5.284-103.544 39.776-120.062 91.955-19.114 60.367-18.278 207.367 8.977 264.574 48.562 101.958 223.245 115.767 280.17 17.759 35.837-61.717 28.154-237.686.973-303.31-27.609-66.67-105.932-77.408-170.058-70.978Z" class="cls-3"/>
  <path d="M601.792 1970.214c5.292 13.797 16.58 53.515 79.275 48.361 63.219-8.204 67.586-36.932 69.614-53.026" class="cls-3"/>
  <path d="M615.335 1822.532c16.356 14.639-10.653 37.654-21.538 19.688-9.463-15.623 9.463-30.49 21.538-19.688M735.044 1841.112c-13.012 12.696-36.413-6.649-20.461-20.998 14.605-13.148 31.965 9.766 20.461 20.998" class="cls-1"/>
  <path d="M832.342 1952.361c5.582-50.906 1.163-97.721-8.537-144.645-9.686-50.03-3.489-136.122-166.753-135.342-158.996 7.757-149.296 108.2-149.296 155.111-5.814 36.459-7.675 84.505-1.71 130.308a295.471 295.471 0 0 0 1.149 7.757c-93.548-61.275-130.116-223.24-90.566-312.958 74.313-168.641 380.033-188.081 488.616-36.842 65.927 91.14 31.862 267.853-82.467 345.668 0 0 9.248-6.225 9.563-9.057" class="cls-1"/>
  <path d="m554.587 1276.305 619.308-.889M1269.954 1998.158v-623.179M1269.954 1178.006V556.482M1366.95 1275.413l613.794.889M1202.66 529.087 933.097 799.808M796.302 937.176l-268.89 270.039M1337.243 529.089l269.563 270.721M1743.601 937.179l268.891 270.039M1202.662 2022.538l-223.4-223.942M644.246 1460.365l-116.831-115.954M1337.243 2022.538l291.568-293.02M1892.857 1463.206l119.637-118.797" class="cls-3"/>
  <path d="M1212.117 1275.596c0 31.917 25.897 57.801 57.828 57.801s57.814-25.884 57.814-57.801-25.884-57.801-57.814-57.801-57.828 25.884-57.828 57.801M410.492 1275.596c0 31.917 25.897 57.801 57.828 57.801s57.814-25.884 57.814-57.801-25.884-57.801-57.814-57.801-57.828 25.884-57.828 57.801M1213.533 2095.517c0 31.917 25.897 57.801 57.828 57.801s57.814-25.884 57.814-57.801-25.884-57.801-57.814-57.801-57.828 25.884-57.828 57.801M2013.394 1276.186c0 31.917 25.897 57.801 57.828 57.801s57.814-25.884 57.814-57.801-25.884-57.801-57.814-57.801-57.828 25.884-57.828 57.801M1210.728 460.275c0 31.917 25.897 57.801 57.828 57.801s57.814-25.884 57.814-57.801-25.884-57.8-57.814-57.8-57.828 25.884-57.828 57.8" class="cls-1"/>
</svg>
