<svg xmlns="http://www.w3.org/2000/svg" id="Koordinationsbüro" viewBox="0 0 2545.922 2580.726">
  <defs>
    <clipPath id="clippath">
      <path d="M161.253 242.583h2302.274v1952.392H161.253z" class="cls-1"/>
    </clipPath>
    <clipPath id="clippath-1">
      <path d="M161.253 242.583h2302.274v1952.392H161.253z" class="cls-1"/>
    </clipPath>
    <style>
      .cls-1,.cls-2,.cls-3{fill:none}.cls-4{fill:#182949}.cls-2,.cls-3{stroke-width:19px;stroke:#13294b;stroke-linecap:round;stroke-miterlimit:10}.cls-3{stroke-width:7px}
    </style>
  </defs>
  <circle cx="1270.658" cy="1278.43" r="1156.551" style="fill:#fff"/>
  <path d="m371.735 1649.991-5.486-18.227-33.609 17.759-14.991-10.82c-16.988 10.2-26.329 21.475-23.093 31.284 3.223 9.808 9.227 7.407 9.846 13.853.607 6.446 4.386 46.274 16.078 52.417 20.262-19.061 61.619-32.383 82.639-38.501-9.025-20.843 13.474-13.019 12.513-30.98-.809-15.269-17.38-13.626-14.687-27.808l-29.211 11.022Zm124.338-10.997-.025 58.333 254.287.518 1.77-80.806-32.459 4.121c-10.352 43.215-52.986 65.398-94.445 47.829-8.342-3.539-18.163-13.866-22.019-14.89-5.132-1.352-25.343 9.328-42.874 6.598-15.029-2.338-21.955-14.7-30.285-17.253-8.924-2.718-23.851-1.175-33.95-4.449m274.321 58.547h82.298c4.121 0 37.212 12.159 43.43 15.079 34.469 16.192 59.015 46.502 80.92 76.395h85.951v-230.524H830.737c-2.869 0-10.023 13.398-12.867 16.546-10.592 11.73-11.528 17.62-19.933 27.492-7.761 9.139-15.914 9.189-23.409 16.811l-4.133 78.202Zm-336.496-139.051H207.11l.839 259.596c17.102 0 24.61-.228 35.846-.645 1.251-43.595 27.782-71.92 56.879-79.618-4.727-13.348-3.274-33.786-6.522-45.023-2.743-9.467-15.168-10.807-13.739-29.564 1.087-14.207 10.099-17.923 13.638-26.935 2.3-5.827.404-14.043 3.602-22.019 12.842-31.991 90.261-32.598 109.119-8.544 7.887 10.061 3.615 18.783 7.609 28.983 6.396 16.356 22.347 27.744 13.196 47.399-4.032 8.671-14.182 4.904-11.97 15.421h62.175l-3.628-73.21c-44.909 4.98-58.497-28.402-40.258-65.841m519.371-14.636c-1.909-8.241-29.615-25.027-34.797-24.61-1.997.164-10.352 9.202-16.381 11.843-33.698 14.789-46.843-3.16-76.812-9.176l3.64 21.943h124.35Zm-618.124 0-27.428-43.847c-5.599-.025-26.329 34.722-23.775 43.847h51.204Zm1408.161 153.687h261.517l5.246-5.928c-11.742-27.631 15.572-22.701 27.492-41.825 18.416-29.527-6.699-69.86-34.633-82.904 4.651-56.411-9.783-100.12-68.609-113.505-37.54-8.532-131.795-10.731-161.524 15.686-30.614 27.201-22.41 90.728-30.146 99.766-.973 1.125-13.221 3.666-21.26 13.487-17.721 21.677-19.225 73.399 18.277 67.635l3.64 47.589Zm-882.548-291.954c-33.205 7.634-32.813 61.24-26.607 87.29 8.911 37.401 71.946 41.8 80.971 3.653 3.312-14.017 3.312-52.354 0-66.372-5.663-23.952-32.813-29.527-54.364-24.572m-489.918-25.62c-53.909 7.66-47.639 112.241 16.925 105.087 49.561-5.486 53.858-115.161-16.925-105.087m1943.039-62.997h-852.2v472.045h74.979s9.139-33.229 9.139-47.564v-287.252l5.486-5.498h78.632v256.158l36.58-7.318v-314.705h84.131v80.503c15.041-11.806 26.948-18.821 37.199-24.736 0-13.183 0-21.184-.632-37.464h78.645s.063 20.097.72 30.133l37.679-.86v-87.821h84.131v115.262c0 1.82 17.152 14.498 22.587 28.629 5.448 14.119 13.98 39.07 13.98 39.07v-142.716h84.131v318.358l40.65 10.579-2.25-310.635h78.645v340.314c-6.509.101-14.359.291-30.348.822l32.168 46.742 85.951-.379v-471.666Zm-1250.884 0H642.379c0 8.969-.239 26.503-.239 38.757.474 4.766 3.259 4.463 6.287 4.049 7.532-1.031 23.465 19.066 24.969 19.129 12.4.569 14.94-10.542 36.832-3.602 24.61 7.799 24.774 28.503 31.372 32.889 1.681 1.125 30.007-5.878 38.071 7.483l5.334.088c-3.653-87.316 104.961-128.205 160.854-60.266 31.549 38.349 24.243 77.57-.531 116.362-8.178 12.804-22.827 16.571-17.822 36.617.809 3.223 17.215 8.191 21.879 11.831 4.955 3.88 22.322 23.548 24.003 23.548h89.603v-226.884Zm-435.251 0H207.128v226.884h62.175c-.152-32.775 36.744-50.408 42.267-76.648 10.592-50.332-19.339-137.698 69.266-135.878 65.234 1.34 62.681 52.48 69.506 102.724 6.333-10.655 24.445-7.976 31.094-12.804 6.017-4.361 6.231-24.85 24.61-33.887 17.746-8.721 27.315.923 35.29-1.213 3.526-.948 6.143-9.745 12.475-13.221 8.304-4.563 15.939-3.59 22.499-6.788 17.506-8.545 25.027-24.812 51.406-12.589l.025-36.58Zm899.776 541.552c-38.45-3.767-80.996 16.937-87.366-35.164l1.213-561.472c5.094-10.428 12.539-19.781 25.57-18.315l846.006 2.983c3.489 1.416 19.225 16.065 19.225 17.367v574.504c0 6.004-14.03 17.797-20.894 19.339-13.31 2.983-70.619-2.667-74.613 2.92l-16.574-11.144c-.594-75.687-66.091-128.841-138.289-133.872-132.655-9.252-275.99 7.217-409.782.202-79.492 13.651-131.592 64.452-127.193 147.824l-17.305-5.171Zm-562.041 11.701c6.194-90.665-39.854-137.151-127.46-154.354-133.514 8.62-281.614-11.591-413.397-.164-67.231 5.827-128.471 56.803-132.604 126.385l-5.14 12.185c-3.552-1.327-11.836 7.684-11.836 7.684-31.486-11.932-80.781 14.852-86.292-34.443l.088-548.959c.923-14.953 7.887-27.213 21.753-33.129l856.282-.025c11.009 3.552 14.965 14.649 14.586 25.659l-.405 559.804c-7.293 47.728-66.991 17.759-96.935 31.094l-18.643 8.263Z" class="cls-4"/>
  <path d="M371.461 1669.863c7.028-1.542 9.581 9.985 2.793 11.477-7.028 1.542-9.581-9.985-2.793-11.477M360.246 1415.98c6.889-1.517 9.379 9.771 2.73 11.237-6.889 1.517-9.379-9.771-2.73-11.237M1310.13 886.38c7.71 6.712 30.993-7.42 18.151-20.363-12.64-12.728-33.04 7.42-18.151 20.363M1197.993 865.811c-13.828 6.206 2.515 36.074 17.253 20.679 11.3-11.793-6.143-25.659-17.253-20.679" class="cls-4"/>
  <path d="m1388.523 901.651-5.486 5.486h-250.546v-76.85c53.858-19.427 103.002-48.41 148.189-83.271 33.129 33.205 66.359 65.702 107.843 88.769v65.866Zm265.17 5.486h-213.966c19.465-86.33-37.275-223.787-130.771-240.586-43.557-7.811-125.652-.771-161.511 26.847-43.392 33.432-71.048 140.681-73.601 193.806-.367 7.66.265 13.133 3.779 19.933H881.946c-3.438 0-20.11 10.82-20.11 16.47v301.889h210.301c4.93 0 27.441 22.524 27.441 27.441v210.415h95.089l-46.856 108.765c0 18.505 11.616 31.827 30.31 34.026 36.125 4.234 124.388 3.653 161.258.164 17.001-1.618 31.334-12.02 30.727-30.993-.809-25.469-43.557-82.361-47.424-111.963h98.755v-206.749c0-8.115 22.992-31.107 31.094-31.107h221.285V923.606c0-1.668-17.582-16.47-20.122-16.47M393.969 1414.878c6.889-1.517 9.379 9.771 2.73 11.237-6.889 1.517-9.379-9.771-2.73-11.237M333.173 1669.09c7.028-1.542 9.581 9.985 2.793 11.477-7.04 1.542-9.581-9.985-2.793-11.477M827.84 1712.569c-11.616-2.389-9.543-12.703 8.405-14.334 34.292-3.122 118.498-3.008 153.359-.48 10.061.733 15.699.607 21.943 7.533l-6.042 7.28H827.84ZM858.169 1447.652c6.889-1.517 9.379 9.771 2.73 11.237-6.889 1.517-9.379-9.771-2.73-11.237M891.891 1446.551c6.889-1.517 9.379 9.771 2.73 11.237-6.889 1.517-9.379-9.771-2.73-11.237" class="cls-4"/>
  <path d="M861.898 1488.444c1.074 3.286 3.362 12.741 16.065 11.515 12.804-1.947 13.689-8.797 14.093-12.627M369.775 1454.321c1.757-1.188 3.552 1.327 5.17 2.048 3.021 1.34 5.271 1.226 8.658.278 2.3-.645 9.998-6.661 9.568 2.035-.43 8.57-11.907 10.377-14.839 10.061-3.767-.417-10.693-3.324-10.403-10.403.063-1.605 1.138-3.539 1.845-4.019Z" class="cls-3"/>
  <path d="M1267.826 68.457c-29.489 0-53.403 23.927-53.403 53.428s23.915 53.416 53.403 53.416 53.403-23.914 53.403-53.416-23.915-53.428-53.403-53.428" class="cls-4"/>
  <path d="M1268.756 488.861V227.512" class="cls-2"/>
  <g style="clip-path:url(#clippath)">
    <path d="M1268.755 634.677c29.489 0 53.403-23.927 53.403-53.428s-23.915-53.416-53.403-53.416-53.403 23.914-53.403 53.416 23.915 53.428 53.403 53.428M521.341 1192.877c29.489 0 53.403-23.927 53.403-53.428s-23.914-53.416-53.403-53.416-53.403 23.914-53.403 53.416 23.914 53.428 53.403 53.428M574.761 580.116c0-29.488-23.927-53.403-53.454-53.403s-53.416 23.915-53.416 53.403 23.927 53.403 53.416 53.403 53.454-23.915 53.454-53.403" class="cls-4"/>
  </g>
  <path d="M521.312 1032.612V685.586M1094.504 571.158H668.72" class="cls-2"/>
  <g style="clip-path:url(#clippath-1)">
    <path d="M2026.274 1194.013c-29.489 0-53.403-23.927-53.403-53.428s23.914-53.416 53.403-53.416 53.403 23.914 53.403 53.416-23.914 53.428-53.403 53.428M1972.866 581.241c0-29.488 23.927-53.403 53.454-53.403s53.416 23.915 53.416 53.403-23.927 53.403-53.416 53.403-53.454-23.915-53.454-53.403" class="cls-4"/>
  </g>
  <path d="M2026.302 1033.738V686.713M1453.112 572.285h425.784M139.93 2087.542h168.532M325.992 2202.375l-43.998-363.441M1576.327 2202.375l-43.998-363.441M1562.426 2087.542H952.332M934.802 2202.375l43.998-363.441M2372.989 2087.542h-168.532M2186.927 2202.375l43.998-363.441M820.606 1620.844h168.533M820.606 1663.899h206.737M770.395 1706.954h235.323" class="cls-2"/>
</svg>
