<svg xmlns="http://www.w3.org/2000/svg" id="Lenkungskreis" viewBox="0 0 2545.922 2519.676">
  <defs>
    <style>
      .cls-1{fill:#182949}.cls-3{fill:none;stroke:#13294b;stroke-linecap:round;stroke-miterlimit:10;stroke-width:19px}
    </style>
  </defs>
  <circle cx="1270.658" cy="1278.43" r="1156.551" style="fill:#fff"/>
  <path d="M243.643 775.378c26.86-117.46 141.9-121.059 180.973-137.619m-46.631-189.802c.789-4.615-.294-46.912 0-53.186 4.628-97.717 87.283-105.676 148.508-102.412 52.758 2.809 99.536 45.962 104.993 105.903 4 43.849-1.391 45.507-1.391 45.507m-242.319 1.847c10.113-32.572 31.168-82.534 57.185-101.636 16.855-12.373 33.067 8.414 52.597 7.157 18.834-1.217 48.758-21.469 63.526-14.46 32.465 15.423 42.872 34.9 52.383 87.577l2.073 12.2c.709 1.404 7.116 1.03 10.14 3.277 16.226 12.052 24.907 47.728 9.484 62.549-5.698 5.484-16.092 1.338-17.711 3.638-4.548 47.768-1.873 90.614-35.622 128.764-39.769 44.946-107.321 48.156-151.357 5.311-15.289-14.888-29.041-44.625-32.786-78.735-1.324-12.106-6.488-39.983-10.367-47.567-2.983-5.859-8.615-4-16.092-11.156-8.909-8.053-12.922-47.996 10.006-55.353l6.541-1.565Zm193.347 196.156c10.42 4.187 172.853 21.871 195.473 133.606" class="cls-3"/>
  <path d="M541.366 465.692c-2.261 2.287-2.02 10.14.08 12.775 7.29 9.11 22.754-2.916 14.233-12.534-2.394-2.702-12.119-2.461-14.313-.241M466.205 478.456c5.578-6.956 1.164-15.169-8.708-14.326-17.684 1.512-1.445 27.008 8.708 14.326" class="cls-1"/>
  <path d="M533.54 564.049c-4.852-2.461-9.812 2.742-14.305 4.214-8.375 2.756-14.611 2.528-23.974.562-6.362-1.324-27.694-13.724-26.49 4.2 1.186 17.657 32.96 21.389 41.083 20.734 10.423-.843 29.617-6.822 28.808-21.429-.18-3.304-3.181-7.29-5.122-8.28Z" class="cls-3"/>
  <path d="M385.457 442.311c10.327-32.131 31.823-81.41 58.376-100.258 17.202-12.213 33.763 8.293 53.707 7.05 19.222-1.191 49.775-21.162 64.837-14.26 33.147 15.209 43.768 34.432 53.493 86.387l2.113 12.039c.722 1.391 7.264 1.017 10.354 3.237 1.017.736 5.739.375 5.739.375s4.267 1.98.187-41.28c-5.578-59.138-53.333-101.703-107.187-104.472-62.496-3.21-146.889 4.628-151.611 101.034-.308 6.18.803 47.915 0 52.45l9.738-1.659" class="cls-1"/>
  <path d="M1393.804 2183.07c14.888-11.598 20.159-50.002-14.179-67.592-2.609-1.338-12.186-7.21-12.708-8.08-3.224-5.297 4.334-21.122-1.766-27.757-1.699-1.191-6.488 2.073-8.187 2.956-12.387 6.407-31.355 21.189-43.394 25.054-3.919 1.257-6.046 1.98-9.511-.789-7.424-5.926-6.943-43.742-12.788-44.919l-82.868 44.13c-23.115 3.719-3.491-22.607-10.902-33.067-18.754 11.236-37.147 23.409-56.008 34.432-1.819 1.07-6.073 3.745-10.527 6.635-4.923 3.197-10.086 6.662-12.467 8.494-15.718 12.092-15.209 36.291-.268 51.206 9.083 9.083 13.109 7.531 20.56 8.842 2.702 43.166 1.485 87.216 26.379 124.483 34.605 51.821 113.381 62.563 163.276 28.144 26.419-18.219 40.21-54.858 40.598-86.507.094-7.504 2.314-27.315 2.1-35.007-.12-4.107-.615-13.029.856-16.386.535-1.204 16.614-10.233 21.804-14.273Zm-266.985-66.268c-1.298-12.266-2.716-46.899-.508-59.071 1.217-6.742 13.296-43.514 41.722-56.235 39.956-22.259 135.987-21.563 176.358-.428 39.421 20.64 34.151 74.401 35.234 114.411m-44.96 218.574c71.766-2.849 156.52 48.223 186.604 93.316m-511.897 12.426c24.653-80.42 167.181-106.104 179.622-105.743" class="cls-3"/>
  <path d="M1205.237 2254.674c3.732 11.236 18.313 34.351 52.129 34.137 38.712-2.689 50.122-23.155 51.848-36.157l-53.56-11.29-50.417 13.31Z" class="cls-3"/>
  <path d="M1304.003 2161.345c-8.093 8.16-22.272-3.063-13.537-12.975 8.24-9.337 21.389 5.056 13.537 12.975M1213.859 2161.34c-8.909 8.989-22.125-4.214-13.551-13.002 8.427-8.641 21.403 5.083 13.551 13.002M1379.907 2110.527c-2.595-1.338-12.173-7.197-12.708-8.066-3.21-5.297 4.347-21.122-1.752-27.757-1.699-1.191-6.488 2.087-8.187 2.956-12.373 6.421-31.328 21.189-43.367 25.041-3.919 1.257-6.033 1.98-9.511-.789-7.411-5.912-6.929-43.715-12.775-44.892l-82.815 44.116c-23.088 3.719-3.478-22.607-10.889-33.054-18.754 11.223-37.134 23.396-55.981 34.418-1.819 1.057-6.073 3.732-10.514 6.635-4.923 3.197-4.147 2.715-4.147 2.715-1.298-12.253-2.716-46.885-.508-59.045 1.217-6.728 13.283-43.488 41.708-56.209 39.916-22.245 135.894-21.55 176.238-.415 39.394 20.613 34.124 74.361 35.207 114.344" class="cls-1"/>
  <path d="M339.819 2178.138c19.174-44.063 66.465-76.716 143.533-92.381m163.683-6.789c17.386 5.124 144.566 38.237 164.619 111.241M535.46 1794.555c-37.808 3.786-74.225 28.513-86.062 65.917-13.703 43.271-13.092 148.636 6.437 189.646 34.811 73.078 160.012 82.985 200.822 12.731 25.7-44.232 20.196-170.369.696-217.414-19.793-47.789-75.926-55.493-121.894-50.88Z" class="cls-3"/>
  <path d="M510.119 1999.319c3.389 12.504 10.613 48.488 50.746 43.82 40.46-7.431 43.254-33.46 44.545-48.044" class="cls-3"/>
  <path d="M516.916 1913.091c11.726 10.496-7.629 27.001-15.436 14.107-6.788-11.186 6.781-21.848 15.436-14.107M602.726 1926.41c-9.328 9.102-26.102-4.756-14.667-15.047 10.473-9.43 22.917 6.993 14.667 15.047" class="cls-1"/>
  <path d="M672.47 1995.764c4-36.491.829-70.054-6.113-103.682-6.956-35.863-2.501-97.569-119.534-97.021-113.969 5.565-107.027 77.558-107.027 111.2-4.16 26.125-5.498 60.57-1.217 93.396.334 2.555.816 5.565.816 5.565-67.044-43.929-93.262-160.025-64.917-224.34 53.279-120.885 272.416-134.81 350.254-26.406 47.26 65.332 22.834 192.009-59.125 247.776 0 0 6.635-4.454 6.862-6.488" class="cls-1"/>
  <path d="M1449.727 405.482c22.981 17.831 67.164 53.199 78.227 127.493m-319.047-141.391c-86.881 94.038-97.971 40.224-90.64 10.059m243.295-232.059c-18.54-17.697-61.72-31.716-84.019-58.924-26.981 30.164-50.015 41.08-66.362 53.828-46.725 36.451-48.383 127.961-28.653 179.207 37.04 110.585 171.569 96.981 197.48 4.869 15.811-43.487 17.055-145.11-18.446-178.98Zm-318.686 324.933c12.467-31.903 34.672-57.934 60.342-79.712 4.187-3.572 13.444-8.414 15.049-13.163 1.11-3.264 11.812-41.401 13.002-53.988 3.157-33.281-4.24-73.331-1.043-107.468 1.217-34.766 8.267-99.402 23.637-130.021 15.463-30.807 46.792-45.36 46.792-45.36 48.129-27.556 153.644-22.526 192.825 19.971 28.345 30.726 38.083 116.444 39.755 157.724 1.244 30.873-10.447 57.225-.054 96.058 10.38 38.832 47.594 70.589 47.059 72.542-3.01 10.822-110.518-41.013-113.528-32.224" class="cls-3"/>
  <path d="M1239.929 323.746c8.079 1.749 17.256 8.744 23.449 11.536 11.584 4.893 19.409 6.289 33.147 0 8.36-3.498 36.973-27.014 35.314-4.541-1.632 22.12-35.849 36.709-52.289 35.313-14.42-1.058-49.36-15.969-48.25-34.27.254-4.142 3.505-9.434 8.628-8.038Z" class="cls-3"/>
  <path d="M1239.643 239.912c11.022-1.444 13.042 15.37 4.16 17.403-15.798 3.598-15.731-15.892-4.16-17.403M1319.812 239.88c14.219-2.756 14.527 22.433-2.408 17.43-7.036-2.073-6.046-15.785 2.408-17.43" class="cls-1"/>
  <path d="M1120.934 400.706c1.11-3.25 11.798-41.387 12.989-53.961 3.17-33.268-4.24-73.304-1.043-107.428 1.231-34.753 8.267-99.375 23.623-129.968 15.45-30.793 46.765-45.347 46.765-45.347 48.102-27.543 153.551-22.513 192.718 19.958 28.318 30.713 38.057 116.404 39.729 157.657 1.244 30.873-10.434 57.212-.053 96.031 10.38 38.819 47.567 70.562 47.032 72.515-3.01 10.822-110.665-27.676-113.461-32.224-2.782-4.535 9.778-17.818 13.296-30.285 15.784-43.474 17.042-145.057-18.446-178.926-18.527-17.684-61.693-31.689-83.965-58.884-26.967 30.151-49.989 41.066-66.321 53.801-46.698 36.438-48.357 127.908-28.639 179.14 6.769 20.225 26.365 47.875 26.365 47.875-86.828 93.998-97.917 40.197-90.587 10.046" class="cls-1"/>
  <circle cx="1269.11" cy="1256.87" r="635.498" class="cls-3"/>
  <path d="M1824.005 1275.424c0 27.342-21.898 49.601-48.825 49.601s-48.811-22.259-48.811-49.601 21.898-49.601 48.811-49.601 48.825 22.259 48.825 49.601ZM1318.044 766.935c0 27.342-21.898 49.601-48.825 49.601s-48.811-22.259-48.811-49.601 21.898-49.6 48.811-49.6 48.825 22.259 48.825 49.6ZM1318.044 1785.783c0 27.342-21.898 49.601-48.825 49.601s-48.811-22.259-48.811-49.601 21.898-49.601 48.811-49.601 48.825 22.259 48.825 49.601ZM813.127 1275.424c0 27.342-21.898 49.601-48.825 49.601s-48.811-22.259-48.811-49.601 21.898-49.601 48.811-49.601 48.825 22.259 48.825 49.601ZM824.045 1275.977l385.395-.561M1269.225 1725.196V1337.38M1269.225 1214.806v-398.27M1329.588 1275.422l396.781.562M1329.277 1275.424c0 33.308-26.646 60.302-59.54 60.302s-59.513-26.994-59.513-60.302 26.646-60.302 59.513-60.302 59.54 26.994 59.54 60.302M1661.657 1667.34c-19.329 19.329-50.55 19.597-69.599.548-19.035-19.035-18.767-50.256.562-69.585 19.329-19.329 50.55-19.597 69.585-.562 19.048 19.048 18.781 50.269-.548 69.599ZM946.867 952.55c-19.329 19.329-50.55 19.597-69.599.548-19.035-19.035-18.767-50.256.562-69.585 19.329-19.329 50.55-19.597 69.585-.562 19.048 19.048 18.781 50.269-.548 69.599ZM954.197 960.656l272.911 272.122M1312.061 1317.735l280.559 280.568M1661.657 883.525c19.329 19.329 19.597 50.55.548 69.599-19.035 19.035-50.256 18.767-69.585-.562-19.329-19.329-19.597-50.55-.562-69.585 19.048-19.048 50.269-18.781 69.599.548ZM946.88 1598.301c19.329 19.329 19.597 50.55.548 69.599-19.035 19.035-50.256 18.767-69.585-.562-19.329-19.329-19.597-50.55-.562-69.585 19.048-19.048 50.269-18.781 69.599.548ZM954.982 1590.976l272.122-272.91M1312.061 1233.112l280.559-280.55" class="cls-3"/>
  <path d="M2345.371 1041.747c11.25 19.985 8.882 47.22 11.062 69.545 36.665 26.512 51.219 86.587 2.782 109.541 4.468 28.425 2.408 55.045-7.745 81.986-1.485 3.946-11.143 21.015-9.524 22.861 22.125 7.424 44.785 19.891 63.753 33.495 43.487 31.221 95.576 96.753 88.139 153.885-1.03 7.906-10.621 11.959-14.447 5.966-1.766-2.769-3.866-29.843-5.391-36.879-14.728-68.167-77.919-119.24-140.696-142.274-13.591 11.437-22.914 22.005-39.822 29.843-52.691 24.439-118.985 13.684-159.717-27.971-64.261 24.64-130.275 76.381-142.421 147.986-1.258 7.424-.803 20.56-2.368 26.071-1.819 6.381-10.407 7.678-14.714 2.715-6.648-88.941 71.057-160.078 147.866-189.681 1.231-1.766-10.073-21.028-11.825-25.295-12.387-30.164-13.577-63.218-14.942-95.416-43.046-14.714-31.422-80.795 2.796-99.884-8.708-41.963 14.286-84.367 54.751-98.693 92.714-22.74 167.128-12.815 192.463 32.198m-54.577 102.747c-12.427-13.377-37.936-11.357-48.21 3.665-20.654 30.218 18.112 66.027 46.35 41.575 13.444-11.638 13.765-32.425 1.859-45.24m-120.054-8.08c-31.943 5.886-29.79 60.476 7.544 61.399 44.598 1.097 42.578-70.642-7.544-61.399m-37.736 15.691c-7.424-2.742-26.967-25.389-33.468-23.744-19.797 16.453-25.269 67.98 11.544 64.569 1.939 61.599 4.294 130.57 67.392 161.015 78.361 37.829 161.831-9.498 166.713-96.927.829-14.982-1.98-30.673-3.09-45.628 1.244-3.946 27.73-10.835 31.114-29.094 3.371-18.246-7.585-44.37-23.851-53.948-1.966.294-30.164 21.416-31.97 23.449-5.15 5.819-.682 9.43-.749 15.062-.642 50.965-73.572 66.201-91.737 18.179-8.374 11.544-15.249 21.603-29.576 26.513-37.949 13.002-72.247-21.336-62.322-59.446m205.773-60.315-52.169 28.466 21.336 17.43 30.833-22.981v-22.914Zm-169.188 28.439c-3.09-11.531 2.14-23.142 3.144-34.766l-53.761 32.438 21.349 19.69c7.705-8.146 17.631-16.868 29.268-17.363m96.446-44.249-80.635 42.658c18.299 2.716 29.188 14.26 39.501 28.466 6.528-19.985 29.161-30.378 49.039-28.466l-7.905-42.658Z" class="cls-1"/>
  <path d="M2200.05 1287.358c-2.769-2.863-2.047-9.538 1.15-11.464 2.956-1.793 30.632 4.709 40.143 3.772 7.197-.709 17.309-7.009 22.246-1.311 9.912 11.397-12.801 15.183-20.426 15.784-9.11.722-36.772-.227-43.113-6.782M2177.078 1158.414c15.597-2.849 14.701 23.249-1.619 18.393-8.668-2.568-7.451-16.734 1.619-18.393M2267.214 1158.414c15.597-2.849 14.701 23.249-1.619 18.393-8.668-2.568-7.451-16.734 1.619-18.393" class="cls-1"/>
  <path d="M2094.743 1848.097c-18.54-17.697-61.733-31.716-84.019-58.911-26.994 30.151-50.015 41.08-66.362 53.814-46.725 36.451-48.383 127.961-28.653 179.22 3.21 9.578 7.157 18.232 11.691 25.977 47.848 81.651 162.125 63.004 185.789-21.122 15.798-43.474 17.055-145.11-18.446-178.98Zm-146.897 232.022s-25.18 34.735-46.034 49.904c-20.854 15.169-43.528 63.432-53.092 66.362-35.649 10.902-53.279-38.645-49.293-73.946 4.174-36.866 9.859-40.197 26.539-62.563 16.694-22.366 15.878-55.674 17.069-68.248 3.157-33.281 23.342-49.293 26.539-83.43 1.231-34.753-13.47-88.834 1.899-119.44 15.463-30.806 62.362-45.441 62.362-45.441 30.793-17.63 84.862-14.086 131.024-5.752 25.964 4.695 50.35 7.464 64.462 22.754 14.714 15.958 13.832 46.979 19.517 73.17 5.257 24.239 8.842 38.846 9.645 58.683 1.244 30.887 21.108 58.724 31.502 97.556 3.532 13.203 6.822 61.011 20.854 85.316 27.248 47.179 26.138 47.246 25.79 48.531-3.01 10.822-2.274 25.79-52.33 38.672-71.284 24.279-96.163-82.131-96.163-82.131" class="cls-3"/>
  <path d="M1986.939 2014.174c5.605.963 11.972 4.789 16.266 6.327 8.039 2.689 13.457 3.451 22.995 0 5.792-1.913 25.643-14.821 24.493-2.488-1.137 12.133-24.867 20.132-36.264 19.369-10.006-.575-34.244-8.762-33.468-18.794.174-2.274 2.421-5.177 5.979-4.414Z" class="cls-3"/>
  <path d="M1972.823 1906.999c11.022-1.445 13.042 15.37 4.16 17.403-15.798 3.598-15.731-15.891-4.16-17.403M2052.992 1906.967c14.219-2.756 14.527 22.433-2.408 17.43-7.036-2.073-6.046-15.784 2.408-17.43" class="cls-1"/>
  <path d="M2095.725 2072.535c15.798-43.488 32.572-192.209-2.93-226.079-18.54-17.684-61.733-31.703-84.019-58.911-26.994 30.164-50.016 41.08-66.362 53.828-46.725 36.438-48.383 127.961-28.653 179.207 3.21 9.591 34.084 59.54 34.084 59.54s-27.128 33.107-47.982 48.276c-20.854 15.156-43.528 63.432-53.092 66.348-35.649 10.902-53.279-38.645-49.293-73.933 4.173-36.866 9.859-40.197 26.539-62.576 16.694-22.366 15.878-55.66 17.069-68.248 3.17-33.281 23.342-49.28 26.539-83.417 1.231-34.766-13.47-88.834 1.899-119.44 15.463-30.806 62.362-45.441 62.362-45.441 30.793-17.63 84.861-14.099 131.024-5.752 25.964 4.695 50.35 7.451 64.462 22.754 14.714 15.958 13.831 46.965 19.517 73.157 5.257 24.239 8.842 38.846 9.644 58.697 1.244 30.873 21.108 58.71 31.502 97.543 3.532 13.203 6.822 61.011 20.854 85.316 27.248 47.179 26.138 47.246 25.79 48.544-3.01 10.822-2.274 25.777-52.329 38.672-71.284 24.265-86.627-88.085-86.627-88.085" class="cls-1"/>
  <path d="M2088.137 2080.117c49.293 3.799 138.408 28.439 154.434 134.328m-492.021 81.518c12.467-31.903 40.692-148.855 66.362-170.633 4.187-3.558 133.111-40.464 134.73-45.213" class="cls-3"/>
  <path d="M1983.144 670.166c-22.433-4.428-39.796-14.42-57.373-28.372-3.251-2.568-10.461-8.334-19.182-19.878-20.546-39.742-20.841-86.253-21.456-130.088-33.334 8.133-56.597-28.318-32.157-53.547-26.432-10.594-33.161-46.912-11.45-65.813 2.742-2.381 12.266-6.729 12.828-8.681.522-1.859-1.632-6.902-1.458-10.434.923-19.784 20.292-30.9 38.458-30.579 3.317-24.078 24.613-41.307 48.196-28.626 3.866-4.548 7.264-10.032 12.454-13.31 6.3-3.973 12.253-3.304 17.296-5.672 2.849-1.351 6.822-6.501 11.29-8.628 11.557-5.484 23.115-5.792 34.726-.481 6.287 2.863 9.39 7.959 13.898 10.594 6.381 3.732 15.544 3.719 20.56 11.343 13.337-10.059 52.731-8.735 63.727 21.51 22.526-1.592 39.394 12.614 42.618 34.806.495 3.451-1.204 8.146-.589 9.832.481 1.311 6.354 6.755 8.08 10.153 5.418 10.688 3.919 20.721.16 31.636 17.136 8.267 23.891 30.954 13.644 47.434-3.398 5.471-12.226 10.26-14.206 13.336-1.525 2.368-1.592 7.036-3.304 10.487-4.428 8.922-15.035 16.761-25.055 17.055-1.244 44.009-.027 90.975-16.707 132.389-3.451 7.732-8.668 15.009-8.668 15.009-31.395 36.746-79.966 47.701-126.329 38.525m99.575-276.295c-15.53-.254-23.195-16.587-21.47-30.619-13.082 10.166-24.653 14.607-41.066 9.39-10.421 18.901-34.686 25.362-53.841 15.089-6.662 13.738-25.469 19.664-39.849 18.38 4.495 19.583-4.816 36.625-22.179 45.828 3.772 11.758-2.929 20.721-3.919 31.408-2.314 24.773 3.585 88.794 11.878 112.23 28.185 79.698 174.659 85.624 197.56-3.933 8.869-34.752 7.785-73.852 8.173-109.515-15.45-7.21-21.817-23.436-17.082-39.822-16.734-11.263-23.623-28.559-18.206-48.437" class="cls-1"/>
  <path d="M1979.392 573.189c2.903-.281 9.912 3.277 13.952 3.826 8.213 1.11 18.821 1.177 27.061.268 7.17-.789 15.049-7.959 17.523 5.123-1.485 10.407-30.298 10.808-38.659 10.113-4.869-.415-19.717-3.103-23.209-5.872-5.752-4.561-3.17-12.828 3.331-13.457M1962.312 467.923c12.708-2.287 18.045 18.112 5.404 20.895-17.684 3.879-17.938-18.634-5.404-20.895M2049.612 467.923c12.708-2.287 18.045 18.112 5.404 20.895-17.684 3.879-17.938-18.634-5.404-20.895" class="cls-1"/>
  <path d="M1918.545 627.568c-78.267 15.865-157.978 87.51-179.97 139.171M2108.646 622.728c78.267 15.865 157.978 87.51 179.97 139.171" class="cls-3"/>
  <path d="M158.072 1283.392c-3.01-5.926-6.702-11.477-9.123-17.724-2.782-7.183-5.097-24.894-7.585-28.76-1.164-1.806-8.842-7.036-11.731-10.421-32.412-37.909-27.676-68.462-18.246-114.558 8.829-43.113 29.723-108.766 73.585-127.172 35.635-14.968 91.951-19.69 129.366-10.822 85.41 20.279 143.679 179.555 86.48 247.094-2.461 2.903-11.17 9.364-11.865 10.675-2.261 4.334-4.535 23.824-6.474 31.061-1.672 6.287-9.147 23.131-17.002 32.746-31.235 42.926-100.245 51.955-147.745 34.177-19.048-7.143-33.656-19.075-49.454-31.288q-5.461-7.022-10.206-15.009Zm-4.575-169.683c1.766 40.237-1.792 82.052 5.056 121.808 11.544 67.004 74.067 95.697 137.378 82.975 78.267-15.731 77.718-81.611 78.842-147.197.254-14.634 1.672-37.013.013-50.738-.254-2.087-.08-2.916-1.645-4.668-2.314-2.568-21.202-12.454-26.459-16.226-23.744-17.029-44.691-37.588-64.703-58.71-38.11 31.743-82.226 55.085-128.483 72.756" class="cls-1"/>
  <path d="M295.247 1252.24c-4.949 4.2-29.736 5.632-36.746 5.097-7.705-.589-29.215-3.531-27.743-13.337 1.819-12.092 24.974-.896 34.124-.816 7.21.067 29.576-8.427 32.131-.562.589 2.488.067 8.066-1.766 9.618M202.747 1139.217c10.086-10.862 26.539 7.09 15.544 16.333-11.196 9.417-24.426-6.782-15.544-16.333M309.454 1139.225c8.24 8.708-3.772 26.178-15.544 16.333-11.263-9.43 4.963-27.516 15.544-16.333" class="cls-1"/>
  <path d="M193.377 1313.35c-63.537 15.865-128.247 87.51-146.099 139.171M347.7 1308.51c63.537 15.865 128.246 87.51 146.099 139.171" class="cls-3"/>
</svg>
