<svg xmlns="http://www.w3.org/2000/svg" id="Metadata-Api" version="1.1" viewBox="0 0 2357.9 2412.8">
  <defs>
    <style>
      .st0{fill:#182949}.st2{fill:none;stroke:#13294b;stroke-linecap:round;stroke-miterlimit:10;stroke-width:19px}
    </style>
  </defs>
  <circle cx="1182.7" cy="1188" r="1156.6" style="fill:#fff"/>
  <path d="m1180.1 1470.9 1.5 856.5M1179.5 1185.7c151.1 0 273.7-68.9 273.7-153.8s-122.5-153.8-273.7-153.8-273.7 68.9-273.7 153.8 122.5 153.8 273.7 153.8ZM905.9 1254c0 119.8 122.7 216.9 274.1 216.9s274.1-97.1 274.1-216.9M1059.4 1220.2c36.3 16.4 77 25.6 120.1 25.6s83.5-9.2 119.7-25.4M1081 822.8l.5 194.3M1279.8 821.7l.5 191.2M1454.1 1031.9v233.9M905.9 1031.9V1254M1894.2 1840.5c127.2 0 230.3-52.7 230.3-117.6s-103.1-117.6-230.3-117.6-230.3 52.7-230.3 117.6 103.1 117.6 230.3 117.6Z" class="st2"/>
  <path d="M1663.9 1807.3c0 68.3 103.2 123.7 230.5 123.7s230.5-55.4 230.5-123.7" class="st2"/>
  <path d="M1793.1 1868.7c30.5 11.6 64.8 18.1 101.1 18.1s70.3-6.5 100.7-18M1793.1 1997.4c30.5 11.6 64.8 18.1 101.1 18.1s70.3-6.4 100.7-18M1793.1 2114.4c30.5 11.6 64.8 18.1 101.1 18.1s70.3-6.5 100.7-18" class="st2"/>
  <path d="M1663.9 1926.9c0 68.3 103.2 123.7 230.5 123.7s230.5-55.4 230.5-123.7" class="st2"/>
  <path d="M1663.9 2045.9c0 68.3 103.2 123.7 230.5 123.7s230.5-55.4 230.5-123.7" class="st2"/>
  <path d="M1663.9 1973.2c0 68.4 103.2 113.8 230.5 113.8s230.5-45.4 230.5-113.8M1663.9 1856.2c0 68.4 103.2 113.8 230.5 113.8s230.5-45.4 230.5-113.8M1663.9 1717.2v334M1756 1819.1v75.4M2029.9 1823.7l.4 79.3M1756 1951.7v69.4M2029.9 1950.3l.4 75M1756 2072v69.4M2029.9 2067.1l.4 75.1M2124.9 1722.9v328.3M534.5 390.3c127.2 0 230.3-52.7 230.3-117.6S661.7 155.1 534.5 155.1s-230.3 52.7-230.3 117.6 103.1 117.6 230.3 117.6Z" class="st2"/>
  <path d="M304.2 357c0 68.3 103.2 123.7 230.5 123.7S765.2 425.3 765.2 357" class="st2"/>
  <path d="M433.4 418.4c30.5 11.6 64.8 18.1 101.1 18.1s70.3-6.5 100.7-18M433.4 547.2c30.5 11.6 64.8 18.1 101.1 18.1s70.3-6.4 100.7-18M433.4 664.2c30.5 11.6 64.8 18.1 101.1 18.1s70.3-6.5 100.7-18" class="st2"/>
  <path d="M304.2 476.7c0 68.3 103.2 123.7 230.5 123.7S765.2 545 765.2 476.7" class="st2"/>
  <path d="M304.2 595.7c0 68.3 103.2 123.7 230.5 123.7S765.2 664 765.2 595.7" class="st2"/>
  <path d="M304.2 522.9c0 68.4 103.2 113.8 230.5 113.8s230.5-45.4 230.5-113.8M304.2 405.9c0 68.4 103.2 113.8 230.5 113.8s230.5-45.4 230.5-113.8M304.2 267v333.9M396.3 368.8v75.4M670.2 373.4l.4 79.3M396.3 501.5v69.4M670.2 500l.4 75.1M396.3 621.7v69.4M670.2 616.8l.4 75.1M765.2 267v333.9" class="st2"/>
  <path d="M1127.3 2341.6c0-29.2 23.7-52.9 53-52.9s52.9 23.7 52.9 52.9-23.7 52.9-52.9 52.9-53-23.7-53-52.9M1181.2 1893.1c-29.2 0-52.9-23.7-52.9-53s23.7-52.9 52.9-52.9 52.9 23.7 52.9 52.9-23.7 53-52.9 53" class="st0"/>
  <path d="M325.9 1604.5c-16.2 0-29.3 12-29.3 26.8v465.2c0 14.8 13.1 26.9 29.3 26.9h352c16.2 0 29.3-12 29.3-26.9v-465.2c0-14.8-13.1-26.8-29.3-26.8h-352Z" class="st2"/>
  <path d="M369.8 1647.2c-16.2 0-29.3 12-29.3 26.8v343.2c0 14.8 13.1 26.8 29.3 26.8h264.8c16.2 0 29.3-12 29.3-26.8V1674c0-14.8-13.1-26.8-29.3-26.8H369.8Z" class="st2"/>
  <path d="M451.6 1586.8c-16.2 0-29.3 12-29.3 26.8v27.2c0 14.8 13.1 26.8 29.3 26.8h95.9c16.2 0 29.3-12 29.3-26.8v-27.2c0-14.8-13.1-26.8-29.3-26.8h-95.9Z" class="st0"/>
  <path d="M395 1843.5h208.5M395 1902.1h208.5M395 1961.4h208.5M395 1784.8h208.5M1696.1 475.9l180.4 180.4V295.6l-180.4 180.3z" class="st2"/>
  <path d="m1757.5 295.6-180.4 180.3 180.4 180.4M1930.7 476.9l97.1-2M1235.1 2007.8c136-8.6 263.1-50.1 373.4-116.7M752.3 1888.9c111.1 67.7 239.5 110.1 377 118.9M1915 1565.3c59.7-114.3 93.5-244.4 93.5-382.2s-36.4-277.8-100.5-395.3M1536.4 436.3c-107.3-50.9-227.4-79.4-354.2-79.4s-243.4 27.6-349.5 77.3M455.1 790.2c-63.3 116.8-99.2 250.7-99.2 392.9s29.6 251 82.3 359.8" class="st2"/>
</svg>
