<svg xmlns="http://www.w3.org/2000/svg" id="Personn" viewBox="0 0 2475.503 2443.689">
  <defs>
    <clipPath id="clippath">
      <path d="M68.4 137.493h2390.755v2131.406H68.4z" style="fill:none"/>
    </clipPath>
    <style>
      .cls-2{fill:#182949}
    </style>
  </defs>
  <circle cx="1240.55" cy="1218.929" r="1156.551" style="fill:#fff"/>
  <path d="M1115.927 1393.627c-8.987-.252-33.007-10.294-37.178-1.968-5.604 11.144 7.287 14.213 15.457 16.197 18.746 4.533 41.506 3.856 59.45-3.604 2.928-2.928 2.88-11.065 0-13.977-3.935-3.967-28.553 3.604-37.729 3.353ZM1150.862 1271.28c-12.781 11.868 8.342 31.213 19.234 18.274 11.081-13.159-7.98-28.71-19.234-18.274ZM1044.801 1271.28c-12.781 11.868 8.342 31.213 19.234 18.274 11.081-13.159-7.98-28.71-19.234-18.274ZM1365.99 760.3c17.346 2.062 17.472-27.435-4.029-20.998-7.917 2.377-8.043 19.565 4.029 20.998ZM1259.929 760.3c17.235 2.046 17.078-27.325-4.029-20.998-7.917 2.377-8.043 19.565 4.029 20.998ZM2172.707 1383.701c-8.012-1.196-24.822 4.612-37.178 3.809-7.87-.503-24.082-6.831-29.292-5.336-5.588 1.605-6.689 9.192-3.337 13.788 7.933 10.892 59.592 10.058 71.381 4.108 8.012-4.061 6.595-15.142-1.574-16.37ZM1581.57 1556.482c-13.253 11.097 5.839 32.377 18.29 19.219 9.696-10.247-4.439-30.803-18.29-19.219ZM1687.631 1556.482c-13.253 11.097 5.84 32.377 18.29 19.219 9.696-10.247-4.439-30.803-18.29-19.219ZM1845.241 993.557c-10.026 1.117-22.901 1.023-32.896-.331-4.895-.661-13.41-4.99-16.936-4.644-7.902.771-11.034 10.813-4.045 16.354 4.234 3.369 22.272 6.627 28.206 7.13 10.137.85 45.143.362 46.953-12.293-3.006-15.897-12.576-7.177-21.281-6.217ZM1762.093 869.394c-15.221 2.739-14.922 30.095 6.563 25.373 15.347-3.368 8.877-28.159-6.563-25.373ZM1868.154 869.394c-15.221 2.739-14.921 30.095 6.563 25.373 15.347-3.368 8.877-28.159-6.563-25.373ZM258.159 1406.531c-16.905 1.558-29.985-3.022-46.166-5.32-15.378 14.701 8.358 20.557 20.336 21.879 10.31 1.133 53.249 2.676 53.925-11.852.724-15.346-19.785-5.462-28.096-4.706ZM286.508 1282.331c-15.394 3.463-9.365 28.253 6.58 25.373 16.291-2.943 12.466-29.654-6.58-25.373ZM180.447 1282.331c-15.362 3.447-9.413 28.206 6.58 25.357 15.52-2.755 12.796-29.717-6.58-25.357ZM1633.287 446.937c8.248.63 37.414-1.055 43.238-5.997 2.156-1.826 2.771-8.389 2.078-11.317-3.006-9.255-29.324.74-37.808.661-10.766-.094-38.012-13.269-40.153.96-1.731 11.537 23.579 15 32.645 15.693ZM1585.973 327.166c12.938-10.876-6.422-31.999-18.29-19.219-10.451 11.239 5.116 30.3 18.29 19.219ZM1674.953 327.174c13.851 11.585 27.986-8.972 18.29-19.219-12.45-13.159-31.543 8.122-18.29 19.219ZM712.393 1194.349c10.625 1.779 45.095 1.794 52.335-5.855 4.376-4.612 2.912-13.316-4.266-14.418-6.438-1.007-13.741 3.148-20.367 3.715-5.431.472-13.222.488-18.652.094-7.397-.551-21.643-6.076-25.924-5.682-6.217.582-8.798 10.483-6.265 14.607 1.149 1.857 19.502 6.926 23.138 7.54ZM667.096 1078.96c17.314-3.179 12.734-31.118-6.595-25.389-13.804 4.092-9.476 28.348 6.595 25.389ZM773.156 1078.96c17.314-3.179 12.734-31.118-6.595-25.389-13.804 4.092-9.476 28.348 6.595 25.389ZM738.776 1856.78c-11.191 1.102-43.757-6.548-47.236-4.439-3.762 2.267-4.612 10.121-1.354 13.489 7.46 7.713 40.011 8.83 50.73 7.98 8.972-.708 35.698-5.163 24.035-18.573-5.808-6.705-17.708.708-26.176 1.542ZM661.251 1735.747c19.203 5.714 20.257-24.995 1.904-21.642-10.671 1.952-12.104 18.62-1.904 21.642ZM767.312 1735.747c19.203 5.714 20.257-24.995 1.904-21.642-10.671 1.952-12.104 18.62-1.904 21.642ZM1708.784 1662.857c-10.437-6.886-25.654 1.291-39.104 8.5-3.274 1.752-6.087 3.32-8.178 4.089-13.926 5.564-20.858 4.15-32.203-.015-2.29-.891-4.949-2.29-7.824-3.75-6.471-3.32-13.788-7.086-21.258-8.531-4.857-1.091-9.714-.092-13.68 2.813-4.304 3.151-7.209 8.454-7.578 13.819-.461 6.563 1.952 12.912 7.178 18.876 12.851 14.71 42.578 25.147 58.134 26.146 1.091.077 2.229.123 3.413.123 24.302 0 65.619-16.97 67.971-44.776.861-10.007-3.258-14.925-6.871-17.292Zm-63.237 43.531c-11.729-.753-36.553-9.638-45.514-19.89-1.153-1.306-2.459-3.136-2.521-5.042 4.734 1.106 10.453 4.042 15.541 6.64 3.474 1.783 6.717 3.428 9.684 4.596 15.279 5.595 27.084 7.302 45.345 0 2.397-.876 6.087-2.798 10.329-5.073 4.365-2.336 13.649-7.316 18.814-8.608-1.875 15.11-34.616 28.467-51.678 27.376ZM2096.714 1302.045c10.452-2.393 8.075-22.178-4.895-20.478-13.615 1.779-13.694 24.712 4.895 20.478ZM2183.32 1302.04c19.927 5.887 19.564-23.751 2.833-20.509-9.948 1.936-11.112 18.07-2.833 20.509Z" class="cls-2"/>
  <path d="M2352.361 1433.052c-12.214-45.677 2.34-128.864.86-165.192-1.968-48.558-28.238-152.552-61.56-188.692-21.8-23.642-86.523-46.15-134.75-51.753-53.752-6.265-106.529 16.621-120.836 24.979-13.043 7.626-27.815 14.194-41.662 22.976-11.885-6.132-24.582-11.025-36.216-17.455 20.273-50.305 18.793-107.363 20.305-160.832 12.167-.362 25.058-9.885 30.441-20.714 2.078-4.203 2.156-9.869 3.998-12.734 2.409-3.762 13.143-9.57 17.267-16.212 12.45-20.037 4.234-47.582-16.59-57.624 4.58-13.269 6.406-25.452-.189-38.437-2.094-4.14-9.224-10.735-9.806-12.34-.755-2.046 1.322-7.76.708-11.947-3.904-26.947-24.413-44.214-51.769-42.278-8.059-101.224-90.6-175.769-180.68-209.972 2.267-7.24 5.32-14.103 7.288-21.501 2.283-8.515 4.958-31.449 7.618-36.548.819-1.542 11.065-9.145 13.961-12.561 67.305-79.471-1.259-266.888-101.759-290.75-44.025-10.436-110.291-4.879-152.222 12.734-51.612 21.658-76.198 98.91-86.586 149.641-11.097 54.24-16.668 90.19 21.47 134.798 3.4 3.982 12.435 10.137 13.804 12.262 2.928 4.549 5.651 25.389 8.925 33.841 2.849 7.351 7.193 13.883 10.735 20.856-39.602 18.636-78.26 40.011-109.283 71.349-70.358-15.551-199.174-23.83-233.44 56.68-9.066 21.312-6.941 40.719-7.414 63.259-39.051 22.823-53.107 100.217-1.559 116.539v27.338c-40.078-54.51-103.043-71.223-145.011-82.352-9.161-2.429-17.477-4.627-24.333-6.886 14.034-20.843 24.424-50.586 27.683-80.883 1.553-14.295 7.348-44.392 10.729-51.155.185-.354.246-.477 2.936-1.629 3.228-1.399 8.116-3.52 13.188-8.439 9.084-8.331 13.404-30.819 9.438-49.095-2.321-10.729-7.286-19.137-14.311-24.548-.169-7.009.031-22.826.138-32.986.139-10.96.246-20.705.107-23.625-1.844-39.673-14.633-70.523-38.013-91.658-38.858-35.154-97.898-36.291-138.816-34.078-66.004 3.581-120.525 59.163-126.843 129.317-2.536 28.191-1.983 43.224.077 51.432-7.332 10.329-12.282 24.24-13.173 38.182-.968 15.264 3.182 28.252 11.713 36.568 5.58 5.441 12.389 6.518 17.861 6.056.477 5.903.907 11.713 1.306 17.477 3.121 43.47 6.057 84.618 36.399 122.37-.492.108-.999.2-1.521.308-64.846 13.213-115.482 33.378-151.66 60.289.948-9.153 1.605-18.551 1.207-28.317-.6-14.787-7.071-145.811-49.203-191.478-49.341-53.507-178.105-59.671-237.576-25.624-1.629.753-40.011 18.922-59.425 57.595-19.783 39.412-27.483 119.818-28.759 156.278-1.952 20.859-.661 43.424.599 65.25 1.245 21.796 2.414 42.394.63 61.208-1.26 13.358-12.958 55.551-14.618 60.839-.062.123-.108.246-.154.369-1.076 1.691-5.964 5.073-8.608 6.902-2.459 1.706-4.75 3.32-6.41 4.734-35.769 30.343-59.855 62.238-73.613 97.468-1.859 4.75.492 10.114 5.227 11.959a9.285 9.285 0 0 0 3.366.646c3.689 0 7.178-2.229 8.592-5.872 12.635-32.326 35-61.807 68.417-90.152l.308-.261c.753 14.649 5.902 27.945 17.416 34.124 21.734 11.636 55.136-6.687 101.987-56.151 27.068 24.548 60.347 33.801 88.707 33.14 40.826-.999 77.347-20.812 100.173-52 3.644.492 10.531 2.603 18.746 5.436-15.191 29.046-24.581 62.706-30.216 89.596-9.727 46.37-16.779 87.861 14.339 127.699 4.218 5.399 19.691 18.259 21.265 21.517 3.274 6.815 4.234 22.382 7.571 31.48 3.101 8.405 9.066 15.787 12.057 24.192-65.557 24.318-129.965 74.309-159.746 138.827l-11.412 28.552c-1.212-60.521-2.156-123.213-15.488-182.584-15.646-69.713-41.601-105.521-114.729-119.671-74.309-14.355-154-5.21-201.787 58.805-38.658 51.769-37.304 187.401-36.517 251.904.173 14.245 3.447 29.339 1.92 44.544-2.109 21.013-15.614 43.899-15.803 66.03 0 0 3.069 21.155 4.627 22.335 25.767 100.799 106.466 187.212 218.362 170.779 93.543-13.725 149.326-94.881 167.757-181.939 48.684 35.163 88.947 85.012 97.462 146.193.677 4.861-.614 14.501.855 21.655-11.699 30.787-6.264 68.452 27.12 79.864 1.605 37.886 3.006 76.78 17.582 112.274 2.062 5.021 15.362 27.687 13.915 29.764-90.379 34.833-181.813 118.538-173.975 223.194 5.068 5.84 15.157 4.313 17.298-3.195 1.842-6.485 1.322-21.942 2.802-30.677 14.276-84.256 91.954-145.139 167.584-174.132 47.913 49.014 125.92 61.669 187.936 32.912 19.88-9.208 30.851-21.658 46.842-35.116 73.884 27.104 148.24 87.2 165.554 167.411 1.794 8.279 4.266 40.137 6.359 43.396 4.486 7.052 15.771 2.282 16.984-7.02 8.767-67.226-52.541-144.336-103.711-181.073-22.304-16.008-48.983-30.677-75.017-39.413-1.904-2.172 9.46-22.257 11.207-26.9 11.947-31.701 14.371-63.023 9.114-96.471 56.995-27.01 39.869-97.698-3.274-128.895-1.87-19.265-.886-41.633-5.445-61.469 22.721-23.209 84.173-81.333 133.344-101.814 5.619-.818 11.773 9.066 16.354 12.702 62.252 49.581 165.129 49.314 217.055-14.481l2.377-.488c66.014 23.705 132.609 73.994 158.722 141 20.935 53.689 8.075 115.925 11.569 172.464-33.951 38.232-58.128 81.691-61.449 133.869-2.802 44.167-2.975 110.432 0 154.504 1.385 20.352 18.18 17.282 20.446 3.542 3.321-53.847-4.061-112.195.047-165.475 5.32-69.209 64.141-130.328 121.623-162.972 7.382-4.203 39.318-21.092 45.457-21.721 1.48-.142 2.802-.362 4.093.583 58.002 60.977 176.587 64.062 229.222-4.313l2.361-.331c78.323 29.277 163.87 99.572 170.48 188.755 7.02 94.802 2.649 52.964 7.922 148.679.535 14.323 18.636 16.842 20.604 1.92-5.021-94.865-1.642-50.823-8.158-144.933-2.345-34.077-8.83-78.811-56.711-127.416-33.164-37.509-76.953-65.73-123.748-83.706 3.132-9.523 7.067-18.778 9.538-28.568 2.267-9.003 5.415-39.476 8.248-43.82 1.904-2.912 12.261-8.909 15.724-12.183 20.148-18.971 37.13-39.841 50.533-62.207a9.177 9.177 0 0 0 5.738-5.42c8.969-22.947 22.848-44.459 42.089-65.145-11.439 71.146-4.509 138.786 40.48 102.336 82.156-66.563 84.365-48.619 104.417-148.423.387-.406.768-.798 1.157-1.208 27.053 24.548 60.178 33.878 88.691 33.14 40.826-.999 77.347-20.812 100.189-52 .126.017.269.042.403.063-8.224 28.428-16.579 61.757-14.392 75.78 11.16 71.381 54.486 66.241 138.928 121.642 17.307 11.354-6.495-163.507-18.709-209.185Zm-1988.709 21.26c-41.396 99.099-213.214 81.817-241.326-27.277-20.745-80.558-10.955-209.012 93.575-220.817 42.403-4.785 106.906.614 135.364 36.627 34.66 43.867 33.259 161.493 12.387 211.467Zm1594.371-559.795c-.456 43.332.866 90.836-9.932 133.051-27.812 108.811-205.77 101.602-240.004 4.785-10.074-28.489-17.235-106.261-14.434-136.356 1.212-12.986 9.35-23.878 4.753-38.169 21.092-11.176 32.425-31.889 26.947-55.657 17.471 1.558 40.326-5.651 48.416-22.335 23.28 12.482 52.761 4.628 65.416-18.337 19.942 6.343 34.014.944 49.896-11.412-2.109 17.046 7.209 36.895 26.082 37.209-6.58 24.145 1.794 45.158 22.115 58.852-5.745 19.911 1.983 39.618 20.745 48.369Zm-448.292-616.585c54.429-20.792 106.34-48.259 151.183-85.61 23.547 24.854 48.196 49.046 76.135 69.083 6.186 4.439 28.411 16.07 31.134 19.093 1.841 2.062 1.637 3.038 1.936 5.493 1.952 16.149.283 42.482-.016 59.702-1.322 77.173-.677 154.693-92.772 173.203-74.498 14.969-148.066-18.794-161.65-97.635-8.059-46.779-3.872-95.983-5.95-143.329Zm17.393 217.323c18.589 14.371 35.777 28.411 58.191 36.816 55.893 20.918 137.096 10.294 173.849-40.216 5.965-3.51 60.441 27.797 69.114 33.558 47.031 31.307 87.342 77.205 99.887 133.554-16.464-10.64-36.832-12.545-53.028-.299-6.107-9.271-17.235-9.271-24.979-13.788-5.478-3.195-9.255-9.397-16.889-12.875-14.103-6.453-28.143-6.076-42.183.583-5.431 2.581-10.247 8.846-13.71 10.483-6.138 2.881-13.363 2.062-21.013 6.894-6.312 3.982-10.451 10.64-15.142 16.165-28.663-15.409-54.523 5.525-58.537 34.785-22.083-.394-45.615 13.111-46.748 37.146-.189 4.297 2.424 10.42 1.779 12.671-.677 2.376-12.246 7.665-15.583 10.562-26.38 22.949-18.196 67.084 13.914 79.944-29.702 30.646-1.432 74.954 39.067 65.053.755 53.264 1.117 109.787 26.065 158.062-26.538 8.657-50.762 24.334-74.419 39.067-14.56-76.261-77.599-133.334-143.896-167.694-4.266-2.219-27.183-10.924-28.379-12.608-.992-1.369-1.023-2.754-.52-4.297 20.935-36.706 26.034-77.599 20.116-119.136 57.357-26.947 38.186-98.706-5.194-128.942l-2.188-51.738c-1.794-16.622-8.893-31.15-19.47-43.773l-21.407-17.566c28.773-27.435 64.094-48.511 101.303-62.409Zm-361.911 198.041c6.658-6.422 12.781-5.997 18.51-9.397 22.823-13.583 45.017-28.474 68.123-41.648 4.974-.441 1.668.944 1.417 3.258-1.054 9.585-10.184 36.281 4.203 37.682 11.664 1.133 87.137-48.165 104.152-53.973 6.485 15.189 5.163 33.416 10.703 48.778 3.132 8.657 7.083 8.61 15.74 5.541l61.906-35.73v30.677c0 .645-2.629 2.204-1.102 4.627 45.378 20.95 62.016 86.271 4.769 105.411l3.856 47.944c-1.495 107.977-105.238 167.285-200.418 118.491-70.704-36.234-74.072-117.735-75.033-188.141-42.278 7.351-37.43-53.611-16.826-73.522Zm-388.701-90.16c-.6-8.362-1.199-16.877-2.014-25.531l-.23-2.398-1.368-1.983c-2.89-4.196-7.24-4.857-11.052-4.857-.953 0-1.875.031-2.721.077-2.306.077-6.271.292-7.317-.738-4.596-4.489-6.794-12.374-6.164-22.181.738-11.636 5.411-23.718 11.498-31.034a8.85 8.85 0 0 0 1.521-1.691c.846-.861 1.707-1.645 2.598-2.306.615-.292 2.459-.615 3.551-.815 3.566-.615 8.439-1.476 10.898-6.348l3.167-16.478c10.544-59.209 21.12-77.517 53.875-93.287 6.241-2.982 21.597 3.013 33.939 7.824 11.236 4.396 22.857 8.931 32.925 9.576 11.405.83 21.212-3.582 29.927-7.394 12.436-5.457 18.123-7.209 24.333-2.582 25.824 19.229 49.019 71.983 61.039 111.318l1.537 5.042 12.097 2.936c5.703 1.998 9.546 7.317 11.421 15.802 3.151 14.28-1.168 29.236-4.027 31.895-2.843 2.751-5.165 3.766-7.854 4.919-3.735 1.614-8.838 3.827-12.097 10.299-5.333 10.621-11.236 45.083-12.589 57.457-3.705 34.37-17.124 67.464-34.186 84.295-21.95 21.689-50.248 32.91-79.853 31.911-29.543-1.092-56.888-14.403-77.009-37.459-29.974-34.37-32.694-72.321-35.845-116.267Zm20.152 142.091c6.917-1.414 10.207-2.091 12.343-2.844 22.15 20.244 49.941 31.834 79.669 32.925 34.739 1.491 67.402-11.728 92.918-36.645 8.7 3.397 19.644 6.287 32.095 9.592 51.102 13.561 126.138 33.468 156.167 115.677 2.586 13.157 6.089 25.801 10.751 33.559 4.061 10.105 10.294 19.203 14.449 29.229-78.338 31.48-152.631 92.976-172.196 178.492-47.944 19.423-57.766 69.366-60.678 116.02-15.315 9.57-25.782 21.407-32.251 38.39-22.241-13.426-44.607-28.348-69.807-35.336 1.794-9.082 5.808-17.33 8.043-26.349 2.188-8.846 2.88-22.461 5.43-29.922 1.48-4.344 12.545-12.576 16.26-17.204 65.431-81.596-4.879-271.453-109.314-290.498-29.78-5.43-58.018-3.888-87.877-1.432-25.826 2.617-41.101 8.427-50.18 12.402-.109-.389-.229-.776-.333-1.167-5.673-21.181-5.373-39.27-3.772-56.325 34.044-31.074 86.932-54.022 158.283-68.566ZM458.96 961.622c-40.057 1.629-90.167-21.104-112.056-86.401-21.781-56.597-20.613-160.167 30.788-200.255 5.165-4.027 10.898-7.885 17.154-12.097 15.417-10.375 34.247-23.041 55.198-44.884 16.063 16.078 37.275 28.021 56.289 38.735 14.434 8.147 28.068 15.832 36.245 23.625v.015c37.229 35.492 38.397 148.562 19.199 201.408-13.096 46.574-54.414 78.669-102.817 79.853Zm138.73 127.93c-.33-16.685-1.904-42.136-.031-57.829.252-2.046.047-4.076 1.904-5.525 53.123-21.548 103.79-48.039 148.319-84.304 19.486 15.646 35.872 35.588 55.531 51.769 16.559 13.615 35.053 26.664 54.555 35.667l-1.479 119.734c2.156 99.886-95.558 147.043-181.845 110.904-75.835-31.763-75.552-98.879-76.953-170.417ZM892.9 1742.9c-3.982 21.485-35.147 29.591-36.611 34.235 1.306 17.597 4.627 36.06 3.636 53.689-5.729 102.877-103.947 158.565-196.168 114.052-74.23-35.824-77.016-116.98-79.298-189.463-43.316 4.014-36.879-56.617-13.568-75.977 7.634-1.936 30.63 24.712 39.366 27.938-11.679 44.844 28.678 85.248 73.333 69.949 16.874-5.777 24.963-17.613 34.817-31.197 21.359 56.507 107.174 38.579 107.93-21.391.079-6.626-5.179-10.876.897-17.723 2.109-2.393 35.305-27.246 37.603-27.592 19.14 11.27 32.031 42.01 28.064 63.479Zm-40.499-106.497v26.963l-36.281 27.041-25.121-20.509 61.402-33.495Zm-56.475 62.016c14.009 15.079 13.631 39.539-2.188 53.233-33.212 28.773-78.842-13.363-54.54-48.92 12.104-17.676 42.105-20.053 56.727-4.313Zm-77.52 3.069c-12.136-16.716-24.964-30.3-46.48-33.495l94.865-50.195 9.318 50.195c-23.406-2.251-50.038 9.979-57.703 33.495Zm-54.87 59.671c-43.931-1.086-46.465-65.321-8.877-72.247 58.978-10.876 61.354 73.538 8.877 72.247Zm-10.231-91.292c-13.694.582-25.373 10.845-34.424 20.431l-25.137-23.169 63.259-38.17c-1.181 13.678-7.319 27.34-3.699 40.908Zm206.338-93.201c-29.061-49.985-111.396-51.214-164.437-49.334-8.544.303-35.457 2.671-61.513 12.301-47.391 17.516-74.687 66.753-64.439 116.13-4.511 2.516-8.685 5.73-12.475 9.472-1.009-5.571-2.12-10.394-2.72-13.229-9.333-43.978-37.083-86.035-69.775-116.24-5.871-5.43-37.697-28.474-38.721-31.968-1.117-43.427-2.565-85.327 14.78-125.81 27.403-63.999 92.205-109.818 155.149-135.05 15.41 13.143 29.119 25.357 48.007 33.762 50.415 22.429 120.868 18.526 164.845-16.291 7.555-5.997 13.143-15.189 21.627-19.439 7.477-.724 72.923 34.298 74.97 40.358-.394 17.771 3.132 39.381 18.321 50.51 5.194 3.809 10.719 4.927 15.236 8.94.472 47.157 4.486 97.399 31.842 137.379-49.777 23.644-94.85 64.025-130.699 98.509Zm172.646-80.895c-52.887-42.372-53.202-110.747-55.751-173.031-16.936-4.092-28.521-4.785-30.819-24.979-2.204-19.234 2.613-43.112 19.518-54.87 4.407-3.069 14.355-4.942 15.536-8.657 2.817-32.881 4.344-80.872 33.904-101.87 31.386-22.272 113.737-20.179 150.947-13.473 65.494 11.805 84.587 55.311 78.118 118.145 31.244 9.145 55.405 62.047 32.062 87.499-4.722 5.163-25.703 15.913-26.49 18.148-.094 20.304 3.164 40.798 1.637 61.15-8.311 110.668-136.246 157.983-218.661 91.938Zm450.621 255.193-55.263 36.816c.991-77.331 6.941-141.094-39.429-206.998-34.801-49.487-86.901-81.234-140.857-106.324 13.033-22.917 22.461-49.676 24.066-76.198.897-15.047-2.314-29.465-1.637-44.403 54.854-29.528 38.862-99.131-5.918-129.021 4.155-64.723-24.491-110.873-89.214-124.268-40.972-8.468-88.963-5.257-130.328-.881 18.447-61.701 67.556-108.323 122.772-138.575 7.366-4.029 30.016-16.244 36.816-17.314 2.597-.409 3.447-.472 5.934.63 6.595 2.959 19.25 16.653 28.143 22.162 61.559 38.028 155.385 32.015 202.731-25.955 6.091-2.534 48.385 20.667 56.334 25.53 38.122 23.28 77.425 59.529 97.1 100.091 4.25 8.767 18.573 44.812 14.984 52.037-.834 1.716-23.61 21.123-28.017 26.018-23.705 26.365-41.271 58.033-51.029 92.189-138.827 75.898-174.29 262.654-69.004 383.034 6.123 7.004 36.611 32.865 38.138 36.265 4.392 9.838 5.226 34.345 9.759 47.897 3.258 9.759 8.468 18.447 13.363 27.403l-39.444 19.864Zm282.439-41.302c-34.927 92.3-192.8 85.264-233.283-1.133-22.997-49.093-25.122-195.806 9.129-239.626 19.817-25.373 49.156-42.042 81.455-45.064 38.768-3.62 103.365 2.33 128.439 36.029 35.557 47.818 34.864 195.318 14.26 249.794Zm128.775-207.442c6.987-35.593 5.894-73.298-4.491-112.001-38.375-142.983-195.822-221.038-333.595-165.916 17.393-55.358 68.076-99.65 117.83-126.77 6.752-3.683 32.346-17.219 37.981-18.038 5.43-.771 8.688 5.871 12.624 9.003 21.359 16.952 42.466 29.088 69.712 34.471 56.333 11.144 115.343-2.156 153.481-46.811 3.582.947 16.801 6.589 29.136 12.465-7.975 7.265-15.098 16.018-20.671 27.125-18.07 36.013-7.477 113.486-8.925 154.378-3.762 40.153-7.429 90.238-11.16 129.399-1.401 14.796-12.073 55.956-13.379 59.781a413.16 413.16 0 0 0-5.111 19.525c-8.534 7.682-16.337 15.469-23.433 23.389Zm251.357-23.928c-.83.031-1.66.031-2.505.031-39.427 0-88.107-22.503-109.535-86.432-21.781-56.597-20.613-160.167 30.789-200.255 5.933-4.627 17.769-9.745 31.48-15.663 24.056-10.375 53.353-23.026 74.857-42.885 23.502 28.406 38.95 45.222 58.564 63.944 37.198 35.492 38.382 148.562 19.198 201.408-13.111 46.59-54.429 78.669-102.848 79.853Z" class="cls-2"/>
  <path d="M516.31 852.133c-10.422-6.902-25.655 1.276-39.104 8.5-3.274 1.752-6.087 3.32-8.178 4.089-13.896 5.549-20.858 4.15-32.218-.015-2.275-.891-4.919-2.275-7.778-3.75-6.487-3.32-13.819-7.086-21.289-8.531-4.873-1.091-9.73-.092-13.68 2.813-4.304 3.151-7.209 8.454-7.578 13.819-.461 6.563 1.952 12.912 7.178 18.876 12.851 14.71 42.563 25.147 58.118 26.146 1.091.077 2.229.123 3.413.123 24.302 0 65.635-16.97 67.986-44.776.861-10.007-3.258-14.925-6.871-17.292Zm-63.253 43.531c-11.728-.753-36.537-9.638-45.499-19.875-1.153-1.322-2.459-3.151-2.521-5.057 4.75 1.107 10.468 4.042 15.556 6.656 3.458 1.783 6.687 3.412 9.653 4.581 15.663 5.764 27.038 7.332 45.36 0 2.397-.876 6.087-2.798 10.329-5.073 4.365-2.336 13.649-7.316 18.814-8.608-1.891 15.11-34.816 28.39-51.693 27.376ZM410.4 763.454c10.451-2.392 8.075-22.177-4.895-20.478-13.615 1.779-13.694 24.712 4.895 20.478ZM497.005 763.448c19.927 5.887 19.564-23.752 2.833-20.509-9.948 1.936-11.112 18.07-2.833 20.509ZM854.683 547.057c2.408-3.006 2.691-11.978.094-14.591-2.502-2.534-13.615-2.802-16.354.283-9.743 10.987 7.933 24.728 16.26 14.308ZM950.614 530.683c-11.286-.96-16.322 8.421-9.948 16.369 11.601 14.497 30.158-14.638 9.948-16.369ZM892.395 687.724c.676.077 1.491.107 2.429.107 7.316 0 21.781-2.428 31.803-11.006 6.502-5.564 10.16-12.865 10.591-21.135.43-8.685-1.968-14.802-7.132-18.169-8.193-5.288-17.8-.477-24.148 2.736-1.153.584-2.137 1.122-2.767 1.353-6.548 1.829-9.438 1.783-13.957-.184-.615-.323-1.214-.845-1.845-1.322-2.998-2.275-10.898-8.239-19.152-2.628l-.016.015c-4.365 2.967-8.116 10.391-8.362 16.555-.907 21.919 19.491 32.295 32.556 33.678Zm-10.652-29.421c9.807 4.304 17.4 3.597 26.393 1.091 1.46-.415 3.643-1.399 6.118-2.659 1.106-.553 2.905-1.46 4.534-2.152 0 .062-.015.123-.015.169-.154 3.213-1.476 5.764-4.135 8.039-6.349 5.426-17.723 6.84-20.29 6.579-.169-.016-15.202-1.937-16.032-13.02a19.9 19.9 0 0 0 3.428 1.952Z" class="cls-2"/>
  <path d="M1318.78 911.524c-53.399 0-68.817-41.932-70.4-46.728l-3.228-9.715 71.414-18.845 73.966 15.586-1.168 8.823c-2.982 22.457-22.903 47.62-69.877 50.878h-.707Zm-47.589-43.439c6.302 10.022 20.029 24.24 47.066 24.24h.507c32.356-2.26 44.484-15.786 49.019-25.654l-50.725-10.698-45.867 12.112Z" class="cls-2" style="clip-path:url(#clippath)"/>
</svg>
