<svg xmlns="http://www.w3.org/2000/svg" id="T-Working-Groups" viewBox="0 0 2357.888 2367.027">
  <defs>
    <style>
      .cls-3{fill:#13294b}.cls-6{stroke:#13294b;stroke-miterlimit:10;stroke-linecap:round;stroke-width:19px;fill:none}
    </style>
  </defs>
  <circle cx="1182.65" cy="1188.035" r="1156.551" style="fill:#fff"/>
  <path d="M94.027 1844.235h204.03M1255.134 1844.235h983.569M323.591 2059.945l-55.78-494.683c0-113.276 103.822-205.957 230.716-205.957h552.578c126.894 0 230.716 92.681 230.716 205.957l-55.78 494.683M1376.906 550.029H540.258c-2.75 0-5 2.25-5 5v797.276" class="cls-6"/>
  <path d="M1271.568 1504.672h764.337c2.75 0 5-2.25 5-5V555.029c0-2.75-2.25-5-5-5h-607.837M1277.362 412.034H502.307c-18.15 0-33 14.85-33 33v914.693" class="cls-6"/>
  <path d="M1281.821 1638.238h793.784c18.15 0 33-14.85 33-33V445.034c0-18.15-14.85-33-33-33h-698.594" class="cls-6"/>
  <path d="M1026.837 1352.305c-.087-151.725-22.268-302.022-73.004-345.065-49.541-45.414-124.793-54.506-188.096-54.506-59.174 0-125.709 7.485-191.365 88.116-35.564 43.674-49.541 176.999-48.319 311.455h500.784Z" style="stroke:#13294b;stroke-linejoin:round;stroke-width:3px;fill:#13294b"/>
  <path d="M546.715 1008.403h1482.734M1288.956 550.029v954.643M1670.547 1394.005c-.753 0-1.503-.005-2.263-.018-38.864-.607-73.189-21.009-89.58-53.243-13.376-26.754-14.558-49.675-15.925-76.215-.148-2.879-.3-5.819-.469-8.83-11.281-2.547-19.249-12.176-21.358-26.388-2.862-19.277 5.589-43.479 24.102-51.956 2.137-22.559 5.092-50.05 21.878-66.277 20.07-19.462 56.489-19.462 78.249-19.462 24.854 0 60.325 2.227 81.327 21.479 16.135 14.71 23.387 36.392 22.103 66.183 13.975 8.405 24.574 25.27 26.951 43.447 4.03 25.173-13.57 37.362-23.595 42.705 2.813 31.848 2.692 47.467-13.328 80.043-14.687 30.894-46.734 48.53-88.091 48.531Zm-93.285-207.021" class="cls-6"/>
  <path d="m1571.95 1181.691 60.668-36.147-5.781 34.689 74.938-40.104 7.774 41.697 51.151-29.611c.445-36.912-28.797-54.701-88.835-56.036-60.038-1.334-113.255 20.137-99.914 85.512Z" class="cls-3"/>
  <path d="M1709.549 1188.358a6.528 6.528 0 0 1-6.421-5.335l-6.138-32.924-67.07 35.893a6.532 6.532 0 0 1-9.526-6.833l3.466-20.792-48.566 28.936a6.532 6.532 0 0 1-9.743-4.305c-5.236-25.659-1.158-46.731 12.121-62.629 22.24-26.629 63.563-31.413 94.338-30.719 31.645.703 54.679 5.828 70.416 15.668 16.709 10.447 25.055 26.252 24.805 46.976a6.528 6.528 0 0 1-3.259 5.574l-51.151 29.611a6.527 6.527 0 0 1-3.272.879Zm-7.774-54.76a6.53 6.53 0 0 1 6.421 5.335l6.08 32.61 39.836-23.061c-.896-19.887-12.337-44.214-82.393-45.771-39.432-.866-69.268 8.369-84.021 26.033-9.045 10.829-12.663 25.062-10.801 42.398l52.378-31.207a6.532 6.532 0 0 1 9.787 6.685l-3.599 21.59 63.23-33.838a6.525 6.525 0 0 1 3.082-.773ZM1028.523 707.886c0-11.725-9.505-21.231-21.231-21.231-.089 0-.175.012-.263.014-.04-.145-.071-.295-.114-.439 5.534-3.589 9.204-9.809 9.204-16.896 0-8.035-4.717-14.95-11.523-18.181 1.406-2.75 2.327-5.461 2.327-7.852 0-14.066-11.403-25.469-25.469-25.469a25.347 25.347 0 0 0-11.885 2.951c-2.229-8.909-8.014-25.631-26.334-26.07-7.921-.19-14.909 3.994-19.065 10.076-1.999-7.49-8.8-13.015-16.921-13.015-.535 0-1.063.03-1.585.077-4.535-7.561-12.786-12.638-22.245-12.638-9.174 0-17.218 4.773-21.832 11.959a17.484 17.484 0 0 0-4.016-.477c-9.692 0-17.549 7.857-17.549 17.549 0 .126.016.247.019.373-.947.325-1.862.712-2.744 1.159-3.494-4.69-9.066-7.741-15.364-7.741-10.587 0-19.17 8.582-19.17 19.17 0 .999.1 1.972.247 2.93a24.92 24.92 0 0 0-7.867 7.006 19.113 19.113 0 0 0-6.15-1.026c-10.587 0-19.17 8.582-19.17 19.169 0 4.787 1.776 9.145 4.681 12.501-13.92.67-25.009 12.135-25.009 26.221 0 13.504 10.188 24.616 23.294 26.103a25.077 25.077 0 0 0 3.952 4.374c-8.858 1.691-15.556 9.468-15.556 18.818 0 10.587 8.582 19.17 19.169 19.17s19.169-8.582 19.169-19.17c0-4.912-1.863-9.377-4.901-12.769 12.979-.818 23.26-11.574 23.26-24.759 0-5.458-1.781-10.489-4.766-14.588a21.777 21.777 0 0 0 1.603-4.855 26.822 26.822 0 0 0 14.619 4.326c11.716 0 21.659-7.483 25.383-17.92 4.767 4.288 11.061 6.907 17.982 6.907 12.692 0 23.308-8.777 26.182-20.585 4.06 3.659 9.419 5.906 15.315 5.906 7.852 0 24.02-13.605 25.863-16.125 1.859 3.259 2.014 14.07 2.014 18.864 0 7.605 6.164 13.77 13.769 13.77 6.292 0 7.849-.534 10.247-.789-4.744 2.652-7.817 8.305-7.817 18.608 0 11.972 8.472 21.962 19.747 24.312a19.62 19.62 0 0 0-4.627 12.676c0 10.885 8.824 19.709 19.709 19.709s19.71-8.824 19.71-19.709c0-.638-.04-1.266-.099-1.889 9.093-2.4 15.807-10.658 15.807-20.505Z" class="cls-3"/>
  <path d="M780.351 763.069c-14.209 0-25.769-11.56-25.769-25.769 0-7.437 3.193-14.255 8.381-19.007-11.897-5.018-20.069-16.775-20.069-30.288 0-14.144 8.923-26.249 21.568-30.861a25.582 25.582 0 0 1-1.24-7.861c0-14.209 11.559-25.769 25.769-25.769 1.252 0 2.501.093 3.741.278a31.22 31.22 0 0 1 3.434-3.039c.241-14.003 11.706-25.319 25.765-25.319 4.711 0 9.301 1.321 13.27 3.712 3.6-8.82 12.271-15.052 22.37-15.052.345 0 .692.008 1.039.024a32.381 32.381 0 0 1 24.81-11.506c10.221 0 19.583 4.66 25.72 12.636 6.543.514 12.476 3.676 16.564 8.537 5.103-3.784 11.304-5.825 17.69-5.67 10.241.246 23.318 4.811 30.43 24.045a32 32 0 0 1 7.632-.927c17.683 0 32.069 14.386 32.069 32.069 0 1.67-.257 3.407-.779 5.238 6.199 5.015 9.975 12.659 9.975 20.795 0 4.784-1.266 9.374-3.579 13.372 9.438 4.458 15.983 14.07 15.983 25.18 0 10.85-6.311 20.551-15.845 25.098-1.359 13.241-12.578 23.604-26.172 23.604-14.507 0-26.309-11.802-26.309-26.309 0-3.154.571-6.265 1.661-9.184-10.077-5.343-16.781-15.978-16.781-27.805 0-4.292.481-8.095 1.436-11.402-9.943-1.34-17.635-9.882-17.635-20.187 0-2.337-.04-4.342-.104-6.06-6.532 4.913-14.917 9.92-21.174 9.92a29.36 29.36 0 0 1-12.137-2.624 33.449 33.449 0 0 1-29.36 17.304 33.414 33.414 0 0 1-15.538-3.826c-6.142 9.111-16.524 14.838-27.827 14.838-2.093 0-4.168-.195-6.202-.579a31.263 31.263 0 0 1 1.344 9.097c0 13.123-8.146 24.504-19.762 29.162a25.624 25.624 0 0 1 1.402 8.366c0 14.209-11.559 25.769-25.769 25.769Zm8.64-126.357c-6.931 0-12.57 5.639-12.57 12.57 0 3.829 1.67 6.563 3.072 8.182a6.6 6.6 0 0 1-4.672 10.911c-10.501.506-18.727 9.128-18.727 19.629 0 10.014 7.497 18.418 17.438 19.546a6.598 6.598 0 0 1 4.635 2.733 18.573 18.573 0 0 0 2.912 3.226 6.601 6.601 0 0 1-3.103 11.455c-5.907 1.128-10.194 6.316-10.194 12.336 0 6.931 5.639 12.57 12.57 12.57s12.57-5.639 12.57-12.57c0-3.079-1.142-6.05-3.217-8.366a6.601 6.601 0 0 1 4.501-10.989c9.576-.604 17.076-8.586 17.076-18.173 0-3.856-1.21-7.557-3.501-10.703a6.598 6.598 0 0 1-.637-6.693 15.303 15.303 0 0 0 1.114-3.388 6.598 6.598 0 0 1 10.046-4.2 20.28 20.28 0 0 0 11.035 3.267c8.574 0 16.278-5.441 19.168-13.538a6.595 6.595 0 0 1 4.598-4.179 6.596 6.596 0 0 1 6.031 1.491 20.26 20.26 0 0 0 13.569 5.214 20.301 20.301 0 0 0 19.769-15.546 6.6 6.6 0 0 1 10.831-3.342 16.258 16.258 0 0 0 10.897 4.209c4.203 0 17.843-10.267 20.603-13.509a6.634 6.634 0 0 1 5.635-2.606 6.6 6.6 0 0 1 5.359 3.32c1.341 2.351 2.88 6.992 2.88 22.134 0 3.954 3.217 7.17 7.17 7.17 4.255 0 5.945-.249 7.579-.491a48.077 48.077 0 0 1 1.971-.261 6.594 6.594 0 0 1 6.986 4.564 6.598 6.598 0 0 1-3.069 7.759c-2.945 1.646-4.438 5.968-4.438 12.848 0 8.593 6.095 16.102 14.494 17.853a6.598 6.598 0 0 1 3.703 10.708 12.942 12.942 0 0 0-3.078 8.428c0 7.229 5.881 13.11 13.11 13.11s13.111-5.881 13.111-13.11c0-.364-.022-.765-.07-1.262a6.599 6.599 0 0 1 4.885-7.007c6.413-1.693 10.892-7.501 10.892-14.124 0-8.019-6.485-14.552-14.485-14.63a6.602 6.602 0 0 1-6.775-4.841l-.094-.367c-.825-2.802.304-5.765 2.754-7.355 3.88-2.515 6.196-6.762 6.196-11.359 0-5.187-3.043-9.983-7.754-12.219a6.603 6.603 0 0 1-3.045-8.967c1.447-2.829 1.603-4.332 1.603-4.847 0-10.405-8.465-18.87-18.87-18.87a18.63 18.63 0 0 0-8.798 2.185 6.598 6.598 0 0 1-9.487-4.233c-4.645-18.569-13.691-20.921-20.091-21.074-5.243-.108-10.292 2.566-13.459 7.203a6.6 6.6 0 0 1-11.825-2.024c-1.275-4.779-5.611-8.117-10.544-8.117-.335 0-.666.021-.992.05a6.589 6.589 0 0 1-6.253-3.179c-3.542-5.907-9.742-9.433-16.585-9.433-6.605 0-12.69 3.337-16.279 8.926a6.592 6.592 0 0 1-7.062 2.858 11.04 11.04 0 0 0-2.507-.302c-5.992 0-10.875 4.838-10.948 10.814.008.13.013.251.015.373a6.599 6.599 0 0 1-4.455 6.378c-.652.224-1.294.495-1.909.806a6.598 6.598 0 0 1-8.271-1.946c-2.408-3.231-6.079-5.085-10.072-5.085-6.931 0-12.57 5.639-12.57 12.57 0 .561.054 1.172.17 1.921a6.601 6.601 0 0 1-3.28 6.758 18.229 18.229 0 0 0-5.784 5.155 6.598 6.598 0 0 1-7.444 2.353 12.55 12.55 0 0 0-4.032-.677Z" style="fill:#102a51"/>
  <path d="M1659.665 644.072c-23.51 0-48.608 2.633-74.229 34.099-24.385 29.945-16.88 167.899-6.006 201.459 11.55 35.646 47.791 60.424 84.264 60.993 39.803.616 69.973-27.058 83.594-55.709 8.036-16.342 13.242-65.567 11.892-112.151-1.596-55.096-11.219-95.345-25.741-107.666l-.204-.179c-15.303-14.027-39.368-20.846-73.57-20.846Z" class="cls-6"/>
  <circle cx="1624.082" cy="788.976" r="9.666" class="cls-3"/>
  <circle cx="1697.813" cy="788.976" r="9.666" class="cls-3"/>
  <path d="M1644.11 868.619c11.692 10.631 28.671 11.468 40.378 1.946" class="cls-6"/>
  <circle cx="1656.423" cy="612.613" r="41.607" style="stroke-miterlimit:10;stroke:#102a51;stroke-width:3px;fill:#13294b"/>
  <path d="M1663.358 634.793s-98.91-4.85-112.65 76.674c0 0 1.007 34.924 10.808 62.117 0 0 93.794-78.147 102.178-98.757 0 0 47.466 69.533 101.434 74.384 0 0 19.582-121.476-101.77-114.418Z" style="stroke-miterlimit:10;stroke:#13294b;stroke-width:3px;fill:#13294b"/>
  <path d="M1468.388 1004.325c51.337-86.293 98.707-87.032 115.698-95.708M1744.692 905.587c44.715 22.094 81.181 57.406 103.794 100.556M884.6 617.42c-22.365 0-46.24 2.505-70.614 32.438-23.197 28.487-16.058 159.722-5.713 191.647 10.987 33.909 45.463 57.481 80.16 58.022 37.864.586 66.565-25.74 79.523-52.996 7.645-15.546 12.597-62.374 11.312-106.688-1.518-52.413-10.672-90.701-24.488-102.422l-.194-.17c-14.557-13.344-37.451-19.831-69.987-19.831ZM694.633 1009.631c54.995-127.14 105.742-128.23 123.943-141.012" class="cls-6"/>
  <path d="M956.082 865.517c49.701 30.499 90.233 79.244 115.367 138.809" class="cls-6"/>
  <circle cx="852.143" cy="749.704" r="9.666" class="cls-3"/>
  <circle cx="925.874" cy="749.704" r="9.666" class="cls-3"/>
  <path d="M872.171 829.347c11.692 10.631 28.671 11.468 40.378 1.946" class="cls-6"/>
  <circle cx="1631.413" cy="1242.94" r="9.666" class="cls-3"/>
  <circle cx="1705.143" cy="1242.94" r="9.666" class="cls-3"/>
  <path d="M1651.441 1322.584c11.692 10.631 28.671 11.468 40.378 1.946M1456.303 1496.929c56.185-119.703 108.029-120.729 126.624-132.764M1758.7 1359.961c48.938 30.649 88.848 79.632 113.596 139.488M593.628 1113.562h585.989M601.041 1207.797h623.016M604.699 1297.268h574.918" class="cls-6"/>
  <path d="M1515.355 426.469h-125.249l116.562 313.568-233.047-313.568h-133.523c-5.985 0-10.882-6.545-10.882-14.543V191.161c0-7.999 4.897-14.543 10.882-14.543h375.257c5.985 0 10.882 6.545 10.882 14.543v220.765c0 7.999-4.897 14.543-10.882 14.543Z" style="stroke-linecap:round;stroke-width:19px;fill:#fff;stroke:#13294b;stroke-linejoin:round"/>
  <text style="fill:#182949;font-family:PTSans-Bold,&quot;PT Sans&quot;;font-size:159.977px;font-weight:700" transform="translate(1231.53 353.83)"><tspan x="0" y="0" style="letter-spacing:.079em">..</tspan><tspan x="103.977" y="0" style="letter-spacing:.066em">.!</tspan></text>
</svg>
