<svg xmlns="http://www.w3.org/2000/svg" id="Trails" viewBox="0 0 2358.44 2366.61">
  <defs>
    <style>
      .cls-1{fill:none;stroke:#13294b;stroke-linecap:round;stroke-miterlimit:10;stroke-width:19px}.cls-3{stroke-width:0;fill:#13294b}
    </style>
  </defs>
  <circle cx="1182.65" cy="1187.62" r="1156.55" style="fill:#fff;stroke-width:0"/>
  <path d="M1363.23 452.17c18.15 18.11 11.64 33.67 16.79 51.6 2.21 7.7 14.86 15.66 17 31.32 1.57 11.51-7.57 31.85-6.33 33.62 1.77 2.51 17.69 9.07 23.39 19.29 9.1 16.33 8.02 33.66-2.16 48.98-6.31 9.49-15.04 11.61-19.43 17.54-7.84 10.58-6.44 27.4-22.92 36.22-7.61 4.08-20.61 3-23.1 10.17-1.09 67.07 3.13 139.32-26.34 200.95 103.57 34.86 214.17 131.54 225.02 246.34 1.57 16.65 4.86 50.22-16.11 30.92-2.12-127.84-105.55-220.31-217.62-261.83-70.29 87.54-212.18 81.22-288.79 4.34-91.38 36.03-186 108.13-207.87 208.72-4.09 18.81-.44 44.03-14.04 56.13-18.76 0-2.92-68.44.74-80.52 26.92-88.82 122.49-168.19 208.13-196.69 1.46-13.2-9.8-20.48-13.84-32.33-17.57-51.52-17.95-116.88-19.46-170.93-48.58 16.34-82.84-37.82-48.19-75.84-47.22-26.04-48.74-90.46 3.82-109.17-7.1-15.55-1.3-38.53 11.04-49.82 13.06-11.95 39.83-9.49 44.49-14.48 7.43-7.96 2.56-33.8 26.78-43.63 18.7-7.59 36.87 2.77 44.7.52 3.95-1.14 9.42-13.63 18.24-18.91 9.09-5.44 33.87-17.35 44.49-22.05 38.73-17.13 42.86 1.9 69.34 17.05 4.96 2.84 11.89 2.46 17.19 4.96 5.23 2.46 11.12 10.69 13.91 10.93 9.03.75 20.69-17.54 51.98-6.55 25.09 8.81 26.44 34.08 34.91 39.27 2.79 1.71 14.45-1.86 22.29-.7 9.35 1.39 25.3 7.97 31.95 14.6Zm-120.76 61.61c-1.95-2.34-30.62 17.64-39.15 18.45-10.27.98-20.11-7.34-23.73-5.68-11.98 5.48-16.46 24.85-40.4 29.92-20.28 4.29-35.57-6.32-42.22-5.02-6.01 1.18-15.25 17.45-26.11 21.73-12.72 5.01-25.9 3.33-39.08 3.45 10.5 28.55-2.54 62.97-33.24 70.39 9.83 19.03-1.9 29.86-3.85 45.91-4.43 36.45 4.89 136.77 16.78 171.98 36.94 109.37 215.76 131.56 284.3 40.38 21.29-28.33 29.36-80.9 31.7-116.16 1.1-16.49 3.24-83.58.1-95.31-.72-2.67-18.92-11.5-23.14-22.04-5.44-13.57-.1-26.14-3.46-37.21-2.24-7.36-24.4-17.68-28.13-42.28-1.39-9.18 3.72-28.7 2.68-30.13s-17.86-4.51-25.14-13.77-8.84-22.84-7.92-34.59Z" class="cls-3"/>
  <path d="M1085.38 666.67c-18.46 0-15.78 28.32 0 28.32s18.46-28.32 0-28.32Zm129.92-1.05c-15.6 2.69-16.93 31.46 2.97 29.44 23.1-2.35 8.69-31.45-2.97-29.44ZM1227.59 815.1c-3.12 2.57-58.14 27.84-64.4 27.77-15.52-.17-88.25-7.61-67.81-29.98 15.25 1.49 51.82 7.71 67.57 7.96 12.38.2 54.93-27.12 59.6-26.18 9.05 1.82 11.86 14.83 5.03 20.44Z" class="cls-3"/>
  <path d="M1215.3 665.62c11.66-2.01 26.07 27.09 2.97 29.44-19.9 2.02-18.57-26.75-2.97-29.44ZM1085.38 666.67c18.46 0 15.78 28.32 0 28.32s-18.46-28.32 0-28.32Z" class="cls-3"/>
  <path d="m1023.47 1092.83 85.84-18.73 45.26 84.28h40.58l60.87-73.36 87.41 31.22-10.93 95.21 37.46 24.97 92.09-32.78 49.94 67.11-54.63 74.92 17.17 54.63 92.09 20.29 6.24 80.83-85.84 29.98-15.61 54.63 67.11 70.23-35.89 70.24-95.21-20.29-39.02 40.58 14.05 90.52-73.36 42.15-65.55-70.24-51.51 7.8-31.21 88.97h-90.53l-18.73-96.77-42.14-23.41-79.6 56.19-68.67-62.43 34.34-87.41-21.85-35.9-101.45 6.25-24.98-76.48 78.04-62.43 4.68-34.2-82.72-56.33 20.29-88.96h87.41l21.85-39.02-42.89-80.25 61.62-68.02 85.84 49.94 34.34-20.29 7.8-93.64z" class="cls-1"/>
  <circle cx="1160.04" cy="1490.04" r="237.2" class="cls-1"/>
  <path d="M1160.59 1547.27c-31.58 0-57.19-25.62-57.19-57.25s25.61-57.21 57.19-57.21 57.19 25.62 57.19 57.21-25.61 57.25-57.19 57.25" style="stroke-width:0;fill:#182949"/>
</svg>
