<svg xmlns="http://www.w3.org/2000/svg" id="Wissenschaftlicher-Beirat" viewBox="0 0 2545.922 2519.676">
  <defs>
    <style>
      .cls-1{fill:#182949}.cls-4{fill:none;stroke-linecap:round;stroke-miterlimit:10;stroke:#13294b;stroke-width:19px}
    </style>
  </defs>
  <circle cx="1270.658" cy="1278.43" r="1156.551" style="fill:#fff"/>
  <path d="M1273.928 1761.271s64.059-220.745 496.489-212.858v717.427s-312.31 7.887-496.489 149.792v-654.361ZM1263.112 1761.271s-64.059-220.745-496.489-212.858v717.427s312.31 7.887 496.489 149.792v-654.361Z" class="cls-4"/>
  <path d="M763.481 1624.555a1577.351 1577.351 0 0 0-48.451 0v701.447s344.767-38.124 548.084 91.648M1773.559 1624.555c15.663-.248 31.809-.248 48.451 0v701.447s-344.767-38.124-548.084 91.648" class="cls-4"/>
  <path d="M713.137 1705.2h-49.706v720.46h1213.613V1705.2h-46.258" class="cls-4"/>
  <path d="M805.027 2135.052s264.356 7.859 420.256 149.42M805.027 1985.108s264.356 7.859 420.256 149.42M805.027 1832.095s264.356 7.859 420.256 149.42M805.027 1679.081s264.356 7.859 420.256 149.42M1736.027 2133.652s-264.356 7.859-420.256 149.42M1736.027 1983.709s-264.356 7.859-420.256 149.42M1736.027 1830.695s-264.356 7.859-420.256 149.42M1736.027 1677.682s-264.356 7.859-420.256 149.42M696.921 670.043c54.945 23.288 216.691 28.348 254.456 193.5M408.023 397.304s-7.583-2.33-1.958-63.99c7.68-84.272 73.462-144.952 147.627-148.896 86.078-4.591 202.296 6.604 208.804 144.001.414 8.811-1.103 68.292 0 74.758m-4.577-1.075c32.236 10.341 26.597 66.513 14.077 77.819-10.506 10.065-18.434 7.445-22.64 15.677-5.446 10.672-12.712 49.871-14.574 66.885-5.253 47.955-24.584 89.787-46.079 110.703-61.922 60.239-156.907 55.731-212.817-7.459-47.458-53.635-43.694-113.874-50.078-181.035-2.289-3.24-16.904 2.578-24.915-5.129-21.675-20.834-9.472-70.994 13.333-87.939 4.26-3.171 13.278-2.633 14.27-4.605l2.909-17.166c13.374-74.055 28.003-101.452 73.655-123.126 20.751-9.844 62.832 18.614 89.304 20.323 27.479 1.779 50.271-27.465 73.958-10.051 36.566 26.859 66.182 97.094 80.397 142.898l9.197 2.206Zm-555.874 461.44c31.809-157.1 260.178-181.973 274.835-187.847" class="cls-4"/>
  <path d="M532.78 428.123c3.185 3.226 2.84 14.257-.11 17.952-10.244 12.809-32.002-4.081-20.02-17.607 3.378-3.805 17.042-3.461 20.13-.345M638.456 446.067c-7.832-9.789-1.641-21.33 12.23-20.144 24.873 2.137 2.041 37.972-12.23 20.144" class="cls-1"/>
  <path d="M555.405 566.411c5.074-3.461 10.272 3.847 14.974 5.929 8.769 3.874 15.291 3.557 25.094.8 6.646-1.875 28.968-19.303 27.714 5.901-1.241 24.818-34.497 30.058-42.991 29.148-10.92-1.186-30.995-9.61-30.154-30.127.193-4.66 3.323-10.258 5.364-11.651Z" class="cls-4"/>
  <path d="M751.987 395.248c-14.519-45.183-44.742-114.467-82.08-140.968-24.198-17.166-47.458 11.665-75.503 9.914-27.024-1.682-69.987-29.754-91.18-20.034-46.603 21.371-61.535 48.396-75.186 121.458l-2.978 16.918c-1.02 1.958-10.217 1.42-14.56 4.55-1.448 1.02-8.066.524-8.066.524s-6.012 2.785-.276-58.047c7.845-83.127 74.992-142.995 150.716-146.883 87.87-4.522 206.529 6.522 213.161 142.057.427 8.686-1.117 67.368 0 73.752l-13.691-2.33" class="cls-1"/>
  <path d="M2196.884 675.901c32.305 25.066 94.433 74.786 110 179.257M1858.28 656.364c-122.133 132.212-137.741 56.544-127.428 14.133m342.079-326.278c-26.073-24.873-86.795-44.59-118.135-82.838-37.944 42.412-70.318 57.758-93.303 75.682-65.699 51.236-68.03 179.905-40.288 251.974 52.077 155.459 241.233 136.335 277.661 6.839 22.212-61.136 23.977-204.034-25.935-251.657Zm-448.08 456.863c17.524-44.852 48.754-81.459 84.837-112.082 5.901-5.005 18.903-11.83 21.164-18.503 1.558-4.578 16.601-58.213 18.283-75.903 4.44-46.796-5.97-103.106-1.475-151.102 1.723-48.878 11.623-139.768 33.229-182.8 21.744-43.322 65.796-63.783 65.796-63.783 67.671-38.744 216.015-31.671 271.112 28.072 39.847 43.197 53.552 163.718 55.896 221.765 1.765 43.418-14.684 80.466-.069 135.053 14.601 54.6 66.913 99.259 66.155 102.003-4.233 15.222-155.376-57.675-159.609-45.321" class="cls-4"/>
  <path d="M1901.908 568.608c11.375 2.137 24.253 10.713 32.967 14.146 16.297 5.998 27.286 7.708 46.617 0 11.747-4.288 51.981-33.118 49.65-5.57-2.303 27.121-50.409 45.004-73.531 43.294-20.268-1.296-69.394-19.579-67.836-42.012.358-5.088 4.936-11.568 12.133-9.859Z" class="cls-4"/>
  <path d="M1901.505 427.037c15.511-2.027 18.338 21.62 5.86 24.46-22.226 5.074-22.13-22.336-5.86-24.46M2014.223 426.992c19.992-3.874 20.42 31.533-3.392 24.515-9.886-2.923-8.494-22.212 3.392-24.515" class="cls-1"/>
  <path d="M1734.601 669.185c1.558-4.577 16.587-58.185 18.269-75.875 4.44-46.769-5.97-103.065-1.475-151.047 1.723-48.864 11.623-139.713 33.215-182.731 21.73-43.294 65.755-63.755 65.755-63.755 67.63-38.716 215.891-31.657 270.96 28.058 39.82 43.197 53.511 163.663 55.855 221.682 1.765 43.405-14.67 80.439-.069 135.011 14.588 54.573 66.872 99.204 66.113 101.962-4.233 15.208-155.597-38.923-159.512-45.307-3.916-6.384 13.746-25.052 18.683-42.591 22.212-61.122 23.963-203.951-25.921-251.561-26.059-24.86-86.74-44.562-118.066-82.796-37.917 42.384-70.277 57.73-93.234 75.64-65.672 51.222-67.988 179.836-40.274 251.878 9.527 28.417 37.062 67.299 37.062 67.299-122.078 132.157-137.672 56.517-127.359 14.133" class="cls-1"/>
  <path d="M1268.157 1648.079v-219.614" class="cls-4"/>
  <path d="M1269.202 1299.034c-12.12-.014-24.267.524-36.345-1.075-5.253-.689-7.501-2.827-8.866-8.397-1.503-6.191-1.503-12.588-2.096-18.889-1.227-12.85-3.709-25.273-9.527-36.731-1.572-3.089-3.792-5.612-5.791-8.342-8.921-12.175-15.374-25.618-17.704-41.06-3.364-22.309.813-43.06 12.257-61.908 12.478-20.585 29.934-33.822 52.339-38.634 24.708-5.322 47.279.372 67.202 17.235 16.78 14.202 26.914 32.857 30.347 55.552 3.516 23.288-1.462 44.562-14.188 63.686-5.184 7.79-11.127 14.974-13.912 24.432-2.716 9.252-4.329 18.641-5.157 28.265-.455 5.391-.552 10.851-1.765 16.146-1.241 5.488-3.805 7.983-9.031 8.645-3.847.496-7.735.965-11.609 1.034-8.714.152-17.442.041-26.156.041" class="cls-1"/>
  <path d="M1268.811 1027.294c-.097-57.068-1.2-45.031-1.269-102.1M1369.568 1057.017c40.288-40.426 30.981-32.691 71.297-73.09M1129.627 1171.986c-57.068.097-45.031 1.2-102.1 1.269M1410.238 1173.258c57.068-.096 45.031-1.2 102.1-1.268M1180.068 1057.017c-40.288-40.426-30.981-32.691-71.297-73.09M1233.723 1331.035c14.009.455 28.017 1.089 42.039.827 10.134-.179 20.254-.62 30.375-.827M1243.511 1368.244c14.009.455 38.813 1.269 52.835 1.02" class="cls-4"/>
  <path d="M1365.412 1160.545c0 53.938-43.198 97.66-96.405 97.66s-96.46-43.721-96.46-97.66 43.198-97.66 96.46-97.66 96.405 43.722 96.405 97.66" class="cls-1"/>
  <path d="M1365.412 1160.545c0 53.938-43.198 97.66-96.405 97.66s-96.46-43.721-96.46-97.66 43.198-97.66 96.46-97.66 96.405 43.722 96.405 97.66Z" style="fill:none;stroke-linecap:round;stroke-miterlimit:10;stroke:#182949;stroke-width:1.6px"/>
  <path d="m439.032 1173.008 445.432-1.034M1268.156 775.727V338.719M1736.843 1171.975l355.136 1.034M1190.164 306.969 877.723 620.727M553.566 947.778l-146.037 145.157M1346.147 306.967l312.44 313.759M1981.357 946.37l147.422 146.56M712.65 1558.302l-305.119-306.359M1819.893 1562.119l308.887-310.176" class="cls-4"/>
  <path d="M300.025 1166.421c0 32.167 26.101 58.254 58.282 58.254s58.268-26.087 58.268-58.254-26.087-58.254-58.268-58.254-58.282 26.087-58.282 58.254M2134.68 1172.49c0 32.167 26.1 58.254 58.281 58.254s58.268-26.087 58.268-58.254-26.087-58.254-58.268-58.254-58.281 26.087-58.281 58.254M1209.866 243.563c0 32.167 26.101 58.254 58.282 58.254s58.268-26.087 58.268-58.254-26.087-58.254-58.268-58.254-58.282 26.087-58.282 58.254" class="cls-1"/>
</svg>
