<svg xmlns="http://www.w3.org/2000/svg" viewBox="0 0 1095.821 1099.35"><defs><clipPath id="clippath"><path d="M105.368 58.908h892.961v796.093H105.368z" style="fill:none"/></clipPath><style>.cls-2{fill:#182949}</style></defs><path d="M550.879 1028.394c266.381 0 482.325-215.944 482.325-482.325S817.261 63.744 550.879 63.744 68.555 279.688 68.555 546.069s215.944 482.325 482.325 482.325" style="fill:#fff"/><path d="M377.103 641.923c-5.462-5.879-16.667-4.991-21.188 1.611-9.077 13.281 7.966 29.019 20.371 18.272 5.908-5.115 6.05-14.251.817-19.883m-52.764-3.551c-14.039 2.587-13.093 26.579 3.316 26.985 19.601.482 18.713-31.047-3.316-26.985m-16.585 6.896c-3.263-1.205-11.852-11.158-14.703-10.435-8.707 7.231-11.111 29.877 5.068 28.378.852 27.073 1.893 57.385 29.618 70.765 34.445 16.626 71.13-4.174 73.27-42.599.37-6.584-.87-13.481-1.358-20.053.547-1.734 12.187-4.762 13.675-12.787 1.482-8.019-3.333-19.501-10.482-23.71-.858.129-13.257 9.412-14.045 10.306-2.269 2.557-.306 4.145-.335 6.62-.282 22.399-32.334 29.095-40.312 7.99-3.68 5.074-6.702 9.495-13.004 11.652-16.679 5.714-31.752-9.377-27.39-26.126m90.441-26.51-22.934 12.511 9.383 7.66 13.551-10.1v-10.071Zm-74.364 12.499c-1.352-5.068.941-10.171 1.382-15.28l-23.628 14.257 9.389 8.654c3.38-3.58 7.743-7.413 12.857-7.631m42.388-19.448-35.433 18.748c8.037 1.193 12.828 6.267 17.361 12.51 2.863-8.783 12.81-13.351 21.552-12.51l-3.48-18.748Zm319.669-72.445c-12.064 1.129-23.022 7.355-30.424 16.832-12.793 16.367-11.999 71.165-3.41 89.502 15.121 32.27 74.087 34.898 87.133.423 7.696-20.347 7.954-75.439-5.326-93.3-9.365-12.587-33.493-14.809-47.973-13.457m-525.43-81.283c-39.042 4.409-42.699 52.388-34.951 82.476 10.5 40.747 74.675 47.202 90.137 10.188 7.796-18.666 8.319-62.6-4.627-78.984-10.629-13.451-34.721-15.468-50.559-13.68m383.904 11.511c2.416-23.469-4.715-39.718-29.177-44.128-13.898-2.504-44.657-3.286-56.38 5.032-11.041 7.843-11.611 25.768-12.663 38.049-.441 1.387-4.156 2.087-5.803 3.233-6.314 4.392-8.113 13.31-7.29 20.494.858 7.543 5.185 7.801 11.511 9.33.952 23.263 1.07 48.802 20.823 64.628 30.782 24.668 78.567 6.996 81.671-34.339.57-7.602-.647-15.256-.611-22.84.294-.835 8.131-4.85 9.894-6.779 8.719-9.506-.306-29.266-11.975-32.681m-30-158.261v-10.418c-19.254-6.097-14.004-35.004.582-43.528.176-8.419-.617-15.668 2.769-23.628 12.799-30.071 60.912-26.979 87.191-21.17 11.588-11.705 26.026-19.689 40.818-26.649-1.323-2.604-2.945-5.044-4.009-7.79-1.223-3.157-2.24-10.941-3.333-12.64-.511-.794-3.886-3.092-5.156-4.58-14.245-16.661-12.164-30.089-8.019-50.348 3.88-18.948 13.063-47.802 32.34-55.892 15.662-6.579 40.412-8.654 56.856-4.756 37.537 8.913 63.146 78.914 38.008 108.597-1.082 1.276-4.909 4.115-5.215 4.691-.994 1.905-1.993 10.47-2.845 13.651-.735 2.763-1.875 5.326-2.722 8.031 33.645 12.775 64.475 40.618 67.485 78.426 10.218-.723 17.878 5.726 19.336 15.791.229 1.564-.547 3.698-.265 4.462.218.6 2.881 3.063 3.663 4.609 2.463 4.85 1.781 9.401.071 14.357 7.778 3.751 10.847 14.039 6.196 21.523-1.54 2.481-5.55 4.65-6.449 6.055-.688 1.07-.717 3.186-1.493 4.756-2.011 4.045-6.825 7.602-11.37 7.737-.564 19.971-.012 41.282-7.584 60.072 6.978 3.857 14.98 6.232 21.106 11.423l-5.256 5.215c-.123-1.434-17.114-9.118-19.783-9.824-14.245 16.679-36.285 21.646-57.326 17.484-10.177-2.011-18.06-6.543-26.038-12.875-1.47-1.17-2.687-3.651-4.715-3.363-2.105.306-11.664 5.362-14.186 6.737-18.583 10.13-37.514 26.673-44.01 47.349 51.459-20.588 110.267 8.566 124.599 61.971 9.665 36.021-2.199 69.731-28.684 94.669-1.293 1.223-5.162 3.463-5.873 4.55-1.058 1.623-2.234 13.004-3.081 16.367-.923 3.657-2.393 7.114-3.563 10.67 17.478 6.714 33.834 17.255 46.221 31.265 17.884 18.154 20.306 34.862 21.182 47.59 2.434 35.151 1.172 18.701 3.047 54.133-.735 5.573-7.496 4.633-7.696-.717-1.969-35.75-.337-20.123-2.959-55.533-2.469-33.31-34.422-59.566-63.675-70.501l-.882.123c-19.659 25.538-63.952 24.386-85.616 1.611-.482-.353-.976-.27-1.529-.218-2.293.235-14.221 6.543-16.979 8.113-21.47 12.193-43.44 35.021-45.427 60.871-1.534 19.9 1.223 41.694-.018 61.806-.847 5.132-7.119 6.279-7.637-1.323-1.111-16.461-1.046-41.212 0-57.708 1.24-19.489 10.271-35.721 22.952-50.001-1.305-21.117 3.498-44.363-4.321-64.416-9.753-25.027-34.627-43.81-59.284-52.664l-.888.182c-19.395 23.828-57.82 23.928-81.071 5.409-1.711-1.358-4.009-5.05-6.108-4.744-20.837 8.679-47.584 35.461-52.402 40.756s-17.758 6.202-3.866-7.317 32.041-30.524 52.264-40.13c-10.218-14.933-11.717-33.698-11.893-51.312-1.687-1.499-3.751-1.917-5.691-3.339-5.673-4.156-6.99-12.228-6.843-18.866-.764-2.263-25.209-15.344-28.002-15.074-3.169 1.587-5.256 5.021-8.078 7.261-16.426 13.004-42.74 14.462-61.571 6.085-7.055-3.139-12.175-7.701-17.931-12.61-23.51 9.424-47.714 26.538-57.949 50.442-6.479 15.121-5.938 30.771-5.52 46.991.382 1.305 12.269 9.912 14.462 11.94 12.211 11.282 22.575 26.99 26.062 43.416.917 4.333 5.027 21.07-3.339 18.654-3.704-1.07-2.263-8.401-2.663-11.27-3.181-22.852-18.219-41.47-36.403-54.604-6.884 32.517-27.719 62.829-62.658 67.955-41.794 6.138-71.935-26.138-81.559-63.787-.582-.441-1.728-8.342-1.728-8.342.071-8.266 5.115-16.814 5.903-24.662.57-5.679-.653-11.317-.717-16.638-.294-24.092-.8-74.751 13.639-94.087 17.849-23.91 47.614-27.326 75.369-21.964 27.314 5.285 37.008 18.66 42.852 44.698 4.98 22.176 5.332 45.592 5.785 68.196l4.262-10.665c11.123-24.098 35.18-42.77 59.666-51.853-1.117-3.139-3.345-5.897-4.503-9.036-1.246-3.398-1.605-9.212-2.828-11.758-.588-1.217-6.367-6.02-7.943-8.037-11.623-14.88-8.989-30.377-5.356-47.696 4.015-19.16 13.128-47.526 32.67-55.562 2.745-1.135 8.619-4.492 21.323-5.779 11.152-.917 21.699-1.493 32.822.535 39.007 7.114 65.269 78.026 40.83 108.503-1.387 1.728-5.52 4.803-6.073 6.426-.952 2.787-1.211 7.872-2.028 11.176-.835 3.369-2.334 6.449-3.004 9.841 9.412 2.61 17.766 8.184 26.073 13.198 2.416-6.343 6.326-10.764 12.046-14.339 1.088-17.425 4.756-36.079 22.664-43.334 7.308-31.941 35.056-54.91 64.316-66.668-1.552-3.745-3.88-7.143-5.397-10.917-4.974-8.278-6.42-31.441-6.42-31.441m-174.88 266.694c19.924-.706 50.919-.241 61.606 18.745 4.944 8.783 3.91 20.753 4.862 30.565 16.114 11.652 22.511 38.055 1.223 48.143 1.964 12.493 1.058 24.192-3.404 36.032-.653 1.734-4.897 9.236-4.186 10.047 9.724 3.263 19.689 8.742 28.019 14.721 19.113 13.722 42.011 42.523 38.737 67.632-.453 3.474-4.668 5.256-6.343 2.622-.782-1.217-1.705-13.116-2.375-16.208-6.467-29.959-34.239-52.405-61.835-62.529-5.973 5.027-10.071 9.677-17.496 13.116-23.163 10.741-52.3 6.014-70.195-12.293-28.249 10.829-57.261 33.569-62.594 65.039-.553 3.263-.359 9.036-1.046 11.458-.8 2.804-4.568 3.375-6.461 1.193-2.928-39.089 31.223-70.354 64.981-83.364.541-.776-4.427-9.242-5.197-11.117-5.444-13.257-5.967-27.784-6.567-41.935-18.919-6.467-13.81-35.509 1.229-43.898-3.827-18.442 6.368-36.833 24.069-43.375 9.732-3.597 19.784-4.481 22.975-4.594Zm60.792-186.007c-7.284-3.363-14.192-8.236-20.377-13.322-7.343-6.044-13.463-13.492-20.741-19.336-16.632 13.545-35.556 23.44-55.398 31.488-.694.541-.617 1.299-.711 2.064-.7 5.861-.112 15.368.012 21.599.523 26.72.417 51.788 28.742 63.652 32.229 13.498 68.725-4.115 67.92-41.423l.553-44.722ZM613.055 675.3l20.641-13.751 14.733-7.419c-1.828-3.345-3.774-6.59-4.991-10.235-1.693-5.062-2.005-14.215-3.645-17.89-.57-1.27-11.958-10.929-14.245-13.545-39.325-44.963-26.079-114.717 25.774-143.065a87.65 87.65 0 0 1 19.06-34.433c1.646-1.828 10.153-9.077 10.465-9.718 1.34-2.698-4.009-16.161-5.597-19.436-7.349-15.15-22.029-28.689-36.268-37.385-2.969-1.817-18.766-10.482-21.041-9.536-17.684 21.652-52.729 23.898-75.721 9.694-3.322-2.058-8.048-7.172-10.512-8.278-.929-.412-1.246-.388-2.216-.235-2.54.4-11 4.962-13.751 6.467-20.623 11.299-38.966 28.713-45.856 51.759 15.45-1.634 33.375-2.834 48.678.329 24.174 5.003 34.874 22.24 33.322 46.415 16.726 11.164 22.699 37.161 2.21 48.19-.253 5.579.947 10.964.611 16.585-.6 9.906-4.121 19.9-8.989 28.46 20.153 9.371 39.613 21.229 52.611 39.713 17.32 24.615 15.097 48.431 14.727 77.315m182.09-373.688c-7.049-.118-10.529-7.531-9.741-13.898-5.932 4.615-11.188 6.631-18.636 4.262-4.727 8.577-15.738 11.511-24.433 6.849-3.022 6.232-11.558 8.924-18.084 8.342 2.046 8.877-2.187 16.614-10.065 20.788 1.717 5.338-1.323 9.406-1.775 14.257-1.046 11.241 1.628 40.289 5.391 50.93 12.787 36.162 79.255 38.854 89.643-1.787 4.033-15.767 3.539-33.51 3.71-49.695-7.008-3.269-9.894-10.629-7.749-18.066-7.59-5.115-10.717-12.963-8.26-21.982m-173.755-52.1-23.122 13.345c-3.233 1.146-4.709 1.164-5.879-2.069-2.069-5.738-1.576-12.546-3.998-18.219-6.355 2.169-34.545 20.582-38.901 20.159-5.373-.523-1.964-10.494-1.57-14.074.094-.864 1.329-1.382-.529-1.217-8.63 4.921-16.92 10.482-25.444 15.556-2.14 1.27-4.427 1.111-6.914 3.51-7.696 7.437-9.506 30.206 6.285 27.461.359 26.297 1.617 56.738 28.025 70.272 35.55 18.225 74.299-3.927 74.857-44.257l-1.44-17.907c21.382-7.149 15.168-31.547-1.781-39.372-.57-.905.412-1.487.412-1.728v-11.458Zm178.61 4.168c-4.686-21.047-19.742-38.19-37.308-49.883-3.239-2.152-23.587-13.845-25.815-12.534-13.727 18.866-44.057 22.834-64.934 15.021-8.372-3.139-14.792-8.383-21.735-13.751-13.898 5.191-27.09 13.063-37.837 23.31l7.995 6.561c3.951 4.715 6.602 10.141 7.272 16.35l.817 19.324c16.202 11.294 23.363 38.096 1.94 48.161 2.21 15.515.306 30.788-7.513 44.498-.188.576-.176 1.093.194 1.605.447.629 9.007 3.88 10.6 4.709 24.762 12.834 48.308 34.151 53.746 62.635 8.836-5.503 17.884-11.358 27.796-14.592-9.318-18.031-9.453-39.142-9.736-59.037-15.127 3.698-25.685-12.852-14.592-24.298-11.993-4.803-15.05-21.288-5.197-29.859 1.246-1.082 5.567-3.057 5.82-3.945.241-.841-.735-3.128-.664-4.733.423-8.977 9.212-14.021 17.461-13.874 1.499-10.929 11.158-18.748 21.864-12.993 1.752-2.064 3.298-4.55 5.656-6.038 2.857-1.805 5.556-1.499 7.848-2.575 1.293-.611 3.092-2.951 5.121-3.915 5.244-2.487 10.488-2.628 15.756-.218 2.851 1.299 4.262 3.616 6.308 4.809 2.892 1.687 7.049 1.687 9.33 5.15 6.049-4.574 13.657-3.862 19.806.112M643.714 111.363c.776 17.684-.788 36.062 2.222 53.534 5.074 29.448 32.552 42.058 60.377 36.467 34.398-6.914 34.157-35.868 34.651-64.693.112-6.432.735-16.267.006-22.299-.112-.917-.035-1.282-.723-2.052-1.017-1.129-9.318-5.473-11.629-7.131-10.435-7.484-19.642-16.52-28.437-25.803-16.749 13.951-36.138 24.21-56.468 31.976" class="cls-2"/><path d="M510.717 526.829c1.076 1.088 1.093 4.127 0 5.221-6.702 2.787-15.203 3.039-22.205 1.346-3.051-.741-7.866-1.887-5.773-6.049 1.558-3.11 10.529.641 13.886.735 3.427.094 12.622-2.734 14.092-1.252M509.674 482.384c4.203-3.898 11.323 1.911 7.184 6.826-4.068 4.833-11.958-2.393-7.184-6.826M470.059 482.384c4.203-3.898 11.323 1.911 7.184 6.826-4.068 4.833-11.958-2.393-7.184-6.826M588.52 283.687c8.031-2.404 7.984 8.613 1.505 7.843-4.509-.535-4.462-6.955-1.505-7.843M548.906 283.687c7.884-2.363 7.943 8.607 1.505 7.843-4.509-.535-4.462-6.955-1.505-7.843M681.662 627.488c1.946-.558 8.001 1.805 10.941 1.993 4.615.3 10.894-1.87 13.886-1.423 3.051.459 3.58 4.597.588 6.114-4.403 2.222-23.698 2.534-26.661-1.534-1.252-1.717-.841-4.55 1.246-5.15M674.727 591.078c-4.65 4.915-11.782-3.034-6.831-7.178 5.174-4.327 10.453 3.351 6.831 7.178M714.342 591.078c-4.65 4.915-11.782-3.034-6.831-7.178 5.174-4.327 10.453 3.351 6.831 7.178M750.416 376.795c1.317-.129 4.497 1.487 6.326 1.734 3.733.506 8.542.541 12.287.123 3.251-.359 6.826-3.616 7.948 2.322-.676 4.727-13.751 4.909-17.537 4.591-2.216-.188-8.954-1.405-10.535-2.663-2.61-2.069-1.44-5.82 1.511-6.108M737.972 332.277c5.767-1.041 8.184 8.219 2.452 9.477-8.025 1.764-8.137-8.454-2.452-9.477M777.587 332.277c5.767-1.041 8.184 8.219 2.452 9.477-8.025 1.764-8.137-8.454-2.452-9.477M159.001 530.914c6.044.858 10.929 2.569 17.243 1.987 3.104-.282 10.764-3.974 10.494 1.758-.253 5.426-16.291 4.85-20.141 4.427-4.474-.494-13.339-2.681-7.596-8.172M186.833 486.511c7.114-1.599 8.542 8.378 2.457 9.477-5.955 1.076-8.207-8.184-2.457-9.477M147.218 486.511c7.237-1.628 8.254 8.442 2.457 9.471-5.973 1.064-8.195-8.184-2.457-9.471M706.012 172.247c-2.175 1.846-13.069 2.475-16.15 2.24-3.386-.259-12.84-1.552-12.193-5.861.8-5.315 10.976-.394 14.997-.359 3.169.029 12.998-3.704 14.121-.247.259 1.093.029 3.545-.776 4.227M665.359 122.573c4.433-4.774 11.664 3.116 6.831 7.178-4.921 4.139-10.735-2.981-6.831-7.178M712.256 122.576c3.621 3.827-1.658 11.505-6.831 7.178-4.95-4.145 2.181-12.093 6.831-7.178M365.451 451.463c-2.704 2.857-15.579 2.851-19.548 2.187-1.358-.229-8.213-2.122-8.642-2.816-.947-1.54.018-5.238 2.34-5.456 1.599-.147 6.92 1.917 9.683 2.122 2.028.147 4.938.141 6.967-.035 2.475-.212 5.203-1.764 7.607-1.387 2.681.412 3.228 3.663 1.593 5.385M326.521 401.068c7.219-2.14 8.93 8.295 2.463 9.483-6.002 1.105-7.619-7.954-2.463-9.483M366.135 401.068c7.219-2.14 8.93 8.295 2.463 9.483-6.002 1.105-7.619-7.954-2.463-9.483M337.609 704.452c-1.217-1.258-.9-4.192.506-5.038 1.299-.788 13.463 2.069 17.643 1.658 3.163-.312 7.607-3.081 9.777-.576 4.356 5.009-5.626 6.673-8.977 6.937-4.004.317-16.161-.1-18.948-2.981M327.513 647.781c6.855-1.252 6.461 10.218-.711 8.084-3.81-1.129-3.275-7.355.711-8.084M367.127 647.781c6.855-1.252 6.461 10.218-.711 8.084-3.81-1.129-3.275-7.355.711-8.084M987.916 615.313a3.449 3.449 0 0 1-3.405-2.945c-4.673-31.381-23.349-46.257-32.69-53.514-3.468-1.223-7.653-2.79-12.751-4.731-7.303-2.779-17.12-6.516-20.307-6.947-8.531 11.649-22.173 19.049-37.421 19.423-10.65.276-23.022-3.209-33.127-12.378-17.493 18.469-29.986 25.33-38.099 20.973-4.3-2.308-6.223-7.28-6.505-12.745l-.121.103c-12.476 10.581-20.829 21.593-25.548 33.666a3.437 3.437 0 0 1-4.467 1.952 3.448 3.448 0 0 1-1.952-4.467c5.138-13.159 14.135-25.066 27.495-36.405.626-.528 1.475-1.131 2.388-1.763.993-.683 2.819-1.952 3.221-2.584l.052-.138c.626-1.969 4.995-17.735 5.466-22.724.666-7.021.23-14.709-.235-22.85-.465-8.153-.947-16.586-.218-24.377.471-13.612 3.336-43.639 10.736-58.377 7.257-14.445 21.587-21.231 22.196-21.512 22.201-12.723 70.313-10.415 88.736 9.571 15.737 17.057 18.154 65.995 18.378 71.518.212 5.207-.373 10.139-.942 14.916-.947 8.026.098 15.985.804 26.547 1.85 27.692 17.528 36.704 16.919 36.79 9.846 9.502 21.179 24.647 24.814 49.041a3.444 3.444 0 0 1-2.905 3.916c-.172.023-.339.04-.511.04ZM811.19 555.065c-1.315 5.517-.855 12.418 2.187 14.049 1.269.683 8.612 2.819 30.061-19.876-4.289-5.133-7.952-11.563-10.598-19.468-8.669-22.5-8.807-64.985 13.744-82.576 2.911-2.268 7.705-4.34 13.262-6.74 9.462-4.082 21.237-9.163 28.356-17.12l2.687-3.003 2.555 3.112c9.99 12.206 15.978 18.82 23.734 26.22 17.631 16.822 15.8 63.521 8.962 82.329a47.101 47.101 0 0 1-3.548 9.008c3.812 1.016 9.599 3.129 18.929 6.683 5.121 1.946 11.821 4.501 16.919 6.155-5.282-6.068-12.59-15.639-15.501-26.53-3.083-11.5-2.021-20.467-.993-29.137.563-4.719 1.091-9.169.901-13.831-.723-17.786-5.11-54.708-16.558-67.12-16.236-17.608-60.512-19.572-80.503-8.124-.379.195-13.044 6.241-19.193 18.487-6.367 12.682-9.484 40.275-10.024 55.724-.695 7.475-.23 15.645.224 23.545.459 8.038.936 16.345.218 23.889-.551 5.804-5.127 22.092-5.822 24.326Zm79.349-124.297c-8.032 7.418-18.975 12.143-27.96 16.018-5.121 2.21-9.542 4.122-11.758 5.85-19.199 14.973-19.635 53.657-11.5 74.796 8.003 23.878 26.186 32.283 40.912 32.283.316 0 .626 0 .936-.011 18.085-.442 33.517-12.424 38.414-29.826 7.165-19.738 6.723-61.971-7.171-75.227-7.326-6.993-13.096-13.274-21.874-23.883Z" class="cls-2"/><path d="M879.775 541.992c-.442 0-.867-.017-1.275-.046-5.81-.373-16.914-4.271-21.713-9.766-1.952-2.228-2.853-4.599-2.681-7.05.138-2.004 1.223-3.984 2.83-5.161 1.481-1.085 3.295-1.458 5.11-1.051 2.79.54 5.523 1.946 7.94 3.186 1.074.545 2.067 1.068 2.922 1.401 4.237 1.556 6.826 2.084 12.028.006.781-.287 1.831-.873 3.054-1.527 5.024-2.693 10.707-5.747 14.606-3.175 1.349.884 2.888 2.721 2.566 6.459-.878 10.386-16.311 16.724-25.388 16.724Zm-18.74-16.236c.023.712.511 1.395.942 1.883 3.347 3.829 12.619 7.148 17 7.429 6.373.408 18.602-4.581 19.302-10.225-1.929.482-5.397 2.342-7.027 3.215-1.585.85-2.962 1.567-3.858 1.895-6.821 2.727-11.23 2.09-16.937 0-1.108-.436-2.319-1.051-3.617-1.717-1.9-.97-4.036-2.067-5.804-2.48Zm37.249-1.82ZM861.211 482.204c4.844-.635 5.732 6.755 1.828 7.649-6.943 1.581-6.914-6.984-1.828-7.649M896.445 482.191c6.249-1.211 6.385 9.859-1.058 7.66-3.092-.911-2.657-6.937 1.058-7.66" class="cls-2"/><path d="M797.948 552.612c.488-1.429 4.474-16.802 4.997-22.328 1.393-14.627 2.763-33.334 4.168-48.331.541-15.274-3.416-44.21 3.333-57.661 6.79-13.533 19.724-17.737 29.859-23.663 5.344-3.122 25.056-11.67 45.133-9.33 18.013 2.093 42.188 10.5 50.33 19.33 12.446 13.498 22.258 52.341 22.993 70.477.553 13.569-4.883 44.639-.321 61.7s13.452 82.373 6.988 78.132c-31.54-20.692-47.722-18.773-51.891-45.434-1.411-9.048 8.927-39.612 10.467-45.091 6.943-19.107 7.49-63.752-8.101-78.632-8.148-7.772-15.009-12.205-24.798-24.157-11.858 13.251-34.075 16.32-41.253 21.923-20.529 16.009-21.253 56.209-12.587 78.726 2.975 8.889 11.582 21.041 11.582 21.041-8.542 43.316-7.984 34.803-40.065 60.795-20.934 16.961-19.806-26.418-10.835-57.497M144.802 405.432c-.419 0-.844-.08-1.257-.241a3.448 3.448 0 0 1-1.952-4.467c5.138-13.159 14.135-25.072 27.495-36.405.62-.528 1.475-1.131 2.394-1.768.987-.683 2.813-1.946 3.215-2.578.017-.046.034-.092.057-.138.62-1.975 4.989-17.735 5.46-22.724.666-7.027.23-14.72-.235-22.861-.471-8.153-.953-16.581-.224-24.371.477-13.618 3.353-43.65 10.742-58.371 7.251-14.445 21.587-21.231 22.196-21.512 22.213-12.717 70.307-10.415 88.736 9.571 15.737 17.057 18.154 65.995 18.378 71.518.212 5.207-.373 10.139-.942 14.916-.947 8.026-1.935 16.322.804 26.547 3.284 12.28 13.4 23.183 17.717 27.839 2.492 2.687 3.519 3.795 2.957 5.845-.316 1.148-1.085 2.073-2.17 2.624-3.301 1.648-9.484-.264-29.033-7.71-7.309-2.779-17.126-6.516-20.312-6.947-8.526 11.649-22.167 19.049-37.415 19.423-10.593.247-23.022-3.209-33.133-12.378-17.499 18.475-29.975 25.319-38.093 20.973-4.3-2.308-6.223-7.274-6.505-12.745l-.115.098c-12.481 10.587-20.835 21.598-25.554 33.672a3.441 3.441 0 0 1-3.209 2.193Zm36.457-43.346c-1.315 5.517-.855 12.418 2.187 14.049 1.269.695 8.612 2.819 30.055-19.882-4.283-5.133-7.946-11.557-10.593-19.463-8.669-22.5-8.807-64.985 13.744-82.576 2.044-1.59 4.317-3.129 6.798-4.794 6.384-4.3 13.618-9.169 21.914-18.441l2.687-3.003 2.555 3.112c5.339 6.522 14.037 11.419 21.713 15.748 5.781 3.255 11.241 6.333 14.921 9.846 17.637 16.827 15.806 63.526 8.962 82.329a47.101 47.101 0 0 1-3.548 9.008c3.812 1.016 9.605 3.129 18.935 6.683 5.121 1.946 11.821 4.501 16.919 6.155-5.282-6.068-12.59-15.639-15.501-26.53-3.083-11.5-2.021-20.467-.993-29.137.563-4.719 1.091-9.169.901-13.831-.723-17.786-5.11-54.708-16.558-67.12-16.242-17.608-60.518-19.566-80.503-8.124-.379.195-13.05 6.241-19.193 18.487-6.361 12.671-9.484 40.263-10.03 55.718-.689 7.475-.224 15.639.23 23.533.459 8.043.936 16.362.218 23.906-.551 5.804-5.127 22.098-5.822 24.326Zm66.655-123.712c-7.825 8.158-14.858 12.889-20.617 16.764-2.337 1.573-4.478 3.014-6.407 4.518-19.199 14.973-19.635 53.657-11.5 74.796 8.175 24.389 26.892 32.88 41.853 32.271 18.079-.442 33.511-12.43 38.403-29.826 7.171-19.738 6.734-61.971-7.171-75.227v-.006c-3.054-2.911-8.147-5.781-13.538-8.824-7.102-4.002-15.025-8.463-21.024-14.468Z" class="cls-2"/><path d="M249.838 349.013c-.442 0-.867-.017-1.275-.046-5.81-.373-16.908-4.271-21.708-9.766-1.952-2.228-2.853-4.599-2.681-7.05.138-2.004 1.223-3.984 2.83-5.161 1.475-1.085 3.29-1.458 5.11-1.051 2.79.54 5.529 1.946 7.952 3.186 1.068.551 2.055 1.068 2.905 1.401 4.243 1.556 6.844 2.078 12.034.006.781-.287 1.831-.873 3.054-1.527 5.024-2.698 10.713-5.753 14.606-3.175 1.349.884 2.888 2.721 2.566 6.459-.878 10.386-16.317 16.724-25.393 16.724Zm-18.734-16.236c.023.712.511 1.395.942 1.889 3.347 3.824 12.613 7.142 16.994 7.423 6.304.379 18.602-4.581 19.308-10.225-1.929.482-5.397 2.342-7.027 3.215-1.585.85-2.962 1.567-3.858 1.895-6.844 2.739-11.092 2.153-16.942 0-1.108-.436-2.314-1.045-3.605-1.711-1.9-.976-4.036-2.073-5.81-2.486Zm37.249-1.82ZM231.278 285.059c4.844-.635 5.732 6.755 1.828 7.649-6.943 1.581-6.914-6.984-1.828-7.649M266.512 285.045c6.249-1.211 6.385 9.859-1.058 7.66-3.092-.911-2.657-6.937 1.058-7.66" class="cls-2"/><path d="M179.106 360.751c.488-1.429 5.185-18.19 5.709-23.716 1.393-14.621-1.864-32.217-.459-47.214.541-15.274 3.633-43.675 10.382-57.12 6.79-13.533 20.553-19.93 20.553-19.93 21.141-12.105 67.485-9.894 84.699 8.771 12.446 13.498 16.726 51.159 17.461 69.29.547 13.569-4.586 25.144-.024 42.205s20.906 31.012 20.671 31.87c-1.323 4.756-48.637-12.164-49.866-14.162-1.223-1.993 4.298-7.831 5.844-13.31 6.937-19.107 7.49-63.752-8.107-78.637-8.142-7.772-27.114-13.927-36.902-25.879-11.852 13.251-21.97 18.049-29.148 23.645-20.524 16.014-21.253 56.215-12.587 78.732 2.975 8.889 11.588 21.041 11.588 21.041-38.161 41.312-43.034 17.666-39.813 4.415" class="cls-2"/><path d="M522.769 341.963a3.454 3.454 0 0 1-3.359-2.693c-8.646-38.363-40.137-46.71-60.972-52.239-4.65-1.234-8.738-2.314-11.988-3.583-9.53 9.306-21.73 14.244-34.706 13.687-11.103-.408-21.484-4.736-29.757-12.298-.798.281-2.027.534-4.61 1.062-44.672 9.106-69.974 27.03-75.216 53.29-.379 1.86-2.193 3.06-4.059 2.704a3.448 3.448 0 0 1-2.704-4.059c5.833-29.234 32.955-48.984 80.601-58.692.195-.04.385-.075.568-.115-11.333-14.1-12.43-29.47-13.595-45.706-.149-2.153-.31-4.323-.488-6.528-2.044.172-4.587-.23-6.671-2.262-3.186-3.106-4.736-7.957-4.375-13.658.333-5.207 2.182-10.403 4.92-14.261-.769-3.066-.976-8.681-.029-19.21 2.36-26.203 22.724-46.963 47.376-48.301 15.283-.827 37.335-.402 51.849 12.728 8.732 7.894 13.509 19.417 14.198 34.235.052 1.091.011 4.731-.04 8.824-.04 3.795-.115 9.703-.052 12.321 2.624 2.021 4.478 5.161 5.345 9.169 1.481 6.826-.132 15.226-3.525 18.337-1.895 1.837-3.72 2.629-4.926 3.152-1.005.431-1.028.477-1.097.609-1.263 2.526-3.428 13.767-4.007 19.107-1.217 11.316-5.098 22.425-10.34 30.21 2.561.844 5.667 1.665 9.088 2.572 21.087 5.592 56.373 14.95 65.938 57.389a3.445 3.445 0 0 1-2.607 4.122 3.489 3.489 0 0 1-.764.086ZM364.375 219.841c1.424 0 3.049.247 4.128 1.814l.511.741.086.896c.304 3.232.528 6.413.752 9.536 1.177 16.414 2.193 30.589 13.388 43.427 7.515 8.612 17.729 13.584 28.763 13.991 11.058.373 21.627-3.818 29.826-11.919 6.373-6.287 11.385-18.647 12.768-31.485.505-4.622 2.71-17.493 4.702-21.461 1.217-2.417 3.123-3.244 4.518-3.847 1.005-.431 1.872-.81 2.934-1.837 1.068-.993 2.681-6.579 1.504-11.913-.7-3.169-2.136-5.156-4.266-5.902l-4.518-1.097-.574-1.883c-4.49-14.692-13.153-34.396-22.798-41.578-2.319-1.728-4.444-1.074-9.088.965-3.255 1.424-6.918 3.072-11.178 2.762-3.76-.241-8.101-1.935-12.298-3.577-4.61-1.797-10.346-4.036-12.677-2.922-12.235 5.89-16.184 12.728-20.123 34.843l-1.183 6.155c-.919 1.82-2.739 2.141-4.071 2.371-.408.075-1.097.195-1.326.304-.333.247-.654.54-.97.861a3.355 3.355 0 0 1-.568.632c-2.274 2.733-4.019 7.245-4.294 11.591-.235 3.663.586 6.608 2.302 8.285.39.385 1.872.304 2.733.276.316-.017.66-.029 1.016-.029Zm48.203-84.097c-2.985 0-5.85.103-8.503.247-21.248 1.148-38.822 19.216-40.877 42.031-.603 6.729-.666 10.903-.557 13.452.27-.075.534-.132.792-.184l.511-3.066c3.898-21.885 8.078-32.254 23.918-39.884 5.035-2.411 11.718.189 18.177 2.71 3.709 1.447 7.544 2.945 10.242 3.123 2.555.161 5.19-.982 7.969-2.205 4.547-1.986 10.202-4.461 15.972-.178 10.598 7.894 18.515 26.054 22.551 37.071.017-1.217.029-2.566.046-4.053.052-3.904.098-7.377.046-8.422-.603-12.918-4.616-22.827-11.936-29.447-10.231-9.249-25.451-11.195-38.351-11.195Z" class="cls-2"/><path d="M399.084 206.432c.97.976.864 4.327-.035 5.45-3.11 3.892-9.712-1.24-6.073-5.344 1.023-1.152 5.174-1.052 6.108-.106M431.164 211.88c-2.381-2.969-.5-6.473 3.716-6.114 7.549.647.617 11.529-3.716 6.114M414.042 264.462c-.35 0-.654-.011-.907-.04-4.88-.517-12.499-4.392-12.16-12.579.092-2.302 1.493-5.075 3.123-6.183l.006-.006c3.083-2.096 6.034.132 7.154.982.235.178.459.373.689.494 1.688.735 2.767.752 5.213.069.235-.086.603-.287 1.033-.505 2.371-1.2 5.959-2.997 9.019-1.022 1.929 1.257 2.825 3.542 2.664 6.786-.161 3.089-1.527 5.816-3.956 7.894-3.743 3.204-9.146 4.111-11.879 4.111Zm-6.166-11.758c.31 4.139 5.925 4.857 5.988 4.863.959.098 5.207-.431 7.578-2.457.993-.85 1.487-1.803 1.544-3.003 0-.017.006-.04.006-.063-.609.258-1.28.597-1.694.804-.924.471-1.74.838-2.285.993-3.359.936-6.195 1.2-9.858-.408a7.41 7.41 0 0 1-1.28-.729ZM465.07 195.798c-4.403-13.298-13.586-33.698-24.921-41.5-7.337-5.056-14.404 3.433-22.916 2.922-8.201-.494-21.247-8.76-27.678-5.903-14.145 6.296-18.683 14.251-22.828 35.756l-.899 4.985c-.306.57-3.104.417-4.421 1.335-.435.306-2.452.153-2.452.153s-1.822.823-.082-17.084c2.387-24.474 22.769-42.094 45.75-43.24 2.822-.141 5.738-.229 8.713-.229 3.222 0 6.508.1 9.789.359 22.381 1.746 44.639 10.565 46.215 41.688.129 2.557-.341 19.836 0 21.711l-4.162-.688" class="cls-2"/><path d="M572.392 348.013c-19.945 0-25.703-15.662-26.295-17.453l-1.206-3.628 26.674-7.039 27.627 5.822-.436 3.295c-1.114 8.388-8.554 17.786-26.1 19.003h-.264Zm-17.775-16.225c2.354 3.743 7.481 9.054 17.58 9.054h.189c12.085-.844 16.615-5.896 18.309-9.582l-18.946-3.996-17.132 4.524Z" class="cls-2" style="clip-path:url(#clippath)"/><text style="fill:#13294b;font-family:MyriadPro-Regular,&quot;Myriad Pro&quot;;font-size:103px" transform="translate(264.528 918.129)"><tspan x="0" y="0" style="letter-spacing:-.021em">C</tspan><tspan x="57.576" y="0">OMMUNI</tspan><tspan x="453.193" y="0" style="letter-spacing:.028em">T</tspan><tspan x="507.268" y="0">Y</tspan></text></svg>