<?xml version="1.0" encoding="UTF-8"?>
<svg id="Ebene_17" data-name="Ebene 17" xmlns="http://www.w3.org/2000/svg" viewBox="0 0 1622.619 1230.906">
  <defs>
    <style>
      .cls-1 {
        fill: #0084ff;
      }

      .cls-2 {
        fill: #182949;
      }

      .cls-3 {
        fill: #fff;
      }

      .cls-4 {
        stroke: #13294b;
      }

      .cls-4, .cls-5 {
        fill: none;
        stroke-linecap: round;
        stroke-miterlimit: 10;
        stroke-width: 6px;
      }

      .cls-5 {
        stroke: #0084ff;
      }
    </style>
  </defs>
  <path class="cls-3" d="M825.287,1106.068c266.381,0,482.325-215.944,482.325-482.325s-215.944-482.325-482.325-482.325-482.325,215.944-482.325,482.325,215.944,482.325,482.325,482.325"/>
  <path class="cls-4" d="M804.658,863.407c-61.371,3.719-108.258,23.835-108.258,48.092,0,26.9,57.661,48.705,128.783,48.705s128.783-21.805,128.783-48.705c0-24.315-47.114-44.471-108.698-48.118"/>
  <path class="cls-4" d="M696.401,947.965c0,26.9,57.697,48.705,128.872,48.705s128.872-21.805,128.872-48.705"/>
  <path class="cls-4" d="M768.477,973.909c17.109,3.181,36.359,4.967,56.706,4.967s39.428-1.768,56.479-4.922"/>
  <path class="cls-4" d="M768.477,1025.811c17.109,3.181,36.359,4.967,56.706,4.967s39.428-1.768,56.479-4.922"/>
  <path class="cls-4" d="M768.477,1073.001c17.109,3.181,36.359,4.967,56.706,4.967s39.428-1.768,56.479-4.922"/>
  <path class="cls-4" d="M768.477,1124.478c17.109,3.181,36.359,4.967,56.706,4.967s39.428-1.768,56.479-4.922"/>
  <path class="cls-4" d="M696.401,996.227c0,26.9,57.697,48.705,128.872,48.705s128.872-21.805,128.872-48.705"/>
  <path class="cls-4" d="M696.401,1062.806c0,26.9,57.697,48.705,128.872,48.705s128.872-21.805,128.872-48.705"/>
  <path class="cls-4" d="M696.401,1044.215c0,26.9,57.697,48.705,128.872,48.705s128.872-21.805,128.872-48.705"/>
  <path class="cls-4" d="M696.401,1010.882c0,26.9,57.697,48.705,128.872,48.705s128.872-21.805,128.872-48.705"/>
  <path class="cls-4" d="M696.401,963.692c0,26.9,57.697,48.705,128.872,48.705s128.872-21.805,128.872-48.705"/>
  <path class="cls-4" d="M696.401,1095.254c0,26.9,57.697,48.705,128.872,48.705s128.872-21.805,128.872-48.705"/>
  <line class="cls-4" x1="696.401" y1="912.845" x2="696.401" y2="1095.504"/>
  <line class="cls-4" x1="747.891" y1="951.098" x2="747.891" y2="985.399"/>
  <line class="cls-4" x1="901.257" y1="951.098" x2="901.257" y2="985.399"/>
  <line class="cls-4" x1="747.891" y1="1003.29" x2="747.891" y2="1034.726"/>
  <line class="cls-4" x1="901.257" y1="1003.29" x2="901.257" y2="1034.726"/>
  <line class="cls-4" x1="747.891" y1="1050.411" x2="747.891" y2="1081.847"/>
  <line class="cls-4" x1="901.257" y1="1050.411" x2="901.257" y2="1081.847"/>
  <g>
    <line class="cls-4" x1="747.891" y1="1102.677" x2="747.891" y2="1134.113"/>
    <line class="cls-4" x1="901.257" y1="1102.677" x2="901.257" y2="1134.113"/>
  </g>
  <line class="cls-4" x1="954.157" y1="912.845" x2="954.157" y2="1095.504"/>
  <path class="cls-4" d="M809.352,879.616c-39.997,2.799-70.283,16.011-70.283,31.885,0,17.908,38.553,32.427,86.116,32.427s86.116-14.519,86.116-32.427c0-15.585-29.179-28.597-68.079-31.72"/>
  <path class="cls-2" d="M1048.157,629.909c2.141.466,4.069,1.253,5.775,2.359s3.079,2.581,4.118,4.42c1.04,1.844,1.559,4.136,1.559,6.882,0,3.216-.555,5.86-1.657,7.939-1.106,2.075-2.563,3.683-4.372,4.82-1.808,1.137-3.834,1.924-6.078,2.359-2.243.44-4.505.653-6.784.653h-1.604c-.737,0-1.51-.013-2.31-.049-.804-.031-1.577-.067-2.315-.102-.737-.031-1.271-.116-1.604-.249v-29.135c.937-.267,2.208-.435,3.816-.502,1.608-.067,3.279-.102,5.025-.102,2.141,0,4.283.235,6.429.706M1024.549,693.096h8.339v-26.723c.333.067.902.138,1.706.204s1.622.116,2.461.147c.835.036,1.639.053,2.412.053h1.657c3.483,0,6.864-.404,10.147-1.208,3.279-.804,6.193-2.124,8.739-3.967,2.546-1.839,4.589-4.234,6.131-7.184,1.537-2.945,2.31-6.562,2.31-10.849,0-4.354-.822-7.935-2.461-10.751-1.644-2.812-3.767-5.02-6.38-6.628-2.612-1.608-5.509-2.714-8.69-3.314-3.185-.604-6.313-.906-9.396-.906-2.879,0-5.793.102-8.739.302-2.95.2-5.695.604-8.237,1.204v69.621ZM988.586,693.096h8.339v-70.323h-8.339v70.323ZM952.622,693.096h8.339v-70.323h-8.339v30.641h-33.755v-30.641h-8.339v70.323h8.339v-32.245h33.755v32.245ZM879.034,680.439c-.84,1.475-1.959,2.697-3.363,3.67-1.408.969-3.083,1.675-5.025,2.106-1.946.44-4.021.653-6.229.653-3.754,0-7.135-.404-10.147-1.222-3.012-.813-5.291-1.648-6.833-2.492l-2.812,7.433c1.808.937,4.354,1.795,7.637,2.563,3.279.769,7.432,1.155,12.457,1.155,3.75,0,7.095-.471,10.045-1.408,2.946-.937,5.46-2.275,7.535-4.016,2.075-1.742,3.647-3.821,4.722-6.229,1.071-2.412,1.608-5.127,1.608-8.139,0-3.683-.84-6.766-2.515-9.241-1.675-2.479-3.767-4.607-6.277-6.38-2.51-1.777-5.242-3.332-8.188-4.674-2.95-1.337-5.678-2.697-8.188-4.069s-4.607-2.928-6.278-4.669c-1.675-1.742-2.515-3.918-2.515-6.531,0-2.679,1.106-5.007,3.319-6.984,2.208-1.973,5.522-2.963,9.943-2.963,3.75,0,7.117.347,10.098,1.04,2.981.689,5.238,1.417,6.779,2.177l2.515-7.437c-1.879-.937-4.492-1.706-7.837-2.31-3.35-.6-7.068-.902-11.151-.902-7.033,0-12.457,1.608-16.278,4.82-3.816,3.216-5.727,7.57-5.727,13.061,0,3.883.84,7.082,2.515,9.592,1.67,2.515,3.767,4.625,6.277,6.331,2.51,1.71,5.242,3.163,8.188,4.372,2.945,1.204,5.678,2.497,8.188,3.865,2.51,1.377,4.603,2.95,6.278,4.723,1.675,1.777,2.515,4.069,2.515,6.882,0,2.008-.422,3.754-1.257,5.225M799.133,645.178l2.497-10.849h.102l2.497,10.649,7.797,21.396h-20.592l7.699-21.196ZM821.724,693.096h8.841l-26.723-71.429h-3.821l-26.62,71.429h8.339l6.997-19.49h25.79l7.197,19.49ZM768.879,622.774h-52.139v7.437h21.902v62.886h8.339v-62.886h21.898v-7.437ZM680.79,645.178l2.497-10.849h.102l2.497,10.649,7.797,21.396h-20.592l7.699-21.196ZM703.381,693.096h8.841l-26.723-71.429h-3.821l-26.62,71.429h8.339l6.997-19.49h25.79l7.197,19.49ZM621.454,631.966c3.048,1.71,5.478,3.905,7.286,6.58,1.808,2.683,3.079,5.678,3.816,8.992.737,3.319,1.106,6.615,1.106,9.898,0,3.75-.404,7.384-1.208,10.898-.804,3.519-2.159,6.633-4.069,9.343-1.906,2.714-4.452,4.874-7.632,6.482-3.181,1.608-7.117,2.412-11.804,2.412-.338,0-.973-.018-1.91-.053-.937-.031-1.91-.067-2.914-.098-1.004-.036-1.977-.067-2.91-.102-.942-.031-1.577-.084-1.91-.151v-56.257c.466-.067,1.12-.133,1.959-.204.835-.062,1.759-.133,2.763-.2s2.026-.098,3.061-.098h2.865c4.62,0,8.454.853,11.502,2.559M590.964,693.199c.671.133,1.773.235,3.314.302,1.542.067,3.216.151,5.025.249,1.808.102,3.567.169,5.273.204,1.71.031,3.097.049,4.172.049,6.091,0,11.284-1.022,15.571-3.065,4.283-2.039,7.766-4.754,10.445-8.134,2.679-3.385,4.638-7.268,5.878-11.658,1.239-4.385,1.861-8.956,1.861-13.71,0-5.225-.653-10.014-1.959-14.368-1.306-4.354-3.301-8.086-5.98-11.2-2.679-3.114-6.078-5.544-10.196-7.286-4.118-1.742-8.992-2.612-14.616-2.612-1.408,0-2.932.018-4.571.053-1.644.031-3.314.067-5.025.098-1.706.036-3.35.102-4.922.2-1.573.102-2.999.253-4.269.453v70.425Z"/>
  <path class="cls-2" d="M1169.811,552.122c-2.177,1.373-5.309,2.061-9.392,2.061-1.742,0-3.434-.133-5.073-.404-1.644-.267-3.199-.604-4.674-1.004-1.475-.4-2.794-.835-3.967-1.306-1.173-.466-2.128-.906-2.861-1.306l-4.42,11.755c1.808.937,4.62,1.875,8.437,2.812,3.816.937,8.237,1.408,13.261,1.408,3.816,0,7.317-.44,10.498-1.306,3.181-.871,5.895-2.212,8.139-4.021,2.244-1.808,3.985-4.069,5.225-6.779,1.235-2.714,1.857-5.944,1.857-9.698s-.786-6.882-2.359-9.392c-1.577-2.51-3.554-4.62-5.931-6.331-2.377-1.706-4.954-3.163-7.735-4.367-2.781-1.208-5.358-2.377-7.735-3.519-2.377-1.137-4.354-2.377-5.926-3.714-1.577-1.342-2.363-3.017-2.363-5.025,0-2.141.857-3.852,2.563-5.122,1.706-1.271,4.167-1.91,7.384-1.91,3.416,0,6.597.387,9.543,1.155,2.95.773,5.158,1.626,6.633,2.563l4.318-11.555c-2.346-1.337-5.322-2.359-8.939-3.061-3.616-.706-7.472-1.057-11.555-1.057-3.55,0-6.766.404-9.645,1.204-2.879.804-5.376,2.048-7.481,3.719-2.11,1.675-3.736,3.767-4.874,6.277-1.142,2.515-1.71,5.478-1.71,8.894,0,3.949.786,7.197,2.364,9.743,1.573,2.546,3.55,4.674,5.926,6.38,2.377,1.71,4.954,3.15,7.735,4.323,2.781,1.168,5.358,2.31,7.735,3.412,2.377,1.106,4.354,2.328,5.931,3.67,1.573,1.342,2.359,3.079,2.359,5.225,0,2.812-1.088,4.905-3.265,6.278M1126.967,494.407h-54.853v12.257h20.596v58.065h13.763v-58.065h20.494v-12.257ZM1061.469,550.664c-1.542.937-3.35,1.71-5.429,2.31-2.075.604-4.62.906-7.632.906-3.216,0-6.046-.586-8.49-1.764-2.443-1.173-4.487-2.817-6.126-4.931-1.644-2.115-2.865-4.665-3.67-7.65-.804-2.985-1.204-6.295-1.204-9.916,0-8.321,1.688-14.465,5.073-18.424,3.381-3.958,7.85-5.94,13.412-5.94,3.012,0,5.575.169,7.686.502,2.106.338,3.932.871,5.473,1.608l2.714-11.653c-1.808-.737-4.105-1.373-6.882-1.91-2.781-.533-6.18-.804-10.2-.804-3.75,0-7.499.622-11.249,1.857-3.754,1.244-7.153,3.283-10.2,6.131-3.048,2.848-5.522,6.597-7.433,11.253-1.91,4.656-2.861,10.431-2.861,17.326,0,6.633.853,12.275,2.559,16.931,1.71,4.656,4.003,8.437,6.882,11.351,2.879,2.914,6.211,5.025,9.996,6.331,3.785,1.306,7.788,1.959,12.004,1.959,3.483,0,6.886-.333,10.2-1,3.314-.662,6.042-1.759,8.188-3.288l-2.812-11.187ZM955.583,564.73h42.192v-12.257h-28.429v-17.18h25.416v-12.257h-25.416v-16.371h27.926v-12.257h-41.69v70.323ZM920.521,542.325c0,3.416-.386,6.162-1.155,8.237-.769,2.079-2.563,3.114-5.376,3.114-2.208,0-4.185-.431-5.926-1.302l-3.012,11.249c1.675.737,3.647,1.306,5.926,1.71,2.275.4,4.385.6,6.331.6,3.079,0,5.691-.551,7.832-1.657,2.146-1.106,3.901-2.577,5.278-4.42,1.368-1.839,2.359-3.967,2.963-6.38.6-2.408.902-4.954.902-7.632v-51.437h-13.763v47.918ZM858.64,523.942v-18.592c.804-.129,1.941-.227,3.416-.293,1.47-.067,3.079-.102,4.82-.102,1.542,0,3.017.133,4.42.4,1.408.267,2.666.729,3.767,1.391,1.106.662,1.995,1.555,2.666,2.683.666,1.128,1.004,2.55,1.004,4.274,0,2.586-.924,4.674-2.763,6.264-1.844,1.59-4.038,2.786-6.58,3.581-.804.129-1.826.231-3.065.298-1.24.067-2.328.098-3.265.098h-4.42ZM865.219,554.134c-.902-.036-1.773-.067-2.612-.102-.835-.031-1.622-.084-2.359-.151-.737-.062-1.275-.164-1.608-.298v-19.192h7.335c1.742,0,3.479.098,5.225.298,1.737.2,3.314.644,4.718,1.342,1.408.698,2.546,1.675,3.416,2.937.871,1.257,1.306,2.981,1.306,5.171,0,1.724-.369,3.216-1.102,4.474-.742,1.262-1.71,2.306-2.914,3.132-1.208.831-2.599,1.444-4.172,1.839-1.573.4-3.199.6-4.869.6-.671,0-1.457-.018-2.363-.049M890.484,502.142c-1.47-2.275-3.43-4.052-5.873-5.327-2.448-1.271-5.225-2.159-8.339-2.661s-6.313-.751-9.596-.751c-1.941,0-3.901.031-5.878.098-1.977.067-3.901.169-5.775.302s-3.634.302-5.273.502c-1.644.2-3.101.404-4.372.604v69.319c1.742.4,3.665.702,5.775.902,2.11.204,4.185.355,6.229.453,2.044.102,3.954.151,5.727.151h4.372c3.483,0,6.864-.4,10.147-1.204,3.279-.804,6.211-2.044,8.792-3.719,2.577-1.675,4.634-3.834,6.175-6.482,1.542-2.643,2.31-5.775,2.31-9.392,0-2.746-.387-5.122-1.155-7.13-.769-2.013-1.826-3.719-3.163-5.127-1.342-1.404-2.914-2.51-4.723-3.314s-3.719-1.373-5.727-1.706v-.604c2.279-.538,4.221-1.355,5.829-2.461,1.608-1.106,2.914-2.377,3.918-3.816,1.004-1.439,1.724-3.03,2.159-4.771.435-1.742.653-3.483.653-5.225,0-3.483-.737-6.362-2.212-8.641M785.705,511.134c2.679-3.918,6.464-5.878,11.355-5.878,2.812,0,5.189.618,7.13,1.857,1.941,1.239,3.514,2.963,4.723,5.176,1.204,2.208,2.092,4.789,2.661,7.735.569,2.95.853,6.126.853,9.543,0,8.574-1.337,14.767-4.016,18.588-2.679,3.816-6.464,5.727-11.351,5.727-2.683,0-4.994-.604-6.935-1.808-1.941-1.208-3.532-2.879-4.771-5.025-1.239-2.141-2.159-4.705-2.763-7.686-.6-2.981-.902-6.242-.902-9.796,0-8.37,1.337-14.514,4.016-18.432M769.027,544.538c1.208,4.487,3.03,8.339,5.478,11.551,2.443,3.216,5.54,5.696,9.294,7.437,3.75,1.737,8.17,2.612,13.261,2.612,9.507,0,16.86-3.168,22.049-9.494,5.189-6.331,7.788-15.354,7.788-27.078,0-5.491-.604-10.48-1.808-14.967-1.208-4.487-3.052-8.339-5.527-11.555-2.479-3.212-5.593-5.691-9.343-7.433-3.754-1.742-8.139-2.612-13.159-2.612-9.583,0-16.949,3.163-22.102,9.494-5.158,6.331-7.739,15.354-7.739,27.073,0,5.496.604,10.485,1.808,14.972M734.17,534.693h-11.955l-6.429.804,5.025-3.821,10.445-13.563,3.416-7.233h.404l-.906,8.441v15.372ZM757.378,534.693h-11.053v-40.788h-10.747l-31.849,43.8v7.433h30.441v19.592h12.155v-19.592h11.053v-10.445ZM676.007,564.73h13.763v-70.323h-13.763v70.323ZM632.007,507.766c2.475,1.408,4.434,3.216,5.873,5.425,1.439,2.212,2.43,4.709,2.968,7.486.533,2.781.8,5.544.8,8.29,0,3.145-.298,6.211-.902,9.192-.604,2.981-1.657,5.611-3.163,7.886-1.51,2.279-3.554,4.101-6.131,5.473-2.577,1.373-5.811,2.061-9.694,2.061-.338,0-.84-.018-1.506-.049-.671-.036-1.373-.067-2.11-.102-.737-.031-1.426-.067-2.061-.102-.635-.031-1.088-.08-1.355-.151v-47.114c.737-.133,1.857-.235,3.368-.302,1.506-.067,2.994-.102,4.469-.102,3.816,0,6.966.706,9.445,2.11M600.962,564.832c.871.133,2.177.249,3.918.351,1.742.098,3.567.2,5.473.302,1.91.098,3.754.182,5.527.249,1.773.067,3.199.102,4.269.102,6.766,0,12.439-1.04,17.029-3.114,4.589-2.075,8.29-4.825,11.102-8.241,2.812-3.412,4.82-7.33,6.029-11.751,1.204-4.42,1.808-9.01,1.808-13.763,0-5.225-.64-10.014-1.91-14.367-1.275-4.354-3.283-8.103-6.029-11.253-2.746-3.145-6.326-5.589-10.747-7.33-4.42-1.742-9.747-2.612-15.976-2.612-1.404,0-2.999.013-4.771.049-1.777.036-3.603.084-5.473.151-1.879.067-3.705.169-5.478.302s-3.363.298-4.771.502v70.425ZM541.288,564.73h13.763v-28.433h25.718v-12.253h-25.718v-17.38h27.931v-12.257h-41.694v70.323ZM510.549,565.232h10.045v-70.825h-13.057v36.967l1.604,10.751h-.502l-5.322-10.751-26.625-37.469h-10.045v70.825h13.061v-36.67l-1.608-11.049h.502l5.527,11.049,26.42,37.172Z"/>
  <path class="cls-4" d="M826.266,193.95s20.685-71.269,160.295-68.723v231.622s-100.83,2.546-160.295,48.363v-211.261Z"/>
  <path class="cls-4" d="M822.774,193.95s-20.685-71.269-160.295-68.723v231.622s100.83,2.546,160.295,48.363v-211.261Z"/>
  <g>
    <path class="cls-4" d="M661.466,149.81c-5.056-.08-10.271-.08-15.643,0v226.464s111.306-12.306,176.951,29.592"/>
    <path class="cls-4" d="M987.574,149.81c5.056-.08,10.271-.08,15.643,0v226.464s-111.306-12.306-176.951,29.592"/>
  </g>
  <polyline class="cls-4" points="645.213 175.845 629.166 175.845 629.166 408.449 1020.985 408.449 1020.985 175.845 1006.049 175.845"/>
  <g>
    <path class="cls-4" d="M674.88,314.623s85.348,2.541,135.678,48.238"/>
    <path class="cls-4" d="M674.88,266.216s85.348,2.541,135.678,48.238"/>
    <path class="cls-4" d="M674.88,216.814s85.348,2.541,135.678,48.238"/>
    <path class="cls-4" d="M674.88,167.413s85.348,2.541,135.678,48.238"/>
    <path class="cls-4" d="M975.456,314.172s-85.348,2.541-135.678,48.238"/>
    <path class="cls-4" d="M975.456,265.765s-85.348,2.541-135.678,48.238"/>
    <path class="cls-4" d="M975.456,216.362s-85.348,2.541-135.678,48.238"/>
    <path class="cls-4" d="M975.456,166.962s-85.348,2.541-135.678,48.238"/>
    <path class="cls-4" d="M1219.814,703.609c-1.142,4.474-2.661,11.946-3.39,16.695.076,1.044-.902,2.195-2.186,2.572-4.767,1.16-13.906,5.002-20.414,8.583-.995.817-2.919.635-4.296-.413-3.03-1.733-8.899-5.767-13.11-9.01-1.186-1.55-3.519-1.355-5.202.444-2.181,2.159-7.619,7.135-12.151,11.115-1.137,1.519-1.248,3.932-.244,5.389q2.914,4.238,6.611,9.427c2.039,2.861,3.541,5.926,3.354,6.842-3.652,6.682-7.717,15.656-9.081,20.05.124,1.595-1.71,3.172-4.101,3.514-2.923.591-9.418,1.928-14.505,2.99-2.381-.08-4.292,1.715-4.265,4.003,0,3.176.116,10.12.258,15.514-.342,1.937,1.453,4.021,4.007,4.651,3.119,1.271,10.089,2.834,15.567,3.487.8-.218,1.786.635,2.199,1.906,1.075,5.193,5.189,15.012,9.187,21.929.76.826.595,2.768-.36,4.34-2.035,2.706-6.024,8.348-8.912,12.608-1.271.991-1.16,2.928.244,4.327,2.95,2.977,9.014,9.027,13.55,13.519.946.826,2.563.817,3.616-.022,3.052-1.906,8.992-6.171,13.261-9.525,1.004-1.146,3.154-1.293,4.807-.32,8.645,3.723,17.118,7.166,18.917,7.69,1.524-.036,2.977,1.617,3.243,3.687.431,3.101,1.195,8.237,1.715,11.466-.262,4.571,1.879,8.272,4.78,8.272,5.016.004,11.147.133,16.158.133,1.901-.307,3.865-3.621,4.394-7.41.773-3.03,2.11-9.285,2.99-13.963.489-1.026,2.035-2.168,3.452-2.555,9.019-3.599,16.913-6.868,17.628-7.295.822-1.453,3.123-1.182,5.149.6,5.798,3.723,12.048,8.055,13.959,9.676.729.924,2.172.831,3.225-.204,2.83-3.048,8.788-9.112,13.301-13.55,1.208-.711,1.315-2.443.24-3.87-1.884-2.861-5.869-8.601-8.903-12.821-1.106-1.297-1.235-3.621-.298-5.18,2.692-4.185,6.406-13.439,8.294-20.667.897-1.346,3.221-2.657,5.198-2.928,6.62-1.151,12.879-2.395,13.981-2.777,1.048-.08,2.013-1.368,2.155-2.874.067-7.126.227-15.403.364-18.481.431-1.515-.809-2.95-2.763-3.208-3.643-1.071-11.24-2.532-16.966-3.27-.862-.324-1.822-1.559-2.141-2.759-1.102-4.58-4.949-13.239-8.597-19.339-1.47-.52-1.284-2.732.418-4.94,1.861-2.857,5.895-8.534,9.01-12.684,1.466-.777,1.271-2.688-.426-4.265-2.363-2.906-7.606-8.668-11.702-12.879-.977-1.373-3.323-1.377-5.242-.013-2.923,1.622-8.49,5.478-12.439,8.619-1.031,1.377-3.754,1.582-6.082.458-3.719-2.315-11.88-5.713-18.224-7.597-1.457.155-2.852-1.568-3.119-3.847-.475-4.145-1.924-11.586-3.234-16.62-.124-.475-.133-2.452-5.042-2.714-5.558-.289-9.987-.098-14.345.133-.964.049-2.848.387-3.492,3.359Z"/>
    <path class="cls-4" d="M1230.413,746.545c26.22,0,47.474,21.258,47.474,47.496s-21.254,47.501-47.474,47.501-47.474-21.258-47.474-47.501,21.254-47.496,47.474-47.496Z"/>
    <path class="cls-4" d="M409.109,859.227c-6.411-.009-12.844.28-19.232-.569-2.777-.369-3.967-1.497-4.687-4.447-.795-3.27-.795-6.655-1.115-9.992-.644-6.793-1.955-13.372-5.034-19.432-.835-1.635-2.013-2.972-3.07-4.412-4.718-6.442-8.134-13.559-9.365-21.725-1.777-11.804.435-22.786,6.486-32.76,6.602-10.889,15.838-17.895,27.691-20.441,13.075-2.808,25.021.204,35.555,9.121,8.881,7.517,14.248,17.384,16.06,29.393,1.861,12.324-.773,23.577-7.508,33.693-2.741,4.123-5.882,7.921-7.357,12.933-1.435,4.891-2.297,9.863-2.728,14.95-.244,2.857-.298,5.74-.933,8.543-.662,2.905-2.021,4.225-4.78,4.576-2.039.262-4.092.506-6.144.542-4.611.08-9.227.027-13.839.027"/>
    <path class="cls-4" d="M408.902,725.791c-.053-30.192-.64-23.821-.671-54.018"/>
    <path class="cls-4" d="M457.042,741.517c21.311-21.387,16.393-17.295,37.718-38.673"/>
    <path class="cls-4" d="M340.431,792.007c-30.192.053-23.821.64-54.018.671"/>
    <path class="cls-4" d="M478.56,792.679c30.192-.053,23.821-.64,54.018-.671"/>
    <path class="cls-4" d="M361.949,741.517c-21.311-21.387-16.393-17.295-37.718-38.673"/>
    <path class="cls-4" d="M390.337,876.158c7.41.244,14.821.573,22.24.44,5.362-.098,10.716-.333,16.078-.44"/>
    <path class="cls-4" d="M395.516,895.845c7.41.244,20.538.675,27.958.538"/>
  </g>
  <path class="cls-1" d="M846.468,791.45c0,11.706-9.494,21.2-21.205,21.2s-21.218-9.494-21.218-21.2,9.503-21.2,21.218-21.2,21.205,9.494,21.205,21.2"/>
  <g>
    <line class="cls-5" x1="785.436" y1="791.289" x2="572.162" y2="791.289"/>
    <line class="cls-5" x1="824.881" y1="829.402" x2="824.881" y2="926.998"/>
    <line class="cls-5" x1="1078.36" y1="791.45" x2="865.086" y2="791.45"/>
    <line class="cls-5" x1="590.908" y1="319.779" x2="408.253" y2="319.779"/>
    <line class="cls-5" x1="408.254" y1="319.778" x2="408.254" y2="641.452"/>
    <line class="cls-5" x1="1232.731" y1="319.938" x2="1050.076" y2="319.938"/>
    <line class="cls-5" x1="1232.731" y1="319.936" x2="1232.731" y2="670.319"/>
  </g>
</svg>