<svg xmlns="http://www.w3.org/2000/svg" id="Ebene_17" data-name="Ebene 17" viewBox="0 0 1436.003 1239.984">
  <defs>
    <style>
      .cls-1{font-family:PTSans-Regular,&quot;PT Sans&quot;;font-size:31.568px}.cls-1,.cls-2{fill:#182949}.cls-3{fill:#0084ff}.cls-5{fill:#3584f6}.cls-7{fill:#fff}.cls-8{letter-spacing:.003em}.cls-9{letter-spacing:0}.cls-10,.cls-11,.cls-12{fill:none;stroke-linecap:round;stroke-miterlimit:10}.cls-10{stroke:#fff;stroke-width:3.5px}.cls-14{letter-spacing:0}.cls-11{stroke:#13294b}.cls-11,.cls-12{stroke-width:2.5px}.cls-24{letter-spacing:-.034em}.cls-27{letter-spacing:-.036em}.cls-12{stroke:#0084ff}.cls-37,.cls-39{letter-spacing:.03em}.cls-40,.cls-41{letter-spacing:.029em}
    </style>
  </defs>
  <path d="M0 0h1436.003v1239.984H0z" style="fill:#e7c6ac"/>
  <path d="M785.953 313.415c57.111 0 103.407-46.296 103.407-103.407s-46.296-103.407-103.407-103.407S682.546 152.9 682.546 210.008s46.296 103.407 103.407 103.407M495.543 594.572c57.111 0 103.407-46.296 103.407-103.407s-46.296-103.407-103.407-103.407-103.407 46.299-103.407 103.407 46.296 103.407 103.407 103.407" class="cls-7"/>
  <text class="cls-1" transform="translate(63.442 342.299)"><tspan x="0" y="0">Initiati</tspan><tspan x="88.894" y="0" style="letter-spacing:-.01em">v</tspan><tspan x="103.794" y="0">e</tspan></text>
  <text class="cls-1" transform="translate(712.96 195.736)"><tspan x="0" y="0" class="cls-39">STE</tspan><tspan x="54.044" y="0" class="cls-40">E</tspan><tspan x="71.88" y="0" style="letter-spacing:.03em">RIN</tspan><tspan x="123.935" y="0" class="cls-14">G</tspan></text>
  <text class="cls-1" transform="translate(697.112 231.031)"><tspan x="0" y="0" class="cls-8">C</tspan><tspan x="18.12" y="0" class="cls-37">OMMI</tspan><tspan x="102.627" y="0" style="letter-spacing:.05em">T</tspan><tspan x="121.726" y="0" class="cls-40">TE</tspan><tspan x="157.997" y="0" style="letter-spacing:0">E</tspan></text>
  <text class="cls-1" transform="translate(451.575 465.825)"><tspan x="0" y="0" class="cls-8">C</tspan><tspan x="18.12" y="0" class="cls-37">OO</tspan><tspan x="63.199" y="0">R</tspan></text>
  <text class="cls-1" transform="translate(532.01 463.301)"><tspan x="0" y="0">-</tspan></text>
  <text class="cls-1" transform="translate(423.794 501.12)"><tspan x="0" y="0" class="cls-39">DIN</tspan><tspan x="53.918" y="0" class="cls-27">A</tspan><tspan x="71.248" y="0" class="cls-39">TIO</tspan><tspan x="122.388" y="0">N</tspan></text>
  <text class="cls-1" transform="translate(444.028 536.411)"><tspan x="0" y="0" class="cls-37">O</tspan><tspan x="22.539" y="0" class="cls-41">F</tspan><tspan x="39.775" y="0" class="cls-39">FIC</tspan><tspan x="86.148" y="0">E</tspan></text>
  <path d="M785.899 868.061c57.111 0 103.407-46.296 103.407-103.407S843.01 661.247 785.899 661.247s-103.407 46.299-103.407 103.407 46.296 103.407 103.407 103.407" class="cls-7"/>
  <text class="cls-1" transform="translate(703.803 750.886)"><tspan x="0" y="0" style="letter-spacing:-.027em">T</tspan><tspan x="16.668" y="0" style="letter-spacing:-.049em">E</tspan><tspan x="32.041" y="0" style="letter-spacing:-.034em">M</tspan><tspan x="55.938" y="0" style="letter-spacing:-.025em">P</tspan><tspan x="72.795" y="0" style="letter-spacing:-.032em">O</tspan><tspan x="93.378" y="0">R</tspan><tspan x="112.16" y="0" style="letter-spacing:-.022em">A</tspan><tspan x="129.933" y="0" style="letter-spacing:-.059em">R</tspan><tspan x="146.853" y="0">Y</tspan></text>
  <text class="cls-1" transform="translate(715.706 786.183)"><tspan x="0" y="0" style="letter-spacing:.01em">W</tspan><tspan x="26.454" y="0" class="cls-37">ORKIN</tspan><tspan x="121.251" y="0" class="cls-14">G</tspan></text>
  <text class="cls-1" transform="translate(726.975 821.475)"><tspan x="0" y="0" class="cls-41">G</tspan><tspan x="20.235" y="0" style="letter-spacing:-.013em">R</tspan><tspan x="38.607" y="0" class="cls-39">OUP</tspan><tspan x="101.27" y="0">S</tspan></text>
  <path d="M205.456 989.974c57.111 0 103.407-46.296 103.407-103.407S262.567 783.16 205.456 783.16s-103.407 46.299-103.407 103.407 46.296 103.407 103.407 103.407" class="cls-7"/>
  <text class="cls-1" transform="translate(114.835 880.538)"><tspan x="0" y="0" style="letter-spacing:.004em">C</tspan><tspan x="18.151" y="0" class="cls-39">OMM</tspan><tspan x="92.525" y="0" class="cls-41">U</tspan><tspan x="114.023" y="0" class="cls-37">NI</tspan><tspan x="146.349" y="0" style="letter-spacing:.017em">T</tspan><tspan x="164.405" y="0">Y</tspan></text>
  <text class="cls-1" transform="translate(140.182 915.833)"><tspan x="0" y="0" class="cls-39">C</tspan><tspan x="18.973" y="0" class="cls-41">LU</tspan><tspan x="57.706" y="0" class="cls-39">S</tspan><tspan x="75.416" y="0" class="cls-40">T</tspan><tspan x="93.852" y="0" class="cls-37">E</tspan><tspan x="111.719" y="0" class="cls-14">R</tspan></text>
  <path d="M497.207 1156.827c57.111 0 103.407-46.296 103.407-103.407s-46.296-103.407-103.407-103.407S393.8 996.312 393.8 1053.42s46.296 103.407 103.407 103.407" class="cls-7"/>
  <text class="cls-1" transform="translate(407.219 1064.173)"><tspan x="0" y="0" style="letter-spacing:0">C</tspan><tspan x="17.994" y="0" style="letter-spacing:.025em">OMM</tspan><tspan x="91.894" y="0" style="letter-spacing:.024em">U</tspan><tspan x="113.234" y="0" style="letter-spacing:.025em">NI</tspan><tspan x="145.243" y="0" style="letter-spacing:.013em">T</tspan><tspan x="163.174" y="0">Y</tspan></text>
  <path d="M205.456 754.939c57.111 0 103.407-46.296 103.407-103.407s-46.296-103.407-103.407-103.407-103.407 46.299-103.407 103.407 46.296 103.407 103.407 103.407" class="cls-7"/>
  <text class="cls-1" transform="translate(169.606 645.868)"><tspan x="0" y="0" class="cls-27">T</tspan><tspan x="16.384" y="0" class="cls-39">AS</tspan><tspan x="53.508" y="0" style="letter-spacing:.009em">K</tspan><tspan x="73.048" y="0"> </tspan></text>
  <text class="cls-1" transform="translate(158.903 681.163)"><tspan x="0" y="0" class="cls-39">AREA</tspan><tspan x="76.426" y="0">S</tspan></text>
  <path d="m742.383 332.545 43.413-41.319v.068-.068l40.739 41.445c.513.488.528 1.292.031 1.796a1.29 1.29 0 0 1-.927.387 1.3 1.3 0 0 1-.9-.356l-38.943-39.738-41.617 39.612a1.301 1.301 0 0 1-1.827-.031 1.254 1.254 0 0 1 .031-1.796M626.414 101.278l41.319 43.413h-.068.068l-41.445 40.739a1.254 1.254 0 0 1-1.796.031 1.29 1.29 0 0 1-.387-.927 1.3 1.3 0 0 1 .356-.9l39.738-38.943-39.612-41.617a1.301 1.301 0 0 1 .031-1.827 1.254 1.254 0 0 1 1.796.031M267.054 376.639l-41.319-43.413h.068-.068l41.445-40.739a1.254 1.254 0 0 1 1.796-.031c.258.252.387.589.387.927a1.3 1.3 0 0 1-.356.9l-39.738 38.943 39.612 41.617a1.301 1.301 0 0 1-.031 1.827 1.254 1.254 0 0 1-1.796-.031M917.513 792.438l-41.319 43.413h.068-.068l41.445 40.739a1.254 1.254 0 0 0 1.796.031 1.29 1.29 0 0 0 .387-.927 1.3 1.3 0 0 0-.356-.9l-39.738-38.943 39.612-41.617a1.301 1.301 0 0 0-.031-1.827 1.254 1.254 0 0 0-1.796.031M163.159 1010.319 206.572 969v.068V969l40.739 41.445c.513.488.528 1.292.031 1.796a1.29 1.29 0 0 1-.927.387 1.3 1.3 0 0 1-.9-.356l-38.943-39.738-41.617 39.612a1.301 1.301 0 0 1-1.827-.031 1.254 1.254 0 0 1 .031-1.796M742.382 645.078l43.413 41.319v-.068.068l40.739-41.445a1.254 1.254 0 0 0 .031-1.796 1.29 1.29 0 0 0-.927-.387 1.3 1.3 0 0 0-.9.356l-38.943 39.738-41.617-39.612a1.301 1.301 0 0 0-1.827.031 1.254 1.254 0 0 0 .031 1.796M626.414 727.421l41.319 43.413h-.068.068l-41.445 40.739a1.254 1.254 0 0 1-1.796.031 1.29 1.29 0 0 1-.387-.927 1.3 1.3 0 0 1 .356-.9l39.738-38.943-39.612-41.617a1.301 1.301 0 0 1 .031-1.827 1.254 1.254 0 0 1 1.796.031M665.306 1009.737l-41.319 43.413h.068-.068l41.445 40.739a1.254 1.254 0 0 0 1.796.031 1.29 1.29 0 0 0 .387-.927 1.3 1.3 0 0 0-.356-.9l-39.738-38.943 39.612-41.617a1.301 1.301 0 0 0-.031-1.827 1.254 1.254 0 0 0-1.796.031M1000.772 659.722l41.319 43.413h-.068.068l-41.445 40.739a1.254 1.254 0 0 1-1.796.031 1.29 1.29 0 0 1-.387-.927 1.3 1.3 0 0 1 .356-.9l39.738-38.943-39.612-41.617a1.301 1.301 0 0 1 .031-1.827 1.254 1.254 0 0 1 1.796.031M1000.772 1010.029l41.319 43.413h-.068.068l-41.445 40.739a1.254 1.254 0 0 1-1.796.031 1.29 1.29 0 0 1-.387-.927 1.3 1.3 0 0 1 .356-.9l39.738-38.943-39.612-41.617a1.301 1.301 0 0 1 .031-1.827 1.254 1.254 0 0 1 1.796.031M1000.772 447.285l41.319 43.413h-.068.068l-41.445 40.739a1.254 1.254 0 0 1-1.796.031 1.29 1.29 0 0 1-.387-.927 1.3 1.3 0 0 1 .356-.9l39.738-38.943-39.612-41.617a1.301 1.301 0 0 1 .031-1.827 1.254 1.254 0 0 1 1.796.031" class="cls-5"/>
  <path d="M859.293 703.113H997.86M785.774 490.676h212.301M785.953 336.223v305.229M207.333 1053.746h191.583M206.55 1013.944v39.803M204.702 145.985v418.918M622.915 144.669H204.701M622.789 770.812H207.865M206.55 749.102v40.791" class="cls-10"/>
  <path d="M707.426 258.163h-41.009v74.626H270.662" style="stroke-dasharray:10 10;stroke:#fff;stroke-width:3.5px;fill:none;stroke-linecap:round;stroke-miterlimit:10"/>
  <path d="M961.536 1053.42H669.05M961.536 835.83v217.589M981.595 835.83v217.59M1040.776 835.83h-59.18M997.146 1053.42h-15.552M981.595 944.625h-20.059M961.536 835.83h-41.111" class="cls-10"/>
  <path d="M1058.881 328.072h167.988v199.707h-167.988z" class="cls-3"/>
  <path d="M1061.666 324.97h167.988v198.938h-167.988z" class="cls-7"/>
  <text class="cls-1" transform="translate(1074.491 394.443)"><tspan x="0" y="0" class="cls-24">P</tspan><tspan x="16.573" y="0" class="cls-14">roposal</tspan></text>
  <path d="M1061.828 347.503h166.25" class="cls-11"/>
  <path d="M1202.76 423.98h-126.27M1190.762 457.19H1076.49M1202.76 490.401h-126.269" class="cls-12"/>
  <path d="M1244.523 674.61h121.961v199.674h-121.961z" class="cls-3"/>
  <path d="M1247.271 672.508h121.961v198.938h-121.961z" class="cls-7"/>
  <text class="cls-1" transform="translate(1264.803 709.579)"><tspan x="0" y="0">1st</tspan></text>
  <text class="cls-1" transform="translate(1264.803 744.87)"><tspan x="0" y="0">Dra</tspan><tspan x="47.035" y="0" style="letter-spacing:-.015em">f</tspan><tspan x="56.633" y="0">t</tspan></text>
  <path d="m1276.799 846.079 6.654-24.669 47.638-52.969 17.186 15.542-47.649 52.939-23.829 9.157zM1283.625 821.565l17.003 15.357M1322.923 777.556l17.309 15.365M1291.249 824.527l30.695-34.373M1297.144 829.702l33.265-36.87" class="cls-12"/>
  <path d="m1279.802 837.841 5.293 4.764-7.992 3.136 2.699-7.9z" class="cls-3"/>
  <path d="M1100.371 988.147c0-12.727 10.152-23.806 25.136-29.544M1157.166 958.155c15.101 5.595 25.429 16.926 25.429 29.992" class="cls-12"/>
  <path d="M1159.977 923.5c.329-4.828-.329-9.985-4.06-13.386-3.95-3.621-10.753-4.06-15.8-4.06-4.718 0-11.521.11-15.142 3.621-3.292 3.182-3.731 8.997-4.17 13.606-6.145 1.865-6.913 13.935-.549 13.935.439 6.913.219 11.922 3.292 18.066 3.292 6.474 10.204 10.095 17.227 10.204 7.132.11 14.155-2.524 17.337-9.217 3.292-6.693 3.164-9.637 2.524-16.64 3.182-1.536 5.596-3.731 4.938-7.79-.439-3.401-2.524-6.913-5.596-8.339ZM1100.18 665.299c0-12.727 10.152-23.806 25.136-29.544M1156.975 635.307c15.101 5.595 25.429 16.926 25.429 29.992" class="cls-12"/>
  <path d="M1159.786 600.652c.329-4.828-.329-9.985-4.06-13.386-3.95-3.621-10.753-4.06-15.8-4.06-4.718 0-11.521.11-15.142 3.621-3.292 3.182-3.731 8.997-4.17 13.606-6.145 1.865-6.913 13.935-.549 13.935.439 6.913.219 11.922 3.292 18.066 3.292 6.474 10.204 10.095 17.227 10.204 7.132.11 14.155-2.524 17.337-9.217 3.292-6.693 3.164-9.637 2.524-16.64 3.182-1.536 5.596-3.731 4.938-7.79-.439-3.401-2.524-6.913-5.596-8.339Z" class="cls-12"/>
  <path d="M1058.868 997.604h167.988v199.674h-167.988z" class="cls-3"/>
  <path d="M1061.653 995.502h167.988v198.938h-167.988z" class="cls-7"/>
  <path d="M1155.01 1064.365c-.589.356-1.339.534-2.241.534-.801 0-1.59-.114-2.367-.347-.78-.23-1.412-.482-1.894-.758l-.758 2.149c.568.313 1.271.589 2.115.82.841.23 1.86.347 3.061.347.927 0 1.731-.12 2.416-.362.681-.243 1.256-.574 1.719-.995a3.83 3.83 0 0 0 1.025-1.517 5.33 5.33 0 0 0 .332-1.894c0-.946-.187-1.707-.568-2.287a5.058 5.058 0 0 0-1.403-1.437 7.854 7.854 0 0 0-1.833-.915 27.211 27.211 0 0 1-1.83-.712 5.96 5.96 0 0 1-1.406-.82c-.378-.304-.568-.731-.568-1.277 0-.78.215-1.326.648-1.642.43-.316 1.108-.473 2.035-.473.78 0 1.51.089 2.195.267a9.71 9.71 0 0 1 1.753.617l.599-2.085a11.038 11.038 0 0 0-2.005-.709c-.768-.2-1.719-.301-2.858-.301-1.535 0-2.735.353-3.598 1.056-.863.706-1.292 1.817-1.292 3.331 0 .927.187 1.664.568 2.21.378.546.847.995 1.403 1.342.559.347 1.17.632 1.833.853a22.21 22.21 0 0 1 1.83.694c.559.243 1.025.54 1.406.9.378.359.568.853.568 1.483 0 .927-.295 1.569-.884 1.928m-19.805-11.208h2.462v9.219c0 1.704.261 2.92.789 3.644.525.728 1.431 1.09 2.714 1.09.777 0 1.504-.083 2.177-.252a9.767 9.767 0 0 0 1.864-.663l-.568-1.925c-.463.187-.884.341-1.262.457-.381.117-.844.172-1.391.172-.651 0-1.114-.224-1.388-.678-.273-.451-.411-1.225-.411-2.321v-8.743h4.295v-2.21h-4.295v-3.85l-2.524.725v3.125h-2.462v2.21Zm-11.206 0h2.462v13.576h2.527v-13.576h4.2v-2.21h-4.2v-.442c0-.629.015-1.182.046-1.655.034-.476.117-.875.255-1.2.135-.325.356-.574.663-.743.304-.169.731-.252 1.277-.252.378 0 .783.031 1.216.095.43.061.887.2 1.372.408l.568-2.115a7.72 7.72 0 0 0-1.624-.473 11.332 11.332 0 0 0-1.784-.126c-.841 0-1.547.111-2.115.332a3.246 3.246 0 0 0-1.391 1.01c-.356.454-.614 1.038-.774 1.753-.157.715-.236 1.556-.236 2.524v.884H1124v2.21Zm-11.89 10.908c-.528-.473-.789-1.078-.789-1.814 0-.528.141-.964.427-1.311.282-.347.663-.62 1.136-.823a6 6 0 0 1 1.642-.408c.62-.074 1.256-.111 1.91-.111.295 0 .592.006.9.015.304.009.605.028.9.046v2.622c-.107.273-.27.559-.491.85-.221.298-.5.565-.835.807a4.533 4.533 0 0 1-1.2.599 4.905 4.905 0 0 1-1.578.236c-.82 0-1.495-.236-2.02-.709m-1.675-10.023a6.336 6.336 0 0 1 1.025-.47c.39-.141.801-.261 1.231-.359.433-.095.853-.172 1.262-.227.411-.052.795-.08 1.154-.08 1.219 0 2.063.23 2.524.694.464.464.697 1.274.697 2.431 0 .503-.034 1.071-.095 1.704a5.993 5.993 0 0 0-.869-.061h-.869a19.44 19.44 0 0 0-3.171.236c-.958.157-1.781.421-2.462.789a4.106 4.106 0 0 0-1.596 1.483c-.378.62-.568 1.394-.568 2.321 0 .694.123 1.314.365 1.864.239.546.571 1.013.995 1.403.421.39.918.691 1.498.9.577.212 1.203.316 1.879.316s1.271-.074 1.799-.221c.525-.147.989-.332 1.388-.553s.743-.473 1.028-.758c.282-.282.519-.571.709-.869h.157l.663 2.21h1.863a10.223 10.223 0 0 1-.347-1.925 24.125 24.125 0 0 1-.095-2.21c0-1.071.031-2.21.095-3.408a72.7 72.7 0 0 0 .095-3.693c0-.568-.058-1.139-.175-1.707a3.985 3.985 0 0 0-.694-1.563c-.347-.473-.854-.857-1.517-1.151s-1.541-.442-2.634-.442a15.71 15.71 0 0 0-3.331.347c-1.062.233-1.995.589-2.794 1.074l.789 1.925Zm-3.739-3.095c-.755-.209-1.44-.316-2.051-.316-.863 0-1.572.196-2.131.586-.559.39-1.038.942-1.437 1.658h-.126l-.473-1.928h-1.768v15.786h2.527v-11.049c.126-.758.451-1.385.976-1.879.528-.494 1.243-.743 2.149-.743.568 0 1.167.107 1.799.316l.534-2.431Zm-18.942-3.423c.958.534 1.719 1.225 2.287 2.066.568.841.97 1.784 1.2 2.824.23 1.044.347 2.081.347 3.11a15.36 15.36 0 0 1-.378 3.426c-.252 1.105-.678 2.085-1.28 2.935-.599.853-1.4 1.532-2.398 2.038-1.001.503-2.238.755-3.709.755-.107 0-.307-.003-.602-.015l-.915-.031-.915-.031a4.774 4.774 0 0 1-.602-.049v-17.677c.147-.021.353-.043.617-.064.264-.018.553-.04.869-.061s.635-.034.961-.034h.9c1.452 0 2.659.27 3.616.807m-9.58 19.241c.209.043.559.074 1.041.095.485.021 1.01.046 1.578.08a44.48 44.48 0 0 0 1.658.061c.537.009.973.015 1.311.015 1.916 0 3.546-.319 4.894-.961 1.348-.642 2.441-1.495 3.282-2.557.841-1.062 1.458-2.284 1.848-3.663.39-1.378.583-2.815.583-4.31 0-1.639-.206-3.144-.614-4.513-.411-1.369-1.038-2.542-1.879-3.521-.844-.976-1.91-1.741-3.205-2.287-1.296-.546-2.824-.823-4.593-.823-.442 0-.921.006-1.437.018-.516.009-1.041.021-1.578.031-.537.009-1.053.031-1.547.061-.494.034-.943.08-1.342.144v22.129ZM1137.96 1009.328h-2.524v18.942c0 1.283.304 2.192.915 2.729.611.537 1.388.804 2.336.804.442 0 .961-.052 1.563-.157.599-.104 1.068-.243 1.403-.411l-.282-1.989c-.399.15-.758.243-1.075.286s-.611.064-.884.064c-.464 0-.82-.16-1.071-.476-.255-.313-.381-.841-.381-1.578v-18.214Zm-16.044 19.431c-.528-.473-.789-1.078-.789-1.814 0-.525.141-.964.424-1.311.285-.347.663-.62 1.139-.82a6.003 6.003 0 0 1 1.639-.411c.62-.074 1.259-.111 1.909-.111.295 0 .596.006.903.015.304.012.602.028.9.049v2.619a3.839 3.839 0 0 1-1.326 1.657 4.533 4.533 0 0 1-1.2.599c-.464.16-.989.236-1.578.236-.823 0-1.495-.236-2.02-.709m-1.674-10.023a6.336 6.336 0 0 1 1.025-.47c.39-.141.798-.258 1.231-.356.43-.098.853-.175 1.262-.227a8.725 8.725 0 0 1 1.154-.083c1.219 0 2.06.233 2.524.694.464.464.694 1.274.694 2.431 0 .507-.031 1.075-.092 1.704a6.517 6.517 0 0 0-.869-.061h-.869c-1.157 0-2.216.08-3.171.236-.958.157-1.781.421-2.462.789a4.106 4.106 0 0 0-1.596 1.483c-.378.623-.568 1.397-.568 2.321 0 .694.123 1.317.362 1.863.243.546.574 1.016.995 1.403.421.39.921.691 1.501.9.577.212 1.203.316 1.879.316s1.271-.074 1.799-.221c.525-.147.989-.332 1.388-.553s.743-.473 1.025-.755a5.27 5.27 0 0 0 .712-.869h.157l.663 2.21h1.863a10.211 10.211 0 0 1-.347-1.928 24.105 24.105 0 0 1-.095-2.207c0-1.075.031-2.21.095-3.411.061-1.2.092-2.431.092-3.693a8.42 8.42 0 0 0-.172-1.704 3.965 3.965 0 0 0-.694-1.563c-.347-.476-.854-.86-1.517-1.154s-1.541-.442-2.634-.442c-1.16 0-2.269.117-3.331.347-1.065.233-1.995.589-2.794 1.075l.789 1.925Zm-5.219 12.691v-9.532c0-1.305-.111-2.385-.332-3.236-.221-.853-.546-1.532-.979-2.038a3.403 3.403 0 0 0-1.624-1.056c-.654-.2-1.412-.301-2.275-.301-1.179 0-2.192.218-3.045.648-.854.433-1.532.985-2.035 1.658h-.126l-.476-1.925h-1.765v15.783h2.524v-10.797a4.78 4.78 0 0 1 1.532-2.256c.724-.599 1.646-.9 2.763-.9 1.262 0 2.131.414 2.603 1.246.473.832.709 2.069.709 3.709v8.998h2.527Zm-20.388-19.384c.328.316.743.476 1.249.476.503 0 .936-.16 1.292-.476a1.52 1.52 0 0 0 .537-1.197c0-.485-.178-.9-.537-1.249a1.786 1.786 0 0 0-1.292-.519c-.507 0-.921.172-1.249.519a1.77 1.77 0 0 0-.488 1.249c0 .482.163.884.488 1.197m.049 19.384h2.527v-15.783h-2.527v15.783Zm-16.511 0h2.619v-9.882h8.777v-2.333h-8.777v-7.546h9.41v-2.336h-12.028v22.098Z" class="cls-2"/>
  <path d="M1203.753 1019.593a20.926 20.926 0 0 0-9.52-2.275c-11.602 0-21.005 9.403-21.005 21.005s9.403 21.002 21.005 21.002 21.005-9.403 21.005-21.002c0-4.166-1.213-8.046-3.3-11.31" class="cls-11"/>
  <path d="M1184.368 1031.16c.333.719 8.28 18.733 8.28 18.733s20.691-35.373 21.3-36.33" class="cls-12"/>
  <path d="M1203.324 1096.89h-99.58M1190.177 1130.1h-86.433M1203.324 1163.311h-99.58M1087.503 1088.497h-10.131c-.047 0-.085.046-.085.104v16.58c0 .057.038.104.085.104h16.25c.047 0 .085-.046.085-.104v-9.332" class="cls-11"/>
  <path d="m1082.072 1093.448 3.583 6.666c10.979-18.784 10.967-18.676 10.65-18.165" class="cls-12"/>
  <path d="M1087.503 1120.426h-10.131c-.047 0-.085.046-.085.104v16.58c0 .057.038.104.085.104h16.25c.047 0 .085-.046.085-.104v-9.332" class="cls-11"/>
  <path d="m1082.072 1125.378 3.583 6.666c10.979-18.784 10.967-18.676 10.65-18.165" class="cls-12"/>
  <path d="M1087.503 1152.356h-10.131c-.047 0-.085.046-.085.104v16.58c0 .057.038.104.085.104h16.25c.047 0 .085-.046.085-.104v-9.332" class="cls-11"/>
  <path d="m1082.072 1157.307 3.583 6.666c10.979-18.784 10.967-18.676 10.65-18.165" class="cls-12"/>
  <path d="M1058.881 674.081h167.988v199.674h-167.988z" class="cls-3"/>
  <path d="M1061.666 672.508h167.988v198.938h-167.988z" class="cls-7"/>
  <text class="cls-1" transform="translate(1072.491 709.611)"><tspan x="0" y="0" class="cls-24">P</tspan><tspan x="16.573" y="0" class="cls-14">ro</tspan><tspan x="44.227" y="0" style="letter-spacing:-.01em">t</tspan><tspan x="54.611" y="0" class="cls-9">o</tspan><tspan x="71.533" y="0" style="letter-spacing:-.022em">c</tspan><tspan x="85.074" y="0" class="cls-9">ols </tspan></text>
  <text class="cls-1" transform="translate(1072.491 744.904)"><tspan x="0" y="0">&amp; </tspan><tspan x="34.125" y="0" style="letter-spacing:-.047em">R</tspan><tspan x="51.424" y="0">epo</tspan><tspan x="101.459" y="0" class="cls-41">r</tspan><tspan x="113.107" y="0">ts</tspan></text>
  <path d="M1200.527 773.918h-99.58M1187.573 807.128h-86.626M1200.527 840.339h-99.579" class="cls-11"/>
  <path d="M1074.575 765.524c-.047 0-.085.046-.085.104v16.58c0 .057.038.104.085.104h16.25c.047 0 .085-.046.085-.104v-16.58c0-.057-.038-.104-.085-.104h-16.25ZM1074.575 798.735c-.047 0-.085.046-.085.104v16.58c0 .057.038.104.085.104h16.25c.047 0 .085-.046.085-.104v-16.58c0-.057-.038-.104-.085-.104h-16.25ZM1074.575 831.945c-.047 0-.085.046-.085.104v16.58c0 .057.038.104.085.104h16.25c.047 0 .085-.046.085-.104v-16.58c0-.057-.038-.104-.085-.104h-16.25Z" class="cls-12"/>
  <path d="M419.152 63.578H587.14v179.8H419.152z" class="cls-11"/>
  <text class="cls-1" transform="translate(432.683 126.699)"><tspan x="0" y="0" class="cls-24">P</tspan><tspan x="16.573" y="0" class="cls-14">roposal</tspan></text>
  <path d="M420.021 85.343h166.25M560.953 174.106h-126.27M548.954 198.381H434.683M560.953 222.656h-126.27" class="cls-11"/>
</svg>
