<svg xmlns="http://www.w3.org/2000/svg" id="Ebene_17" data-name="Ebene 17" viewBox="0 0 1298.367 1372.815">
  <defs>
    <clipPath id="clippath">
      <path d="M111.452 1226.482h1079.936V86.235" style="fill:none"/>
    </clipPath>
    <style>
      .cls-2,.cls-4{fill:none}.cls-6,.cls-7{fill:#182949;font-family:PTSans-Regular,&quot;PT Sans&quot;;font-size:30.783px}.cls-10{fill:#3584f6}.cls-2{stroke:#182949}.cls-2,.cls-4{stroke-linecap:round;stroke-miterlimit:10;stroke-width:2.5px}.cls-12{letter-spacing:0}.cls-13{fill:#fff}.cls-14{letter-spacing:.003em}.cls-15{letter-spacing:0}.cls-4{stroke:#13294b}.cls-7{letter-spacing:.022em}.cls-19{letter-spacing:-.022em}.cls-20{letter-spacing:-.036em}.cls-22{letter-spacing:-.011em}.cls-24{letter-spacing:-.01em}.cls-29,.cls-30{letter-spacing:.03em}.cls-31{letter-spacing:.029em}.cls-35{letter-spacing:.004em}
    </style>
  </defs>
  <path d="M112.913 124.767h1077.015v1086.905H112.913z" style="stroke:#3584f6;stroke-linecap:round;stroke-miterlimit:10;stroke-width:2.5px;fill:none"/>
  <path d="M141.808 86.235h1019.225v923.991H141.808z" style="fill:#e1c6ae"/>
  <path d="M141.808 1010.226h1019.225v135.522H141.808z" style="fill:#d89e76"/>
  <path d="M141.808 1145.123h1019.225v133.491H141.808z" style="fill:#bca089"/>
  <path d="M453.539 1185.408h391.926v59.774H453.539z" class="cls-10"/>
  <path d="M456.704 1181.752H848.63v59.774H456.704z" class="cls-13"/>
  <path d="M453.539 1051.084h391.926v59.774H453.539z" class="cls-10"/>
  <path d="M348.488 369.543c55.691 0 100.835-45.144 100.835-100.835s-45.144-100.835-100.835-100.835-100.835 45.147-100.835 100.835 45.144 100.835 100.835 100.835M914.763 369.543c55.691 0 100.835-45.144 100.835-100.835s-45.144-100.835-100.835-100.835-100.835 45.147-100.835 100.835 45.144 100.835 100.835 100.835M914.763 643.707c55.691 0 100.835-45.144 100.835-100.835s-45.144-100.835-100.835-100.835-100.835 45.147-100.835 100.835 45.144 100.835 100.835 100.835M914.763 917.224c55.691 0 100.835-45.144 100.835-100.835s-45.144-100.835-100.835-100.835-100.835 45.147-100.835 100.835 45.144 100.835 100.835 100.835M348.704 643.707c55.691 0 100.835-45.144 100.835-100.835s-45.144-100.835-100.835-100.835-100.835 45.147-100.835 100.835 45.144 100.835 100.835 100.835M348.704 916.836c55.691 0 100.835-45.144 100.835-100.835s-45.144-100.835-100.835-100.835-100.835 45.147-100.835 100.835 45.144 100.835 100.835 100.835" class="cls-13"/>
  <text class="cls-6" transform="translate(540.382 523.642)"><tspan x="0" y="0" class="cls-19">c</tspan><tspan x="13.206" y="0" class="cls-12">oordina</tspan><tspan x="113.588" y="0" class="cls-22">t</tspan><tspan x="123.685" y="0">es</tspan></text>
  <text class="cls-6" transform="translate(540.652 346.446)"><tspan x="0" y="0">advises</tspan></text>
  <text class="cls-6" transform="translate(540.382 790.933)"><tspan x="0" y="0" class="cls-19">c</tspan><tspan x="13.206" y="0" class="cls-12">onstitu</tspan><tspan x="105.215" y="0" style="letter-spacing:-.01em">t</tspan><tspan x="115.342" y="0">es</tspan></text>
  <path d="M298.576 683.617c-.575.35-1.302.524-2.185.524a8.025 8.025 0 0 1-2.308-.338c-.76-.225-1.374-.473-1.847-.739l-.739 2.096c.554.305 1.242.575 2.063.799.82.225 1.817.338 2.988.338.901 0 1.685-.12 2.353-.353.668-.236 1.227-.56 1.679-.97.449-.41.784-.904 1-1.479a5.198 5.198 0 0 0 .323-1.847c0-.922-.186-1.667-.554-2.23-.371-.566-.826-1.033-1.371-1.401s-1.138-.668-1.784-.892a26.447 26.447 0 0 1-1.787-.695c-.542-.234-1-.503-1.368-.799-.371-.296-.554-.713-.554-1.245 0-.76.21-1.293.632-1.602.419-.308 1.081-.461 1.985-.461.757 0 1.473.087 2.137.26a9.434 9.434 0 0 1 1.709.602l.584-2.033a11.04 11.04 0 0 0-1.952-.695c-.751-.195-1.679-.29-2.787-.29-1.5 0-2.667.344-3.509 1.03-.841.689-1.263 1.772-1.263 3.248 0 .904.186 1.623.554 2.155.371.533.826.97 1.371 1.308a8.337 8.337 0 0 0 1.784.832c.647.216 1.242.44 1.787.677.542.236 1 .527 1.368.877.371.347.554.829.554 1.446 0 .904-.287 1.53-.862 1.877m-13.083-10.358c.596.626.892 1.718.892 3.278h-7.634c.144-1.539.581-2.625 1.308-3.263.73-.635 1.697-.952 2.91-.952 1.087 0 1.928.311 2.524.937m1.847 9.652c-.347.329-.871.617-1.569.862s-1.398.368-2.096.368c-.901 0-1.667-.129-2.293-.383a3.74 3.74 0 0 1-1.524-1.111c-.389-.482-.677-1.072-.859-1.769-.186-.698-.278-1.497-.278-2.401h9.882c.123-.82.183-1.569.183-2.245 0-1.293-.174-2.335-.521-3.125-.35-.79-.802-1.401-1.356-1.832a4.638 4.638 0 0 0-1.877-.877 9.56 9.56 0 0 0-2.093-.23c-2.176 0-3.85.689-5.017 2.063-1.171 1.374-1.757 3.374-1.757 6.002 0 1.23.135 2.338.401 3.323.266.985.677 1.832 1.23 2.542a5.474 5.474 0 0 0 2.126 1.632c.862.38 1.877.569 3.048.569 1.048 0 2.036-.144 2.97-.431.934-.287 1.709-.677 2.326-1.171l-.925-1.784Zm-22.44-10.221h2.401v8.99c0 1.662.257 2.847.769 3.553.512.709 1.395 1.063 2.646 1.063.76 0 1.467-.084 2.125-.245a9.535 9.535 0 0 0 1.817-.647l-.554-1.877c-.452.183-.862.332-1.233.446-.368.111-.82.168-1.353.168-.638 0-1.09-.219-1.356-.662-.266-.44-.398-1.194-.398-2.263v-8.526h4.185v-2.155h-4.185v-3.754l-2.464.706v3.048H264.9v2.155Zm-11.083 10.637c-.512-.464-.769-1.054-.769-1.772 0-.512.138-.937.416-1.275a2.853 2.853 0 0 1 1.108-.802c.461-.195.997-.326 1.602-.398a15.726 15.726 0 0 1 1.862-.108c.287 0 .581.003.877.015.296.009.59.024.877.045v2.557a3.45 3.45 0 0 1-.476.829 3.744 3.744 0 0 1-.817.787 4.46 4.46 0 0 1-1.168.584c-.452.153-.967.23-1.542.23-.799 0-1.455-.23-1.97-.692m-1.631-9.774a5.976 5.976 0 0 1 1-.458c.38-.138.781-.254 1.203-.35.419-.096.829-.168 1.23-.222a8.945 8.945 0 0 1 1.123-.078c1.191 0 2.012.225 2.464.677.449.452.677 1.242.677 2.371 0 .491-.03 1.045-.093 1.662a5.841 5.841 0 0 0-.847-.063h-.844c-1.129 0-2.161.078-3.095.233-.934.153-1.733.41-2.401.769s-1.185.841-1.554 1.446c-.371.605-.554 1.359-.554 2.263 0 .677.117 1.281.353 1.814.237.536.56.991.97 1.371.41.38.898.674 1.461.877.566.204 1.177.308 1.832.308s1.242-.072 1.754-.216a6.326 6.326 0 0 0 1.356-.539 4.49 4.49 0 0 0 1-.739c.275-.275.509-.56.692-.847h.156l.647 2.155h1.814c-.165-.575-.275-1.2-.338-1.877a24.408 24.408 0 0 1-.093-2.155c0-1.048.033-2.155.093-3.323a67.09 67.09 0 0 0 .093-3.604 8.21 8.21 0 0 0-.171-1.661 3.812 3.812 0 0 0-.677-1.524c-.338-.461-.829-.835-1.476-1.123-.647-.287-1.506-.431-2.572-.431-1.129 0-2.212.114-3.248.338-1.036.228-1.943.575-2.724 1.048l.769 1.877Zm-3.2-3.018c-.739-.204-1.407-.308-2-.308-.844 0-1.536.192-2.081.572-.542.38-1.009.916-1.398 1.614h-.126l-.461-1.877h-1.724v15.393h2.464v-10.774c.123-.739.44-1.35.955-1.832.512-.482 1.209-.724 2.093-.724.554 0 1.138.105 1.754.308l.524-2.371Zm-14.96 2.724c.593.626.892 1.718.892 3.278h-7.634c.141-1.539.578-2.625 1.308-3.263.727-.635 1.697-.952 2.907-.952 1.09 0 1.931.311 2.527.937m1.847 9.652c-.35.329-.874.617-1.572.862a6.282 6.282 0 0 1-2.093.368c-.904 0-1.667-.129-2.293-.383-.626-.257-1.135-.626-1.524-1.111-.392-.482-.677-1.072-.862-1.769-.186-.698-.278-1.497-.278-2.401h9.882c.123-.82.186-1.569.186-2.245 0-1.293-.177-2.335-.524-3.125-.35-.79-.799-1.401-1.353-1.832a4.663 4.663 0 0 0-1.88-.877 9.56 9.56 0 0 0-2.093-.23c-2.176 0-3.847.689-5.017 2.063s-1.754 3.374-1.754 6.002c0 1.23.132 2.338.401 3.323.266.985.677 1.832 1.23 2.542a5.446 5.446 0 0 0 2.122 1.632c.862.38 1.88.569 3.048.569 1.048 0 2.039-.144 2.973-.431.931-.287 1.706-.677 2.323-1.171l-.922-1.784Zm-18.887-10.191c.503.266.913.644 1.23 1.126.32.482.551 1.066.695 1.754.144.686.216 1.452.216 2.293 0 2.051-.416 3.607-1.248 4.664-.829 1.057-1.955 1.584-3.371 1.584-.778 0-1.404-.078-1.877-.23a4.042 4.042 0 0 1-1.26-.662v-7.634c.245-1.108.671-1.934 1.275-2.479.605-.542 1.431-.814 2.479-.814.739 0 1.359.132 1.862.398m-8.08 19.363h2.464v-6.403c.512.228.988.386 1.431.479.44.093 1.042.138 1.799.138 1.069 0 2.039-.195 2.91-.584a6.288 6.288 0 0 0 2.23-1.664c.617-.718 1.096-1.596 1.434-2.631.338-1.036.506-2.2.506-3.494 0-2.748-.503-4.73-1.509-5.942-1.006-1.209-2.533-1.814-4.586-1.814-.964 0-1.82.189-2.569.569a4.685 4.685 0 0 0-1.832 1.646h-.123l-.464-1.847h-1.691v21.548Zm-10.622-19.761c.76 0 1.407.159 1.94.476s.964.745 1.293 1.278c.329.533.569 1.159.724 1.877.153.718.231 1.479.231 2.278 0 3.961-1.395 5.93-4.188 5.909-.757 0-1.404-.165-1.937-.491a3.862 3.862 0 0 1-1.293-1.293c-.329-.533-.569-1.159-.724-1.877a10.779 10.779 0 0 1-.231-2.248c0-3.961 1.395-5.93 4.185-5.909m-6.34 9.218c.266.997.677 1.847 1.23 2.557a5.49 5.49 0 0 0 2.111 1.632c.85.38 1.85.569 3 .569 2.176 0 3.844-.692 5.002-2.078 1.162-1.386 1.739-3.38 1.739-5.987 0-1.212-.132-2.314-.398-3.311-.266-.994-.68-1.844-1.233-2.554a5.471 5.471 0 0 0-2.108-1.632c-.853-.38-1.853-.569-3.003-.569-2.173 0-3.841.692-5.002 2.078-1.159 1.386-1.739 3.38-1.739 5.987 0 1.209.135 2.314.401 3.308m-10.158-9.218c.757 0 1.404.159 1.94.476.533.317.964.745 1.293 1.278.326.533.569 1.159.721 1.877.156.718.231 1.479.231 2.278 0 3.961-1.395 5.93-4.185 5.909-.76 0-1.407-.165-1.94-.491a3.917 3.917 0 0 1-1.293-1.293c-.329-.533-.569-1.159-.721-1.877a10.58 10.58 0 0 1-.234-2.248c0-3.961 1.398-5.93 4.188-5.909m-6.34 9.218c.266.997.677 1.847 1.23 2.557a5.48 5.48 0 0 0 2.108 1.632c.853.38 1.853.569 3.003.569 2.173 0 3.841-.692 5.002-2.078 1.159-1.386 1.739-3.38 1.739-5.987 0-1.212-.135-2.314-.401-3.311-.266-.994-.677-1.844-1.23-2.554a5.459 5.459 0 0 0-2.111-1.632c-.85-.38-1.85-.569-3-.569-2.176 0-3.844.692-5.002 2.078-1.159 1.386-1.739 3.38-1.739 5.987 0 1.209.132 2.314.401 3.308m-3.018 1.493c-.368.287-.847.545-1.431.769-.587.228-1.248.338-1.985.338-.862 0-1.587-.165-2.17-.491a4.039 4.039 0 0 1-1.416-1.308 5.465 5.465 0 0 1-.769-1.88 10.33 10.33 0 0 1-.234-2.23c0-3.94 1.458-5.909 4.374-5.909.656 0 1.272.075 1.847.23a6.578 6.578 0 0 1 1.569.632l.709-2.126a7.7 7.7 0 0 0-1.865-.662c-.686-.156-1.524-.23-2.509-.23-2.152 0-3.805.692-4.954 2.078-1.15 1.386-1.724 3.38-1.724 5.987 0 1.209.117 2.314.353 3.308.237.997.617 1.847 1.141 2.557.524.706 1.194 1.251 2.015 1.632s1.826.569 3.018.569c.922 0 1.805-.12 2.646-.353.841-.236 1.572-.581 2.185-1.033l-.799-1.877Z" style="fill:#13294b"/>
  <text class="cls-6" transform="translate(954.276 677.724)"><tspan x="0" y="0">organises</tspan></text>
  <text class="cls-6" transform="translate(957.708 981.687)"><tspan x="0" y="0">members</tspan></text>
  <text class="cls-6" transform="translate(747.89 981.687)"><tspan x="0" y="0">del</tspan><tspan x="41.188" y="0" class="cls-22">e</tspan><tspan x="56.486" y="0">ga</tspan><tspan x="88.284" y="0" class="cls-24">t</tspan><tspan x="98.412" y="0">es</tspan></text>
  <text class="cls-6" transform="translate(954.708 427.425)"><tspan x="0" y="0">opera</tspan><tspan x="74.524" y="0" class="cls-24">t</tspan><tspan x="84.652" y="0">es</tspan></text>
  <text style="letter-spacing:-.02em;font-size:30.783px;fill:#182949;font-family:PTSans-Regular,&quot;PT Sans&quot;" transform="translate(540.103 211.204)"><tspan x="0" y="0">appointsmembers</tspan></text>
  <text class="cls-6" transform="translate(850.63 811.077)"><tspan x="0" y="0" style="letter-spacing:.029em">G</tspan><tspan x="19.732" y="0" class="cls-29">EN</tspan><tspan x="58.795" y="0" class="cls-31">E</tspan><tspan x="76.188" y="0" class="cls-35">R</tspan><tspan x="94.626" y="0" class="cls-30">A</tspan><tspan x="113.558" y="0">L</tspan></text>
  <text class="cls-6" transform="translate(842.226 845.492)"><tspan x="0" y="0" class="cls-30">ASSEM</tspan><tspan x="96.165" y="0" class="cls-31">B</tspan><tspan x="115.035" y="0" style="letter-spacing:-.074em">L</tspan><tspan x="128.672" y="0">Y</tspan></text>
  <text class="cls-7" transform="translate(563.903 1222.295)"><tspan x="0" y="0">COMMUNITY</tspan></text>
  <path d="M456.704 1047.672H848.63v59.774H456.704z" class="cls-13"/>
  <path d="M347.968 122.023v33.565" class="cls-2"/>
  <path d="M741.275 543.363H521.296M741.158 815.564H521.179M1117.96 122.022v693.543" class="cls-4"/>
  <path d="M347.968 122.024h769.992" class="cls-2"/>
  <path d="M1030.729 815.563h87.232" class="cls-4"/>
  <path d="m517.761 189.613-40.292 42.333h.066-.066l40.414 39.726c.476.5 1.26.515 1.751.03a1.26 1.26 0 0 0 .377-.904c0-.317-.114-.632-.347-.877l-38.75-37.974 38.627-40.582a1.269 1.269 0 0 0-.03-1.781 1.222 1.222 0 0 0-1.751.03M305.656 159.123l42.333 40.292v-.066.066l39.726-40.414c.5-.476.515-1.26.03-1.751a1.257 1.257 0 0 0-.904-.377c-.317 0-.632.114-.877.347l-37.974 38.75-40.582-38.627a1.269 1.269 0 0 0-1.781.03 1.222 1.222 0 0 0 .03 1.751M517.644 501.05l-40.292 42.333h.066-.066l40.414 39.726c.476.5 1.26.515 1.751.03a1.26 1.26 0 0 0 .377-.904c0-.317-.114-.632-.347-.877l-38.75-37.974 38.627-40.582a1.269 1.269 0 0 0-.03-1.781 1.222 1.222 0 0 0-1.751.03M518.341 773.251l-40.292 42.333h.066-.066l40.414 39.726c.476.5 1.26.515 1.751.03a1.26 1.26 0 0 0 .377-.904c0-.317-.114-.632-.347-.877l-38.75-37.974 38.627-40.582a1.269 1.269 0 0 0-.03-1.781 1.222 1.222 0 0 0-1.751.03" class="cls-10"/>
  <path d="M914.589 385.367v65.307" class="cls-4"/>
  <path d="m872.276 381.832 42.333-40.292v.066-.066l39.726 40.414c.5.476.515 1.26.03 1.751a1.257 1.257 0 0 1-.904.377c-.317 0-.632-.114-.877-.347l-37.974-38.75-40.582 38.627a1.269 1.269 0 0 1-1.781-.03 1.222 1.222 0 0 1 .03-1.751" class="cls-10"/>
  <path d="M350.443 655.677v40.465" class="cls-4"/>
  <path d="m308.131 652.141 42.333-40.292v.066-.066l39.726 40.414c.5.476.515 1.26.03 1.751a1.26 1.26 0 0 1-.904.377c-.317 0-.632-.114-.877-.347l-37.974-38.75-40.582 38.627a1.269 1.269 0 0 1-1.781-.03 1.222 1.222 0 0 1 .03-1.751" class="cls-10"/>
  <path d="M914.589 940.21v83.928" class="cls-4"/>
  <path d="m872.276 936.675 42.333-40.292v.066-.066l39.726 40.414c.5.476.515 1.26.03 1.751a1.26 1.26 0 0 1-.904.377c-.317 0-.632-.114-.877-.347l-37.974-38.75-40.582 38.627a1.269 1.269 0 0 1-1.781-.03 1.222 1.222 0 0 1 .03-1.751" class="cls-10"/>
  <path d="M914.952 1130.158v65.307" class="cls-4"/>
  <path d="m872.64 1126.623 42.333-40.292v.066-.066l39.726 40.414c.5.476.515 1.26.03 1.751a1.26 1.26 0 0 1-.904.377c-.317 0-.632-.114-.877-.347l-37.974-38.75-40.582 38.627a1.269 1.269 0 0 1-1.781-.03 1.222 1.222 0 0 1 .03-1.751" class="cls-10"/>
  <path d="M914.589 695.786v-65.307" class="cls-4"/>
  <g style="clip-path:url(#clippath)">
    <path d="m872.276 699.321 42.333 40.292v-.066.066l39.726-40.414c.5-.476.515-1.26.03-1.751a1.26 1.26 0 0 0-.904-.377c-.317 0-.632.114-.877.347l-37.974 38.75-40.582-38.627a1.269 1.269 0 0 0-1.781.03 1.222 1.222 0 0 0 .03 1.751M308.13 699.265l42.333 40.292v-.066.066l39.726-40.414c.5-.476.515-1.26.03-1.751a1.26 1.26 0 0 0-.904-.377c-.317 0-.632.114-.877.347l-37.974 38.75-40.582-38.627a1.269 1.269 0 0 0-1.781.03 1.222 1.222 0 0 0 .03 1.751M744.81 266.11l40.292 42.333h-.066.066l-40.414 39.726c-.476.5-1.26.515-1.751.03a1.26 1.26 0 0 1-.377-.904c0-.317.114-.632.347-.877l38.75-37.974-38.627-40.582a1.269 1.269 0 0 1 .03-1.781 1.222 1.222 0 0 1 1.751.03" class="cls-10"/>
  </g>
  <text style="fill:#182949;font-family:PTSans-Regular,&quot;PT Sans&quot;;font-size:30.783px" transform="rotate(-45.5 1118.213 -324.138)"><tspan x="0" y="0">suppo</tspan><tspan x="79.357" y="0" style="letter-spacing:.029em">r</tspan><tspan x="90.716" y="0">ts</tspan></text>
  <path d="M741.275 543.801 533.716 756.89M741.275 231.926H521.296M741.275 308.423H521.296" class="cls-4"/>
  <text class="cls-6" transform="translate(278.335 261.847)"><tspan x="0" y="0" class="cls-30">A</tspan><tspan x="18.932" y="0" class="cls-35">D</tspan><tspan x="39.187" y="0" class="cls-31">V</tspan><tspan x="57.563" y="0" class="cls-30">ISO</tspan><tspan x="106.692" y="0" style="letter-spacing:-.029em">R</tspan><tspan x="124.115" y="0" style="letter-spacing:.014em">Y</tspan><tspan x="141.724" y="0"> </tspan></text>
  <text class="cls-6" transform="translate(299.39 296.263)"><tspan x="0" y="0" class="cls-29">B</tspan><tspan x="18.9" y="0" style="letter-spacing:.005em">O</tspan><tspan x="40.11" y="0" class="cls-29">AR</tspan><tspan x="78.28" y="0">D</tspan></text>
  <text class="cls-6" transform="translate(843.575 261.663)"><tspan x="0" y="0" class="cls-30">S</tspan><tspan x="17.27" y="0" class="cls-31">T</tspan><tspan x="35.246" y="0" class="cls-29">E</tspan><tspan x="52.669" y="0" class="cls-31">E</tspan><tspan x="70.062" y="0" class="cls-30">RIN</tspan><tspan x="120.821" y="0" class="cls-15">G</tspan></text>
  <text class="cls-6" transform="translate(828.12 296.079)"><tspan x="0" y="0" class="cls-14">C</tspan><tspan x="17.67" y="0" class="cls-29">OMMI</tspan><tspan x="100.074" y="0" style="letter-spacing:.05em">T</tspan><tspan x="118.698" y="0" class="cls-31">TE</tspan><tspan x="154.067" y="0">E</tspan></text>
  <text class="cls-6" transform="translate(871.864 518.21)"><tspan x="0" y="0" class="cls-14">C</tspan><tspan x="17.67" y="0" class="cls-29">OO</tspan><tspan x="61.627" y="0">R</tspan></text>
  <text class="cls-6" transform="translate(950.3 515.749)"><tspan x="0" y="0">-</tspan></text>
  <text class="cls-6" transform="translate(844.774 552.626)"><tspan x="0" y="0" class="cls-30">DIN</tspan><tspan x="52.576" y="0" class="cls-20">A</tspan><tspan x="69.477" y="0" class="cls-31">T</tspan><tspan x="87.453" y="0" class="cls-30">IO</tspan><tspan x="119.313" y="0">N</tspan></text>
  <text class="cls-6" transform="translate(864.507 587.04)"><tspan x="0" y="0" class="cls-29">OF</tspan><tspan x="38.817" y="0" class="cls-31">F</tspan><tspan x="55.625" y="0" class="cls-30">IC</tspan><tspan x="84.006" y="0">E</tspan></text>
  <text class="cls-6" transform="translate(260.327 810.187)"><tspan x="0" y="0" class="cls-35">C</tspan><tspan x="17.7" y="0" class="cls-29">OMM</tspan><tspan x="90.225" y="0" class="cls-31">U</tspan><tspan x="111.188" y="0" class="cls-29">NI</tspan><tspan x="142.708" y="0" style="letter-spacing:.017em">T</tspan><tspan x="160.316" y="0">Y</tspan></text>
  <text class="cls-6" transform="translate(285.044 844.603)"><tspan x="0" y="0" class="cls-30">C</tspan><tspan x="18.501" y="0" class="cls-31">LU</tspan><tspan x="56.271" y="0" class="cls-29">STE</tspan><tspan x="108.972" y="0">R</tspan></text>
  <text class="cls-6" transform="translate(313.767 537.388)"><tspan x="0" y="0" class="cls-20">T</tspan><tspan x="15.977" y="0" class="cls-29">AS</tspan><tspan x="52.177" y="0" style="letter-spacing:.009em">K</tspan><tspan x="71.23" y="0" class="cls-15"> </tspan></text>
  <text class="cls-6" transform="translate(303.331 571.804)"><tspan x="0" y="0" class="cls-30">AR</tspan><tspan x="38.17" y="0" class="cls-31">E</tspan><tspan x="55.562" y="0" class="cls-30">A</tspan><tspan x="74.494" y="0">S</tspan></text>
  <text class="cls-7" transform="translate(482.284 1087.971)"><tspan x="0" y="0">CONSORTIUM MEMBERS</tspan></text>
  <path d="m743.526 349.452 40.292-42.333h-.066.066l-40.414-39.726a1.222 1.222 0 0 0-1.751-.03 1.26 1.26 0 0 0-.377.904c0 .317.114.632.347.877l38.75 37.974-38.627 40.582a1.269 1.269 0 0 0 .03 1.781c.491.485 1.275.47 1.751-.03" class="cls-10"/>
</svg>
