<svg xmlns="http://www.w3.org/2000/svg" id="Kategorien" viewBox="0 0 3562.69 3363.329">
  <defs>
    <linearGradient id="Unbenannter_Verlauf_9" x1="1861.9" x2="1897.329" y1="-3529.736" y2="-3591.123" data-name="Unbenannter Verlauf 9" gradientTransform="matrix(1 0 0 -1 0 -3079.512)" gradientUnits="userSpaceOnUse">
      <stop offset="0" stop-color="#fff" stop-opacity="0"/>
      <stop offset=".8"/>
    </linearGradient>
    <linearGradient id="Unbenannter_Verlauf_2" x1="1747.936" x2="1747.936" y1="-9024.698" y2="-8945.603" data-name="Unbenannter Verlauf 2" gradientTransform="translate(0 9402)" gradientUnits="userSpaceOnUse">
      <stop offset="0" stop-color="#fff" stop-opacity="0"/>
      <stop offset=".4"/>
    </linearGradient>
    <linearGradient id="Unbenannter_Verlauf_3" x1="1679.466" x2="1959.666" y1="-3575.661" y2="-3575.661" data-name="Unbenannter Verlauf 3" gradientTransform="matrix(1 0 0 -1 0 -3079.512)" gradientUnits="userSpaceOnUse">
      <stop offset="0" stop-color="#255e89"/>
      <stop offset="1" stop-color="#102a51"/>
    </linearGradient>
    <linearGradient id="Unbenannter_Verlauf_4" x1="1726.864" x2="1701.063" y1="-3595.02" y2="-3550.343" data-name="Unbenannter Verlauf 4" gradientTransform="matrix(1 0 0 -1 0 -3079.512)" gradientUnits="userSpaceOnUse">
      <stop offset=".1" stop-color="#fff" stop-opacity="0"/>
      <stop offset=".8"/>
    </linearGradient>
    <linearGradient id="Unbenannter_Verlauf_5" x1="1881.303" x2="1926.859" y1="-6033.941" y2="-6033.941" data-name="Unbenannter Verlauf 5" gradientTransform="matrix(1 0 0 -1 0 -5583.512)" gradientUnits="userSpaceOnUse">
      <stop offset="0" stop-color="#fff" stop-opacity="0"/>
      <stop offset=".6"/>
    </linearGradient>
    <linearGradient id="Unbenannter_Verlauf_6" x1="1600.135" x2="1926.591" y1="-3649.85" y2="-3649.85" data-name="Unbenannter Verlauf 6" gradientTransform="matrix(1 0 0 -1 0 -3079.512)" gradientUnits="userSpaceOnUse">
      <stop offset="0" stop-color="#102a51"/>
      <stop offset=".4" stop-color="#13335a"/>
      <stop offset=".6" stop-color="#163961"/>
      <stop offset=".8" stop-color="#1e4f78"/>
      <stop offset="1" stop-color="#255e89"/>
    </linearGradient>
    <linearGradient id="Unbenannter_Verlauf_7" x1="1780.147" x2="1831.481" y1="-3514.22" y2="-3495.522" data-name="Unbenannter Verlauf 7" gradientTransform="matrix(1 0 0 -1 0 -3079.512)" gradientUnits="userSpaceOnUse">
      <stop offset=".4" stop-color="#fff" stop-opacity="0"/>
      <stop offset="1"/>
    </linearGradient>
    <linearGradient id="Unbenannter_Verlauf_8" x1="1903.795" x2="1890.753" y1="-3707.165" y2="-3633.196" data-name="Unbenannter Verlauf 8" gradientTransform="matrix(1 0 0 -1 0 -3079.512)" gradientUnits="userSpaceOnUse">
      <stop offset="0" stop-color="#fff" stop-opacity="0"/>
      <stop offset=".7"/>
    </linearGradient>
    <style>
      .cls-10{fill:#fff}.cls-13,.cls-14,.cls-17,.cls-19{font-family:PTSans-Bold,&quot;PT Sans&quot;;font-weight:700}.cls-13,.cls-14,.cls-21,.cls-22{letter-spacing:.005em}.cls-23{fill:#0084ff}.cls-25{letter-spacing:-.018em}.cls-26{letter-spacing:-.031em}.cls-27{fill:#3483f6}.cls-17{fill:#182949;font-size:60px}.cls-29{letter-spacing:0}.cls-31,.cls-32{stroke:#13294b;stroke-width:7px}.cls-31,.cls-32,.cls-33{fill:none;stroke-linecap:round}.cls-31,.cls-33{stroke-miterlimit:10}.cls-38{fill:#eeeae0}.cls-32{stroke-linejoin:round}.cls-43{letter-spacing:-.031em}.cls-45{letter-spacing:-.006em}.cls-47,.cls-48{letter-spacing:-.012em}.cls-50{letter-spacing:-.009em}.cls-51{letter-spacing:-.007em}.cls-55{letter-spacing:-.002em}.cls-58{letter-spacing:.035em}.cls-33{stroke:#0084ff;stroke-width:10px}.cls-60,.cls-61{letter-spacing:.005em}
    </style>
  </defs>
  <path d="M1.604 1.665h3562.69V3363.33H1.604z" style="fill:#cfc5ba"/>
  <path d="M1338.315 1215.858h866.944v1144.914h-866.944zM2434.452 1215.858h866.944v1920.528h-866.944zM255.701 1215.858h866.944v1557.834H255.701z" class="cls-23"/>
  <circle cx="1783.819" cy="525.834" r="346.995" class="cls-10"/>
  <path d="M1349.477 1176.82h866.944v1172.842h-866.944zM2445.614 1176.82h866.944v1948.404h-866.944z" class="cls-38"/>
  <g style="isolation:isolate">
    <g id="Ebene_1" data-name="Ebene 1">
      <path d="M1788.534 362.283c6.561-12.173 17.106-13.517 23.603 2.008 0 .016.016.047.032.079 1.486 3.367 27.097 72.28 31.461 85.402 0 0 2.071 6.245 3.083 9.233 6.877 20.41 13.533 40.583 19.588 61.135 24.283-.822 39.934-10.782 44.63-25.88-10.434-34.117-18.386-57.926-29.564-87.616a1258.933 1258.933 0 0 0-16.932-41.879c-8.426-19.73-17.596-40.266-32.235-56.313-17.185-18.861-42.401-19.335-60.202-.806-25.674 26.813-44.646 70.937-59.317 104.611 0 0-.063.126-.063.142 9.739-2.292 18.355-4.395 27.524-6.308s19.493-3.81 29.595-5.66c0 0 .063-.142.063-.158 6.34-14.102 13.09-28.457 18.702-37.974l.032-.016Z" style="fill:#255e89"/>
      <path d="M1895.611 446.358c4.98 14.687 9.802 29.848 15.319 47.887-3.273 10.829-14.924 24.52-44.63 25.88-6.039-20.552-12.711-40.709-19.588-61.135l48.883-12.647.016.016Z" style="mix-blend-mode:multiply;fill:url(#Unbenannter_Verlauf_9);opacity:.4;isolation:isolate"/>
      <path d="M1728.727 376.464c-5.913 12.474-11.225 24.726-16.094 35.919.19-.063 13.074-3.225 26.892-6.166 11.857-2.529 24.394-4.79 30.228-5.818.095-.206 8.98-19.999 13.485-28.425-10.908.806-44.614 3.415-54.511 4.553v-.063Z" style="fill:url(#Unbenannter_Verlauf_2);mix-blend-mode:multiply;opacity:.4;isolation:isolate"/>
      <path d="M1848.151 330.696a159.696 159.696 0 0 0-6.34-10.102c-2.941-4.269-6.118-8.332-9.596-12.173-2.166-2.371-4.442-4.458-6.83-6.245-2.703-2.024-5.502-3.668-8.395-4.948-5.154-2.277-10.576-3.352-15.983-3.241a37.356 37.356 0 0 0-12.41 2.419 42.06 42.06 0 0 0-9.391 4.996c-2.498 1.755-4.901 3.826-7.177 6.197-6.751 7.083-13.106 15.319-19.003 24.346 40.472-42.875 62.7-37.184 96.611 1.344-.474-.885-.933-1.676-1.47-2.624l-.016.032Z" style="fill:#fff;opacity:.4;isolation:isolate;mix-blend-mode:overlay"/>
      <path d="M1943.308 440.666h-.063c-15.857-19.872-37.595-27.556-61.878-34.038 11.177 29.69 19.129 53.515 29.564 87.616-9.296 11.968-36.994 23.208-47.76 27.018-13.786 4.885-27.287 10.165-62.605 14.513-18.924 2.34-45.278 2.735-59.269 2.403-13.975-.332-15.778-11.572-14.576-19.066 4.901-23.271 13.817-45.42 22.513-67.49-5.77-1.233-33.247 3.763-61.736 33.358-.364 1.233-.901 3.004-1.312 4.379-1.47 5.423-3.478 12.379-4.016 15.446-4.016 22.939-6.419 51.238 14.387 67.016 11.572 8.758 26.892 10.766 40.867 12.379 14.307 1.676 28.82 1.739 43.27 1.075 32.156-1.47 65.309-6.008 96.247-15.699 17.548-4.901 36.962-14.26 47.823-22.086 14.387-10.071 26.054-23.335 31.824-41.278 7.351-22.734.996-47.491-13.311-65.546h.032Z" style="fill:url(#Unbenannter_Verlauf_3)"/>
      <path d="M1729.897 506.085c5.091-18.576 12.284-36.535 19.335-54.447-.316-.079-1.233-.206-2.593-.158-6.213.206-23.208 3.589-44.171 19.951-4.853 3.794-9.754 8.252-14.971 13.549-.364 1.233-.901 3.004-1.312 4.379-1.47 5.423-3.478 12.379-4.016 15.446-1.707 9.786-3.13 20.568-2.577 30.923.553 10.355 49.12-25.327 50.305-29.643Z" style="fill:url(#Unbenannter_Verlauf_4);mix-blend-mode:multiply;opacity:.4;isolation:isolate"/>
      <path d="M1895.943 410.834c-5.691-1.866-11.841-3.478-14.576-4.221.063.206 2.34 6.213 5.549 14.987 1.265 3.541 2.735 7.62 4.284 11.968 2.213 6.15 4.411 12.837 6.687 19.604.743 2.277 1.534 4.553 2.277 6.893.743 2.34.664 2.008.933 2.941 3.873 11.968 7.43 23.35 9.833 31.239 15.383-17.454 25.753-52.708 1.802-76.913 0 0-2.988-1.423-6.687-2.861-3.304-1.328-7.146-2.703-10.102-3.62v-.016Z" style="fill:url(#Unbenannter_Verlauf_5);mix-blend-mode:multiply;opacity:.4;isolation:isolate"/>
      <path d="M1924.447 547.727c-.443.3-3.162 2.118-4.822 3.162-1.802 1.138-4.616 2.735-5.091 3.004s-1.075.601-2.34 1.265c-1.739.933-4.016 2.134-4.948 2.545-.601.332-4.885 2.34-6.023 2.814-1.265.538-6.355 2.814-12.047 4.885-5.154 1.866-12.173 4.142-12.173 4.142-.016 0-.047 0-.063.016.269 3.478.395 7.272.332 11.889-.206 25.485-7.62 53.847-23.682 72.565-19.398 19.999-42.606 32.71-71.237 36.788-39.934 4.553-69.498-2.277-95.52-23.414-23.145-18.592-36.994-51.697-37.927-81.339-1.075-29.627 8.49-60.139 23.208-83.268 4.822-6.687 9.96-12.505 15.256-17.722 29.279-27.271 61.404-33.342 61.593-33.389.126-.032.332-.079.332-.079 22.212-5.391 41.421-4.853 50.242-4.648 13.311.126 30.828 1.075 44.077 2.814-2.277-6.814-10.276-28.694-17.659-48.614-18.45-1.454-37.294-2.213-56.187-.87-5.375.379-10.766.933-16.141 1.692-1.186.174-2.371.348-3.573.538h-.032c-1.186.19-2.371.379-3.541.585h-.047c-1.186.206-2.356.427-3.541.648h-.047c-1.17.237-2.356.474-3.525.727h-.047c-1.17.253-2.356.506-3.525.79h-.032c-1.186.269-2.356.553-3.541.854h-.032c-1.186.3-2.371.617-3.541.933a178.09 178.09 0 0 0-15.952 5.17c-11.857 4.474-23.572 10.371-35.065 18.054-54.574 40.266-81.339 95.647-76.992 160.592 4.221 62.668 37.721 115.582 95.915 138.459 50.495 19.793 114.049 14.45 160.133-14.45 57.973-36.377 76.913-102.84 67.759-167.168l.047.032Z" style="fill:url(#Unbenannter_Verlauf_6)"/>
      <path d="M1769.8 400.289a378.72 378.72 0 0 1 8.553-.458c4.348-.158 8.822-.237 10.592-.237 5.423-.126 25.833.522 37.026 1.565 7.383 19.92 15.383 41.8 17.659 48.614-13.248-1.739-30.765-2.672-44.077-2.814 0 0-29.896-22.291-29.753-46.669Z" style="fill:url(#Unbenannter_Verlauf_7);mix-blend-mode:multiply;opacity:.4;isolation:isolate"/>
      <path d="M1921.064 624.608c6.181-24.552 7.083-50.89 3.383-76.865-.443.3-3.162 2.118-4.822 3.162-1.802 1.138-4.616 2.735-5.091 3.004s-1.075.601-2.34 1.265c-1.739.933-4.016 2.134-4.948 2.545-.601.332-4.885 2.34-6.023 2.814-1.265.538-6.355 2.814-12.047 4.885-5.154 1.866-12.173 4.142-12.173 4.142-.016 0-.047 0-.063.016.269 3.478.395 7.272.332 11.889-.126 15.13-2.782 31.271-8.284 45.816l52.076-2.672Z" style="fill:url(#Unbenannter_Verlauf_8);mix-blend-mode:multiply;opacity:.4;isolation:isolate"/>
      <path d="M1757.437 585.591c-53.957-6.893-76.913-26.797-75.221-81.007l-.032.158s-.063.348-.095.506c-.111.664-.237 1.344-.348 2.024-.158.917-.3 1.85-.443 2.782s-.095.585-.126.885c-1.723 11.541-2.672 23.999-.237 35.334 1.075 5.027 2.782 9.786 5.391 14.165.348.553.696 1.122 1.059 1.676 2.34 3.557 5.312 6.782 9.027 9.628 3.857 2.925 8.11 5.138 12.632 6.798 9.075 3.336 19.003 4.648 28.251 5.676 6.798.806 13.422 1.217 20.141 1.391v-.016Z" style="opacity:.3;mix-blend-mode:multiply;isolation:isolate"/>
    </g>
  </g>
  <circle cx="2875.333" cy="1678.342" r="346.995" class="cls-10"/>
  <circle cx="1783.819" cy="1679.014" r="346.995" class="cls-10"/>
  <text class="cls-17" transform="translate(1499.011 1712.496)"><tspan x="0" y="0" class="cls-21">Qualification Servi</tspan><tspan x="475.614" y="0" class="cls-48">c</tspan><tspan x="500.874" y="0" class="cls-21">es </tspan><tspan x="199.378" y="70" style="letter-spacing:-.012em">(</tspan><tspan x="218.277" y="70" class="cls-21">QuaS)</tspan><tspan x="108.448" y="420" class="cls-21">Qualification</tspan><tspan x="438.984" y="420" style="letter-spacing:-.064em">,</tspan><tspan x="448.824" y="420" class="cls-21"> </tspan><tspan class="cls-21"><tspan x="16.56" y="490">education &amp; training</tspan></tspan></text>
  <path d="m1875.118 1376.35 84.789-40.681-181.989-87.316-181.989 87.316 86.304 41.407" class="cls-31"/>
  <path d="M1682.233 1401.235s92.194-36.546 192.884 0v-70.079s-104.514-42.575-192.884 0v70.079ZM1959.907 1335.669v110.048M1971.709 1480.68h-24.83v-53.207c0-12.612 24.83-12.612 24.83 0v53.207Z" class="cls-31"/>
  <text style="fill:#182949;font-size:60px" transform="translate(2571.97 1713.751)"><tspan class="cls-19"><tspan x="0" y="0" class="cls-45">C</tspan><tspan x="33.181" y="0" class="cls-21">atalogue and </tspan><tspan x="387.474" y="0" style="letter-spacing:-.043em">R</tspan><tspan x="421.014" y="0" class="cls-29">e</tspan><tspan x="451.494" y="0" class="cls-21">gistr</tspan><tspan x="568.613" y="0" class="cls-26">y</tspan><tspan x="595.434" y="0" class="cls-21"> </tspan></tspan><tspan class="cls-19"><tspan x="107.578" y="70" class="cls-21">Servi</tspan><tspan x="237.177" y="70" class="cls-48">c</tspan><tspan x="262.437" y="70" class="cls-22">es </tspan><tspan x="334.315" y="70" class="cls-48">(</tspan><tspan x="353.216" y="70" class="cls-21">C</tspan><tspan x="387.055" y="70" style="letter-spacing:-.043em">R</tspan><tspan x="420.596" y="70" class="cls-21">eS)</tspan></tspan><tspan class="cls-19"><tspan x="-52.95" y="420" class="cls-26">C</tspan><tspan x="-21.271" y="420" class="cls-21">oll</tspan><tspan x="47.128" y="420" class="cls-29">e</tspan><tspan x="77.608" y="420" class="cls-21">ction </tspan><tspan x="222.566" y="420" class="cls-51">o</tspan><tspan x="254.366" y="420" class="cls-21">f</tspan><tspan x="273.926" y="420" style="letter-spacing:-.008em"> </tspan><tspan x="288.626" y="420" class="cls-21">wri</tspan><tspan x="369.985" y="420" class="cls-55">t</tspan><tspan x="390.806" y="420" style="letter-spacing:0">t</tspan><tspan x="411.747" y="420" class="cls-21">en output</tspan></tspan><tspan class="cls-19"><tspan x="112.859" y="560" class="cls-45">C</tspan><tspan x="146.04" y="560" class="cls-21">atalogues </tspan><tspan x="414.775" y="560" style="letter-spacing:-.007em">o</tspan><tspan x="446.575" y="560" class="cls-21">f: </tspan></tspan><tspan class="cls-19"><tspan x="-67.049" y="630" class="cls-22">authori</tspan><tspan x="120.148" y="630" class="cls-25">t</tspan><tspan x="140.009" y="630" class="cls-26">y</tspan><tspan xml:space="preserve" x="166.829" y="630" class="cls-21"> files &amp; </tspan><tspan x="370.226" y="630" class="cls-47">c</tspan><tspan x="395.486" y="630" class="cls-61">ommuni</tspan><tspan x="607.224" y="630" class="cls-25">t</tspan><tspan x="627.084" y="630" class="cls-21">y</tspan><tspan x="656.063" y="630" style="letter-spacing:-.075em">-</tspan></tspan><tspan class="cls-19"><tspan x="54.659" y="700" class="cls-22">dri</tspan><tspan x="125.098" y="700" class="cls-55">v</tspan><tspan x="153.598" y="700" class="cls-22">en</tspan><tspan x="217.378" y="700" style="letter-spacing:-.015em"> </tspan><tspan x="231.658" y="700" class="cls-55">v</tspan><tspan x="260.158" y="700" class="cls-21">ocabularies</tspan></tspan><tspan class="cls-19"><tspan x="-2.039" y="840" class="cls-21">RDM FAIRification </tspan><tspan x="483.413" y="840">t</tspan><tspan x="504.354" y="840" class="cls-22">ools</tspan></tspan><tspan class="cls-19"><tspan x="1.921" y="980" class="cls-22">standards &amp; on</tspan><tspan x="399.774" y="980">t</tspan><tspan x="420.715" y="980" class="cls-22">ologies</tspan></tspan><tspan class="cls-19"><tspan x="3.24" y="1120" class="cls-22">datasets &amp; reposi</tspan><tspan x="460.014" y="1120">t</tspan><tspan x="480.954" y="1120" class="cls-22">ories</tspan></tspan><tspan x="-79.079" y="1260" class="cls-13">quali</tspan><tspan x="50.398" y="1260" style="letter-spacing:-.018em;font-family:PTSans-Bold,&quot;PT Sans&quot;;font-weight:700">t</tspan><tspan x="70.259" y="1260" style="letter-spacing:-.031em;font-family:PTSans-Bold,&quot;PT Sans&quot;;font-weight:700">y</tspan><tspan xml:space="preserve" x="97.079" y="1260" class="cls-13"> cri</tspan><tspan x="176.639" y="1260" class="cls-19">t</tspan><tspan x="197.579" y="1260" class="cls-13">eria </tspan><tspan x="311.697" y="1260" class="cls-19">f</tspan><tspan x="330.957" y="1260" class="cls-14">or</tspan><tspan x="384.837" y="1260" style="font-family:PTSans-Regular,&quot;PT Sans&quot;;letter-spacing:.005em"> </tspan><tspan x="401.156" y="1260" class="cls-14">obj</tspan><tspan x="482.515" y="1260" style="letter-spacing:0;font-family:PTSans-Bold,&quot;PT Sans&quot;;font-weight:700">e</tspan><tspan x="512.995" y="1260" class="cls-14">ct data</tspan></text>
  <path d="M2776.447 1405.583v9.02c0 2.211 2.25 4.02 5 4.02h197.543c2.75 0 5-2.25 5-5v-127.729c0-2.75-2.25-5-5-5h-197.543c-2.75 0-5 1.612-5 3.582v121.107Z" class="cls-31"/>
  <rect width="261.178" height="172.804" x="2749.168" y="1263.129" class="cls-31" rx="23" ry="23"/>
  <path d="M2797.039 1335.593h154.073M2797.039 1356.464h164.736M2797.039 1376.61h147.269M2797.039 1396.654h164.842M2796.615 1314.82h164.737" class="cls-31"/>
  <path d="M266.863 1176.82h866.944v1585.872H266.863z" class="cls-38"/>
  <circle cx="692.456" cy="1676.342" r="346.995" class="cls-10"/>
  <text class="cls-17" transform="translate(468.999 1710.087)"><tspan x="0" y="0" class="cls-60">Suppo</tspan><tspan x="162.598" y="0" style="letter-spacing:.035em">r</tspan><tspan x="185.758" y="0" class="cls-21">t Servi</tspan><tspan x="352.076" y="0" class="cls-47">c</tspan><tspan x="377.336" y="0" class="cls-21">es </tspan><tspan class="cls-60"><tspan x="156.328" y="70">(SuS)</tspan></tspan><tspan x="81.179" y="420" class="cls-21">N4</tspan><tspan x="155.218" y="420" style="letter-spacing:-.008em">O</tspan><tspan xml:space="preserve" x="194.939" y="420" class="cls-21"> po</tspan><tspan x="275.637" y="420" class="cls-58">r</tspan><tspan x="298.797" y="420" class="cls-61">tal</tspan><tspan x="-97.5" y="560" class="cls-43">C</tspan><tspan x="-65.82" y="560" class="cls-21">ommuni</tspan><tspan x="145.918" y="560" style="letter-spacing:-.018em">t</tspan><tspan x="165.778" y="560" class="cls-43">y</tspan><tspan xml:space="preserve" x="192.598" y="560" class="cls-60"> engagement </tspan><tspan x="-81.509" y="630" class="cls-21">and kn</tspan><tspan x="92.428" y="630" style="letter-spacing:-.004em">o</tspan><tspan x="124.408" y="630" class="cls-21">wledge trans</tspan><tspan x="459.324" y="630" class="cls-29">f</tspan><tspan x="478.584" y="630" class="cls-21">er</tspan><tspan x="-55.708" y="770" class="cls-60">2nd l</tspan><tspan x="77.668" y="770" class="cls-50">e</tspan><tspan x="107.609" y="770" class="cls-55">v</tspan><tspan x="136.109" y="770" class="cls-60">el suppo</tspan><tspan x="356.425" y="770" class="cls-58">r</tspan><tspan x="379.585" y="770" class="cls-61">t </tspan><tspan x="416.304" y="770" class="cls-29">f</tspan><tspan x="435.565" y="770" class="cls-22">or </tspan><tspan x="-1.68" y="840" class="cls-21">s</tspan><tspan x="23.939" y="840" class="cls-29">t</tspan><tspan x="44.88" y="840" class="cls-21">orage</tspan><tspan x="192.058" y="840" style="letter-spacing:-.064em">,</tspan><tspan xml:space="preserve" x="201.899" y="840" style="letter-spacing:.005em"> retri</tspan><tspan x="328.557" y="840" class="cls-50">e</tspan><tspan x="358.498" y="840" class="cls-21">val </tspan><tspan x="-60.719" y="910" class="cls-21">and dis</tspan><tspan x="125.157" y="910" class="cls-48">c</tspan><tspan x="150.417" y="910" class="cls-51">o</tspan><tspan x="182.217" y="910" style="letter-spacing:-.002em">v</tspan><tspan x="210.717" y="910" class="cls-21">er</tspan><tspan x="262.857" y="910" style="letter-spacing:-.031em">y</tspan><tspan xml:space="preserve" x="289.676" y="910" class="cls-21"> servi</tspan><tspan x="428.275" y="910" class="cls-48">c</tspan><tspan x="453.535" y="910" class="cls-22">es</tspan></text>
  <path d="m658.893 1265.209 23.287-5.08 12.278 22.862h11.008l16.512-19.899 23.709 8.468-2.964 25.826 10.162 6.775 24.979-8.891 13.548 18.205-14.818 20.322 4.657 14.819 24.98 5.504 1.693 21.927-23.286 8.133-4.234 14.819 18.206 19.052-9.738 19.052-25.826-5.504-10.585 11.008 3.811 24.556-19.899 11.432-17.783-19.053-13.971 2.117-8.468 24.133h-24.556l-5.081-26.25-11.431-6.35-21.593 15.241-18.628-16.935 9.314-23.709-5.927-9.738-27.52 1.693-6.774-20.745 21.169-16.936 1.27-9.277-22.439-15.279 5.504-24.133h23.709l5.927-10.585-11.634-21.768 16.715-18.453 23.286 13.548 9.315-5.504 2.116-25.403z" class="cls-32"/>
  <circle cx="695.939" cy="1372.96" r="64.345" class="cls-32"/>
  <path d="M1436.824 525.834H695.396v650.986M1778.107 872.764v302.191M2130.814 525.834h741.428v649.121" class="cls-33"/>
  <path d="M551.803 1467.028c1.212 0 2.423.462 3.348 1.387l142.581 142.581 142.581-142.581a4.734 4.734 0 1 1 6.695 6.695l-149.276 149.276-149.276-149.276a4.734 4.734 0 0 1 3.348-8.082ZM1635.911 1467.044c1.212 0 2.423.462 3.348 1.387l142.581 142.581 142.581-142.581a4.734 4.734 0 1 1 6.695 6.695l-149.276 149.276-149.276-149.276a4.734 4.734 0 0 1 3.348-8.082ZM2734.305 1467.059c1.212 0 2.423.462 3.348 1.387l142.581 142.581 142.581-142.581a4.734 4.734 0 1 1 6.695 6.695l-149.276 149.276-149.276-149.276a4.734 4.734 0 0 1 3.348-8.082Z" class="cls-27"/>
</svg>
