<svg xmlns="http://www.w3.org/2000/svg" id="Zeitplan" viewBox="0 0 3782.61 2849.14">
  <defs>
    <style>
      .cls-4{letter-spacing:-.02em}.cls-7,.cls-8{letter-spacing:-.03em}.cls-10,.cls-8{font-family:PTSans-Regular,&quot;PT Sans&quot;;font-size:100px}.cls-10,.cls-11,.cls-8{fill:#182949}.cls-12,.cls-15{stroke:#cd8255;stroke-width:7px;fill:none;stroke-linecap:round;stroke-miterlimit:10}.cls-15{stroke:#0084ff}.cls-21{letter-spacing:0}.cls-22{letter-spacing:-.07em}.cls-23{letter-spacing:-.03em}.cls-11,.cls-26,.cls-28,.cls-29,.cls-30,.cls-31,.cls-32{stroke-width:0}.cls-26{fill:#13294b}.cls-28{fill:#cd8255}.cls-29{fill:#bca089}.cls-30{fill:#fff}.cls-31{fill:#e7c6ac}.cls-32{fill:#0084ff}
    </style>
  </defs>
  <path d="M0 0h3782.61v2849.14H0z" style="fill:#cfc5ba;stroke-width:0"/>
  <path d="M623.43 469.73v1950H473.69v-1950zM871.65 469.72v1950H721.91v-1950zM1119.88 469.73v1950H970.14v-1950zM1368.1 469.73v1950h-149.74v-1950zM1616.32 469.72v1950h-149.74v-1950zM1864.54 469.73v1950H1714.8v-1950zM2112.77 469.73v1950h-149.74v-1950zM2360.99 469.72v1950h-149.74v-1950zM2609.21 469.73v1950h-149.74v-1950zM2857.44 469.73v1950H2707.7v-1950zM3105.66 469.73v1950h-149.74v-1950zM3366.95 469.73v1950h-149.74v-1950z" class="cls-30"/>
  <text class="cls-10" transform="translate(980.99 796.91)"><tspan x="0" y="0">AUFBAU</tspan></text>
  <text class="cls-10" transform="translate(2479.06 796.91)"><tspan x="0" y="0">T</tspan><tspan x="55.5" y="0" class="cls-23">R</tspan><tspan x="112.4" y="0">AI</tspan><tspan x="200" y="0" style="letter-spacing:-.02em">L</tspan><tspan x="249.7" y="0">s 1</tspan></text>
  <text class="cls-10" transform="translate(485.27 1433.19)"><tspan x="0" y="0">ENDE</tspan><tspan x="239.9" y="0" class="cls-7"> </tspan><tspan x="263.5" y="0">T</tspan><tspan x="319" y="0" class="cls-23">R</tspan><tspan x="375.9" y="0">AI</tspan><tspan x="463.5" y="0" class="cls-4">L</tspan><tspan x="513.2" y="0" class="cls-21">s 1</tspan></text>
  <text class="cls-10" transform="translate(1270.8 1434.5)"><tspan x="0" y="0" class="cls-4">E</tspan><tspan x="51.6" y="0" style="letter-spacing:-.06em">V</tspan><tspan x="101.9" y="0" class="cls-4">ALU</tspan><tspan x="271.3" y="0" style="letter-spacing:-.09em">A</tspan><tspan x="321.1" y="0" class="cls-4">TION</tspan></text>
  <text class="cls-10" transform="translate(2481.14 1424.33)"><tspan x="0" y="0" class="cls-4">T</tspan><tspan x="53.5" y="0" style="letter-spacing:-.05em">R</tspan><tspan x="108.4" y="0" class="cls-4">AI</tspan><tspan x="192" y="0" style="letter-spacing:-.04em">L</tspan><tspan x="239.7" y="0" class="cls-4">s 2</tspan></text>
  <text class="cls-10" transform="translate(1475.46 2045.95)"><tspan x="0" y="0">ENDE</tspan><tspan x="239.9" y="0" class="cls-7"> </tspan><tspan x="263.5" y="0">T</tspan><tspan x="319" y="0" class="cls-23">R</tspan><tspan x="375.9" y="0">AI</tspan><tspan x="463.5" y="0" class="cls-4">L</tspan><tspan x="513.2" y="0" class="cls-21">s 2</tspan></text>
  <text class="cls-10" transform="translate(2416.49 2051.65)"><tspan x="0" y="0" style="letter-spacing:-.05em">K</tspan><tspan x="56.1" y="0">ONSOLIDIERUNG</tspan></text>
  <text class="cls-10" transform="translate(177.42 235.01)"><tspan x="0" y="0" class="cls-22">L</tspan><tspan x="44.2" y="0">AUFZEITP</tspan><tspan x="468.19" y="0" class="cls-22">L</tspan><tspan x="512.39" y="0">ANUNG NFDI4OBJE</tspan><tspan x="1336.08" y="0" style="letter-spacing:-.03em">C</tspan><tspan x="1390.38" y="0">TS</tspan></text>
  <circle cx="1289.93" cy="1231.43" r="69.2" class="cls-26"/>
  <circle cx="1538.05" cy="1231.17" r="69.2" class="cls-26"/>
  <circle cx="1785.98" cy="1230.01" r="69.2" class="cls-26"/>
  <path d="M1273.03 1221.93h-23.35" style="stroke-width:2.07px;stroke:#182949;fill:none;stroke-linecap:round;stroke-miterlimit:10"/>
  <path d="M1784.98 1228.01h43.23" style="stroke-width:2.82px;stroke:#182949;fill:none;stroke-linecap:round;stroke-miterlimit:10"/>
  <path d="m1828.83 1230.87-493.52.13" style="stroke:#182949;fill:none;stroke-linecap:round;stroke-miterlimit:10;stroke-width:7px"/>
  <circle cx="2038.37" cy="1238.91" r="69.2" class="cls-32"/>
  <path d="M2071.14 1230.46h1159.12" class="cls-15"/>
  <circle cx="3254.7" cy="1230.46" r="69.2" class="cls-31"/>
  <circle cx="3299.46" cy="1230.46" r="69.2" class="cls-32"/>
  <path d="m3278.76 1856.26-940.52.24" style="stroke-width:9.66px;stroke:#bca089;fill:none;stroke-linecap:round;stroke-miterlimit:10"/>
  <circle cx="2287.29" cy="1855.9" r="69.2" class="cls-29"/>
  <circle cx="3278.76" cy="1856.38" r="69.2" class="cls-29"/>
  <path d="m581.41 917.6 2673.29.67" class="cls-12"/>
  <circle cx="512.21" cy="917.92" r="69.2" class="cls-31"/>
  <circle cx="556.97" cy="917.92" r="69.2" class="cls-28"/>
  <circle cx="3255.73" cy="917.25" r="69.2" class="cls-31"/>
  <circle cx="3300.49" cy="917.25" r="69.2" class="cls-28"/>
  <path d="m1045.62 604.25 1708.67-1.18" style="stroke:#e7c6ac;fill:none;stroke-linecap:round;stroke-miterlimit:10;stroke-width:7px"/>
  <circle cx="2027.97" cy="604.11" r="69.2" class="cls-28"/>
  <path d="m2025.71 604.09 1160.83-.48" class="cls-12"/>
  <circle cx="1031.5" cy="605.18" r="69.2" class="cls-31"/>
  <circle cx="3255.73" cy="603.63" r="69.2" class="cls-31"/>
  <circle cx="3300.49" cy="603.63" r="69.2" class="cls-28"/>
  <path d="m581.41 1543.92 2640.94-.38" class="cls-15"/>
  <circle cx="512.21" cy="1543.92" r="69.2" class="cls-31"/>
  <circle cx="556.97" cy="1543.92" r="69.2" class="cls-32"/>
  <circle cx="3260.38" cy="1543.92" r="69.2" class="cls-31"/>
  <circle cx="3305.14" cy="1543.92" r="69.2" class="cls-32"/>
  <circle cx="1042.75" cy="1230.93" r="69.2" class="cls-28"/>
  <circle cx="512.21" cy="1231.71" r="69.2" class="cls-31"/>
  <circle cx="556.97" cy="1231.71" r="69.2" class="cls-28"/>
  <path d="M603.94 1231.2h438.81" class="cls-12"/>
  <circle cx="2037.54" cy="1851.26" r="69.2" class="cls-32"/>
  <circle cx="512.21" cy="1856.49" r="69.2" class="cls-31"/>
  <circle cx="556.97" cy="1856.49" r="69.2" class="cls-32"/>
  <path d="M581.42 1856.49h1402.06" class="cls-15"/>
  <path d="m739.09 2169.86-157.68.04" style="stroke:#bca089;stroke-width:5.26px;fill:none;stroke-linecap:round;stroke-miterlimit:10"/>
  <circle cx="534.74" cy="2170.24" r="69.2" class="cls-29"/>
  <circle cx="784.02" cy="2170.24" r="69.2" class="cls-29"/>
  <g id="Zahlen">
    <path d="M2987.95 2356.18h14v-48.4l1-5.9-4 4.7-11 7.9-3.8-5.1 22-17h3.6v63.8h13.7v7.4h-35.5v-7.4ZM3039.95 2356.18h14v-48.4l1-5.9-4 4.7-11 7.9-3.8-5.1 22-17h3.6v63.8h13.7v7.4h-35.5v-7.4ZM2739.58 2355.58h14v-48.4l1-5.9-4 4.7-11 7.9-3.8-5.1 22-17h3.6v63.8h13.7v7.4h-35.5v-7.4ZM2785.08 2327.98c0-12 1.95-21.03 5.85-27.1 3.9-6.07 9.58-9.1 17.05-9.1 8.07 0 13.92 2.98 17.55 8.95 3.63 5.97 5.45 15.05 5.45 27.25s-1.95 21.03-5.85 27.1c-3.9 6.07-9.62 9.1-17.15 9.1-7.93 0-13.73-3.17-17.4-9.5-3.67-6.33-5.5-15.23-5.5-26.7Zm8.3 0c0 4.33.28 8.28.85 11.85.57 3.57 1.45 6.63 2.65 9.2 1.2 2.57 2.72 4.57 4.55 6 1.83 1.44 4.02 2.15 6.55 2.15 5.07 0 8.78-2.35 11.15-7.05 2.37-4.7 3.55-12.08 3.55-22.15 0-4.27-.25-8.2-.75-11.8s-1.33-6.7-2.5-9.3c-1.17-2.6-2.68-4.6-4.55-6-1.87-1.4-4.17-2.1-6.9-2.1-5 0-8.68 2.37-11.05 7.1-2.37 4.73-3.55 12.1-3.55 22.1ZM2486.42 2327.98c0-12 1.95-21.03 5.85-27.1 3.9-6.07 9.58-9.1 17.05-9.1 8.07 0 13.92 2.98 17.55 8.95 3.63 5.97 5.45 15.05 5.45 27.25s-1.95 21.03-5.85 27.1c-3.9 6.07-9.62 9.1-17.15 9.1-7.93 0-13.73-3.17-17.4-9.5-3.67-6.33-5.5-15.23-5.5-26.7Zm8.3 0c0 4.33.28 8.28.85 11.85.57 3.57 1.45 6.63 2.65 9.2 1.2 2.57 2.72 4.57 4.55 6 1.83 1.44 4.02 2.15 6.55 2.15 5.07 0 8.78-2.35 11.15-7.05 2.37-4.7 3.55-12.08 3.55-22.15 0-4.27-.25-8.2-.75-11.8s-1.33-6.7-2.5-9.3c-1.17-2.6-2.68-4.6-4.55-6-1.87-1.4-4.17-2.1-6.9-2.1-5 0-8.68 2.37-11.05 7.1-2.37 4.73-3.55 12.1-3.55 22.1ZM2539.32 2314.18c0-3.2.47-6.17 1.4-8.9.93-2.73 2.3-5.1 4.1-7.1s4.05-3.56 6.75-4.7c2.7-1.13 5.85-1.7 9.45-1.7 6.8 0 12.1 2.2 15.9 6.6 3.8 4.4 5.7 10.6 5.7 18.6 0 7.53-.85 14.12-2.55 19.75-1.7 5.63-4.05 10.38-7.05 14.25-3 3.87-6.55 6.88-10.65 9.05-4.1 2.17-8.55 3.55-13.35 4.15l-1.8-6.4c3.87-.6 7.35-1.73 10.45-3.4 3.1-1.67 5.77-3.77 8-6.3 2.23-2.53 4.05-5.42 5.45-8.65 1.4-3.23 2.37-6.75 2.9-10.55-1.8 2.13-3.79 3.62-5.95 4.45-2.17.83-5.02 1.25-8.55 1.25-2.73 0-5.32-.45-7.75-1.35a19.25 19.25 0 0 1-6.45-3.95c-1.87-1.73-3.33-3.87-4.4-6.4-1.07-2.53-1.6-5.43-1.6-8.7Zm8.3-.8c0 4.73 1.25 8.28 3.75 10.65 2.5 2.37 5.78 3.55 9.85 3.55 3.27 0 6.07-.53 8.4-1.6s4-2.47 5-4.2c.13-.87.2-1.63.2-2.3v-2.1c0-2.4-.28-4.72-.85-6.95-.57-2.23-1.42-4.23-2.55-6a12.056 12.056 0 0 0-4.45-4.15c-1.83-1-3.98-1.5-6.45-1.5-4.07 0-7.23 1.29-9.5 3.85-2.27 2.57-3.4 6.15-3.4 10.75ZM2237.85 2327.98c0-12 1.95-21.03 5.85-27.1 3.9-6.07 9.58-9.1 17.05-9.1 8.07 0 13.92 2.98 17.55 8.95 3.63 5.97 5.45 15.05 5.45 27.25s-1.95 21.03-5.85 27.1c-3.9 6.07-9.62 9.1-17.15 9.1-7.93 0-13.73-3.17-17.4-9.5-3.67-6.33-5.5-15.23-5.5-26.7Zm8.3 0c0 4.33.28 8.28.85 11.85.57 3.57 1.45 6.63 2.65 9.2 1.2 2.57 2.72 4.57 4.55 6 1.83 1.44 4.02 2.15 6.55 2.15 5.07 0 8.78-2.35 11.15-7.05 2.37-4.7 3.55-12.08 3.55-22.15 0-4.27-.25-8.2-.75-11.8s-1.33-6.7-2.5-9.3c-1.17-2.6-2.68-4.6-4.55-6-1.87-1.4-4.17-2.1-6.9-2.1-5 0-8.68 2.37-11.05 7.1-2.37 4.73-3.55 12.1-3.55 22.1ZM2292.35 2346.28c0-4.2 1.1-7.85 3.3-10.95 2.2-3.1 5.63-5.92 10.3-8.45-1.67-1-3.22-2.05-4.65-3.15-1.43-1.1-2.7-2.35-3.8-3.75-1.1-1.4-1.97-2.97-2.6-4.7-.63-1.73-.95-3.73-.95-6 0-2.6.45-4.96 1.35-7.1.9-2.13 2.2-3.96 3.9-5.5 1.7-1.53 3.73-2.73 6.1-3.6 2.37-.87 5.05-1.3 8.05-1.3 2.8 0 5.33.4 7.6 1.2 2.27.8 4.18 1.9 5.75 3.3 1.57 1.4 2.78 3.07 3.65 5 .87 1.94 1.3 4.07 1.3 6.4 0 3.8-.87 7.15-2.6 10.05-1.73 2.9-4.6 5.75-8.6 8.55 1.73 1 3.38 2.1 4.95 3.3s2.93 2.54 4.1 4c1.17 1.47 2.08 3.12 2.75 4.95.67 1.84 1 3.92 1 6.25 0 2.87-.47 5.48-1.4 7.85-.93 2.37-2.3 4.4-4.1 6.1-1.8 1.7-4 3.03-6.6 4-2.6.96-5.57 1.45-8.9 1.45s-6.03-.47-8.5-1.4c-2.47-.93-4.55-2.2-6.25-3.8s-2.98-3.48-3.85-5.65c-.87-2.17-1.3-4.52-1.3-7.05Zm33.1-1c0-2-.4-3.75-1.2-5.25s-1.85-2.87-3.15-4.1a25.52 25.52 0 0 0-4.45-3.35c-1.67-1-3.4-1.96-5.2-2.9-4.07 2.27-6.97 4.8-8.7 7.6-1.73 2.8-2.6 5.47-2.6 8 0 1.6.27 3.13.8 4.6.53 1.47 1.33 2.73 2.4 3.8 1.07 1.07 2.38 1.92 3.95 2.55 1.57.63 3.38.95 5.45.95 1.67 0 3.27-.25 4.8-.75 1.53-.5 2.88-1.23 4.05-2.2 1.17-.97 2.1-2.2 2.8-3.7.7-1.5 1.05-3.25 1.05-5.25Zm-23.7-36.2c0 1.87.37 3.52 1.1 4.95.73 1.44 1.72 2.72 2.95 3.85 1.23 1.13 2.65 2.18 4.25 3.15 1.6.97 3.27 1.88 5 2.75 3-2.33 5.22-4.63 6.65-6.9 1.43-2.27 2.15-4.77 2.15-7.5 0-3.4-1.05-6.02-3.15-7.85-2.1-1.83-4.62-2.75-7.55-2.75-1.8 0-3.4.3-4.8.9-1.4.6-2.6 1.37-3.6 2.3s-1.75 2.02-2.25 3.25-.75 2.52-.75 3.85ZM1989.09 2327.98c0-12 1.95-21.03 5.85-27.1 3.9-6.07 9.58-9.1 17.05-9.1 8.07 0 13.92 2.98 17.55 8.95 3.63 5.97 5.45 15.05 5.45 27.25s-1.95 21.03-5.85 27.1c-3.9 6.07-9.62 9.1-17.15 9.1-7.93 0-13.73-3.17-17.4-9.5-3.67-6.33-5.5-15.23-5.5-26.7Zm8.3 0c0 4.33.28 8.28.85 11.85.57 3.57 1.45 6.63 2.65 9.2 1.2 2.57 2.72 4.57 4.55 6 1.83 1.44 4.02 2.15 6.55 2.15 5.07 0 8.78-2.35 11.15-7.05 2.37-4.7 3.55-12.08 3.55-22.15 0-4.27-.25-8.2-.75-11.8s-1.33-6.7-2.5-9.3c-1.17-2.6-2.68-4.6-4.55-6-1.87-1.4-4.17-2.1-6.9-2.1-5 0-8.68 2.37-11.05 7.1-2.37 4.73-3.55 12.1-3.55 22.1ZM2047.79 2362.98l25.1-58.6 4.4-4.9-5.9.9h-28.5v-7.4h41.8v2.7l-28.9 67.3h-8ZM1739.02 2327.98c0-12 1.95-21.03 5.85-27.1 3.9-6.07 9.58-9.1 17.05-9.1 8.07 0 13.92 2.98 17.55 8.95 3.63 5.97 5.45 15.05 5.45 27.25s-1.95 21.03-5.85 27.1c-3.9 6.07-9.62 9.1-17.15 9.1-7.93 0-13.73-3.17-17.4-9.5-3.67-6.33-5.5-15.23-5.5-26.7Zm8.3 0c0 4.33.28 8.28.85 11.85.57 3.57 1.45 6.63 2.65 9.2 1.2 2.57 2.72 4.57 4.55 6 1.83 1.44 4.02 2.15 6.55 2.15 5.07 0 8.78-2.35 11.15-7.05 2.37-4.7 3.55-12.08 3.55-22.15 0-4.27-.25-8.2-.75-11.8s-1.33-6.7-2.5-9.3c-1.17-2.6-2.68-4.6-4.55-6-1.87-1.4-4.17-2.1-6.9-2.1-5 0-8.68 2.37-11.05 7.1-2.37 4.73-3.55 12.1-3.55 22.1ZM1835.92 2341.88c0 3.07-.47 5.95-1.4 8.65-.93 2.7-2.3 5.07-4.1 7.1s-4.03 3.63-6.7 4.8-5.7 1.75-9.1 1.75-6.33-.53-9-1.6a18.685 18.685 0 0 1-6.9-4.75c-1.93-2.1-3.42-4.68-4.45-7.75-1.03-3.07-1.55-6.6-1.55-10.6 0-6.6.85-12.68 2.55-18.25s4.05-10.42 7.05-14.55c3-4.13 6.55-7.48 10.65-10.05s8.55-4.18 13.35-4.85l1.7 6.4c-3.73.67-7.13 1.94-10.2 3.8-3.07 1.87-5.75 4.17-8.05 6.9s-4.18 5.8-5.65 9.2c-1.47 3.4-2.47 6.9-3 10.5 1.07-1.8 2.87-3.45 5.4-4.95 2.53-1.5 5.63-2.25 9.3-2.25 6.27 0 11.18 1.8 14.75 5.4 3.57 3.6 5.35 8.63 5.35 15.1Zm-8.3.8c0-4.73-1.1-8.3-3.3-10.7-2.2-2.4-5.6-3.6-10.2-3.6-3.27 0-6.08.8-8.45 2.4-2.37 1.6-4.02 3.4-4.95 5.4-.13.94-.2 1.7-.2 2.3v2c0 2.07.28 4.1.85 6.1s1.45 3.79 2.65 5.35c1.2 1.57 2.68 2.83 4.45 3.8 1.77.97 3.85 1.45 6.25 1.45 1.93 0 3.68-.37 5.25-1.1a12.3 12.3 0 0 0 4.05-3c1.13-1.27 2.02-2.8 2.65-4.6.63-1.8.95-3.73.95-5.8ZM1492.96 2327.98c0-12 1.95-21.03 5.85-27.1 3.9-6.07 9.58-9.1 17.05-9.1 8.07 0 13.92 2.98 17.55 8.95 3.63 5.97 5.45 15.05 5.45 27.25s-1.95 21.03-5.85 27.1c-3.9 6.07-9.62 9.1-17.15 9.1-7.93 0-13.73-3.17-17.4-9.5-3.67-6.33-5.5-15.23-5.5-26.7Zm8.3 0c0 4.33.28 8.28.85 11.85.57 3.57 1.45 6.63 2.65 9.2 1.2 2.57 2.72 4.57 4.55 6 1.83 1.44 4.02 2.15 6.55 2.15 5.07 0 8.78-2.35 11.15-7.05 2.37-4.7 3.55-12.08 3.55-22.15 0-4.27-.25-8.2-.75-11.8s-1.33-6.7-2.5-9.3c-1.17-2.6-2.68-4.6-4.55-6-1.87-1.4-4.17-2.1-6.9-2.1-5 0-8.68 2.37-11.05 7.1-2.37 4.73-3.55 12.1-3.55 22.1ZM1561.96 2357.18c4.6 0 8.4-1.33 11.4-4s4.5-6.53 4.5-11.6-1.48-8.5-4.45-10.9c-2.97-2.4-7.05-3.6-12.25-3.6l-8.4.5v-34.6h31.2v7.4h-23.7v19.9l4.3-.2c6.6.07 11.8 1.9 15.6 5.5s5.7 8.77 5.7 15.5c0 3.73-.63 7.05-1.9 9.95-1.27 2.9-2.98 5.32-5.15 7.25-2.17 1.94-4.72 3.4-7.65 4.4-2.93 1-6.07 1.5-9.4 1.5-3 0-5.53-.17-7.6-.5-2.07-.33-4-.83-5.8-1.5l2.1-6.8c1.53.6 3.18 1.05 4.95 1.35 1.77.3 3.95.45 6.55.45ZM1239.69 2327.98c0-12 1.95-21.03 5.85-27.1 3.9-6.07 9.58-9.1 17.05-9.1 8.07 0 13.92 2.98 17.55 8.95 3.63 5.97 5.45 15.05 5.45 27.25s-1.95 21.03-5.85 27.1c-3.9 6.07-9.62 9.1-17.15 9.1-7.93 0-13.73-3.17-17.4-9.5-3.67-6.33-5.5-15.23-5.5-26.7Zm8.3 0c0 4.33.28 8.28.85 11.85.57 3.57 1.45 6.63 2.65 9.2 1.2 2.57 2.72 4.57 4.55 6 1.83 1.44 4.02 2.15 6.55 2.15 5.07 0 8.78-2.35 11.15-7.05 2.37-4.7 3.55-12.08 3.55-22.15 0-4.27-.25-8.2-.75-11.8s-1.33-6.7-2.5-9.3c-1.17-2.6-2.68-4.6-4.55-6-1.87-1.4-4.17-2.1-6.9-2.1-5 0-8.68 2.37-11.05 7.1-2.37 4.73-3.55 12.1-3.55 22.1ZM1339.79 2341.48h-11.8v21.5h-7.8v-21.5h-30.8v-3.3l33.2-46.3h5.4v42.6h11.8v7Zm-19.6-28.8 1-8.2h-.3l-3.5 6.8-14.1 19.1-4.8 4.9 7-.8h14.7v-21.8ZM991.62 2327.98c0-12 1.95-21.03 5.85-27.1 3.9-6.07 9.58-9.1 17.05-9.1 8.07 0 13.92 2.98 17.55 8.95 3.63 5.97 5.45 15.05 5.45 27.25s-1.95 21.03-5.85 27.1c-3.9 6.07-9.62 9.1-17.15 9.1-7.93 0-13.73-3.17-17.4-9.5-3.67-6.33-5.5-15.23-5.5-26.7Zm8.3 0c0 4.33.28 8.28.85 11.85.57 3.57 1.45 6.63 2.65 9.2 1.2 2.57 2.72 4.57 4.55 6 1.83 1.44 4.02 2.15 6.55 2.15 5.07 0 8.78-2.35 11.15-7.05 2.37-4.7 3.55-12.08 3.55-22.15 0-4.27-.25-8.2-.75-11.8s-1.33-6.7-2.5-9.3c-1.17-2.6-2.68-4.6-4.55-6-1.87-1.4-4.17-2.1-6.9-2.1-5 0-8.68 2.37-11.05 7.1-2.37 4.73-3.55 12.1-3.55 22.1ZM1062.73 2357.18c2.27 0 4.37-.33 6.3-1 1.93-.67 3.6-1.65 5-2.95 1.4-1.3 2.5-2.85 3.3-4.65s1.2-3.77 1.2-5.9c0-4.67-1.38-8.13-4.15-10.4-2.77-2.27-6.58-3.4-11.45-3.4h-7.4v-2.9l14.4-22.2 4.6-4.4-6.5 1h-19.8v-7.4h35.7v2.9l-15.9 23.9-3.5 2.9v.2l3.4-.7c2.67.07 5.13.55 7.4 1.45 2.27.9 4.23 2.2 5.9 3.9 1.67 1.7 2.96 3.73 3.9 6.1.93 2.37 1.4 5.05 1.4 8.05 0 3.6-.63 6.8-1.9 9.6s-2.98 5.15-5.15 7.05c-2.17 1.9-4.72 3.35-7.65 4.35-2.93 1-6.03 1.5-9.3 1.5-3 0-5.7-.23-8.1-.7-2.4-.47-4.5-1.07-6.3-1.8l2.1-7.1c1.53.73 3.35 1.35 5.45 1.85s4.45.75 7.05.75ZM744.76 2327.98c0-12 1.95-21.03 5.85-27.1 3.9-6.07 9.58-9.1 17.05-9.1 8.07 0 13.92 2.98 17.55 8.95 3.63 5.97 5.45 15.05 5.45 27.25s-1.95 21.03-5.85 27.1c-3.9 6.07-9.62 9.1-17.15 9.1-7.93 0-13.73-3.17-17.4-9.5-3.67-6.33-5.5-15.23-5.5-26.7Zm8.3 0c0 4.33.28 8.28.85 11.85.57 3.57 1.45 6.63 2.65 9.2 1.2 2.57 2.72 4.57 4.55 6 1.83 1.44 4.02 2.15 6.55 2.15 5.07 0 8.78-2.35 11.15-7.05 2.37-4.7 3.55-12.08 3.55-22.15 0-4.27-.25-8.2-.75-11.8s-1.33-6.7-2.5-9.3c-1.17-2.6-2.68-4.6-4.55-6-1.87-1.4-4.17-2.1-6.9-2.1-5 0-8.68 2.37-11.05 7.1-2.37 4.73-3.55 12.1-3.55 22.1ZM837.06 2308.88c0 3.53-.65 7.15-1.95 10.85-1.3 3.7-3 7.42-5.1 11.15-2.1 3.73-4.45 7.38-7.05 10.95s-5.2 6.95-7.8 10.15l-4.9 4.3v.4l6.4-1.1h21.8v7.4h-39.8v-2.9c1.47-1.53 3.23-3.43 5.3-5.7s4.22-4.78 6.45-7.55c2.23-2.77 4.43-5.7 6.6-8.8 2.17-3.1 4.13-6.25 5.9-9.45 1.77-3.2 3.18-6.37 4.25-9.5 1.07-3.13 1.6-6.1 1.6-8.9 0-3.27-.93-5.98-2.8-8.15-1.87-2.16-4.7-3.25-8.5-3.25-2.53 0-5 .52-7.4 1.55-2.4 1.04-4.47 2.22-6.2 3.55l-3.3-5.7c2.33-2 5.1-3.56 8.3-4.7 3.2-1.13 6.63-1.7 10.3-1.7 2.87 0 5.4.42 7.6 1.25 2.2.84 4.07 2.02 5.6 3.55 1.53 1.54 2.7 3.35 3.5 5.45.8 2.1 1.2 4.38 1.2 6.85ZM497.59 2327.98c0-12 1.95-21.03 5.85-27.1 3.9-6.07 9.58-9.1 17.05-9.1 8.07 0 13.92 2.98 17.55 8.95 3.63 5.97 5.45 15.05 5.45 27.25s-1.95 21.03-5.85 27.1c-3.9 6.07-9.62 9.1-17.15 9.1-7.93 0-13.73-3.17-17.4-9.5-3.67-6.33-5.5-15.23-5.5-26.7Zm8.3 0c0 4.33.28 8.28.85 11.85.57 3.57 1.45 6.63 2.65 9.2 1.2 2.57 2.72 4.57 4.55 6 1.83 1.44 4.02 2.15 6.55 2.15 5.07 0 8.78-2.35 11.15-7.05 2.37-4.7 3.55-12.08 3.55-22.15 0-4.27-.25-8.2-.75-11.8s-1.33-6.7-2.5-9.3c-1.17-2.6-2.68-4.6-4.55-6-1.87-1.4-4.17-2.1-6.9-2.1-5 0-8.68 2.37-11.05 7.1-2.37 4.73-3.55 12.1-3.55 22.1ZM556.09 2355.58h14v-48.4l1-5.9-4 4.7-11 7.9-3.8-5.1 22-17h3.6v63.8h13.7v7.4h-35.5v-7.4Z" class="cls-11"/>
    <text class="cls-8" transform="translate(3236.32 2357.81)"><tspan x="0" y="0">12</tspan></text>
  </g>
  <g id="Jahr">
    <text class="cls-8" transform="translate(178.52 635.28)"><tspan x="0" y="0">2023</tspan></text>
    <text class="cls-8" transform="translate(180.79 948.25)"><tspan x="0" y="0">2024</tspan></text>
    <text class="cls-8" transform="translate(180.79 1261.22)"><tspan x="0" y="0">2025</tspan></text>
    <text class="cls-8" transform="translate(180.79 1574.19)"><tspan x="0" y="0">2026</tspan></text>
    <text class="cls-10" transform="translate(183.49 1887.16)"><tspan x="0" y="0" style="letter-spacing:-.03em">202</tspan><tspan x="156" y="0" style="letter-spacing:-.08em">7</tspan></text>
    <text class="cls-8" transform="translate(180.79 2200.13)"><tspan x="0" y="0">2028</tspan></text>
  </g>
</svg>
