<svg xmlns="http://www.w3.org/2000/svg" id="Mitmachen" viewBox="0 0 2357.888 2367.027">
  <defs>
    <linearGradient id="Unbenannter_Verlauf_9" x1="1237.527" x2="1262.839" y1="-2552.332" y2="-2596.189" data-name="Unbenannter Verlauf 9" gradientTransform="matrix(1 0 0 -1 0 -1409.734)" gradientUnits="userSpaceOnUse">
      <stop offset="0" stop-color="#fff" stop-opacity="0"/>
      <stop offset=".8"/>
    </linearGradient>
    <linearGradient id="Unbenannter_Verlauf_2" x1="1156.107" x2="1156.107" y1="-8043.5" y2="-7986.992" data-name="Unbenannter Verlauf 2" gradientTransform="translate(0 9134)" gradientUnits="userSpaceOnUse">
      <stop offset="0" stop-color="#fff" stop-opacity="0"/>
      <stop offset=".4"/>
    </linearGradient>
    <linearGradient id="Unbenannter_Verlauf_3" x1="1107.189" x2="1307.375" y1="-2585.142" y2="-2585.142" data-name="Unbenannter Verlauf 3" gradientTransform="matrix(1 0 0 -1 0 -1409.734)" gradientUnits="userSpaceOnUse">
      <stop offset="0" stop-color="#255e89"/>
      <stop offset="1" stop-color="#102a51"/>
    </linearGradient>
    <linearGradient id="Unbenannter_Verlauf_4" x1="1141.052" x2="1122.619" y1="-2598.973" y2="-2567.054" data-name="Unbenannter Verlauf 4" gradientTransform="matrix(1 0 0 -1 0 -1409.734)" gradientUnits="userSpaceOnUse">
      <stop offset=".1" stop-color="#fff" stop-opacity="0"/>
      <stop offset=".8"/>
    </linearGradient>
    <linearGradient id="Unbenannter_Verlauf_5" x1="1251.39" x2="1283.936" y1="-5056.478" y2="-5056.478" data-name="Unbenannter Verlauf 5" gradientTransform="matrix(1 0 0 -1 0 -3913.734)" gradientUnits="userSpaceOnUse">
      <stop offset="0" stop-color="#fff" stop-opacity="0"/>
      <stop offset=".6"/>
    </linearGradient>
    <linearGradient id="Unbenannter_Verlauf_6" x1="1050.513" x2="1283.745" y1="-2638.145" y2="-2638.145" data-name="Unbenannter Verlauf 6" gradientTransform="matrix(1 0 0 -1 0 -1409.734)" gradientUnits="userSpaceOnUse">
      <stop offset="0" stop-color="#102a51"/>
      <stop offset=".4" stop-color="#13335a"/>
      <stop offset=".6" stop-color="#163961"/>
      <stop offset=".8" stop-color="#1e4f78"/>
      <stop offset="1" stop-color="#255e89"/>
    </linearGradient>
    <linearGradient id="Unbenannter_Verlauf_7" x1="1179.12" x2="1215.795" y1="-2541.246" y2="-2527.888" data-name="Unbenannter Verlauf 7" gradientTransform="matrix(1 0 0 -1 0 -1409.734)" gradientUnits="userSpaceOnUse">
      <stop offset=".4" stop-color="#fff" stop-opacity="0"/>
      <stop offset="1"/>
    </linearGradient>
    <linearGradient id="Unbenannter_Verlauf_8" x1="1267.459" x2="1258.141" y1="-2679.094" y2="-2626.248" data-name="Unbenannter Verlauf 8" gradientTransform="matrix(1 0 0 -1 0 -1409.734)" gradientUnits="userSpaceOnUse">
      <stop offset="0" stop-color="#fff" stop-opacity="0"/>
      <stop offset=".7"/>
    </linearGradient>
    <style>
      .cls-2{letter-spacing:-.01em}.cls-2,.cls-3{font-family:PTSans-Regular,&quot;PT Sans&quot;;font-size:137.476px}.cls-2,.cls-4{fill:#0084ff}.cls-4,.cls-6,.cls-7,.cls-9{stroke-linejoin:round}.cls-12,.cls-13,.cls-6{fill:#13294b}.cls-13,.cls-6{stroke-width:3px}.cls-13,.cls-14,.cls-15,.cls-6{stroke:#13294b}.cls-16,.cls-2,.cls-4,.cls-7{stroke:#0084ff}.cls-13,.cls-14,.cls-15,.cls-16,.cls-17,.cls-2{stroke-miterlimit:10}.cls-14,.cls-16,.cls-17,.cls-4,.cls-7,.cls-9{stroke-width:7px}.cls-14,.cls-16,.cls-17,.cls-7,.cls-9{fill:none}.cls-14,.cls-16,.cls-17,.cls-4,.cls-7{stroke-linecap:round}.cls-3{fill:#182949}.cls-9{stroke:#102a51}.cls-15,.cls-31{fill:#102a51}.cls-17{stroke:#182949}.cls-37{letter-spacing:.05em}.cls-39{letter-spacing:.03em}
    </style>
  </defs>
  <circle cx="1182.65" cy="1188.035" r="1156.551" style="fill:#e7c6ac"/>
  <circle cx="1182.65" cy="1188.035" r="317.691" style="fill:#fff"/>
  <text class="cls-3" transform="translate(312.424 1185.792)"><tspan x="0" y="0" class="cls-37">T</tspan><tspan x="83.172" y="0" style="letter-spacing:.024em">R</tspan><tspan x="168.271" y="0" class="cls-37">AI</tspan><tspan x="302.443" y="0" class="cls-39">L</tspan><tspan x="377.645" y="0" style="letter-spacing:.05em">s</tspan></text>
  <rect width="182.939" height="47.632" x="971.22" y="586.303" rx="3.454" ry="3.454" style="fill:none;stroke-width:7px;stroke:#0084ff;stroke-linejoin:round"/>
  <path d="m1059.451 586.303 136.823-82.477M1154.159 529.213v79.468" class="cls-16"/>
  <circle cx="1155.165" cy="604.314" r="7.674" class="cls-16"/>
  <path d="M1120.345 586.302c6.381-12.16 19.129-20.454 33.815-20.454 21.077 0 38.164 17.086 38.164 38.164s-17.086 38.164-38.164 38.164a37.986 37.986 0 0 1-22.009-6.982" class="cls-16"/>
  <circle cx="794.182" cy="744.523" r="22.294" class="cls-9"/>
  <path d="M1307.635 561.29c0-30.405-22.617-55.524-51.944-59.46-13.533-32.304-45.446-54.998-82.662-54.998-18.701 0-36.062 5.734-50.427 15.535-6.326-26.357-30.044-45.947-58.341-45.947-29.956 0-54.783 21.954-59.273 50.65a70.741 70.741 0 0 0-10.923-.847c-38.768 0-70.196 31.428-70.196 70.196 0 2.667.154 5.298.444 7.887-8.275 13.571-13.043 29.514-13.043 46.571 0 49.477 40.109 89.586 89.586 89.586 3.848 0 7.639-.243 11.359-.714 12.36 10.863 28.568 17.454 46.317 17.454 11.782 0 22.884-2.907 32.635-8.037 9.135 10.477 22.569 17.106 37.561 17.106 13.213 0 25.215-5.152 34.133-13.545a89.622 89.622 0 0 0 24.775 3.473c47.11 0 85.725-36.363 89.312-82.552 18.311-10.273 30.687-29.869 30.687-52.359Z" class="cls-9"/>
  <circle cx="699.271" cy="763.27" r="11.956" class="cls-9"/>
  <circle cx="893.739" cy="709.74" r="34.556" class="cls-9"/>
  <rect width="171.338" height="227.715" x="597.159" y="302.573" rx="3.87" ry="3.87" style="stroke:#102a51;stroke-linecap:round;fill:none;stroke-width:7px;stroke-linejoin:round"/>
  <path d="M617.403 322.508h131.405v180.049H617.403zM633.985 356.435h98.626M633.985 379.554h78.354M633.985 402.674h91.952M633.985 425.794h98.626" class="cls-7"/>
  <path d="M633.985 448.914h78.354M633.985 472.034h91.952" class="cls-4"/>
  <path d="M889.172 434.409c0-27.248-14.929-50.846-36.715-62.434 9.631-8.828 15.717-21.76 15.717-36.181 0-26.605-20.686-48.172-46.204-48.172-8.469 0-16.399 2.387-23.224 6.534.278-2.138.435-4.316.435-6.534 0-26.605-20.686-48.172-46.204-48.172-17.228 0-32.242 9.838-40.187 24.412-10.379-11.708-25.228-19.046-41.725-19.046-21.901 0-40.895 12.928-50.379 31.857-10.425-5.707-22.284-8.953-34.876-8.953-41.5 0-75.143 35.076-75.143 78.344 0 15.947 4.582 30.772 12.431 43.147-17.627 6.789-30.195 24.463-30.195 45.199 0 26.605 20.687 48.172 46.204 48.172 1.383 0 2.748-.075 4.1-.199a61.255 61.255 0 0 0-4.1 22.092c0 32.715 25.437 59.235 56.815 59.235 10.604 0 20.524-3.037 29.019-8.311 1.369 25.324 21.493 45.42 46.124 45.42 23.703 0 43.226-18.613 45.885-42.583 12.199 8.916 27.043 14.165 43.071 14.165 38.527 0 70.263-30.236 74.615-69.187 31.057-6.178 54.537-34.626 54.537-68.805Z" class="cls-9"/>
  <circle cx="565.865" cy="621.935" r="22.294" class="cls-9"/>
  <circle cx="531.103" cy="684.784" r="11.956" class="cls-9"/>
  <path d="M544.796 961.826c-.51 0-1.023-.004-1.538-.012-26.448-.414-49.806-14.297-60.96-36.234-5.288-10.575-8.832-38.518-8.632-67.978.109-16.025 1.641-54.869 13.489-69.419 17.829-21.895 36.486-24.913 53.992-24.913 23.98 0 41.195 5.074 52.621 15.51 15.378 13.153 18.76 52.473 19.406 74.761.921 31.803-2.623 63.453-8.429 75.256-9.996 21.027-31.802 33.029-59.949 33.029Zm42.997-176.404" class="cls-17"/>
  <circle cx="513.848" cy="851.802" r="5.3" class="cls-12"/>
  <circle cx="565.566" cy="851.802" r="5.3" class="cls-12"/>
  <path d="M519.424 912.308c2.4 7.141 9.888 11.368 16.736 13.338 8.048 2.315 17.409 1.922 24.624-2.647 4.999-3.166 8.338-7.837 10.525-13.262.883-2.189-.96-5.038-3.143-5.536-2.606-.593-4.59.799-5.536 3.143-.41 1.017.433-.895-.035.078-.11.229-.213.462-.325.691a24.013 24.013 0 0 1-1.518 2.669 21.159 21.159 0 0 1-.64.919c-.286.382-.219.296.203-.257-.322.19-.617.745-.872 1.025a19.958 19.958 0 0 1-1.875 1.815c-.162.138-.335.265-.494.405-.268.212-.132.107.408-.316a20.283 20.283 0 0 1-2.53 1.604c-.363.194-.735.368-1.104.549l-.224.102c-.432.189-.299.134.397-.165-.062.089-.583.227-.686.265-.803.295-1.623.542-2.454.745-.435.106-.872.2-1.312.282-.16.03-.321.054-.481.084-1.086.205.41-.03.109-.005-1.753.146-3.473.25-5.233.133a30.679 30.679 0 0 1-1.21-.104c-.201-.021-.401-.05-.602-.07-.61-.06 1.228.209.359.044-.865-.164-1.73-.303-2.587-.509a31.294 31.294 0 0 1-4.013-1.251c-.156-.06-1.115-.456-.305-.115.804.339-.483-.225-.688-.323-.33-.158-.657-.322-.981-.493a25.202 25.202 0 0 1-2.014-1.183c-.342-.223-.667-.47-1.006-.697-.549-.367.431.339.435.343-.179-.181-.411-.328-.606-.493a16.315 16.315 0 0 1-1.603-1.552c-.079-.088-.154-.18-.234-.268-.692-.765.556.812.164.23-.172-.255-.355-.501-.517-.763-.17-.276-.316-.562-.469-.848-.528-.984.404 1.154.015-.002-.748-2.227-3.134-3.92-5.536-3.143-2.215.717-3.946 3.146-3.143 5.536ZM639.539 819.027c0-8.39-6.802-15.192-15.192-15.192-.064 0-.125.009-.188.01-.029-.104-.051-.211-.082-.314 3.96-2.568 6.586-7.019 6.586-12.09 0-5.749-3.376-10.698-8.245-13.01 1.006-1.968 1.665-3.908 1.665-5.618 0-10.065-8.16-18.225-18.225-18.225a18.13 18.13 0 0 0-8.505 2.112c-1.595-6.375-5.735-18.341-18.844-18.655-5.668-.136-10.668 2.858-13.643 7.21-1.43-5.36-6.297-9.314-12.108-9.314-.383 0-.76.021-1.134.055-3.245-5.411-9.15-9.044-15.918-9.044-6.565 0-12.321 3.416-15.622 8.558a12.54 12.54 0 0 0-2.874-.341c-6.935 0-12.558 5.622-12.558 12.558 0 .09.012.177.013.267a15.53 15.53 0 0 0-1.964.829c-2.5-3.356-6.487-5.54-10.994-5.54-7.576 0-13.717 6.141-13.717 13.717 0 .715.071 1.411.177 2.097a17.826 17.826 0 0 0-5.629 5.013 13.664 13.664 0 0 0-4.4-.734c-7.576 0-13.717 6.141-13.717 13.717 0 3.426 1.271 6.544 3.35 8.945-9.961.48-17.896 8.683-17.896 18.763 0 9.663 7.29 17.614 16.668 18.679a17.934 17.934 0 0 0 2.828 3.13c-6.338 1.21-11.132 6.775-11.132 13.466 0 7.576 6.141 13.717 13.717 13.717s13.717-6.141 13.717-13.717c0-3.515-1.333-6.71-3.507-9.137 9.287-.586 16.644-8.282 16.644-17.717 0-3.906-1.275-7.505-3.41-10.439a15.545 15.545 0 0 0 1.147-3.474 19.192 19.192 0 0 0 10.461 3.096c8.384 0 15.498-5.355 18.164-12.823a19.171 19.171 0 0 0 12.867 4.943c9.082 0 16.679-6.281 18.735-14.73 2.905 2.619 6.74 4.226 10.959 4.226 5.619 0 17.188-9.735 18.507-11.538 1.33 2.332 1.441 10.068 1.441 13.499 0 5.442 4.411 9.853 9.853 9.853 4.502 0 5.617-.382 7.332-.564-3.395 1.898-5.593 5.943-5.593 13.316 0 8.567 6.062 15.716 14.13 17.397a14.04 14.04 0 0 0-3.311 9.071c0 7.789 6.314 14.103 14.103 14.103s14.104-6.314 14.104-14.103c0-.457-.029-.906-.071-1.351 6.507-1.718 11.311-7.626 11.311-14.673Z" class="cls-12"/>
  <path d="M461.955 858.514c-10.168 0-18.439-8.272-18.439-18.44a18.435 18.435 0 0 1 5.997-13.601 23.512 23.512 0 0 1-14.361-21.673c0-10.121 6.385-18.783 15.433-22.083a18.31 18.31 0 0 1-.887-5.625c0-10.167 8.271-18.439 18.439-18.439.896 0 1.789.066 2.677.199a22.218 22.218 0 0 1 2.457-2.174c.172-10.02 8.377-18.117 18.437-18.117 3.371 0 6.656.945 9.495 2.656 2.576-6.312 8.781-10.771 16.007-10.771.247 0 .495.006.743.017a23.17 23.17 0 0 1 17.753-8.233c7.314 0 14.013 3.335 18.404 9.042a17.272 17.272 0 0 1 11.853 6.109c3.652-2.708 8.089-4.168 12.658-4.057 7.328.176 16.686 3.443 21.774 17.206a22.884 22.884 0 0 1 5.461-.664c12.654 0 22.948 10.294 22.948 22.948 0 1.195-.184 2.438-.557 3.748 4.436 3.589 7.138 9.059 7.138 14.88 0 3.423-.906 6.708-2.561 9.568 6.753 3.19 11.437 10.068 11.437 18.018 0 7.764-4.516 14.706-11.338 17.96-.972 9.475-9 16.89-18.728 16.89-10.381 0-18.826-8.445-18.826-18.826 0-2.257.409-4.483 1.189-6.572-7.211-3.823-12.008-11.433-12.008-19.897 0-3.071.344-5.793 1.027-8.159-7.115-.959-12.619-7.072-12.619-14.445 0-1.672-.029-3.107-.075-4.336-4.674 3.515-10.674 7.098-15.151 7.098-3.022 0-5.976-.649-8.685-1.878a23.935 23.935 0 0 1-21.009 12.382c-3.907 0-7.713-.951-11.119-2.738-4.395 6.52-11.824 10.618-19.912 10.618-1.498 0-2.983-.14-4.438-.414.635 2.093.962 4.279.962 6.509 0 9.391-5.829 17.534-14.141 20.868a18.352 18.352 0 0 1 1.003 5.986c0 10.168-8.271 18.44-18.439 18.44Zm6.182-90.417c-4.959 0-8.995 4.035-8.995 8.995 0 2.74 1.195 4.696 2.198 5.855a4.724 4.724 0 0 1-3.344 7.808c-7.514.362-13.401 6.532-13.401 14.046 0 7.166 5.364 13.179 12.478 13.986a4.72 4.72 0 0 1 3.317 1.956c.61.857 1.311 1.634 2.084 2.309a4.72 4.72 0 0 1-2.22 8.196 8.993 8.993 0 0 0-7.295 8.827c0 4.96 4.035 8.995 8.995 8.995s8.995-4.035 8.995-8.995a8.963 8.963 0 0 0-2.302-5.986 4.723 4.723 0 0 1 3.221-7.863c6.852-.432 12.219-6.144 12.219-13.004 0-2.759-.866-5.408-2.505-7.659a4.72 4.72 0 0 1-.456-4.789c.349-.742.617-1.557.797-2.424a4.72 4.72 0 0 1 7.189-3.005 14.513 14.513 0 0 0 7.896 2.338c6.135 0 11.648-3.893 13.716-9.688a4.722 4.722 0 0 1 7.606-1.924 14.5 14.5 0 0 0 9.709 3.731 14.526 14.526 0 0 0 14.146-11.124 4.723 4.723 0 0 1 7.75-2.392 11.637 11.637 0 0 0 7.797 3.012c3.008 0 12.768-7.347 14.743-9.667a4.745 4.745 0 0 1 4.032-1.864 4.725 4.725 0 0 1 3.835 2.375c.959 1.682 2.06 5.003 2.06 15.838a5.137 5.137 0 0 0 5.131 5.131c3.045 0 4.254-.178 5.423-.351.474-.07.921-.135 1.41-.187a4.718 4.718 0 0 1 4.999 3.266 4.72 4.72 0 0 1-2.196 5.552c-2.108 1.178-3.176 4.271-3.176 9.193 0 6.149 4.362 11.522 10.372 12.775a4.72 4.72 0 0 1 2.65 7.663 9.258 9.258 0 0 0-2.203 6.031c0 5.173 4.209 9.381 9.381 9.381s9.382-4.208 9.382-9.381c0-.261-.016-.547-.05-.903a4.721 4.721 0 0 1 3.496-5.014 10.466 10.466 0 0 0 7.794-10.107c0-5.738-4.64-10.413-10.365-10.469a4.724 4.724 0 0 1-4.848-3.464l-.067-.263c-.59-2.005.218-4.126 1.971-5.263a9.662 9.662 0 0 0 4.434-8.128c0-3.711-2.178-7.143-5.549-8.743a4.723 4.723 0 0 1-2.179-6.417c1.036-2.025 1.147-3.1 1.147-3.468 0-7.446-6.057-13.503-13.503-13.503-2.215 0-4.334.526-6.296 1.564a4.722 4.722 0 0 1-6.789-3.029c-3.324-13.288-9.797-14.97-14.376-15.08-3.752-.077-7.365 1.836-9.631 5.154a4.724 4.724 0 0 1-8.462-1.449 7.824 7.824 0 0 0-7.545-5.808c-.24 0-.477.015-.71.036a4.714 4.714 0 0 1-4.474-2.275c-2.535-4.227-6.971-6.75-11.868-6.75-4.726 0-9.08 2.388-11.649 6.387a4.716 4.716 0 0 1-5.053 2.045 7.908 7.908 0 0 0-1.794-.216c-4.288 0-7.782 3.462-7.834 7.738a4.723 4.723 0 0 1-3.177 4.831c-.467.16-.926.354-1.366.576a4.722 4.722 0 0 1-5.919-1.392c-1.723-2.312-4.35-3.639-7.207-3.639-4.959 0-8.995 4.035-8.995 8.995 0 .402.039.838.122 1.374a4.724 4.724 0 0 1-2.347 4.836 13.033 13.033 0 0 0-4.139 3.688 4.722 4.722 0 0 1-5.326 1.684 8.986 8.986 0 0 0-2.885-.484Z" class="cls-12"/>
  <path d="M600.601 939.231c52.197 20.339 87.461 60.347 86.702 105.793M487.298 939.639c-52.848 18.584-89.428 57.392-90.187 102.838" class="cls-17"/>
  <text class="cls-3" transform="translate(1629.8 1185.792)"><tspan x="0" y="0" class="cls-37">T</tspan><tspan x="83.172" y="0" class="cls-39">W</tspan><tspan x="201.127" y="0" class="cls-37">Gs</tspan></text>
  <text class="cls-3" transform="translate(815.154 1662.873)"><tspan x="0" y="0" style="letter-spacing:-.026em">C</tspan><tspan x="74.927" y="0">OMMUNI</tspan><tspan x="608.6" y="0" style="letter-spacing:-.012em">T</tspan><tspan x="683.249" y="0" style="letter-spacing:-.025em">Y</tspan><tspan x="107.986" y="148">CLUSTER</tspan></text>
  <text class="cls-2" transform="translate(619.872 1662.873)"><tspan x="0" y="0">?</tspan></text>
  <text style="fill:#0084ff;font-family:PTSans-Regular,&quot;PT Sans&quot;;font-size:137.476px;letter-spacing:-.01em" transform="translate(1964.114 1662.873)"><tspan x="0" y="0">?</tspan></text>
  <text class="cls-2" transform="translate(1160.443 2259.371)"><tspan x="0" y="0">!</tspan></text>
  <path d="M641.64 1764.74s54.816-23.568 113.828 1.902l.784-46.936s-61.201-29.545-113.828-1.902l-.784 46.936ZM745.328 1887.551c43.99 17.141 73.709 50.858 73.069 89.158" class="cls-14"/>
  <circle cx="673.117" cy="1818.802" r="4.415" class="cls-15"/>
  <circle cx="720.386" cy="1819.592" r="4.415" class="cls-15"/>
  <path d="M698.406 1876.983c-5.16-.086-10.36-1.053-14.632-2.868a3.438 3.438 0 0 1-1.821-4.509 3.443 3.443 0 0 1 4.51-1.823c6.483 2.752 15.959 3.119 22.534.86a3.433 3.433 0 0 1 4.37 2.139 3.438 3.438 0 0 1-2.137 4.368c-3.806 1.304-8.299 1.907-12.823 1.832Z" class="cls-15"/>
  <circle cx="672.438" cy="1819.651" r="18.906" class="cls-14"/>
  <circle cx="721.189" cy="1820.465" r="18.906" class="cls-14"/>
  <path d="m739.476 1813.835 12.312-9.032M654.871 1811.303l-13.148-9.8" class="cls-14"/>
  <path d="M752.115 1765.277c-49.788-20-95.855-5.912-107.581-1.652-12.398 20.198-18.307 51.375-18.78 64.796-.667 18.925 16.301 31.833 16.301 31.833l-.775-58.576s31.176-12.237 46.41-22.228c15.234-9.991 20.145-15.334 20.145-15.334s23.026 28.712 47.539 40.573l-1.794 54.974s18.026-8.466 16.502-43.208c-.869-19.806-8.642-37.928-17.967-51.177Z" class="cls-6"/>
  <path d="M652.541 1761.047c-15.394 18.879-14.228 98.422-5.601 116.421 9.283 19.037 29.263 29.932 49.734 30.594 20.791.667 41.396-6.669 51-26.031 8.779-17.122 12.862-89.663-.482-118.627-40.053-14.393-77.001-7.437-94.651-2.357ZM649.841 1887.895c-44.538 15.662-75.366 48.367-76.006 86.668" class="cls-14"/>
  <path d="M1446.844 934.769h85.628" style="stroke-width:7px;stroke:#0084ff;stroke-linejoin:round;fill:#0084ff"/>
  <path d="M1838.969 934.769h245.236" class="cls-16"/>
  <path d="m1540.025 1001.747-17.901-158.75c0-36.352 33.318-66.094 74.04-66.094h177.33c40.722 0 74.04 29.742 74.04 66.094l-17.901 158.75" class="cls-14"/>
  <path d="M1848.895 825.799h209.468c2.75 0 5-2.25 5-5V524.441c0-2.75-2.25-5-5-5h-473.182c-2.75 0-5 2.25-5 5v252.461" class="cls-14"/>
  <path d="M1845.858 868.662h206.23c18.15 0 33-14.85 33-33V508.157c0-18.15-14.85-33-33-33h-460.072c-18.15 0-33 14.122-33 31.382v279.348" class="cls-14"/>
  <path d="M1765.705 776.902c-.028-48.69-7.146-96.923-23.428-110.736-15.898-14.574-40.048-17.492-60.363-17.492-18.99 0-40.342 2.402-61.411 28.278-11.413 14.016-15.898 56.801-15.506 99.95h160.708Z" class="cls-6"/>
  <path d="M1583.857 666.54h475.829M1822.052 519.441v270.898M1944.509 790.284c-.242 0-.482-.002-.726-.006-12.472-.195-23.487-6.742-28.747-17.086-4.293-8.586-4.672-15.941-5.111-24.459-.047-.924-.096-1.867-.151-2.834-3.62-.817-6.177-3.907-6.854-8.468-.919-6.186 1.794-13.953 7.735-16.673.686-7.24 1.634-16.062 7.021-21.269 6.441-6.246 18.128-6.246 25.111-6.246 7.976 0 19.359.715 26.099 6.893 5.178 4.721 7.505 11.679 7.093 21.239 4.485 2.697 7.886 8.109 8.649 13.943 1.293 8.078-4.355 11.99-7.572 13.705.903 10.221.864 15.233-4.277 25.687-4.713 9.914-14.998 15.574-28.27 15.574Zm-29.936-66.436" class="cls-14"/>
  <path d="m1912.868 722.15 19.469-11.6-1.855 11.132 24.049-12.87 2.495 13.381 16.415-9.502c.143-11.846-9.241-17.554-28.508-17.983-19.267-.428-36.345 6.462-32.064 27.442Z" class="cls-12"/>
  <path d="M1957.026 724.289a2.097 2.097 0 0 1-2.061-1.712l-1.97-10.566-21.524 11.519a2.095 2.095 0 0 1-3.057-2.193l1.112-6.673-15.585 9.286a2.097 2.097 0 0 1-3.127-1.382c-1.68-8.234-.372-14.996 3.89-20.099 7.137-8.546 20.398-10.081 30.274-9.858 10.155.226 17.547 1.87 22.597 5.028 5.362 3.352 8.041 8.425 7.96 15.075a2.095 2.095 0 0 1-1.046 1.789l-16.415 9.502a2.091 2.091 0 0 1-1.05.282Zm-2.495-17.573a2.096 2.096 0 0 1 2.061 1.712l1.951 10.465 12.784-7.4c-.287-6.382-3.959-14.189-26.441-14.689-12.654-.278-22.229 2.686-26.964 8.354-2.903 3.475-4.064 8.043-3.466 13.606l16.809-10.015a2.094 2.094 0 0 1 3.14 2.146l-1.155 6.928 20.291-10.859a2.1 2.1 0 0 1 .989-.248ZM1738.475 570.1a6.813 6.813 0 0 0-6.813-6.813c-.029 0-.056.004-.084.004-.013-.047-.023-.095-.037-.141a6.454 6.454 0 0 0 2.954-5.422 6.456 6.456 0 0 0-3.698-5.834c.451-.882.747-1.752.747-2.52a8.173 8.173 0 0 0-11.987-7.226c-.715-2.859-2.572-8.225-8.451-8.366-2.542-.061-4.784 1.282-6.118 3.233a5.622 5.622 0 0 0-5.939-4.152 8.313 8.313 0 0 0-7.139-4.056 8.314 8.314 0 0 0-7.006 3.838 5.642 5.642 0 0 0-1.289-.153 5.632 5.632 0 0 0-5.632 5.632c0 .04.005.079.006.12a6.921 6.921 0 0 0-.881.372 6.135 6.135 0 0 0-4.931-2.484 6.152 6.152 0 0 0-6.152 6.152c0 .321.032.633.079.94a8.005 8.005 0 0 0-2.525 2.248 6.135 6.135 0 0 0-1.973-.329 6.152 6.152 0 0 0-6.152 6.152 6.11 6.11 0 0 0 1.502 4.012c-4.467.215-8.026 3.894-8.026 8.415 0 4.334 3.269 7.9 7.475 8.377.367.516.792.988 1.268 1.404a6.15 6.15 0 0 0 1.16 12.191 6.152 6.152 0 0 0 6.152-6.152 6.122 6.122 0 0 0-1.573-4.098c4.165-.263 7.465-3.714 7.465-7.946a7.926 7.926 0 0 0-1.529-4.681 7 7 0 0 0 .515-1.558 8.606 8.606 0 0 0 4.692 1.388c3.76 0 6.951-2.401 8.146-5.751a8.599 8.599 0 0 0 5.771 2.217c4.073 0 7.48-2.817 8.402-6.606a7.318 7.318 0 0 0 4.915 1.895c2.52 0 7.708-4.366 8.3-5.175.597 1.046.646 4.515.646 6.054a4.42 4.42 0 0 0 4.419 4.419c2.019 0 2.519-.171 3.288-.253-1.522.851-2.508 2.665-2.508 5.972a7.973 7.973 0 0 0 6.337 7.802 6.294 6.294 0 0 0-1.485 4.068 6.325 6.325 0 0 0 12.65 0c0-.205-.013-.406-.032-.606 2.918-.77 5.073-3.42 5.073-6.58Z" class="cls-12"/>
  <path d="M1658.834 587.809c-4.56 0-8.27-3.71-8.27-8.27a8.27 8.27 0 0 1 2.689-6.1 10.543 10.543 0 0 1-6.44-9.72c0-4.539 2.864-8.424 6.921-9.904a8.228 8.228 0 0 1-.398-2.523c0-4.56 3.71-8.27 8.27-8.27.402 0 .802.03 1.2.089a9.99 9.99 0 0 1 1.102-.975c.077-4.494 3.757-8.125 8.268-8.125 1.512 0 2.985.424 4.258 1.191 1.155-2.831 3.938-4.83 7.179-4.83.111 0 .222.002.333.008a10.39 10.39 0 0 1 7.962-3.692c3.28 0 6.284 1.496 8.254 4.055a7.747 7.747 0 0 1 5.316 2.74 9.169 9.169 0 0 1 5.677-1.82c3.286.079 7.483 1.544 9.765 7.716.8-.197 1.624-.298 2.449-.298 5.675 0 10.291 4.617 10.291 10.291 0 .536-.082 1.093-.25 1.681a8.619 8.619 0 0 1 3.201 6.673 8.548 8.548 0 0 1-1.149 4.291c3.029 1.431 5.129 4.515 5.129 8.081a8.933 8.933 0 0 1-5.085 8.054c-.436 4.249-4.036 7.575-8.399 7.575-4.656 0-8.443-3.788-8.443-8.443a8.42 8.42 0 0 1 .533-2.947c-3.234-1.715-5.385-5.127-5.385-8.923 0-1.377.154-2.598.461-3.659-3.191-.43-5.659-3.171-5.659-6.478 0-.75-.013-1.394-.034-1.945-2.096 1.577-4.787 3.183-6.795 3.183a9.423 9.423 0 0 1-3.895-.842 10.734 10.734 0 0 1-9.422 5.553c-1.752 0-3.459-.426-4.986-1.228a10.793 10.793 0 0 1-8.93 4.762c-.672 0-1.338-.063-1.99-.186.285.939.431 1.919.431 2.919 0 4.211-2.614 7.864-6.342 9.359a8.22 8.22 0 0 1 .45 2.685c0 4.56-3.71 8.27-8.27 8.27Zm2.773-40.55a4.038 4.038 0 0 0-4.034 4.034 3.97 3.97 0 0 0 .986 2.626 2.12 2.12 0 0 1-1.499 3.502 6.303 6.303 0 0 0-6.01 6.299 6.305 6.305 0 0 0 5.596 6.272 2.117 2.117 0 0 1 1.487.877c.273.384.588.733.934 1.035a2.118 2.118 0 0 1-.996 3.676 4.033 4.033 0 0 0-3.271 3.959c0 2.224 1.81 4.034 4.034 4.034s4.034-1.81 4.034-4.034c0-.988-.366-1.941-1.032-2.685a2.118 2.118 0 0 1 1.445-3.527 5.856 5.856 0 0 0 5.48-5.832 5.804 5.804 0 0 0-1.123-3.435 2.116 2.116 0 0 1-.204-2.148 4.88 4.88 0 0 0 .357-1.087 2.119 2.119 0 0 1 3.224-1.348 6.505 6.505 0 0 0 3.541 1.048 6.548 6.548 0 0 0 6.151-4.345 2.115 2.115 0 0 1 3.41-.862 6.503 6.503 0 0 0 4.354 1.673 6.514 6.514 0 0 0 6.344-4.989 2.117 2.117 0 0 1 3.476-1.073 5.218 5.218 0 0 0 3.497 1.351c1.349 0 5.726-3.295 6.612-4.335a2.12 2.12 0 0 1 3.528.229c.43.754.924 2.244.924 7.103a2.303 2.303 0 0 0 2.301 2.301c1.365 0 1.908-.08 2.432-.158.213-.031.413-.06.632-.084a2.117 2.117 0 0 1 1.257 3.954c-.945.528-1.424 1.915-1.424 4.123 0 2.758 1.956 5.167 4.651 5.729a2.116 2.116 0 0 1 1.188 3.437 4.152 4.152 0 0 0-.988 2.705c0 2.32 1.887 4.207 4.207 4.207s4.208-1.887 4.208-4.207a4.31 4.31 0 0 0-.022-.405 2.119 2.119 0 0 1 1.568-2.249 4.693 4.693 0 0 0 3.495-4.533 4.7 4.7 0 0 0-4.648-4.695 2.119 2.119 0 0 1-2.174-1.554l-.03-.118a2.1 2.1 0 0 1 .884-2.36 4.332 4.332 0 0 0 1.988-3.645 4.365 4.365 0 0 0-2.488-3.921 2.12 2.12 0 0 1-.977-2.877c.465-.908.515-1.39.515-1.555a6.063 6.063 0 0 0-6.056-6.056c-.994 0-1.944.236-2.824.701a2.12 2.12 0 0 1-3.045-1.358c-1.491-5.959-4.394-6.714-6.447-6.763-1.683-.035-3.303.824-4.319 2.311a2.118 2.118 0 0 1-3.795-.65 3.51 3.51 0 0 0-3.703-2.589 2.115 2.115 0 0 1-2.007-1.02c-1.137-1.896-3.126-3.027-5.322-3.027a6.19 6.19 0 0 0-5.224 2.864 2.115 2.115 0 0 1-2.266.917 3.552 3.552 0 0 0-.805-.097 3.517 3.517 0 0 0-3.513 3.47l.005.12a2.118 2.118 0 0 1-1.43 2.047 4.914 4.914 0 0 0-.613.259 2.118 2.118 0 0 1-2.654-.624 4 4 0 0 0-3.232-1.632 4.039 4.039 0 0 0-4.034 4.034c0 .18.017.376.055.616a2.118 2.118 0 0 1-1.053 2.169 5.859 5.859 0 0 0-1.856 1.654 2.118 2.118 0 0 1-2.389.755 4.03 4.03 0 0 0-1.294-.217Z" class="cls-31"/>
  <path d="M1941.017 549.621c-7.545 0-15.599.845-23.821 10.943-7.825 9.61-5.417 53.881-1.927 64.651 3.707 11.439 15.337 19.391 27.042 19.574 12.773.198 22.455-8.683 26.826-17.878 2.579-5.244 4.249-21.041 3.816-35.991-.512-17.681-3.6-30.598-8.261-34.551l-.065-.057c-4.911-4.502-12.634-6.69-23.61-6.69Z" class="cls-14"/>
  <circle cx="1929.598" cy="596.122" r="3.102" class="cls-12"/>
  <circle cx="1953.259" cy="596.122" r="3.102" class="cls-12"/>
  <path d="M1936.026 621.681c3.752 3.412 9.201 3.68 12.958.625" class="cls-14"/>
  <circle cx="1942.311" cy="531.747" r="13.352" style="stroke:#102a51;stroke-miterlimit:10;stroke-width:3px;fill:#13294b"/>
  <path d="M1942.203 546.643s-31.741-1.556-36.151 24.606c0 0 .323 11.207 3.469 19.934 0 0 30.1-25.078 32.79-31.692 0 0 15.232 22.314 32.551 23.871 0 0 6.284-38.983-32.659-36.718Z" class="cls-13"/>
  <path d="M1879.634 665.231c16.475-27.692 31.677-27.93 37.129-30.714M1968.304 633.544c14.35 7.09 26.052 18.422 33.309 32.27" class="cls-14"/>
  <path d="M394.351 1847.185a3.95 3.95 0 0 1-3.95-3.95c0-37.847 29.328-72.589 76.539-90.667a3.95 3.95 0 1 1 2.826 7.378c-44.08 16.879-71.464 48.794-71.464 83.289a3.95 3.95 0 0 1-3.95 3.95ZM636.418 1847.185a3.95 3.95 0 0 1-3.95-3.95c0-35.658-27.698-68.071-72.285-84.592a3.95 3.95 0 1 1 2.745-7.409c47.767 17.7 77.44 52.952 77.44 92.001a3.95 3.95 0 0 1-3.95 3.95Z" class="cls-12"/>
  <circle cx="489.23" cy="1677.6" r="4.433" class="cls-12"/>
  <circle cx="532.493" cy="1677.6" r="4.433" class="cls-12"/>
  <path d="M515.598 1730.328c-5.183 0-10.42-.884-14.74-2.634a3.451 3.451 0 0 1-1.904-4.497 3.457 3.457 0 0 1 4.498-1.906c6.556 2.655 16.076 2.864 22.64.486 1.795-.658 3.773.28 4.424 2.075a3.453 3.453 0 0 1-2.073 4.422c-3.8 1.373-8.301 2.054-12.845 2.054Z" class="cls-12"/>
  <path d="M514.609 1780.481c-.456 0-.909-.003-1.368-.011-23.504-.367-44.263-12.706-54.176-32.2-8.09-16.18-8.804-30.043-9.631-46.094-.09-1.741-.181-3.519-.284-5.34-6.823-1.54-11.641-7.364-12.917-15.959-1.731-11.659 3.38-26.295 14.576-31.422 1.292-13.644 3.08-30.27 13.232-40.083 12.138-11.77 34.164-11.77 47.324-11.77 15.031 0 36.483 1.347 49.185 12.99 9.758 8.896 14.144 22.009 13.367 40.026 8.452 5.083 14.862 15.283 16.3 26.276 2.437 15.224-8.207 22.596-14.27 25.827 1.701 19.261 1.628 28.707-8.061 48.409-8.883 18.684-28.264 29.35-53.276 29.351Zm-3.246-174.979c-11.963 0-31.984 0-41.828 9.545-8.302 8.026-9.773 23.613-10.955 36.138l-.389 4.092-2.534.769c-8.529 2.589-12.965 14.552-11.611 23.669.534 3.595 2.393 9.625 8.848 9.625h3.707l.235 3.7c.192 3.023.342 5.922.486 8.728.814 15.791 1.457 28.264 8.796 42.943 8.57 16.853 26.678 27.537 47.244 27.859 22.439.325 39.727-8.724 47.409-24.881 9.14-18.585 8.971-26.069 7.064-46.932l-.25-2.727 2.466-1.191c10.007-4.83 13.701-10.437 12.354-18.745l-.019-.127c-1.221-9.461-6.935-18.09-14.22-21.472l-2.462-1.143.185-2.709c1.144-16.782-2.347-28.631-10.673-36.222-10.68-9.789-30.143-10.921-43.854-10.921Z" class="cls-12"/>
  <path d="m454.979 1652.077 36.691-21.861-3.497 20.979 45.321-24.254 4.702 25.218 30.935-17.908c.269-22.324-17.416-33.082-53.726-33.889-36.31-.807-68.495 12.179-60.426 51.716Z" class="cls-12"/>
  <path d="M538.197 1656.109a3.953 3.953 0 0 1-3.884-3.226l-3.712-19.912-40.563 21.707a3.95 3.95 0 0 1-5.761-4.132l2.096-12.575-29.372 17.5a3.949 3.949 0 0 1-5.893-2.603c-3.167-15.518-.701-28.262 7.331-37.877 13.451-16.105 38.442-18.998 57.054-18.578 19.139.425 33.069 3.525 42.586 9.476 10.106 6.318 15.153 15.877 15.002 28.41a3.949 3.949 0 0 1-1.971 3.371l-30.935 17.908a3.952 3.952 0 0 1-1.979.532Zm-4.702-33.118a3.95 3.95 0 0 1 3.883 3.226l3.677 19.722 24.092-13.947c-.542-12.027-7.461-26.74-49.83-27.682-23.848-.524-41.892 5.061-50.815 15.744-5.47 6.549-7.658 15.157-6.532 25.641l31.678-18.874a3.95 3.95 0 0 1 5.919 4.043l-2.177 13.057 38.241-20.465a3.955 3.955 0 0 1 1.864-.468ZM1833.1 1740.249c-.428 0-.859-.003-1.291-.01-22.202-.347-41.811-12.002-51.174-30.418-4.439-8.877-7.414-32.335-7.246-57.066.092-13.452 1.378-46.061 11.324-58.275 14.967-18.38 30.629-20.914 45.325-20.914 20.131 0 34.582 4.259 44.174 13.02 12.909 11.042 15.748 44.049 16.291 62.76.773 26.698-2.202 53.267-7.076 63.175-8.391 17.651-26.697 27.727-50.326 27.727Zm-3.063-159.182c-12.513 0-25.871 1.401-39.509 18.15-12.979 15.939-11.593 90.434-3.196 107.228 8.089 15.908 25.181 25.992 44.595 26.295 21.161.345 37.499-8.233 44.749-23.483 4.277-8.698 7.049-34.898 6.33-59.693-.85-29.325-5.972-50.748-13.702-57.306l-.108-.096c-8.145-7.466-20.953-11.096-39.158-11.096Z" class="cls-12"/>
  <path d="M1719.196 1803.732a3.75 3.75 0 0 1-3.75-3.75c0-35.927 27.84-68.906 72.655-86.066a3.751 3.751 0 0 1 2.682 7.004c-41.844 16.022-67.837 46.317-67.837 79.062a3.75 3.75 0 0 1-3.75 3.75ZM1948.978 1803.732a3.75 3.75 0 0 1-3.75-3.75c0-33.848-26.293-64.617-68.617-80.299a3.75 3.75 0 1 1 2.606-7.032c45.343 16.801 73.511 50.265 73.511 87.332a3.75 3.75 0 0 1-3.75 3.75Z" class="cls-12"/>
  <circle cx="1807.993" cy="1645.793" r="4.208" class="cls-31"/>
  <circle cx="1849.061" cy="1645.793" r="4.208" class="cls-31"/>
  <path d="M1833.023 1695.845c-4.92 0-9.891-.839-13.992-2.501a3.277 3.277 0 0 1-1.808-4.268 3.281 3.281 0 0 1 4.27-1.809c6.223 2.52 15.26 2.718 21.491.461 1.704-.625 3.581.266 4.199 1.969a3.277 3.277 0 0 1-1.968 4.197c-3.607 1.303-7.88 1.95-12.193 1.95Z" class="cls-31"/>
  <path d="M1909.293 1623.975c0-6.662-5.401-12.064-12.064-12.064-.051 0-.099.007-.15.008-.023-.083-.04-.167-.065-.249 3.145-2.039 5.23-5.574 5.23-9.601 0-4.565-2.68-8.495-6.548-10.331.799-1.562 1.322-3.103 1.322-4.461 0-7.993-6.479-14.472-14.472-14.472-2.441 0-4.736.61-6.753 1.677-1.266-5.062-4.554-14.564-14.964-14.814-4.501-.108-8.471 2.27-10.833 5.725-1.136-4.256-5-7.396-9.615-7.396-.304 0-.604.017-.901.044-2.577-4.296-7.265-7.181-12.64-7.181-5.213 0-9.783 2.712-12.405 6.795a9.981 9.981 0 0 0-2.282-.271c-5.507 0-9.972 4.465-9.972 9.972 0 .071.009.141.011.212-.538.185-1.058.405-1.559.659-1.986-2.665-5.151-4.399-8.73-4.399-6.016 0-10.893 4.877-10.893 10.892 0 .568.057 1.121.141 1.665a14.15 14.15 0 0 0-4.47 3.981 10.86 10.86 0 0 0-3.494-.583c-6.016 0-10.893 4.877-10.893 10.892 0 2.72 1.009 5.196 2.66 7.103-7.91.381-14.211 6.895-14.211 14.899 0 7.673 5.789 13.987 13.236 14.832.65.914 1.402 1.75 2.245 2.485-5.033.961-8.839 5.38-8.839 10.693 0 6.016 4.877 10.892 10.892 10.892s10.892-4.877 10.892-10.892a10.84 10.84 0 0 0-2.785-7.256c7.375-.465 13.217-6.577 13.217-14.069 0-3.102-1.012-5.96-2.708-8.289.409-.869.711-1.795.911-2.759a15.243 15.243 0 0 0 8.307 2.458c6.657 0 12.307-4.252 14.423-10.182a15.225 15.225 0 0 0 10.218 3.925c7.212 0 13.244-4.987 14.877-11.697a12.955 12.955 0 0 0 8.702 3.356c4.462 0 13.649-7.731 14.696-9.162 1.056 1.852 1.144 7.995 1.144 10.719a7.824 7.824 0 0 0 7.824 7.824c3.575 0 4.46-.303 5.822-.448-2.696 1.507-4.441 4.719-4.441 10.574 0 6.803 4.814 12.479 11.22 13.815a11.149 11.149 0 0 0-2.629 7.203c0 6.185 5.014 11.199 11.199 11.199s11.199-5.014 11.199-11.199c0-.363-.023-.72-.056-1.073 5.167-1.364 8.982-6.056 8.982-11.651Z" class="cls-12"/>
  <path d="M1768.278 1655.331c-8.074 0-14.642-6.569-14.642-14.643 0-4.226 1.814-8.1 4.762-10.8a18.67 18.67 0 0 1-11.404-17.21c0-8.037 5.07-14.915 12.255-17.536a14.54 14.54 0 0 1-.705-4.467c0-8.074 6.568-14.642 14.642-14.642.711 0 1.421.053 2.125.158.609-.624 1.26-1.2 1.951-1.727.137-7.956 6.652-14.387 14.64-14.387 2.677 0 5.285.75 7.54 2.109 2.046-5.012 6.972-8.553 12.711-8.553.196 0 .393.004.59.014a18.401 18.401 0 0 1 14.097-6.538c5.808 0 11.127 2.648 14.614 7.18a13.715 13.715 0 0 1 9.412 4.851c2.9-2.15 6.423-3.31 10.052-3.222 5.819.14 13.25 2.734 17.291 13.663a18.198 18.198 0 0 1 4.337-.527c10.048 0 18.222 8.174 18.222 18.222 0 .949-.146 1.936-.442 2.976 3.522 2.85 5.668 7.193 5.668 11.816 0 2.718-.719 5.326-2.034 7.598 5.363 2.533 9.082 7.995 9.082 14.308 0 6.165-3.586 11.677-9.003 14.261-.772 7.524-7.147 13.412-14.871 13.412-8.243 0-14.949-6.706-14.949-14.949 0-1.792.324-3.56.944-5.218-5.726-3.036-9.535-9.079-9.535-15.799 0-2.439.273-4.6.816-6.479-5.65-.761-10.021-5.615-10.021-11.471 0-1.328-.023-2.467-.059-3.443-3.712 2.792-8.476 5.637-12.031 5.637-2.399 0-4.745-.515-6.896-1.491a19.006 19.006 0 0 1-16.683 9.832c-3.102 0-6.125-.755-8.829-2.174-3.49 5.177-9.389 8.431-15.812 8.431-1.189 0-2.369-.111-3.524-.329a17.75 17.75 0 0 1 .764 5.169c0 7.457-4.629 13.924-11.229 16.571a14.56 14.56 0 0 1 .797 4.754c0 8.074-6.568 14.643-14.642 14.643Zm4.909-71.798c-3.938 0-7.142 3.204-7.142 7.142 0 2.176.949 3.729 1.745 4.649a3.75 3.75 0 0 1-2.655 6.199 11.16 11.16 0 0 0-10.641 11.154c0 5.69 4.26 10.465 9.909 11.106a3.752 3.752 0 0 1 2.634 1.553 10.568 10.568 0 0 0 1.654 1.833 3.751 3.751 0 0 1-1.762 6.508 7.141 7.141 0 0 0-5.793 7.009c0 3.938 3.204 7.143 7.142 7.143s7.142-3.204 7.142-7.143a7.121 7.121 0 0 0-1.828-4.754 3.748 3.748 0 0 1 2.557-6.244c5.441-.343 9.703-4.879 9.703-10.326 0-2.191-.688-4.294-1.989-6.082a3.748 3.748 0 0 1-.362-3.803c.277-.589.49-1.237.633-1.925a3.75 3.75 0 0 1 5.708-2.386 11.525 11.525 0 0 0 6.27 1.856c4.872 0 9.25-3.091 10.892-7.693a3.75 3.75 0 0 1 6.039-1.528 11.512 11.512 0 0 0 7.71 2.963c5.348 0 9.967-3.632 11.233-8.834a3.753 3.753 0 0 1 6.155-1.899 9.241 9.241 0 0 0 6.192 2.392c2.388 0 10.139-5.834 11.707-7.676a3.77 3.77 0 0 1 3.202-1.481 3.75 3.75 0 0 1 3.045 1.886c.762 1.336 1.636 3.973 1.636 12.577a4.078 4.078 0 0 0 4.074 4.074c2.418 0 3.378-.142 4.307-.279.376-.056.732-.107 1.12-.148a3.748 3.748 0 0 1 2.226 7.002c-1.674.935-2.522 3.391-2.522 7.3 0 4.883 3.464 9.149 8.236 10.144a3.75 3.75 0 0 1 2.104 6.085 7.352 7.352 0 0 0-1.749 4.789c0 4.108 3.342 7.449 7.449 7.449s7.45-3.342 7.45-7.449c0-.207-.012-.435-.04-.717a3.75 3.75 0 0 1 2.776-3.982 8.31 8.31 0 0 0 6.189-8.026c0-4.557-3.685-8.269-8.231-8.313a3.75 3.75 0 0 1-3.85-2.751l-.053-.209a3.717 3.717 0 0 1 1.565-4.179 7.67 7.67 0 0 0 3.521-6.454c0-2.947-1.729-5.672-4.406-6.943a3.75 3.75 0 0 1-1.73-5.095c.822-1.608.911-2.462.911-2.754 0-5.912-4.81-10.722-10.722-10.722-1.759 0-3.442.418-4.999 1.242a3.751 3.751 0 0 1-5.391-2.405c-2.64-10.551-7.78-11.888-11.416-11.975-2.979-.062-5.848 1.458-7.648 4.093a3.75 3.75 0 0 1-6.719-1.15 6.213 6.213 0 0 0-5.991-4.612c-.19 0-.379.012-.564.029a3.743 3.743 0 0 1-3.553-1.806c-2.013-3.356-5.536-5.36-9.424-5.36-3.753 0-7.211 1.896-9.25 5.072a3.746 3.746 0 0 1-4.013 1.624 6.257 6.257 0 0 0-1.425-.172 6.229 6.229 0 0 0-6.221 6.144 3.748 3.748 0 0 1-2.522 3.836 8.535 8.535 0 0 0-1.085.458 3.749 3.749 0 0 1-4.7-1.106c-1.368-1.836-3.454-2.889-5.723-2.889-3.938 0-7.142 3.204-7.142 7.143 0 .319.031.666.097 1.091a3.75 3.75 0 0 1-1.864 3.84 10.352 10.352 0 0 0-3.286 2.929 3.749 3.749 0 0 1-4.23 1.337 7.135 7.135 0 0 0-2.291-.385ZM1667.635 1931.051c-.489 0-.975-.004-1.468-.011-25.227-.394-47.507-13.638-58.148-34.563-5.044-10.087-8.424-36.74-8.233-64.841.104-15.285 1.565-52.337 12.867-66.216 17.006-20.884 34.802-23.763 51.501-23.763 22.875 0 39.294 4.839 50.195 14.794 14.668 12.546 17.893 50.051 18.509 71.311.879 30.336-2.502 60.525-8.039 71.784-9.534 20.055-30.338 31.504-57.183 31.505Zm-3.481-180.872c-14.219 0-29.397 1.592-44.893 20.622-14.747 18.11-13.174 102.756-3.632 121.839 9.191 18.075 28.612 29.534 50.671 29.878 24.072.372 42.609-9.355 50.847-26.683 4.86-9.883 8.008-39.654 7.192-67.827-.965-33.321-6.785-57.663-15.568-65.115l-.123-.108c-9.255-8.483-23.809-12.607-44.494-12.607Z" class="cls-12"/>
  <circle cx="1639.106" cy="1823.725" r="4.782" class="cls-31"/>
  <circle cx="1685.77" cy="1823.725" r="4.782" class="cls-31"/>
  <path d="M1667.547 1880.597c-5.59 0-11.238-.953-15.899-2.841a3.723 3.723 0 0 1-2.054-4.85 3.729 3.729 0 0 1 4.851-2.056c7.071 2.863 17.34 3.089 24.42.524 1.936-.71 4.069.302 4.772 2.238a3.724 3.724 0 0 1-2.236 4.769c-4.098 1.481-8.954 2.216-13.855 2.216Z" class="cls-31"/>
  <circle cx="1666.591" cy="1716.494" r="25.163" class="cls-13"/>
  <path d="M1666.387 1743.15s-59.819-2.933-68.129 46.371c0 0 .609 21.121 6.537 37.567 0 0 56.725-47.262 61.796-59.727 0 0 28.706 42.053 61.345 44.986 0 0 11.843-73.467-61.549-69.198Z" class="cls-13"/>
  <path d="M1549.436 1952.528c31.048-39.137 59.697-39.472 69.972-43.407M1716.54 1907.747c27.043 10.02 49.097 26.035 62.773 45.605" class="cls-14"/>
  <path d="M1321.483 2209.742h218.38" class="cls-16"/>
  <path d="m1055.277 2269.385-15.94-141.365c0-32.371 29.669-58.856 65.931-58.856h157.91c36.262 0 65.931 26.485 65.931 58.856l-15.94 141.365" class="cls-17"/>
  <path d="M1256.243 2069.163c-.025-43.358-6.363-86.308-20.862-98.609-14.157-12.978-35.662-15.576-53.752-15.576-16.91 0-35.924 2.139-54.686 25.181-10.163 12.481-14.157 50.581-13.808 89.004h143.109Z" class="cls-6"/>
  <path d="M826.023 2209.742h218.38" class="cls-16"/>
  <path d="M1692.289 541.068c-7.177 0-14.839.804-22.661 10.41-7.444 9.142-5.153 51.257-1.833 61.502 3.526 10.882 14.59 18.446 25.724 18.62 12.151.188 21.361-8.26 25.52-17.007 2.453-4.989 4.042-20.017 3.63-34.238-.487-16.82-3.425-29.107-7.858-32.869l-.062-.055c-4.672-4.282-12.018-6.364-22.46-6.364ZM1631.326 666.934c16.332-37.513 31.403-37.835 36.808-41.606M1719.23 624.01c14.226 9.057 25.827 23.533 33.021 41.221" class="cls-14"/>
  <circle cx="1681.873" cy="583.519" r="3.102" class="cls-12"/>
  <circle cx="1705.534" cy="583.519" r="3.102" class="cls-12"/>
  <path d="M1688.3 609.078c3.752 3.412 9.201 3.68 12.958.625" class="cls-14"/>
  <circle cx="1931.951" cy="741.806" r="3.102" class="cls-12"/>
  <circle cx="1955.612" cy="741.806" r="3.102" class="cls-12"/>
  <path d="M1938.378 767.364c3.752 3.412 9.201 3.68 12.958.625M1875.756 823.314c18.03-38.414 34.668-38.744 40.635-42.606M1972.799 779.359c15.705 9.836 28.512 25.555 36.454 44.764" class="cls-14"/>
  <g style="isolation:isolate">
    <g id="Ebene_1" data-name="Ebene 1">
      <path d="M1185.112 1079.77c4.687-8.697 12.221-9.657 16.863 1.434 0 .011.011.034.023.056 1.062 2.406 19.359 51.64 22.477 61.015 0 0 1.48 4.461 2.202 6.596 4.913 14.582 9.668 28.994 13.994 43.677 17.349-.587 28.531-7.703 31.885-18.49-7.455-24.374-13.136-41.384-21.121-62.596a901.18 901.18 0 0 0-12.097-29.92c-6.02-14.096-12.571-28.768-23.03-40.232-12.277-13.475-30.293-13.814-43.011-.576-18.343 19.156-31.897 50.68-42.378 74.738 0 0-.045.09-.045.102 6.958-1.638 13.113-3.14 19.664-4.507 6.551-1.367 13.927-2.722 21.144-4.044 0 0 .045-.102.045-.113 4.529-10.075 9.352-20.331 13.362-27.13l.023-.011Z" style="fill:#255e89"/>
      <path d="M1261.611 1139.836c3.558 10.493 7.003 21.325 10.945 34.212-2.338 7.737-10.662 17.518-31.885 18.49-4.315-14.683-9.081-29.084-13.994-43.677l34.924-9.036.011.011Z" style="mix-blend-mode:multiply;fill:url(#Unbenannter_Verlauf_9);opacity:.4;isolation:isolate"/>
      <path d="M1142.383 1089.901c-4.224 8.912-8.019 17.665-11.498 25.662.136-.045 9.341-2.304 19.212-4.405 8.471-1.807 17.428-3.422 21.596-4.156.068-.147 6.415-14.288 9.634-20.308-7.793.576-31.874 2.44-38.944 3.253v-.045Z" style="fill:url(#Unbenannter_Verlauf_2);mix-blend-mode:multiply;opacity:.4;isolation:isolate"/>
      <path d="M1227.704 1057.203a114.202 114.202 0 0 0-4.529-7.217 83.457 83.457 0 0 0-6.856-8.697c-1.547-1.694-3.174-3.185-4.879-4.461a30.778 30.778 0 0 0-5.998-3.535c-3.682-1.626-7.556-2.394-11.419-2.315a26.713 26.713 0 0 0-8.866 1.728 30.102 30.102 0 0 0-6.709 3.569 35.08 35.08 0 0 0-5.128 4.428c-4.823 5.06-9.363 10.945-13.576 17.394 28.915-30.632 44.795-26.565 69.023.96-.339-.633-.666-1.197-1.05-1.875l-.011.023Z" style="fill:#fff;opacity:.4;isolation:isolate;mix-blend-mode:overlay"/>
      <path d="M1295.688 1135.769h-.045c-11.329-14.198-26.859-19.687-44.208-24.318 7.985 21.212 13.667 38.233 21.121 62.596-6.641 8.55-26.43 16.581-34.122 19.303-9.849 3.49-19.495 7.263-44.727 10.369-13.52 1.672-32.348 1.954-42.344 1.717-9.985-.237-11.272-8.268-10.414-13.622 3.501-16.626 9.872-32.45 16.084-48.218-4.123-.881-23.753 2.688-44.106 23.832-.26.881-.644 2.146-.937 3.129-1.05 3.874-2.485 8.844-2.869 11.035-2.869 16.389-4.586 36.606 10.278 47.879 8.268 6.257 19.212 7.692 29.197 8.844 10.222 1.197 20.59 1.242 30.914.768 22.974-1.05 46.659-4.292 68.763-11.216 12.537-3.501 26.407-10.188 34.167-15.779 10.278-7.195 18.614-16.671 22.736-29.491 5.252-16.242.712-33.93-9.51-46.828h.023Z" style="fill:url(#Unbenannter_Verlauf_3)"/>
      <path d="M1143.219 1182.507c3.637-13.271 8.776-26.102 13.814-38.899-.226-.056-.881-.147-1.852-.113-4.439.147-16.581 2.564-31.558 14.254-3.467 2.711-6.969 5.896-10.696 9.68-.26.881-.644 2.146-.937 3.129-1.05 3.874-2.485 8.844-2.869 11.035-1.22 6.991-2.236 14.695-1.841 22.093.395 7.398 35.093-18.094 35.94-21.178Z" style="fill:url(#Unbenannter_Verlauf_4);mix-blend-mode:multiply;opacity:.4;isolation:isolate"/>
      <path d="M1261.849 1114.456c-4.066-1.333-8.46-2.485-10.414-3.016.045.147 1.672 4.439 3.964 10.707.904 2.53 1.954 5.444 3.061 8.55 1.581 4.394 3.151 9.171 4.778 14.006.531 1.626 1.096 3.253 1.626 4.925.531 1.672.474 1.434.666 2.101 2.767 8.55 5.309 16.682 7.025 22.319 10.99-12.469 18.399-37.657 1.288-54.949 0 0-2.135-1.017-4.778-2.044-2.361-.949-5.105-1.931-7.217-2.587v-.011Z" style="fill:url(#Unbenannter_Verlauf_5);mix-blend-mode:multiply;opacity:.4;isolation:isolate"/>
      <path d="M1282.213 1212.258c-.316.215-2.259 1.514-3.445 2.259-1.288.813-3.298 1.954-3.637 2.146s-.768.429-1.672.904c-1.242.666-2.869 1.525-3.535 1.818-.429.237-3.49 1.672-4.303 2.01-.904.384-4.541 2.01-8.607 3.49-3.682 1.333-8.697 2.959-8.697 2.959-.011 0-.034 0-.045.011.192 2.485.282 5.196.237 8.494-.147 18.207-5.444 38.47-16.92 51.843-13.859 14.288-30.44 23.369-50.894 26.283-28.531 3.253-49.652-1.626-68.243-16.728-16.536-13.283-26.43-36.934-27.096-58.112-.768-21.166 6.065-42.965 16.581-59.49 3.445-4.778 7.116-8.934 10.899-12.661 20.918-19.484 43.869-23.821 44.005-23.855.09-.023.237-.056.237-.056 15.869-3.852 29.592-3.467 35.895-3.321 9.51.09 22.025.768 31.49 2.01-1.626-4.868-7.342-20.5-12.616-34.732-13.181-1.039-26.644-1.581-40.142-.621-3.84.271-7.692.666-11.532 1.209-.847.124-1.694.248-2.553.384h-.023c-.847.136-1.694.271-2.53.418h-.034c-.847.147-1.683.305-2.53.463h-.034c-.836.169-1.683.339-2.519.52h-.034c-.836.181-1.683.361-2.519.565h-.023c-.847.192-1.683.395-2.53.61h-.023c-.847.215-1.694.441-2.53.666a127.26 127.26 0 0 0-11.396 3.693 122.958 122.958 0 0 0-25.052 12.899c-38.99 28.768-58.112 68.334-55.006 114.733 3.016 44.773 26.949 82.576 68.526 98.92 36.076 14.141 81.481 10.323 114.405-10.323 41.418-25.989 54.949-73.473 48.41-119.431l.034.023Z" style="fill:url(#Unbenannter_Verlauf_6)"/>
      <path d="M1171.727 1106.922c1.355-.09 3.693-.226 6.11-.328 3.106-.113 6.303-.169 7.568-.169 3.874-.09 18.456.373 26.452 1.118 5.275 14.231 10.99 29.863 12.616 34.732-9.465-1.242-21.98-1.909-31.49-2.01 0 0-21.358-15.926-21.257-33.342Z" style="fill:url(#Unbenannter_Verlauf_7);mix-blend-mode:multiply;opacity:.4;isolation:isolate"/>
      <path d="M1279.796 1267.184c4.416-17.541 5.06-36.358 2.417-54.915-.316.215-2.259 1.514-3.445 2.259-1.288.813-3.298 1.954-3.637 2.146s-.768.429-1.672.904c-1.242.666-2.869 1.525-3.535 1.818-.429.237-3.49 1.672-4.303 2.01-.904.384-4.541 2.01-8.607 3.49-3.682 1.333-8.697 2.959-8.697 2.959-.011 0-.034 0-.045.011.192 2.485.282 5.196.237 8.494-.09 10.809-1.988 22.341-5.918 32.732l37.205-1.909Z" style="fill:url(#Unbenannter_Verlauf_8);mix-blend-mode:multiply;opacity:.4;isolation:isolate"/>
      <path d="M1162.895 1239.309c-38.549-4.925-54.949-19.145-53.741-57.875l-.023.113s-.045.248-.068.361c-.079.474-.169.96-.248 1.446-.113.655-.215 1.321-.316 1.988s-.068.418-.09.633c-1.231 8.245-1.909 17.146-.169 25.244.768 3.592 1.988 6.991 3.852 10.12.248.395.497.802.757 1.197 1.672 2.541 3.795 4.845 6.449 6.879 2.756 2.09 5.794 3.671 9.025 4.857 6.483 2.383 13.576 3.321 20.184 4.055 4.857.576 9.589.87 14.39.994v-.011Z" style="opacity:.3;mix-blend-mode:multiply;isolation:isolate"/>
    </g>
  </g>
</svg>
