<svg xmlns="http://www.w3.org/2000/svg" id="Objektobiografie" viewBox="0 0 2616.72 2526.62">
  <defs>
    <style>
      .cls-1{stroke-dasharray:0 0 11.57 11.57}.cls-1,.cls-2,.cls-3{stroke-width:7px}.cls-1,.cls-2,.cls-3,.cls-4{fill:none;stroke-linecap:round;stroke-miterlimit:10}.cls-1,.cls-3{stroke:#13294b}.cls-2{stroke:#182949}.cls-4{stroke:#0084ff;stroke-dasharray:0 0 0 60;stroke-width:21px}.cls-10{letter-spacing:0}
    </style>
  </defs>
  <g id="_02" data-name="2">
    <circle cx="1301.43" cy="1268.2" r="1250.01" style="stroke-width:0;fill:#cfc5ba"/>
    <path d="M634.64 464.71s19.3-66.51 149.58-64.13v216.14s-94.09 2.38-149.58 45.13V464.71ZM631.38 464.71s-19.3-66.51-149.58-64.13v216.14s94.09 2.38 149.58 45.13V464.71Z" class="cls-2"/>
    <path d="M480.86 423.52c-4.72-.07-9.58-.07-14.6 0v211.33s103.87-11.49 165.13 27.61M785.17 423.52c4.72-.07 9.58-.07 14.6 0v211.33s-103.87-11.49-165.13 27.61" class="cls-2"/>
    <path d="M465.69 447.82h-14.98v217.06h365.64V447.82h-13.94" class="cls-2"/>
    <path d="M493.37 577.32s79.64 2.37 126.61 45.02M493.37 532.15s79.64 2.37 126.61 45.02M493.37 486.05s79.64 2.37 126.61 45.02M493.37 439.95s79.64 2.37 126.61 45.02M773.86 576.9s-79.64 2.37-126.61 45.02M773.86 531.73s-79.64 2.37-126.61 45.02M647.25 530.65c46.97-42.65 126.61-45.02 126.61-45.02M773.86 439.53s-79.64 2.37-126.61 45.02M2146.39 1324.03v11.15c0 2.75 2.25 5 5 5h286.11c2.75 0 5-2.25 5-5v-181.04c0-2.75-2.25-5-5-5h-286.11c-2.75 0-5 2.24-5 4.97v169.92Z" class="cls-2"/>
    <path d="M2126.94 1296.64v51.63c0 10.25 14.85 18.63 33 18.63h268.87c18.15 0 33-14.85 33-33v-179.39c0-18.15-14.85-33-33-33h-268.87c-18.15 0-33 8.81-33 19.57v155.55Z" class="cls-2"/>
    <path d="M2166.17 1173.84h6" class="cls-3"/>
    <path d="M2183.74 1173.84h225.52" class="cls-1"/>
    <path d="M2415.04 1173.84h6M2166.17 1201.36h6" class="cls-3"/>
    <path d="M2183.74 1201.36h225.52" class="cls-1"/>
    <path d="M2415.04 1201.36h6M2166.17 1231.63h6" class="cls-3"/>
    <path d="M2183.74 1231.63h225.52" class="cls-1"/>
    <path d="M2415.04 1231.63h6M2165.93 1263.22h6" class="cls-3"/>
    <path d="M2183.5 1263.22h225.52" class="cls-1"/>
    <path d="M2414.8 1263.22h6M2165.93 1290.74h6" class="cls-3"/>
    <path d="M2183.5 1290.74h225.52" class="cls-1"/>
    <path d="M2414.8 1290.74h6M2165.93 1321h6" class="cls-3"/>
    <path d="M2183.5 1321h225.52" class="cls-1"/>
    <path d="M2414.8 1321h6" class="cls-3"/>
    <path d="M1491.09 2302.37c0-26.31 20.99-49.22 51.97-61.08M1830.32 2240.36c31.22 11.57 52.57 34.99 52.57 62M1608.5 2240.36c31.22 11.57 52.57 34.99 52.57 62" class="cls-2"/>
    <path d="M1614.32 2168.72c.68-9.98-.68-20.64-8.39-27.67-8.17-7.49-22.23-8.39-32.66-8.39-9.75 0-23.82.23-31.3 7.49-6.81 6.58-7.71 18.6-8.62 28.13-12.7 3.86-14.29 28.81-1.13 28.81.91 14.29.45 24.65 6.81 37.35 6.81 13.38 21.1 20.87 35.61 21.1 14.74.23 29.26-5.22 35.84-19.05 6.81-13.84 6.54-19.92 5.22-34.4 6.58-3.18 11.57-7.71 10.21-16.11-.91-7.03-5.22-14.29-11.57-17.24ZM1712.9 2302.37c0-26.31 20.99-49.22 51.97-61.08" class="cls-2"/>
    <path d="M1836.13 2168.72c.68-9.98-.68-20.64-8.39-27.67-8.17-7.49-22.23-8.39-32.66-8.39-9.75 0-23.82.23-31.3 7.49-6.81 6.58-7.71 18.6-8.62 28.13-12.7 3.86-14.29 28.81-1.13 28.81.91 14.29.45 24.65 6.81 37.35 6.81 13.38 21.1 20.87 35.61 21.1 14.74.23 29.26-5.22 35.84-19.05 6.81-13.84 6.54-19.92 5.22-34.4 6.58-3.18 11.57-7.71 10.21-16.11-.91-7.03-5.22-14.29-11.57-17.24ZM1607.79 2142.96c4.05-10.31 14.28-28.64 45.26-40.5M1718.5 2101.53c31.22 11.57 42.27 21.18 49.73 34.03" class="cls-2"/>
    <path d="M1724.31 2029.89c.68-9.98-.68-20.64-8.39-27.67-8.17-7.49-22.23-8.39-32.66-8.39-9.75 0-23.82.23-31.3 7.49-6.81 6.58-7.71 18.6-8.62 28.13-12.7 3.86-14.29 28.81-1.13 28.81.91 14.29.45 24.65 6.81 37.35 6.81 13.38 21.1 20.87 35.61 21.1 14.74.23 29.26-5.22 35.84-19.05 6.81-13.84 6.54-19.92 5.22-34.4 6.58-3.18 11.57-7.71 10.21-16.11-.91-7.03-5.22-14.29-11.57-17.24Z" class="cls-2"/>
    <path d="M2258.57 1732.58h16.46M2264.96 1746.14h10.07M2258.57 1759.7h16.46M2264.96 1773.26h10.07M2258.57 1786.83h16.46M2264.96 1800.39h10.07M2258.57 1813.95h16.46M2264.96 1827.51h10.07M2279.82 1688.26h-69.72c-3.64 0-6.59 2.95-6.59 6.59s2.95 6.59 6.59 6.59h4.79v189.85c0 16.61 13.46 30.07 30.07 30.07s30.07-13.46 30.07-30.07v-189.85h4.79c3.64 0 6.59-2.95 6.59-6.59s-2.95-6.59-6.59-6.59ZM2193.41 1783.5c-2.4-5.35-23.3 17.27-38.11 18.37-19.04 1.41-29.22-5.05-43.92-7.11-29.37-4.12-60.19 3.07-84.7 19.78" class="cls-3"/>
    <path d="M2139.6 1716.24v-59.67h4.79c3.64 0 6.59-2.95 6.59-6.59s-2.95-6.59-6.59-6.59h-4.79v-12.94l-60.13-.81v13.76h-4.79c-3.64 0-6.59 2.95-6.59 6.59s2.95 6.59 6.59 6.59h4.79v59.67c-32.2 12.15-55.11 43.26-55.11 79.71 0 47.04 38.13 85.17 85.17 85.17s85.17-38.13 85.17-85.17c0-36.45-22.9-67.56-55.11-79.71Z" class="cls-3"/>
    <rect width="82.9" height="13.19" x="2068.08" y="1643.38" class="cls-3" rx="2.23" ry="2.23"/>
    <circle cx="300.97" cy="1154.35" r="148.74" class="cls-2"/>
    <path d="m253.65 1298.32-16.46 131.41 29.33 3.67 16.46-131.4" class="cls-2"/>
    <circle cx="300.97" cy="1154.35" r="131.91" class="cls-2"/>
    <path d="M276.85 1186.69h25.32v32.82h-25.32zM314.2 1149.82h25.32v69.69H314.2zM351.9 1124.55h25.32v94.95H351.9zM378.76 1239.64H223.19M229.22 1080.97l9.42-2.06 4.97 9.25h4.45l6.68-8.05 9.6 3.42-1.2 10.45 4.11 2.74 10.1-3.59 5.48 7.36-5.99 8.22 1.88 6 10.11 2.22.68 8.87-9.42 3.29-1.71 6 7.36 7.7-3.94 7.71-10.44-2.23-4.28 4.46 1.54 9.93-8.05 4.63-7.2-7.71-5.65.85-3.42 9.77h-9.94l-2.05-10.62-4.63-2.57-8.73 6.17-7.54-6.86 3.77-9.59-2.4-3.94-11.13.69-2.74-8.39 8.56-6.85.52-3.76-9.08-6.18 2.23-9.76h9.59l2.4-4.28-4.71-8.81 6.76-7.46 9.42 5.48 3.77-2.23.85-10.27z" class="cls-2"/>
    <circle cx="244.21" cy="1124.55" r="26.03" class="cls-2"/>
    <circle cx="1981.71" cy="495.8" r="145.43" class="cls-2"/>
    <ellipse cx="1982.94" cy="495.8" class="cls-2" rx="86.67" ry="145.43"/>
    <path d="M1981.71 350.38v290.85M2127.14 495.8h-290.86M1863.6 580.04c25.81-10.68 71.14-17.77 122.75-17.77 45.9 0 86.83 5.6 113.48 14.36M2099.84 411.57c-25.81 10.68-71.14 17.77-122.75 17.77-45.9 0-86.83-5.6-113.48-14.36M328.85 1618.12h193.23v309.8H328.85z" class="cls-2"/>
    <path d="M360.09 1899.42c0-38.5 2.58-72.5 23.79-95.63 21.21-23.13 58.21-26.42 83.17-56.6s23.79-57.13 23.79-95.63H360.09c0 38.5-1.17 65.45 23.79 95.63 24.96 30.18 61.97 33.47 83.17 56.6 21.21 23.13 23.79 57.13 23.79 95.63H360.07ZM409.26 1736.11h31.69M377.58 1684.04h95.06M395.18 1710.07h59.85M441.31 1822.14h-31.68M473 1874.2h-95.06M455.4 1848.17h-59.86M761.13 2101.81h404.45l-202.22-123.26-202.23 123.26z" class="cls-2"/>
    <circle cx="963.36" cy="2049.72" r="19.8" class="cls-2"/>
    <path d="M795.19 2126.53h35.75v133.96h-35.75zM859.43 2126.53h35.75v133.96h-35.75z" class="cls-2"/>
    <path d="M1146.17 2260.49v35.75H780.56v-35.75zM1165.58 2296.24v35.75H761.13v-35.75zM945.48 2188.43h35.75v72.06h-35.75zM787.85 2101.85h50.44v24.68h-50.44zM852.08 2101.85h50.44v24.68h-50.44z" class="cls-2"/>
    <path d="M1027.44 2126.53h35.75v133.96h-35.75zM1091.68 2126.53h35.75v133.96h-35.75zM1020.1 2101.85h50.44v24.68h-50.44zM1084.33 2101.85h50.44v24.68h-50.44z" class="cls-2"/>
    <circle cx="1301.43" cy="1268.2" r="451" style="fill:#fff;stroke-width:0"/>
    <path d="M1306.22 1087.61h118.57s93.3-182.14 116.63-226.75c23.33-44.61 79.69-148.16 19.44-272.02-60.26-123.86-112.89-140.03-141.89-181.48-31.16-44.52-47.35-108.31-1.94-163.56 52.61-64.01 82.75-64.3 101.73-66.39 49.69-5.47 34.25-48.5 9.21-48.45-29.04-.19-221.06.23-221.06.23h-7.07s-192.02-.42-221.06-.23c-25.04-.05-40.48 42.97 9.21 48.45 18.97 2.09 49.12 2.38 101.73 66.39 45.4 55.24 29.22 119.04-1.94 163.56-29.01 41.45-81.64 57.62-141.89 181.48-60.26 123.86-3.89 227.42 19.44 272.02 23.33 44.61 116.63 226.75 116.63 226.75H1306.25ZM1045.86 588.83h514.99M1018.93 702.8h568.74M1100.02 178.85h406.68" class="cls-3"/>
    <path d="M837.82 384.4c96.66-50.81 202.67-86.22 314.78-102.99M345.54 981.06c33.02-110.07 84.53-212.14 150.92-302.61M357.12 1591.41c-28.53-83.39-46.33-171.76-51.75-263.47M729.14 2085.7a1003.255 1003.255 0 0 1-180.96-163.06M1487.04 2248.8c-60.14 11.31-122.18 17.23-185.6 17.23-40.37 0-80.18-2.4-119.3-7.06M2068.08 1906.91c-68.52 82.16-150.01 153.14-241.31 209.79M2290.39 1401.76c-12.53 93.67-38.06 183.23-74.71 266.81M2085.72 651.26c98.09 124.52 167.16 272.98 197.01 435.16M1461.3 283.12c129.13 20.79 249.97 66.37 357.49 131.69M1612.72 612.57c244.98 116.52 414.32 366.3 414.32 655.64 0 400.75-324.87 725.61-725.61 725.61s-725.61-324.87-725.61-725.61c0-300.36 182.5-558.1 442.66-668.37" class="cls-4"/>
    <text style="fill:#182949;font-family:PTSans-Regular,&quot;PT Sans&quot;;font-size:100px" transform="translate(1130.93 1265.6)"><tspan x="0" y="0" class="cls-10">OBJE</tspan><tspan x="207.5" y="0" style="letter-spacing:-.03em">C</tspan><tspan x="261.3" y="0" style="letter-spacing:-.04em">T</tspan><tspan x="312.3" y="0" class="cls-10"> </tspan><tspan x="-82.95" y="120" class="cls-10">BIOG</tspan><tspan x="132.15" y="120" style="letter-spacing:-.03em">R</tspan><tspan x="188.55" y="120" style="letter-spacing:0">APH</tspan><tspan x="368.65" y="120" style="letter-spacing:-.03em">Y</tspan></text>
  </g>
</svg>
