<svg xmlns="http://www.w3.org/2000/svg" id="Objektobiografie" viewBox="0 0 2583.78 2535.03">
  <defs>
    <style>
      .cls-1{stroke-dasharray:0 0 11.57 11.57}.cls-1,.cls-2,.cls-3,.cls-4{stroke-miterlimit:10}.cls-1,.cls-2,.cls-3,.cls-4,.cls-5{fill:none;stroke-linecap:round}.cls-1,.cls-2,.cls-3,.cls-5{stroke-width:7px}.cls-1,.cls-3,.cls-5{stroke:#13294b}.cls-2{stroke:#182949}.cls-4{stroke:#0084ff;stroke-width:4px}.cls-5{stroke-linejoin:round}.cls-11,.cls-14{fill:#13294b;stroke-width:0}.cls-14{fill:#0084ff}
    </style>
  </defs>
  <g id="_01" data-name="1">
    <circle cx="1289.5" cy="1268.2" r="1250.01" style="fill:#cfc5ba;stroke-width:0"/>
    <path d="M2165.46 1324.03v11.15c0 2.75 2.25 5 5 5h286.11c2.75 0 5-2.25 5-5v-181.04c0-2.75-2.25-5-5-5h-286.11c-2.75 0-5 2.24-5 4.97v169.92Z" class="cls-2"/>
    <path d="M2149.14 1296.64v51.63c0 10.25 14.85 18.63 33 18.63h262.74c18.15 0 33-14.85 33-33v-179.39c0-18.15-14.85-33-33-33h-262.74c-18.15 0-33 8.81-33 19.57v155.55Z" class="cls-2"/>
    <path d="M2185.24 1173.84h6" class="cls-3"/>
    <path d="M2202.8 1173.84h225.53" class="cls-1"/>
    <path d="M2434.11 1173.84h6M2185.24 1201.36h6" class="cls-3"/>
    <path d="M2202.8 1201.36h225.53" class="cls-1"/>
    <path d="M2434.11 1201.36h6M2185.24 1231.63h6" class="cls-3"/>
    <path d="M2202.8 1231.63h225.53" class="cls-1"/>
    <path d="M2434.11 1231.63h6M2185 1263.22h6" class="cls-3"/>
    <path d="M2202.57 1263.22h225.52" class="cls-1"/>
    <path d="M2433.87 1263.22h6M2185 1290.74h6" class="cls-3"/>
    <path d="M2202.57 1290.74h225.52" class="cls-1"/>
    <path d="M2433.87 1290.74h6M2185 1321h6" class="cls-3"/>
    <path d="M2202.57 1321h225.52" class="cls-1"/>
    <path d="M2433.87 1321h6M1479.16 2302.37c0-26.31 20.99-49.22 51.97-61.08M1596.57 2240.36c31.22 11.57 52.57 34.99 52.57 62" class="cls-3"/>
    <path d="M1602.39 2168.72c.68-9.98-.68-20.64-8.39-27.67-8.17-7.49-22.23-8.39-32.66-8.39-9.75 0-23.82.23-31.3 7.49-6.81 6.58-7.71 18.6-8.62 28.13-12.7 3.86-14.29 28.81-1.13 28.81.91 14.29.45 24.65 6.81 37.35 6.81 13.38 21.1 20.87 35.61 21.1 14.74.23 29.26-5.22 35.84-19.05 6.81-13.84 6.54-19.92 5.22-34.4 6.58-3.18 11.57-7.71 10.21-16.11-.91-7.03-5.22-14.29-11.57-17.24ZM1700.97 2302.37c0-26.31 20.99-49.22 51.97-61.08M1818.39 2240.36c31.22 11.57 52.57 34.99 52.57 62" class="cls-3"/>
    <path d="M1824.2 2168.72c.68-9.98-.68-20.64-8.39-27.67-8.17-7.49-22.23-8.39-32.66-8.39-9.75 0-23.82.23-31.3 7.49-6.81 6.58-7.71 18.6-8.62 28.13-12.7 3.86-14.29 28.81-1.13 28.81.91 14.29.45 24.65 6.81 37.35 6.81 13.38 21.1 20.87 35.61 21.1 14.74.23 29.26-5.22 35.84-19.05 6.81-13.84 6.54-19.92 5.22-34.4 6.58-3.18 11.57-7.71 10.21-16.11-.91-7.03-5.22-14.29-11.57-17.24ZM1595.86 2142.96c4.05-10.31 14.28-28.64 45.26-40.5M1706.57 2101.53c31.22 11.57 42.27 21.18 49.73 34.03" class="cls-3"/>
    <path d="M1712.38 2029.89c.68-9.98-.68-20.64-8.39-27.67-8.17-7.49-22.23-8.39-32.66-8.39-9.75 0-23.82.23-31.3 7.49-6.81 6.58-7.71 18.6-8.62 28.13-12.7 3.86-14.29 28.81-1.13 28.81.91 14.29.45 24.65 6.81 37.35 6.81 13.38 21.1 20.87 35.61 21.1 14.74.23 29.26-5.22 35.84-19.05 6.81-13.84 6.54-19.92 5.22-34.4 6.58-3.18 11.57-7.71 10.21-16.11-.91-7.03-5.22-14.29-11.57-17.24ZM2246.64 1732.58h16.45M2253.03 1746.14h10.06M2246.64 1759.7h16.45M2253.03 1773.26h10.06M2246.64 1786.83h16.45M2253.03 1800.39h10.06M2246.64 1813.95h16.45M2253.03 1827.51h10.06M2181.48 1783.5c-6.95 13.12-23.26 18.64-38.11 18.37-14.85-.27-29.22-5.05-43.92-7.11-29.37-4.12-60.19 3.07-84.7 19.78v1.16" class="cls-3"/>
    <path d="M2127.67 1716.24v-59.67h4.79c3.64 0 6.59-2.95 6.59-6.59s-2.95-6.59-6.59-6.59h-4.79v-12.94l-60.13-.81v13.76h-4.79c-3.64 0-6.59 2.95-6.59 6.59s2.95 6.59 6.59 6.59h4.79v59.67c-32.2 12.15-55.11 43.26-55.11 79.71 0 47.04 38.13 85.17 85.17 85.17s85.17-38.13 85.17-85.17c0-36.45-22.9-67.56-55.11-79.71ZM2267.89 1688.26h-69.72c-3.64 0-6.59 2.95-6.59 6.59s2.95 6.59 6.59 6.59h4.79v189.85c0 16.61 13.46 30.07 30.07 30.07s30.07-13.46 30.07-30.07v-189.85h4.79c3.64 0 6.59-2.95 6.59-6.59s-2.95-6.59-6.59-6.59Z" class="cls-3"/>
    <rect width="82.9" height="13.19" x="2056.15" y="1643.38" class="cls-3" rx="2.23" ry="2.23"/>
    <circle cx="289.04" cy="1154.35" r="148.74" class="cls-3"/>
    <path d="m241.72 1298.32-16.46 131.41 29.33 3.67 16.46-131.4" class="cls-3"/>
    <circle cx="289.04" cy="1154.35" r="131.91" class="cls-3"/>
    <path d="M264.92 1186.69h25.32v32.82h-25.32zM302.27 1149.82h25.32v69.69h-25.32zM339.97 1124.55h25.32v94.95h-25.32zM366.83 1239.64H211.26" class="cls-3"/>
    <path d="m217.29 1080.97 9.42-2.06 4.97 9.25h4.45l6.68-8.05 9.59 3.42-1.19 10.45 4.11 2.74 10.1-3.59 5.48 7.36-5.99 8.22 1.88 6 10.11 2.22.68 8.87-9.42 3.29-1.71 6 7.36 7.7-3.94 7.71-10.44-2.23-4.29 4.46 1.55 9.93-8.05 4.63-7.2-7.71-5.65.85-3.42 9.77h-9.94l-2.05-10.62-4.63-2.57-8.73 6.17-7.54-6.86 3.77-9.59-2.4-3.94-11.13.69-2.74-8.39 8.56-6.85.52-3.76-9.08-6.18 2.23-9.76h9.59l2.39-4.28-4.7-8.81 6.76-7.46 9.42 5.48 3.77-2.23.85-10.27z" class="cls-5"/>
    <circle cx="232.28" cy="1124.55" r="26.03" class="cls-5"/>
    <circle cx="1944.95" cy="520.64" r="136.08" class="cls-2"/>
    <ellipse cx="1946.1" cy="520.64" class="cls-2" rx="81.1" ry="136.08"/>
    <path d="M1944.95 384.55v272.17M2081.03 520.64h-272.16M1834.42 599.46c24.15-10 66.57-16.63 114.87-16.63 42.95 0 81.25 5.24 106.19 13.44M2055.49 441.82c-24.15 10-66.57 16.63-114.87 16.63-42.95 0-81.25-5.24-106.19-13.44M316.92 1618.12h193.23v309.8H316.92z" class="cls-2"/>
    <path d="M348.16 1899.42c0-38.5 2.58-72.5 23.79-95.63 21.21-23.13 58.21-26.42 83.17-56.6s23.79-57.13 23.79-95.63H348.16c0 38.5-1.17 65.45 23.79 95.63 24.96 30.18 61.97 33.47 83.17 56.6 21.21 23.13 23.79 57.13 23.79 95.63H348.14ZM397.33 1736.11h31.69M365.65 1684.04h95.06M383.25 1710.07h59.85M429.38 1822.14H397.7M461.07 1874.2h-95.06M443.47 1848.17h-59.86M749.2 2101.81h404.45l-202.22-123.26-202.23 123.26z" class="cls-2"/>
    <circle cx="951.43" cy="2049.72" r="19.8" class="cls-2"/>
    <path d="M783.26 2126.53h35.75v133.96h-35.75zM847.5 2126.53h35.75v133.96H847.5z" class="cls-2"/>
    <path d="M1134.23 2260.49v35.75H768.62v-35.75zM1153.65 2296.24v35.75H749.2v-35.75zM933.55 2188.43h35.75v72.06h-35.75zM775.92 2101.85h50.44v24.68h-50.44zM840.15 2101.85h50.44v24.68h-50.44z" class="cls-2"/>
    <path d="M1015.51 2126.53h35.75v133.96h-35.75zM1079.75 2126.53h35.75v133.96h-35.75zM1008.17 2101.85h50.44v24.68h-50.44zM1072.4 2101.85h50.44v24.68h-50.44z" class="cls-2"/>
    <path d="M638.34 464.2s17.97-61.93 139.29-59.72v201.27s-87.62 2.21-139.29 42.02V464.2ZM635.3 464.2s-17.97-61.93-139.29-59.72v201.27s87.62 2.21 139.29 42.02V464.2Z" class="cls-3"/>
    <path d="M495.14 425.84c-4.39-.07-8.92-.07-13.59 0v196.78s96.72-10.7 153.76 25.71M778.5 425.84c4.39-.07 8.92-.07 13.59 0v196.78s-96.72-10.7-153.76 25.71" class="cls-3"/>
    <path d="M481.01 448.47h-13.94v202.11h340.47V448.47h-12.98" class="cls-3"/>
    <path d="M506.79 569.06s74.16 2.2 117.9 41.92M506.79 526.99s74.16 2.2 117.9 41.92M506.79 484.07s74.16 2.2 117.9 41.92M506.79 441.14s74.16 2.2 117.9 41.92M767.98 568.66s-74.16 2.2-117.9 41.92M767.98 526.6s-74.16 2.2-117.9 41.92M650.08 525.59c43.74-39.71 117.9-41.92 117.9-41.92M767.98 440.75s-74.16 2.2-117.9 41.92" class="cls-3"/>
    <path d="M1611.15 1873.85H962.57" class="cls-4"/>
    <circle cx="696.31" cy="761.61" r="33.73" class="cls-14"/>
    <circle cx="514.48" cy="1264.57" r="33.73" class="cls-14"/>
    <circle cx="629.59" cy="1594.05" r="33.73" class="cls-14"/>
    <circle cx="961.79" cy="1873.85" r="33.73" class="cls-14"/>
    <circle cx="1882.71" cy="761.6" r="33.73" class="cls-14"/>
    <circle cx="2064.53" cy="1264.56" r="33.73" class="cls-14"/>
    <circle cx="1949.42" cy="1594.05" r="33.73" class="cls-14"/>
    <circle cx="1617.22" cy="1873.85" r="33.73" class="cls-14"/>
    <path d="m1883.93 761.61-267.5 1112.24M2064.52 1264.57H588.32M696.31 761.77l1368.21 502.8M2064.52 1264.57 962.57 1873.85M2064.52 1264.57l-448.09 609.28M1949.41 1594.05l-332.98 279.8M696.31 761.77l1253.1 832.28M962.57 1873.85l986.84-279.8M961.79 1873.85l922.14-1112.24M696.31 761.77l265.48 1112.08M961.79 1873.85l1102.73-609.28M961.79 1873.85l987.62-279.8M514.48 1264.57h1550.04M514.48 1264.57l1434.93 329.48M1883.93 761.61 514.48 1264.57M514.48 1264.57l1101.95 609.28M514.48 1264.57l447.31 609.28M629.59 1594.05l332.2 279.8M514.48 1264.57l115.11 329.48M696.31 761.77l-181.83 502.8M696.31 761.77l-66.72 832.28M1883.93 761.61 629.59 1594.05M696.31 761.77l-66.72 832.28M2064.52 1264.57 629.59 1594.05M1949.41 1594.05H629.59M1616.43 1873.85l-986.84-279.8M696.31 761.77l920.12 1112.08M2064.52 1264.57l-115.11 329.48M1883.93 761.61l180.59 502.96M1883.93 761.61l65.48 832.44M962.57 1873.85h653.86" class="cls-4"/>
    <circle cx="1289.5" cy="1268.2" r="451" style="fill:#fff;stroke-width:0"/>
    <text style="fill:#182949;font-family:PTSans-Regular,&quot;PT Sans&quot;;font-size:100px" transform="translate(1118.5 1265.6)"><tspan x="0" y="0">OBJE</tspan><tspan x="209.5" y="0" style="letter-spacing:-.03em">C</tspan><tspan x="263.8" y="0" style="letter-spacing:-.04em">T</tspan><tspan x="315.3" y="0"> </tspan><tspan x="-83.45" y="120">BIOG</tspan><tspan x="133.65" y="120" style="letter-spacing:-.03em">R</tspan><tspan x="190.55" y="120" style="letter-spacing:0">APH</tspan><tspan x="372.15" y="120" style="letter-spacing:-.03em">Y</tspan></text>
    <path d="M1412.66 450.7c.49 2.26.79 4.78.57 7.1-.5 5.23-6.58 7.3-10.88 6.81-.2 1.99 1.6 1.21 2.23 1.58.3.17 3.4 5.22 3.89 6.02 3.03 4.97 8.36 14.01 7.56 19.99-.55 4.06-3.32 6.26-5.06 9.53-1.39 2.62-1.3 6.66-4.9 5.66-7.02-1.95-13.83-17.45-15.73-24.21-.81-2.89-1.3-3.83.04-6.58 1.43-2.96 5.61-8.69 8.29-10.31.23-.14.53-.15.79-.21l.03-.72-7.73-9.46c-1.86-3.2-3.88-6.83-4.52-10.58-.79-4.63.15-9.39-.92-13.99.13-.18 2.23 1.61 2.5 1.74 3.13 1.47 6.95.95 10.07 2.67l8.83 5.82c2.32-.33 2.16-2.49 4.81-2.67 8.93-.6 21.36.56 23.61 17 1.53 22.92.75 57.36-.73 67.38-1.07 0-1.6-1.59-1.94-2.48-1.83-4.71-.61-60.34-6.64-69.09-6.03-8.75-8.43-1.13-14.16-1.02Zm-15.88 4.37c3.53 3.74 9.28.73 8.02-4.99-.89-4.07-9.64-7.06-10.2-2.56-.34 2.68.4 5.67 2.18 7.56Zm2.8 22.64c-3.24 3.23-2.6 15.49 3.23 15.59 7.01.12 7.23-13.39 2.38-16.12-1.62-.91-4.23-.84-5.61.53ZM1326.55 292.62l4.72.34c.95 3.59 1.52 7.67 2.95 11.11 2.41 5.82 9.71 12.22 14.45 16.53 2.79 2.54 9.26 8.69 12.36 9.85.65.24 5.74 1.67 5.95 1.45-.27-1.42-1.54-2.6-2.23-3.97-2.13-4.22-2.73-9.12.61-12.91 4.22-4.8 10.84-.88 16.37-1.06 8.41 5.82 15.68 13.28 23.34 20.17 8.07 7.27 21.66 30.1 16.58 23.7-4.7-5.93-12.13-13.19-17.63-18.57-5.33-5.22-10.04-10.24-17.4-12.36-3.09-.89-8.85-2.32-11.93-2.57-.52-.04-3.24-.07-3.44.05-1.49 2.92 1.86 5.75 4.09 7.16 4.86 3.07 11.06 2 16.12 4.42 2.87 1.37 6.04 4.17 7.23 7.12-1.12.12-2.08.74-3.21.88-8.91 1.08-17.51-1.54-25.93-.87-5.84.47-12.84 4.21-18.59 1.97-2.08-.81-5.93-4.19-7.06-6.23-1.26-2.28 1.42-2.74 3.33-2.96 2.16-.24 6.52 1.03 7.28-1.78.62-2.27-.33-1.63-.92-2.17-10.66-9.95-24.28-14.52-27.61-30.79-.61-2.98-.49-5.64.56-8.5ZM1347.05 660.52l3.98 8.56c5.4 9.1 11.42 18.19 20.48 23.94l.71-.13c.69-.57.91-6.67 1.14-8 .77-4.56 6.86-8.46 11.29-8.04 2.56.24 4.52 3.78 5.56 5.93 3.56 7.37 4.07 14.15 5.2 22 1.11 7.71 6.66 10.61 9.33 17.26 1.67 4.14 3.08 9.9 4.14 14.3 3.67 15.27 6.77 33.72 2.4 49.1-.37 1.3-1.73 5.34-2.91 5.85-1.52-.2-1.71-.71-1.83-2.11-.59-6.82 1.56-15.08 1.84-22.07.75-19.05-9.37-45.72-25.41-56.82-4.14-2.87-7.8-2.71-11.73-5.19-3.73-2.35-9.19-6.83-12.56-9.81-6.28-5.55-8.06-10.71-10.03-18.97-1.17-4.91-2.26-10.82-1.59-15.79Zm33.61 27.89c-.46.3-1.52 3.02-1.6 3.69-.44 3.56.54 6.13 3.37 8.14 1.96 1.39 4.75 2.37 6.91 3.51.84-3.45-.14-7.15-1.69-10.25-1.01-2.03-4.28-6.85-6.98-5.09ZM1393.56 545.93c-1.15-4.85-3.12-9.88-.65-14.71 1.54-3.02 8.06-7.78 11.46-6.23 1.01.46 3.85 4.89 4.55 6.08 2.32 3.94 8.13 14.35 8.77 18.36.68 4.21.49 9.98-3.15 12.83-3.23 2.52-6.59 1.51-10.03.06-7.24-3.05-17.87-11.28-25.04-12.12-1.51-.18-4.76.31-5.85-.19-1.29-.59-4.84-5.85-5.71-7.35-1.07-1.84-2.4-4.4-3.27-6.33-.44-.98-2.58-6.25-2.5-6.87s.45-.29.76-.17c.9.37 2.27 1.18 3.13 1.71 8.36 5.08 15.4 10.64 24.74 14.24.39.15 2.66.82 2.78.69Zm13.1-5.55c-1.35-1.44-5.27-5.24-7.2-2.9-2.1 2.54-.72 8.57.92 11.16 1.67 2.64 6.79 6.93 9.18 2.89s-.19-8.26-2.9-11.15Z" class="cls-11"/>
    <path d="M1371.31 351.32c.78-.64.94-1.55 1.86-2.21 3.06-2.18 9.54-2.4 13.06-1.28s8.18 9.79 10.53 12.74c4.72 5.94 9.23 5.05 15.19 8.07 15.93 15 20.74 52.7 19.13 50.87-4.33-4.9-10.63-29.81-14.87-35.1-6.54-8.15-23.55-9.74-33.29-12.41-3.19-.87-5.96-1.6-8.44-3.87-3.22-2.96-1.25-3.21-1.44-6.47-.14-2.48-1.92-4.44-2.08-6.7-.09-1.26.2-2.42.36-3.65Zm19.73 7.27c-1.85-2.13-7.44-5.18-10.15-3.57-1.15.68-2.46 4.63-1.55 5.76.49.61 1.31.3 1.91.5 3.93 1.31 7.5 2.97 11.69 1.12.3-.42-1.49-3.34-1.9-3.81ZM1389.74 661c10.08 6.81 26.72 21.27 27.97 34.13.41 4.25-.83 8.27-.61 12.41.2 3.81 1.19 8.01 1.52 11.78.63 7.1.29 14.27-2.11 21.01-.93.16-1.75-1-1.97-1.79-1-3.55.09-6.7-.13-10.17-.76-11.94-6.53-33.12-12.28-43.64-3.35-6.13-7.16-7.78-12.68-11.34-.94-.61-5.22-4.26-6.15-3.68l-2.62 3.51c-3.32.73-3.3-8.54-3.12-10.45.27-2.88 1.2-7.02 4.84-6.06 2.57.68 5.25 2.86 7.35 4.27ZM1367.59 278.68c4.77-.66 8.83 6.04 10.53 9.86 2.82 6.33 3.9 12.2-.02 18.34-2.54 3.98-5.1 3.24-9.06 1.63-6.72-2.74-12.39-.49-13.31-9.3-.11-1.08 22.37 7.66 15.2-5.17-5.54-9.92-19.77-11.9-19.29-12.75 5.28-9.37 15.96-2.62 15.96-2.62ZM1380.08 748c-1.66 1.52-2.4 2.48-4.87 2.83-7.31 1.05-9.18-6.1-10.57-11.65-2.09-8.4-4.58-19.01 4.48-24.07 2.77-1.55 8.93-2.87 11.6-.79 1.65 1.28 3.19 8.27 3.68 10.53 1.8 8.35 2.48 16.93-4.33 23.16Zm-9.66-21.77c-1.92 3.03-2.39 7.29-.55 10.45.59 1.03 1.81 2.53 3.02 2.72 6.45 1.05 7.93-7.64 5.93-12.29-.99-2.3-3.32-3.8-5.79-2.96a5.065 5.065 0 0 0-2.61 2.07Z" class="cls-11"/>
    <path d="M1405.52 404.94c-1.01 1.36-2.88 2.94-4.6 3.12-2.29.24-3.49-1.42-5.53-1.97-3.69-3.23-8.76-5.58-12.41-8.74-4.82-4.18-5.54-11.76-6.81-17.67-.03-.55.97-1.42 1.54-1.52 6.23-1.2 12.77.83 18.8 2.03 1.27.25 2.72.24 3.99.54 1.52 1.46.95 3.41 1.24 5.11 1.16 6.72 9.65 11.21 3.78 19.12Zm-9.67-14.57c-1.82-1.49-6.14-2.99-8.49-2.55-.35.07-.61.11-.72.5l.88 6.15c1.28.32-.03-1.6 1.05-1.51 2.93 2.29 6.48 5.53 10.44 3.74.46-1.67-1.86-5.27-3.16-6.33ZM1383.41 630.7c1.11-1.69 4.79-5.32 6.39-6.75.45-.4 1.72-1.74 2.26-1.39.41.79.93 1.54 1.32 2.33.66 1.3 1.27 3.16 1.66 4.68 1.22 4.8 1.82 10.08 1.89 15.04 3.39 2.44 4-2.96 4.18-5.4.23-3.09-.42-7.04.02-9.96.04-.26.66-1.8 1.19-1.37 1.33 4.01 3.71 7.92 4.75 12.03 1.79 7.13.97 14.31-6.28 17.72-3.53 1.66-7.86 1.63-10.7-1.32-2.78-2.89-6.95-13.99-7.62-18.07-.44-2.67-.56-5.22.95-7.53Zm8.26 6.61c-.76-.88-2.41-.07-2.79.84-.67 1.6.03 7.75 2.1 8.17.54.11.41-.08.54-.39.54-1.25.9-7.75.15-8.62ZM1409.56 572.39c.09-.56.58-1.05 1.16-.7 3.16 4.64 5.85 7.92 4.55 13.97-2.19 10.15-12.95 1.36-17.64-1.63-.34-.22-.58-.65-.91-.9l-1.79 2.75c-1.61 1.35-4.73-3.73-5.71-4.77-5.82-6.15-12.21-9.57-13.2-19.29-.31-3.11-.12-3.06 1.98-1.37 1.7 1.37 3.42 3.22 5.15 4.64 1.54 1.26 4.65 4.02 6.61 4.13.64.04.39-.02.46-.45.36-2.39-.49-5.01-.3-7.42 6.42 1.51 6.61 7.11 5.77 12.65l13.85 5.49c.25-2.17-.34-5.03 0-7.1ZM1389.43 589.27c1.23-1.58 3.23-.93 4.52.18.4.34.31.75.51 1 1.15 1.39 2.87 3.67 2.28 5.68-1.32 2.51-4.17 6.34-4.1 9.2.09 3.89 7.56 9.22 10.89 6.07 3-2.83 1.81-7.88 2.09-11.51.07-.95.33-3.85 1.83-3.03.43.85 1.67 1.84 2.08 2.53 3.43 5.66 4.82 14.37 1.06 20.29-3.86 6.07-10.5 3.6-15.73.99-1.43-.71-2.19-1.2-3.34-2.19-.23-.2-.75-.1-1.01-.49-.76-1.13-1.51-5.92-1.76-7.54-.4-2.66-.81-6.06-.95-8.72-.17-3.26-.41-9.84 1.63-12.45ZM1411.38 432.26c-1.15-.17-2.6-.15-3.7-.38-4.91-1.02-12.27-5.68-16.93-3.48-.74.35-1.43 2.12-2.48 2.03-2.87-1.71-4.39-5.9-4.04-9.18.29-2.66 2.04-3.34.83-6.34-.46-1.14-1.34-1.99-1.82-3.01-1.29-2.68-2.53-8.24 2.02-8.09 4.92.16 5.41 9.51 5.95 13.12.41 1.42 5.02 2.1 6.47 2.29 3.68.49 9.31-.26 11.9 2.99.29.37 1.81 3.93 1.81 4.16v5.9ZM1391.44 506.63c.24-.24 5.46.89 6.28 1.12 3.97 1.1 7.79 3.58 11.97 3.73 1.43.05 2.66-.25 4.05-.27l6.68 14.77c-4.71.15-8.5-3.27-12.62-5.05-3.79-1.64-6.2-2.18-9.81.21-.45.3-.42 1.25-1.39.87-3.1-4.54-5.27-9.7-5.17-15.38ZM1417.42 614.11l1.43.39c2.15 4.33 3.66 9.06 4.83 13.75 2.27 9.06 2.88 19.64 1.59 28.94-.11.82-.2 1.93-.75 2.57-1.61-8.35-2.59-16.84-4.11-25.21-1.02-5.66-2.51-10.47-2.98-16.36-.11-1.34.06-2.73 0-4.08ZM1364.3 640.59c3.04-.69 5.46 2.17 6.55 4.72 1.6 3.76 3.1 11.75-.02 14.81-5.08 4.98-6.91-4.04-7.17-7.61-.11-1.48 0-11.36.65-11.92ZM1377.66 496.16c.67-.62 2.4-1.09 3.15-.65.63.37 3.37 6.31 3.67 7.36.72 2.54 1.05 6.29-1.03 8.31-3.64 3.54-7.46-4.05-7.72-7.1-.23-2.67-.16-5.99 1.93-7.91ZM1430.14 561.2c-2.06-2.24-2.82-6.06-3.54-9-.97-3.98-2.1-9.52-2.46-13.56-.5-5.52 1.17-4.14 2.9-.48 1.88 3.98 4.05 11.28 4.04 15.63 0 2.16-1.04 5.1-.93 7.41Z" class="cls-11"/>
    <ellipse cx="1347.72" cy="529.94" class="cls-2" rx="148.57" ry="399.88"/>
    <ellipse cx="1352.87" cy="538.04" class="cls-2" rx="91.59" ry="329.9"/>
    <path d="M1308.32 251.34c30.18 50.54 50.92 155.57 50.92 276.96 0 128-23.07 237.82-55.94 284.73" class="cls-2"/>
    <path d="M1344.3 130.16s-74.79-7.97-122.92 9.9c-78.06 33.44-133.25 189.73-133.25 388.45s53.07 363.73 139.04 398.03c25.54 9.03 117.13 3.27 117.13 3.27" class="cls-2"/>
    <path d="m1365.13 279.86 1.23-.82c4.67 1.24 9.22 3.21 13.53 5.42 8.31 4.26 16.68 10.76 22.83 17.86.54.62 13.53 22.62 13.65 23.46-2.12 5.02-12.36-21.4-33.89-34.71-4.89-3.02-9.53-5-14.28-8.53-1.08-.8-2.01-1.85-3.07-2.68Z" class="cls-11"/>
  </g>
</svg>
