<svg xmlns="http://www.w3.org/2000/svg" id="Ebene_17" data-name="Ebene 17" viewBox="0 0 1622.619 1230.906">
  <defs>
    <style>
      .cls-1{font-family:PTSans-Regular,&quot;PT Sans&quot;}.cls-1,.cls-2{fill:#182949}.cls-1{font-size:32.711px}.cls-5{fill:#3584f6}.cls-7{fill:#fff}.cls-12{letter-spacing:-.048em}.cls-13{letter-spacing:-.04em}.cls-17{letter-spacing:-.028em}.cls-23{letter-spacing:.031em}
    </style>
  </defs>
  <ellipse cx="810.214" cy="585.94" class="cls-7" rx="528.807" ry="513.934"/>
  <circle cx="819.373" cy="586.987" r="319.005" style="fill:#e7c6ac"/>
  <circle cx="819.373" cy="586.987" r="141.822" class="cls-7"/>
  <text style="font-family:PTSans-Bold,&quot;PT Sans&quot;;font-weight:700;font-size:32.711px;fill:#182949" transform="translate(759.188 557.494)"><tspan x="0" y="0" class="cls-23">OBJE</tspan><tspan x="73.304" y="0" style="letter-spacing:.027em">C</tspan><tspan x="92.472" y="0" style="letter-spacing:-.009em">T</tspan><tspan x="110.758" y="0" class="cls-23"> </tspan><tspan x="-32.154" y="39.253" class="cls-23">BI</tspan><tspan x="-1.473" y="39.253" style="letter-spacing:-.009em">O</tspan><tspan x="20.149" y="39.253" class="cls-23">G</tspan><tspan x="41.084" y="39.253" style="letter-spacing:-.006em">R</tspan><tspan x="60.58" y="39.253" class="cls-23">APH</tspan><tspan x="123.416" y="39.253" style="letter-spacing:.004em">Y</tspan><tspan x="142.912" y="39.253" class="cls-23"> </tspan><tspan x="13.28" y="78.506" style="letter-spacing:.036em">C</tspan><tspan x="32.743" y="78.506" style="letter-spacing:-.017em">Y</tspan><tspan x="51.552" y="78.506" class="cls-23">CLE</tspan></text>
  <path d="M1189.599 186.508h-34.382v98.58h-13.068v-98.58h-34.382v-11.672h81.833v11.672ZM1255.903 254.511h-40.422l-10.974 30.576h-13.068l41.716-111.902h5.976l41.868 111.902h-13.829l-11.279-30.576h.013Zm-36.197-11.291h32.276l-12.218-33.52-3.92-16.684h-.152l-3.92 17.001-12.066 33.203ZM1301.831 273.415h22.076v-76.25l1.573-9.287-6.306 7.397-17.331 12.434-5.988-8.031 34.649-26.732h5.697v100.483h21.568v11.672h-55.951v-11.672l.013-.013ZM324.699 186.826h-34.034v97.581H277.73v-97.581h-34.034v-11.554h81.003v11.554ZM390.339 254.14h-40.015l-10.857 30.266h-12.935l41.294-110.767h5.92l41.449 110.767h-13.689l-11.167-30.266Zm-35.828-11.177h31.95l-12.098-33.182-3.877-16.513h-.155l-3.877 16.825-11.943 32.87ZM436.177 284.406l39.128-91.345 6.858-7.639-9.201 1.403h-44.446v-11.554h65.179v4.229l-45.086 104.906h-12.433ZM1223.56 900.534h-34.189v98.024h-12.994v-98.024h-34.189v-11.606h81.371v11.606ZM1289.498 968.154h-40.197l-10.907 30.404H1225.4l41.482-111.27h5.947l41.638 111.27h-13.751l-11.218-30.404Zm-35.99-11.228h32.095l-12.152-33.333-3.895-16.588h-.156l-3.895 16.901-11.997 33.02ZM1354.915 989.475c3.554 0 6.848-.52 9.882-1.565 3.032-1.043 5.647-2.58 7.843-4.615 2.196-2.034 3.921-4.459 5.176-7.276 1.254-2.817 1.882-5.894 1.882-9.233 0-7.301-2.17-12.724-6.511-16.272-4.341-3.546-10.327-5.32-17.962-5.32h-11.608v-4.522l22.574-34.808 7.211-6.897-10.199 1.567h-31.066v-11.606h56.014v4.561l-24.942 37.471-5.49 4.546v.313l5.326-1.096c4.179.104 8.043.861 11.595 2.269 3.55 1.409 6.631 3.444 9.243 6.105 2.612 2.661 4.648 5.843 6.111 9.547 1.463 3.704 2.194 7.903 2.194 12.596 0 5.634-.993 10.643-2.978 15.025-1.985 4.382-4.676 8.06-8.07 11.033-3.394 2.973-7.39 5.241-11.987 6.807-4.597 1.565-9.456 2.348-14.575 2.348-4.701 0-8.932-.367-12.693-1.094-3.761-.731-7.053-1.668-9.874-2.815l3.294-11.104c2.405 1.139 5.253 2.095 8.549 2.872 3.294.777 6.98 1.165 11.06 1.165ZM327.967 900.539h-34.625v99.276h-13.16v-99.276h-34.625v-11.755h82.411v11.755ZM394.747 969.023h-40.71l-11.046 30.792h-13.16l42.012-112.692h6.023l42.17 112.692h-13.927l-11.361-30.792Zm-36.45-11.371h32.505l-12.308-33.759-3.945-16.8h-.158l-3.945 17.117-12.15 33.442ZM457.702 990.616c7.291 0 13.316-2.116 18.071-6.351 4.755-4.232 7.133-10.371 7.133-18.415 0-7.726-2.35-13.494-7.045-17.305-4.698-3.809-11.162-5.716-19.393-5.716l-13.298.793v-54.839h49.319v11.755h-37.436v31.493l6.804-.317c10.441.108 18.668 3.019 24.681 8.734 6.011 5.716 9.018 13.919 9.018 24.607 0 5.929-1.004 11.196-3.011 15.799-2.008 4.604-4.727 8.441-8.159 11.509-3.434 3.07-7.472 5.398-12.12 6.985-4.648 1.587-9.613 2.382-14.893 2.382-4.753 0-8.766-.266-12.04-.791-3.274-.529-6.339-1.32-9.189-2.374l3.328-10.763c2.432.938 5.047 1.641 7.848 2.108 2.799.469 6.261.703 10.383.703ZM1357.363 543.968h-34.449v98.772h-13.093v-98.772h-34.449v-11.695h81.992v11.695ZM1423.803 612.103H1383.3l-10.99 30.636h-13.093l41.798-112.119h5.992l41.955 112.119h-13.856l-11.304-30.636Zm-36.264-11.313h32.34l-12.245-33.587-3.925-16.714h-.157l-3.925 17.03-12.088 33.271ZM1523.21 557.351c0 5.575-1.027 11.282-3.081 17.121-2.054 5.84-4.739 11.703-8.056 17.594a174.751 174.751 0 0 1-11.137 17.28 384.868 384.868 0 0 1-12.323 16.017l-7.74 6.785v.63l10.098-1.734h34.4v11.695h-62.797v-4.596c2.316-2.419 5.105-5.416 8.37-8.994 3.265-3.575 6.662-7.546 10.189-11.911a252.097 252.097 0 0 0 10.424-13.884 166.275 166.275 0 0 0 9.319-14.911c2.789-5.049 5.027-10.044 6.711-14.988 1.684-4.944 2.528-9.625 2.528-14.043 0-5.154-1.474-9.441-4.417-12.859-2.946-3.418-7.417-5.128-13.411-5.128-3.996 0-7.889.812-11.675 2.435-3.786 1.623-7.047 3.48-9.782 5.573l-5.206-9.025c3.68-3.138 8.044-5.595 13.093-7.375 5.049-1.778 10.465-2.668 16.251-2.668 4.523 0 8.519.657 11.991 1.972 3.47 1.315 6.416 3.184 8.835 5.603 2.419 2.419 4.258 5.287 5.522 8.6 1.261 3.313 1.893 6.916 1.893 10.809ZM182.699 544.332h-33.763v96.803h-12.832v-96.803h-33.763V532.87h80.358v11.462ZM247.815 611.11h-39.696l-10.771 30.025h-12.832l40.965-109.884h5.873l41.119 109.884h-13.58l-11.078-30.025Zm-35.542-11.089h31.695l-12.001-32.918-3.847-16.381h-.154l-3.847 16.691-11.847 32.608ZM352.341 608.534c0 4.742-.722 9.198-2.165 13.372-1.442 4.174-3.555 7.831-6.336 10.973-2.784 3.144-6.235 5.618-10.358 7.421-4.123 1.801-8.811 2.704-14.066 2.704-5.153 0-9.79-.825-13.913-2.474-4.123-1.651-7.678-4.1-10.666-7.349-2.988-3.249-5.281-7.245-6.877-11.989-1.598-4.744-2.396-10.21-2.396-16.399 0-10.208 1.314-19.62 3.942-28.232 2.628-8.612 6.26-16.114 10.897-22.509 4.637-6.393 10.125-11.575 16.463-15.546 6.338-3.971 13.218-6.473 20.638-7.504l2.628 9.842c-5.768 1.034-11.02 2.998-15.758 5.892a50.403 50.403 0 0 0-12.435 10.699c-3.553 4.238-6.461 8.992-8.727 14.263a65.137 65.137 0 0 0-4.635 16.28c1.647-2.782 4.429-5.332 8.343-7.65 3.913-2.318 8.703-3.479 14.368-3.479 9.681 0 17.276 2.784 22.787 8.347 5.509 5.564 8.265 13.344 8.265 23.338Zm-12.832 1.238c0-7.31-1.699-12.819-5.098-16.525-3.399-3.706-8.649-5.56-15.754-5.56-5.048 0-9.398 1.236-13.054 3.706-3.656 2.472-6.204 5.252-7.644 8.339-.206 1.442-.31 2.626-.31 3.553v3.087c0 3.192.436 6.334 1.312 9.422.876 3.089 2.241 5.844 4.094 8.262 1.853 2.42 4.144 4.376 6.874 5.869 2.729 1.493 5.947 2.239 9.655 2.239 2.986 0 5.688-.565 8.108-1.697a19.279 19.279 0 0 0 6.257-4.633c1.75-1.956 3.115-4.325 4.094-7.105.977-2.78 1.468-5.764 1.468-8.957ZM769.963 1045.236h-33.119v94.957h-12.588v-94.957h-33.119v-11.243h78.825v11.243ZM833.839 1110.741H794.9l-10.565 29.453h-12.588l40.184-107.789h5.761l40.335 107.789h-13.321l-10.867-29.453Zm-34.865-10.877h31.091l-11.772-32.29-3.773-16.069h-.151l-3.773 16.372-11.621 31.987ZM941.138 1107.563h-17.843v32.63h-11.854v-32.63h-46.684v-5.02l50.324-70.139h8.215v64.527h17.843v10.632Zm-29.697-43.642 1.516-12.416h-.454l-5.305 10.296-21.366 28.922-7.273 7.422 10.607-1.214h22.275v-33.01Z" class="cls-2"/>
  <text class="cls-1" transform="translate(545.403 596.821)"><tspan x="0" y="0">SHARE</tspan></text>
  <text class="cls-1" transform="translate(871.063 415.743)"><tspan x="0" y="0">DOCUMEN</tspan><tspan x="149.191" y="0" style="letter-spacing:-.04em">T</tspan></text>
  <text class="cls-1" transform="translate(977.995 596.599)"><tspan x="0" y="0" style="letter-spacing:-.026em">C</tspan><tspan x="17.828" y="0" style="letter-spacing:0">OLLE</tspan><tspan x="91.558" y="0" class="cls-17">C</tspan><tspan x="109.319" y="0" class="cls-13">T</tspan></text>
  <text class="cls-1" transform="translate(915.758 776.12)"><tspan x="0" y="0">S</tspan><tspan x="17.369" y="0" class="cls-12">T</tspan><tspan x="33.953" y="0">ORE</tspan></text>
  <text class="cls-1" transform="translate(750.283 865.651)"><tspan x="0" y="0">P</tspan><tspan x="18.285" y="0" style="letter-spacing:-.044em">R</tspan><tspan x="36.309" y="0" class="cls-12">O</tspan><tspan x="57.112" y="0">TE</tspan><tspan x="92.8" y="0" class="cls-17">C</tspan><tspan x="110.562" y="0" class="cls-13">T</tspan></text>
  <text class="cls-1" transform="translate(597.779 776.121)"><tspan x="0" y="0">ANA</tspan><tspan x="60.285" y="0" style="letter-spacing:-.105em">L</tspan><tspan x="73.762" y="0">YSE</tspan></text>
  <text class="cls-1" transform="translate(609.39 415.744)"><tspan x="0" y="0">SUP</tspan><tspan x="56.981" y="0" style="letter-spacing:-.017em">P</tspan><tspan x="74.71" y="0">O</tspan><tspan x="97.084" y="0" style="letter-spacing:-.061em">R</tspan><tspan x="114.552" y="0" class="cls-13">T</tspan></text>
  <path d="m1147.968 334.371-55.746.013.045-.047-.046.046-.032-55.064a1.22 1.22 0 0 1 1.184-1.254c.347-.011.664.119.895.34a1.2 1.2 0 0 1 .374.831l-.05 52.722 53.374-.013c.331 0 .632.129.853.34.231.22.374.529.375.872a1.22 1.22 0 0 1-1.227 1.213ZM486.852 334.371l55.746.013-.045-.047.046.046.032-55.064a1.22 1.22 0 0 0-1.184-1.254 1.232 1.232 0 0 0-.895.34 1.2 1.2 0 0 0-.374.831l.05 52.722-53.374-.013c-.331 0-.632.129-.853.34-.231.22-.374.529-.375.872 0 .67.549 1.213 1.227 1.213ZM486.816 839.269l55.746-.013-.045.047.046-.046.032 55.064a1.22 1.22 0 0 1-1.184 1.254 1.232 1.232 0 0 1-.895-.34 1.2 1.2 0 0 1-.374-.831l.05-52.722-53.374.013c-.331 0-.632-.129-.853-.34a1.204 1.204 0 0 1-.375-.872c0-.67.549-1.213 1.227-1.213ZM1147.931 839.269l-55.746-.013.045.047-.046-.046-.032 55.064a1.22 1.22 0 0 0 1.184 1.254c.347.011.664-.119.895-.34a1.2 1.2 0 0 0 .374-.831l-.05-52.722 53.374.013c.331 0 .632-.129.853-.34.231-.22.374-.529.375-.872a1.22 1.22 0 0 0-1.227-1.213ZM854.543 991.254l-40.085-38.74v.065l-.001-.065-38.28 39.582a1.22 1.22 0 0 0-.019 1.725c.241.249.561.375.88.377a1.2 1.2 0 0 0 .846-.338l36.594-37.954 38.38 37.092c.238.231.545.346.85.348.319.002.637-.121.875-.367a1.22 1.22 0 0 0-.04-1.725ZM407.586 627.078l38.74-40.085h-.065l.065-.001-39.582-38.28a1.22 1.22 0 0 0-1.725-.019 1.233 1.233 0 0 0-.377.88 1.2 1.2 0 0 0 .338.846l37.954 36.594-37.092 38.38a1.229 1.229 0 0 0-.348.85c-.002.319.121.637.367.875a1.22 1.22 0 0 0 1.725-.04ZM1221.132 546.91l-38.74 40.085h.065l-.065.001 39.582 38.28a1.22 1.22 0 0 0 1.725.019c.249-.241.375-.561.377-.88a1.2 1.2 0 0 0-.338-.846l-37.954-36.594 37.092-38.38c.231-.238.346-.545.348-.85a1.203 1.203 0 0 0-.367-.875 1.22 1.22 0 0 0-1.725.04Z" class="cls-5"/>
</svg>
