<svg xmlns="http://www.w3.org/2000/svg" id="Ebene_3" data-name="Ebene 3" viewBox="0 0 3138.843 2841.619">
  <defs>
    <style>
      .cls-1,.cls-3,.cls-4,.cls-5,.cls-6{fill:none;stroke-width:7px}.cls-1,.cls-4,.cls-5{stroke-linejoin:round}.cls-1,.cls-6{stroke:#0084ff}.cls-1,.cls-3,.cls-5,.cls-6{stroke-linecap:round}.cls-8{fill:#3584f6}.cls-3,.cls-4,.cls-5{stroke:#13294b}.cls-3,.cls-6{stroke-miterlimit:10}.cls-10{fill:#13294b}.cls-13{letter-spacing:.05em}
    </style>
  </defs>
  <circle cx="1653.071" cy="1389.922" r="1250.015" style="fill:#eeeae0"/>
  <rect width="182.939" height="47.632" x="1999.163" y="508.922" rx="3.454" ry="3.454" style="stroke:#0084ff;stroke-linejoin:round;fill:none;stroke-width:7px"/>
  <path d="m2087.394 508.922 136.823-82.477M2182.102 451.832V531.3" class="cls-6"/>
  <circle cx="2183.108" cy="526.933" r="7.674" class="cls-6"/>
  <path d="M2148.287 508.921c6.381-12.16 19.129-20.454 33.815-20.454 21.077 0 38.164 17.086 38.164 38.164s-17.086 38.164-38.164 38.164a37.986 37.986 0 0 1-22.009-6.982" class="cls-6"/>
  <circle cx="1904.866" cy="642.357" r="22.294" class="cls-4"/>
  <path d="M2335.577 483.91c0-30.405-22.617-55.524-51.944-59.46-13.533-32.304-45.446-54.998-82.662-54.998-18.701 0-36.062 5.734-50.427 15.535-6.326-26.357-30.044-45.947-58.341-45.947-29.956 0-54.783 21.954-59.273 50.65a70.741 70.741 0 0 0-10.923-.847c-38.768 0-70.196 31.428-70.196 70.196 0 2.667.154 5.298.444 7.887-8.275 13.571-13.043 29.514-13.043 46.571 0 49.477 40.109 89.586 89.586 89.586 3.848 0 7.639-.243 11.359-.714 12.36 10.863 28.568 17.454 46.317 17.454 11.782 0 22.884-2.907 32.635-8.037 9.135 10.477 22.569 17.106 37.561 17.106 13.213 0 25.215-5.152 34.133-13.545a89.622 89.622 0 0 0 24.775 3.473c47.11 0 85.725-36.363 89.312-82.552 18.311-10.273 30.687-29.869 30.687-52.359Z" class="cls-4"/>
  <circle cx="1809.955" cy="705.025" r="11.956" class="cls-4"/>
  <rect width="180.881" height="231.164" x="1101.744" y="398.715" class="cls-5" rx="3.87" ry="3.87"/>
  <path d="M1124.101 425.098h137.003v180.049h-137.003zM1141.389 459.025h102.827M1141.389 482.145h81.692M1141.389 505.265h95.869M1141.389 528.385h102.827M1141.389 551.505h81.692M1141.389 574.624h95.869" class="cls-1"/>
  <path d="M1406.447 533.999c0-27.248-15.565-50.846-38.279-62.434 10.041-8.828 16.386-21.76 16.386-36.181 0-26.605-21.567-48.172-48.172-48.172a47.93 47.93 0 0 0-24.213 6.534c.29-2.138.453-4.316.453-6.534 0-26.605-21.567-48.172-48.172-48.172-17.962 0-33.616 9.838-41.899 24.412-10.821-11.708-26.302-19.046-43.503-19.046-22.834 0-42.637 12.928-52.525 31.857a77.98 77.98 0 0 0-36.362-8.953c-43.268 0-78.344 35.076-78.344 78.344 0 15.947 4.777 30.772 12.96 43.147-18.377 6.789-31.481 24.463-31.481 45.199 0 26.605 21.568 48.172 48.172 48.172 1.442 0 2.865-.075 4.275-.199a59.056 59.056 0 0 0-4.275 22.092c0 32.715 26.521 59.235 59.235 59.235a58.94 58.94 0 0 0 30.255-8.311c1.427 25.324 22.408 45.42 48.089 45.42 24.713 0 45.068-18.613 47.84-42.583 12.718 8.916 28.195 14.165 44.906 14.165 40.168 0 73.256-30.236 77.793-69.187 32.38-6.178 56.861-34.626 56.861-68.805Z" class="cls-4"/>
  <circle cx="1384.153" cy="687.747" r="22.294" class="cls-4"/>
  <circle cx="1481.404" cy="743.514" r="11.956" class="cls-4"/>
  <path d="M1658.974 888.259c-.51 0-1.023-.004-1.538-.012-26.448-.414-49.806-14.297-60.96-36.234-5.288-10.575-8.832-38.518-8.632-67.978.109-16.025 1.641-54.869 13.489-69.419 17.829-21.895 36.486-24.913 53.992-24.913 23.98 0 41.195 5.074 52.621 15.51 15.378 13.153 18.76 52.473 19.406 74.761.921 31.803-2.623 63.453-8.429 75.256-9.996 21.027-31.802 33.029-59.949 33.029Zm42.997-176.404" class="cls-3"/>
  <circle cx="1628.026" cy="778.235" r="5.3" class="cls-10"/>
  <circle cx="1679.744" cy="778.235" r="5.3" class="cls-10"/>
  <path d="M1633.602 838.741c2.4 7.141 9.888 11.368 16.736 13.338 8.048 2.315 17.409 1.922 24.624-2.647 4.999-3.166 8.338-7.837 10.525-13.262.883-2.189-.96-5.038-3.143-5.536-2.606-.593-4.59.799-5.536 3.143-.41 1.017.433-.895-.035.078-.11.229-.213.462-.325.691a24.013 24.013 0 0 1-1.518 2.669 21.159 21.159 0 0 1-.64.919c-.286.382-.219.296.203-.257-.322.19-.617.745-.872 1.025a19.958 19.958 0 0 1-1.875 1.815c-.162.138-.335.265-.494.405-.268.212-.132.107.408-.316a20.283 20.283 0 0 1-2.53 1.604c-.363.194-.735.368-1.104.549l-.224.102c-.432.189-.299.134.397-.165-.062.089-.583.227-.686.265-.803.295-1.623.542-2.454.745-.435.106-.872.2-1.312.282-.16.03-.321.054-.481.084-1.086.205.41-.03.109-.005-1.753.146-3.473.25-5.233.133a30.679 30.679 0 0 1-1.21-.104c-.201-.021-.401-.05-.602-.07-.61-.06 1.228.209.359.044-.865-.164-1.73-.303-2.587-.509a31.294 31.294 0 0 1-4.013-1.251c-.156-.06-1.115-.456-.305-.115.804.339-.483-.225-.688-.323-.33-.158-.657-.322-.981-.493a25.202 25.202 0 0 1-2.014-1.183c-.342-.223-.667-.47-1.006-.697-.549-.367.431.339.435.343-.179-.181-.411-.328-.606-.493a16.315 16.315 0 0 1-1.603-1.552c-.079-.088-.154-.18-.234-.268-.692-.765.556.812.164.23-.172-.255-.355-.501-.517-.763-.17-.276-.316-.562-.469-.848-.528-.984.404 1.154.015-.002-.748-2.227-3.134-3.92-5.536-3.143-2.215.717-3.946 3.146-3.143 5.536ZM1753.717 745.46c0-8.39-6.802-15.192-15.192-15.192-.064 0-.125.009-.188.01-.029-.104-.051-.211-.082-.314 3.96-2.568 6.586-7.019 6.586-12.09 0-5.749-3.376-10.698-8.245-13.01 1.006-1.968 1.665-3.908 1.665-5.618 0-10.065-8.16-18.225-18.225-18.225a18.13 18.13 0 0 0-8.505 2.112c-1.595-6.375-5.735-18.341-18.844-18.655-5.668-.136-10.668 2.858-13.643 7.21-1.43-5.36-6.297-9.314-12.108-9.314-.383 0-.76.021-1.134.055-3.245-5.411-9.15-9.044-15.918-9.044-6.565 0-12.321 3.416-15.622 8.558a12.54 12.54 0 0 0-2.874-.341c-6.935 0-12.558 5.622-12.558 12.558 0 .09.012.177.013.267a15.53 15.53 0 0 0-1.964.829c-2.5-3.356-6.487-5.54-10.994-5.54-7.576 0-13.717 6.141-13.717 13.717 0 .715.071 1.411.177 2.097a17.826 17.826 0 0 0-5.629 5.013 13.664 13.664 0 0 0-4.4-.734c-7.576 0-13.717 6.141-13.717 13.717 0 3.426 1.271 6.544 3.35 8.945-9.961.48-17.896 8.683-17.896 18.763 0 9.663 7.29 17.614 16.668 18.679a17.934 17.934 0 0 0 2.828 3.13c-6.338 1.21-11.132 6.775-11.132 13.466 0 7.576 6.141 13.717 13.717 13.717s13.717-6.141 13.717-13.717c0-3.515-1.333-6.71-3.507-9.137 9.287-.586 16.644-8.282 16.644-17.717 0-3.906-1.275-7.505-3.41-10.439a15.545 15.545 0 0 0 1.147-3.474 19.192 19.192 0 0 0 10.461 3.096c8.384 0 15.498-5.355 18.164-12.823a19.171 19.171 0 0 0 12.867 4.943c9.082 0 16.679-6.281 18.735-14.73 2.905 2.619 6.74 4.226 10.959 4.226 5.619 0 17.188-9.735 18.507-11.538 1.33 2.332 1.441 10.068 1.441 13.499 0 5.442 4.411 9.853 9.853 9.853 4.502 0 5.617-.382 7.332-.564-3.395 1.898-5.593 5.943-5.593 13.316 0 8.567 6.062 15.716 14.13 17.397a14.04 14.04 0 0 0-3.311 9.071c0 7.789 6.314 14.103 14.103 14.103s14.104-6.314 14.104-14.103c0-.457-.029-.906-.071-1.351 6.507-1.718 11.311-7.626 11.311-14.673Z" class="cls-10"/>
  <path d="M1576.133 784.947c-10.168 0-18.439-8.272-18.439-18.44a18.435 18.435 0 0 1 5.997-13.601 23.512 23.512 0 0 1-14.361-21.673c0-10.121 6.385-18.783 15.433-22.083a18.31 18.31 0 0 1-.887-5.625c0-10.167 8.271-18.439 18.439-18.439.896 0 1.789.066 2.677.199a22.218 22.218 0 0 1 2.457-2.174c.172-10.02 8.377-18.117 18.437-18.117 3.371 0 6.656.945 9.495 2.656 2.576-6.312 8.781-10.771 16.007-10.771.247 0 .495.006.743.017a23.17 23.17 0 0 1 17.753-8.233c7.314 0 14.013 3.335 18.404 9.042a17.272 17.272 0 0 1 11.853 6.109c3.652-2.708 8.089-4.168 12.658-4.057 7.328.176 16.686 3.443 21.774 17.206a22.884 22.884 0 0 1 5.461-.664c12.654 0 22.948 10.294 22.948 22.948 0 1.195-.184 2.438-.557 3.748 4.436 3.589 7.138 9.059 7.138 14.88 0 3.423-.906 6.708-2.561 9.568 6.753 3.19 11.437 10.068 11.437 18.018 0 7.764-4.516 14.706-11.338 17.96-.972 9.475-9 16.89-18.728 16.89-10.381 0-18.826-8.445-18.826-18.826 0-2.257.409-4.483 1.189-6.572-7.211-3.823-12.008-11.433-12.008-19.897 0-3.071.344-5.793 1.027-8.159-7.115-.959-12.619-7.072-12.619-14.445 0-1.672-.029-3.107-.075-4.336-4.674 3.515-10.674 7.098-15.151 7.098-3.022 0-5.976-.649-8.685-1.878a23.935 23.935 0 0 1-21.009 12.382c-3.907 0-7.713-.951-11.119-2.738-4.395 6.52-11.824 10.618-19.912 10.618-1.498 0-2.983-.14-4.438-.414.635 2.093.962 4.279.962 6.509 0 9.391-5.829 17.534-14.141 20.868a18.352 18.352 0 0 1 1.003 5.986c0 10.168-8.271 18.44-18.439 18.44Zm6.182-90.417c-4.959 0-8.995 4.035-8.995 8.995 0 2.74 1.195 4.696 2.198 5.855a4.724 4.724 0 0 1-3.344 7.808c-7.514.362-13.401 6.532-13.401 14.046 0 7.166 5.364 13.179 12.478 13.986a4.72 4.72 0 0 1 3.317 1.956c.61.857 1.311 1.634 2.084 2.309a4.72 4.72 0 0 1-2.22 8.196 8.993 8.993 0 0 0-7.295 8.827c0 4.96 4.035 8.995 8.995 8.995s8.995-4.035 8.995-8.995a8.963 8.963 0 0 0-2.302-5.986 4.723 4.723 0 0 1 3.221-7.863c6.852-.432 12.219-6.144 12.219-13.004 0-2.759-.866-5.408-2.505-7.659a4.72 4.72 0 0 1-.456-4.789c.349-.742.617-1.557.797-2.424a4.72 4.72 0 0 1 7.189-3.005 14.513 14.513 0 0 0 7.896 2.338c6.135 0 11.648-3.893 13.716-9.688a4.722 4.722 0 0 1 7.606-1.924 14.5 14.5 0 0 0 9.709 3.731 14.526 14.526 0 0 0 14.146-11.124 4.723 4.723 0 0 1 7.75-2.392 11.637 11.637 0 0 0 7.797 3.012c3.008 0 12.768-7.347 14.743-9.667a4.745 4.745 0 0 1 4.032-1.864 4.725 4.725 0 0 1 3.835 2.375c.959 1.682 2.06 5.003 2.06 15.838a5.137 5.137 0 0 0 5.131 5.131c3.045 0 4.254-.178 5.423-.351.474-.07.921-.135 1.41-.187a4.718 4.718 0 0 1 4.999 3.266 4.72 4.72 0 0 1-2.196 5.552c-2.108 1.178-3.176 4.271-3.176 9.193 0 6.149 4.362 11.522 10.372 12.775a4.72 4.72 0 0 1 2.65 7.663 9.258 9.258 0 0 0-2.203 6.031c0 5.173 4.209 9.381 9.381 9.381s9.382-4.208 9.382-9.381c0-.261-.016-.547-.05-.903a4.721 4.721 0 0 1 3.496-5.014 10.466 10.466 0 0 0 7.794-10.107c0-5.738-4.64-10.413-10.365-10.469a4.724 4.724 0 0 1-4.848-3.464l-.067-.263c-.59-2.005.218-4.126 1.971-5.263a9.662 9.662 0 0 0 4.434-8.128c0-3.711-2.178-7.143-5.549-8.743a4.723 4.723 0 0 1-2.179-6.417c1.036-2.025 1.147-3.1 1.147-3.468 0-7.446-6.057-13.503-13.503-13.503-2.215 0-4.334.526-6.296 1.564a4.722 4.722 0 0 1-6.789-3.029c-3.324-13.288-9.797-14.97-14.376-15.08-3.752-.077-7.365 1.836-9.631 5.154a4.724 4.724 0 0 1-8.462-1.449 7.824 7.824 0 0 0-7.545-5.808c-.24 0-.477.015-.71.036a4.714 4.714 0 0 1-4.474-2.275c-2.535-4.227-6.971-6.75-11.868-6.75-4.726 0-9.08 2.388-11.649 6.387a4.716 4.716 0 0 1-5.053 2.045 7.908 7.908 0 0 0-1.794-.216c-4.288 0-7.782 3.462-7.834 7.738a4.723 4.723 0 0 1-3.177 4.831c-.467.16-.926.354-1.366.576a4.722 4.722 0 0 1-5.919-1.392c-1.723-2.312-4.35-3.639-7.207-3.639-4.959 0-8.995 4.035-8.995 8.995 0 .402.039.838.122 1.374a4.724 4.724 0 0 1-2.347 4.836 13.033 13.033 0 0 0-4.139 3.688 4.722 4.722 0 0 1-5.326 1.684 8.986 8.986 0 0 0-2.885-.484Z" class="cls-10"/>
  <path d="M1714.779 865.664c52.197 20.339 87.461 60.347 86.702 105.793M1601.476 866.072c-52.848 18.584-89.428 57.392-90.187 102.838" class="cls-3"/>
  <path d="m1519.584 993.88 85.842-18.729 45.263 84.282h40.58l60.87-73.357 87.403 31.216-10.925 95.207 37.458 24.972 92.086-32.776 49.944 67.113-54.627 74.917 17.169 54.627 92.085 20.29 6.243 80.834-85.842 29.981-15.608 54.627 67.113 70.235-35.897 70.234-95.207-20.29-39.02 40.58 14.047 90.525-73.356 42.141-65.552-70.235-51.506 7.804-31.215 88.964h-90.525l-18.729-96.768-42.141-23.412-79.599 56.188-68.674-62.431 34.337-87.403-21.851-35.897-101.45 6.243-24.972-76.478 78.038-62.431 4.682-34.2-82.72-56.325 20.29-88.964h87.403l21.85-39.019-42.89-80.246 61.62-68.027 85.842 49.945 34.337-20.29 7.804-93.647z" class="cls-5"/>
  <circle cx="1656.151" cy="1391.096" r="237.204" class="cls-5"/>
  <circle cx="1653.071" cy="1389.922" r="304.72" style="fill:#fff"/>
  <text style="fill:#182949;font-family:PTSans-Regular,&quot;PT Sans&quot;;font-size:137.476px" transform="translate(1435.223 1432.833)"><tspan x="0" y="0" class="cls-13">T</tspan><tspan x="83.172" y="0" style="letter-spacing:.024em">R</tspan><tspan x="168.271" y="0" class="cls-13">AI</tspan><tspan x="302.443" y="0" style="letter-spacing:.03em">L</tspan><tspan x="377.645" y="0" style="letter-spacing:.05em">s</tspan></text>
  <path d="M899.299 2249.969c0-34.227 27.301-64.024 67.601-79.455M1052.042 2169.309c40.612 15.048 68.388 45.519 68.388 80.66" class="cls-6"/>
  <path d="M1059.602 2076.108c.885-12.984-.885-26.853-10.918-36.001-10.623-9.738-28.919-10.918-42.493-10.918-12.689 0-30.984.295-40.722 9.738-8.853 8.558-10.033 24.197-11.213 36.591-16.525 5.017-18.591 37.476-1.475 37.476 1.18 18.591.59 32.062 8.853 48.587 8.853 17.41 27.443 27.148 46.329 27.443 19.181.295 38.067-6.787 46.624-24.788 8.853-18.001 8.509-25.917 6.787-44.75 8.558-4.131 15.05-10.033 13.279-20.951-1.18-9.148-6.787-18.591-15.05-22.427ZM1187.853 2249.969c0-34.227 27.301-64.024 67.601-79.455M1340.596 2169.309c40.612 15.048 68.388 45.519 68.388 80.66" class="cls-6"/>
  <path d="M1348.156 2076.108c.885-12.984-.885-26.853-10.918-36.001-10.623-9.738-28.919-10.918-42.493-10.918-12.689 0-30.984.295-40.722 9.738-8.853 8.558-10.033 24.197-11.213 36.591-16.525 5.017-18.591 37.476-1.475 37.476 1.18 18.591.59 32.062 8.853 48.587 8.853 17.41 27.443 27.148 46.329 27.443 19.181.295 38.067-6.787 46.624-24.788 8.853-18.001 8.509-25.917 6.787-44.75 8.558-4.131 15.05-10.033 13.279-20.951-1.18-9.148-6.787-18.591-15.05-22.427ZM1044.345 2030.564c0-34.227 27.301-64.024 67.601-79.455M1197.088 1949.904c40.612 15.048 68.388 45.519 68.388 80.66" class="cls-6"/>
  <path d="M1204.648 1856.704c.885-12.984-.885-26.853-10.918-36.001-10.623-9.738-28.919-10.918-42.493-10.918-12.689 0-30.984.295-40.722 9.738-8.853 8.558-10.033 24.197-11.213 36.591-16.525 5.017-18.591 37.476-1.475 37.476 1.18 18.591.59 32.062 8.853 48.587 8.853 17.41 27.443 27.148 46.329 27.443 19.181.295 38.067-6.787 46.624-24.788 8.853-18.001 8.509-25.917 6.787-44.75 8.558-4.131 15.05-10.033 13.279-20.951-1.18-9.148-6.787-18.591-15.05-22.427Z" class="cls-6"/>
  <circle cx="1847.939" cy="2237.801" r="225.306" class="cls-3"/>
  <path d="m1639.415 2333.819-162.738 117.299 26.182 36.324 162.738-117.299" class="cls-3"/>
  <circle cx="1847.939" cy="2237.801" r="199.818" class="cls-3"/>
  <path d="M1710.356 2243.331h65.385v63.689h-65.385zM1806.816 2171.767h65.385v135.252h-65.385zM1904.155 2122.732h65.385v184.287h-65.385zM1973.521 2346.103h-263.165" class="cls-6"/>
  <path d="M628.393 1038.765h143.961c2.75 0 5 2.25 5 5v279.641c0 2.75-2.25 5-5 5H546.456c-2.75 0-5-2.25-5-5v-279.641c0-2.75 2.25-5 5-5h81.937Z" class="cls-3"/>
  <path d="M796.877 1330.401c0 18.15-14.85 33-33 33H554.933c-18.15 0-33-14.85-33-33v-285.188c0-18.15 14.85-33 33-33h208.944c18.15 0 33 14.85 33 33v285.188Z" class="cls-3"/>
  <path d="M570.655 1081.605h177.666M570.655 1121.323h177.666M570.655 1165.006h177.666M570.488 1210.607h177.666M570.488 1250.325h177.666M570.488 1294.008h177.666" class="cls-6"/>
  <path d="M985.657 1336.406h143.961c2.75 0 5 2.25 5 5v279.641c0 2.75-2.25 5-5 5H903.72c-2.75 0-5-2.25-5-5v-279.641c0-2.75 2.25-5 5-5h81.937Z" class="cls-3"/>
  <path d="M1154.141 1628.042c0 18.15-14.85 33-33 33H912.197c-18.15 0-33-14.85-33-33v-285.188c0-18.15 14.85-33 33-33h208.944c18.15 0 33 14.85 33 33v285.188Z" class="cls-3"/>
  <path d="M927.92 1379.246h177.666M927.92 1418.964h177.666M927.92 1462.647h177.666M927.753 1508.248h177.666M927.753 1547.966h177.666M927.753 1591.649h177.666" class="cls-6"/>
  <path d="M909.905 1159.297h121.592v125.838" class="cls-3"/>
  <path d="m940.123 1073.46-95.108 87.32.151.011-.151-.007 87.259 95.103a2.843 2.843 0 0 0 4.316-3.699l-83.684-90.933 91.062-83.607a2.826 2.826 0 0 0 .915-1.924 2.842 2.842 0 0 0-4.76-2.263Z" class="cls-8"/>
  <path d="M663.544 1464.663v121.592h125.838" class="cls-3"/>
  <path d="m577.706 1494.881 87.32-95.108.011.151-.007-.151 95.103 87.259a2.843 2.843 0 0 1-3.699 4.316l-90.933-83.684-83.607 91.062a2.826 2.826 0 0 1-1.924.915 2.842 2.842 0 0 1-2.263-4.76Z" class="cls-8"/>
  <path d="M2190.059 1174.95V987.476c0-2.75 2.25-5 5-5h494.12c2.75 0 5 2.25 5 5v297.199c0 2.75-2.25 5-5 5h-494.12c-2.75 0-5-2.25-5-5V1174.95Z" class="cls-3"/>
  <path d="M2679.449 922.12c18.15 0 33 14.85 33 33v359.703c0 18.15-14.85 33-33 33h-477.754c-18.15 0-33-14.85-33-33V955.12c0-18.15 14.85-33 33-33h477.754Z" class="cls-3"/>
  <path d="M2479.513 1195.685h43.817v63.689h-43.817zM2544.155 1124.122h43.817v135.252h-43.817zM2609.385 1075.086h43.817v184.287h-43.817zM2346.745 1199.623h43.817v63.689h-43.817zM2411.387 1145.031h43.817v118.28h-43.817z" class="cls-6"/>
  <circle cx="2282.281" cy="1075.086" r="69.945" class="cls-6"/>
  <path d="M2282.281 1005.142v69.944h69.945M2282.281 1145.031v-69.945h-69.945" class="cls-6"/>
  <path d="m2331.739 1025.628-49.458 49.458 49.458 49.459M2232.822 1124.545l49.459-49.459-49.459-49.458M2312.549 1195.685l120.747-123.054 65.394 74.957 132.604-135.375" class="cls-6"/>
  <path d="M2247.305 1856.334v-197.078c0-2.75 2.25-5 5-5h225.898c2.75 0 5 2.25 5 5v236.878M2276.505 1700.812h177.665M2276.505 1740.53h177.665M2276.505 1784.213h177.665M2276.338 1829.814h177.665M2283.109 1869.532h170.894" class="cls-3"/>
  <path d="m2348.634 1653.692 30.547-88.096 3.276-9.448 1.624-4.685c.901-2.598 3.764-3.987 6.362-3.086l7.784 2.699 9.448 3.276 60.183 20.868 9.448 3.276 126.568 43.887c2.598.901 3.987 3.764 3.086 6.362l-91.614 264.208c-.901 2.598-3.764 3.987-6.362 3.086l-25.781-8.94M2399.273 1596.782l167.86 58.205M2483.815 1668.135l70.306 24.379M2386.261 1634.308l57.53 19.949M2483.815 1714.37l55.995 19.416M2483.203 1762.422l41.51 14.393M2483.815 1804.672l27.885 9.67M2483.236 1850.706l14.153 4.908M2175.089 1861.79l-31.605-73.865-3.934-9.194-35.846-83.776-3.934-9.194-1.95-4.558c-1.082-2.528.102-5.482 2.63-6.564l7.574-3.241 9.194-3.934 58.563-25.058 9.194-3.934 123.16-52.697c2.528-1.082 5.482.102 6.564 2.63l28.176 65.852M2139.551 1704.505l163.341-69.89M2155.175 1741.021l92.13-39.42M2172.359 1781.182l74.946-32.067M2190.144 1823.172l57.161-24.458M2205.769 1859.688l41.536-17.772" class="cls-3"/>
  <path d="M2511.301 2151.241h-327.397c-12.798 0-23.173-10.375-23.173-23.173v-244.845c0-12.798 10.375-23.173 23.173-23.173h92.846l26.168 39.024h208.384c12.798 0 23.173 10.375 23.173 23.173v205.821c0 12.798-10.375 23.173-23.173 23.173Z" class="cls-6"/>
  <path d="M2276.671 2066.856h137.043c2.75 0 5 2.25 5 5v38.235c0 2.75-2.25 5-5 5h-214.562c-2.75 0-5-2.25-5-5v-41.989c0-.685 2.25-1.246 5-1.246h77.519ZM2216.639 2090.37h177.665" class="cls-3"/>
</svg>
