<svg xmlns="http://www.w3.org/2000/svg" id="Ziele" viewBox="0 0 2762.955 2606.4">
  <defs>
    <style>
      .cls-2,.cls-3,.cls-4,.cls-5,.cls-7{fill:none;stroke-miterlimit:10}.cls-2,.cls-3,.cls-4,.cls-7{stroke-linecap:round}.cls-2,.cls-5{stroke:#102a51}.cls-2,.cls-4,.cls-5{stroke-width:5px}.cls-3,.cls-7{stroke-width:6px}.cls-4{stroke:#182949}.cls-12{font-family:PTSans-Regular,&quot;PT Sans&quot;;fill:#182949;font-size:60.781px}.cls-14{fill:#0084ff}.cls-16{fill:#102a51}.cls-17{fill:#3584f6}.cls-3,.cls-7{stroke:#0084ff}.cls-3{stroke-dasharray:12.07 12.07}.cls-18{letter-spacing:0}.cls-20{letter-spacing:-.08em}.cls-26{letter-spacing:-.016em}.cls-31{letter-spacing:-.035em}.cls-36{letter-spacing:-.011em}.cls-40{letter-spacing:.02em}
    </style>
  </defs>
  <circle cx="1382.587" cy="1306.685" r="1252.503" style="fill:#eeeae0"/>
  <circle cx="1382.587" cy="1306.685" r="888.665" style="fill:#e7c6ac"/>
  <circle cx="1382.587" cy="1306.685" r="337.452" style="fill:#fff"/>
  <text style="font-family:PTSans-Bold,&quot;PT Sans&quot;;font-weight:700;fill:#182949;font-size:60.781px" transform="translate(1244.772 1275.882)"><tspan class="cls-40"><tspan x="0" y="0">ZIELE DES</tspan></tspan><tspan x="-65.676" y="77" class="cls-31">K</tspan><tspan x="-30.118" y="77" class="cls-40">ONSO</tspan><tspan x="128.338" y="77" style="letter-spacing:-.029em">R</tspan><tspan x="163.165" y="77" style="letter-spacing:.02em">TIUMS</tspan></text>
  <path d="m1716.473 1071.574-193.9.047.156-.165-.159.161-.11-193.832a4.27 4.27 0 0 1 8.532-.293l-.173 185.589 185.653-.044a4.249 4.249 0 0 1 2.967 1.198 4.269 4.269 0 0 1-2.965 7.338ZM1717.473 1539.058l-193.9-.047.156.165-.159-.161-.11 193.832a4.27 4.27 0 0 0 8.532.293l-.173-185.589 185.653.044a4.249 4.249 0 0 0 2.967-1.198 4.269 4.269 0 0 0-2.965-7.338ZM1798.17 1446.786l-134.751-139.426.227-.002-.227-.002 139.333-134.749a4.27 4.27 0 0 1 7.338 2.966 4.247 4.247 0 0 1-1.2 2.966l-133.601 128.819 129.019 133.496a4.247 4.247 0 0 1 1.2 2.966 4.27 4.27 0 0 1-7.338 2.966ZM966.131 1446.786l134.751-139.426-.227-.002.227-.002-139.333-134.749a4.27 4.27 0 0 0-7.338 2.966c0 1.068.398 2.139 1.2 2.966l133.601 128.819-129.019 133.496a4.247 4.247 0 0 0-1.2 2.966 4.27 4.27 0 0 0 7.338 2.966ZM1052.708 1539.613l193.9-.047-.156.165.159-.161.11 193.832a4.27 4.27 0 0 1-8.532.293l.173-185.589-185.653.044a4.249 4.249 0 0 1-2.967-1.198 4.269 4.269 0 0 1 2.965-7.338ZM1052.708 1072.092l193.9.047-.156-.165.159.161.11-193.832a4.27 4.27 0 0 0-8.532-.293l.173 185.589-185.653-.044a4.249 4.249 0 0 0-2.967 1.198 4.269 4.269 0 0 0 2.965 7.338Z" class="cls-17"/>
  <text class="cls-12" transform="translate(780.682 1714.468)"><tspan x="0" y="0">Förderung der</tspan><tspan x="48.746" y="72.938" class="cls-31">P</tspan><tspan x="80.596" y="72.938">r</tspan><tspan x="101.261" y="72.938" style="letter-spacing:-.012em">o</tspan><tspan x="133.11" y="72.938" class="cls-36">f</tspan><tspan x="151.831" y="72.938">essiona</tspan><tspan x="346.146" y="72.938" class="cls-20">-</tspan><tspan x="10.76" y="145.875">lisierung und </tspan><tspan x="37.443" y="218.812">Qualisierung</tspan></text>
  <text class="cls-12" transform="translate(739.77 1248.814)"><tspan x="0" y="0">Brei</tspan><tspan x="103.327" y="0" class="cls-36">t</tspan><tspan x="123.264" y="0" class="cls-18">es </tspan><tspan x="-228.047" y="72.938" style="letter-spacing:-.015em">Diens</tspan><tspan x="-86.854" y="72.938" style="letter-spacing:-.026em">t</tspan><tspan x="-67.829" y="72.938" style="letter-spacing:-.015em">e-Angebot</tspan><tspan x="-188.176" y="145.875">für </tspan><tspan x="-99.133" y="145.875" class="cls-31">C</tspan><tspan x="-66.554" y="145.875">ommunit</tspan><tspan x="167.634" y="145.875" style="letter-spacing:-.036em">y</tspan></text>
  <text class="cls-12" transform="translate(1618.912 1714.468)"><tspan x="0" y="0">Da</tspan><tspan x="69.897" y="0" class="cls-36">t</tspan><tspan x="89.834" y="0" class="cls-18">engeschüt</tspan><tspan x="357.085" y="0" class="cls-26">z</tspan><tspan x="383.281" y="0">e </tspan><tspan x="0" y="72.938" style="letter-spacing:-.058em">V</tspan><tspan x="30.998" y="72.938">ernetzung der </tspan><tspan x="0" y="145.875">Wissenscha</tspan><tspan x="298.31" y="145.875" class="cls-26">f</tspan><tspan x="316.726" y="145.875">t</tspan></text>
  <text class="cls-12" transform="translate(1618.912 798.1)"><tspan x="0" y="0">In</tspan><tspan x="50.934" y="0" class="cls-36">te</tspan><tspan x="101.079" y="0">gration </tspan><tspan x="0" y="72.938">und Migration </tspan><tspan x="0" y="145.875" style="letter-spacing:-.011em">v</tspan><tspan x="28.629" y="145.875">on</tspan><tspan x="94.454" y="145.875" style="letter-spacing:-.032em"> </tspan><tspan x="108.738" y="145.875" class="cls-18">Altda</tspan><tspan x="245.493" y="145.875" class="cls-36">t</tspan><tspan x="265.43" y="145.875" class="cls-18">en</tspan></text>
  <text class="cls-12" transform="translate(1828.798 1286.531)"><tspan x="0" y="0" style="letter-spacing:-.02em">L</tspan><tspan x="30.209" y="0">ang</tspan><tspan x="126.241" y="0" style="letter-spacing:-.016em">z</tspan><tspan x="152.438" y="0" class="cls-18">ei</tspan><tspan x="199.604" y="0" style="letter-spacing:-.032em">t</tspan><tspan x="218.263" y="0" class="cls-20">-</tspan><tspan style="letter-spacing:-.01em"><tspan x="0" y="72.938">archivierung</tspan></tspan></text>
  <text class="cls-12" transform="translate(782.231 798.099)"><tspan x="0" y="0">Bereits</tspan><tspan x="180.396" y="0" class="cls-36">t</tspan><tspan x="200.333" y="0" class="cls-18">ellung</tspan><tspan x="25.709" y="72.938">FAI</tspan><tspan x="110.376" y="72.938" style="letter-spacing:-.048em">R</tspan><tspan x="143.623" y="72.938">er Da</tspan><tspan x="281.291" y="72.938" class="cls-36">t</tspan><tspan x="301.228" y="72.938" class="cls-18">en</tspan><tspan x="122.106" y="145.875" style="letter-spacing:-.036em">(</tspan><tspan x="136.938" y="145.875">-diens</tspan><tspan x="297.519" y="145.875" class="cls-36">t</tspan><tspan x="317.455" y="145.875">e)</tspan></text>
  <path d="M2031.253 2316.818c5.235 2.819 14.094 12.483 6.04 21.745-8.054 9.262-30.201 9.664-57.584 15.705-27.382 6.04-35.033 15.302-53.154 17.606-18.121 2.304-71.678 6.153-98.657-7.136-26.98-13.289-6.846-31.812-2.819-38.658s3.624-13.691 4.43-18.523l10.47-14.094c4.465-32.65 42.282-92.617 107.114-85.369 64.832 7.248 93.423 77.315 86.98 101.073l-2.819 7.651Z" style="fill:none"/>
  <path d="M2031.253 2316.818c5.235 2.819 14.094 12.483 6.04 21.745-8.054 9.262-30.201 9.664-57.584 15.705-27.382 6.04-35.033 15.302-53.154 17.606-18.121 2.304-71.678 6.153-98.657-7.136-26.98-13.289-6.846-31.812-2.819-38.658s3.624-13.691 4.43-18.523c.805-4.832 10.47-14.094 10.47-14.094s-6.443 29.351 10.067 39.44c16.51 10.09 69.664 21.365 105.906 15.727 36.241-5.638 71.678-15.705 78.121-39.463 6.443-23.758-22.148-93.825-86.98-101.073-64.832-7.248-102.649 52.719-107.114 85.369" class="cls-5"/>
  <path d="M1987.847 2222.87s-52.382 34.784-45.385 127.078M1941.819 2207.649s-47.785 22.26-47.005 75.343" class="cls-5"/>
  <path d="M2178.979 1958.582s18.412-63.447 142.702-61.18v206.205s-89.765 2.267-142.702 43.054v-188.079ZM2175.871 1958.582s-18.412-63.447-142.703-61.18v206.205s89.765 2.267 142.703 43.054v-188.079Z" class="cls-4"/>
  <path d="M2032.265 1919.287a455.165 455.165 0 0 0-13.926 0v201.612s99.094-10.958 157.532 26.342M2322.585 1919.287c4.502-.071 9.143-.071 13.926 0v201.612s-99.094-10.958-157.532 26.342" class="cls-4"/>
  <path d="M2017.795 1942.466h-14.287v207.077h348.821v-207.077h-13.296" class="cls-4"/>
  <path d="M2044.206 2066.015s75.982 2.259 120.791 42.947M2044.206 2022.918s75.982 2.259 120.791 42.947M2044.206 1978.938s75.982 2.259 120.791 42.947M2044.206 1934.959s75.982 2.259 120.791 42.947M2311.797 2065.613s-75.982 2.259-120.791 42.947M2311.797 2022.516s-75.982 2.259-120.791 42.947M2311.797 1978.536s-75.982 2.259-120.791 42.947M2311.797 1934.556s-75.982 2.259-120.791 42.947" class="cls-4"/>
  <circle cx="1689.244" cy="2070.256" r="92.126" class="cls-5"/>
  <path d="M1631.245 2136.308c0-18.951 15.117-35.45 37.43-43.994M1715.817 2091.647c22.486 8.332 37.866 25.204 37.866 44.661" class="cls-2"/>
  <path d="M1720.003 2040.043c.49-7.189-.49-14.868-6.045-19.933-5.882-5.392-16.012-6.045-23.528-6.045-7.026 0-17.156.163-22.548 5.392-4.902 4.738-5.555 13.398-6.209 20.26-9.15 2.778-10.293 20.75-.817 20.75.654 10.293.327 17.752 4.902 26.902 4.902 9.64 15.195 15.032 25.652 15.195 10.62.163 21.077-3.758 25.815-13.725 4.902-9.967 4.711-14.35 3.758-24.778 4.738-2.287 8.333-5.555 7.352-11.601-.654-5.065-3.758-10.293-8.333-12.418ZM1603.98 2109.517l-87.534 63.093 10.706 14.852 87.534-63.093" class="cls-2"/>
  <path d="m1797.268 2039.493 190.579-16.575M2159.146 2176.91l-114.94 89.752M1818.137 2277.938l-83.387-105.865" class="cls-7"/>
  <path d="m606.672 2080.545-51.93-24.915 111.461-53.478 111.462 53.478-52.858 25.36" class="cls-4"/>
  <path d="M724.807 2095.787s-56.465-22.383-118.135 0v-42.921s64.011-26.075 118.135 0v42.921Z" class="cls-4"/>
  <path d="M554.742 2055.63v67.4M547.514 2144.444h15.208v-32.588c0-7.725-15.208-7.725-15.208 0v32.588Z" class="cls-7"/>
  <path d="M556.69 2284.423c0-25.288 14.804-48.173 38.72-64.703M735.899 2215.677c26.595 16.73 43.394 41.326 43.394 68.745" class="cls-4"/>
  <circle cx="642.713" cy="2143.679" r="4.077" class="cls-16"/>
  <circle cx="682.498" cy="2143.679" r="4.077" class="cls-16"/>
  <path d="M723.549 2095.251c-55.474-19.484-106.361-3.128-115.201.03-6.829 20.886-8.366 60.051-6.294 94.134.428 7.036-6.847 23.015-5.936 28.938 3.71 24.115 25.067 67.758 68.589 68.664 45.699 0 67.941-40.839 71.28-74.6.352-3.557-5.015-22.525-4.823-26.341 1.638-32.55-.573-68.243-7.616-90.824Zm-11.018 102.841c-8.569 18.026-27.482 25.118-46.689 24.822-18.912-.296-37.529-10.047-46.394-27.482-8.274-16.548-10.569-61.422 3.529-78.735 14.098-17.314 28.385-18.921 41.092-18.921 13.593 0 29.752 1.953 40.39 11.704 19.184 16.276 16.937 70.586 8.072 88.612Z" style="stroke:#182949;stroke-width:6px;stroke-linecap:round;stroke-miterlimit:10;fill:#13294b"/>
  <path d="m1124.241 2121.732 56.559-27.136-111.462-53.478-111.461 53.478 62.273 29.878" class="cls-4"/>
  <path d="M1020.15 2134.752s49.753-22.383 104.091 0v-42.921s-56.402-26.075-104.091 0v42.921Z" class="cls-4"/>
  <path d="M1180.8 2094.596v67.4M1188.028 2183.409h-15.208v-32.588c0-7.725 15.208-7.725 15.208 0v32.588Z" class="cls-7"/>
  <path d="M1116.817 2245.443c40.477 14.998 68.161 45.369 68.161 80.393" class="cls-4"/>
  <circle cx="1049.752" cy="2183.696" r="4.037" class="cls-16"/>
  <circle cx="1092.977" cy="2183.696" r="4.037" class="cls-16"/>
  <path d="M1073.76 2236.498c-4.719 0-9.487-.805-13.421-2.399a3.143 3.143 0 0 1-1.734-4.094 3.147 3.147 0 0 1 4.095-1.735c5.969 2.417 14.637 2.607 20.614.442a3.14 3.14 0 0 1 4.028 1.889 3.144 3.144 0 0 1-1.887 4.026c-3.46 1.25-7.558 1.871-11.695 1.871Z" class="cls-16"/>
  <circle cx="1049.145" cy="2184.481" r="17.286" class="cls-4"/>
  <circle cx="1093.725" cy="2184.481" r="17.286" class="cls-4"/>
  <path d="m1110.342 2178.14 11.118-8.445M1032.957 2177.119l-12.17-8.759" class="cls-4"/>
  <path d="M1121.155 2133.556c-45.822-17.523-87.721-3.941-98.376.133-11.026 18.654-15.952 47.246-16.179 59.523-.321 17.312 15.388 28.853 15.388 28.853l-1.603-53.539s28.314-11.663 42.089-21.03c13.775-9.367 18.183-14.326 18.183-14.326s21.489 25.897 44.08 36.366l-.801 50.285s16.35-8.015 14.427-39.753c-1.097-18.093-8.48-34.542-17.207-46.512Z" style="stroke:#102a51;stroke-linejoin:round;stroke-width:3px;fill:#13294b"/>
  <path d="M1030.059 2131.209c-13.785 17.495-11.504 90.195-3.343 106.518 8.777 17.262 27.209 26.917 45.934 27.209 19.017.293 37.742-6.729 46.227-24.576 7.764-15.787 10.389-82.167-2.252-108.442-36.837-12.546-70.508-5.623-86.566-.709ZM1029.528 2247.215c-40.477 14.998-68.161 45.369-68.161 80.393" class="cls-4"/>
  <circle cx="834.12" cy="2204.099" r="4.039" class="cls-16"/>
  <circle cx="873.536" cy="2204.099" r="4.039" class="cls-16"/>
  <path d="M841.544 2247.93c2.27-1.548 4.595 1.721 6.699 2.652 3.923 1.733 6.841 1.591 11.226.358 2.973-.839 12.96-8.636 12.398 2.64-.555 11.103-15.433 13.447-19.233 13.04-4.885-.53-13.866-4.299-13.49-13.478.086-2.085 1.487-4.589 2.4-5.212Z" class="cls-4"/>
  <path d="M799.116 2169.829c-10.2 4.67-14.857 18.005-13.28 28.627 1.163 7.831 5.553 13.137 11.769 14.54.093 1.659.177 3.279.259 4.865.754 14.624 1.405 27.253 8.775 41.994 9.032 17.761 27.944 29.003 49.358 29.338.417.006.832.009 1.245.009 22.79 0 40.446-9.718 48.539-26.741 8.827-17.948 8.894-26.555 7.344-44.103 5.524-2.944 15.221-9.661 13.001-23.53-1.31-10.015-7.15-19.308-14.85-23.939M759.297 2323.893c5.776-24.619 25.417-43.518 52.476-54.147M906.305 2266.664c29.064 11.935 49.823 33.295 54.512 60.311M908.939 2158.505l59.858-28.719-111.461-53.478-111.462 53.478 55.691 26.719" class="cls-4"/>
  <path d="M803.13 2169.942s50.074-22.383 104.763 0v-42.921s-56.766-26.075-104.763 0v42.921Z" class="cls-4"/>
  <path d="M968.797 2129.786v67.4" style="stroke:#0084ff;stroke-width:5px;stroke-linecap:round;stroke-miterlimit:10;fill:#13294b"/>
  <path d="M976.025 2218.599h-15.208v-32.588c0-7.725 15.208-7.725 15.208 0v32.588Z" style="stroke:#0084ff;stroke-width:5px;stroke-linecap:round;stroke-miterlimit:10;fill:none"/>
  <path d="M648.666 2178.557c3.675.69 7.835 3.461 10.649 4.57 5.265 1.937 8.814 2.49 15.059 0 3.795-1.385 16.792-10.698 16.039-1.799-.744 8.761-16.284 14.538-23.753 13.985-6.547-.419-22.417-6.325-21.914-13.571.116-1.644 1.595-3.737 3.92-3.185ZM2104.602 1527.062h73.635M2441.806 1527.062h210.888" class="cls-4"/>
  <path d="M2506.775 1383.44H2355.26c-5.923 0-10.724-4.801-10.724-10.724v-113.311c0-5.923 4.801-10.724 10.724-10.724h42.968l12.11 18.06h96.437c5.923 0 10.724 4.801 10.724 10.724v95.251c0 5.923-4.801 10.724-10.724 10.724Z" class="cls-7"/>
  <path d="M2365.52 1238.422c0-5.923 4.801-10.724 10.724-10.724h42.968l12.11 18.06h96.437c5.923 0 10.724 4.801 10.724 10.724v95.251c0 5.923-4.801 10.724-10.724 10.724" class="cls-7"/>
  <path d="M2386.503 1217.914c0-5.923 4.801-10.724 10.724-10.724h42.968l12.11 18.06h96.437c5.923 0 10.724 4.801 10.724 10.724v95.251c0 5.923-4.801 10.724-10.724 10.724" class="cls-7"/>
  <path d="M2407.486 1196.931c0-5.923 4.801-10.724 10.724-10.724h42.968l12.11 18.06h96.437c5.923 0 10.724 4.801 10.724 10.724v95.251c0 5.923-4.801 10.724-10.724 10.724" class="cls-7"/>
  <path d="m2485.559 1170.766 8.712 12.993h96.437c5.923 0 10.724 4.801 10.724 10.724v95.251c0 5.923-4.801 10.724-10.724 10.724M2428.469 1176.423c0-1.916.502-3.714 1.382-5.27M2621.934 1170.314c.313 1.007.481 2.077.481 3.186v95.251c0 5.923-4.801 10.724-10.724 10.724" class="cls-7"/>
  <path d="m2184.732 1584.659-15.393-136.516c0-31.26 28.651-56.837 63.67-56.837h152.493c35.018 0 63.67 25.577 63.67 56.837l-15.393 136.516" class="cls-4"/>
  <path d="M2450.341 1433.354h179.429c2.75 0 5-2.25 5-5v-253.449c0-2.75-2.25-5-5-5h-405.507c-2.75 0-5 2.25-5 5v216.401" class="cls-4"/>
  <path d="M2447.73 1470.214h172.724c18.15 0 33-14.85 33-33v-272.391c0-18.15-14.85-33-33-33h-386.39c-18.15 0-33 12.144-33 26.987v240.222" class="cls-4"/>
  <path d="M2378.804 1391.306c-.024-41.871-6.145-83.348-20.147-95.226-13.672-12.533-34.439-15.042-51.908-15.042-16.33 0-34.691 2.066-52.81 24.317-9.814 12.053-13.672 48.846-13.334 85.951h138.199Z" style="stroke-linejoin:round;stroke-width:3px;fill:#13294b;stroke:#13294b"/>
  <path d="M218.521 1077.803h185.446c2.75 0 5 2.25 5 5v363.106c0 2.75-2.25 5-5 5H110.091c-2.75 0-5-2.25-5-5v-363.106c0-2.75 2.25-5 5-5h108.43Z" class="cls-4"/>
  <path d="M434.116 1462.99c0 18.15-14.85 33-33 33H112.942c-18.15 0-33-14.85-33-33V1076.6c0-18.15 14.85-33 33-33h288.175c18.15 0 33 14.85 33 33v386.39Z" class="cls-4"/>
  <circle cx="369.683" cy="1127.072" r="17.864" class="cls-14"/>
  <circle cx="150.473" cy="1408.98" r="17.864" class="cls-14"/>
  <path d="M150.473 1377.318v-82.904M344.462 1127.072h-51.454" class="cls-4"/>
  <circle cx="369.683" cy="1408.98" r="17.864" class="cls-14"/>
  <circle cx="261.308" cy="1127.072" r="17.864" class="cls-14"/>
  <circle cx="150.473" cy="1127.072" r="17.864" class="cls-14"/>
  <path d="M229.847 1127.072h-51.454" class="cls-4"/>
  <circle cx="150.473" cy="1264.356" r="17.864" class="cls-14"/>
  <path d="M150.473 1234.169v-82.904M369.683 1377.383v-82.904" class="cls-4"/>
  <circle cx="369.683" cy="1264.421" r="17.864" class="cls-14"/>
  <path d="M369.683 1234.234v-82.904M343.226 1408.98h-51.453" class="cls-4"/>
  <circle cx="260.072" cy="1408.98" r="17.864" class="cls-14"/>
  <path d="M228.611 1408.98h-51.453" class="cls-4"/>
  <path d="M164.29 1350.808c0-13.03 10.394-24.374 25.736-30.248M222.439 1320.101c15.461 5.729 26.035 17.329 26.035 30.707" class="cls-2"/>
  <path d="M225.317 1284.619c.337-4.943-.337-10.223-4.157-13.705-4.044-3.707-11.009-4.157-16.177-4.157-4.831 0-11.796.112-15.503 3.707-3.37 3.258-3.82 9.212-4.269 13.93-6.291 1.91-7.077 14.267-.562 14.267.449 7.077.225 12.206 3.37 18.497 3.37 6.628 10.448 10.335 17.637 10.448 7.302.112 14.492-2.584 17.75-9.437 3.37-6.853 3.239-9.867 2.584-17.036 3.258-1.573 5.729-3.82 5.055-7.976-.449-3.483-2.584-7.077-5.729-8.538ZM274.142 1350.808c0-13.03 10.394-24.374 25.736-30.248M332.29 1320.101c15.461 5.729 26.035 17.329 26.035 30.707" class="cls-2"/>
  <path d="M335.169 1284.619c.337-4.943-.337-10.223-4.157-13.705-4.044-3.707-11.009-4.157-16.177-4.157-4.831 0-11.796.112-15.503 3.707-3.37 3.258-3.82 9.212-4.269 13.93-6.291 1.91-7.077 14.267-.562 14.267.449 7.077.225 12.206 3.37 18.497 3.37 6.628 10.448 10.335 17.637 10.448 7.302.112 14.492-2.584 17.75-9.437 3.37-6.853 3.239-9.867 2.584-17.036 3.258-1.573 5.729-3.82 5.055-7.976-.449-3.483-2.584-7.077-5.729-8.538ZM219.509 1267.281c0-13.03 10.394-24.374 25.736-30.248M277.657 1236.574c15.461 5.729 26.035 17.329 26.035 30.707" class="cls-2"/>
  <path d="M280.535 1201.093c.337-4.943-.337-10.223-4.157-13.705-4.044-3.707-11.009-4.157-16.177-4.157-4.831 0-11.796.112-15.503 3.707-3.37 3.258-3.82 9.212-4.269 13.93-6.291 1.91-7.077 14.267-.562 14.267.449 7.077.225 12.206 3.37 18.497 3.37 6.628 10.448 10.335 17.637 10.448 7.302.112 14.492-2.584 17.75-9.437 3.37-6.853 3.239-9.867 2.584-17.036 3.258-1.573 5.729-3.82 5.055-7.976-.449-3.483-2.584-7.077-5.729-8.538Z" class="cls-2"/>
  <path d="M1848.103 377.61v-9.342c0-2.75 2.25-5 5-5h405.507c2.75 0 5 2.25 5 5v265.737c0 2.75-2.25 5-5 5h-405.507c-2.75 0-5-2.25-5-5v-11.098" class="cls-4"/>
  <path d="M1829.903 379.901v-28.246c0-15.535 14.85-28.246 33-28.246h386.39c18.15 0 33 14.85 33 33v288.175c0 18.15-14.85 33-33 33h-386.39c-18.15 0-33-12.103-33-26.895v-26.895M1718.17 380.506h71.866v239.981h-71.866z" class="cls-4"/>
  <circle cx="1754.736" cy="577.963" r="17.246" class="cls-4"/>
  <path d="M1736.137 402.835h35.933v119.991h-35.933zM1715.511 620.488l-33.128-36.09V412.39l33.128-31.884M1745.565 488.085h16.765M1745.565 469.324h16.765M1745.565 451.332h16.765M1813.051 380.506h71.866v239.981h-71.866z" class="cls-4"/>
  <circle cx="1849.617" cy="577.963" r="17.246" class="cls-4"/>
  <path d="M1831.017 402.835h35.933v119.991h-35.933zM1810.391 620.488l-20.355-22.176V400.097l20.355-19.591M1840.446 488.085h16.765M1840.446 469.324h16.765M1840.446 451.332h16.765M1907.931 380.506h71.866v239.981h-71.866z" class="cls-4"/>
  <circle cx="1944.498" cy="577.963" r="17.246" class="cls-4"/>
  <path d="M1925.898 402.835h35.933v119.991h-35.933zM1905.272 620.488l-20.355-22.176V400.097l20.355-19.591M1935.327 488.085h16.764M1935.327 469.324h16.764M1935.327 451.332h16.764" class="cls-4"/>
  <path d="M1982.329 398.927h6" class="cls-7"/>
  <path d="M2000.399 398.927h211.221" class="cls-3"/>
  <path d="M2217.654 398.927h6M1982.329 438.646h6" class="cls-7"/>
  <path d="M2000.399 438.646h211.221" class="cls-3"/>
  <path d="M2217.654 438.646h6M1982.329 482.329h6" class="cls-7"/>
  <path d="M2000.399 482.329h211.221" class="cls-3"/>
  <path d="M2217.654 482.329h6M1982.102 527.929h6" class="cls-7"/>
  <path d="M2000.172 527.929h211.221" class="cls-3"/>
  <path d="M2217.428 527.929h6M1982.102 567.648h6" class="cls-7"/>
  <path d="M2000.172 567.648h211.221" class="cls-3"/>
  <path d="M2217.428 567.648h6M1982.102 611.331h6" class="cls-7"/>
  <path d="M2000.172 611.331h211.221" class="cls-3"/>
  <path d="M2217.428 611.331h6" class="cls-7"/>
  <rect width="303.876" height="373.106" x="725.375" y="252.541" class="cls-4" rx="5" ry="5"/>
  <rect width="354.175" height="452.39" x="700.226" y="218.337" class="cls-4" rx="33" ry="33"/>
  <path d="m819.435 524.421 95.262-103.32" class="cls-4"/>
  <path d="m945.025 514.838.272-129.114-.11.104.108-.106-129.068-.314a2.843 2.843 0 1 0-.206 5.68l123.58.115-.26 123.622a2.828 2.828 0 0 0 .794 1.977 2.843 2.843 0 0 0 4.89-1.965Z" class="cls-17"/>
  <path d="m761.18 357.75 45.903-71.356M807.083 357.75l-45.903-71.356M858.312 357.75l45.903-71.356M904.215 357.75l-45.903-71.356M761.18 487.223l45.903-71.356M807.083 487.223l-45.903-71.356M858.312 607.531l45.903-71.356M904.215 607.531l-45.903-71.356M949.506 607.531l45.903-71.356M995.409 607.531l-45.903-71.356" class="cls-4"/>
  <circle cx="784.132" cy="571.853" r="39.59" class="cls-4"/>
  <circle cx="972.457" cy="322.072" r="38.681" class="cls-4"/>
</svg>
