<svg xmlns="http://www.w3.org/2000/svg" id="TA7" viewBox="0 0 3200 3200">
  <defs>
    <style>
      .cls-6{letter-spacing:-.08em}
    </style>
  </defs>
  <path d="M2290.112 1275.294c0 381.144-308.977 690.104-690.104 690.104s-690.121-308.96-690.121-690.104 308.977-690.104 690.121-690.104 690.104 308.96 690.104 690.104" style="fill:#fff"/>
  <text style="font-size:150.823px;font-family:PTSans-Bold,&quot;PT Sans&quot;;font-weight:700;fill:#13294b" transform="translate(1195.624 2468.912)"><tspan x="0" y="0" style="letter-spacing:.008em">T</tspan><tspan x="86.873" y="0" style="letter-spacing:.094em">A</tspan><tspan x="192.298" y="0" style="letter-spacing:.073em">S</tspan><tspan x="283.245" y="0" style="letter-spacing:.019em">K</tspan><tspan x="379.62" y="0" style="letter-spacing:.02em"> </tspan><tspan x="420.793" y="0" style="letter-spacing:.08em">A</tspan><tspan x="524.107" y="0" style="letter-spacing:.072em">R</tspan><tspan x="625.76" y="0" style="letter-spacing:.088em">E</tspan><tspan x="717.761" y="0">A</tspan></text>
  <text style="font-size:150.823px;font-family:PTSans-Regular,&quot;PT Sans&quot;;fill:#13294b" transform="translate(680.648 2671.837)"><tspan x="0" y="0">S</tspan><tspan x="80.086" y="0" style="letter-spacing:-.02em">U</tspan><tspan x="175.405" y="0">PPORT</tspan><tspan x="620.628" y="0" class="cls-6"> </tspan><tspan x="648.832" y="0">&amp;</tspan><tspan x="771.602" y="0" class="cls-6"> </tspan><tspan x="799.805" y="0">C</tspan><tspan x="885.925" y="0" style="letter-spacing:-.02em">O</tspan><tspan x="986.071" y="0">ORDINATION</tspan></text>
  <path d="m1248.007 2141.922 351.823-340.029 358.943 333.269" style="fill:none;stroke-linecap:round;stroke-width:22px;stroke:#0084ff;stroke-miterlimit:10"/>
  <text style="font-family:PTSans-Regular,&quot;PT Sans&quot;;stroke:#0084ff;stroke-miterlimit:10;fill:#13294b;font-size:1241.399px" transform="translate(568.954 1706.076)"><tspan x="0" y="0" style="letter-spacing:-.014em">T</tspan><tspan x="671.588" y="0" style="letter-spacing:.016em">A</tspan><tspan x="1417.658" y="0">7</tspan></text>
</svg>
