<svg xmlns="http://www.w3.org/2000/svg" id="TA3" viewBox="0 0 3200 3200">
  <defs>
    <style>
      .cls-1{letter-spacing:.001em}
    </style>
  </defs>
  <path d="M2290.112 1275.294c0 381.144-308.977 690.104-690.104 690.104s-690.121-308.96-690.121-690.104 308.977-690.104 690.121-690.104 690.104 308.96 690.104 690.104" style="fill:#fff"/>
  <text style="font-size:150.823px;fill:#13294b;font-family:PTSans-Bold,&quot;PT Sans&quot;;font-weight:700" transform="translate(1195.624 2468.912)"><tspan x="0" y="0" style="letter-spacing:.008em">T</tspan><tspan x="86.873" y="0" style="letter-spacing:.094em">A</tspan><tspan x="192.298" y="0" style="letter-spacing:.073em">S</tspan><tspan x="283.245" y="0" style="letter-spacing:.019em">K</tspan><tspan x="379.62" y="0" style="letter-spacing:.02em"> </tspan><tspan x="420.793" y="0" style="letter-spacing:.08em">A</tspan><tspan x="524.107" y="0" style="letter-spacing:.072em">R</tspan><tspan x="625.76" y="0" style="letter-spacing:.088em">E</tspan><tspan x="717.761" y="0">A</tspan></text>
  <text style="font-family:PTSans-Regular,&quot;PT Sans&quot;;font-size:150.823px;fill:#13294b" transform="translate(665.983 2671.837)"><tspan x="0" y="0" style="letter-spacing:-.019em">A</tspan><tspan x="85.365" y="0" class="cls-1">NA</tspan><tspan x="275.399" y="0" style="letter-spacing:-.039em">L</tspan><tspan x="347.493" y="0" style="letter-spacing:.041em">Y</tspan><tspan x="437.835" y="0" class="cls-1">TIC</tspan><tspan x="652.001" y="0">S</tspan><tspan xml:space="preserve" x="732.087" y="0" style="letter-spacing:-.02em"> &amp;</tspan><tspan xml:space="preserve" x="889.093" y="0"> EXPERIMENTS</tspan></text>
  <path d="m1248.007 2141.922 351.823-340.029 358.943 333.269" style="fill:none;stroke:#0084ff;stroke-linecap:round;stroke-miterlimit:10;stroke-width:22px"/>
  <text style="font-family:PTSans-Regular,&quot;PT Sans&quot;;font-size:1241.399px;fill:#13294b" transform="translate(568.954 1706.076)"><tspan x="0" y="0" style="letter-spacing:-.014em">T</tspan><tspan x="671.588" y="0" style="letter-spacing:.016em">A</tspan><tspan x="1417.658" y="0">3</tspan></text>
</svg>
