<svg xmlns="http://www.w3.org/2000/svg" xmlns:xlink="http://www.w3.org/1999/xlink" viewBox="0 0 671.73 768"><defs><style>.cls-1{isolation:isolate;}.cls-2{fill:#005f8e;}.cls-12,.cls-3,.cls-5,.cls-6,.cls-8,.cls-9{opacity:0.44;}.cls-10,.cls-12,.cls-3,.cls-5,.cls-6,.cls-8,.cls-9{mix-blend-mode:multiply;}.cls-3{fill:url(#Unbenannter_Verlauf_418);}.cls-4{fill:url(#Unbenannter_Verlauf_150);}.cls-5{fill:url(#Unbenannter_Verlauf_418-2);}.cls-6{fill:url(#Unbenannter_Verlauf_418-3);}.cls-7{fill:url(#Unbenannter_Verlauf_151);}.cls-8{fill:url(#Unbenannter_Verlauf_86);}.cls-9{fill:url(#Unbenannter_Verlauf_418-4);}.cls-10{opacity:0.29;}.cls-11{fill:#fff;opacity:0.39;mix-blend-mode:overlay;}.cls-12{fill:url(#Unbenannter_Verlauf_418-5);}</style><linearGradient id="Unbenannter_Verlauf_418" x1="297.76" y1="164.46" x2="308.1" y2="255.97" gradientUnits="userSpaceOnUse"><stop offset="0" stop-color="#fff"/><stop offset="0.51"/></linearGradient><linearGradient id="Unbenannter_Verlauf_150" x1="60.66" y1="454.42" x2="556.39" y2="454.42" gradientUnits="userSpaceOnUse"><stop offset="0" stop-color="#072a54"/><stop offset="0.41" stop-color="#06335d"/><stop offset="0.61" stop-color="#053964"/><stop offset="0.85" stop-color="#024f7c"/><stop offset="1" stop-color="#005f8e"/></linearGradient><linearGradient id="Unbenannter_Verlauf_418-2" x1="516.54" y1="493.88" x2="498.75" y2="413.05" xlink:href="#Unbenannter_Verlauf_418"/><linearGradient id="Unbenannter_Verlauf_418-3" x1="484.98" y1="329.33" x2="511.51" y2="400.21" xlink:href="#Unbenannter_Verlauf_418"/><linearGradient id="Unbenannter_Verlauf_151" x1="186.85" y1="346.31" x2="610.27" y2="346.31" gradientUnits="userSpaceOnUse"><stop offset="0" stop-color="#005f8e"/><stop offset="1" stop-color="#072a54"/></linearGradient><linearGradient id="Unbenannter_Verlauf_86" x1="486.77" y1="275.41" x2="556.15" y2="275.41" gradientUnits="userSpaceOnUse"><stop offset="0" stop-color="#fff"/><stop offset="0.32"/></linearGradient><linearGradient id="Unbenannter_Verlauf_418-4" x1="249.41" y1="370.64" x2="224.64" y2="258.1" xlink:href="#Unbenannter_Verlauf_418"/><linearGradient id="Unbenannter_Verlauf_418-5" x1="367.74" y1="243.12" x2="436.99" y2="223.01" xlink:href="#Unbenannter_Verlauf_418"/></defs><title>nfdi4objects_logo_bildmarke_digital</title><g class="cls-1"><g id="RZ"><path class="cls-2" d="M545.69,389.38a1838,1838,0,0,0-82.26-236.92C450.81,123,437.11,92.22,415.26,68.22,389.52,40,351.84,39.29,325.25,67c-38.74,40.38-63.16,98.15-85.18,148.63-8.69,19.93-5.86,43.24,14.46,55.12,17.06,10,46.37,5.6,55.12-14.45,10.56-24.22,26.37-62,40.37-85.48,10.5-17.61,23.43-21.81,35.32,3,1.49,3.11,10.22,23.39,7.31,16.39,14.29,34.37,26.82,69.47,38.72,104.73,12.92,38.29,26,76.82,36.63,115.81,5.74,21,28.6,33.89,49.55,28.14s33.9-28.5,28.14-49.56Z"/><path class="cls-3" d="M241.74,211.79c30-11,60.66-16.44,95.91-17.78,5.27-10.64,14.39-29.22,21-34l-94.46,2C257.86,175,250.08,192.54,241.74,211.79Z"/><path class="cls-4" d="M394.73,195.31c-73.5-5.85-149.88,2.42-209.29,46.86-76.07,56.9-130.79,152.34-124.25,249.4,6.32,93.67,64.21,171.86,151.21,206,75.49,29.6,170.54,21.63,239.38-21.62,93.29-58.61,119-169.26,97.44-272-4.48-21.3-29.51-33.64-49.56-28.13C477.59,381.87,467,404,471.53,425.36c4.1,19.5,5.39,29.24,5.25,51.11-.31,38.06-9.37,73.46-33.39,101.48-29,29.92-59.72,47.92-102.47,54-59.74,6.82-103.92-3.39-142.79-35a152,152,0,0,1-56.7-113.57c-1.56-44.34,17-87.52,39-122.17,8.5-13.37,20.36-26.5,35-40,9.16-8.44,10.87-9.83,18.87-15.35s41.22-21.55,45.39-22.78a159,159,0,0,1,24.89-5.27c13-1.67,33.71-3,62-2.54a488.27,488.27,0,0,1,59.58,4.37C415.66,248.8,405,220.38,394.73,195.31Z"/><path class="cls-5" d="M476.54,460.49c27.12-8.27,52.5-18.34,76.74-33.16,3.62,26.58,4.44,53.52.9,80.35l-82.77,14.65C476.18,502.9,477.4,482.19,476.54,460.49Z"/><path class="cls-6" d="M459.66,381.72c-5.51-17.92-11-35.21-16.58-51.68l74.73-33,14,44C514.48,363.11,481.32,374.34,459.66,381.72Z"/><path class="cls-7" d="M194.86,342.35c-1.5,6.46-2.84,12.94-4,19.46-6,34.26-9.55,76.6,21.54,100.24,17.3,13.15,40.19,16.06,61.14,18.52,21.44,2.53,43.15,2.63,64.69,1.64,52.55-2.41,106.66-10.16,156.46-27.6C540.13,438.7,590.33,413.08,606.2,364c11-34-1.49-71-22.93-98-23.65-29.7-60.2-46.43-96.51-56.15,16.72,44.45,29.37,80.21,45,131.16-13.9,17.89-41.09,29.71-57.13,35.46-20.58,7.31-40.8,15.2-93.63,21.72-28.33,3.5-64.71,4.12-85.6,3.6s-28.62-7.31-26.83-18.54c7.62-36,18.77-70.68,32.09-104.85C263.39,283.89,227.9,303.47,194.86,342.35Z"/><path class="cls-8" d="M534.55,227.74a238.51,238.51,0,0,0-47.78-17.91c15.61,41.78,32.92,90.56,45,131.16C555.19,313.86,571.05,265.4,534.55,227.74Z"/><path class="cls-9" d="M194.86,342.35c21.32-25.53,56.29-57,105.8-64-11.16,26.81-21.14,61.23-28,86.5L187.61,415C185.2,392.12,189.13,367.16,194.86,342.35Z"/><path class="cls-10" d="M190.88,361.81c3.33,73.39,51.35,111.86,113.69,120.8-52.22-2-84.28-8.56-101.4-29.24C185.43,433,183.58,401.05,190.88,361.81Z"/><path class="cls-11" d="M295.64,104.71c51.37-50.41,100.08-52.16,145.57.75-17.55-32.82-38.74-57-67.67-58.73C339.5,44.75,320.47,68,295.64,104.71Z"/><path class="cls-12" d="M394.72,195.3q17.31,42.4,31.42,84.32a493,493,0,0,0-50.63-4.15L354,193.65C367.83,193.79,381.41,194.31,394.72,195.3Z"/></g></g></svg>